<?xml version="1.0" encoding="utf-8"?>
<!-- Generator: Adobe Illustrator 16.0.0, SVG Export Plug-In . SVG Version: 6.00 Build 0)  -->
<!DOCTYPE svg PUBLIC "-//W3C//DTD SVG 1.1//EN" "http://www.w3.org/Graphics/SVG/1.1/DTD/svg11.dtd">
<svg version="1.1" id="Layer_4" xmlns="http://www.w3.org/2000/svg" xmlns:xlink="http://www.w3.org/1999/xlink" x="0px" y="0px"
	 width="2000px" height="2000px" viewBox="0 0 2000 2000" enable-background="new 0 0 2000 2000" xml:space="preserve">
<g>
	<path fill="#81BE41" d="M1007.8,817.2c0,5-3.8,8.7-8.897,8.8c-5.4,0-9.2-4-9.103-9.7c0.103-5.3,3.4-8.3,9.3-8.2
		C1005,808.1,1007.8,811.1,1007.8,817.2z"/>
	<path fill="#81BE41" d="M962.8,816.9c0-6,3-8.9,9.103-8.9c5.697,0,8.897,3.1,8.897,8.6c0,5.4-3.8,9.303-9,9.4
		C966.5,826,962.7,822.2,962.8,816.9z"/>
	<path fill="#81BE41" d="M971.9,793c-6.2,0-9.103-2.9-9.103-9c0-5.4,3.603-9.1,8.7-9c5.5,0.1,9.4,3.9,9.3,9.1
		C980.7,789.3,977,793,971.9,793z"/>
	<path fill="#81BE41" d="M944.9,793c-6.2,0-9.103-2.9-9.103-8.9c0-5.8,3-9.1,8.5-9.1c5.3,0,9.603,4.1,9.5,9.1
		C953.7,789.3,950,793,944.9,793z"/>
	<path fill="#81BE41" d="M917.9,793c-6.2,0-9.103-2.8-9.2-8.8c0-6,2.8-9.103,8.3-9.2c5.4-0.1,9.6,3.8,9.7,8.9
		C926.8,788.8,922.8,793,917.9,793z"/>
	<path fill="#81BE41" d="M890.8,793c-6.1,0-9-2.9-9.1-8.9c0-5.897,2.897-9,8.397-9.1c5.4,0,9.603,3.9,9.603,9
		C899.7,788.9,895.7,793,890.8,793z"/>
	<path fill="#81BE41" d="M944.9,841c5.8,0,8.897,3,8.897,8.6c0,5.303-4.2,9.5-9.2,9.4c-4.8-0.1-8.8-4.2-8.8-9.1
		C935.8,843.9,938.8,841,944.9,841z"/>
	<path fill="#81BE41" d="M881.8,817.1c0-6.1,2.9-9.1,8.9-9.1c4.897,0,9,4,9.1,8.9c0.103,5-4.1,9.1-9.397,9.1
		C884.7,826,881.8,822.9,881.8,817.1z"/>
	<path fill="#81BE41" d="M881.8,849.9c0-6,3-8.603,9.103-9c5.8-0.4,8.6,4.397,8.8,8.897c0.3,4.9-4,9.2-8.9,9.2
		C884.9,859,881.7,855.8,881.8,849.9z"/>
	<path fill="#81BE41" d="M809.4,694.5c-4,0.1-9.5-5.3-9.5-9.1c0.1-5,4.8-9.9,9.5-9.803c4.3,0.103,9.397,4.9,9.397,8.9
		C818.8,689.3,814.1,694.4,809.4,694.5z"/>
	<path fill="#81BE41" d="M854.8,784.1c0-6,2.9-9.1,8.4-9.1c5.397,0,9.6,4,9.6,9.1c-0.1,4.9-4.1,8.803-9.3,8.9
		C857.8,793.1,854.8,790,854.8,784.1z"/>
	<path fill="#81BE41" d="M890.7,760c-6,0-8.9-3-8.9-9.1c0-5.803,3.4-9,9.3-8.9c4.603,0.1,8.7,4.3,8.7,8.9
		C899.8,756.2,896,760,890.7,760z"/>
	<path fill="#81BE41" d="M917.7,841c5.897,0,9.1,3.2,9.1,9.1c0,4.9-4.3,9-9.2,8.9c-5.1-0.1-8.8-3.8-8.8-8.9
		C908.7,844,911.6,841,917.7,841z"/>
	<path fill="#81BE41" d="M935.8,817.2c-0.1-6.2,2.8-9.2,8.8-9.2c5.4,0,9.2,3.6,9.2,9c0,4.8-4.3,9.1-9.1,9
		C939,825.9,935.8,822.8,935.8,817.2z"/>
	<path fill="#81BE41" d="M908.8,816.8c0-6,3-8.8,9.2-8.8c5,0,8.7,3.8,8.8,8.9c0,4.8-4.2,9.197-9,9
		C913.2,825.8,907.8,823,908.8,816.8z"/>
	<path fill="#81BE41" d="M827.8,718.6c0-6.197,3.2-9.697,8.7-9.6c5.3,0.1,9.3,4.1,9.3,9.4c0.103,5-4,8.697-9.6,8.6
		C830.5,727,827.8,724.3,827.8,718.6z"/>
	<path fill="#81BE41" d="M863.7,760c-6.103,0-8.7-3-9.103-9.1c-0.397-5.803,4.4-8.603,8.9-8.9c4.9-0.2,9.2,4.1,9.2,9
		C872.8,755.9,868.7,760,863.7,760z"/>
	<path fill="#81BE41" d="M809.2,726.5c-5,0-9.5-4.1-9.4-8.6c0.103-4.5,5-9.4,9.5-9.4c4.3,0,9.4,4.9,9.4,9
		C818.8,722.4,814.5,726.5,809.2,726.5z"/>
	<path fill="#81BE41" d="M827.8,751.5c0-6.5,2.8-9.5,9-9.5c4.8,0,9.103,4.4,9,9.1c-0.1,4.803-4.3,8.9-9.1,8.9
		C830.7,760,827.8,757.2,827.8,751.5z"/>
	<path fill="#81BE41" d="M863.3,808c5.103,0,9.603,4.2,9.4,8.7c-0.2,5.3-4.103,9.2-9.4,9.3c-5.6,0-8.6-3.1-8.6-9
		C854.8,811.1,857.7,808,863.3,808z"/>
	<path fill="#81BE41" d="M836.2,775c5.3,0,9.6,4.2,9.5,9.2c-0.103,4.897-4.3,8.8-9.3,8.8c-5.603,0.1-8.603-3-8.7-8.9
		C827.7,778.1,830.6,775,836.2,775z"/>
</g>
<g opacity="0.7">
	<path fill="#B0ADA1" d="M980.7,915.3c0.1,5.3-3.9,9.603-8.9,9.7s-9.1-4.2-9.1-9.5c0-5.2,4.2-9.6,9.2-9.4
		C976.8,906.1,980.7,910.3,980.7,915.3z"/>
	<path fill="#B0ADA1" d="M1007.7,915.6c0,5.2-4.4,9.603-9.3,9.303c-5.103-0.2-8.9-4.5-8.7-9.9c0.1-5,4.2-9.1,9-9.1
		C1003.8,906,1007.8,910.3,1007.7,915.6z"/>
	<path fill="#B0ADA1" d="M1034.7,915.7c-0.103,5-4,9.1-8.9,9.3c-5.1,0.1-9.3-4.4-9.1-10c0.1-5,4.3-9.1,9.1-9
		C1030.9,906.1,1034.8,910.4,1034.7,915.7z"/>
	<path fill="#B0ADA1" d="M791.7,685.5c0,4.5-5,9.5-9.5,9.5s-9.5-5-9.5-9.5c0-4.3,4.897-9.4,9-9.5C786.6,676,791.7,680.8,791.7,685.5
		z"/>
	<path fill="#B0ADA1" d="M1151.8,915.3c0.603-5.2,5.8-9.8,10.2-9.2c4.8,0.7,9,5.5,8.5,9.603c-0.7,5.5-5.5,9.897-10,9.2
		C1155.8,924.2,1151.3,919.2,1151.8,915.3z"/>
	<path fill="#B0ADA1" d="M1061.8,914.8c0,5.8-3.8,10.103-8.897,10.2c-4.9,0-9.103-4.4-9.103-9.6c0-5,4.103-9.2,8.9-9.303
		C1057.3,905.9,1061.7,910.1,1061.8,914.8z"/>
	<path fill="#B0ADA1" d="M953.7,915.6c0,5.2-4.3,9.603-9.2,9.4c-5-0.2-8.9-4.5-8.8-9.8c0.1-4.8,4.1-9.5,8.397-9.103
		C950.1,906.7,953.8,909.4,953.7,915.6z"/>
	<path fill="#B0ADA1" d="M782.4,925c-4.5,0.1-9.5-4.8-9.603-9.4c-0.1-4.5,4.8-9.5,9.4-9.6c4.5-0.1,9.5,4.8,9.6,9.4
		C791.8,919.9,786.9,924.9,782.4,925z"/>
	<path fill="#B0ADA1" d="M1188.1,1005c5.303,0,9.603,4,9.603,9s-4.301,9-9.603,9c-4.8,0-9.5-3.8-9.197-8.3
		C1179.3,1009.4,1181.4,1005.1,1188.1,1005z"/>
	<path fill="#B0ADA1" d="M809.4,1038c5.197,0.1,9.6,4.4,9.3,9.3c-0.2,5.103-4.5,8.9-9.9,8.7c-4.8-0.1-9.397-4.2-9-8.5
		C800.5,1041.3,803.5,1037.8,809.4,1038z"/>
	<path fill="#B0ADA1" d="M782.1,775c5.103,0,9.603,3.9,9.603,8.5c0,5.2-3.9,9.4-9.103,9.5c-5.397,0.1-9.6-3.7-9.8-8.8
		C772.6,779.3,776.9,775,782.1,775z"/>
	<path fill="#B0ADA1" d="M782.3,760c-5.3,0-9.5-4-9.5-9c0-4.7,4.5-9.1,9.2-9c5.2,0.1,9.7,4.2,9.8,9C791.8,755.9,787.5,760,782.3,760
		z"/>
	<path fill="#B0ADA1" d="M809.8,760c-5.5,0-10.1-3.9-10-8.6c0.103-5.2,4.2-9.4,9.3-9.4c5.303-0.1,9.603,3.9,9.603,9
		C818.8,755.8,814.6,760,809.8,760z"/>
	<path fill="#B0ADA1" d="M1007.7,1145.4c0,5.3-3.9,9.6-9,9.6c-5,0-9.103-4.3-9-9.6c0-5,4.3-9.9,8.7-9.303
		C1004.7,1136.9,1007.8,1139.9,1007.7,1145.4z"/>
	<path fill="#B0ADA1" d="M980.7,1145.7c-0.103,5.2-4.4,9.6-9.3,9.3c-5.103-0.3-8.803-4.5-8.7-9.9c0.1-4.697,4.2-9.397,8.5-9
		C977.5,1136.8,980.9,1139.8,980.7,1145.7z"/>
	<path fill="#B0ADA1" d="M791.7,1145.4c0.1,4.197-4.8,9.5-8.8,9.6c-4.803,0.2-10-4.6-10.103-9.3c-0.1-4.2,4.603-9.4,8.8-9.5
		C786.5,1135.9,791.6,1140.6,791.7,1145.4z"/>
	<path fill="#B0ADA1" d="M908.8,1146.1c0-5.6,3.8-10.1,8.5-10.1c5.2,0,9.4,4.1,9.5,9.2c0.103,5.3-3.897,9.6-8.897,9.7
		C913.1,1155.1,908.8,1150.9,908.8,1146.1z"/>
	<path fill="#B0ADA1" d="M1007.8,1046.8c0,5.3-3.397,9.2-8.3,9.2c-5.7,0.1-9.5-3.6-9.7-9.2c-0.1-5.1,3.603-8.8,8.8-8.8
		C1004.7,1037.9,1007.7,1040.8,1007.8,1046.8z"/>
	<path fill="#B0ADA1" d="M1007.8,1014c0,6.1-2.897,9-8.897,9c-5.803,0-9-3-9.103-8.5c0-5.5,3.603-9.4,8.8-9.5
		C1003.9,1004.9,1007.7,1008.7,1007.8,1014z"/>
	<path fill="#B0ADA1" d="M682.8,1145.5c0,5.3-4,9.5-9,9.5c-4.8,0-9.1-4.3-9-9.1c0.103-5.2,4.2-10,8.9-9.7
		C679,1136.6,684,1140.5,682.8,1145.5z"/>
	<path fill="#B0ADA1" d="M818.7,1145.1c0,4.803-4.603,9.9-9,9.9c-4.7,0-9.8-4.6-9.9-8.9c-0.1-4.6,5.2-10.197,9.603-10
		C813.8,1136.2,818.8,1141,818.7,1145.1z"/>
	<path fill="#B0ADA1" d="M899.7,1145.3c0.1,5.2-4,9.7-9,9.7c-4.603,0-8.9-4.1-9-8.5c-0.103-5.8,3.7-10.5,8.5-10.5
		S899.6,1140.5,899.7,1145.3z"/>
	<path fill="#B0ADA1" d="M953.7,1145.3c0.1,5.4-4,9.7-9,9.7c-4.8,0-8.9-4.2-9-9.2c-0.103-5.1,3.897-9.7,8.5-9.7
		C949.4,1136,953.7,1140.1,953.7,1145.3z"/>
	<path fill="#B0ADA1" d="M1034.7,1145.4c0,5.3-4,9.6-9,9.6s-9-4.3-9-9.6c0-5,4.397-9.9,8.8-9.303
		C1031.8,1136.9,1034.8,1140,1034.7,1145.4z"/>
	<path fill="#B0ADA1" d="M1061.8,1146.2c0,4.7-4.397,8.897-9.1,8.8c-5-0.1-9-4.4-8.9-9.7c0.103-5,4.2-9.1,9-9.1
		C1058,1136.1,1061.8,1140.3,1061.8,1146.2z"/>
	<path fill="#B0ADA1" d="M701,1104c5.9,0,8.4,2.6,8.8,8.1c0.5,6.9-3.1,9.2-8.397,9.803c-5.2,0.6-9.7-3.9-9.7-8.9
		C691.8,1107,694.9,1104,701,1104z"/>
	<path fill="#B0ADA1" d="M1188.6,841c4.7,0,9,3.9,9.103,8.3c0.199,5.103-4.2,9.7-9,9.7c-5.2,0-9.7-4.1-9.9-8.9
		C1178.6,845.1,1183,841,1188.6,841z"/>
	<path fill="#B0ADA1" d="M809.2,793c-5.103,0-9.603-4.3-9.4-8.8c0.3-5.4,4.3-9.3,9.603-9.2c5.1,0,9.197,4,9.397,8.8
		C818.9,788.8,814.5,793,809.2,793z"/>
	<path fill="#B0ADA1" d="M908.8,915.9c0-5.5,4-10.103,8.7-9.9c5.3,0.2,9.3,4.2,9.3,9.4c0,5.197-4.2,9.6-9.1,9.6
		C912.9,924.9,908.7,920.7,908.8,915.9z"/>
	<path fill="#B0ADA1" d="M854.8,981.4c0-6.4,3.2-9.603,9.3-9.4c4.603,0.1,8.7,4.3,8.7,8.9c0.103,5.3-3.8,9.1-9.2,9.1
		C857.7,990,854.7,987.1,854.8,981.4z"/>
	<path fill="#B0ADA1" d="M890.7,990c-6,0-8.603-3-9-9.1c-0.4-5.803,4.397-8.603,8.897-8.803c4.9-0.3,9.2,4,9.2,8.9
		C899.8,986.8,896.6,990,890.7,990z"/>
	<path fill="#B0ADA1" d="M1034.8,981.1c0,6-3,8.9-9.1,8.9c-5.9,0-8.9-3-8.9-8.6c0-5.303,4.2-9.5,9.2-9.4
		C1030.8,972.1,1034.8,976.2,1034.8,981.1z"/>
	<path fill="#B0ADA1" d="M1088.8,980.9c0,6.1-2.897,9.1-8.897,9.1c-5.9,0-9.103-3.2-9.103-9.1c0-4.603,4.103-8.803,8.7-8.9
		C1085.3,971.8,1088.7,975.1,1088.8,980.9z"/>
	<path fill="#B0ADA1" d="M809.9,1071c4.697,0,8.897,4.4,8.8,9.1c-0.103,4.803-4.4,9-9.2,8.9c-5.3-0.1-9.6-4.2-9.7-9
		C799.8,1074.7,804,1071,809.9,1071z"/>
	<path fill="#B0ADA1" d="M736.8,948.4c0,5.8-2.7,8.3-8.2,8.697c-7,0.603-9.6-3.897-9.6-8.5c0-6.197,3.2-9.397,9.5-9.397
		C732.7,939.1,737.6,941.8,736.8,948.4z"/>
	<path fill="#B0ADA1" d="M1134.3,957c-6.1,0-9.7-3.2-9.5-8.7c0.2-5.3,4.2-9.2,9.4-9.3c5.6,0,8.6,3.4,8.5,9.7
		C1142.7,954.3,1140,957,1134.3,957z"/>
	<path fill="#B0ADA1" d="M971.7,1023c-6.103,0-8.9-3-8.9-9.1c0-5.103,3.8-8.803,8.9-8.9c5.1-0.1,9.1,4.2,9.1,9.5
		C980.7,1020,977.5,1023,971.7,1023z"/>
	<path fill="#B0ADA1" d="M1088.8,1047.1c0,5.9-3,9-8.6,8.9c-5.3,0-9.5-4.1-9.4-9.1c0.103-4.803,4.2-8.9,9.103-8.9
		C1085.9,1038,1088.8,1040.9,1088.8,1047.1z"/>
	<path fill="#B0ADA1" d="M1088.8,1014.2c-0.1,6-3.1,8.8-9.2,8.8c-4.8,0-8.8-4.3-8.8-9.2c0.103-5.1,4.3-8.897,9.7-8.8
		C1086,1005.1,1088.8,1008.3,1088.8,1014.2z"/>
	<path fill="#B0ADA1" d="M1115.8,1014.2c0,6-3,8.8-9.2,8.8c-4.8,0-8.897-4.3-8.8-9.1c0.103-5.103,4.3-8.9,9.7-8.803
		C1112.9,1005.1,1115.8,1008.3,1115.8,1014.2z"/>
	<path fill="#B0ADA1" d="M1052.9,1038c6,0,8.897,3,8.897,9.1c0,5.803-3,8.9-8.6,8.9c-5.3,0-9.5-4.2-9.4-9.2
		C1043.9,1041.9,1048,1038,1052.9,1038z"/>
	<path fill="#B0ADA1" d="M1161.4,1023c-5.4,0.1-9.7-4-9.7-9c0-4.8,4.2-8.9,9.2-9c5.3-0.1,9.697,4,9.6,9.1
		C1170.6,1019,1166.5,1022.9,1161.4,1023z"/>
	<path fill="#B0ADA1" d="M1034.8,1047.2c0,5.7-3.2,8.897-8.7,8.8c-5.1-0.1-9.197-4-9.3-8.9c-0.1-5.3,3.8-9.197,9.103-9.1
		C1031.9,1038,1034.8,1041,1034.8,1047.2z"/>
	<path fill="#B0ADA1" d="M971.9,1038c5.197,0,9,3.7,8.897,8.8c-0.1,5.5-4,9.3-9.2,9.2c-5.1-0.1-8.8-3.9-8.8-9
		C962.7,1040.9,965.7,1038,971.9,1038z"/>
	<path fill="#B0ADA1" d="M935.8,1047c0-6.1,2.9-9,9.103-9c5.1,0,8.8,3.7,8.897,8.8c0.103,5-4.1,9.2-9.5,9.2
		C938.8,1056,935.7,1052.8,935.8,1047z"/>
	<path fill="#B0ADA1" d="M917.8,1038c4.9,0,8.9,4.1,8.9,9c0,5.1-4.2,9-9.603,9c-5.5,0-8.397-3.2-8.397-9.1
		C908.8,1040.9,911.7,1038,917.8,1038z"/>
	<path fill="#B0ADA1" d="M863.6,1023c-6,0-8.897-3-8.897-9.1c0-5.9,3-8.9,8.6-8.9c5.3,0,9.5,4.2,9.4,9.2
		C872.7,1019,868.5,1023,863.6,1023z"/>
	<path fill="#B0ADA1" d="M890.8,1023c-6.1,0-9.1-2.9-9.1-8.9c0-5.897,2.897-9.1,8.397-9.1c5.4,0,9.603,3.9,9.603,9
		C899.8,1018.9,895.7,1023,890.8,1023z"/>
	<path fill="#B0ADA1" d="M917.8,1023c-6.1,0-9.1-2.9-9.1-9c0-5.8,3.1-9,8.5-9c5.3,0,9.5,4.1,9.5,9.2
		C926.7,1019.3,923,1023,917.8,1023z"/>
	<path fill="#B0ADA1" d="M1007.8,784c0,6.1-2.897,9.1-9.1,9c-5.3,0-9-3.7-8.9-8.7c0.103-5.5,3.9-9.397,9.2-9.3
		C1004.1,775.1,1007.7,778.8,1007.8,784z"/>
	<path fill="#B0ADA1" d="M1035.1,784c0-5.2-3.697-8.9-8.8-9c-5.3-0.1-9.1,3.8-9.2,9.3c-0.1,5.103,3.7,8.7,8.9,8.7
		C1032.2,793,1035.1,790.1,1035.1,784z"/>
	<path fill="#B0ADA1" d="M1035.1,784c0,6.1-2.897,9.1-9.1,9c-5.3,0-9-3.7-8.9-8.7c0.103-5.5,3.9-9.397,9.2-9.3
		C1031.4,775.1,1035.1,778.8,1035.1,784z"/>
	<path fill="#B0ADA1" d="M863.2,727c-5.7,0-8.4-2.7-8.5-8.3c0-6.3,3-9.7,8.6-9.603c5.3,0.103,9.3,4,9.4,9.303
		C872.9,723.8,869.4,727,863.2,727z"/>
	<path fill="#B0ADA1" d="M728,874c5.8,0,8.4,2.6,8.8,8.1c0.5,6.9-3.3,9.603-8.397,9.7c-6.303,0.2-9.2-3.1-9.603-9.397
		C718.5,877.1,722.1,874,728,874z"/>
	<path fill="#B0ADA1" d="M1224.7,850c0,4.8-4.3,9-9.2,9c-5.4-0.1-9.9-4.3-9.5-9.5c0.4-5,3.8-9.3,9.7-8.6
		C1220.6,841.5,1224.8,845.3,1224.7,850z"/>
	<path fill="#B0ADA1" d="M1161.5,841c5,0,8.9,3.8,9.1,8.8c0.2,4.7-4.5,9.3-9.5,9.2c-5.197-0.1-9.8-4.4-9.397-9.2
		C1152.2,845.6,1155.8,839.7,1161.5,841z"/>
	<path fill="#B0ADA1" d="M1034.8,850.2c0,4.8-4.3,8.8-9.2,8.8c-5.1-0.1-8.897-4.3-8.8-9.7c0.103-5.5,3.3-8.3,9.2-8.3
		C1032,841.1,1034.8,844.1,1034.8,850.2z"/>
	<path fill="#B0ADA1" d="M962.8,850.2c0-6.103,2.8-9.103,8.8-9.2c6,0,9.103,2.8,9.2,8.3c0.103,5.4-3.8,9.603-8.897,9.7
		C967,859.1,962.8,855,962.8,850.2z"/>
	<path fill="#B0ADA1" d="M1088.8,915.9c0,4.697-3.897,8.897-8.3,9.1c-4.9,0.2-9.7-4.6-9.7-9.6c0.103-4.803,4.2-9.2,8.9-9.4
		C1084.7,905.9,1088.8,910.3,1088.8,915.9z"/>
	<path fill="#B0ADA1" d="M881.8,915.3c0-4.897,4.2-9.397,8.7-9.3c5,0.2,9.3,4.5,9.3,9.4c0,5-4.5,9.697-9.2,9.5
		C885.5,924.8,881.7,920.7,881.8,915.3z"/>
	<path fill="#B0ADA1" d="M1142.8,882.3c0,6.3-3,9.7-8.6,9.7c-5.3,0-9.3-4-9.4-9.3c-0.1-5.5,3.4-8.7,9.5-8.7
		C1140,874,1142.7,876.7,1142.8,882.3z"/>
	<path fill="#B0ADA1" d="M836.4,874c6.6-0.9,9.197,4.1,9.197,8.3c0,6.3-3.197,9.5-9.397,9.5c-4.7,0-9.103-2.7-8.5-9.6
		C828.1,876.7,830.6,874,836.4,874z"/>
	<path fill="#B0ADA1" d="M1053,808c6,0,8.8,3,8.8,9.3c-0.1,5.7-3.2,8.8-8.8,8.7c-5.1-0.1-9.1-4.1-9.2-9
		C1043.7,811.7,1047.5,808,1053,808z"/>
	<path fill="#B0ADA1" d="M1088.8,1145.5c0,5.2-4,9.5-9,9.5c-4.7,0-9.1-4.5-9-9.2c0.103-5.2,4.2-10,9-9.6
		C1085.1,1136.6,1090,1140.5,1088.8,1145.5z"/>
	<path fill="#B0ADA1" d="M782.2,1202"/>
	<path fill="#B0ADA1" d="M728,1202.1"/>
	<path fill="#B0ADA1" d="M962.8,1080c0-6.1,2.9-9,9-9c5.9,0,9,2.9,9,8.5c0,5.3-4,9.5-9.1,9.5C966.8,1089,962.8,1084.9,962.8,1080z"
		/>
	<path fill="#B0ADA1" d="M935.8,1080c0-6.1,2.9-9,9-9c5.8,0,9,3.1,9,8.6c0,5.303-4.2,9.5-9.2,9.4
		C939.4,1088.9,935.8,1085.2,935.8,1080z"/>
	<path fill="#B0ADA1" d="M917.5,1071c6.2-0.9,9,4.3,9.2,8.9c0.2,4.8-4.2,9.1-9,9.1c-5.7,0-8.9-3.2-9-8.7
		C908.7,1074.1,911.5,1071.1,917.5,1071z"/>
	<path fill="#B0ADA1" d="M1107,1104c5.8,0,8.4,2.6,8.8,8.1c0.5,6.9-3.1,9.603-8.397,9.7c-6.303,0.2-9.2-3.1-9.603-9.3
		C1097.5,1107.1,1101.1,1104,1107,1104z"/>
	<path fill="#B0ADA1" d="M945,1104c5.8,0.1,8.8,3.1,8.7,8.8c-0.103,5.3-4.2,9.4-9.3,9.2c-4.803-0.2-8.7-4.3-8.7-9.3
		C935.8,1106.8,938.8,1103.9,945,1104z"/>
	<path fill="#B0ADA1" d="M854.8,1112.3c0-5.6,2.8-8.3,8.5-8.3c6.2,0,9.7,3.2,9.5,8.7c-0.1,5.3-4.2,9.3-9.397,9.3
		C857.8,1122,854.7,1118.6,854.8,1112.3z"/>
	<path fill="#B0ADA1" d="M736.8,1112.6c0.8,6.603-3.897,9.2-8.3,9.303c-6.3,0-9.2-3.2-9.6-9.4c-0.303-5.5,3.3-8.5,9.697-8.5
		C734.1,1104,736.8,1106.8,736.8,1112.6z"/>
	<path fill="#B0ADA1" d="M763.8,685.7c0,4.897-4.2,9.397-8.6,9.3c-4.603-0.1-9.4-5.1-9.3-9.5c0-4.3,4.897-9.4,8.897-9.4
		C760.6,675.9,763.8,679.3,763.8,685.7z"/>
	<path fill="#B0ADA1" d="M809.2,1202"/>
	<path fill="#B0ADA1" d="M998.7,1071c6,0,9.1,2.9,9.1,8.5c0,5.3-4.1,9.6-9.1,9.5c-4.9-0.1-8.8-4.2-8.8-9.3
		C989.7,1074,992.8,1071,998.7,1071z"/>
	<path fill="#B0ADA1" d="M1025.5,1071c6.2-0.1,9.2,2.8,9.2,8.8c0,5.4-3.603,9.2-9,9.2c-4.8,0-9-4.3-9-9.1
		C1016.8,1074.2,1020,1071,1025.5,1071z"/>
	<path fill="#B0ADA1" d="M1052.6,1071c6.103,0,9.103,2.9,9.103,8.9c0,5.3-3.801,9.197-9.103,9.1c-4.6-0.1-8.697-4.1-8.897-8.7
		C1043.6,1074.4,1046.9,1071,1052.6,1071z"/>
	<path fill="#B0ADA1" d="M1080.4,1104c5.5,0,8.3,3.1,8.3,9.1c0,4.9-3.601,8.803-8.3,8.9c-5.2,0.1-9.803-4-9.603-9
		C1070.9,1108.4,1073.7,1103,1080.4,1104z"/>
	<path fill="#B0ADA1" d="M1079.8,1071c6.103,0,9,2.9,9,9c0,5.8-3.3,9.1-9.2,9c-4.6-0.1-8.697-4.2-8.8-8.8
		C1070.7,1074.9,1074.5,1071,1079.8,1071z"/>
	<path fill="#B0ADA1" d="M1025.7,1104c6.1,0,9,2.9,9.1,8.9c0,4.6-4,9-8.399,9.1c-5.5,0.1-9.601-4-9.601-9.4
		C1016.7,1107,1019.8,1104,1025.7,1104z"/>
	<path fill="#B0ADA1" d="M999,1104c5.8,0.1,8.9,3.1,8.8,8.8c-0.1,5.103-4.1,9.2-9,9.2c-5.1,0-9.1-4.2-9-9.6
		C989.8,1106.8,993,1103.9,999,1104z"/>
	<path fill="#B0ADA1" d="M971.9,1104c5.897,0,8.897,3.1,8.897,8.7c-0.1,5.1-4,9.2-8.897,9.3c-5.103,0.1-9.103-4.2-9.103-9.6
		C962.8,1106.9,965.9,1104,971.9,1104z"/>
	<path fill="#B0ADA1" d="M709.8,1080.4c-0.1,5.5-3.397,8.6-9.1,8.6c-4.9,0-9-4.3-8.9-9.2c0.103-5.3,3.9-8.897,9.4-8.8
		C707.1,1071.1,709.8,1074.1,709.8,1080.4z"/>
	<path fill="#B0ADA1" d="M736.8,1079.5c0,6.5-2.897,9.5-9,9.5c-5,0-9.1-4.4-9-9.7c0.103-4.3,4.5-8.397,9.103-8.3
		C733.8,1071,736.7,1073.8,736.8,1079.5z"/>
	<path fill="#B0ADA1" d="M763.8,1079.8c0,6.2-3,9.3-8.8,9.2c-5-0.1-9.1-4.1-9.2-8.9c0-4.8,4.2-9,8.9-9.1
		C760.8,1071,763.8,1073.9,763.8,1079.8z"/>
	<path fill="#B0ADA1" d="M827.8,1079.3c0-5.5,3.103-8.3,9.103-8.3c4.6,0,8.897,4.2,8.897,8.5c0,5.3-4.1,9.5-9.1,9.5
		C830.4,1088.9,827.7,1086,827.8,1079.3z"/>
	<path fill="#B0ADA1" d="M881.8,1080.1c0-6.1,2.9-9.1,8.9-9.1c5.3,0,9.2,3.8,9.1,9.1c-0.1,4.603-4.1,8.803-8.7,8.9
		C885.2,1089.2,881.8,1085.9,881.8,1080.1z"/>
	<path fill="#B0ADA1" d="M890.3,1104c6.3,0,9.603,3.2,9.4,9.3c-0.103,4.8-4.4,8.7-9.4,8.7c-4.8,0-8.6-4-8.6-9.2
		C881.8,1106.9,884.6,1104,890.3,1104z"/>
	<path fill="#B0ADA1" d="M827.8,1112.4c0-5.7,2.7-8.4,8.4-8.4s9.7,3.6,9.6,8.6c-0.1,5.303-4.1,9.303-9.3,9.4
		C830.9,1122.1,827.7,1118.6,827.8,1112.4z"/>
	<path fill="#B0ADA1" d="M1053.1,1187c-6.3,0-9.397-2.9-9.397-8.7c0.1-5,3.897-9.2,8.8-9.3c4.9-0.2,9.3,4.2,9.2,9.3
		C1061.7,1184.1,1058.8,1187,1053.1,1187z"/>
	<path fill="#B0ADA1" d="M890.2,1187c-5.9,0-8.5-2.7-8.4-8.8c0-4.9,4.2-9.4,8.8-9.2c5.103,0.2,9.2,4.1,9.2,8.9
		C899.8,1184,896.7,1187,890.2,1187z"/>
	<path fill="#B0ADA1" d="M809.1,1187c-4.8,0-9.3-4.1-9.197-8.2c0.1-5.2,4.6-9.897,9.5-9.8c4.3,0.1,9.3,4.9,9.397,9
		C818.8,1183.9,815.4,1187,809.1,1187z"/>
	<path fill="#B0ADA1" d="M854.8,1145.3c0-4.8,3.9-9,8.3-9.2c4.7-0.197,9.9,5,9.7,9.803c-0.2,4.8-4.6,9.3-9.1,9.197
		C858.6,1154.9,854.7,1150.7,854.8,1145.3z"/>
	<path fill="#B0ADA1" d="M827.8,1145.2c0-4.7,3.9-8.9,8.3-9.103c4.603-0.197,9.803,5,9.7,9.7c-0.1,4.3-5,9.3-9.1,9.3
		C831.2,1155,827.7,1151.1,827.8,1145.2z"/>
	<path fill="#B0ADA1" d="M890.2,957c-5.9,0-8.5-2.7-8.4-8.8c0-4.9,4.3-9.3,8.8-9.2c5.103,0.2,9.2,4.1,9.2,8.9
		C899.8,954,896.7,957,890.2,957z"/>
	<path fill="#B0ADA1" d="M917.3,957c-5.7,0-8.5-2.9-8.6-8.8c0-4.603,4-9,8.3-9.2c5.2-0.2,9.7,3.9,9.7,8.9
		C926.8,954.1,923.8,957,917.3,957z"/>
	<path fill="#B0ADA1" d="M1053.1,957c-6.3,0-9.397-2.9-9.397-8.6c0-5,3.897-9.2,8.8-9.303c4.9-0.197,9.3,4.2,9.2,9.2
		C1061.7,954.1,1058.8,957,1053.1,957z"/>
	<path fill="#B0ADA1" d="M1115.8,948.6c0,5.7-2.7,8.4-8.397,8.4c-6.303,0-9.7-3-9.603-8.6c0-5.303,4-9.303,9.3-9.4
		C1112.1,938.9,1115.8,942.9,1115.8,948.6z"/>
	<path fill="#B0ADA1" d="M1161,957c-5.3,0-9.2-3.6-9.2-8.5c0-4.4,4.9-9.4,9.3-9.5c4.5-0.1,10.103,5,9.5,9.3
		C1169.8,953.7,1166.4,958.1,1161,957z"/>
	<path fill="#B0ADA1" d="M998.8,841c5.9,0,9,3,8.9,8.7c-0.103,5.2-3.9,9.2-8.8,9.3c-5.103,0.1-9.2-4.2-9.2-9.5
		C989.8,843.9,992.9,841,998.8,841z"/>
	<path fill="#B0ADA1" d="M1052.5,841c6.2,0,9.2,2.8,9.2,8.8c0,5.4-3.7,9.2-9,9.2c-4.8,0-9-4.3-9-9.1
		C1043.8,844.2,1047,841,1052.5,841z"/>
	<path fill="#B0ADA1" d="M701.1,874c5.803,0,8.603,2.6,8.7,8.1c0,5.9-3.3,10.103-8.397,9.803c-6.303-0.4-9.2-3.303-9.5-9.5
		C691.6,877,695.1,874,701.1,874z"/>
	<path fill="#B0ADA1" d="M863.3,874c6.103,0,9.603,3.3,9.5,8.8c-0.2,5.3-4.2,9.2-9.5,9.2c-5.1,0-8.6-4-8.5-9.7
		C854.8,876.7,857.5,874,863.3,874z"/>
	<path fill="#B0ADA1" d="M917.3,874c6.5,0,9.5,2.9,9.4,9.1c-0.103,4.803-4.2,8.7-9.3,8.9c-4.5,0.1-8.803-4.3-8.7-9.2
		C908.8,876.9,911.6,874,917.3,874z"/>
	<path fill="#B0ADA1" d="M944.2,874c6.397,0,9.5,2.8,9.5,8.5c0,5.3-4.2,9.6-9.103,9.5c-4.8-0.1-8.897-4.3-8.897-9.1
		C935.8,877,938.6,874,944.2,874z"/>
	<path fill="#B0ADA1" d="M1061.8,883.1c0,4.5-4.2,8.9-8.6,8.9c-5.3-0.1-9.7-4.2-9.4-9.2c0.4-7.397,4.4-9.2,9.7-8.897
		C1059,874.2,1061.8,877.1,1061.8,883.1z"/>
	<path fill="#B0ADA1" d="M1080.3,874c5.9,0,8.5,2.7,8.4,8.8c0,4.9-4.3,9.3-8.8,9.2c-5.103-0.2-9.2-4.1-9.2-8.9
		C1070.7,877,1073.8,874,1080.3,874z"/>
	<path fill="#B0ADA1" d="M1107.3,874c5.7,0,8.4,2.7,8.4,8.4c0,5.697-3.601,9.697-8.601,9.6c-5.302-0.1-9.302-4.1-9.302-9.4
		C1097.7,877.1,1101.2,874,1107.3,874z"/>
	<path fill="#B0ADA1" d="M1061.8,1014.2c-0.1,6-3.1,8.8-9.3,8.8c-5.1,0-8.7-3.8-8.7-9c0-4.8,4.2-9.2,9.103-9
		C1057.5,1005.2,1062.7,1008.1,1061.8,1014.2z"/>
	<path fill="#B0ADA1" d="M863,1038c5.4-0.1,9.7,3.8,9.7,8.9c0,4.897-4.103,8.897-9.103,9.1c-5.697,0.1-8.8-2.9-8.897-8.7
		C854.7,1041.3,857.5,1038.1,863,1038z"/>
	<path fill="#B0ADA1" d="M881.8,1046.8c0-5.8,3.103-8.897,8.8-8.8c5.103,0.1,9.2,4.1,9.2,9c0,5.1-4.2,9.1-9.6,9
		C884.6,1055.9,881.7,1052.8,881.8,1046.8z"/>
	<path fill="#B0ADA1" d="M971.8,990c-6,0-9.1-2.9-9.1-8.5c0-5.3,4.1-9.6,9.2-9.5c4.897,0.1,8.8,4.2,8.8,9.4
		C980.8,987,977.7,990,971.8,990z"/>
	<path fill="#B0ADA1" d="M917.8,990c-6.1,0-9.1-2.9-9.1-8.9c0-5.3,3.897-9.1,9.2-9.1c4.6,0.1,8.697,4.1,8.8,8.8
		C926.9,986.6,923.6,990,917.8,990z"/>
	<path fill="#B0ADA1" d="M1061.8,980.9c0,6.1-2.897,9.1-8.897,9.1c-5.9,0-9.103-3.2-9.103-9.1c0-4.9,4.3-9,9.2-8.9
		C1058.1,972.1,1061.7,975.8,1061.8,980.9z"/>
	<path fill="#B0ADA1" d="M998.8,990c-6,0-9.1-2.9-9.1-8.5c0-5.3,4.1-9.6,9.1-9.5c4.9,0.1,8.8,4.2,8.8,9.3
		C1007.8,987,1004.7,990,998.8,990z"/>
	<path fill="#B0ADA1" d="M1034.8,816.9c0,5.3-3.8,9.197-9.1,9.1c-4.8,0-9-4.3-8.9-9.2c0.103-5.1,3.8-8.8,8.9-8.8
		C1031.8,808,1034.7,810.9,1034.8,816.9z"/>
	<path fill="#B0ADA1" d="M763.8,751.6c0,5.603-3,8.4-8.897,8.4c-4.803,0-9-4.1-9-8.9c-0.103-4.8,4.197-9.1,9-9.1
		C761,742,763.8,745,763.8,751.6z"/>
	<path fill="#B0ADA1" d="M763.8,784.3c0,5.603-2.897,8.603-8.2,8.7c-5.397,0.1-9.697-3.9-9.8-8.9c-0.1-5,4.3-9.1,9.603-9.1
		C760.9,775.1,763.7,778.1,763.8,784.3z"/>
	<path fill="#B0ADA1" d="M755.3,1187c-6.1,0-9.6-3.2-9.5-8.6c0.103-4.5,5.103-9.4,9.5-9.4c5.5,0,8.5,3.4,8.5,9.7
		C763.7,1184.3,761,1187,755.3,1187z"/>
	<path fill="#B0ADA1" d="M836.4,1187c-6,0-8.4-2.7-8.803-8.6c-0.397-6.603,3.7-9.103,8.303-9.303c5.397-0.3,9.5,3.803,9.697,9.5
		C845.9,1184,842.4,1187,836.4,1187z"/>
	<path fill="#B0ADA1" d="M863.4,1187c-6,0-8.7-2.7-8.603-8.6c0-5,4-9.7,8.5-9.303c6.2,0.5,9.3,3.2,9.3,9.603
		C872.6,1183,869.9,1187.8,863.4,1187z"/>
	<path fill="#B0ADA1" d="M917.3,1187c-5.7,0-8.5-2.9-8.5-8.9c0-4.8,4-9,8.8-9.1c4.7-0.1,9.103,4.2,9.2,8.9
		C926.8,1184.1,923.8,1187,917.3,1187z"/>
	<path fill="#B0ADA1" d="M944.6,1187c-5.8,0-8.897-2.9-8.897-8.6c0-5.103,3.897-9.2,8.8-9.4c5-0.2,9.2,4.2,9.2,9.5
		C953.7,1184.1,950.7,1187,944.6,1187z"/>
	<path fill="#B0ADA1" d="M999.2,1187c-6.4,0-9.5-2.8-9.5-8.6c0-5.103,3.897-9.2,8.8-9.4c5-0.1,9.2,4.2,9.2,9.5
		C1007.7,1184,1004.7,1187,999.2,1187z"/>
	<path fill="#B0ADA1" d="M1026.3,1187c-6.397,0-9.6-2.8-9.5-8.6c0-5.103,3.9-9.2,8.8-9.4c5-0.2,9.2,4.2,9.2,9.5
		C1034.7,1184,1031.7,1187,1026.3,1187z"/>
	<path fill="#B0ADA1" d="M755.1,1202"/>
	<path fill="#B0ADA1" d="M836.3,1202"/>
	<path fill="#B0ADA1" d="M1080.3,957c-6.5,0-9.6-3-9.5-9.1c0-5,4.5-9,9.7-8.9c4.3,0.1,8.3,4.5,8.3,9.1
		C1088.7,954,1085.9,957,1080.3,957z"/>
	<path fill="#B0ADA1" d="M1034.8,948.1c0,6.103-3,9-9.2,8.9c-5.897,0-8.897-3.1-8.8-8.8c0.103-5,4.103-9.2,9-9.2
		C1030.5,939,1034.8,943.2,1034.8,948.1z"/>
	<path fill="#B0ADA1" d="M971.7,957c-5.9,0-9-3-9-8.6c0-4.803,3.897-9.2,8.3-9.4c5.4-0.2,9.7,4,9.7,9.5
		C980.8,954.1,977.7,957,971.7,957z"/>
	<path fill="#B0ADA1" d="M945,957c-6,0-9.2-2.8-9.2-8.4c0-5.197,3.9-9.6,8.5-9.6c5.3,0,9.4,4,9.5,9.2C953.9,953.9,950.8,957,945,957
		z"/>
	<path fill="#B0ADA1" d="M763.8,948.8c0,5.5-2.8,8.2-8.6,8.2c-6.103,0-9.603-3.3-9.4-8.7c0.2-4.5,5.2-9.7,9.603-9.2
		C760.4,939.7,764.6,942,763.8,948.8z"/>
	<path fill="#B0ADA1" d="M1034.8,1014.3c-0.1,6-3.1,8.8-9.3,8.7c-5.1,0-8.7-3.8-8.7-9c0-4.8,4.2-9.1,9-9
		C1031.1,1005,1034.8,1008.8,1034.8,1014.3z"/>
	<path fill="#B0ADA1" d="M944.5,1023c-5.9-0.1-8.8-3.1-8.7-9.3c0.103-5.103,3.8-8.7,9-8.7c4.8,0,9,4.2,9,9.1
		C953.7,1019.4,949.9,1023.1,944.5,1023z"/>
	<path fill="#B0ADA1" d="M827.8,1014.1c0-6,2.9-9.1,8.5-9.1c5.3,0,9.7,4.2,9.5,9.2c-0.2,4.897-4.3,8.8-9.397,8.8
		C830.7,1023,827.7,1019.9,827.8,1014.1z"/>
	<path fill="#B0ADA1" d="M944.8,990c-6.1,0-9-2.9-9-9.1c0-4.9,4.2-9,9.103-8.9c4.697,0,8.8,4.1,8.897,8.8
		C953.9,986.7,950.6,990,944.8,990z"/>
	<path fill="#B0ADA1" d="M709.8,1145.6c0,5.2-4.3,9.603-9.2,9.4c-4.6-0.2-8.8-4.7-8.8-9.5c0-4.3,4.9-9.7,9-9.3
		C706.1,1136.7,711,1140.4,709.8,1145.6z"/>
	<path fill="#B0ADA1" d="M763.8,1145.4c0,6.1-3.2,9.697-8.6,9.6c-4.5-0.1-9.4-5-9.4-9.5c0-4.3,4.7-9.3,8.9-9.4
		C759.6,1136,763.7,1140.2,763.8,1145.4z"/>
	<path fill="#B0ADA1" d="M782.2,1104c5,0,9.5,4,9.5,8.5s-5,9.5-9.4,9.5c-4.3,0-9.397-4.8-9.5-8.9C772.7,1108.2,777,1104,782.2,1104z
		"/>
	<path fill="#B0ADA1" d="M809.2,1104c5.3,0,9.6,4.1,9.5,9c-0.103,4.6-4.5,8.9-9.4,9c-4.3,0.1-9.7-4.7-9.397-8.9
		C800.3,1107.8,804.1,1102.7,809.2,1104z"/>
	<path fill="#B0ADA1" d="M908.8,1112.7c0.103-6,3.103-8.8,9.4-8.7c5.5,0.1,8.7,3.4,8.6,9.1c-0.1,4.9-4.397,9-9.3,8.803
		C912.6,1121.9,908.7,1117.6,908.8,1112.7z"/>
	<path fill="#B0ADA1" d="M1061.8,1113.4c-0.1,4.3-4.2,8.6-8.397,8.6c-5.303,0.1-9.603-4.1-9.603-9.1c0.103-6.103,3.103-8.9,9.3-8.9
		C1059,1104.1,1061.8,1107.1,1061.8,1113.4z"/>
	<path fill="#B0ADA1" d="M1025.7,874c5.897,0,9,2.9,9,8.6c0,5.103-4.2,9.603-8.7,9.4c-5.3-0.2-9.2-4.1-9.3-9.4
		C1016.7,877,1019.8,874,1025.7,874z"/>
	<path fill="#B0ADA1" d="M998.5,874c6,0,9.2,2.8,9.2,8.4c0,5.197-3.9,9.6-8.5,9.6c-5.3,0-9.4-4-9.5-9.2
		C989.7,877.1,992.7,874,998.5,874z"/>
	<path fill="#B0ADA1" d="M782.3,874c5,0,9.5,4.1,9.4,8.6c-0.103,4.603-5.103,9.4-9.5,9.4c-4.3,0-9.4-4.9-9.4-9
		C772.7,878,777,874,782.3,874z"/>
	<path fill="#B0ADA1" d="M1142.8,849.5c0,6.4-3.1,9.6-9.2,9.5c-4.8-0.1-8.697-4.2-8.8-9.3c-0.1-4.5,4.3-8.8,9.2-8.7
		C1139.8,841,1142.8,843.9,1142.8,849.5z"/>
	<path fill="#B0ADA1" d="M863.7,841c5.1,0,9.2,3.8,9.1,8.6c-0.1,5-4,9.303-8.7,9.4c-5.8,0.1-9.197-3.1-9.3-8.9
		C854.7,844,857.6,841,863.7,841z"/>
	<path fill="#B0ADA1" d="M1142.8,915.8c0,4.8-3.897,9-8.3,9.2c-4.7,0.2-9.9-5-9.7-9.7c0.2-4.397,5.2-9.3,9.2-9.2
		C1139,906.2,1142.8,910.4,1142.8,915.8z"/>
	<path fill="#B0ADA1" d="M1115.8,915.8c0,4.8-3.897,9-8.3,9.2c-4.7,0.2-9.9-5-9.7-9.7c0.2-4.397,5.2-9.3,9.2-9.2
		C1112,906.2,1115.8,910.4,1115.8,915.8z"/>
	<path fill="#B0ADA1" d="M736.8,915.5c0,5-4.1,9.5-8.6,9.5c-4.5-0.1-9.5-5-9.4-9.5c0-4.3,4.9-9.4,9-9.4
		C732.7,906,736.8,910.3,736.8,915.5z"/>
	<path fill="#B0ADA1" d="M971.9,874c5.8,0,8.897,3.1,8.8,8.8c-0.103,5-4.103,9.2-8.9,9.2c-5,0.1-9.1-4.3-9.1-9.6
		C962.8,876.8,965.9,874,971.9,874z"/>
	<path fill="#B0ADA1" d="M890.5,874c5.9,0,9.5,3.1,9.2,8.5c-0.4,6.2-3.3,9.1-9.603,9.5c-4.3,0.2-8.3-4.5-8.3-9.2
		C881.8,876.9,884.7,874,890.5,874z"/>
	<path fill="#B0ADA1" d="M809.4,874c5.1,0,9.5,4.4,9.3,9.2c-0.2,4.2-5.4,8.897-9.603,8.8c-4.3-0.1-9.6-5.1-9.197-9.1
		C800.6,877.5,804.1,872.8,809.4,874z"/>
	<path fill="#B0ADA1" d="M755.2,874c5.897,0,8.6,2.7,8.5,8.7c0,5.897-3,9.2-8.4,9.3c-4.5,0.1-9.8-5-9.6-9.2
		C746,876.9,749.1,874,755.2,874z"/>
	<path fill="#B0ADA1" d="M763.8,1112.4c0,6.197-3.1,9.6-8.6,9.6c-5.2-0.1-9.603-4.4-9.4-9.2c0.2-5,4.4-8.8,9.7-8.8
		C761,1104,763.7,1106.8,763.8,1112.4z"/>
	<path fill="#B0ADA1" d="M674,1104c6,0,8.8,3.1,8.8,9.3c-0.1,4.5-4.5,8.9-8.8,8.7c-5.1-0.2-9.3-4.2-9.1-9
		C664.9,1108.5,667.7,1103,674,1104z"/>
	<path fill="#B0ADA1" d="M781.9,727c-4.7,0-9-4-9.103-8.4c-0.1-4.397,4.8-9.5,9.3-9.6s9.4,4.7,9.603,9.3
		C791.9,722.9,787.3,727,781.9,727z"/>
	<path fill="#B0ADA1" d="M763.8,718.5c0,5.9-2.7,8.5-8.7,8.5c-5,0-9.397-4.1-9.3-8.6c0.103-5.103,4.3-9.303,9.3-9.4
		C760.6,708.9,763.7,712.4,763.8,718.5z"/>
	<path fill="#B0ADA1" d="M827.8,1046.9c0-5.9,3-9,8.7-8.9c5.1,0,9.2,4,9.3,8.8c0.103,5-4.2,9.2-9.5,9.2
		C830.6,1056,827.7,1052.9,827.8,1046.9z"/>
	<path fill="#B0ADA1" d="M863.8,1071c4.603,0,9,4.2,8.9,8.6c-0.103,5.103-4,9.303-8.8,9.4c-5.9,0.1-9.2-3.1-9.2-9
		C854.8,1073.9,857.7,1071,863.8,1071z"/>
	<path fill="#B0ADA1" d="M727.9,1187c-5.803,0-9.2-3.2-9.103-8.6c0-4.7,4.3-9.303,8.8-9.4c5.5-0.2,9.2,3.9,9.2,10.1
		C736.7,1184.5,733.8,1187,727.9,1187z"/>
	<path fill="#B0ADA1" d="M701.2,1187c-6.103,0-9.603-3.2-9.4-8.7c0.103-5.1,4.103-9.2,8.9-9.3c5.1-0.1,9.2,4.3,9.1,9.8
		C709.7,1184.3,706.9,1187,701.2,1187z"/>
	<path fill="#B0ADA1" d="M998.8,957c-6,0-9.1-2.9-9.1-8.5c0-5.3,4.2-9.6,9.2-9.5c4.897,0.1,8.8,4.3,8.8,9.3
		C1007.8,954,1004.7,957,998.8,957z"/>
	<path fill="#B0ADA1" d="M1179.4,816.9c0,5.397,3.697,9.197,9,9.1c5.197,0,8.897-3.9,9-9.4c0-5.5-3.2-8.6-8.9-8.6
		C1182.4,808,1179.4,810.9,1179.4,816.9z"/>
	<path fill="#B0ADA1" d="M1188.5,793c5.1,0,8.8-3.7,8.9-8.9c0-5.197-3.9-9-9.303-9.1c-5.1-0.1-8.697,3.7-8.697,9
		C1179.4,790.1,1182.4,793,1188.5,793z"/>
	<path fill="#B0ADA1" d="M1161.5,793c5.1,0,8.8-3.7,8.9-8.9c0.1-5.1-4.2-9.1-9.5-9.1c-5.5,0-8.5,3.2-8.5,9.1
		C1152.4,790.1,1155.4,793,1161.5,793z"/>
	<path fill="#B0ADA1" d="M1134.6,793c4.803,0,8.9-4.2,8.803-9.1c-0.103-5.103-4.303-8.9-9.7-8.9c-5.5,0.1-8.3,3.2-8.3,9.2
		C1125.5,790.2,1128.4,793,1134.6,793z"/>
	<path fill="#B0ADA1" d="M1107.5,793c4.9,0,8.9-4.1,8.9-9c0-5.1-4.2-9-9.603-9c-5.5,0-8.5,3.1-8.397,9.1
		C1098.4,790.1,1101.4,793,1107.5,793z"/>
	<path fill="#B0ADA1" d="M1098.4,817.1c0,5.9,3,9,8.6,8.9c5.3,0,9.5-4.1,9.4-9.1c-0.103-4.803-4.2-8.9-9.103-8.9
		C1101.3,808,1098.4,811,1098.4,817.1z"/>
	<path fill="#B0ADA1" d="M1071.4,784.1c0,5.9,3.1,8.9,8.697,8.9c5.103-0.1,9.2-4,9.303-8.9c0.1-5.1-4.2-9.1-9.603-9.1
		C1074.3,775,1071.4,778.2,1071.4,784.1z"/>
	<path fill="#B0ADA1" d="M1152.4,817.2c0,5.6,3.197,8.7,8.897,8.8c4.801,0,9.103-4.2,9.103-9c0-5.3-3.803-9-9.2-9
		C1155.2,808,1152.4,811,1152.4,817.2z"/>
	<path fill="#B0ADA1" d="M1125.4,816.8c-1,6.2,4.397,9,9,9.2c4.8,0.2,9.1-4.2,9-9c0-5.1-3.7-8.9-8.803-8.9
		C1128.5,807.9,1125.5,810.8,1125.4,816.8z"/>
	<path fill="#B0ADA1" d="M1080,808c-5.6,0-8.6,3.1-8.6,9s2.897,9,8.6,9c5.3,0,9.2-3.9,9.4-9.3C1089.6,812.2,1085.1,808,1080,808z"/>
	<path fill="#B0ADA1" d="M1052.9,775c-5.603,0-8.5,3.1-8.5,9.1c0,5.9,3,9,8.697,8.9c5.103,0,9.2-4,9.303-8.8
		C1062.5,779.2,1058.2,775,1052.9,775z"/>
	<path fill="#B0ADA1" d="M1179.4,816.9c0-6,3-8.9,9.1-8.9c5.7,0,8.9,3.1,8.9,8.6c0,5.4-3.803,9.303-9,9.4
		C1183.1,826,1179.4,822.2,1179.4,816.9z"/>
	<path fill="#B0ADA1" d="M1188.5,793c-6.2,0-9.1-2.9-9.1-9c0-5.4,3.6-9.1,8.697-9c5.5,0.1,9.4,3.9,9.303,9.1
		C1197.4,789.3,1193.7,793,1188.5,793z"/>
	<path fill="#B0ADA1" d="M1161.5,793c-6.2,0-9.1-2.9-9.1-8.9c0-5.8,3-9.1,8.5-9.1c5.3,0,9.6,4.1,9.5,9.1
		C1170.3,789.3,1166.6,793,1161.5,793z"/>
	<path fill="#B0ADA1" d="M1134.6,793c-6.197,0-9.1-2.8-9.197-8.8c0-6,2.8-9.103,8.3-9.2c5.397-0.1,9.6,3.8,9.7,8.9
		C1143.5,788.8,1139.4,793,1134.6,793z"/>
	<path fill="#B0ADA1" d="M1107.5,793c-6.1,0-9-2.9-9.1-8.9c0-5.897,2.897-9,8.397-9.1c5.4,0,9.603,3.9,9.603,9
		C1116.4,788.9,1112.3,793,1107.5,793z"/>
	<path fill="#B0ADA1" d="M1098.4,817.1c0-6.1,2.897-9.1,8.897-9.1c4.9,0,9,4,9.103,8.9c0.1,5-4.103,9.1-9.4,9.1
		C1101.4,826,1098.4,822.9,1098.4,817.1z"/>
	<path fill="#B0ADA1" d="M1071.4,784.1c0-6,2.897-9.1,8.397-9.1c5.4,0,9.603,4,9.603,9.1c-0.103,4.9-4.103,8.803-9.303,8.9
		C1074.5,793.1,1071.4,790,1071.4,784.1z"/>
	<path fill="#B0ADA1" d="M1152.4,817.2c-0.103-6.2,2.8-9.2,8.8-9.2c5.399,0,9.2,3.6,9.2,9c0,4.8-4.303,9.1-9.103,9
		C1155.7,825.9,1152.5,822.8,1152.4,817.2z"/>
	<path fill="#B0ADA1" d="M1125.4,816.8c0-6,3-8.8,9.197-8.8c5,0,8.7,3.8,8.803,8.9c0,4.8-4.2,9.197-9,9
		C1129.8,825.8,1124.5,823,1125.4,816.8z"/>
	<path fill="#B0ADA1" d="M1251.4,848.9c0-6-3-8.9-9.103-8.9c-5.1,0-8.8,3.7-8.897,8.8c-0.103,4.9,4.1,9.103,8.897,9.2
		C1247.6,858,1251.4,854.2,1251.4,848.9z"/>
	<path fill="#B0ADA1" d="M1251.4,848.9c0,5.3-3.803,9.197-9.103,9.1c-4.8,0-9-4.3-8.897-9.2c0.1-5.1,3.8-8.8,8.897-8.8
		C1248.4,840,1251.4,842.9,1251.4,848.9z"/>
	<path fill="#B0ADA1" d="M1080,808c5.1,0,9.6,4.2,9.4,8.7c-0.2,5.3-4.103,9.2-9.4,9.3c-5.6,0-8.6-3.1-8.6-9S1074.4,808,1080,808z"/>
	<path fill="#B0ADA1" d="M1052.9,775c5.3,0,9.6,4.2,9.5,9.2c-0.103,4.897-4.303,8.8-9.303,8.8c-5.6,0.1-8.6-3-8.697-8.9
		C1044.4,778.1,1047.3,775,1052.9,775z"/>
	<path fill="#B0ADA1" d="M971.7,1187c-5.9,0-9-3-8.9-8.6c0-5.103,3.9-9.2,8.8-9.4c5-0.2,9.2,4.2,9.2,9.5
		C980.8,1184.1,977.6,1187,971.7,1187z"/>
	<path fill="#B0ADA1" d="M782.6,1187c-5.397,0-10-4.1-9.8-8.7c0.2-4.7,5.103-9.397,9.603-9.3s9.397,5.2,9.3,9.6
		C791.6,1183,787.3,1187,782.6,1187z"/>
	<path fill="#B0ADA1" d="M736.8,1145.8c0,4.9-4,9.103-8.8,9.2c-4.3,0.1-9.3-5.2-9.2-9.7c0.103-4.397,5.103-9.6,9.2-9.1
		C733.3,1136.9,737.9,1140.3,736.8,1145.8z"/>
	<path fill="#B0ADA1" d="M1188.5,874c4.7,0,9,3.9,9.2,8.3c0.2,4.7-5,9.9-9.7,9.7c-4.5-0.2-9.4-5.3-9.2-9.7
		C1179,877.7,1183.4,874,1188.5,874z"/>
	<path fill="#B0ADA1" d="M1325.2,874c-5.5,0-9.3,3.5-9.4,8.8c-0.1,4.2,5.2,9.3,9.7,9.2c4.8-0.1,9.4-5.1,9.2-10.1
		C1334.5,877.8,1330,874,1325.2,874z"/>
	<path fill="#B0ADA1" d="M1306.8,849.5c0-5.7-2.897-8.5-8.8-8.5c-4.8,0-9.3,4.2-9.2,8.7c0.2,5.1,4.103,9.2,8.8,9.3
		C1303.6,859.1,1306.7,855.9,1306.8,849.5z"/>
	<path fill="#B0ADA1" d="M1352.5,874c-5.1,0-9.5,3.7-9.7,8.3c-0.2,4.4,4.603,9.5,9.2,9.7c4.7,0.2,9.9-5,9.7-9.7
		C1361.5,877.9,1357.3,874,1352.5,874z"/>
	<path fill="#B0ADA1" d="M1325.2,874c4.8,0,9.3,3.8,9.5,7.9c0.1,4.897-4.5,10-9.2,10.1c-4.5,0.1-9.8-5-9.7-9.2
		C1315.9,877.5,1319.7,874,1325.2,874z"/>
	<path fill="#B0ADA1" d="M1306.8,849.5c0,6.4-3.1,9.6-9.2,9.5c-4.8-0.1-8.697-4.2-8.8-9.3c-0.1-4.5,4.3-8.8,9.2-8.7
		C1303.8,841,1306.8,843.9,1306.8,849.5z"/>
	<path fill="#B0ADA1" d="M1352.5,874c4.7,0,9,3.9,9.2,8.3c0.2,4.7-5,9.9-9.7,9.7c-4.5-0.2-9.4-5.3-9.2-9.7
		C1343,877.7,1347.4,874,1352.5,874z"/>
	<path fill="#B0ADA1" d="M1251.4,980.2c0-6-3-8.9-9.103-8.9c-5.1,0-8.8,3.7-8.897,8.8c-0.103,4.9,4.1,9.103,8.897,9.2
		C1247.6,989.4,1251.4,985.6,1251.4,980.2z"/>
	<path fill="#B0ADA1" d="M1251.4,980.2c0,5.3-3.803,9.2-9.103,9.1c-4.8,0-9-4.3-8.897-9.2c0.1-5.1,3.8-8.8,8.897-8.8
		C1248.4,971.3,1251.4,974.2,1251.4,980.2z"/>
	<path fill="#B0ADA1" d="M1306.8,1012.9c0-5.7-2.897-8.5-8.8-8.5c-4.8,0-9.3,4.197-9.2,8.697c0.2,5.103,4.103,9.2,8.8,9.303
		C1303.6,1022.4,1306.7,1019.2,1306.8,1012.9z"/>
	<path fill="#B0ADA1" d="M1306.8,1012.9c0,6.397-3.1,9.6-9.2,9.5c-4.8-0.103-8.697-4.2-8.8-9.303c-0.1-4.5,4.3-8.8,9.2-8.697
		C1303.8,1004.4,1306.8,1007.2,1306.8,1012.9z"/>
	<path fill="#B0ADA1" d="M1316.4,980.6c0,5.603,3.197,8.7,8.897,8.803c4.801,0,9.103-4.2,9.103-9c0-5.303-3.803-9-9.2-9
		C1319.2,971.4,1316.4,974.4,1316.4,980.6z"/>
	<path fill="#B0ADA1" d="M1316.4,980.6c-0.103-6.197,2.8-9.197,8.8-9.197c5.399,0,9.2,3.6,9.2,9c0,4.8-4.303,9.1-9.103,9
		C1319.7,989.3,1316.5,986.1,1316.4,980.6z"/>
	<path fill="#B0ADA1" d="M1007.7,717c0.1-5.3-3.9-9.6-9-9.6c-4.8,0-8.9,4.1-9,9.1c-0.103,5.4,3.6,9.6,8.7,9.9
		C1003.4,726.6,1007.7,722.2,1007.7,717z"/>
	<path fill="#B0ADA1" d="M1188.2,707.4c-4.5,0-9.5,5-9.4,9.5c0,4.5,5,9.5,9.5,9.397c4.5,0,9.5-5,9.4-9.5
		C1197.7,712.3,1192.7,707.3,1188.2,707.4z"/>
	<path fill="#B0ADA1" d="M1151.8,716.6c-0.5,4,4,8.9,8.7,9.603c4.5,0.7,9.3-3.8,10-9.2c0.5-4.1-3.7-8.9-8.5-9.6
		C1157.6,706.8,1152.4,711.5,1151.8,716.6z"/>
	<path fill="#B0ADA1" d="M1134.3,758.3c5.7,0,8.5-2.7,8.5-8.3c0-6.3-3-9.7-8.5-9.7c-5.3,0-9.3,4-9.397,9.3
		C1124.6,755.1,1128.1,758.3,1134.3,758.3z"/>
	<path fill="#B0ADA1" d="M1053.1,758.3c5.7,0,8.603-2.897,8.603-8.7c0-5-4.301-9.397-9.2-9.197c-4.9,0.197-8.7,4.3-8.8,9.3
		C1043.7,755.5,1046.8,758.3,1053.1,758.3z"/>
	<path fill="#B0ADA1" d="M1115.8,749.9c0-5.603-3.7-9.7-8.7-9.603c-5.3,0.103-9.197,4.2-9.3,9.4c0,5.5,3.4,8.6,9.603,8.6
		C1113,758.3,1115.7,755.6,1115.8,749.9z"/>
	<path fill="#B0ADA1" d="M1161,758.3c5.4,1.103,8.8-3.3,9.6-8.7c0.603-4.197-4.897-9.3-9.5-9.3c-4.5,0.103-9.397,5.103-9.3,9.5
		C1151.8,754.7,1155.7,758.3,1161,758.3z"/>
	<path fill="#B0ADA1" d="M1188.3,758.3c5.2,0,9.5-4.2,9.4-9.1c-0.101-4.103-5.3-8.9-9.5-8.9c-4.5,0-9.4,5.103-9.4,9.5
		C1178.8,754.4,1183.3,758.3,1188.3,758.3z"/>
	<path fill="#B0ADA1" d="M1034.8,749.4c0-4.803-4.2-9.103-9-9c-4.8,0-8.897,4.197-9,9.197c-0.1,5.7,3,8.7,8.8,8.803
		C1031.8,758.4,1034.7,755.5,1034.8,749.4z"/>
	<path fill="#B0ADA1" d="M1224.7,716.6c-0.103-4.5-5.2-9.397-9.603-9.197c-4.197,0.1-9.1,5.197-9.1,9.397c0,4.4,5.3,9.7,9.5,9.5
		C1220.2,726,1224.9,721.1,1224.7,716.6z"/>
	<path fill="#B0ADA1" d="M998.8,758.3c5.9,0,9-3,8.9-8.7c-0.103-5.1-4-9.197-8.8-9.3c-5-0.1-9.2,4.2-9.2,9.5
		C989.8,755.4,992.9,758.4,998.8,758.3z"/>
	<path fill="#B0ADA1" d="M1215,758.3c5.9,0,9.9-3.7,9.8-9.1c-0.1-4.103-5.2-9-9.5-8.9c-4.8,0-9.2,4.7-9.2,9.603
		C1206.1,754.6,1210.1,758.3,1215,758.3z"/>
	<path fill="#B0ADA1" d="M1007.7,717c0,5.2-4.4,9.6-9.3,9.3c-5.103-0.2-8.9-4.5-8.7-9.897c0.1-5,4.2-9.103,9-9.103
		C1003.8,707.4,1007.8,711.7,1007.7,717z"/>
	<path fill="#B0ADA1" d="M1188.2,707.4c4.5,0,9.5,4.897,9.5,9.397s-4.9,9.5-9.4,9.5s-9.5-4.897-9.5-9.397S1183.7,707.4,1188.2,707.4
		z"/>
	<path fill="#B0ADA1" d="M1151.8,716.6c0.603-5.197,5.8-9.8,10.2-9.197c4.8,0.697,9,5.5,8.5,9.6c-0.7,5.5-5.5,9.9-10,9.2
		C1155.8,725.6,1151.3,720.6,1151.8,716.6z"/>
	<path fill="#B0ADA1" d="M1134.3,758.3c-6.1,0-9.7-3.2-9.5-8.7c0.2-5.3,4.2-9.197,9.4-9.3c5.6,0,8.6,3.4,8.5,9.7
		C1142.7,755.6,1140,758.3,1134.3,758.3z"/>
	<path fill="#B0ADA1" d="M1053.1,758.3c-6.3,0-9.397-2.897-9.397-8.6c0-5,3.897-9.2,8.8-9.3c4.9-0.2,9.3,4.197,9.2,9.197
		C1061.7,755.4,1058.8,758.3,1053.1,758.3z"/>
	<path fill="#B0ADA1" d="M1115.8,749.9c0,5.697-2.7,8.397-8.397,8.397c-6.303,0-9.7-3-9.603-8.6c0-5.3,4-9.3,9.3-9.4
		C1112.1,740.2,1115.8,744.3,1115.8,749.9z"/>
	<path fill="#B0ADA1" d="M1161,758.3c-5.3,0-9.2-3.6-9.2-8.5c0-4.397,4.9-9.397,9.3-9.5c4.5-0.1,10.103,5,9.5,9.3
		C1169.8,755,1166.4,759.5,1161,758.3z"/>
	<path fill="#B0ADA1" d="M1188.3,758.3c-5.1,0-9.5-3.897-9.6-8.5c0-4.5,4.899-9.5,9.399-9.5c4.301,0,9.398,4.7,9.5,8.9
		C1197.9,754.1,1193.5,758.3,1188.3,758.3z"/>
	<path fill="#B0ADA1" d="M1034.8,749.4c0,6.1-3,9-9.2,8.897c-5.897,0-8.897-3.1-8.8-8.8c0.103-5,4.103-9.2,9-9.2
		C1030.5,740.3,1034.8,744.6,1034.8,749.4z"/>
	<path fill="#B0ADA1" d="M1224.7,716.6c0.1,4.5-4.5,9.4-9.2,9.7c-4.2,0.2-9.6-5-9.5-9.5c0-4.2,4.9-9.3,9.1-9.397
		C1219.5,707.2,1224.6,712.1,1224.7,716.6z"/>
	<path fill="#B0ADA1" d="M998.8,758.3c-6,0-9.1-2.897-9.1-8.5c0-5.3,4.2-9.6,9.2-9.5c4.897,0.103,8.8,4.3,8.8,9.3
		C1007.8,755.3,1004.7,758.3,998.8,758.3z"/>
	<path fill="#B0ADA1" d="M970.8,758.3c5.9,0,9-3,8.9-8.7c-0.103-5.1-4-9.197-8.8-9.3c-5-0.1-9.2,4.2-9.2,9.5
		C961.8,755.4,964.9,758.4,970.8,758.3z"/>
	<path fill="#B0ADA1" d="M970.8,758.3c-6,0-9.1-2.897-9.1-8.5c0-5.3,4.2-9.6,9.2-9.5c4.897,0.103,8.8,4.3,8.8,9.3
		C979.8,755.3,976.7,758.3,970.8,758.3z"/>
	<path fill="#B0ADA1" d="M1215,758.3c-4.9,0-8.9-3.8-8.9-8.397c-0.1-4.9,4.4-9.5,9.2-9.603c4.3,0,9.4,4.8,9.5,8.9
		C1224.8,754.7,1220.8,758.4,1215,758.3z"/>
	<path fill="#B0ADA1" d="M1252.1,716.6c-0.1-4.5-5.197-9.397-9.6-9.197c-4.2,0.1-9.1,5.197-9.1,9.397c0,4.4,5.3,9.7,9.5,9.5
		C1247.6,726,1252.2,721.1,1252.1,716.6z"/>
	<path fill="#B0ADA1" d="M1252.1,716.6c0.103,4.5-4.5,9.4-9.197,9.7c-4.2,0.2-9.603-5-9.5-9.5c0-4.2,4.897-9.3,9.1-9.397
		C1246.9,707.2,1251.9,712.1,1252.1,716.6z"/>
	<path fill="#B0ADA1" d="M763.8,915.5c0,5-4.1,9.5-8.6,9.4c-4.5,0-9.5-5-9.4-9.5c0-4.5,5-9.4,9.5-9.5
		C759.7,906,763.8,910.5,763.8,915.5z"/>
	<path fill="#B0ADA1" d="M818.7,849.7c0.397-4-4.103-8.9-8.8-9.603c-4.5-0.6-9.303,3.9-9.9,9.303c-0.5,4.1,3.8,8.897,8.6,9.6
		C813,859.5,818.1,854.8,818.7,849.7z"/>
	<path fill="#B0ADA1" d="M782.4,859c4.6-0.1,9.5-5.1,9.397-9.6c-0.1-4.603-5.1-9.5-9.6-9.4c-4.603,0.1-9.5,5.1-9.4,9.6
		C772.9,854.2,777.9,859.1,782.4,859z"/>
	<path fill="#B0ADA1" d="M836.4,808c-5.803,0-8.303,2.7-8.7,8.2c-0.5,7,3.8,9.6,8.5,9.6c6.2,0,9.397-3.2,9.397-9.5
		C845.6,812.1,842.9,807.1,836.4,808z"/>
	<path fill="#B0ADA1" d="M736.8,849.5c0-5.3-4.1-9.6-9-9.5c-4.1,0-8.897,5.1-9,9.4c0,4.5,4.9,9.5,9.4,9.5
		C732.7,859,736.7,854.5,736.8,849.5z"/>
	<path fill="#B0ADA1" d="M845.7,849.3c-0.103-4.5-5.2-9.397-9.7-9.3c-4.9,0.2-8.5,4.8-8.3,10.7c0.1,4.3,4.8,8.5,9.2,8.3
		C841.2,858.8,845.9,853.6,845.7,849.3z"/>
	<path fill="#B0ADA1" d="M809.4,808c-5.4-1.2-8.803,3.5-9.5,8.9c-0.5,4.1,4.8,9,9.197,9.1c4.303,0.1,9.4-4.6,9.603-8.8
		C819,812.4,814.6,808,809.4,808z"/>
	<path fill="#B0ADA1" d="M763.8,849.5c0-5-4-9.5-8.5-9.5s-9.5,5-9.5,9.5s4.9,9.4,9.4,9.5C759.7,859,763.7,854.5,763.8,849.5z"/>
	<path fill="#B0ADA1" d="M818.7,849.7c-0.603,5.1-5.7,9.8-10.103,9.2c-4.697-0.603-9.1-5.5-8.6-9.603c0.7-5.397,5.5-9.897,9.9-9.3
		C814.7,840.7,819.2,845.7,818.7,849.7z"/>
	<path fill="#B0ADA1" d="M782.4,859c-4.5,0.1-9.5-4.8-9.603-9.4c-0.1-4.5,4.8-9.5,9.4-9.6c4.5-0.1,9.5,4.8,9.6,9.4
		C791.8,853.9,786.9,858.9,782.4,859z"/>
	<path fill="#B0ADA1" d="M836.4,808c6.6-0.9,9.197,4.1,9.197,8.3c0,6.3-3.197,9.5-9.397,9.5c-4.7,0-9.103-2.7-8.5-9.6
		C828.1,810.7,830.6,808,836.4,808z"/>
	<path fill="#B0ADA1" d="M736.8,849.5c0,5-4.1,9.5-8.6,9.5c-4.5-0.1-9.5-5-9.4-9.5c0-4.3,4.9-9.4,9-9.4
		C732.7,840,736.8,844.3,736.8,849.5z"/>
	<path fill="#B0ADA1" d="M845.7,849.3c0.1,4.3-4.603,9.4-8.7,9.7c-4.4,0.2-9.1-4-9.2-8.3c-0.2-5.8,3.5-10.5,8.3-10.7
		C840.5,839.9,845.6,844.8,845.7,849.3z"/>
	<path fill="#B0ADA1" d="M809.4,808c5.1,0,9.5,4.4,9.3,9.2c-0.2,4.2-5.4,8.897-9.603,8.8c-4.3-0.1-9.6-5.1-9.197-9.1
		C800.6,811.5,804.1,806.8,809.4,808z"/>
	<path fill="#B0ADA1" d="M763.8,849.5c0,5-4.1,9.5-8.6,9.4c-4.5,0-9.5-5-9.4-9.5c0-4.5,5-9.4,9.5-9.5
		C759.7,840,763.8,844.5,763.8,849.5z"/>
	<path fill="#B0ADA1" d="M818.7,1242.3c0.397-4-4.103-8.897-8.8-9.6c-4.5-0.601-9.303,3.899-9.9,9.3c-0.5,4.1,3.8,8.9,8.6,9.6
		C813,1252.2,818.1,1247.5,818.7,1242.3z"/>
	<path fill="#B0ADA1" d="M782.4,1251.6c4.6-0.1,9.5-5.1,9.397-9.6c-0.1-4.6-5.1-9.5-9.6-9.4c-4.603,0.103-9.5,5.103-9.4,9.603
		C772.9,1246.8,777.9,1251.7,782.4,1251.6z"/>
	<path fill="#B0ADA1" d="M809.4,1349.7c5.1,0,9.197-4,9.3-8.9c0.1-5-4.3-9.2-9.603-9.1c-5.197,0-9.3,4.2-9.397,9.397
		C799.7,1345.7,804.3,1349.7,809.4,1349.7z"/>
	<path fill="#B0ADA1" d="M809.1,1316.7c5.303,0,9.5-3.8,9.7-8.8c0.2-4.9-4.2-9.2-9.5-9.2c-4.897,0-9.3,4.3-9.5,9.3
		C799.6,1312.4,804.1,1316.7,809.1,1316.7z"/>
	<path fill="#B0ADA1" d="M854.8,1308.1c0,5.7,2.9,8.5,8.8,8.603c5.4,0,9.2-3.801,9.2-9.103c0-4.6-4.1-8.8-8.7-8.897
		C857.9,1298.5,854.8,1301.7,854.8,1308.1z"/>
	<path fill="#B0ADA1" d="M836.2,1283.7c6.2,0,9.7-3.103,9.6-8.603c-0.1-5.3-4.1-9.3-9.397-9.397c-5.5-0.103-8.603,3.397-8.603,9.6
		C827.8,1281,830.5,1283.7,836.2,1283.7z"/>
	<path fill="#B0ADA1" d="M728,1200.7c-5.9,0-9.5,3.1-9.2,8.397c0.4,6.2,3.3,9.5,9.603,9.4c5.1-0.1,8.897-2.8,8.397-9.7
		C736.4,1203.3,733.9,1200.6,728,1200.7z"/>
	<path fill="#B0ADA1" d="M881.8,1242c0,5.3,3.8,9.5,8.8,9.7c4.7,0.1,9.2-4.5,9.2-9.5c0-4.9-4.397-9.3-9.3-9.4
		C886,1232.6,881.8,1237.1,881.8,1242z"/>
	<path fill="#B0ADA1" d="M836.4,1200.7c-5.803,0-8.303,2.7-8.7,8.2c-0.5,7,3.8,9.6,8.5,9.6c6.2,0,9.397-3.2,9.397-9.5
		C845.6,1204.8,842.9,1199.8,836.4,1200.7z"/>
	<path fill="#B0ADA1" d="M863.2,1283.7c6.1,0,9.7-3.2,9.5-8.7c-0.103-5.3-4.103-9.2-9.4-9.3c-5,0-8.6,4-8.6,9.7
		C854.8,1281,857.5,1283.7,863.2,1283.7z"/>
	<path fill="#B0ADA1" d="M890.2,1283.7c6.5,0,9.6-3,9.6-9.103c0-4.8-4.1-8.697-9.2-8.897c-4.5-0.2-8.697,4.3-8.8,9.2
		C881.7,1281,884.3,1283.7,890.2,1283.7z"/>
	<path fill="#B0ADA1" d="M701.1,1200.7c-5.897,0-9.5,3-9.3,8.397c0.3,6.303,3.3,9.2,9.5,9.5c5.103,0.303,8.4-3.897,8.4-9.8
		C709.7,1203.3,706.9,1200.6,701.1,1200.7z"/>
	<path fill="#B0ADA1" d="M863.3,1200.7c-5.7,0-8.5,2.7-8.5,8.2c0,5.8,3.5,9.8,8.5,9.697c5.3,0,9.3-3.897,9.5-9.197
		C872.9,1203.9,869.4,1200.7,863.3,1200.7z"/>
	<path fill="#B0ADA1" d="M917.3,1200.7c-5.7,0-8.5,2.897-8.6,8.8c0,4.9,4.2,9.4,8.7,9.2c5.1-0.2,9.197-4.103,9.3-8.9
		C926.8,1203.6,923.8,1200.7,917.3,1200.7z"/>
	<path fill="#B0ADA1" d="M809,1283.7c5.4,0,9.6-3.7,9.8-8.8c0.2-4.303-5.2-9.4-9.7-9.2c-4.5,0.1-9.397,5.2-9.3,9.7
		C799.9,1279.8,804.2,1283.6,809,1283.7z"/>
	<path fill="#B0ADA1" d="M827.8,1340.8c0,5.8,2.9,8.9,8.603,8.9c5.1,0,9.197-3.9,9.397-8.8c0.2-5-4.2-9.2-9.5-9.2
		C830.7,1331.7,827.8,1334.7,827.8,1340.8z"/>
	<path fill="#B0ADA1" d="M1025.7,1200.7c-5.9,0-9,3-9,8.6c0,5.3,3.897,9.2,9.3,9.4c4.6,0.1,8.7-4.3,8.7-9.4
		C1034.8,1203.6,1031.7,1200.7,1025.7,1200.7z"/>
	<path fill="#B0ADA1" d="M782.3,1200.7c-5.3,0-9.6,4-9.5,9c0,4.1,5.103,9,9.4,9c4.5,0,9.5-4.8,9.5-9.4
		C791.8,1204.8,787.3,1200.7,782.3,1200.7z"/>
	<path fill="#B0ADA1" d="M854.8,1241.8c0,5.4,3.7,9.603,8.7,9.8c4.2,0.2,9.4-5.1,9.3-9.6c-0.1-4.5-5.2-9.4-9.6-9.3
		C858.7,1232.8,854.8,1237.1,854.8,1241.8z"/>
	<path fill="#B0ADA1" d="M845.7,1242c-0.103-4.5-5.2-9.4-9.7-9.3c-4.9,0.2-8.5,4.8-8.3,10.7c0.1,4.3,4.8,8.5,9.2,8.3
		C841.2,1251.4,845.9,1246.3,845.7,1242z"/>
	<path fill="#B0ADA1" d="M890.5,1200.7c-5.8,0-8.7,2.897-8.7,8.8c0,4.7,4,9.4,8.3,9.2c6.4-0.3,9.303-3.3,9.603-9.5
		C900,1203.7,896.4,1200.7,890.5,1200.7z"/>
	<path fill="#B0ADA1" d="M809.4,1200.7c-5.4-1.2-8.803,3.5-9.5,8.897c-0.5,4.103,4.8,9,9.197,9.103c4.303,0.1,9.4-4.603,9.603-8.8
		C819,1205,814.6,1200.7,809.4,1200.7z"/>
	<path fill="#B0ADA1" d="M755.2,1200.7c-6.2,0-9.2,2.897-9.4,8.7c-0.2,4.197,5.103,9.3,9.603,9.197c5.397-0.1,8.3-3.397,8.397-9.3
		C763.8,1203.4,761.1,1200.7,755.2,1200.7z"/>
	<path fill="#B0ADA1" d="M781.9,1283.7c5.397,0,10-4.103,9.8-8.7s-5.103-9.4-9.603-9.3c-4.5,0.1-9.397,5.2-9.3,9.6
		C772.9,1279.7,777.2,1283.6,781.9,1283.7z"/>
	<path fill="#B0ADA1" d="M827.8,1307.8c0,5.8,2.8,8.8,8.603,8.8c5.1,0.103,9.5-4.197,9.397-9.197c-0.1-4.7-4.3-8.803-8.897-8.803
		C830.9,1298.6,827.8,1301.7,827.8,1307.8z"/>
	<path fill="#B0ADA1" d="M763.8,1242.2c0-5-4-9.5-8.5-9.5s-9.5,5-9.5,9.5s4.9,9.397,9.4,9.5C759.7,1251.7,763.7,1247.2,763.8,1242.2
		z"/>
	<path fill="#B0ADA1" d="M818.7,1242.3c-0.603,5.103-5.7,9.8-10.103,9.2c-4.697-0.6-9.1-5.5-8.6-9.6c0.7-5.4,5.5-9.9,9.9-9.303
		C814.7,1233.4,819.2,1238.4,818.7,1242.3z"/>
	<path fill="#B0ADA1" d="M782.4,1251.6c-4.5,0.103-9.5-4.8-9.603-9.397c-0.1-4.5,4.8-9.5,9.4-9.603c4.5-0.1,9.5,4.803,9.6,9.4
		C791.8,1246.5,786.9,1251.5,782.4,1251.6z"/>
	<path fill="#B0ADA1" d="M809.4,1349.7c-5.103,0-9.7-4-9.603-8.603c0.103-5.3,4.2-9.397,9.4-9.397c5.3,0,9.7,4.1,9.6,9.1
		C818.6,1345.7,814.5,1349.6,809.4,1349.7z"/>
	<path fill="#B0ADA1" d="M809.1,1316.7c-4.897,0-9.397-4.3-9.3-8.7c0.2-5,4.5-9.3,9.5-9.3c5.2,0,9.603,4.3,9.5,9.2
		C818.6,1312.9,814.4,1316.7,809.1,1316.7z"/>
	<path fill="#B0ADA1" d="M854.8,1308.1c0-6.397,3.2-9.6,9.3-9.397c4.603,0.1,8.7,4.3,8.7,8.897c0.103,5.303-3.8,9.103-9.2,9.103
		C857.7,1316.6,854.7,1313.8,854.8,1308.1z"/>
	<path fill="#B0ADA1" d="M836.2,1283.7c-5.7,0-8.4-2.7-8.4-8.4c0-6.2,3.103-9.7,8.603-9.6c5.3,0.1,9.3,4.1,9.397,9.397
		C845.8,1280.5,842.3,1283.7,836.2,1283.7z"/>
	<path fill="#B0ADA1" d="M728,1200.7c5.8,0,8.4,2.6,8.8,8.1c0.5,6.9-3.3,9.601-8.397,9.7c-6.303,0.2-9.2-3.1-9.603-9.4
		C718.5,1203.7,722.1,1200.7,728,1200.7z"/>
	<path fill="#B0ADA1" d="M881.8,1242c0-4.9,4.2-9.4,8.7-9.3c5,0.2,9.3,4.5,9.3,9.397c0,5-4.5,9.7-9.2,9.5
		C885.5,1251.5,881.7,1247.3,881.8,1242z"/>
	<path fill="#B0ADA1" d="M836.4,1200.7c6.6-0.9,9.197,4.1,9.197,8.3c0,6.3-3.197,9.5-9.397,9.5c-4.7,0-9.103-2.7-8.5-9.6
		C828.1,1203.3,830.6,1200.7,836.4,1200.7z"/>
	<path fill="#B0ADA1" d="M863.2,1283.7c-5.7,0-8.5-2.7-8.5-8.3c0-5.7,3.6-9.7,8.6-9.7c5.3,0,9.3,4,9.4,9.3
		C872.9,1280.5,869.4,1283.7,863.2,1283.7z"/>
	<path fill="#B0ADA1" d="M890.2,1283.7c-5.9,0-8.5-2.7-8.4-8.8c0-4.9,4.3-9.303,8.8-9.2c5.103,0.2,9.2,4.1,9.2,8.897
		C899.8,1280.7,896.7,1283.7,890.2,1283.7z"/>
	<path fill="#B0ADA1" d="M701.1,1200.7c5.803,0,8.603,2.6,8.7,8.1c0,5.9-3.3,10.101-8.397,9.8c-6.303-0.397-9.2-3.3-9.5-9.5
		C691.6,1203.7,695.1,1200.7,701.1,1200.7z"/>
	<path fill="#B0ADA1" d="M863.3,1200.7c6.103,0,9.603,3.3,9.5,8.8c-0.2,5.3-4.2,9.2-9.5,9.2c-5.1,0-8.6-4-8.5-9.7
		C854.8,1203.3,857.5,1200.7,863.3,1200.7z"/>
	<path fill="#B0ADA1" d="M917.3,1200.7c6.5,0,9.5,2.897,9.4,9.1c-0.103,4.8-4.2,8.7-9.3,8.9c-4.5,0.1-8.803-4.3-8.7-9.2
		C908.8,1203.6,911.6,1200.7,917.3,1200.7z"/>
	<path fill="#B0ADA1" d="M809,1283.7c-4.7,0-9-3.9-9.2-8.3c-0.2-4.4,4.7-9.5,9.3-9.7c4.5-0.103,9.803,5,9.7,9.2
		C818.5,1279.9,814.4,1283.7,809,1283.7z"/>
	<path fill="#B0ADA1" d="M827.8,1340.8c0-6,2.9-9.1,8.5-9.1c5.3,0,9.7,4.2,9.5,9.2c-0.2,4.897-4.3,8.8-9.397,8.8
		C830.7,1349.7,827.7,1346.6,827.8,1340.8z"/>
	<path fill="#B0ADA1" d="M1025.7,1200.7c5.897,0,9,2.897,9,8.6c0,5.101-4.2,9.601-8.7,9.4c-5.3-0.2-9.2-4.103-9.3-9.4
		C1016.7,1203.6,1019.8,1200.7,1025.7,1200.7z"/>
	<path fill="#B0ADA1" d="M782.3,1200.7c5,0,9.5,4.1,9.4,8.6c-0.103,4.601-5.103,9.4-9.5,9.4c-4.3,0-9.4-4.9-9.4-9
		C772.7,1204.7,777,1200.7,782.3,1200.7z"/>
	<path fill="#B0ADA1" d="M854.8,1241.8c0-4.7,4-9,8.4-9.1c4.397-0.101,9.5,4.8,9.6,9.3c0.103,4.5-5,9.8-9.3,9.6
		C858.4,1251.4,854.7,1247.3,854.8,1241.8z"/>
	<path fill="#B0ADA1" d="M845.7,1242c0.1,4.3-4.603,9.4-8.7,9.7c-4.4,0.2-9.1-4-9.2-8.3c-0.2-5.803,3.5-10.5,8.3-10.7
		C840.5,1232.6,845.6,1237.5,845.7,1242z"/>
	<path fill="#B0ADA1" d="M890.5,1200.7c5.9,0,9.5,3.1,9.2,8.5c-0.4,6.2-3.3,9.1-9.603,9.5c-4.3,0.2-8.3-4.5-8.3-9.2
		C881.8,1203.5,884.7,1200.6,890.5,1200.7z"/>
	<path fill="#B0ADA1" d="M809.4,1200.7c5.1,0,9.5,4.397,9.3,9.2c-0.2,4.197-5.4,8.897-9.603,8.8c-4.3-0.103-9.6-5.103-9.197-9.103
		C800.6,1204.2,804.1,1199.5,809.4,1200.7z"/>
	<path fill="#B0ADA1" d="M755.2,1200.7c5.897,0,8.6,2.7,8.5,8.7c0,5.897-3,9.197-8.4,9.3c-4.5,0.1-9.8-5-9.6-9.2
		C746,1203.5,749.1,1200.7,755.2,1200.7z"/>
	<path fill="#B0ADA1" d="M781.9,1283.7c-4.7,0-9-4-9.103-8.4c-0.1-4.399,4.8-9.5,9.3-9.6c4.5-0.103,9.4,4.7,9.603,9.3
		S787.3,1283.7,781.9,1283.7z"/>
	<path fill="#B0ADA1" d="M827.8,1307.8c0-6.1,3.2-9.2,9.103-9.2c4.6,0,8.697,4.103,8.897,8.803c0.2,4.897-4.2,9.3-9.397,9.197
		C830.6,1316.6,827.7,1313.6,827.8,1307.8z"/>
	<path fill="#B0ADA1" d="M763.8,1242.2c0,5-4.1,9.5-8.6,9.397c-4.5,0-9.5-5-9.4-9.5c0-4.5,5-9.397,9.5-9.5
		C759.7,1232.7,763.8,1237.2,763.8,1242.2z"/>
	<path fill="#B0ADA1" d="M845.7,685.6c0,4.303-4.9,9.7-9,9.2c-5-0.6-9.8-3.397-9.103-9.897c0.5-4.5,4.4-9,8.7-8.9
		C840.9,676.1,845.8,681.1,845.7,685.6z"/>
</g>
<rect x="1512.5" y="1912" fill="none" width="364" height="88"/>
<text transform="matrix(1 0 0 1 1512.5 1957.1191)" fill="#81BE41" font-family="'MyriadPro-Regular'" font-size="52">System Area (0.5 mi</text>
<text transform="matrix(0.583 0 0 0.583 1937.2812 1939.8027)" fill="#81BE41" font-family="'MyriadPro-Regular'" font-size="52">2</text>
<text transform="matrix(1 0 0 1 1952.833 1957.1191)" fill="#81BE41" font-family="'MyriadPro-Regular'" font-size="52">)</text>
<path fill="#81BE41" d="M1470.5,1941c0-6.102,2.898-9,9.1-8.9c5.9,0,9,3,8.9,8.5c0,5.5-3.7,9.4-8.9,9.5S1470.5,1946.3,1470.5,1941z"
	/>
</svg>
