<?xml version="1.0" encoding="utf-8"?>
<!-- Generator: Adobe Illustrator 16.0.0, SVG Export Plug-In . SVG Version: 6.00 Build 0)  -->
<!DOCTYPE svg PUBLIC "-//W3C//DTD SVG 1.1//EN" "http://www.w3.org/Graphics/SVG/1.1/DTD/svg11.dtd">
<svg version="1.1" id="Layer_1" xmlns="http://www.w3.org/2000/svg" xmlns:xlink="http://www.w3.org/1999/xlink" x="0px" y="0px"
	 width="2000px" height="2000px" viewBox="0 0 2000 2000" enable-background="new 0 0 2000 2000" xml:space="preserve">
<g id="Layer_1_1_" display="none">
	<g id="gncGMb_1_" display="inline">
	</g>
</g>
<g id="Layer_2_copy">
	<g>
		<path fill="#81BE41" d="M834.8,1161.8c5.8,0,8.9,3.101,8.8,8.7c-0.1,5.4-3.8,9.3-9,9.3c-5.3,0-9-3.8-9-9.2
			C825.7,1164.6,828.7,1161.8,834.8,1161.8z"/>
		<path fill="#81BE41" d="M807.9,1113.8c-6.2,0-9.2-2.8-9.2-8.8c0-5.4,3.8-9.2,9.1-9.2c4.9,0,8.8,4.101,8.9,9.2
			C816.7,1110.7,813.7,1113.8,807.9,1113.8z"/>
		<path fill="#81BE41" d="M843.6,1137.7c0,6-3,9.1-8.899,9.1c-6,0-9.101-3-9.101-9c0-5.3,3.9-9.1,9.2-9
			C840,1128.9,843.6,1132.6,843.6,1137.7z"/>
		<path fill="#81BE41" d="M807.4,1146.8c-6-0.1-8.801-3.1-8.7-9.399c0.1-5,3.6-8.7,8.5-8.601c5.5,0,9.5,3.7,9.5,9
			S812.9,1146.9,807.4,1146.8z"/>
		<path fill="#81BE41" d="M870.6,1137.9c0,6-3,8.899-9.199,8.899c-5.101,0-8.801-3.8-8.801-8.899c0-5,3.9-9,8.801-9.101
			C866.8,1128.7,870.7,1132.6,870.6,1137.9z"/>
		<path fill="#81BE41" d="M834.4,1113.8c-5.801,0-8.9-3.1-8.801-8.8c0.101-5.1,4.101-9.2,9-9.2c5.101,0,9.101,4.2,9,9.601
			C843.6,1111,840.4,1113.9,834.4,1113.8z"/>
		<path fill="#81BE41" d="M780.4,1113.8c-6,0-8.801-3-8.801-9.2c0-5,3.801-8.699,9-8.8c4.801,0,9.2,4.2,9,9
			C789.5,1109.4,786.6,1114.8,780.4,1113.8z"/>
		<path fill="#81BE41" d="M798.6,1170.7c0-6,3-8.9,9.2-8.9c5.2,0,8.9,3.8,8.8,8.8c-0.1,5.101-4,9.2-8.899,9.2
			C802.4,1179.9,798.6,1176,798.6,1170.7z"/>
		<path fill="#81BE41" d="M807.9,1080.8c-6,0-9.2-2.8-9.2-8.399c0-5.2,3.899-9.601,8.5-9.601c5.3,0,9.399,4,9.5,9.2
			C816.7,1077.7,813.7,1080.8,807.9,1080.8z"/>
	</g>
	<g opacity="0.7">
		<path fill="#B0ADA1" d="M924.6,1039.3c0,5-4,9.5-8.5,9.5c-5.199,0-9.399-4.1-9.5-9.3c-0.1-5.3,4-9.6,9-9.7
			C920.6,1029.8,924.6,1034.1,924.6,1039.3z"/>
		<path fill="#B0ADA1" d="M644.9,1113.8c-4.7,0-9-3.899-9.2-8.3c-0.2-5.3,4.2-9.7,9.5-9.7c5.2,0,9.6,4.3,9.399,9.2
			C654.4,1110.1,650.3,1113.8,644.9,1113.8z"/>
		<path fill="#B0ADA1" d="M816.6,1269.2c0,5.3-4,9.6-9,9.6s-9.1-4.3-9-9.6c0-5,3.9-9.2,8.7-9.4
			C812.3,1259.6,816.6,1264,816.6,1269.2z"/>
		<path fill="#B0ADA1" d="M843.6,1269.3c0,5.3-4.1,9.601-9.1,9.5c-5-0.1-9-4.399-8.9-9.7c0.101-5,4-9.1,8.801-9.3
			C839.4,1259.7,843.6,1264,843.6,1269.3z"/>
		<path fill="#B0ADA1" d="M852.6,1269.3c0-5.3,4.2-9.6,9.2-9.5c5,0.101,8.9,4.4,8.8,9.8c-0.1,5-4.1,9.101-8.899,9.2
			C856.8,1278.9,852.6,1274.6,852.6,1269.3z"/>
		<path fill="#B0ADA1" d="M879.6,1269.2c0-5.2,4.301-9.601,9.2-9.4c5,0.2,8.9,4.5,8.8,9.8c-0.1,5-4.1,9.101-8.899,9.2
			C883.7,1278.8,879.6,1274.5,879.6,1269.2z"/>
		<path fill="#B0ADA1" d="M1060.6,1268.7c0.101,4.899-4.699,10-9.399,10.1c-4.5,0.101-9.5-4.899-9.5-9.399
			c-0.101-4.5,4.899-9.5,9.399-9.5C1055.3,1259.8,1060.5,1264.6,1060.6,1268.7z"/>
		<path fill="#B0ADA1" d="M1222.6,1269.5c-0.1,5.2-4.399,9.6-9.3,9.3c-5.1-0.3-8.8-4.5-8.7-9.899c0.101-5,4.301-9.101,9-9.101
			C1218.7,1259.9,1222.7,1264.2,1222.6,1269.5z"/>
		<path fill="#B0ADA1" d="M1231.6,1269.3c0-5.3,4.2-9.6,9.2-9.5c5,0.101,8.9,4.4,8.8,9.8c-0.1,5-4.1,9.101-8.899,9.2
			C1235.8,1278.9,1231.6,1274.6,1231.6,1269.3z"/>
		<path fill="#B0ADA1" d="M1276.6,1269.3c0,5.3-4.199,9.601-9.1,9.5c-5-0.1-9-4.399-8.9-9.7c0.101-5,4.101-9.1,8.9-9.199
			C1272.5,1259.7,1276.6,1264,1276.6,1269.3z"/>
		<path fill="#B0ADA1" d="M645.1,1048.8c-4.5,0-9.5-5.1-9.399-9.5c0-4.3,4.899-9.399,9-9.399c4.899,0,10,4.8,9.899,9.5
			C654.6,1043.8,649.6,1048.8,645.1,1048.8z"/>
		<path fill="#B0ADA1" d="M1439.6,1039.2c0.101,4.5-4.8,9.5-9.399,9.5c-4.5,0.1-9.5-4.9-9.5-9.4c-0.101-4.2,4.8-9.5,8.899-9.5
			C1434.4,1029.7,1439.5,1034.5,1439.6,1039.2z"/>
		<path fill="#B0ADA1" d="M644.9,1179.8c-5-0.1-9.5-4.399-9.2-8.899c0.3-5.5,4.2-9.101,9.399-9.101c5.301,0,9.601,4.2,9.5,9.101
			C654.5,1176,650.2,1179.9,644.9,1179.8z"/>
		<path fill="#B0ADA1" d="M1024.3,668.8c5,0,9.5,4.3,9.3,8.8c-0.3,5.601-4.3,9.4-9.899,9.2c-5-0.1-9.101-4.2-9.101-9
			C1014.7,672.8,1019,668.8,1024.3,668.8z"/>
		<path fill="#B0ADA1" d="M645.4,1194.8c4.899,0,9,4,9.199,8.8c0.2,4.7-4.3,9.2-9,9.2c-5.5,0-10.199-4.399-10-9.3
			C635.9,1198.5,640.1,1194.8,645.4,1194.8z"/>
		<path fill="#B0ADA1" d="M1303.6,1039c0,5.3-3.699,9.6-8.3,9.8c-5.3,0.2-9.7-4.1-9.7-9.5c0-5.2,4.301-9.6,9.2-9.399
			C1299.7,1030,1303.7,1034.1,1303.6,1039z"/>
		<path fill="#B0ADA1" d="M1051,898.8c5.3,0,9.6,3.9,9.6,9c0,5-4.3,9.101-9.6,9c-5,0-9.9-4.3-9.3-8.7
			C1042.6,901.8,1045.6,898.8,1051,898.8z"/>
		<path fill="#B0ADA1" d="M1024.4,898.8c5,0.101,9.5,4.4,9.199,8.9c-0.3,5.5-4.199,9.1-9.399,9.1c-5.3,0-9.601-4.2-9.5-9.1
			C1014.8,902.7,1019.1,898.7,1024.4,898.8z"/>
		<path fill="#B0ADA1" d="M870.6,907.9c0,6-3,8.899-9.1,8.899c-5.1,0-8.8-3.7-8.9-8.899c-0.1-5.301,3.801-9.2,9.101-9.101
			C867.7,898.8,870.7,901.9,870.6,907.9z"/>
		<path fill="#B0ADA1" d="M1249.6,1039.1c0.101,5.101-3.899,9.601-8.5,9.601c-5.199,0.1-9.399-3.9-9.5-9.101
			c-0.1-5.399,3.601-9.6,8.7-9.899C1245.3,1029.6,1249.6,1033.9,1249.6,1039.1z"/>
		<path fill="#B0ADA1" d="M1051.3,883.8c-5.2-0.1-9.6-3.899-9.7-8.399c-0.1-5.4,4.2-9.601,9.7-9.601c5,0.101,9.101,4,9.3,8.8
			C1060.8,879.6,1056.4,883.9,1051.3,883.8z"/>
		<path fill="#B0ADA1" d="M843.6,1039.5c-0.1,5-4.399,9.5-8.8,9.2c-5.5-0.3-9.1-4.101-9.2-9.4c0-5.3,4.101-9.6,9.101-9.5
			C839.8,1029.9,843.7,1034.2,843.6,1039.5z"/>
		<path fill="#B0ADA1" d="M816.6,1039.5c-0.1,5-4.3,9.5-8.8,9.2c-5.6-0.3-9.3-4.3-9.2-9.9c0.101-5,4.301-9.1,9.101-9
			C812.8,1029.9,816.7,1034.2,816.6,1039.5z"/>
		<path fill="#B0ADA1" d="M618,1146.8c-5.2,0-9.6-4.3-9.4-9.2c0.2-5.1,4.5-8.899,9.801-8.8c4.8,0.101,9.5,4.101,9,8.5
			C626.9,1143.3,624,1146.9,618,1146.8z"/>
		<path fill="#B0ADA1" d="M645.3,1146.8c-5.1,0.101-9.6-3.899-9.6-8.399c-0.101-5.2,3.899-9.4,9-9.601
			c5.399-0.1,9.6,3.601,9.899,8.7C654.9,1142.4,650.5,1146.7,645.3,1146.8z"/>
		<path fill="#B0ADA1" d="M1024.3,1146.8c-5.3,0-9.6-3.899-9.6-9c0-5,4.3-9.1,9.6-9c5,0,9.9,4.3,9.3,8.7
			C1032.7,1143.8,1029.7,1146.8,1024.3,1146.8z"/>
		<path fill="#B0ADA1" d="M1050.9,1146.8c-5-0.1-9.5-4.3-9.2-8.8c0.3-5.6,4.3-9.3,9.899-9.2c5,0.101,9.101,4.3,9,9.101
			C1060.6,1142.9,1056.2,1146.9,1050.9,1146.8z"/>
		<path fill="#B0ADA1" d="M1222.6,1039.1c0.101,5.101-3.8,9.601-8.399,9.7c-5.2,0.101-9.4-3.899-9.601-9
			c-0.199-5.5,4-10.1,9.2-9.899C1218.6,1030,1222.6,1034.1,1222.6,1039.1z"/>
		<path fill="#B0ADA1" d="M1024.2,635.8c5,0,9.899,4.2,9.399,8.601c-0.8,6.5-4.1,9.5-9.699,9.399c-5-0.2-9.101-4.1-9.2-8.899
			C1014.6,639.9,1018.9,635.8,1024.2,635.8z"/>
		<path fill="#B0ADA1" d="M1023.9,1113.8c-5.101,0-9.5-4.399-9.301-9.2c0.2-4.699,4.301-8.699,8.9-8.8c5.1,0,10.5,4.3,10,8.7
			C1032.9,1109.8,1029.9,1114.9,1023.9,1113.8z"/>
		<path fill="#B0ADA1" d="M1051.6,1113.8c-5.5,0-10.1-4-10-8.6c0.101-5.3,4.2-9.3,9.4-9.4c5.3,0,9.6,4,9.6,9
			C1060.6,1109.6,1056.4,1113.8,1051.6,1113.8z"/>
		<path fill="#B0ADA1" d="M1023.6,701.8c5.5,0,10.101,3.9,10,8.601c-0.1,5.3-4.199,9.3-9.3,9.399c-5.3,0-9.6-4-9.6-9
			C1014.7,706,1018.9,701.8,1023.6,701.8z"/>
		<path fill="#B0ADA1" d="M1249.6,1367.7c0,6.1-2.8,9.1-8.8,9.2c-6,0-9.1-2.801-9.2-8.301c-0.1-5.699,3.7-9.699,9.101-9.699
			C1245.9,1358.9,1249.6,1362.6,1249.6,1367.7z"/>
		<path fill="#B0ADA1" d="M834.9,1376.8c-6,0.101-9.2-2.8-9.2-8.3c-0.101-5.8,3.7-9.8,9.1-9.7c5.101,0,8.9,3.8,8.9,8.8
			C843.7,1373.8,840.8,1376.8,834.9,1376.8z"/>
		<path fill="#B0ADA1" d="M1150.6,776.6c0-5.3,3.7-9.6,8.301-9.8c5.3-0.2,9.699,4.2,9.699,9.5c0,5.2-4.3,9.601-9.199,9.4
			C1154.6,785.6,1150.6,781.5,1150.6,776.6z"/>
		<path fill="#B0ADA1" d="M644.9,1376.8c-5-0.1-9.5-4.3-9.2-8.8c0.3-5.6,4.3-9.3,9.899-9.2c5,0.101,9.101,4.3,9,9.101
			C654.6,1372.9,650.2,1376.9,644.9,1376.8z"/>
		<path fill="#B0ADA1" d="M1430,949.8c-5.2,0-9.6-4.399-9.3-9.3c0.2-5.1,4.5-8.9,9.899-8.7c4.801,0.101,9.4,4.2,9,8.5
			C1438.9,946.4,1436,950,1430,949.8z"/>
		<path fill="#B0ADA1" d="M618.1,1278.8c-4.3,0-9.399-4.899-9.399-9c0-4.899,4.8-10,9.5-10c4.3,0,9.3,4.9,9.399,9
			C627.6,1273.8,622.8,1278.8,618.1,1278.8z"/>
		<path fill="#B0ADA1" d="M635.7,1269.3c0-4.5,5-9.5,9.5-9.5s9.5,5,9.5,9.5s-5,9.5-9.5,9.5S635.7,1273.8,635.7,1269.3z"/>
		<path fill="#B0ADA1" d="M1168.6,1269.4c0,5-4,9.199-8.8,9.399c-5,0.2-9.2-4.3-9.2-9.8c0-4.7,3.9-9,8.301-9.1
			C1164.2,1259.6,1168.7,1264,1168.6,1269.4z"/>
		<path fill="#B0ADA1" d="M1033.6,1269.1c0.2,4.4-4.699,9.5-9.3,9.601c-4.399,0.2-9.5-4.7-9.6-9.3c-0.2-4.4,4.7-9.5,9.3-9.601
			C1028.4,1259.7,1033.4,1264.6,1033.6,1269.1z"/>
		<path fill="#B0ADA1" d="M1303.6,1269.2c0,5.3-4,9.6-9,9.6c-4.699,0-8.899-4.3-9-9.2c-0.1-5.3,3.801-9.6,8.801-9.8
			C1299.4,1259.7,1303.6,1264,1303.6,1269.2z"/>
		<path fill="#B0ADA1" d="M1195.6,1269.1c0.101,5.301-3.899,9.601-8.899,9.7c-5,0.101-9.101-4.2-9.101-9.5c0-5,4.2-9.899,8.7-9.3
			C1192.3,1260.7,1195.6,1263.4,1195.6,1269.1z"/>
		<path fill="#B0ADA1" d="M1060.6,1039.6c-0.6,5.101-5.399,9.5-9.6,9c-5-0.6-9.7-5.5-9.3-9.699c0.399-4.7,5.8-9.601,9.8-9
			C1056.5,1030.6,1061.1,1035.5,1060.6,1039.6z"/>
		<path fill="#B0ADA1" d="M1330.6,1269.4c0,4.899-4.199,9.399-8.6,9.3c-5-0.101-9.3-4.2-9.4-8.8c-0.1-5.4,4.2-10.2,9.101-10.101
			C1326.8,1259.9,1330.7,1264.1,1330.6,1269.4z"/>
		<path fill="#B0ADA1" d="M1024.2,883.8c-5.3,0-9.601-4-9.601-9s4.301-9,9.601-9c5,0,9.899,4.4,9.3,8.8
			C1032.7,881,1029.5,883.9,1024.2,883.8z"/>
		<path fill="#B0ADA1" d="M852.6,1039.5c-0.1-5.4,4-9.7,9-9.7c4.801,0,8.9,4.2,9,9.2c0.101,5.2-3.8,9.7-8.5,9.7
			C857,1048.8,852.7,1044.7,852.6,1039.5z"/>
		<path fill="#B0ADA1" d="M897.6,1039.4c0,4.899-3.899,9.199-8.3,9.399c-5.3,0.2-9.7-4.2-9.7-9.6c0.101-5.101,4-9.2,8.9-9.3
			C893.5,1029.7,897.7,1034.1,897.6,1039.4z"/>
		<path fill="#B0ADA1" d="M771.6,1039.4c0-5.301,4-9.601,9-9.601s9,4.3,9,9.601c0,5-4.399,9.899-8.8,9.3
			C774.5,1047.9,771.6,1044.6,771.6,1039.4z"/>
		<path fill="#B0ADA1" d="M744.6,1039.1c0-5.199,4.2-9.5,9.2-9.3c4.601,0.101,8.8,4.2,8.8,8.8c0.101,5.5-4.199,10.5-9.1,10
			C748.1,1048,743.5,1044.4,744.6,1039.1z"/>
		<path fill="#B0ADA1" d="M1024.1,1048.8c-4.5-0.1-9.399-5-9.399-9.5c0-4.2,4.8-9.399,8.899-9.5c4.801-0.1,9.9,4.601,10.101,9.3
			C1033.7,1043.3,1028.2,1048.8,1024.1,1048.8z"/>
		<path fill="#B0ADA1" d="M1412.3,1039.5c-0.1,4.4-5,9.3-9.1,9.3c-4.7,0-9.7-5.3-9.5-9.899c0.2-4.301,5.3-9.2,9.2-9.101
			C1408.1,1030,1412.4,1034.5,1412.3,1039.5z"/>
		<path fill="#B0ADA1" d="M1330.6,1039.2c0,5-3.899,9.5-8.399,9.5c-5,0.1-9.7-4.7-9.601-9.7c0.2-5.1,4.101-9.2,8.9-9.2
			C1326.5,1029.8,1330.6,1034,1330.6,1039.2z"/>
		<path fill="#B0ADA1" d="M1051.3,620.8c-5.1,0-9.5-3.8-9.6-8.399c-0.101-5,4.7-9.7,9.7-9.601c5.1,0.101,9.199,4.101,9.3,8.9
			C1060.7,616.6,1056.4,620.8,1051.3,620.8z"/>
		<path fill="#B0ADA1" d="M618.1,1343.8c-5.199,0-9.5-4.1-9.399-9c0-4.8,4.399-9,9.2-9c5.3,0.101,10,4.2,9.6,9
			C627,1340.2,623.2,1345,618.1,1343.8z"/>
		<path fill="#B0ADA1" d="M951.6,743.5c0,6-3,9.3-8.399,9.3c-5.3,0.101-9.9-4.1-9.5-9.1c0.3-5.4,3.2-9.601,9.8-9
			C949,735.2,951.7,737.7,951.6,743.5z"/>
		<path fill="#B0ADA1" d="M1195.6,1039.3c0,4.9-4.3,9.9-8.699,9.4c-5.801-0.8-9.2-3.2-9.301-9.2c-0.1-5.3,3.9-9.6,8.9-9.7
			C1191.5,1029.7,1195.6,1034,1195.6,1039.3z"/>
		<path fill="#B0ADA1" d="M924.6,776.7c0,4.899-4.1,9-8.899,9.1c-4.8,0.101-9.101-4.2-9.101-9c0-5.3,4-9.7,8.9-9.899
			C920.6,766.7,924.7,771.1,924.6,776.7z"/>
		<path fill="#B0ADA1" d="M618.3,1376.8c-5.3,0-9.6-3.899-9.6-8.899s4.2-9.101,9.5-9c4.899,0,9.899,4.399,9.3,8.699
			C626.7,1373.6,623.9,1376.8,618.3,1376.8z"/>
		<path fill="#B0ADA1" d="M1150.6,1039c0-4.9,4-9,8.801-9.2c4.699-0.2,9.199,4.2,9.199,8.9c0,5.399-4.5,10.5-9.3,9.8
			C1154,1047.9,1149.5,1044.5,1150.6,1039z"/>
		<path fill="#B0ADA1" d="M1023.9,785.8c-5.101-0.6-9.7-5.399-9.2-9.6c0.5-5,5.3-9.601,9.5-9.2c5,0.5,10,5.9,9.399,10.1
			C1032.8,781.8,1027.9,786.2,1023.9,785.8z"/>
		<path fill="#B0ADA1" d="M1123.6,776.4c0-5,3.9-9.5,8.4-9.5c4.8-0.101,9.4,4.399,9.6,9.199c0.2,5.2-3.899,9.7-8.899,9.7
			C1127.8,785.8,1123.7,781.6,1123.6,776.4z"/>
		<path fill="#B0ADA1" d="M1276.6,1039.4c0,4.899-3.8,9.199-8.3,9.399c-5.3,0.2-9.8-4.2-9.7-9.6c0-5.101,4-9.2,8.9-9.3
			C1272.5,1029.7,1276.7,1034.1,1276.6,1039.4z"/>
		<path fill="#B0ADA1" d="M1357.6,973.4c0,6.399-3.199,9.6-9.3,9.399c-4.6-0.1-8.7-4.3-8.7-8.899c0-5.9,3.2-9.101,9.101-9.101
			C1354.7,964.8,1357.7,967.7,1357.6,973.4z"/>
		<path fill="#B0ADA1" d="M825.6,907.8c0-5.6,3.5-9,9.101-9c5.5,0,8.899,3.601,8.899,9.2c0,5.2-3.6,8.7-8.899,8.8
			C829.2,916.8,825.6,913.4,825.6,907.8z"/>
		<path fill="#B0ADA1" d="M798.6,908c0-5.8,3-9.1,8.301-9.2c5.699-0.1,9.8,3.7,9.699,9.101c-0.1,5.1-3.8,8.899-8.8,8.899
			C801.7,916.9,798.7,914,798.6,908z"/>
		<path fill="#B0ADA1" d="M1024.2,1179.8c-5.3,0-9.7-4.2-9.5-9.2c0.1-4.899,4.3-8.8,9.399-8.8c5.101,0,9.7,4,9.601,8.601
			C1033.5,1175.7,1029.4,1179.8,1024.2,1179.8z"/>
		<path fill="#B0ADA1" d="M1051.2,1161.8c5.2,0,9.6,4.2,9.399,9.101c-0.1,5-4.399,8.899-9.699,8.8c-4.7-0.101-9.5-4.101-9.101-8.4
			C1042.3,1165.7,1044.8,1161.7,1051.2,1161.8z"/>
		<path fill="#B0ADA1" d="M1024.2,931.8c4.899,0,9.2,3.9,9.399,8.3c0.2,5.301-4.199,9.7-9.6,9.7c-5.1-0.1-9.2-4-9.3-8.899
			C1014.6,935.9,1018.9,931.8,1024.2,931.8z"/>
		<path fill="#B0ADA1" d="M1249.6,1170.6c0,5.4-3.6,9.2-8.899,9.2c-5.2,0-9-3.8-9.101-9.3c-0.1-5.5,3.101-8.7,8.801-8.7
			C1246.6,1161.8,1249.6,1164.6,1249.6,1170.6z"/>
		<path fill="#B0ADA1" d="M618.5,1194.8c4.7,0,9,4,9.1,8.4c0.101,5-4.6,9.7-9.699,9.6c-5.101-0.1-9.2-4-9.301-8.899
			C608.5,1198.8,612.9,1194.8,618.5,1194.8z"/>
		<path fill="#B0ADA1" d="M924.6,1269.4c0,4.899-4.1,9.399-8.6,9.399c-5-0.1-9.4-4.2-9.4-8.8c-0.1-5.5,4.2-10.2,9.101-10.1
			C920.7,1259.9,924.7,1264.1,924.6,1269.4z"/>
		<path fill="#B0ADA1" d="M789.6,1269.4c0,5.1-4,9.199-8.8,9.399c-5,0.101-9.2-4.2-9.2-9.5c0-5.1,4.301-9.6,8.801-9.399
			C785.8,1260.1,789.7,1264.1,789.6,1269.4z"/>
		<path fill="#B0ADA1" d="M744.6,1269.3c0-5,4.101-9.5,8.5-9.399c4.9,0,9.4,4.1,9.5,8.8c0.101,5.5-4.1,10.2-9.1,10.2
			C748.6,1278.8,744.6,1274.5,744.6,1269.3z"/>
		<path fill="#B0ADA1" d="M780.7,1146.8c-6.101,0-9.101-2.899-9.101-9c0-5.899,2.9-9,8.5-9c5.301,0,9.5,4.101,9.5,9.2
			S785.9,1146.8,780.7,1146.8z"/>
		<path fill="#B0ADA1" d="M1294.9,1146.8c-5.5,0-9.301-3.6-9.301-9c0-4.899,4.101-8.899,9.101-9c5.7-0.1,8.8,2.9,8.899,8.7
			C1303.7,1143.7,1300.9,1146.8,1294.9,1146.8z"/>
		<path fill="#B0ADA1" d="M943,850.8c-6.3,1-9.1-4.399-9.3-8.899c-0.2-4.801,4.2-9.2,9-9.101c4.6,0.2,9.6,3,9.1,9.2
			C951.2,847.9,948.7,850.8,943,850.8z"/>
		<path fill="#B0ADA1" d="M617.9,1179.8c-5-0.1-9.2-4.1-9.2-9c0-5,4.3-9.1,9.7-9c4.899,0.101,9.199,3.9,9.3,8.4
			C627.7,1175.6,623.4,1179.9,617.9,1179.8z"/>
		<path fill="#B0ADA1" d="M1213.8,931.8c5.7,0,8.9,3.2,8.9,8.7c-0.101,5.1-3.9,9.2-8.8,9.3c-5.301,0.101-9.2-3.8-9.2-9.1
			C1204.7,934.7,1207.6,931.8,1213.8,931.8z"/>
		<path fill="#B0ADA1" d="M1249.6,940.3c0,5.5-3.6,9.4-8.8,9.5c-5,0.101-9.2-4.1-9.2-9.399c0-5.601,3-8.601,8.9-8.601
			C1246.5,931.8,1249.6,934.7,1249.6,940.3z"/>
		<path fill="#B0ADA1" d="M1348.9,931.8c6,0,8.8,3,8.8,9.2c0,5.8-3.101,8.9-8.7,8.8c-5.3-0.1-9.4-4.2-9.3-9.3
			C1339.8,935.7,1344,931.8,1348.9,931.8z"/>
		<path fill="#B0ADA1" d="M1402.8,931.8c5.7,0,9.7,3.7,9.5,8.7c-0.2,5.7-3.8,9.3-9.2,9.3c-5.199,0-9.6-4.2-9.399-9.2
			C1393.8,935.8,1397.9,931.8,1402.8,931.8z"/>
		<path fill="#B0ADA1" d="M978.6,940.7c0,5.899-2.899,9.1-8.399,9.1c-5.4,0-9.601-3.899-9.601-9c0-4.899,4-9,8.9-9
			C975.7,931.8,978.6,934.7,978.6,940.7z"/>
		<path fill="#B0ADA1" d="M942.7,931.8c6.1,0,9,2.9,9,9c0,5.9-2.9,9-8.5,9c-5.3,0-9.5-4-9.5-9.1
			C933.7,935.8,937.8,931.8,942.7,931.8z"/>
		<path fill="#B0ADA1" d="M861.5,931.8c6.1,0,9.1,2.9,9.1,8.9c0,5.3-3.899,9.2-9.199,9.1c-4.9-0.1-8.801-4.2-8.801-9.3
			C852.6,935,855.8,931.8,861.5,931.8z"/>
		<path fill="#B0ADA1" d="M825.6,940.8c0-6.1,2.9-9,9-8.899c5.9,0,9,3,8.9,8.5c0,5.3-4.1,9.5-9.1,9.399
			C829.7,949.7,825.6,945.6,825.6,940.8z"/>
		<path fill="#B0ADA1" d="M807.8,931.8c5.7,0,8.9,3.2,8.8,8.7c-0.1,5.1-4,9.2-8.8,9.3c-5.3,0.101-9.2-3.8-9.2-9.1
			C798.7,934.7,801.6,931.8,807.8,931.8z"/>
		<path fill="#B0ADA1" d="M1005.6,776.5c0,5.9-3,9.2-8.399,9.3c-4.5,0.101-9.4-4.8-9.601-9.3c-0.1-4.5,4.9-10.1,9.2-9.5
			C1002.3,767.7,1006.8,771.2,1005.6,776.5z"/>
		<path fill="#B0ADA1" d="M1051.2,817.8c-5,0-9.5-3.899-9.5-8.399c-0.101-4.4,4.8-9.5,9.3-9.601c4.5-0.1,9.8,5,9.7,9.2
			C1060.5,814.9,1057.3,817.8,1051.2,817.8z"/>
		<path fill="#B0ADA1" d="M978.6,743.2c0,6.2-3.1,9.7-8.6,9.6c-5.3-0.1-9.3-4.1-9.3-9.399c-0.101-5.5,3.399-8.601,9.6-8.601
			C975.9,734.8,978.6,737.5,978.6,743.2z"/>
		<path fill="#B0ADA1" d="M1096.6,743.3c0-5.7,2.7-8.5,8.301-8.5c6.3,0,9.699,3,9.699,8.5c0,5.3-3.899,9.3-9.199,9.5
			C1099.9,753,1096.6,749.5,1096.6,743.3z"/>
		<path fill="#B0ADA1" d="M1132.3,734.8c6.3-1,9.101,4.3,9.3,8.9c0.2,4.8-4.1,9.1-9,9.1c-5.399,0-9-3.8-9-9.3
			C1123.7,737.7,1126.6,734.8,1132.3,734.8z"/>
		<path fill="#B0ADA1" d="M852.6,776.1c0.101-5,4.2-9.199,9-9.199c5.101,0,9,4.3,9,9.699c-0.1,5-4.1,9.2-9,9.2
			C856.6,785.8,852.6,781.5,852.6,776.1z"/>
		<path fill="#B0ADA1" d="M897.6,776.3c0,5.3-4.3,9.7-9.199,9.5c-4.9-0.2-8.801-4.3-8.801-9.399c0-5.301,4.301-9.7,9.301-9.5
			C894,767.2,897.6,771.1,897.6,776.3z"/>
		<path fill="#B0ADA1" d="M861.6,883.8c-5.8,0-9-3.1-8.899-8.7c0-5.3,4.2-9.5,9.3-9.3c5.1,0.101,8.7,3.9,8.7,9
			C870.6,880.9,867.7,883.8,861.6,883.8z"/>
		<path fill="#B0ADA1" d="M1105.7,883.8c-6.101,0-9.101-2.899-9.101-8.899c0-5.9,2.9-9.101,8.4-9.101c5.4,0,9.6,3.9,9.6,9
			C1114.6,879.7,1110.6,883.8,1105.7,883.8z"/>
		<path fill="#B0ADA1" d="M780.6,916.8c-6,0-8.899-3-8.899-9.1c0-5.9,3-8.9,8.6-8.9c5.3,0,9.5,4.101,9.4,9.101
			C789.6,912.8,785.4,916.8,780.6,916.8z"/>
		<path fill="#B0ADA1" d="M870.6,841.9c0,6-3,8.899-9.1,8.899c-5.8,0-8.9-3-8.9-8.6c0-5.3,4.2-9.5,9.2-9.4
			C866.7,832.9,870.7,837,870.6,841.9z"/>
		<path fill="#B0ADA1" d="M888.7,850.8c-5.9,0-9-2.899-9.101-8.399c0-5.4,3.9-9.601,9-9.601c4.9,0,9,4.101,9,8.9
			C897.7,847.9,894.8,850.8,888.7,850.8z"/>
		<path fill="#B0ADA1" d="M1105.1,850.8c-5.699,0-8.399-2.7-8.5-8.3c0-6.3,3-9.7,8.601-9.6c5.3,0.1,9.3,4,9.399,9.3
			C1114.8,847.6,1111.2,850.8,1105.1,850.8z"/>
		<path fill="#B0ADA1" d="M1186.2,850.8c-5.9-0.1-8.7-3.1-8.601-9.399c0.101-4.7,4.5-8.7,9.301-8.601c5,0.2,8.8,4.601,8.699,9.9
			C1195.5,848.1,1192.3,850.9,1186.2,850.8z"/>
		<path fill="#B0ADA1" d="M1321.7,1194.8c6.1,0,9,2.9,9,9.101c0,5.8-3.4,9.1-9.2,8.899c-4.6-0.1-8.7-4.2-8.7-8.899
			C1312.6,1198,1315.8,1194.8,1321.7,1194.8z"/>
		<path fill="#B0ADA1" d="M1276.6,1203.8c0,4.9-4,9-8.899,9c-5,0.101-9.101-4.1-9.101-9.5c0-5.6,3.101-8.5,9-8.5
			C1273.7,1194.8,1276.6,1197.7,1276.6,1203.8z"/>
		<path fill="#B0ADA1" d="M1204.6,1203.6c0-6,3-8.8,9.2-8.8c5.8,0,8.9,3.101,8.8,8.7c-0.1,5.3-4.199,9.4-9.3,9.3
			C1208.5,1212.7,1204.6,1208.5,1204.6,1203.6z"/>
		<path fill="#B0ADA1" d="M1177.6,1203.9c0-6.2,2.9-9.101,8.9-9.101c5.8,0,9.1,3,9.1,8.5c0,5.3-4,9.601-9.1,9.5
			C1181.4,1212.7,1177.7,1209,1177.6,1203.9z"/>
		<path fill="#B0ADA1" d="M1123.6,1204c0-6.2,2.801-9.2,8.801-9.2s9.199,3.101,9.199,9c0,4.8-4.3,9.101-9.1,9
			C1126.9,1212.7,1123.7,1209.6,1123.6,1204z"/>
		<path fill="#B0ADA1" d="M1051.1,1194.8c5.301,0,9.5,3.9,9.5,8.9c0,4.7-4.399,9.2-9.1,9.1c-5.2-0.1-9.6-4.1-9.7-8.899
			C1041.6,1198.9,1045.8,1194.8,1051.1,1194.8z"/>
		<path fill="#B0ADA1" d="M1024.5,1194.8c4.7,0,8.9,3.9,9.1,8.3c0.2,4.9-4.6,9.801-9.5,9.7c-4.699-0.1-9.199-4.3-9.399-8.8
			C1014.5,1198.9,1018.9,1194.8,1024.5,1194.8z"/>
		<path fill="#B0ADA1" d="M861.7,1194.8c6.1,0,9,2.9,9,9c0,4.9-4.101,8.9-9,9c-5.101,0-9-4.2-9-9.5
			C852.7,1197.7,855.8,1194.8,861.7,1194.8z"/>
		<path fill="#B0ADA1" d="M807.5,1194.8c6,0,9.1,2.8,9.2,8.3c0.1,5.4-3.8,9.601-8.9,9.7c-4.899,0-9.1-4-9.1-8.8
			C798.6,1197.8,801.5,1194.8,807.5,1194.8z"/>
		<path fill="#B0ADA1" d="M1096.6,1236.5c0-5.8,2.601-8.4,8.101-8.8c6.899-0.5,9.6,3.3,9.7,8.399c0.199,6.301-3.101,9.2-9.4,9.601
			C1099.7,1246,1096.7,1242.4,1096.6,1236.5z"/>
		<path fill="#B0ADA1" d="M978.6,1236.3c0,6.101-3.199,9.7-8.8,9.5c-5.3-0.2-9.2-4.2-9.2-9.5c0-5.6,3.4-8.5,9.7-8.5
			C976,1227.8,978.6,1230.6,978.6,1236.3z"/>
		<path fill="#B0ADA1" d="M699.2,1227.8c6.6-0.8,9.2,3.9,9.3,8.3c0,6.301-3.2,9.2-9.4,9.601c-5.5,0.3-8.5-3.3-8.5-9.7
			C690.7,1230.5,693.4,1227.8,699.2,1227.8z"/>
		<path fill="#B0ADA1" d="M599.6,1236.6c0,5.9-3.1,9.5-8.5,9.101c-6.199-0.4-9.6-3.3-9.3-9.7c0.2-5.4,2.9-8.8,9.8-8.3
			C597,1228.1,599.7,1230.7,599.6,1236.6z"/>
		<path fill="#B0ADA1" d="M1330.6,1170.9c0,5.899-3,9-8.6,8.899c-5.3,0-9.5-4.1-9.4-9.1c0.101-4.8,4.2-8.9,9.101-8.9
			C1327.8,1161.8,1330.7,1164.8,1330.6,1170.9z"/>
		<path fill="#B0ADA1" d="M1294.6,1161.8c6.101,0,9,2.9,9,9c0,5.8-3.1,9-8.6,9c-5.3,0-9.5-4.2-9.4-9.2
			C1285.8,1165.5,1289.5,1161.8,1294.6,1161.8z"/>
		<path fill="#B0ADA1" d="M1204.6,1170.6c0-6,3-8.899,9.2-8.8c5.7,0.101,8.9,3.3,8.8,8.8c-0.1,5.101-4,9.2-8.899,9.2
			C1208.3,1179.8,1204.6,1176,1204.6,1170.6z"/>
		<path fill="#B0ADA1" d="M1132.5,1161.8c4.9,0,9,4,9.1,8.8c0.101,5-4.1,9.101-9.399,9.2c-5.601,0-8.601-3-8.601-8.899
			C1123.6,1164.8,1126.5,1161.8,1132.5,1161.8z"/>
		<path fill="#B0ADA1" d="M978.6,1170.9c0,5.8-3,8.899-8.6,8.899c-5.3,0-9.5-4.2-9.4-9.2c0.101-4.8,4.2-8.8,9.101-8.8
			C975.8,1161.8,978.7,1164.8,978.6,1170.9z"/>
		<path fill="#B0ADA1" d="M951.6,1170.9c0,5.899-3,8.899-8.6,8.899c-5.3,0-9.5-4.1-9.4-9.1c0.101-4.8,4.2-8.9,9.101-8.8
			C948.8,1161.8,951.7,1164.8,951.6,1170.9z"/>
		<path fill="#B0ADA1" d="M924.6,1170.9c0,5.899-3,8.899-8.6,8.899c-5.3,0-9.5-4.1-9.4-9.1c0.101-4.8,4.2-8.9,9.101-8.8
			C921.8,1161.8,924.7,1164.8,924.6,1170.9z"/>
		<path fill="#B0ADA1" d="M888.7,1161.8c6.1,0,9,3,8.899,9.101c0,5.699-3.199,8.899-8.699,8.899c-5.101-0.1-9.2-3.899-9.301-8.8
			C879.6,1165.7,883.4,1161.8,888.7,1161.8z"/>
		<path fill="#B0ADA1" d="M753.7,1161.8c4.899,0,8.899,4.101,8.899,9c0,5.101-4.199,9-9.6,9c-5.5,0-8.4-3.2-8.4-9.1
			C744.7,1164.7,747.6,1161.8,753.7,1161.8z"/>
		<path fill="#B0ADA1" d="M726.7,1161.8c4.899,0,8.899,4.101,8.899,9c0,5.101-4.199,9-9.6,9c-5.5,0-8.4-3.2-8.4-9.1
			C717.7,1164.7,720.6,1161.8,726.7,1161.8z"/>
		<path fill="#B0ADA1" d="M572.6,1171c0,5.8-3.1,8.9-8.699,8.8c-5.301-0.1-9.4-4.2-9.301-9.3c0.101-4.8,4.301-8.7,9.2-8.7
			C569.8,1161.9,572.7,1164.9,572.6,1171z"/>
		<path fill="#B0ADA1" d="M744.6,1203.9c0-6.101,2.9-9.101,8.9-9.101c5.9,0,9.1,3.2,9.1,9.101c0,4.6-4.1,8.8-8.699,8.899
			C748.1,1213,744.7,1209.7,744.6,1203.9z"/>
		<path fill="#B0ADA1" d="M572.6,1203.7c0,6-3.1,9.2-9.1,9.1c-4.9,0-9-4.3-8.9-9.2c0.101-5.3,3.9-8.899,9.5-8.8
			C569.8,1194.9,572.7,1197.9,572.6,1203.7z"/>
		<path fill="#B0ADA1" d="M536.4,1194.8c6.199,0,9.199,2.8,9.199,8.8s-3.1,9.2-9,9.2c-4.8,0-9.1-4.3-9-9.1
			C527.7,1198,530.9,1194.9,536.4,1194.8z"/>
		<path fill="#B0ADA1" d="M1105.2,1310.8c-5.8,0-8.2-2.7-8.7-8.2c-0.6-7.1,4.2-9.699,8.6-9.6c6.2,0.1,9.4,3.2,9.4,9.5
			C1114.4,1306.9,1111.8,1311.6,1105.2,1310.8z"/>
		<path fill="#B0ADA1" d="M1330.6,1334.7c0,6.1-2.899,9.1-8.899,9.1c-5.9,0-9.101-3.2-9.101-9.1c0-4.9,4.301-9.101,9.2-8.9
			C1326.3,1326.1,1331.5,1328.9,1330.6,1334.7z"/>
		<path fill="#B0ADA1" d="M1276.6,1334.8c0,6.101-2.899,9-9,9c-5.899,0-9-2.899-9-8.5c0-5.3,4-9.5,9.101-9.5
			C1272.6,1325.8,1276.6,1329.9,1276.6,1334.8z"/>
		<path fill="#B0ADA1" d="M924.6,1334.7c0,6.1-2.899,9.1-9,9.1c-5.899,0-9.1-3.2-9-9.1c0.101-4.601,4.101-8.8,8.7-8.9
			C921.2,1325.7,924.6,1328.9,924.6,1334.7z"/>
		<path fill="#B0ADA1" d="M870.6,1334.9c0,6-3,8.899-9.1,8.899c-5.9,0-8.9-3-8.9-8.6c0-5.3,4.101-9.5,9.2-9.4
			C866.6,1325.9,870.7,1330,870.6,1334.9z"/>
		<path fill="#B0ADA1" d="M807.8,1343.8c-6.2,0-9.2-2.8-9.2-8.8c0-4.9,3.9-9.1,8.7-9.2c5.101-0.1,9.2,4,9.3,9.3
			C816.7,1340.7,813.6,1343.8,807.8,1343.8z"/>
		<path fill="#B0ADA1" d="M753.6,1343.8c-6.1,0-9-3-8.899-9.1c0-5.8,3.399-9.101,9.3-8.9c4.6,0.101,8.7,4.3,8.7,8.9
			C762.7,1340.6,759.5,1343.8,753.6,1343.8z"/>
		<path fill="#B0ADA1" d="M644.9,1343.8c-4.9,0-9.4-4.3-9.2-8.7c0.2-5.1,4.5-9.3,9.5-9.3c4.899,0,9.7,4.7,9.5,9.3
			C654.4,1340.1,650.2,1343.8,644.9,1343.8z"/>
		<path fill="#B0ADA1" d="M545.6,1334.9c0,6.1-3,9-9.1,8.899c-5.8,0-9.1-3.399-8.9-9.3c0.101-4.6,4.301-8.7,8.9-8.7
			C542.4,1325.7,545.7,1328.9,545.6,1334.9z"/>
		<path fill="#B0ADA1" d="M1213.6,1376.8c-6.1,0-9-2.899-9-9.1c0-5.101,3.7-8.8,8.801-8.9c5.1-0.1,9.199,4.2,9.199,9.5
			C1222.7,1373.7,1219.4,1376.8,1213.6,1376.8z"/>
		<path fill="#B0ADA1" d="M951.6,1269.3c0,5-3.899,9.4-8.399,9.5c-5,0.101-9.7-4.7-9.601-9.7c0.101-4.699,4.5-9.199,9-9.3
			C947.5,1259.8,951.6,1264.1,951.6,1269.3z"/>
		<path fill="#B0ADA1" d="M717.6,1268.9c0-4.7,4-8.9,8.301-9.101c5-0.2,9.699,4.601,9.699,9.601c-0.1,4.8-4.3,9.199-8.899,9.399
			C721.7,1278.9,717.6,1274.5,717.6,1268.9z"/>
		<path fill="#B0ADA1" d="M545.6,1269.6c0,4.7-3.899,8.9-8.3,9.101c-4.899,0.2-9.8-4.601-9.7-9.5c0.101-4.7,4.301-9.2,8.801-9.4
			C541.5,1259.6,545.7,1264.1,545.6,1269.6z"/>
		<path fill="#B0ADA1" d="M780.1,1310.8c-5.6,0-8.5-3-8.5-8.899c0-4.601,4-9,8.4-9.101c5.5-0.1,9.6,4,9.6,9.5
			C789.6,1308,786.5,1310.8,780.1,1310.8z"/>
		<path fill="#B0ADA1" d="M545.6,1368c0,6-3,8.9-9.1,8.8c-4.8,0-8.9-4.2-8.8-9.1c0-5.101,4.3-9,9.7-8.9
			C542.8,1358.9,545.7,1362,545.6,1368z"/>
		<path fill="#B0ADA1" d="M699.1,1310.8c-5.699,0-8.399-2.7-8.399-8.399c0-6.301,3-9.7,8.6-9.601c5.3,0.101,9.3,4.101,9.4,9.3
			C708.7,1307.6,705.2,1310.8,699.1,1310.8z"/>
		<path fill="#B0ADA1" d="M591.2,1310.8c-6.2,0-9.7-3.2-9.5-8.7c0.1-5.3,4.2-9.3,9.399-9.3c5.5,0,8.601,3.4,8.601,9.7
			C599.6,1308.1,596.9,1310.8,591.2,1310.8z"/>
		<path fill="#B0ADA1" d="M726.8,1376.8c-6.1,0-9.1-2.899-9.1-8.899c0-5.9,2.8-9.101,8.399-9.101c5.4-0.1,9.601,3.9,9.601,8.9
			S731.6,1376.8,726.8,1376.8z"/>
		<path fill="#B0ADA1" d="M753.4,1376.8c-6,0-8.801-3-8.801-9.2c0-5.8,3.101-8.899,8.7-8.8c5.3,0.101,9.4,4.2,9.3,9.3
			C762.5,1372.9,758.3,1376.8,753.4,1376.8z"/>
		<path fill="#B0ADA1" d="M780.7,1376.8c-6.101,0-9-2.899-9-9c0-5.8,3.1-9,8.6-9c5.3,0,9.5,4.2,9.4,9.2
			C789.5,1373.1,785.8,1376.8,780.7,1376.8z"/>
		<path fill="#B0ADA1" d="M1123.6,1269.4c0-5,3.9-9.4,8.4-9.5c5-0.101,9.7,4.699,9.6,9.699c-0.1,4.7-4.5,9.2-9,9.301
			C1127.7,1278.8,1123.6,1274.6,1123.6,1269.4z"/>
		<path fill="#B0ADA1" d="M1005.6,1039.4c0,5-4.1,9.5-8.6,9.399c-4.5-0.1-9.4-5-9.4-9.399c0-4.301,4.7-9.4,8.9-9.5
			C1002.2,1029.6,1005.7,1033.2,1005.6,1039.4z"/>
		<path fill="#B0ADA1" d="M951.6,1039.2c0,5-3.899,9.399-8.399,9.5c-5,0.1-9.7-4.7-9.601-9.7c0.101-4.8,4.4-9.2,9-9.3
			C947.5,1029.8,951.6,1034,951.6,1039.2z"/>
		<path fill="#B0ADA1" d="M1384.6,1072.3c0,5.7-2.699,8.5-8.3,8.5c-6.3,0-9.7-3-9.7-8.5c0-5.3,3.9-9.3,9.2-9.5
			C1381.4,1062.6,1384.6,1066.1,1384.6,1072.3z"/>
		<path fill="#B0ADA1" d="M1357.6,1072.3c0,5.7-2.699,8.5-8.3,8.5c-6.3,0-9.7-3-9.7-8.6c0-5.3,4-9.3,9.301-9.4
			C1354.4,1062.7,1357.6,1066.2,1357.6,1072.3z"/>
		<path fill="#B0ADA1" d="M1294.9,1080.8c-6,0-9.101-2.8-9.2-8.3c-0.101-5.4,3.8-9.6,8.8-9.7c4.9-0.1,9.1,4,9.2,8.8
			C1303.7,1077.8,1300.8,1080.8,1294.9,1080.8z"/>
		<path fill="#B0ADA1" d="M1276.6,1071.8c0,6.101-2.899,9-9,9c-5.899,0-9-2.899-9-8.5c0-5.3,4-9.5,9.101-9.5
			C1272.6,1062.9,1276.6,1067,1276.6,1071.8z"/>
		<path fill="#B0ADA1" d="M1132.1,1080.8c-5.699,0-8.399-2.7-8.399-8.399c0-5.7,3.6-9.7,8.7-9.601c5.1,0.101,9.3,4,9.3,8.8
			C1141.7,1077.8,1138.5,1080.8,1132.1,1080.8z"/>
		<path fill="#B0ADA1" d="M1105.1,1080.8c-5.699,0-8.5-2.7-8.5-8.3c0-6.3,3-9.7,8.5-9.7c5.301,0,9.301,4,9.4,9.3
			C1114.8,1077.6,1111.3,1080.8,1105.1,1080.8z"/>
		<path fill="#B0ADA1" d="M978.6,1072.3c0,5.7-2.699,8.5-8.3,8.5c-6.3,0-9.7-3-9.7-8.6c0-5.3,4-9.3,9.301-9.4
			C975.4,1062.7,978.6,1066.2,978.6,1072.3z"/>
		<path fill="#B0ADA1" d="M897.6,1071.8c0,6.101-2.899,9-9,9c-5.899,0-9-2.899-9-8.5c0-5.3,4-9.6,9-9.5
			C893.6,1062.8,897.6,1066.9,897.6,1071.8z"/>
		<path fill="#B0ADA1" d="M726,1080.8c-5.6,0-8.3-2.8-8.3-8.5c0-5.6,3.7-9.7,8.8-9.5s9.2,4.101,9.2,9
			C735.7,1077.9,732.5,1080.8,726,1080.8z"/>
		<path fill="#B0ADA1" d="M699.3,1080.8c-5.8,0-8.399-2.6-8.8-8.1c-0.5-6.9,3.4-9.601,8.4-9.7c6.3-0.1,9.199,3.1,9.6,9.4
			C708.9,1077.8,705.3,1080.8,699.3,1080.8z"/>
		<path fill="#B0ADA1" d="M1430.1,964.8c5,0,9.4,3.9,9.5,8.4c0.101,5-4.699,9.7-9.699,9.5c-4.7-0.101-9.2-4.5-9.301-9
			C1420.6,968.9,1424.9,964.8,1430.1,964.8z"/>
		<path fill="#B0ADA1" d="M1276.6,973.9c0,4.899-4.1,8.899-9,8.899c-5.1,0-9-4.2-9-9.6c0-5.5,3.2-8.4,9.101-8.4
			C1273.8,964.8,1276.7,967.8,1276.6,973.9z"/>
		<path fill="#B0ADA1" d="M1177.6,973.7c0-6,3-8.9,9.101-8.9c5.899,0,8.899,3,8.899,8.601c0,5.3-4.199,9.5-9.199,9.399
			C1181.6,982.7,1177.6,978.6,1177.6,973.7z"/>
		<path fill="#B0ADA1" d="M1123.6,974c0-6.2,2.801-9.2,8.801-9.2s9.199,3.101,9.199,9c0,4.8-4.3,9-9.1,9
			C1126.9,982.7,1123.7,979.6,1123.6,974z"/>
		<path fill="#B0ADA1" d="M1105.1,964.8c5.4,0,9.301,3.4,9.5,8.3c0.2,5.2-4,9.801-9,9.7c-4.6-0.1-9.8-2.8-9.1-9.7
			C1097.1,967.5,1099.4,964.8,1105.1,964.8z"/>
		<path fill="#B0ADA1" d="M1024.1,982.8c-4.899,0-9.699-4.7-9.5-9.3c0.2-5,4.4-8.7,9.7-8.7c4.9,0,9.4,4.3,9.2,8.7
			C1033.4,978.6,1029.1,982.8,1024.1,982.8z"/>
		<path fill="#B0ADA1" d="M951.6,973.7c0,5.899-3.199,9.1-9.1,9.1c-4.9,0-9.1-4.3-8.9-9.2c0.301-4.6,3.101-9.3,8.9-8.899
			C948.7,965.1,951.6,967.7,951.6,973.7z"/>
		<path fill="#B0ADA1" d="M807.5,964.8c6,0,9.1,2.8,9.2,8.3c0.1,5.4-3.8,9.601-8.9,9.7c-4.899,0.101-9.1-4-9.1-8.8
			C798.6,967.8,801.5,964.8,807.5,964.8z"/>
		<path fill="#B0ADA1" d="M699.2,964.8c5.399,0,9.3,3.4,9.5,8.3c0.2,5.2-4,9.801-9,9.601c-4.8-0.2-9.7-2.9-9.101-9.7
			C691.1,967.5,693.4,964.8,699.2,964.8z"/>
		<path fill="#B0ADA1" d="M645.2,982.8c-5,0-9.7-4.5-9.601-9.2c0.101-4.8,4.301-8.8,9.101-8.8c5.3,0,9.899,4,9.8,8.601
			C654.5,978.4,650.1,982.8,645.2,982.8z"/>
		<path fill="#B0ADA1" d="M1330.6,1006.7c0,4.7-4,9-8.399,9.1c-5.2,0.101-9.8-4-9.601-9c0.301-7.6,4.4-9.399,10.101-9
			C1328.1,998.1,1330.7,1000.8,1330.6,1006.7z"/>
		<path fill="#B0ADA1" d="M1457.2,1128.8c5.3,0,9.7,4.3,9.5,9.2s-4.3,8.7-9.4,8.8c-5.399,0-9.7-4.2-9.399-9.2
			C1448,1132.6,1452.1,1128.8,1457.2,1128.8z"/>
		<path fill="#B0ADA1" d="M1276.6,1137.8c0,6.101-2.899,9-9.1,9c-5.1,0-8.8-3.7-8.9-8.8c-0.1-5,4.101-9.2,9.4-9.2
			C1273.6,1128.8,1276.6,1132,1276.6,1137.8z"/>
		<path fill="#B0ADA1" d="M1249.6,1138c0,6-3,8.9-9.3,8.8c-5-0.1-8.7-3.6-8.7-8.399c0-5.5,3.7-9.5,8.9-9.601
			C1245.9,1128.7,1249.7,1132.6,1249.6,1138z"/>
		<path fill="#B0ADA1" d="M1213.6,1146.8c-6.1,0-9-3-8.899-9.2c0-5,3.6-8.8,8.399-8.8c5.5-0.1,9.5,3.601,9.601,8.8
			C1222.8,1142.9,1218.9,1146.8,1213.6,1146.8z"/>
		<path fill="#B0ADA1" d="M1177.6,1137.9c0-5.9,3-9.101,8.5-9.101c5.301,0,9.601,4,9.5,9.101c0,5.1-3.8,8.899-8.8,8.899
			C1180.7,1146.8,1177.7,1144,1177.6,1137.9z"/>
		<path fill="#B0ADA1" d="M1159.6,1146.8c-6.1,0-8.899-3-8.899-9.1c0-5.9,3-9,8.6-8.9c5.3,0,9.5,4.101,9.4,9.101
			C1168.6,1142.8,1164.4,1146.8,1159.6,1146.8z"/>
		<path fill="#B0ADA1" d="M1132.7,1146.8c-6.101,0-9-2.899-9-9c0-5.899,2.899-9,8.5-9c5.3,0,9.5,4,9.5,9.101
			C1141.6,1142.7,1137.5,1146.8,1132.7,1146.8z"/>
		<path fill="#B0ADA1" d="M924.6,1138c0,6-3,8.8-9.199,8.8c-4.801,0-8.9-4.2-8.801-9.1c0.101-5.101,4.301-8.9,9.7-8.9
			C921.8,1128.9,924.7,1132,924.6,1138z"/>
		<path fill="#B0ADA1" d="M897.6,1137.9c0,6.1-3,9-9.1,8.899c-5.1,0-8.8-3.7-8.9-8.899c-0.1-5.101,4.2-9.101,9.5-9.101
			C894.7,1128.8,897.7,1132,897.6,1137.9z"/>
		<path fill="#B0ADA1" d="M744.6,1138.1c-0.1-6,2.801-9.199,8.301-9.199c5.399-0.101,9.699,3.8,9.699,8.8c0.101,4.899-4,9.1-8.8,9.2
			C747.7,1146.9,744.7,1144,744.6,1138.1z"/>
		<path fill="#B0ADA1" d="M536.5,1161.8c6.1,0,9.1,2.9,9.1,8.9c0,5.899-2.899,9.1-8.399,9.1c-5.4,0-9.601-3.899-9.601-8.899
			C527.6,1166,531.7,1161.8,536.5,1161.8z"/>
		<path fill="#B0ADA1" d="M1267.8,1113.8c-5.899,0-9.1-2.899-9.2-8.399c0-5.4,3.9-9.601,9-9.601c5.2,0,8.9,3.7,9,8.8
			C1276.7,1110.8,1273.8,1113.8,1267.8,1113.8z"/>
		<path fill="#B0ADA1" d="M1213.7,1113.8c-6.101,0-9.101-2.899-9.101-8.899c0-4.9,4-9,8.801-9.101c5-0.1,9.1,4.101,9.199,9.4
			C1222.7,1110.8,1219.6,1113.8,1213.7,1113.8z"/>
		<path fill="#B0ADA1" d="M1159.5,1113.8c-6,0-8.6-3-9-9.1c-0.4-5.8,4.4-8.601,8.9-8.8c4.899-0.2,9.1,4,9.199,8.899
			C1168.7,1110.6,1165.5,1113.8,1159.5,1113.8z"/>
		<path fill="#B0ADA1" d="M924.6,1104.8c0,6.101-2.899,9-9,9c-5.899,0-9.1-3.3-9-9.2c0.101-4.6,4.2-8.699,8.801-8.8
			C921.3,1095.7,924.6,1098.9,924.6,1104.8z"/>
		<path fill="#B0ADA1" d="M861.4,1113.8c-5.801-0.1-8.801-3.1-8.801-8.7c0.101-5.3,4.2-9.399,9.301-9.3
			c4.8,0.101,8.699,4.3,8.699,9.2C870.6,1111,867.6,1113.9,861.4,1113.8z"/>
		<path fill="#B0ADA1" d="M753.7,1113.8c-6.101,0-9.101-2.899-9.101-9c0-5.899,3.2-9.1,9.101-9c4.6,0.101,8.8,4.101,8.899,8.7
			C762.8,1110.4,759.5,1113.8,753.7,1113.8z"/>
		<path fill="#B0ADA1" d="M617.8,1113.8c-4.8,0-9-4-9.1-8.8c-0.101-4.7,4.2-9.1,8.899-9.2c5.4,0,10.101,4.3,9.9,9.2
			C627.3,1110.2,623.3,1113.8,617.8,1113.8z"/>
		<path fill="#B0ADA1" d="M1457.4,1113.8c-5.4-0.1-9.4-3.7-9.5-8.5c0-5.6,3.899-9.6,9.5-9.5c5,0.101,9.1,4,9.199,8.8
			C1466.8,1109.6,1462.4,1113.9,1457.4,1113.8z"/>
		<path fill="#B0ADA1" d="M1024.1,620.8c-5.199,0-9.5-4.1-9.399-9c0.1-4.5,4.5-8.8,9.3-8.899c4.7-0.101,10,4.3,9.6,8.6
			C1033,616.6,1029.9,622,1024.1,620.8z"/>
		<path fill="#B0ADA1" d="M1096.6,1105.4c0-6.5,3-9.601,9.101-9.601c4.8,0,9,4.3,8.899,9.101c-0.1,4.8-4.199,8.899-9.1,8.8
			C1099.6,1113.8,1096.7,1111,1096.6,1105.4z"/>
		<path fill="#B0ADA1" d="M1132.4,1113.8c-6-0.1-8.801-3.1-8.7-9.3c0.1-5.5,3.3-8.7,8.899-8.7c4.801,0,9.101,4.2,9.101,9
			C1141.6,1110.2,1137.8,1113.9,1132.4,1113.8z"/>
		<path fill="#B0ADA1" d="M951.6,1137.6c0,6-2.8,9.101-8.399,9.2c-5.4,0-9.601-4-9.601-9.1c0-4.9,4.101-8.8,9.2-8.9
			C948.6,1128.7,951.6,1131.8,951.6,1137.6z"/>
		<path fill="#B0ADA1" d="M1240.9,1080.8c-6,0.101-9.2-2.8-9.2-8.3c-0.101-5.4,3.899-9.7,9-9.6c4.899,0,8.899,4.1,9,9.199
			C1249.8,1077.7,1246.7,1080.8,1240.9,1080.8z"/>
		<path fill="#B0ADA1" d="M717.6,1138c0-6,2.801-9.1,8.4-9.2c5.4,0,9.6,4,9.6,9.101c0,4.899-4.1,8.8-9.199,8.899
			C720.7,1146.9,717.7,1143.8,717.6,1138z"/>
		<path fill="#B0ADA1" d="M1186.6,1080.8c-6.1,0-9-2.899-9-9c0-4.6,4.101-9,8.4-9c5.5-0.1,9.6,4,9.6,9.5
			C1195.6,1077.9,1192.6,1080.8,1186.6,1080.8z"/>
		<path fill="#B0ADA1" d="M1240.4,1113.8c-5.801,0-8.9-3.1-8.801-8.8c0.101-5.1,4.101-9.2,9-9.2c5.101,0,9.101,4.2,9,9.601
			C1249.6,1111,1246.4,1113.9,1240.4,1113.8z"/>
		<path fill="#B0ADA1" d="M1357.6,1302.4c0,5.699-2.699,8.399-8.399,8.399c-6.3,0-9.7-3.1-9.601-8.6c0.101-5.3,4.101-9.3,9.301-9.4
			C1354,1292.7,1357.7,1296.8,1357.6,1302.4z"/>
		<path fill="#B0ADA1" d="M726.6,1113.8c-6,0-8.899-3-8.899-9.1c0-5.8,3.399-9,9.3-8.9c4.6,0.101,8.7,4.2,8.7,8.9
			C735.7,1110,731.9,1113.8,726.6,1113.8z"/>
		<path fill="#B0ADA1" d="M699.7,1113.8c-6,0-9-2.8-9.101-8.3c0-6.7,2.7-9.6,8.9-9.7c5-0.1,9.1,4.2,9.1,9.5
			C708.6,1109.6,704.3,1113.8,699.7,1113.8z"/>
		<path fill="#B0ADA1" d="M663.6,1105c0-6.3,2.9-9.3,8.801-9.2c5,0.101,9.3,4.101,9.199,8.9c-0.1,4.2-4,9.899-9.3,9.2
			C666.6,1113.2,663.6,1110.8,663.6,1105z"/>
		<path fill="#B0ADA1" d="M1330.6,1105c0,6-3,8.9-9.199,8.9c-5.101,0-8.801-3.801-8.801-8.9c-0.1-4.8,4.101-9.1,9-9.1
			C1327.5,1095.8,1330.7,1099,1330.6,1105z"/>
		<path fill="#B0ADA1" d="M943.1,1080.8c-6.1,0-9.6-3.2-9.5-8.7c0.2-5.3,4.2-9.199,9.4-9.3c5,0,8.6,4,8.6,9.7
			C951.6,1078.1,948.9,1080.8,943.1,1080.8z"/>
		<path fill="#B0ADA1" d="M861.7,1080.8c-6,0-9.101-2.899-9.101-8.5c0-5.3,4.101-9.6,9.2-9.5c4.9,0.101,8.8,4.2,8.8,9.3
			C870.7,1077.8,867.6,1080.8,861.7,1080.8z"/>
		<path fill="#B0ADA1" d="M834.5,1080.8c-5.8,0-8.9-3.1-8.8-8.8c0.1-5.1,4-9.2,8.899-9.2c5.101,0,9.101,4.2,9.101,9.601
			C843.6,1078,840.5,1080.8,834.5,1080.8z"/>
		<path fill="#B0ADA1" d="M1303.6,1104.7c0,6.1-2.899,9.1-8.899,9.1c-5.9,0-9.101-3.2-9.101-9.1c0-4.9,4.301-9,9.2-8.9
			C1300,1095.9,1303.6,1099.6,1303.6,1104.7z"/>
		<path fill="#B0ADA1" d="M1005.6,1072.1c0,5.801-2.6,8.7-8.1,8.7c-5.9,0-10.1-3.3-9.9-8.3c0.301-6.3,3.2-9.2,9.5-9.6
			C1002.6,1062.6,1005.6,1066.2,1005.6,1072.1z"/>
		<path fill="#B0ADA1" d="M1069.6,1072.2c-0.899-6.601,4-9.2,8.301-9.2c6.3,0,9.199,3.2,9.6,9.4c0.3,5.1-3.9,8.5-9.7,8.5
			C1072.3,1080.8,1069.6,1078,1069.6,1072.2z"/>
		<path fill="#B0ADA1" d="M897.6,1104.9c0,6-3,8.899-9.1,8.899c-5.8,0-9-3.399-8.9-9.3c0.101-4.6,4.301-8.7,8.9-8.7
			C893.8,1095.7,897.7,1099.6,897.6,1104.9z"/>
		<path fill="#B0ADA1" d="M1186.7,1113.8c-6.101,0-9-2.899-9-9c0-5.3,3.899-9.1,9.2-9c4.6,0.101,8.699,4.2,8.8,8.8
			C1195.8,1110.5,1192.5,1113.8,1186.7,1113.8z"/>
		<path fill="#B0ADA1" d="M951.6,1104.8c0,6.101-2.899,9-9,9c-5.3,0-9.1-3.899-9-9.2c0.101-4.6,4.2-8.699,8.801-8.8
			C948.3,1095.7,951.6,1098.9,951.6,1104.8z"/>
		<path fill="#B0ADA1" d="M1294.9,1310.8c-6.2,0-9.301-3-9.2-8.8c0.1-5,4.1-9.1,8.899-9.2c4.801-0.1,9,4.2,9.101,8.9
			C1303.7,1307.9,1300.8,1310.8,1294.9,1310.8z"/>
		<path fill="#B0ADA1" d="M1078.1,1227.8c6.101,0,9.7,3.2,9.5,8.7c-0.1,5.1-4.399,9.3-9.5,9.3c-5.5,0-8.6-3.399-8.5-9.7
			C1069.7,1230.5,1072.4,1227.8,1078.1,1227.8z"/>
		<path fill="#B0ADA1" d="M1159.5,1227.8c6.2,0,9.1,2.8,9.2,8.9c0.1,5-4.3,9.1-9.5,9.1c-4.4,0-8.5-4.399-8.5-9
			C1150.6,1230.7,1153.5,1227.8,1159.5,1227.8z"/>
		<path fill="#B0ADA1" d="M1177.6,1236.9c0-6,2.801-9,8.301-9c6.5,0,9.6,2.699,9.699,8.3c0.101,5.3-3.899,9.6-9,9.6
			C1181.9,1245.8,1177.7,1241.6,1177.6,1236.9z"/>
		<path fill="#B0ADA1" d="M916.2,1310.8c-6.601,0-9.5-2.8-9.601-9c0-5,4.4-9.1,9.601-9c4.3,0.101,8.399,4.5,8.399,9.101
			C924.6,1307.8,921.8,1310.8,916.2,1310.8z"/>
		<path fill="#B0ADA1" d="M1295.1,1227.8c5.7,0,8.5,2.9,8.601,8.8c0,4.601-4,9-8.3,9.2c-5.2,0.2-9.7-3.899-9.7-8.899
			C1285.6,1230.7,1288.6,1227.8,1295.1,1227.8z"/>
		<path fill="#B0ADA1" d="M1349.2,1227.8c5.7,0,8.399,2.7,8.399,8.4s-3.6,9.7-8.6,9.6c-5.3-0.1-9.3-4.1-9.4-9.3
			C1339.5,1231,1343,1227.8,1349.2,1227.8z"/>
		<path fill="#B0ADA1" d="M889.2,1310.8c-6.4,0-9.5-2.8-9.5-8.5c0-5.3,4.2-9.6,9.1-9.5c4.8,0.101,8.9,4.3,8.9,9.101
			C897.6,1307.8,894.8,1310.8,889.2,1310.8z"/>
		<path fill="#B0ADA1" d="M943.1,1227.8c5.9,0,8.601,2.7,8.601,8.7c0,5-4.101,9.4-8.601,9.3c-5.1-0.1-9.3-4-9.399-8.8
			C933.5,1231,936.7,1227.8,943.1,1227.8z"/>
		<path fill="#B0ADA1" d="M888.6,1227.8c6.101,0,9,2.9,9.101,8.9c0,4.6-4,9-8.4,9.1c-5.399,0.101-9.6-4-9.6-9.399
			C879.6,1230.8,882.7,1227.8,888.6,1227.8z"/>
		<path fill="#B0ADA1" d="M780.4,1227.8c6.3,0,9.399,2.9,9.3,8.8c-0.101,5-4,9.101-8.9,9.2c-4.899,0.101-9.2-4.3-9.1-9.3
			C771.7,1230.7,774.6,1227.8,780.4,1227.8z"/>
		<path fill="#B0ADA1" d="M717.6,1236.3c0-5.7,2.7-8.5,8.301-8.5c6.3,0,10,3,9.6,8.5c-0.4,6.2-3.2,9.101-9.7,9.4
			C721.1,1245.9,717.6,1241.7,717.6,1236.3z"/>
		<path fill="#B0ADA1" d="M564,1227.8c5.8,0,8.6,2.601,8.6,8.2c0,5.9-3.3,10.1-8.399,9.8c-6.2-0.399-9.4-3.3-9.4-9.6
			C554.8,1231.9,557.5,1226.9,564,1227.8z"/>
		<path fill="#B0ADA1" d="M545.6,1236c0,5.4-3.899,9.9-8.6,9.8c-5.1-0.1-9.3-4-9.4-8.7c-0.1-6.1,3.101-9.199,9.4-9.3
			C542.8,1227.8,545.6,1230.5,545.6,1236z"/>
		<path fill="#B0ADA1" d="M726.1,1310.8c-5.699,0-8.399-2.7-8.5-8.3c0-5.7,3.601-9.7,8.601-9.7c5.3,0.101,9.3,4,9.399,9.3
			C735.8,1307.6,732.2,1310.8,726.1,1310.8z"/>
		<path fill="#B0ADA1" d="M924.6,1368c0,6-3.1,8.8-9.199,8.8c-5.101,0-8.7-3.8-8.801-9c0-4.8,4.2-9.2,9.101-9
			C920.4,1359,925.6,1361.9,924.6,1368z"/>
		<path fill="#B0ADA1" d="M897.6,1367.9c0,6.1-3,9-9.1,8.899c-5.1,0-8.8-3.7-8.9-8.8c-0.1-4.9,4-9.1,8.9-9.2
			C894.4,1358.8,897.7,1362,897.6,1367.9z"/>
		<path fill="#B0ADA1" d="M870.6,1367.7c0,6.1-2.899,9.1-9,9.1c-5.399,0-9-3.5-9-8.6c0-5.3,4.2-9.5,9.2-9.4
			C867,1358.9,870.6,1362.6,870.6,1367.7z"/>
		<path fill="#B0ADA1" d="M807.8,1376.8c-6.1,0-9.1-2.899-9.1-8.899c0-5.4,3.8-9.2,9.1-9.101c4.601,0,8.8,4.101,8.9,8.7
			C816.8,1373.3,813.5,1376.8,807.8,1376.8z"/>
		<path fill="#B0ADA1" d="M699.8,1376.8c-6.1,0-9.1-2.899-9.1-8.899c0-5.9,2.899-9.101,8.399-9.101c5.101,0,9.601,3.9,9.601,8.4
			C708.7,1372.5,704.7,1376.8,699.8,1376.8z"/>
		<path fill="#B0ADA1" d="M572.6,1368c0,6-3,8.9-9.1,8.9c-4.5,0-8.9-4.2-8.9-8.601c0-5.5,4.2-9.5,9.601-9.399
			C569.8,1358.9,572.7,1362,572.6,1368z"/>
		<path fill="#B0ADA1" d="M572.6,1302.3c0,5.7-2.699,8.2-8.199,8.601c-7.101,0.6-9.7-4.101-9.601-8.5c0.101-6.2,3.2-9.101,9.5-9.5
			C569.2,1292.6,572.6,1296.8,572.6,1302.3z"/>
		<path fill="#B0ADA1" d="M1303.6,1367.8c0,6.101-2.899,9-9,9c-5.3,0-9.1-3.899-9-9.3c0.101-4.6,4.2-8.7,8.9-8.7
			C1300.4,1358.7,1303.6,1361.9,1303.6,1367.8z"/>
		<path fill="#B0ADA1" d="M491.6,1367.7c0,6.1-2.899,9.1-8.899,9.1c-5.4,0-9.2-3.8-9.101-9.1c0-4.9,4.301-9.101,9.2-8.9
			C487.3,1359.1,492.5,1361.9,491.6,1367.7z"/>
		<path fill="#B0ADA1" d="M509.2,1376.8c-4.9-0.1-8.7-4.1-8.601-9.1c0.101-4.9,4.4-9.2,9.2-8.8c5.7,0.5,9.3,3.399,8.9,9.3
			C518.3,1374.1,515.5,1376.9,509.2,1376.8z"/>
		<path fill="#B0ADA1" d="M1357.6,1269.3c0,5-4,9.5-8.5,9.5c-4.8,0-9.399-4.6-9.5-9.399c0-4.301,4.7-9.4,8.9-9.601
			C1353.5,1259.7,1357.6,1264,1357.6,1269.3z"/>
		<path fill="#B0ADA1" d="M1132.4,1310.8c-6,0-8.7-2.6-8.7-8.5c0-5,4-9.5,8.5-9.5c5.3,0,9.6,4.101,9.5,9.101
			C1141.6,1307.8,1138.5,1310.8,1132.4,1310.8z"/>
		<path fill="#B0ADA1" d="M780.6,1161.8c5.301,0,9.2,3.8,9.101,9.101c-0.101,4.6-4.101,8.699-8.7,8.899
			c-5.8,0.101-9.2-3.1-9.3-8.899C771.6,1164.8,774.5,1161.8,780.6,1161.8z"/>
		<path fill="#B0ADA1" d="M870.6,1170.9c0,5.3-3.899,9.1-9.3,8.899c-4.6-0.1-8.7-4.3-8.7-8.899c-0.1-5.9,3.101-9.101,9-9.101
			C867.8,1161.8,870.7,1164.8,870.6,1170.9z"/>
		<path fill="#B0ADA1" d="M1150.6,1170.6c0-6,3-8.899,9.2-8.8c5,0,8.8,3.8,8.8,8.9c0,4.8-4.199,9.1-9,9.1
			C1153.7,1179.8,1150.6,1176.6,1150.6,1170.6z"/>
		<path fill="#B0ADA1" d="M1177.6,1170.4c0.101-5.9,3.101-8.7,9.4-8.601c4.9,0.101,8.6,4.101,8.6,9.2c-0.1,4.9-4.399,9.2-9.199,8.8
			C1180.6,1179.2,1176.9,1176.3,1177.6,1170.4z"/>
		<path fill="#B0ADA1" d="M1096.6,1137.7c0-5.9,3.101-8.9,8.7-8.8c5.101,0.1,9.2,4,9.3,8.899c0.101,5.101-4.199,9.101-9.6,9.101
			C1099.5,1146.8,1096.6,1143.6,1096.6,1137.7z"/>
		<path fill="#B0ADA1" d="M1330.6,1137.6c0,6-2.8,9.2-8.399,9.2c-5.4,0-9.601-3.899-9.601-9c0-4.899,4.101-8.899,9.2-9
			C1327.5,1128.7,1330.6,1131.8,1330.6,1137.6z"/>
		<path fill="#B0ADA1" d="M1357.6,1137.6c0,6-2.899,9.101-8.399,9.2c-5.4,0-9.601-4-9.601-9.1c0-4.9,4.101-8.8,9.2-8.9
			C1354.6,1128.7,1357.6,1131.8,1357.6,1137.6z"/>
		<path fill="#B0ADA1" d="M1186.6,1310.8c-6,0-8.899-3-8.899-9.1c0-4.601,4.2-8.9,8.5-8.9c5.5,0,9.5,4.101,9.5,9.601
			C1195.6,1307.9,1192.5,1310.8,1186.6,1310.8z"/>
		<path fill="#B0ADA1" d="M717.6,1203.8c0-6.1,2.9-9,9-9c5.301,0,9.101,3.9,9,9.3c-0.1,4.601-4.199,8.7-8.899,8.7
			C720.9,1212.9,717.6,1209.7,717.6,1203.8z"/>
		<path fill="#B0ADA1" d="M780.6,1194.8c5.9,0,9.101,3.2,9.101,9.101c0,4.8-4.3,9-9.2,8.899c-5.1-0.1-8.8-3.8-8.8-8.899
			C771.6,1197.8,774.5,1194.8,780.6,1194.8z"/>
		<path fill="#B0ADA1" d="M834.4,1194.8c6,0,9.199,2.8,9.199,8.4c0,5.399-3.899,9.6-9,9.6c-4.899,0-8.899-4.1-9-9.2
			C825.5,1197.9,828.6,1194.9,834.4,1194.8z"/>
		<path fill="#B0ADA1" d="M888.9,1194.8c6,0,8.8,3.101,8.8,9.2c0,5.1-3.8,8.7-9,8.8c-4.8,0-9.2-4.2-9-9.1
			C879.9,1199.1,882.7,1193.9,888.9,1194.8z"/>
		<path fill="#B0ADA1" d="M915.4,1194.8c6.199-0.1,9.199,2.8,9.199,8.8c0,5.4-3.6,9.2-9,9.2c-4.8,0-9-4.3-9-9.1
			C906.7,1198.1,909.8,1194.9,915.4,1194.8z"/>
		<path fill="#B0ADA1" d="M942.7,1194.8c6,0,8.899,3,8.899,9.101c0,5.8-3.399,9-9.3,8.899c-4.6-0.1-8.7-4.3-8.7-8.899
			C933.6,1198.6,937.4,1194.8,942.7,1194.8z"/>
		<path fill="#B0ADA1" d="M1078.1,1194.8c5,0,9.5,3.9,9.5,8.4c0,5.3-4.1,9.8-9.1,9.5s-9.6-3-9-9.7
			C1070,1197.5,1072.4,1194.8,1078.1,1194.8z"/>
		<path fill="#B0ADA1" d="M1150.6,1203.9c0-6.101,2.9-9.101,8.9-9.101c5.9,0,9.1,3.2,9.1,9.101c0,4.8-4.3,9-9.199,8.899
			C1154.4,1212.7,1150.7,1209,1150.6,1203.9z"/>
		<path fill="#B0ADA1" d="M1240.9,1194.8c5.8,0.101,8.899,3.101,8.8,8.8c-0.101,5.101-4.101,9.2-9,9.2c-5.101,0-9.101-4.2-9-9.6
			C1231.7,1197.6,1234.9,1194.8,1240.9,1194.8z"/>
		<path fill="#B0ADA1" d="M1294.4,1194.8c6.199,0,9.199,2.8,9.199,8.8c0,5.4-3.699,9.2-9,9.2c-4.8,0-9-4.3-9-9.1
			C1285.7,1198,1288.9,1194.9,1294.4,1194.8z"/>
		<path fill="#B0ADA1" d="M1357.6,1203.9c0,5.8-3.5,9-9.3,8.899c-4.6-0.1-8.7-4.3-8.7-8.899c-0.1-5.301,3.801-9.101,9.101-9.101
			C1354.8,1194.8,1357.7,1197.8,1357.6,1203.9z"/>
		<path fill="#B0ADA1" d="M663.6,1203.3c0-5.899,2.7-8.5,8.801-8.5c4.899,0,9,4,9.199,8.8c0.2,4.7-4.199,9.2-8.899,9.2
			C666.5,1212.8,663.6,1209.8,663.6,1203.3z"/>
		<path fill="#B0ADA1" d="M1150.6,841.6c0-5.1,3.801-8.699,9-8.8c4.801,0,9.2,4.2,9,9.101c-0.199,4.6-3,9.6-9.199,9
			C1153.5,850.4,1150.6,847.8,1150.6,841.6z"/>
		<path fill="#B0ADA1" d="M1132.9,850.8c-6.2,0-9.2-2.8-9.2-8.8c0-5.8,3.1-9.2,8.5-9.2c5.2,0,9.6,4.101,9.5,9.101
			C1141.6,847.6,1138.4,850.8,1132.9,850.8z"/>
		<path fill="#B0ADA1" d="M1051.2,850.8c-5,0-9.5-4-9.5-8.5s5-9.5,9.5-9.5c4.7,0,9.3,4.4,9.399,8.9
			C1060.8,846.6,1056.4,850.8,1051.2,850.8z"/>
		<path fill="#B0ADA1" d="M1024.2,850.8c-5.3,0-9.601-4.1-9.5-9c0.1-4.5,4.7-8.899,9.399-9c4.5-0.1,9.5,4.8,9.601,9.4
			C1033.7,846.7,1029.2,850.8,1024.2,850.8z"/>
		<path fill="#B0ADA1" d="M978.6,842.3c0,5.7-2.699,8.5-8.3,8.5c-5.8,0-9.8-3.5-9.7-8.5c0-5.3,3.9-9.3,9.2-9.5
			C975.4,832.6,978.6,836.1,978.6,842.3z"/>
		<path fill="#B0ADA1" d="M915.8,850.8c-6,0-9.2-3.1-9.2-9c0-4.8,4.301-9,9.101-9c5.1,0.101,8.899,3.8,8.899,8.8
			C924.7,847.8,921.8,850.8,915.8,850.8z"/>
		<path fill="#B0ADA1" d="M834.7,850.8c-6,0-9.101-2.899-9.101-8.5c0-5.3,4.101-9.6,9.2-9.5c4.9,0.101,8.8,4.2,8.8,9.3
			C843.7,847.8,840.6,850.8,834.7,850.8z"/>
		<path fill="#B0ADA1" d="M807.7,850.8c-6,0-9.101-2.899-9.101-8.5c0-5.3,4.101-9.6,9.101-9.5c4.899,0.101,8.8,4.2,8.8,9.3
			C816.7,847.8,813.6,850.8,807.7,850.8z"/>
		<path fill="#B0ADA1" d="M1159.7,883.8c-6.101,0-9-2.899-9-9c0-5.899,3.2-9.1,9.1-9c4.601,0.101,8.7,4.101,8.9,8.7
			C1168.8,879.9,1165,883.8,1159.7,883.8z"/>
		<path fill="#B0ADA1" d="M1069.6,875.3c0-6.399,2.801-9.5,8.601-9.5c5.2,0,9.6,4.3,9.399,9.2c-0.199,4.8-4.3,8.8-9.199,8.8
			C1072.6,883.8,1069.6,880.9,1069.6,875.3z"/>
		<path fill="#B0ADA1" d="M1005.6,875.2c0,5.7-2.899,8.5-8.8,8.6c-4.8,0-9-3.899-9.2-8.8c-0.199-4.9,4.2-9.2,9.4-9.2
			C1002.8,865.8,1005.6,868.9,1005.6,875.2z"/>
		<path fill="#B0ADA1" d="M924.6,874.7c0,6.1-2.899,9.1-8.899,9.1c-5.3,0-9.2-3.8-9.101-9.1c0.101-4.601,4.101-8.8,8.7-8.9
			C921.2,865.7,924.6,868.9,924.6,874.7z"/>
		<path fill="#B0ADA1" d="M897.6,874.7c0,6.1-2.899,9.1-8.899,9.1c-5.9,0-9.101-3.2-9.101-9.1c0-4.8,4.301-9,9.2-8.9
			C894,865.9,897.6,869.6,897.6,874.7z"/>
		<path fill="#B0ADA1" d="M834.9,883.8c-6,0-9.2-2.8-9.2-8.399c0-5.4,3.899-9.601,9-9.601c4.899,0,8.899,4.101,9,9.2
			C843.7,880.7,840.7,883.8,834.9,883.8z"/>
		<path fill="#B0ADA1" d="M807.7,883.8c-6.101,0-9-2.899-9-9c0-5.3,3.899-9.1,9.2-9c4.6,0.101,8.699,4.2,8.8,8.8
			C816.8,880.5,813.5,883.8,807.7,883.8z"/>
		<path fill="#B0ADA1" d="M780.7,883.8c-6.101,0-9-2.899-9-9c0-5.3,3.899-9.1,9.2-9c4.6,0.101,8.699,4.2,8.8,8.8
			C789.7,880.5,786.5,883.8,780.7,883.8z"/>
		<path fill="#B0ADA1" d="M1213.6,1343.8c-5.899,0-9-3-9-8.6c0-5.101,3.9-9.3,8.801-9.4c5.1-0.1,9.199,4.101,9.199,9.5
			C1222.7,1340.9,1219.6,1343.8,1213.6,1343.8z"/>
		<path fill="#B0ADA1" d="M1240.8,1343.8c-6,0-9.1-2.899-9.1-8.399c0-5.4,4-9.601,9.1-9.601c4.9,0.101,8.8,4.101,8.9,9.3
			C1249.7,1340.7,1246.6,1343.8,1240.8,1343.8z"/>
		<path fill="#B0ADA1" d="M1303.6,1335c0,6-3,8.9-9.199,8.8c-5.601,0-8.7-3.2-8.801-8.899c-0.1-4.801,4.101-9.101,9-9.101
			C1300,1325.8,1303.7,1329.6,1303.6,1335z"/>
		<path fill="#B0ADA1" d="M1087.6,776.3c0,4.3-4.8,9.4-8.899,9.5c-5.7,0.2-9.101-3.399-9.101-9.6c0-4.8,4-9.3,8.101-9.3
			C1082.8,766.9,1087.6,771.5,1087.6,776.3z"/>
		<path fill="#B0ADA1" d="M1050.7,766.9c4.899,0,9.899,4.699,9.899,9.399c0,4.2-4.8,9.4-8.8,9.5c-4.6,0.101-9.8-4.399-10-8.8
			C1041.5,772.7,1046.6,766.9,1050.7,766.9z"/>
		<path fill="#B0ADA1" d="M870.6,743.1c0.101,5.4-3.899,9.7-9,9.7c-4.899,0-8.899-4-9-9.2c-0.1-5.699,3-8.8,8.801-8.8
			C867.4,734.8,870.6,737.6,870.6,743.1z"/>
		<path fill="#B0ADA1" d="M1078.1,734.8c5.7,0,9.7,3.601,9.601,8.7c-0.101,5.3-4.101,9.2-9.4,9.3c-5.5,0.101-8.6-3.399-8.6-9.6
			C1069.7,737.5,1072.4,734.8,1078.1,734.8z"/>
		<path fill="#B0ADA1" d="M1024.2,734.8c5,0,9.5,4.2,9.399,8.601c-0.1,4.6-5.1,9.399-9.6,9.399c-4.8-0.1-9.3-4.399-9.3-9
			C1014.6,738.8,1018.9,734.8,1024.2,734.8z"/>
		<path fill="#B0ADA1" d="M1024.2,817.8c-6,0-9.7-3.399-9.5-8.7c0.2-4.6,5.1-9.399,9.5-9.3c4.5,0,9.399,5,9.399,9.5
			S1029.2,817.8,1024.2,817.8z"/>
		<path fill="#B0ADA1" d="M889.2,817.8c-6.4,0-9.5-2.8-9.5-8.5c0-5.3,4.2-9.6,9.1-9.5c4.8,0.101,8.9,4.3,8.9,9.101
			C897.6,814.8,894.8,817.8,889.2,817.8z"/>
		<path fill="#B0ADA1" d="M726.6,1343.8c-6.1,0-9-2.899-9-9c0-5.8,3.301-9.1,9.2-9c4.601,0.101,8.7,4.2,8.8,8.8
			C735.7,1339.9,731.9,1343.8,726.6,1343.8z"/>
		<path fill="#B0ADA1" d="M518.6,1335c0,6-3,8.8-9.199,8.8c-5.601,0-8.7-3.2-8.801-8.899c0-4.801,4.2-9.101,9-9.101
			C515,1325.8,518.7,1329.6,518.6,1335z"/>
		<path fill="#B0ADA1" d="M599.6,1335.1c0,6-2.6,8.7-8.5,8.7c-5,0-9.5-4-9.5-8.5c0-5.3,4.101-9.6,9.101-9.5
			C596.6,1325.9,599.6,1329,599.6,1335.1z"/>
		<path fill="#B0ADA1" d="M780.6,1343.8c-6,0-8.899-3-8.899-9.1c0-5.101,3.7-8.8,8.8-8.9c4.9-0.1,9.1,4.101,9.2,8.9
			C789.7,1340.6,786.5,1343.8,780.6,1343.8z"/>
		<path fill="#B0ADA1" d="M834.6,1343.8c-5.899,0-9-3-8.899-8.7c0.1-5.199,3.899-9.199,8.8-9.3c5.1-0.1,9.2,4.2,9.2,9.5
			C843.6,1340.9,840.5,1343.8,834.6,1343.8z"/>
		<path fill="#B0ADA1" d="M888.4,701.8c6.199-0.1,9.199,2.8,9.199,8.8c0,5.4-3.699,9.2-9,9.2c-4.8,0-9-4.3-9-9.1
			C879.7,705,882.9,701.9,888.4,701.8z"/>
		<path fill="#B0ADA1" d="M924.6,710.9c0,5.8-3.399,9.1-9.199,8.899c-4.601-0.1-8.7-4.2-8.801-8.8c-0.1-5.3,3.801-9.2,9.101-9.2
			C921.8,701.8,924.7,704.8,924.6,710.9z"/>
		<path fill="#B0ADA1" d="M951.6,710.9c0,5.8-3.5,9-9.3,8.899c-4.6-0.1-8.7-4.3-8.7-8.899c-0.1-5.301,3.801-9.101,9.101-9.101
			C948.8,701.8,951.7,704.8,951.6,710.9z"/>
		<path fill="#B0ADA1" d="M978.6,710.6c0,6.2-2.8,9.101-8.8,9.2c-5,0.101-9.1-4.2-9.2-9.399c0-4.601,4.4-8.601,9.4-8.601
			C975.8,701.9,978.7,704.8,978.6,710.6z"/>
		<path fill="#B0ADA1" d="M1005.6,710.1c0,6.5-2.699,9.601-8.3,9.7c-5.3,0.101-9.6-3.899-9.6-9c0-4.8,4.2-9,8.899-9
			C1002.6,701.8,1005.6,704.6,1005.6,710.1z"/>
		<path fill="#B0ADA1" d="M888.8,1343.8c-6,0-9.2-3.1-9.2-9c0-4.8,4.301-9,9.101-9c5.1,0.101,8.899,3.8,8.899,8.8
			C897.7,1340.8,894.8,1343.8,888.8,1343.8z"/>
		<path fill="#B0ADA1" d="M1186.2,997.8c6.399,0,9.5,2.8,9.5,8.5c0,5.3-4.2,9.601-9.2,9.5c-4.8-0.1-8.9-4.3-8.8-9.1
			C1177.7,1000.7,1180.5,997.8,1186.2,997.8z"/>
		<path fill="#B0ADA1" d="M1159.2,997.8c6.399,0,9.5,2.8,9.5,8.601c0,5.199-4.3,9.6-9.2,9.399c-4.8-0.1-8.8-4.3-8.8-9.1
			C1150.7,1000.7,1153.5,997.8,1159.2,997.8z"/>
		<path fill="#B0ADA1" d="M1024.2,997.8c5,0,9.399,4,9.5,8.5c0,4.5-4.9,9.4-9.4,9.5c-4.5,0.101-9.8-5-9.6-9.3
			C1014.9,1001.2,1018.6,997.8,1024.2,997.8z"/>
		<path fill="#B0ADA1" d="M924.6,1007c0,4.5-4.3,8.9-8.699,8.8c-5.301-0.1-9.601-4.3-9.301-9.3c0.5-7.3,4.4-9.1,9.801-8.8
			C921.9,998.1,924.7,1000.9,924.6,1007z"/>
		<path fill="#B0ADA1" d="M889.1,997.8c5.7,0,8.5,2.9,8.5,8.9c0,4.8-4,9-8.899,9.1c-5,0.101-9.101-4.2-9.101-9.5
			C879.6,1000.6,882.8,997.8,889.1,997.8z"/>
		<path fill="#B0ADA1" d="M780.2,997.8c6.399,0,9.5,2.8,9.5,8.5c0,5.3-4.2,9.601-9.2,9.5c-4.8-0.1-8.9-4.3-8.8-9.1
			C771.7,1000.7,774.5,997.8,780.2,997.8z"/>
		<path fill="#B0ADA1" d="M1321.7,964.8c6.1,0,9,2.9,9,9c0,5.3-3.9,9.101-9.3,9c-4.601-0.1-8.7-4.2-8.7-8.899
			C1312.6,968,1315.8,964.8,1321.7,964.8z"/>
		<path fill="#B0ADA1" d="M1240.8,964.8c5.9,0,8.9,3.101,8.8,8.7c-0.1,5.1-4,9.2-8.899,9.3c-5.101,0.101-9.101-4.2-9.101-9.6
			C1231.7,967.7,1234.8,964.8,1240.8,964.8z"/>
		<path fill="#B0ADA1" d="M1213.4,964.8c6,0,9.199,2.8,9.199,8.4c0,5.399-3.899,9.6-9,9.6c-4.899,0-8.899-4.1-9-9.2
			C1204.5,967.9,1207.6,964.9,1213.4,964.8z"/>
		<path fill="#B0ADA1" d="M1150.6,973.9c0-6.101,2.9-9.101,9-9.101c5.9,0,9.101,3.2,9,9.101c-0.1,4.899-4.3,9-9.199,8.899
			C1154.3,982.7,1150.7,979,1150.6,973.9z"/>
		<path fill="#B0ADA1" d="M1457.4,1029.9c4.399,0.199,9.3,5,9.199,9.1c-0.1,4.8-4.699,9.8-9.1,9.8c-4.5,0-10-5.2-9.8-9.2
			C1448,1034.4,1452.8,1029.6,1457.4,1029.9z"/>
		<path fill="#B0ADA1" d="M1357.6,1039.3c0,5-4,9.5-8.5,9.5s-9.5-5-9.5-9.5c0-4.7,4.4-9.3,8.9-9.399
			C1353.5,1029.7,1357.6,1034,1357.6,1039.3z"/>
		<path fill="#B0ADA1" d="M1123.6,1039c0-4.9,4-9,8.801-9.1c4.699-0.101,9.199,4.6,9.199,9.5c0,4.8-4.1,9.1-8.899,9.3
			C1127.7,1048.9,1123.6,1044.6,1123.6,1039z"/>
		<path fill="#B0ADA1" d="M1384.6,1006.7c0,5.8-3.199,9.2-8.6,9.1c-5-0.1-9.6-4.399-9.3-9.399c0.3-4.5,2.5-9.4,10-8.7
			C1382.1,998.2,1384.7,1000.8,1384.6,1006.7z"/>
		<path fill="#B0ADA1" d="M1303.6,1006.8c0,4.8-4.199,9-9,9c-5,0-9.1-4.3-9-9.6c0-5.7,3.2-8.4,9.601-8.4
			C1300.8,997.8,1303.6,1000.9,1303.6,1006.8z"/>
		<path fill="#B0ADA1" d="M690.6,941c0-6.1,2.801-9.1,8.801-9.2c4.6,0,9,3.9,9.199,8.3c0.2,5.4-3.899,9.7-9.3,9.7
			C693.7,949.9,690.7,946.8,690.6,941z"/>
		<path fill="#B0ADA1" d="M924.6,908c0,5.8-3.1,8.9-8.8,8.8c-5.1-0.1-9.2-4-9.2-8.899c0-5.101,4.2-9.101,9.601-9.101
			C921.8,898.8,924.7,902,924.6,908z"/>
		<path fill="#B0ADA1" d="M897.6,908.1c-0.1,5.801-3.199,8.9-8.8,8.801c-5.1-0.101-9.2-4.101-9.2-9c0-5.101,4.2-9.101,9.7-9
			C894.8,898.9,897.7,902,897.6,908.1z"/>
		<path fill="#B0ADA1" d="M1123.6,907.7c0-5.9,3.101-8.9,8.7-8.9c5.101,0.101,9.2,4,9.3,8.9c0.101,5.1-4.199,9.1-9.6,9.1
			C1126.5,916.8,1123.6,913.6,1123.6,907.7z"/>
		<path fill="#B0ADA1" d="M1096.6,908c0-6,2.9-9.1,8.4-9.1c5.4,0,9.6,4,9.6,9.1c-0.1,4.9-4.1,8.8-9.3,8.9
			C1099.7,916.9,1096.7,913.8,1096.6,908z"/>
		<path fill="#B0ADA1" d="M951.6,907.9c0,5.899-3,9-8.6,8.899c-5.1,0-9.3-3.899-9.4-8.8c-0.1-5.1,4.101-9.2,9.5-9.2
			C948.7,898.8,951.7,901.9,951.6,907.9z"/>
		<path fill="#B0ADA1" d="M978.6,973.6c0,5.9-3.1,9.5-8.5,9.2c-6.199-0.399-9.1-3.3-9.399-9.6c-0.2-5,4-8.4,9.899-8.3
			C976,964.9,978.7,967.7,978.6,973.6z"/>
		<path fill="#B0ADA1" d="M915.5,964.8c6.1,0,9.1,2.9,9.1,8.9c0,5.3-3.8,9.2-9.1,9.1c-4.6-0.1-8.7-4.1-8.9-8.7
			C906.5,968.2,909.8,964.8,915.5,964.8z"/>
		<path fill="#B0ADA1" d="M897.6,973.7c0,4.899-3.899,9-8.8,9.1c-4.899,0.101-9.1-4-9.2-8.899c-0.1-6,2.9-9.101,8.9-9.101
			C894.6,964.8,897.6,967.7,897.6,973.7z"/>
		<path fill="#B0ADA1" d="M861.4,964.8c6-0.1,9.199,2.8,9.199,8.3c0.101,5.4-3.899,9.7-9,9.7c-4.899,0-8.899-4-9-9.2
			C852.5,968,855.6,964.9,861.4,964.8z"/>
		<path fill="#B0ADA1" d="M843.6,973.1c0.101,5.4-3.899,9.7-9,9.7c-4.899,0-8.899-4-9-9.1c-0.1-5.7,2.9-8.8,8.7-8.9
			C840.4,964.7,843.6,967.6,843.6,973.1z"/>
		<path fill="#B0ADA1" d="M744.6,973.6c0-6,3-8.8,9.2-8.8c5.601,0,8.7,3.2,8.8,8.9c0,4.8-4.199,9.1-9,9.1
			C748.3,982.8,744.6,979,744.6,973.6z"/>
		<path fill="#B0ADA1" d="M726.7,964.8c5.6,0,9.1,3.4,8.899,8.8c-0.199,5.101-4.1,9.2-8.899,9.2c-5.9,0.101-9.101-3.1-9.101-9.1
			C717.7,967.7,720.6,964.8,726.7,964.8z"/>
		<path fill="#B0ADA1" d="M1384.6,940.6c0,6.301-2.899,9.301-8.8,9.2c-5-0.1-9.3-4.1-9.2-8.899c0.101-4.2,4.101-9.9,9.301-9.2
			C1381.7,932.4,1384.7,934.8,1384.6,940.6z"/>
		<path fill="#B0ADA1" d="M1330.6,941c0.9,5.7-4.399,8.6-8.8,8.8c-4.899,0.2-9.1-4-9.2-8.899c0-5.301,3.801-9.101,9.101-9.101
			C1327.8,931.8,1330.7,934.8,1330.6,941z"/>
		<path fill="#B0ADA1" d="M744.6,940.7c0-6.101,3-9,9.101-8.9c5.1,0,8.8,3.7,8.899,8.8c0.101,4.9-4.1,9.101-8.899,9.2
			C747.8,949.9,744.6,946.7,744.6,940.7z"/>
		<path fill="#B0ADA1" d="M1303.6,940.6c1,6.2-4.399,9-9,9.2c-4.8,0.2-9.1-4.2-9-9c0-5.1,3.7-8.899,8.801-8.899
			C1300.6,931.8,1303.6,934.6,1303.6,940.6z"/>
		<path fill="#B0ADA1" d="M1276.6,941.2c-0.1,4.899-4.1,8.7-9.1,8.6c-4.9-0.1-9.2-4.399-8.8-9.2c0.5-5.699,3.399-9.3,9.3-8.899
			C1273.9,932.2,1276.7,934.9,1276.6,941.2z"/>
		<path fill="#B0ADA1" d="M771.6,940.6c0-6,3.101-8.8,9.2-8.8c5.101,0,8.7,3.8,8.8,9c0,4.8-4.199,9.2-9.1,9
			C775.9,949.6,770.7,946.7,771.6,940.6z"/>
		<path fill="#B0ADA1" d="M1177.6,940.9c0-6.101,2.9-9.101,9-9.101c5.9,0,9.101,3.2,9,9.101c-0.1,4.899-4.3,9-9.199,8.899
			C1181.3,949.7,1177.7,946,1177.6,940.9z"/>
		<path fill="#B0ADA1" d="M1005.6,940.3c0,6.4-2.8,9.5-8.5,9.5c-5.3,0-9.6-4.2-9.5-9.1c0.101-4.8,4.301-8.9,9.101-8.9
			C1002.7,931.8,1005.6,934.7,1005.6,940.3z"/>
		<path fill="#B0ADA1" d="M924.6,940.7c0,6-3.1,9.2-9,9.2c-4.8,0-9-4.301-9-9.101c0.101-5.1,3.801-8.899,8.801-8.899
			C921.6,931.8,924.6,934.7,924.6,940.7z"/>
		<path fill="#B0ADA1" d="M717.6,941c0-6.2,2.801-9.1,8.801-9.2c4.899,0,9.1,3.9,9.199,8.7c0.101,4.9-4,9.2-8.8,9.3
			C720.8,949.9,717.7,946.9,717.6,941z"/>
		<path fill="#B0ADA1" d="M1267.7,1376.8c-5.3,0-9.101-3.8-9.101-9.1c0.101-4.9,4.301-9,9.2-8.9c5.101,0.101,8.8,3.8,8.8,8.9
			C1276.7,1373.8,1273.8,1376.8,1267.7,1376.8z"/>
		<path fill="#B0ADA1" d="M663.6,1368c0-6.1,2.801-9.1,8.4-9.2c5.3,0,9.7,4.2,9.6,9.101c-0.1,4.899-4.3,8.8-9.3,8.899
			C666.6,1376.9,663.6,1373.8,663.6,1368z"/>
		<path fill="#B0ADA1" d="M599.6,1367.7c0,6-2.899,9.1-8.399,9.2c-5.2,0-9.601-4-9.601-8.601c0-5.3,4-9.3,9.301-9.399
			C596.6,1358.7,599.6,1361.8,599.6,1367.7z"/>
		<path fill="#B0ADA1" d="M951.6,776.7c0,4.899-4.1,9.1-8.899,9.1c-4.7,0-9.3-4.899-9.101-9.8c0.2-4.4,5.2-9.6,9.301-9
			C948.3,767.8,952.8,771,951.6,776.7z"/>
		<path fill="#B0ADA1" d="M1150.6,743.7c0-6,3-8.9,9.2-8.9c5.601,0,8.7,3.3,8.8,9c0,4.9-4.3,9.101-9.1,9
			C1154.6,752.7,1150.6,748.6,1150.6,743.7z"/>
		<path fill="#B0ADA1" d="M1051.5,734.8c4.9,0,9.1,4.101,9.2,8.9c0.1,4.7-4.9,9.3-9.7,9.1c-4.4-0.2-9.3-5.1-9.1-9.2
			C1042,738.4,1046,734.8,1051.5,734.8z"/>
		<path fill="#B0ADA1" d="M897.6,744c0,4.6-4.399,8.9-8.699,8.8c-5.101-0.2-9.2-4.1-9.301-9c0-6.1,3-9.1,9.101-9
			C894.8,734.8,897.7,737.8,897.6,744z"/>
		<path fill="#B0ADA1" d="M1096.6,776.4c0-4.9,3.801-9.4,8-9.5c5-0.101,10,4.6,10,9.399c0,4.7-4.3,9.3-8.899,9.5
			C1100.9,786,1096.7,781.6,1096.6,776.4z"/>
		<path fill="#B0ADA1" d="M978.6,776.5c0,5.2-4.399,9.6-9.199,9.3c-4.7-0.2-8.801-4.7-8.801-9.6c0-4.3,5-9.7,9.101-9.2
			C975.1,767.6,979.8,771.1,978.6,776.5z"/>
		<path fill="#B0ADA1" d="M1005.6,645.4c0,5.399-3.1,8.399-8.6,8.399c-5.1,0-9.2-3.899-9.4-8.8c-0.199-5,4.2-9.2,9.5-9.2
			C1002.9,635.8,1005.7,638.9,1005.6,645.4z"/>
		<path fill="#B0ADA1" d="M1005.6,677.5c0,6.1-2.8,9.2-8.3,9.3c-5.399,0.101-9.7-4-9.7-9s4.4-9,9.7-9
			C1002.8,668.9,1005.7,672,1005.6,677.5z"/>
		<path fill="#B0ADA1" d="M978.6,908c0,5.8-3.1,8.9-8.8,8.8c-4.8-0.1-9.2-4.1-9.2-8.5c0-5.5,4.101-9.6,9.601-9.5
			C975.8,898.9,978.7,902,978.6,908z"/>
		<path fill="#B0ADA1" d="M663.6,907.9c0-6,2.9-9.101,8.5-9.101c5.301,0,9.7,4.2,9.5,9.2c-0.199,4.9-4.3,8.8-9.399,8.8
			C666.6,916.8,663.6,913.8,663.6,907.9z"/>
		<path fill="#B0ADA1" d="M1132.5,883.8c-6,0-8.9-3-8.9-9.2c0-5.6,3.2-8.8,8.9-8.8c4.9,0,9.1,4.2,9.1,9.101
			C1141.6,879.8,1137.5,883.8,1132.5,883.8z"/>
		<path fill="#B0ADA1" d="M978.6,874.6c0,6.2-2.8,9.2-8.899,9.2c-4.7,0-9.101-4.1-9.101-8.399c0-5.301,4.101-9.601,9.2-9.601
			C975.7,865.9,978.6,868.8,978.6,874.6z"/>
		<path fill="#B0ADA1" d="M951.6,874.8c0,6.101-2.899,9.101-9,9c-4.899,0-9-4.1-9-9.1c0-4.9,4.301-9.2,9.2-8.9
			C947.6,866.1,952.5,869,951.6,874.8z"/>
		<path fill="#B0ADA1" d="M1412.3,973.2c0.101,4.899-4.3,9.5-9.1,9.6c-5,0-9.3-3.8-9.5-8.7c-0.3-4.699,4-9.199,8.7-9.3
			C1408.2,964.7,1412.3,968.2,1412.3,973.2z"/>
		<path fill="#B0ADA1" d="M1376.2,964.8c5.899,0,8.5,2.7,8.5,8.8c0,5.9-3,9.2-8.4,9.2c-5.399,0.101-9.6-4.1-9.6-9.6
			C1366.7,968.7,1371.2,964.8,1376.2,964.8z"/>
		<path fill="#B0ADA1" d="M1303.6,973.7c0,4.899-4,9-8.899,9.1c-4.9,0-9.101-4.2-9.101-9.1c0.101-5.7,3.2-8.9,8.801-8.9
			C1300.7,964.8,1303.6,967.7,1303.6,973.7z"/>
		<path fill="#B0ADA1" d="M1069.6,973.4c0-5.9,2.7-8.601,8.601-8.601c5,0,9.7,4,9.3,8.601c-0.5,6.1-3.2,9.3-9.6,9.3
			C1073.5,982.6,1068.8,979.9,1069.6,973.4z"/>
		<path fill="#B0ADA1" d="M1051.3,964.8c5.2,0,9.601,4.3,9.3,9.2c-0.199,4.7-4.699,8.8-9.5,8.8c-4.3,0-9.699-4.899-9.199-9
			C1042.4,968.4,1046,963.6,1051.3,964.8z"/>
		<path fill="#B0ADA1" d="M780.7,964.8c5.7-0.899,8.6,4.101,8.899,8.8c0.301,4.9-4,9.2-8.899,9.2c-4.9,0-9-4.1-9-9
			C771.6,967.7,774.6,964.8,780.7,964.8z"/>
		<path fill="#B0ADA1" d="M672.5,964.8c4.9,0,9.3,4.3,9.1,8.8c-0.199,5.301-4.199,9.2-9.5,9.2c-5.5,0-8.6-3.399-8.5-9.6
			C663.7,967.3,666.4,964.8,672.5,964.8z"/>
		<path fill="#B0ADA1" d="M897.6,940.9c0,5.1-3.699,8.8-8.8,8.899c-4.899,0.101-9.1-4.1-9.2-8.899c0-5.301,3.801-9.101,9.101-9.101
			C894.8,931.8,897.7,934.8,897.6,940.9z"/>
		<path fill="#B0ADA1" d="M663.6,940.3c0-5.5,3-8.5,8.5-8.5c5.301,0,9.7,4.2,9.5,9.2c-0.199,4.9-4.3,8.8-9.399,8.8
			C666.5,949.8,663.6,946.7,663.6,940.3z"/>
		<path fill="#B0ADA1" d="M1213,817.8c-5.4,0-8.4-3.1-8.3-8.6c0-5.101,4-9.2,8.8-9.4c5-0.1,9.2,4.2,9.2,9.5
			C1222.6,815.1,1219.5,817.8,1213,817.8z"/>
		<path fill="#B0ADA1" d="M1186,817.8c-5.4,0-8.4-3.1-8.3-8.6c0-5.101,4-9.2,8.8-9.4c5-0.1,9.2,4.2,9.2,9.5
			C1195.6,815.1,1192.5,817.8,1186,817.8z"/>
		<path fill="#B0ADA1" d="M1159,817.8c-5.5,0-8.3-3.1-8.3-9c0-4.8,4.2-9,9-8.899c4.8,0,9,4.3,9,9.1
			C1168.6,815.1,1165.6,817.8,1159,817.8z"/>
		<path fill="#B0ADA1" d="M1132,817.8c-5.9,0-8.4-2.7-8.4-8.8c0-4.7,4-9.3,8.301-9.1c6.5,0.399,9.199,3.3,9.6,9.399
			C1142,814.7,1138.3,817.8,1132,817.8z"/>
		<path fill="#B0ADA1" d="M1077.8,817.8c-5.5,0-8.2-2.8-8.2-8.6c0-6.101,3.301-9.601,8.7-9.4c4.5,0.2,9.7,5.2,9.2,9.601
			C1087,814.4,1084.7,818.6,1077.8,817.8z"/>
		<path fill="#B0ADA1" d="M915.9,817.8c-6.2,0-9.101-2.8-9.2-8.8c-0.101-4.8,4.1-9.1,8.899-9.2c4.801,0,9,4.2,9.101,8.9
			C924.7,814.9,921.8,817.8,915.9,817.8z"/>
		<path fill="#B0ADA1" d="M861.8,817.8c-6,0-9.1-2.899-9.1-8.5c0-5.3,4.2-9.7,9.2-9.5c4.899,0.2,8.8,4.3,8.8,9.4
			C870.7,814.9,867.6,817.8,861.8,817.8z"/>
		<path fill="#B0ADA1" d="M835,817.8c-6.4,0-9.5-2.899-9.4-8.7c0.101-5,4.101-9.199,8.9-9.3c5-0.1,9.1,4.3,9.1,9.601
			C843.6,814.9,840.6,817.8,835,817.8z"/>
		<path fill="#B0ADA1" d="M1005.6,842.1c0,6-2.6,8.7-8.5,8.7c-5,0-9.699-4-9.399-8.5c0.5-6.2,3.2-9.1,9.6-9.399
			C1002.7,832.6,1005.6,836.2,1005.6,842.1z"/>
		<path fill="#B0ADA1" d="M1078.3,587.8c-6,0-8.3-2.7-8.7-8.6c-0.399-6.601,3.9-8.8,8.4-9.3c4.7-0.5,10.1,4.899,9.6,9.6
			C1087.1,583.8,1084.8,588.7,1078.3,587.8z"/>
		<path fill="#B0ADA1" d="M1051.2,587.8c-5,0-9.5-4-9.5-8.5s5-9.5,9.5-9.5c4.3,0,9.399,4.8,9.5,8.9
			C1060.7,583.7,1056.4,587.8,1051.2,587.8z"/>
		<path fill="#B0ADA1" d="M599.6,1170.6c0,6.101-2.8,9.2-8.399,9.2c-5.3,0-9.7-4-9.601-9.1c0.101-5.101,4.4-9,9.801-8.9
			C596.8,1161.9,599.7,1165,599.6,1170.6z"/>
		<path fill="#B0ADA1" d="M663.6,1170.1c0-5.399,3.101-8.399,8.601-8.3c5.1,0,9.2,4,9.3,8.9c0.1,5-4.2,9.2-9.6,9.1
			C666.3,1179.8,663.6,1176.7,663.6,1170.1z"/>
		<path fill="#B0ADA1" d="M690.6,1170.9c0-6,2.9-9.101,8.5-9.101c5.101,0,9.601,4,9.5,8.601c-0.1,5.3-4.1,9.3-9.3,9.399
			C693.7,1179.9,690.7,1176.8,690.6,1170.9z"/>
		<path fill="#B0ADA1" d="M1005.6,1170.4c0,6.399-2.899,9.5-8.699,9.399c-5.101-0.1-9.2-4.1-9.301-8.899
			c-0.1-5,4.301-9.101,9.601-9.101C1002.7,1161.9,1005.7,1164.9,1005.6,1170.4z"/>
		<path fill="#B0ADA1" d="M1069.6,1170.2c0-5.4,3.101-8.4,8.601-8.4c5.1,0,9.2,3.9,9.399,8.8c0.2,5-4.199,9.2-9.5,9.2
			C1072.4,1179.8,1069.6,1176.7,1069.6,1170.2z"/>
		<path fill="#B0ADA1" d="M1096.6,1170.6c0.101-5.8,3.2-8.899,8.801-8.699c4.8,0.1,9.199,4.1,9.199,8.5c0,5.5-4.1,9.6-9.699,9.5
			C1099.5,1179.7,1096.6,1176.6,1096.6,1170.6z"/>
		<path fill="#B0ADA1" d="M1267.5,1161.8c6.1,0,9.1,2.9,9.1,8.9c0,5.3-3.8,9.2-9.1,9.1c-4.8,0-9-4.3-8.9-9.2
			C1258.7,1165.5,1262.4,1161.8,1267.5,1161.8z"/>
		<path fill="#B0ADA1" d="M1384.6,1203.6c0,6.101-3,9.2-8.899,9.2c-5,0-9.101-4.3-9.101-9.5c0-4.399,4.4-8.5,8.9-8.5
			C1381.7,1194.8,1384.7,1197.7,1384.6,1203.6z"/>
		<path fill="#B0ADA1" d="M1096.6,1203.2c0-5.601,3-8.4,8.9-8.4c4.6,0,9,4,9.1,8.4c0.101,5.2-4,9.6-8.899,9.6
			C1099.6,1212.8,1096.6,1209.7,1096.6,1203.2z"/>
		<path fill="#B0ADA1" d="M1005.6,1203.5c0,6.4-3,9.5-9.199,9.3c-4.601-0.1-8.601-4.2-8.801-8.8c-0.1-4.9,4.2-9.2,9.301-9.2
			C1002.8,1194.9,1005.7,1197.8,1005.6,1203.5z"/>
		<path fill="#B0ADA1" d="M978.6,1203.4c0,6.3-3.199,9.5-9.199,9.399c-4.7-0.1-8.7-4.3-8.801-9.3c-0.1-4.5,4.4-8.7,9.301-8.7
			C975.7,1194.9,978.7,1197.7,978.6,1203.4z"/>
		<path fill="#B0ADA1" d="M690.6,1203.4c0-5.7,2.9-8.601,8.7-8.601c4.9,0,9.4,4.101,9.3,8.601c-0.1,5-4,9.199-8.699,9.3
			C693.9,1213,690.7,1209.7,690.6,1203.4z"/>
		<path fill="#B0ADA1" d="M644.8,1080.8c-4.7,0-9-4-9.1-8.399c-0.101-4.4,4.8-9.5,9.3-9.601c4.5-0.1,9.8,5.101,9.6,9.3
			C654.4,1077.1,650.2,1080.8,644.8,1080.8z"/>
		<path fill="#B0ADA1" d="M780.7,1080.8c-6.2,0-9.101-2.899-9.101-9c0-4.6,4.2-9,8.601-9c5.1,0,9.3,4,9.399,8.8
			C789.8,1077.7,786.7,1080.8,780.7,1080.8z"/>
		<path fill="#B0ADA1" d="M915.9,1080.8c-6.101,0-9.2-3-9.2-8.899c0-5,4.3-9.101,9.5-9.101c4.3,0,8.5,4.4,8.5,8.9
			C924.7,1077.9,921.8,1080.8,915.9,1080.8z"/>
		<path fill="#B0ADA1" d="M1051,1080.8c-4.9,0-9.5-4.3-9.3-8.7c0.2-4.699,5.1-9.399,9.7-9.3c4.399,0.101,9.399,5.101,9.3,9.101
			C1060.5,1077,1056.3,1080.8,1051,1080.8z"/>
		<path fill="#B0ADA1" d="M1213.5,1080.8c-5.9,0-8.9-3.1-8.9-8.7c0.101-4.8,4-9.199,8.4-9.3c5.5-0.1,9.7,4,9.6,9.5
			C1222.6,1077.9,1219.5,1080.8,1213.5,1080.8z"/>
		<path fill="#B0ADA1" d="M1322,1080.8c-6.3,0-9.5-3.2-9.4-9.2c0.101-4.699,4.301-8.699,9.301-8.8c4.5-0.1,8.699,4.4,8.699,9.2
			C1330.6,1077.9,1327.7,1080.8,1322,1080.8z"/>
		<path fill="#B0ADA1" d="M1384.6,1137.9c0,5.899-3,9-8.699,8.899c-4.801,0-9.2-3.899-9.301-8.3c-0.1-5.5,4-9.7,9.5-9.7
			C1381.7,1128.8,1384.7,1131.9,1384.6,1137.9z"/>
		<path fill="#B0ADA1" d="M1078.3,1128.8c5.101,0,9.2,4,9.4,8.8c0.1,5-4.2,9.2-9.5,9.2c-5.601,0-8.5-3.1-8.4-9
			C1069.7,1131.8,1072.6,1128.8,1078.3,1128.8z"/>
		<path fill="#B0ADA1" d="M978.6,1137.6c0,6-2.8,9.101-8.399,9.2c-5.2,0-9.601-3.899-9.601-8.6c0-5.3,4-9.4,9.2-9.4
			C975.5,1128.7,978.6,1131.8,978.6,1137.6z"/>
		<path fill="#B0ADA1" d="M690.6,1137.6c0-5.8,3.101-8.899,8.801-8.8c4.8,0.101,9.199,4.101,9.199,8.5c0,5.5-4.1,9.601-9.6,9.5
			C693.5,1146.8,690.6,1143.6,690.6,1137.6z"/>
		<path fill="#B0ADA1" d="M672.1,1128.8c5.301,0,9.7,4.2,9.5,9.2c-0.1,4.9-4.3,8.8-9.399,8.8c-5.5,0-8.601-3-8.601-8.3
			C663.6,1132,666.4,1128.8,672.1,1128.8z"/>
		<path fill="#B0ADA1" d="M1475.6,1105.1c0-6.399,3.101-9.399,9.301-9.199c4.6,0.1,8.8,4.3,8.699,8.899c-0.1,4.2-4,9.9-9.3,9.2
			C1478.6,1113.2,1475.6,1110.8,1475.6,1105.1z"/>
		<path fill="#B0ADA1" d="M1069.6,1105.1c0-6.399,3-9.399,9.2-9.3c4.601,0.101,8.601,4.2,8.8,8.8c0.101,4.9-4.199,9.2-9.3,9.2
			C1072.5,1113.7,1069.6,1110.8,1069.6,1105.1z"/>
		<path fill="#B0ADA1" d="M1005.6,1105.2c0,5.7-2.899,8.6-8.699,8.6c-5,0.101-9.4-4.3-9.301-9.2c0.101-4.6,4.2-8.699,8.801-8.8
			C1002.7,1095.7,1005.6,1098.7,1005.6,1105.2z"/>
		<path fill="#B0ADA1" d="M978.6,1105.2c0,5.7-2.899,8.6-8.699,8.6c-4.9,0-9.4-4.1-9.301-8.6c0.101-5,4-9.2,8.7-9.3
			C975.4,1095.7,978.6,1098.9,978.6,1105.2z"/>
		<path fill="#B0ADA1" d="M645.1,1310.8c-5,0-9.5-4.1-9.399-8.6c0.1-4.601,5.1-9.4,9.5-9.4c4.3,0,9.399,4.9,9.399,9
			C654.6,1306.8,650.4,1310.8,645.1,1310.8z"/>
		<path fill="#B0ADA1" d="M753.3,1310.8c-5.7,0-8.6-2.899-8.6-8.7c0-4.899,4.1-9.399,8.7-9.3c5,0.101,9.199,4,9.3,8.8
			C762.8,1307.6,759.6,1310.8,753.3,1310.8z"/>
		<path fill="#B0ADA1" d="M807.9,1310.8c-6,0-9.2-2.8-9.2-8.399c0-5.2,3.899-9.601,8.5-9.601c5.3,0,9.399,4,9.5,9.2
			C816.7,1307.7,813.7,1310.8,807.9,1310.8z"/>
		<path fill="#B0ADA1" d="M834.6,1310.8c-5.899,0-9-3-9-8.6c0-5.101,4.2-9.5,8.801-9.4c5.399,0.2,9.199,4.101,9.199,9.4
			C843.7,1307.9,840.6,1310.8,834.6,1310.8z"/>
		<path fill="#B0ADA1" d="M1051,1310.8c-4.9,0-9.5-4.3-9.3-8.7c0.2-4.699,5.1-9.399,9.7-9.3c4.399,0.101,9.399,5.101,9.3,9.101
			C1060.5,1307,1056.3,1310.8,1051,1310.8z"/>
		<path fill="#B0ADA1" d="M1078.2,1310.8c-5.9,0-8.5-2.7-8.5-8.7c0-5.899,3-9.199,8.399-9.3c4.5-0.1,9.5,4.8,9.601,9.3
			C1087.8,1307.6,1084.3,1310.8,1078.2,1310.8z"/>
		<path fill="#B0ADA1" d="M1213.6,1310.8c-5.899,0-9-3-8.899-8.7c0-4.8,3.899-9.199,8.3-9.3c5.5-0.1,9.7,4,9.7,9.5
			C1222.6,1307.9,1219.5,1310.8,1213.6,1310.8z"/>
		<path fill="#B0ADA1" d="M1321.8,1310.8c-6.1,0-9.2-3-9.2-8.899c0-5,4.301-9.101,9.5-9c4.4,0,8.5,4.399,8.5,9
			C1330.7,1307.9,1327.8,1310.8,1321.8,1310.8z"/>
		<path fill="#B0ADA1" d="M690.6,1334.9c0-6,3.101-9.101,9-9.101c5,0,9.101,4.4,9,9.601c-0.1,4.3-4.399,8.399-9,8.399
			C693.5,1343.8,690.6,1340.9,690.6,1334.9z"/>
		<path fill="#B0ADA1" d="M672.2,1343.8c-5.9,0-8.4-2.7-8.601-8.7c-0.199-5.399,2.101-8.699,8.301-9.3
			c5.199-0.399,9.699,3.9,9.699,8.9C681.7,1339.7,677.4,1343.8,672.2,1343.8z"/>
		<path fill="#B0ADA1" d="M572.6,1334.8c0,6.101-2.899,9-9,9c-5.1,0-9.1-3.899-9-8.7c0.101-5.1,4-9.199,8.801-9.3
			C569.3,1325.7,572.6,1328.9,572.6,1334.8z"/>
		<path fill="#B0ADA1" d="M1322,1227.8c5.7,0,8.6,2.9,8.6,8.7c0,4.9-4.1,9.4-8.6,9.3c-5-0.1-9.2-4-9.4-8.7
			C1312.5,1231,1315.7,1227.8,1322,1227.8z"/>
		<path fill="#B0ADA1" d="M1276.6,1236.3c0,5.101-4,9.601-8.699,9.5c-5.301-0.1-9.301-4.1-9.301-9.3c-0.1-5.6,3-8.6,8.9-8.7
			C1273.5,1227.8,1276.6,1230.7,1276.6,1236.3z"/>
		<path fill="#B0ADA1" d="M1240.4,1227.8c6,0,9.199,2.8,9.199,8.4c0,5.2-3.899,9.6-8.5,9.6c-5.3,0-9.399-4-9.5-9.2
			C1231.5,1230.9,1234.6,1227.9,1240.4,1227.8z"/>
		<path fill="#B0ADA1" d="M1123.6,1236c0-5.7,2.9-8.2,9.101-8.2c5.7,0.101,9.1,3.4,8.899,8.7c-0.199,5.3-4.1,9.2-9.399,9.3
			C1127.6,1245.9,1123.6,1241.3,1123.6,1236z"/>
		<path fill="#B0ADA1" d="M1024.2,1245.8c-4.3,0.101-9.4-4.7-9.601-8.8c-0.199-4.7,4.101-9.1,8.9-9.1c5.5-0.101,10,3.699,10.1,8.399
			C1033.7,1240.7,1028.7,1245.7,1024.2,1245.8z"/>
		<path fill="#B0ADA1" d="M916.1,1227.8c5.7,0,8.5,2.9,8.5,8.8c0,4.801-4.199,9.301-8.699,9.2c-5.101-0.2-9.2-4.1-9.2-8.8
			C906.6,1230.9,909.7,1227.8,916.1,1227.8z"/>
		<path fill="#B0ADA1" d="M870.6,1236.1c0.101,5.2-3.899,9.7-8.5,9.7c-5.3,0-9.399-4-9.5-9.2c-0.1-5.699,3-8.8,8.801-8.8
			C867.4,1227.8,870.6,1230.6,870.6,1236.1z"/>
		<path fill="#B0ADA1" d="M753.3,1227.8c6.3,0,9.5,3.2,9.4,9.2c-0.101,4.7-4.3,8.7-9.3,8.8c-4.5,0.101-8.7-4.399-8.7-9.3
			C744.7,1230.7,747.6,1227.8,753.3,1227.8z"/>
		<path fill="#B0ADA1" d="M618.2,1227.8c5,0,9.5,4.101,9.399,8.601c-0.1,4.6-5.1,9.399-9.6,9.399c-4.3-0.1-9.4-4.899-9.4-9
			C608.7,1231.8,612.9,1227.8,618.2,1227.8z"/>
		<path fill="#B0ADA1" d="M1096.6,1269c0-4.7,3.9-9,8.301-9.2c4.399-0.2,9.5,4.7,9.699,9.2c0.101,4.5-5,9.8-9.199,9.7
			C1100.4,1278.6,1096.6,1274.4,1096.6,1269z"/>
		<path fill="#B0ADA1" d="M690.6,1269.4c0-5.101,3.9-9.5,8.4-9.601c4.5-0.1,9.5,4.9,9.6,9.4c0.101,4.3-4.699,9.399-8.8,9.6
			C694.9,1279,690.7,1274.6,690.6,1269.4z"/>
		<path fill="#B0ADA1" d="M572.6,1269.5c0,4.9-4.3,9.5-8.8,9.3c-4.7-0.2-9.399-5.2-9.2-9.7c0.101-4.399,5.101-9.399,9.2-9.3
			C568.8,1259.9,572.7,1264.1,572.6,1269.5z"/>
		<path fill="#B0ADA1" d="M1069.6,1006.5c0-6,2.7-8.3,8.601-8.7c6.6-0.399,9.1,3.9,9.3,8.4c0.2,5.5-3.9,9.7-9.5,9.6
			C1073.7,1015.6,1068.8,1013,1069.6,1006.5z"/>
		<path fill="#B0ADA1" d="M1105,997.8c6.3,0,9.7,3,9.6,8.601c-0.1,5-4,9.199-8.8,9.399c-5.399,0.2-9.2-3.8-9.2-9.6
			C1096.7,1000.5,1099.4,997.8,1105,997.8z"/>
		<path fill="#B0ADA1" d="M1213.5,997.8c6.1,0,9.1,2.9,9.1,8.5c0,5.3-4.199,9.7-9.199,9.5c-4.9-0.2-8.801-4.3-8.801-9.399
			C1204.6,1000.7,1207.7,997.8,1213.5,997.8z"/>
		<path fill="#B0ADA1" d="M1268.3,997.8c5.4,0,8.4,3.101,8.3,8.601c0,5.1-4,9.199-8.899,9.3c-5,0.1-9.2-4.2-9.101-9.601
			C1258.7,1000.5,1261.8,997.8,1268.3,997.8z"/>
		<path fill="#B0ADA1" d="M1348.9,997.8c6,0,8.699,2.601,8.699,8.5c0,5-4,9.7-8.5,9.4c-6.199-0.5-9.1-3.2-9.399-9.601
			C1339.5,1000.8,1343,997.8,1348.9,997.8z"/>
		<path fill="#B0ADA1" d="M1403,997.8c5.2,0,9.3,3.601,9.3,8.4c0.101,4.8-4.3,9.5-9.1,9.5c-4.5,0.1-9.8-5-9.601-9.2
			C1393.9,1000.7,1396.9,997.8,1403,997.8z"/>
		<path fill="#B0ADA1" d="M663.6,1039.3c0-5.899,3.5-9.7,8.7-9.399c4.601,0.199,9.4,5.1,9.3,9.6c-0.1,4.3-4.899,9.6-9,9.2
			C667.2,1048.1,662.4,1044.3,663.6,1039.3z"/>
		<path fill="#B0ADA1" d="M717.6,1039.4c0-5.301,4-9.601,9-9.601c4.601,0,8.9,4.5,9,9.3c0.101,4.301-4.6,9.4-8.8,9.601
			C721.8,1048.9,717.7,1044.7,717.6,1039.4z"/>
		<path fill="#B0ADA1" d="M978.6,1039.5c0,4.9-4.3,9.5-8.699,9.3c-4.7-0.2-9.4-5.1-9.301-9.7c0.101-4.399,5.101-9.399,9.101-9.3
			C974.8,1029.9,978.7,1034.1,978.6,1039.5z"/>
		<path fill="#B0ADA1" d="M1096.6,1039c0-4.9,4.101-9.1,8.9-9.2c4.7-0.1,9.3,4.9,9.1,9.7c-0.199,4.4-5.1,9.3-9.199,9.1
			C1100.2,1048.5,1096.6,1044.5,1096.6,1039z"/>
		<path fill="#B0ADA1" d="M1384.6,1039.3c0,5-4,9.5-8.5,9.5s-9.5-5-9.5-9.5c0-4.3,4.801-9.399,8.9-9.5
			C1380.5,1029.7,1384.6,1034,1384.6,1039.3z"/>
		<path fill="#B0ADA1" d="M663.6,1006.3c0-5.899,2.7-8.5,8.801-8.5c5.899,0,9.199,3.101,9.199,8.4c0,4.5-4.899,9.399-9.3,9.5
			C666.8,1015.9,663.6,1012.4,663.6,1006.3z"/>
		<path fill="#B0ADA1" d="M753.1,997.8c6.5,0,9.5,2.8,9.5,9c0,4.8-4.399,9.101-9.1,9c-4.8-0.1-8.9-4.3-8.9-9.1
			C744.7,1000.8,747.5,997.8,753.1,997.8z"/>
		<path fill="#B0ADA1" d="M807.5,997.8c6.1,0,9.1,2.9,9.2,8.4c0,5.3-4.2,9.7-9.2,9.5c-4.9-0.101-8.8-4.3-8.8-9.4
			C798.6,1000.8,801.7,997.8,807.5,997.8z"/>
		<path fill="#B0ADA1" d="M862.3,997.8c5.4,0,8.4,3.101,8.4,8.601c0,5.1-3.9,9.199-8.8,9.399c-5,0.2-9.2-4.2-9.2-9.5
			C852.7,1000.5,855.8,997.8,862.3,997.8z"/>
		<path fill="#B0ADA1" d="M951.6,1006.4c0,5-4,9.699-8.6,9.3c-6.1-0.5-9.4-3.3-9.2-9.601c0.2-5.199,2.8-8.899,9.7-8.399
			C949,998.1,951.7,1000.7,951.6,1006.4z"/>
		<path fill="#B0ADA1" d="M970.2,997.8c5.899,0,8.399,2.7,8.399,8.9c0,5.2-3.8,9.2-8.6,9.1c-5.1-0.1-9.3-4.3-9.4-9.399
			C960.6,1000.9,964,997.8,970.2,997.8z"/>
		<path fill="#B0ADA1" d="M997.1,997.8c5.9,0,8.601,2.7,8.5,8.7c0,5.9-3,9.2-8.399,9.3c-4.5,0.101-9.5-4.8-9.601-9.3
			C987.5,1001.1,991,997.8,997.1,997.8z"/>
		<path fill="#B0ADA1" d="M1051.1,997.8c5.9,0,9.7,3.4,9.5,8.7c-0.199,4.6-5.1,9.4-9.6,9.3c-4.3-0.1-9.6-4.899-9.2-9
			C1042.3,1001.4,1046.1,996.6,1051.1,997.8z"/>
		<path fill="#B0ADA1" d="M645,1015.8c-4.5-0.1-9.4-5.2-9.3-9.6c0.1-4.9,4.8-8.5,10.6-8.4c4.101,0.101,8.5,4.7,8.3,8.7
			C654.4,1011.2,649.5,1015.9,645,1015.8z"/>
		<path fill="#B0ADA1" d="M1159.6,1080.8c-6.1,0-9-3-8.899-9.2c0-4.6,4.3-8.899,8.7-8.8c5.1,0.101,9.3,4,9.3,8.9
			C1168.7,1077.6,1165.5,1080.8,1159.6,1080.8z"/>
		<path fill="#B0ADA1" d="M699.3,997.8c6.5-0.8,8.8,3.9,9.3,8.3c0.5,4.9-4.3,9.7-9,9.7c-5.5,0-9-3.899-8.899-9.8
			C690.7,1000.5,693.5,997.8,699.3,997.8z"/>
		<path fill="#B0ADA1" d="M1087.6,1269.3c0,4.5-5,9.4-9.5,9.5c-4.5,0-8.5-4.5-8.5-9.5s4.101-9.5,8.5-9.5
			C1082.7,1259.9,1087.6,1264.8,1087.6,1269.3z"/>
		<path fill="#B0ADA1" d="M1005.6,1269.6c0,4.7-4,9-8.399,9.101c-4.4,0.1-9.5-4.8-9.601-9.3c-0.1-4.5,4.601-9.4,9.301-9.601
			C1001.6,1259.7,1005.7,1264.3,1005.6,1269.6z"/>
		<path fill="#B0ADA1" d="M717.6,1006.4c0-5.9,2.7-8.301,8.601-8.7c6.5-0.4,8.8,4,9.3,8.399c0.5,5.101-3.9,9.601-8.8,9.7
			C721.8,1015.8,717.7,1011.6,717.6,1006.4z"/>
		<path fill="#B0ADA1" d="M1023.9,1080.8c-4.9,0-9.5-4.3-9.2-8.8c0.3-4.7,5.2-9.4,9.7-9.2s9.399,5.3,9.199,9.7
			C1033.4,1077.1,1029,1080.8,1023.9,1080.8z"/>
		<path fill="#B0ADA1" d="M1051.2,1227.8c5.2,0,9.5,4.3,9.399,9.101c-0.1,4.1-5.3,8.899-9.6,8.899s-9.7-4.899-9.2-9
			C1042.4,1231.4,1046,1226.6,1051.2,1227.8z"/>
		<path fill="#B0ADA1" d="M1457.2,1080.8c-5.2,0-9.3-3.8-9.3-8.6c0.1-4.9,4.6-9.5,9.399-9.4c4.9,0.101,9.3,4.3,9.4,8.9
			C1466.7,1076.7,1462.4,1080.8,1457.2,1080.8z"/>
		<path fill="#B0ADA1" d="M1222.6,1236.3c0,5.3-4.199,9.601-9.199,9.5c-4.9-0.1-8.801-4.3-8.801-9.3c-0.1-5.6,3-8.6,8.9-8.7
			C1219.5,1227.8,1222.6,1230.7,1222.6,1236.3z"/>
		<path fill="#B0ADA1" d="M1240.6,997.8c6,0,9.101,2.9,9.101,8.5c0,5.3-4.2,9.601-9.2,9.5c-4.9-0.1-8.8-4.3-8.8-9.3
			C1231.6,1000.8,1234.7,997.8,1240.6,997.8z"/>
		<path fill="#B0ADA1" d="M915.7,734.8c6.1,0,8.899,3,8.899,9.2c0,4.5-4.3,8.9-8.699,8.8c-5.101-0.1-9.301-4.1-9.301-8.899
			C906.6,738,909.8,734.8,915.7,734.8z"/>
		<path fill="#B0ADA1" d="M1123.6,1006.3c0-5.899,2.7-8.2,8.7-8.6c6.5-0.5,8.9,4.2,9.2,8.399c0.5,5.2-3.9,9.601-8.9,9.601
			C1127.7,1015.8,1123.6,1011.6,1123.6,1006.3z"/>
		<path fill="#B0ADA1" d="M1005.6,743.7c0,5.8-3.199,9.1-8.5,9.1c-5.199,0-9.6-4.3-9.5-9.2c0.2-5,4.301-8.8,9.601-8.8
			C1003.1,734.8,1005.7,737.6,1005.6,743.7z"/>
		<path fill="#B0ADA1" d="M1078.2,850.8c-5.9,0-8.2-2.7-8.601-8.7c-0.5-6.5,4.2-8.899,8.4-9.199c5.2-0.5,9.6,3.899,9.6,8.899
			S1083.4,850.8,1078.2,850.8z"/>
		<path fill="#B0ADA1" d="M834.6,997.8c6,0,9.101,2.9,9.101,8.5c0,5.3-4.2,9.601-9.2,9.5c-4.9-0.2-8.8-4.3-8.8-9.399
			C825.6,1000.8,828.7,997.8,834.6,997.8z"/>
		<path fill="#B0ADA1" d="M599.6,1269.5c0,4.9-4.3,9.5-8.8,9.2c-4.7-0.2-9.399-5.101-9.2-9.7c0.101-4.5,5.2-9.4,9.7-9.2
			C595.9,1260,599.7,1264.4,599.6,1269.5z"/>
		<path fill="#B0ADA1" d="M663.6,1269.2c0-5,4.101-9.5,8.601-9.4c4.5,0.101,9.399,5.101,9.399,9.5c0,4.5-5,9.4-9.5,9.4
			S663.6,1274.3,663.6,1269.2z"/>
		<path fill="#B0ADA1" d="M753.7,1080.8c-6.2,0-9.101-2.899-9.101-9c0-4.6,4.101-9,8.5-9c5.301,0,9.7,4.2,9.5,9.2
			C762.4,1076.5,759.5,1081.7,753.7,1080.8z"/>
		<path fill="#B0ADA1" d="M672,1080.8c-5.9,0-8.4-2.7-8.4-8.8c0-5.8,3.101-9.1,8.5-9.2c5.2,0,9.601,4.2,9.5,9.101
			C681.5,1077,677.3,1080.8,672,1080.8z"/>
		<path fill="#B0ADA1" d="M1005.6,973.4c0,6.1-3.199,9.6-8.699,9.399c-5.101-0.1-9.2-4.1-9.301-8.899
			c-0.1-5.101,4.301-9.2,9.801-9.101C1003,964.8,1005.7,967.6,1005.6,973.4z"/>
		<path fill="#B0ADA1" d="M537.2,1310.8c-6.2,0-9.7-3.2-9.5-8.7c0.1-5.3,4.2-9.3,9.399-9.3c4.4,0,8.5,4.3,8.5,9
			C545.6,1307.8,542.8,1310.8,537.2,1310.8z"/>
		<path fill="#B0ADA1" d="M617.8,1310.8c-4.899,0-9.1-4.1-9.1-8.899c0-4.101,5-9,9.3-9.101c4.5-0.1,10.1,5.101,9.4,9.3
			C626.6,1307.5,623.4,1311.9,617.8,1310.8z"/>
		<path fill="#B0ADA1" d="M1005.6,907.9c0,5.899-3.1,8.899-8.699,8.899c-5-0.1-9.2-4-9.301-8.899c-0.1-5,4.2-9.101,9.5-9.101
			C1002.8,898.8,1005.7,902,1005.6,907.9z"/>
		<path fill="#B0ADA1" d="M672.2,1310.8c-5.9,0-8.5-2.7-8.5-8.7c0-5.899,3-9.199,8.399-9.3c4.5-0.1,9.801,5,9.601,9.3
			C681.4,1308,678.3,1310.8,672.2,1310.8z"/>
		<path fill="#B0ADA1" d="M1078.2,898.8c5.2,0,9.6,4.3,9.399,9.2c-0.199,4.9-4.3,8.7-9.399,8.8c-5.601,0-8.601-3.1-8.601-9
			C1069.6,901.9,1072.6,898.8,1078.2,898.8z"/>
		<path fill="#B0ADA1" d="M861.4,1310.8c-5.801,0-8.9-3.1-8.801-8.8c0.101-5,4.101-9.2,9-9.2c5,0,9.101,4.3,9,9.601
			C870.6,1308,867.4,1310.9,861.4,1310.8z"/>
		<path fill="#B0ADA1" d="M1240.6,1310.8c-5.899,0-9-3-9-8.6c0-5.101,3.9-9.2,8.801-9.4c5-0.2,9.199,4.2,9.199,9.5
			C1249.7,1307.9,1246.5,1310.8,1240.6,1310.8z"/>
		<path fill="#B0ADA1" d="M1267.7,1310.8c-6,0-9.101-2.899-9.101-8.5c0-5.3,4.2-9.6,9.2-9.5c4.9,0.101,8.8,4.3,8.8,9.3
			C1276.7,1307.8,1273.6,1310.8,1267.7,1310.8z"/>
		<path fill="#B0ADA1" d="M690.6,1039.1c0-5,4-9.1,8.801-9.199c4.3-0.101,9.3,5.199,9.199,9.699c-0.1,4.4-5.1,9.601-9.199,9.101
			C694.1,1047.9,689.5,1044.5,690.6,1039.1z"/>
		<path fill="#B0ADA1" d="M951.6,809.2c0,5.899-2.699,8.6-8.6,8.6c-6.1,0-9.6-3.3-9.4-8.8c0.2-5.1,4.101-9.2,8.9-9.2
			C947.5,799.7,951.6,804,951.6,809.2z"/>
		<path fill="#B0ADA1" d="M997.2,817.8c-6.101,0-9.601-3.2-9.5-8.6c0.1-4.3,5-9.3,9-9.4c5.899,0,9,3.3,9,9.7
			C1005.6,815.1,1002.9,817.8,997.2,817.8z"/>
		<path fill="#B0ADA1" d="M1105.1,817.8c-5.899,0-8.5-2.7-8.399-8.8c0-4.9,4.2-9.3,8.7-9.2c5.1,0.2,9.3,4.4,9.3,9.4
			C1114.7,814.8,1111.3,817.8,1105.1,817.8z"/>
		<path fill="#B0ADA1" d="M1357.6,1104.8c0,6.101-2.899,9-9.1,9c-4.6,0-9-4.2-8.9-8.6c0.101-5.101,4-9.3,8.801-9.4
			C1354.3,1095.7,1357.6,1098.9,1357.6,1104.8z"/>
		<path fill="#B0ADA1" d="M1069.6,1039.3c0-5.3,3.4-9.2,8.301-9.399c4.6-0.2,9.8,4.899,9.699,9.6c-0.1,4.3-5,9.6-9.1,9.1
			C1073.2,1048,1068.4,1044.3,1069.6,1039.3z"/>
		<path fill="#B0ADA1" d="M1005.6,1137.7c0,6-2.899,9.1-8.5,9.1c-5.3,0-9.6-4.2-9.5-9.2c0.101-4.899,4.301-8.8,9.301-8.8
			C1002.6,1128.7,1005.6,1131.8,1005.6,1137.7z"/>
		<path fill="#B0ADA1" d="M645.5,1227.8c4.7,0,9,4,9.1,8.4c0.101,4.399-4.8,9.5-9.3,9.6c-4.5,0.101-9.399-4.7-9.6-9.3
			C635.5,1231.8,640.1,1227.8,645.5,1227.8z"/>
		<path fill="#B0ADA1" d="M672.3,1227.8c5.4,0,9.5,3.5,9.3,8.3c-0.199,5.601-4.199,9.801-9.6,9.5c-5.2-0.3-8.8-2.899-8.4-9.699
			C664,1230.5,666.5,1227.8,672.3,1227.8z"/>
		<path fill="#B0ADA1" d="M807.8,1227.8c5.9,0,8.9,3,8.9,8.7c-0.101,5-4,9.2-8.9,9.3c-5,0.101-9.1-4.2-9.1-9.5
			C798.7,1230.7,801.8,1227.8,807.8,1227.8z"/>
		<path fill="#B0ADA1" d="M834.9,1227.8c5.8,0,8.899,3.101,8.8,8.8c-0.101,5-4.101,9.2-9,9.2c-5,0-9.101-4.3-9-9.6
			C825.7,1230.6,828.9,1227.8,834.9,1227.8z"/>
		<path fill="#B0ADA1" d="M1430.1,997.8c5,0,9.5,4,9.5,8.5s-5,9.5-9.5,9.5s-9.399-5-9.5-9.5
			C1420.6,1001.9,1425.1,997.8,1430.1,997.8z"/>
		<path fill="#B0ADA1" d="M1005.6,1236.3c0,6.101-3.199,9.601-8.699,9.5c-4.301-0.1-9.301-5-9.301-9.1c0-5.9,3.4-9,9.801-8.9
			C1003,1227.8,1005.6,1230.6,1005.6,1236.3z"/>
		<path fill="#B0ADA1" d="M599.6,1203.7c0,6-3.199,9.2-9.1,9.1c-4.6-0.1-8.9-4.2-8.8-8.899c0.1-4.101,3.899-10,9.399-9.301
			C596.8,1195.4,599.7,1197.9,599.6,1203.7z"/>
		<path fill="#B0ADA1" d="M970,817.8c-6.1,0-9.5-3.3-9.4-8.8c0.2-4.7,4.601-9.2,9-9.2c4.9,0,9,4.2,9,9.4
			C978.7,815.1,976,817.8,970,817.8z"/>
		<path fill="#B0ADA1" d="M1540.1,931.8c-5.199,0-9.199,3.8-9.399,8.8s4.2,9.301,9.5,9.2c5.1,0,9.2-4,9.399-8.8
			C1549.8,936,1545.4,931.8,1540.1,931.8z"/>
		<path fill="#B0ADA1" d="M1558.6,940.4c0,6.3,2.9,9.5,8.601,9.399c5.399,0,9.6-4.3,9.399-9.7c-0.1-4.3-4.6-8.3-9.199-8.3
			C1561.5,931.8,1558.6,934.7,1558.6,940.4z"/>
		<path fill="#B0ADA1" d="M1540.1,997.8c-5.199,0-9.5,4.101-9.3,9.101c0.101,4.199,5.101,8.899,9.4,8.899
			c4.399,0,9.399-4.899,9.5-9.399C1549.7,1000.9,1546.3,997.8,1540.1,997.8z"/>
		<path fill="#B0ADA1" d="M1540.4,982.8c4.8-0.2,9.3-4.6,9.199-9.1c-0.1-5.3-4.6-9.101-10.699-8.9c-4.4,0.101-8.5,4.8-8.2,9.3
			C1531,978.4,1536,982.9,1540.4,982.8z"/>
		<path fill="#B0ADA1" d="M1513.1,997.8c-5,0-9.5,4-9.5,8.5s5,9.5,9.5,9.5s9.4-5,9.5-9.5C1522.6,1001.9,1518.2,997.8,1513.1,997.8z"
			/>
		<path fill="#B0ADA1" d="M1540.1,931.8c5.301,0,9.7,4.2,9.5,9.2c-0.1,4.9-4.3,8.8-9.399,8.8c-5.3,0-9.7-4.2-9.5-9.2
			C1531,935.6,1534.9,931.8,1540.1,931.8z"/>
		<path fill="#B0ADA1" d="M1558.6,940.4c0-5.7,2.9-8.5,8.801-8.601c4.6,0,9,3.9,9.199,8.3c0.2,5.4-4,9.7-9.399,9.7
			C1561.5,949.8,1558.7,946.7,1558.6,940.4z"/>
		<path fill="#B0ADA1" d="M1540.1,997.8c6.2,0,9.601,3.101,9.601,8.601c-0.101,4.5-5,9.399-9.5,9.399c-4.3,0-9.3-4.7-9.4-8.899
			C1530.6,1001.9,1534.8,997.8,1540.1,997.8z"/>
		<path fill="#B0ADA1" d="M1540.4,982.8c-4.4,0.101-9.4-4.399-9.601-8.7c-0.3-4.5,3.9-9.1,8.2-9.3c6.1-0.2,10.6,3.601,10.7,8.9
			C1549.7,978.2,1545.2,982.6,1540.4,982.8z"/>
		<path fill="#B0ADA1" d="M1513.1,997.8c5,0,9.5,4,9.5,8.5s-5,9.5-9.5,9.5s-9.399-5-9.5-9.5
			C1503.6,1001.9,1508.1,997.8,1513.1,997.8z"/>
	</g>
</g>
<g id="Layer_2" display="none">
</g>
<rect x="1696.5" y="1884.5" fill="none" width="364" height="88"/>
<text transform="matrix(1 0 0 1 1696.5 1935.6191)" fill="#81BE41" font-family="'MyriadPro-Regular'" font-size="72">= 0.5 mi</text>
<circle fill="#81BE41" cx="1648.5" cy="1912.75" r="23.75"/>
</svg>
