<?xml version="1.0" encoding="utf-8"?>
<!-- Generator: Adobe Illustrator 16.0.0, SVG Export Plug-In . SVG Version: 6.00 Build 0)  -->
<!DOCTYPE svg PUBLIC "-//W3C//DTD SVG 1.1//EN" "http://www.w3.org/Graphics/SVG/1.1/DTD/svg11.dtd">
<svg version="1.1" id="Layer_2_copy" xmlns="http://www.w3.org/2000/svg" xmlns:xlink="http://www.w3.org/1999/xlink" x="0px"
	 y="0px" width="2000px" height="2000px" viewBox="0 0 2000 2000" enable-background="new 0 0 2000 2000" xml:space="preserve">
<g>
	<path fill="#81BE41" d="M603.3,942.2c-5.2,0-9.6-4.3-9.399-9.2c0.199-5.1,4.5-8.9,9.8-8.8c5,0.1,9.1,4.1,9.2,8.899
		C612.9,938.2,608.6,942.3,603.3,942.2z"/>
	<path fill="#81BE41" d="M729.9,1031.8c0-5.3,4-9.6,9-9.6s9,4.3,9,9.6c0,5-4.4,9.9-8.801,9.3C732.7,1040.3,729.8,1037,729.9,1031.8z
		"/>
	<path fill="#81BE41" d="M702.9,1031.6c0-5.199,4.199-9.5,9.199-9.3c4.601,0.101,8.801,4.2,8.801,8.8c0.1,5.5-4.2,10.5-9.101,10
		C706.4,1040.4,701.7,1036.9,702.9,1031.6z"/>
	<path fill="#81BE41" d="M766.1,1106.2c-6.199,0-9.199-2.8-9.199-8.8c0-5.4,3.8-9.2,9.1-9.2c4.9,0,8.8,4.1,8.9,9.2
		C775,1103.1,771.9,1106.2,766.1,1106.2z"/>
	<path fill="#81BE41" d="M576.5,942.2c-5.3,0-9.7-4-9.6-9.101c0.1-4.899,4.199-8.899,9.3-8.899c5.1-0.101,9.7,3.899,9.7,8.5
		C585.9,938,581.7,942.2,576.5,942.2z"/>
	<path fill="#81BE41" d="M747.9,1261.9c0,5.1-4,9.199-8.801,9.399c-5,0.101-9.199-4.2-9.199-9.5c0-5.1,4.3-9.6,8.8-9.399
		C744.1,1252.6,747.9,1256.5,747.9,1261.9z"/>
	<path fill="#81BE41" d="M801.9,1130.1c0,6-3,9.101-8.9,9.101c-6,0-9.1-3-9.1-9c0-5.3,3.899-9.101,9.199-9
		C798.2,1121.3,801.9,1125,801.9,1130.1z"/>
	<path fill="#81BE41" d="M530.9,933.4c0,5.8-3.101,8.899-8.7,8.8c-5.3-0.101-9.5-4.2-9.3-9.2c0.1-4.8,4.3-8.8,9.199-8.8
		C528,924.3,530.9,927.3,530.9,933.4z"/>
	<path fill="#81BE41" d="M702.9,1196.3c0-6.1,2.899-9.1,8.899-9.1c5.9,0,9.101,3.2,9.101,9.1c0,4.601-4.101,8.8-8.7,8.9
		C706.3,1205.4,702.9,1202.1,702.9,1196.3z"/>
	<path fill="#81BE41" d="M684.2,1073.2c-5.601,0-8.3-2.8-8.3-8.5c0-5.601,3.699-9.7,8.8-9.5c5.1,0.2,9.2,4.1,9.2,9
		C693.9,1070.3,690.8,1073.3,684.2,1073.2z"/>
	<path fill="#81BE41" d="M657.6,1073.2c-5.8,0-8.399-2.601-8.8-8.101c-0.5-6.899,3.4-9.6,8.4-9.699c6.3-0.101,9.2,3.1,9.6,9.399
		C667.1,1070.2,663.5,1073.2,657.6,1073.2z"/>
	<path fill="#81BE41" d="M765.7,957.2c6,0,9.1,2.8,9.2,8.3c0.1,5.4-3.801,9.6-8.9,9.7c-4.9,0.1-9.1-4-9.1-8.8
		C756.9,960.3,759.7,957.3,765.7,957.2z"/>
	<path fill="#81BE41" d="M657.4,957.2c5.399,0,9.3,3.399,9.5,8.3c0.199,5.2-4,9.8-9,9.6c-4.801-0.199-9.7-2.899-9.101-9.699
		C649.3,959.9,651.7,957.2,657.4,957.2z"/>
	<path fill="#81BE41" d="M603.5,975.2c-5,0-9.7-4.5-9.6-9.2c0.1-4.8,4.3-8.8,9.1-8.8c5.3,0,9.9,4,9.8,8.6
		C612.7,970.8,608.3,975.2,603.5,975.2z"/>
	<path fill="#81BE41" d="M576.7,957.2c4.899,0,9.399,4.3,9.2,8.8c-0.2,4.7-5.101,9.3-9.601,9.2c-5.1-0.101-9.2-4-9.3-8.8
		C566.8,961.3,571.2,957.2,576.7,957.2z"/>
	<path fill="#81BE41" d="M765.6,1139.2c-6-0.101-8.8-3.101-8.699-9.4c0.1-5,3.6-8.7,8.5-8.6c5.5,0,9.5,3.7,9.5,9
		C774.9,1135.6,771.1,1139.3,765.6,1139.2z"/>
	<path fill="#81BE41" d="M702.9,1130.5c-0.101-6,2.8-9.2,8.3-9.2c5.399-0.1,9.7,3.8,9.7,8.8c0.1,4.9-4,9.101-8.801,9.2
		C705.9,1139.3,702.9,1136.4,702.9,1130.5z"/>
	<path fill="#81BE41" d="M675.9,1130.4c0-6,2.8-9.101,8.399-9.2c5.4,0,9.601,4,9.601,9.1c0,4.9-4.101,8.8-9.2,8.9
		C679,1139.3,675.9,1136.2,675.9,1130.4z"/>
	<path fill="#81BE41" d="M684.8,1106.2c-6,0-8.899-3-8.899-9.101c0-5.8,3.399-9,9.3-8.899c4.6,0.1,8.7,4.2,8.7,8.899
		C694,1102.4,690.1,1106.2,684.8,1106.2z"/>
	<path fill="#81BE41" d="M658,1106.2c-6,0-9-2.8-9.1-8.3c0-6.7,2.699-9.601,8.899-9.7c5-0.101,9.101,4.2,9.101,9.5
		C666.9,1102.1,662.5,1106.2,658,1106.2z"/>
	<path fill="#81BE41" d="M738.6,1220.2c6.301,0,9.4,2.899,9.301,8.8c-0.101,5-4,9.1-8.9,9.2c-4.9,0.1-9.2-4.3-9.1-9.3
		C730,1223.1,732.9,1220.2,738.6,1220.2z"/>
	<path fill="#81BE41" d="M675.9,1228.7c0-5.7,2.699-8.5,8.3-8.5c6.3,0,10,3,9.6,8.5c-0.399,6.2-3.2,9.1-9.7,9.399
		C679.3,1238.4,675.9,1234.1,675.9,1228.7z"/>
	<path fill="#81BE41" d="M675.9,1196.2c0-6.101,2.899-9,9-9c5.3,0,9.1,3.899,9,9.3c-0.101,4.6-4.2,8.7-8.9,8.7
		C679.1,1205.3,675.9,1202.1,675.9,1196.2z"/>
	<path fill="#81BE41" d="M738.4,990.2c6.399,0,9.5,2.8,9.5,8.5c0,5.3-4.2,9.6-9.2,9.5c-4.8-0.101-8.9-4.3-8.8-9.101
		C729.9,993.2,732.7,990.2,738.4,990.2z"/>
	<path fill="#81BE41" d="M648.9,933.4c0-6.101,2.8-9.101,8.8-9.2c4.6,0,9,3.899,9.2,8.3c0.199,5.4-3.9,9.7-9.301,9.7
		C651.9,942.3,648.9,939.2,648.9,933.4z"/>
	<path fill="#81BE41" d="M557.9,932.8c0,6.3-2.801,9.5-8.601,9.4c-5.2,0-9.6-4.3-9.399-9.2c0.199-4.8,4.3-8.8,9.199-8.8
		C555,924.3,557.9,927.1,557.9,932.8z"/>
	<path fill="#81BE41" d="M801.9,965.5c0.1,5.4-3.9,9.7-9,9.7c-4.9,0-8.9-4-9-9.101c-0.101-5.699,2.899-8.8,8.699-8.899
		C798.6,957.2,801.8,960,801.9,965.5z"/>
	<path fill="#81BE41" d="M685,957.2c5.6,0,9.1,3.399,8.9,8.8c-0.2,5.1-4.101,9.2-8.9,9.2c-5.9,0.1-9.1-3.101-9.1-9.101
		S678.9,957.2,685,957.2z"/>
	<path fill="#81BE41" d="M702.9,933.2c0-6.101,3-9,9.1-8.9c5.1,0,8.8,3.7,8.9,8.8c0.1,4.9-4.101,9.101-8.9,9.2
		C706.1,942.3,702.9,939.1,702.9,933.2z"/>
	<path fill="#81BE41" d="M675.9,933.4c0-6.2,2.8-9.101,8.8-9.2c4.899,0,9.1,3.899,9.2,8.7c0.1,4.899-4,9.199-8.801,9.3
		C679.1,942.3,675.9,939.4,675.9,933.4z"/>
	<path fill="#81BE41" d="M630.7,957.2c4.899,0,9.3,4.3,9.1,8.8c-0.2,5.3-4.2,9.2-9.5,9.2c-5.5,0-8.6-3.4-8.5-9.601
		C621.9,959.8,624.6,957.2,630.7,957.2z"/>
	<path fill="#81BE41" d="M621.9,932.7c0-5.5,3-8.5,8.5-8.5c5.3,0,9.699,4.2,9.5,9.2c-0.2,4.899-4.301,8.8-9.4,8.8
		C624.7,942.3,621.9,939.1,621.9,932.7z"/>
	<path fill="#81BE41" d="M739,1073.2c-6.2,0-9.1-2.9-9.1-9c0-4.601,4.199-9,8.6-9c5.1,0,9.3,4,9.4,8.8
		C748,1070.1,745,1073.2,739,1073.2z"/>
	<path fill="#81BE41" d="M621.9,1031.7c0-5.9,3.5-9.7,8.699-9.4c4.601,0.2,9.4,5.101,9.301,9.601c-0.101,4.3-4.9,9.6-9,9.199
		C625.5,1040.5,620.7,1036.8,621.9,1031.7z"/>
	<path fill="#81BE41" d="M675.9,1031.8c0-5.3,4-9.6,9-9.6c4.6,0,8.899,4.5,9,9.3c0.1,4.3-4.601,9.4-8.801,9.6
		C680.1,1041.3,675.9,1037.1,675.9,1031.8z"/>
	<path fill="#81BE41" d="M621.9,998.7c0-5.9,2.699-8.5,8.8-8.5c5.899,0,9.2,3.1,9.2,8.399c0,4.5-4.9,9.4-9.301,9.5
		C625.1,1008.4,621.9,1004.8,621.9,998.7z"/>
	<path fill="#81BE41" d="M711.4,990.2c6.5,0,9.5,2.8,9.5,9c0,4.8-4.4,9.1-9.101,9c-4.8-0.101-8.899-4.3-8.899-9.101
		C702.9,993.2,705.7,990.2,711.4,990.2z"/>
	<path fill="#81BE41" d="M765.7,990.2c6.1,0,9.1,2.899,9.2,8.399c0,5.301-4.2,9.7-9.2,9.5c-4.9-0.1-8.8-4.3-8.8-9.399
		C756.9,993.2,759.9,990.2,765.7,990.2z"/>
	<path fill="#81BE41" d="M603.2,1008.2c-4.5-0.101-9.4-5.2-9.3-9.601c0.1-4.899,4.8-8.5,10.6-8.399c4.1,0.1,8.5,4.7,8.3,8.7
		C612.7,1003.6,607.8,1008.3,603.2,1008.2z"/>
	<path fill="#81BE41" d="M657.5,990.2c6.5-0.8,8.8,3.899,9.3,8.3c0.5,4.9-4.3,9.7-9,9.7c-5.5,0-9-3.9-8.899-9.8
		C648.9,992.9,651.7,990.2,657.5,990.2z"/>
	<path fill="#81BE41" d="M675.9,998.8c0-5.899,2.699-8.3,8.6-8.7c6.5-0.399,8.8,4,9.3,8.4c0.5,5.1-3.899,9.6-8.8,9.7
		C680,1008.3,675.9,1004,675.9,998.8z"/>
	<path fill="#81BE41" d="M792.8,990.2c6,0,9.101,2.899,9.101,8.5c0,5.3-4.2,9.6-9.2,9.5c-4.9-0.2-8.8-4.3-8.8-9.4
		C783.8,993.2,786.9,990.2,792.8,990.2z"/>
	<path fill="#81BE41" d="M712,1073.2c-6.2,0-9.1-2.9-9.1-9c0-4.601,4.1-9,8.5-9c5.3,0,9.699,4.2,9.5,9.2
		C720.6,1069,717.8,1074.1,712,1073.2z"/>
	<path fill="#81BE41" d="M630.3,1073.2c-5.899,0-8.399-2.7-8.399-8.8c0-5.801,3.1-9.101,8.5-9.2c5.199,0,9.6,4.2,9.5,9.1
		C639.8,1069.4,635.6,1073.2,630.3,1073.2z"/>
	<path fill="#81BE41" d="M648.9,1031.5c0-5,4-9.1,8.8-9.2c4.3-0.1,9.3,5.2,9.2,9.7c-0.101,4.4-5.101,9.6-9.2,9.1
		C652.3,1040.3,647.7,1036.9,648.9,1031.5z"/>
</g>
<g opacity="0.7">
	<path fill="#B0ADA1" d="M882.9,1031.7c0,5-4,9.5-8.5,9.5c-5.2,0-9.4-4.101-9.5-9.3c-0.101-5.301,4-9.601,9-9.7
		C878.9,1022.2,882.9,1026.5,882.9,1031.7z"/>
	<path fill="#B0ADA1" d="M1388.6,646.2c-5.3,0.1-9.6-3.9-9.699-8.9c-0.101-4.8,4.1-8.899,9-9.1c5.5-0.2,10.1,4,9.899,9.2
		C1397.7,642.3,1393.6,646.2,1388.6,646.2z"/>
	<path fill="#B0ADA1" d="M1388.4,876.2c-5.301,0-9.601-4.2-9.5-9.2c0.1-5,4.399-8.9,9.8-8.8c5,0.1,9.1,4.1,9.2,8.899
		C1398,872.1,1393.7,876.2,1388.4,876.2z"/>
	<path fill="#B0ADA1" d="M603.1,1106.2c-4.699,0-9-3.9-9.199-8.3c-0.2-5.301,4.199-9.7,9.5-9.7c5.199,0,9.6,4.3,9.399,9.2
		C612.7,1102.5,608.5,1106.3,603.1,1106.2z"/>
	<path fill="#B0ADA1" d="M1388.6,679.2c-5.3,0.1-9.6-3.9-9.699-8.9c0-4.8,4.1-8.899,9.1-9.1c5.4-0.101,9.6,3.6,9.9,8.7
		C1398.1,674.8,1393.8,679.2,1388.6,679.2z"/>
	<path fill="#B0ADA1" d="M774.9,1261.6c0,5.301-4,9.601-9,9.601s-9.101-4.3-9-9.601c0-5,3.899-9.199,8.699-9.399
		C770.5,1252,774.8,1256.4,774.9,1261.6z"/>
	<path fill="#B0ADA1" d="M801.9,1261.7c0,5.3-4.101,9.6-9.101,9.5c-5-0.101-9-4.4-8.899-9.7c0.1-5,4-9.1,8.8-9.3
		C797.7,1252.1,801.9,1256.4,801.9,1261.7z"/>
	<path fill="#B0ADA1" d="M810.9,1261.7c0-5.3,4.199-9.601,9.199-9.5c5,0.1,8.9,4.399,8.801,9.8c-0.101,5-4.101,9.1-8.9,9.2
		C815,1271.3,810.9,1267,810.9,1261.7z"/>
	<path fill="#B0ADA1" d="M837.9,1261.7c0-5.2,4.3-9.601,9.199-9.4c5,0.2,8.9,4.5,8.801,9.8c-0.101,5-4.101,9.101-8.9,9.2
		C842,1271.3,837.9,1267,837.9,1261.7z"/>
	<path fill="#B0ADA1" d="M449.9,1262c-0.101,5-4,9.1-8.9,9.2c-5.1,0.1-9.3-4.4-9.1-10c0.199-5,4.3-9.101,9.1-9
		C446,1252.3,450,1256.7,449.9,1262z"/>
	<path fill="#B0ADA1" d="M603.4,1041.2c-4.5,0-9.5-5.101-9.4-9.5c0-4.3,4.9-9.4,9-9.4c4.9,0,10,4.8,9.9,9.5
		C612.8,1036.3,607.8,1041.2,603.4,1041.2z"/>
	<path fill="#B0ADA1" d="M1388.5,891.2c5.2,0.1,9.6,4.399,9.3,9.3c-0.2,5.1-4.5,8.9-9.899,8.7c-5-0.101-9.101-4.2-9.101-9
		C1378.9,895.2,1383.2,891.2,1388.5,891.2z"/>
	<path fill="#B0ADA1" d="M1622.9,538.7c0-5.2,4.3-9.601,9.199-9.4c5,0.2,8.9,4.5,8.801,9.8c-0.101,5-4.101,9.101-8.9,9.2
		C1627,548.3,1622.9,544,1622.9,538.7z"/>
	<path fill="#B0ADA1" d="M1667.9,539.1c0,4.9-4,9-8.801,9.2c-4.899,0.101-9.199-4.3-9.199-9.6c0-5,4-9.2,8.8-9.4
		C1663.8,529.1,1667.9,533.5,1667.9,539.1z"/>
	<path fill="#B0ADA1" d="M377.9,1492c-0.101-5.1,3.8-10,8.399-9.6c5.7,0.5,9.7,3,9.601,9.399c0,5.3-4.2,9.601-9.101,9.5
		C381.9,1501.1,378,1497,377.9,1492z"/>
	<path fill="#B0ADA1" d="M1794.2,431.2c5.3-0.101,9.6,3.899,9.7,8.899c0.1,5-4.2,9.101-9.5,9.101c-5,0-9.9-4.2-9.4-8.601
		C1785.7,434.8,1788.1,431.4,1794.2,431.2z"/>
	<path fill="#B0ADA1" d="M422.9,1491.7c0,5.3-4.101,9.6-9.101,9.5c-5,0-9-4.3-8.899-9.7c0.1-4.8,3.899-9.5,8.3-9.2
		C418.7,1482.8,422.9,1485.1,422.9,1491.7z"/>
	<path fill="#B0ADA1" d="M982.5,1402.2c-5.3,0-9.6-4.101-9.5-9.101s4.3-9,9.7-8.899c4.8,0.1,9.5,3.899,9.2,8.3
		C991.3,1398,989.1,1402.2,982.5,1402.2z"/>
	<path fill="#B0ADA1" d="M476.9,1492.3c0,4.7-4.301,9-9.101,8.9c-5-0.101-9-4.4-8.899-9.7c0.1-4.7,4.1-9.5,8.5-9.1
		C473,1482.9,477.2,1485.5,476.9,1492.3z"/>
	<path fill="#B0ADA1" d="M603.2,1172.2c-5-0.101-9.5-4.4-9.2-8.9c0.3-5.5,4.2-9.1,9.4-9.1c5.3,0,9.6,4.2,9.5,9.1
		C612.8,1168.4,608.5,1172.3,603.2,1172.2z"/>
	<path fill="#B0ADA1" d="M603.7,1187.2c4.899,0,9,4,9.2,8.8c0.199,4.7-4.301,9.2-9,9.2c-5.5,0-10.2-4.4-10-9.3
		C594.1,1190.9,598.3,1187.2,603.7,1187.2z"/>
	<path fill="#B0ADA1" d="M793.1,1154.2c5.801,0,8.9,3.1,8.801,8.7c-0.101,5.399-3.801,9.3-9,9.3c-5.301,0-9-3.8-9-9.2
		C783.9,1157.1,786.9,1154.2,793.1,1154.2z"/>
	<path fill="#B0ADA1" d="M1234.9,900.7c-0.101,5.7-3.2,8.7-8.9,8.6c-5.4-0.1-9.2-4-9.1-9.2c0.1-5.3,3.899-8.8,9.399-8.8
		C1232.2,891.3,1235,894.4,1234.9,900.7z"/>
	<path fill="#B0ADA1" d="M1009.3,891.2c5.3,0,9.601,3.899,9.601,9c0,5-4.301,9.1-9.601,9c-5,0-9.899-4.3-9.3-8.7
		C1000.8,894.3,1003.8,891.2,1009.3,891.2z"/>
	<path fill="#B0ADA1" d="M982.6,891.2c5,0.1,9.5,4.399,9.2,8.899c-0.3,5.5-4.2,9.101-9.399,9.101c-5.301,0-9.601-4.2-9.5-9.101
		C973,895.1,977.3,891.2,982.6,891.2z"/>
	<path fill="#B0ADA1" d="M828.9,900.4c0,6-3,8.899-9.101,8.899c-5.1,0-8.8-3.7-8.899-8.899c-0.101-5.301,3.8-9.2,9.1-9.101
		C825.9,891.3,828.9,894.3,828.9,900.4z"/>
	<path fill="#B0ADA1" d="M1613.9,538.9c0,5.199-4.4,9.6-9.301,9.3c-5.1-0.2-8.899-4.5-8.699-9.9c0.1-4.8,4.199-9.399,8.5-9
		C1610.5,530,1614.1,532.9,1613.9,538.9z"/>
	<path fill="#B0ADA1" d="M1586.9,538.8c0,5.2-4.301,9.601-9.2,9.4c-5.101-0.2-8.9-4.5-8.8-9.8c0.1-4.801,4.1-9.5,8.399-9
		C1583.3,529.9,1587,532.7,1586.9,538.8z"/>
	<path fill="#B0ADA1" d="M1541.9,538.7c0-5,4.199-9.9,8.699-9.3c6.601,0.8,9.5,4.199,9.301,9.699c-0.2,5-4.101,9.101-8.9,9.2
		C1546,548.3,1541.9,544,1541.9,538.7z"/>
	<path fill="#B0ADA1" d="M1532.9,538.9c-0.101,5.199-4.4,9.6-9.301,9.3c-4.899-0.3-8.699-4.4-8.699-9.3c0.1-5.2,3.8-9.601,8.399-9.7
		C1528.7,529.2,1533,533.5,1532.9,538.9z"/>
	<path fill="#B0ADA1" d="M1009.6,876.2c-5.199-0.101-9.6-3.9-9.699-8.4c-0.101-5.399,4.199-9.6,9.699-9.6c5,0.1,9.101,4,9.301,8.8
		C1019,872,1014.7,876.3,1009.6,876.2z"/>
	<path fill="#B0ADA1" d="M801.9,1032c-0.101,5-4.4,9.5-8.801,9.2c-5.5-0.3-9.1-4.101-9.199-9.4c0-5.3,4.1-9.6,9.1-9.5
		C798,1022.3,802,1026.6,801.9,1032z"/>
	<path fill="#B0ADA1" d="M774.9,1031.9c-0.101,5-4.301,9.5-8.801,9.199c-5.6-0.3-9.3-4.3-9.199-9.899c0.1-5,4.3-9.101,9.1-9
		C771,1022.3,775,1026.6,774.9,1031.9z"/>
	<path fill="#B0ADA1" d="M576.3,1139.2c-5.2,0-9.6-4.3-9.399-9.2c0.199-5.1,4.5-8.9,9.8-8.8c4.8,0.1,9.5,4.1,9,8.5
		C585.2,1135.8,582.3,1139.4,576.3,1139.2z"/>
	<path fill="#B0ADA1" d="M603.6,1139.2c-5.1,0.1-9.6-3.9-9.6-8.4c-0.1-5.2,3.9-9.399,9-9.6c5.4-0.101,9.6,3.6,9.9,8.7
		C613.1,1134.8,608.8,1139.2,603.6,1139.2z"/>
	<path fill="#B0ADA1" d="M982.5,1139.2c-5.3,0-9.6-3.9-9.6-9c0-5,4.3-9.101,9.6-9c5,0,9.9,4.3,9.3,8.7
		C991,1136.2,988,1139.2,982.5,1139.2z"/>
	<path fill="#B0ADA1" d="M1009.2,1139.2c-5-0.101-9.5-4.3-9.2-8.8c0.3-5.601,4.3-9.301,9.9-9.2c5,0.1,9.1,4.3,9,9.1
		C1018.8,1135.3,1014.5,1139.3,1009.2,1139.2z"/>
	<path fill="#B0ADA1" d="M1794.6,464.2c5.101,0,9.5,4.3,9.301,9.2c-0.2,4.6-4.4,8.8-8.9,8.8c-5.4,0-10.2-4.3-10.1-9.2
		C1785,468,1789.2,464.2,1794.6,464.2z"/>
	<path fill="#B0ADA1" d="M1767.7,464.2c4.7,0,9,3.899,9.1,8.3c0.2,5.3-4.5,9.8-10.1,9.7c-4.601-0.101-8.7-4.2-8.8-8.8
		C1757.7,468.3,1762.2,464.2,1767.7,464.2z"/>
	<path fill="#B0ADA1" d="M603.3,891.2c5.3,0,9.601,3.899,9.601,9c0,5-4.301,9.1-9.601,9c-5,0-9.899-4.3-9.3-8.7
		C594.8,894.3,597.8,891.2,603.3,891.2z"/>
	<path fill="#B0ADA1" d="M576.3,909.2c-5.2,0-9.6-4.3-9.399-9.2c0.199-5,4.5-8.9,9.8-8.8c4.8,0.1,9.5,4.1,9.1,8.399
		C585.2,905.6,582.5,909.3,576.3,909.2z"/>
	<path fill="#B0ADA1" d="M982.2,1106.2c-5.101,0-9.5-4.4-9.3-9.2c0.199-4.7,4.3-8.7,8.899-8.8c5.101,0,10.5,4.3,10,8.7
		C991.1,1102.3,988.1,1107.3,982.2,1106.2z"/>
	<path fill="#B0ADA1" d="M982.4,1369.2c-5.301,0-9.601-4.101-9.5-9.101c0.1-5,4.399-9,9.699-8.899c4.801,0.1,9.5,3.899,9.101,8.3
		C991.3,1365.1,988.9,1369.2,982.4,1369.2z"/>
	<path fill="#B0ADA1" d="M793.1,1369.2c-6,0.1-9.199-2.8-9.199-8.3c-0.101-5.801,3.699-9.801,9.1-9.7c5.1,0,8.9,3.8,8.9,8.8
		C801.9,1366.2,799.1,1369.2,793.1,1369.2z"/>
	<path fill="#B0ADA1" d="M576.3,1271.2c-4.3,0-9.399-4.9-9.399-9c0-4.9,4.8-10,9.5-10c4.3,0,9.3,4.899,9.399,9
		C585.8,1266.2,581,1271.2,576.3,1271.2z"/>
	<path fill="#B0ADA1" d="M593.9,1261.7c0-4.5,5-9.5,9.5-9.5s9.5,5,9.5,9.5s-5,9.5-9.5,9.5S593.9,1266.2,593.9,1261.7z"/>
	<path fill="#B0ADA1" d="M1387.8,694.2c5.601,0,10.101,3.8,10.101,8.5c0,5.2-4.101,9.399-9.2,9.5c-5.3,0.1-9.601-3.9-9.7-8.9
		C1378.8,698.6,1383,694.3,1387.8,694.2z"/>
	<path fill="#B0ADA1" d="M1261.9,769.3c0,4.8-4.2,9-9,8.9c-5,0-9-4.3-9-9.601c0-5,4-9.1,8.899-9.199
		C1258,759.2,1261.9,763.5,1261.9,769.3z"/>
	<path fill="#B0ADA1" d="M1288.9,768.8c0,5.2-4.101,9.5-9,9.4c-4.801,0-9-4.4-9-9.2c0.1-5.3,4.199-10,9-9.6
		C1285.3,759.9,1290.1,763.7,1288.9,768.8z"/>
	<path fill="#B0ADA1" d="M575.9,1022.2c4.699,0,9.8,4.6,9.8,9c0,4.7-5.3,10.2-9.601,10c-4.399-0.2-9.3-5-9.199-9.101
		C567,1027.2,571.6,1022.2,575.9,1022.2z"/>
	<path fill="#B0ADA1" d="M982.5,876.2c-5.3,0-9.6-4-9.6-9s4.3-9,9.6-9c5,0,9.9,4.399,9.3,8.8C990.9,873.4,987.7,876.3,982.5,876.2z"
		/>
	<path fill="#B0ADA1" d="M810.9,1031.9c-0.101-5.4,4-9.7,9-9.7c4.8,0,8.899,4.2,9,9.2c0.1,5.199-3.801,9.699-8.5,9.699
		C815.2,1041.3,811,1037.1,810.9,1031.9z"/>
	<path fill="#B0ADA1" d="M1172,876.2c-6.1,0-9.1-2.9-9.1-9c0-5.3,3.899-9.101,9.199-9c4.801,0.1,8.7,4.3,8.801,9.399
		C1180.9,873.2,1177.9,876.2,1172,876.2z"/>
	<path fill="#B0ADA1" d="M855.9,1031.8c0,4.9-3.9,9.2-8.301,9.4c-5.3,0.2-9.699-4.2-9.699-9.601c0.1-5.1,4-9.199,8.899-9.3
		C851.8,1022.2,855.9,1026.5,855.9,1031.8z"/>
	<path fill="#B0ADA1" d="M603.6,876.2c-5.1,0.1-9.699-4-9.699-8.5c0-5.2,4.199-9.4,9.399-9.5c5.3,0,9.7,4.1,9.601,9.1
		C612.8,872.2,608.6,876.2,603.6,876.2z"/>
	<path fill="#B0ADA1" d="M1360.8,876.2c-4.8,0-9-4.2-8.899-9c0-5,4.3-9,9.6-9c5,0,9.1,4,9.2,8.899
		C1370.9,872.3,1366.6,876.2,1360.8,876.2z"/>
	<path fill="#B0ADA1" d="M1009.5,1369.2c-5.1,0-9.7-4-9.6-8.601c0.1-5.3,4.199-9.399,9.399-9.399c5.3,0,9.7,4.2,9.601,9.1
		C1018.8,1365.2,1014.6,1369.2,1009.5,1369.2z"/>
	<path fill="#B0ADA1" d="M982.1,1336.2c-4.899,0-9-4-9.1-8.8c-0.1-4.7,4.3-9.2,9.1-9.2c5.2,0,10.4,4.399,9.801,8.8
		C991,1332.6,988,1337.3,982.1,1336.2z"/>
	<path fill="#B0ADA1" d="M576.4,1336.2c-5.2,0-9.5-4.101-9.4-9c0-4.8,4.4-9,9.2-9c5.3,0.1,10,4.2,9.6,9
		C585.2,1332.6,581.5,1337.5,576.4,1336.2z"/>
	<path fill="#B0ADA1" d="M1361.2,891.2c5.3-0.101,9.5,3.899,9.6,9c0,4.899-4,8.899-9,9c-5.399,0.1-9.6-3.601-9.899-8.7
		C1351.7,895.6,1356,891.3,1361.2,891.2z"/>
	<path fill="#B0ADA1" d="M1315.9,735.7c0,6.1-3.2,9.7-8.7,9.5c-5.101-0.2-9.2-4.101-9.3-8.9c0-6.1,3.1-9.1,9.699-9.1
		C1313.2,727.3,1315.9,730,1315.9,735.7z"/>
	<path fill="#B0ADA1" d="M1009,1336.2c-4.7,0-9-4-9.1-8.4c-0.101-5,4.6-9.7,9.699-9.6c5.101,0.1,9.2,4,9.301,8.899
		C1019,1332.2,1014.6,1336.3,1009,1336.2z"/>
	<path fill="#B0ADA1" d="M982.2,778.2c-5.101-0.601-9.7-5.4-9.2-9.601c0.5-5,5.3-9.6,9.5-9.199c5,0.5,10,5.899,9.4,10.1
		C991.1,774.2,986.1,778.7,982.2,778.2z"/>
	<path fill="#B0ADA1" d="M1144.9,909.2c-6.101,0-9-2.9-9-9.101c0-5.899,3-9,8.6-8.899c5.1,0,9.3,4,9.4,8.8
		C1154,905.4,1150.2,909.2,1144.9,909.2z"/>
	<path fill="#B0ADA1" d="M783.9,900.2c0-5.601,3.5-9,9.1-9c5.5,0,8.9,3.6,8.9,9.2c0,5.199-3.601,8.699-8.9,8.8
		C787.4,909.3,783.9,905.8,783.9,900.2z"/>
	<path fill="#B0ADA1" d="M756.9,900.4c0-5.801,3-9.101,8.3-9.2c5.7-0.101,9.8,3.7,9.7,9.1c-0.101,5.101-3.801,8.9-8.801,8.9
		C759.9,909.3,756.9,906.4,756.9,900.4z"/>
	<path fill="#B0ADA1" d="M1667.9,440.3c0,5.9-3,9-8.601,8.9c-5.3,0-9.5-4.2-9.399-9.3c0.1-5.101,3.899-8.7,9-8.7
		C1665,431.2,1667.9,434.2,1667.9,440.3z"/>
	<path fill="#B0ADA1" d="M1613.9,440.5c0,5-3.801,8.7-8.9,8.8c-5.4,0-9.2-4-9.1-9.7c0.1-5.3,3.399-8.3,9.199-8.3
		C1611.1,431.3,1613.9,434.3,1613.9,440.5z"/>
	<path fill="#B0ADA1" d="M1568.9,440.3c0-6.1,2.899-9.1,8.899-9.1c5.8,0,9.101,3,9.101,8.399c0,5.5-3.601,9.5-8.7,9.601
		C1572.8,449.4,1568.9,445.6,1568.9,440.3z"/>
	<path fill="#B0ADA1" d="M1415.5,679.2c-5.3,0-9.5-4-9.5-9.101c0.1-4.899,4.1-8.899,9.1-8.899c5.301-0.101,9.601,3.8,9.801,8.8
		C1425,675,1420.7,679.2,1415.5,679.2z"/>
	<path fill="#B0ADA1" d="M449.9,1491.5c0.1,5.3-3.9,9.6-8.9,9.7c-5,0.1-9.1-4.2-9.1-9.5c0-4.9,4.3-10,8.699-9.4
		C446.2,1483.1,449.7,1485.4,449.9,1491.5z"/>
	<path fill="#B0ADA1" d="M1568.9,670c0-6,3.1-8.8,9.199-8.8c5.2,0,8.9,3.8,8.801,8.8c-0.101,5.3-3.7,9.2-8.5,9.2
		C1572.5,679.2,1568.8,675.7,1568.9,670z"/>
	<path fill="#B0ADA1" d="M982.5,1172.2c-5.3,0-9.7-4.2-9.5-9.2c0.1-4.9,4.3-8.8,9.4-8.8c5.1,0,9.699,4,9.6,8.6
		C991.8,1168.1,987.7,1172.2,982.5,1172.2z"/>
	<path fill="#B0ADA1" d="M1009.5,1154.2c5.2,0,9.6,4.2,9.4,9.1c-0.101,5-4.4,8.9-9.7,8.8c-4.7-0.1-9.5-4.1-9.101-8.399
		C1000.6,1158.2,1003,1154.2,1009.5,1154.2z"/>
	<path fill="#B0ADA1" d="M982.5,924.2c4.9,0,9.2,3.899,9.4,8.3c0.199,5.3-4.2,9.7-9.601,9.7c-5.1-0.101-9.2-4-9.3-8.9
		C972.8,928.3,977.2,924.2,982.5,924.2z"/>
	<path fill="#B0ADA1" d="M368.9,1491.8c0,5.101-3.9,9.2-8.801,9.4c-5,0.2-9.199-4.2-9.199-9.5c0-5.101,4.199-9.7,8.699-9.4
		C365.1,1482.5,368.9,1486.5,368.9,1491.8z"/>
	<path fill="#B0ADA1" d="M1767.4,449.2c-5.301,0-9.7-4.3-9.5-9.2c0.199-4.9,4.3-8.8,9.399-8.8c5.101,0,9.7,4.1,9.5,8.7
		C1776.7,445.3,1772.7,449.2,1767.4,449.2z"/>
	<path fill="#B0ADA1" d="M576.8,1187.2c4.7,0,9,4,9.101,8.399c0.1,5-4.601,9.7-9.7,9.601c-5.101-0.101-9.2-4-9.3-8.9
		C566.8,1191.3,571.2,1187.2,576.8,1187.2z"/>
	<path fill="#B0ADA1" d="M855.9,1393.3c0,5.9-3,9-8.601,9c-5.3,0-9.5-4.2-9.399-9.2c0.1-5.1,3.899-8.8,9-8.8
		C853,1384.2,855.9,1387.2,855.9,1393.3z"/>
	<path fill="#B0ADA1" d="M1632,661.2c6.1,0,9,3,8.9,9.1c0,5.9-3,8.9-8.7,8.9c-5.101-0.101-9.2-3.9-9.3-8.8
		C1622.8,665.1,1626.7,661.2,1632,661.2z"/>
	<path fill="#B0ADA1" d="M882.9,1261.8c0,4.9-4.101,9.4-8.601,9.4c-5-0.101-9.399-4.2-9.399-8.8c-0.101-5.5,4.199-10.2,9.1-10.101
		C879,1252.3,882.9,1256.5,882.9,1261.8z"/>
	<path fill="#B0ADA1" d="M1424.9,473.2c0,4.8-4.301,9.1-9.101,9c-5.2-0.101-10-4.2-9.7-9c0.4-5.4,4.2-9.8,9.301-9.2
		C1420.6,464.7,1424.9,468.2,1424.9,473.2z"/>
	<path fill="#B0ADA1" d="M702.9,1261.7c0-5,4.1-9.5,8.5-9.4c4.899,0,9.399,4.101,9.5,8.8c0.1,5.5-4.101,10.2-9.101,10.2
		C706.9,1271.2,702.9,1267,702.9,1261.7z"/>
	<path fill="#B0ADA1" d="M739,1139.2c-6.1,0-9.1-2.9-9.1-9c0-5.9,2.899-9,8.5-9c5.3,0,9.5,4.1,9.5,9.2
		C747.8,1135.6,744.1,1139.2,739,1139.2z"/>
	<path fill="#B0ADA1" d="M1524,416.2c-6.1,0-9.1-2.9-9.1-9c0-5.9,2.899-9,8.5-9c5.3,0,9.5,4.1,9.5,9.2
		C1532.8,412.6,1529.1,416.2,1524,416.2z"/>
	<path fill="#B0ADA1" d="M1416.1,694.2c4.7,0,8.9,4.5,8.801,9.2c-0.101,5-4.4,8.899-9.801,8.8c-5-0.101-9.1-4.2-9.1-9.101
		C1406,697.9,1410.2,694.2,1416.1,694.2z"/>
	<path fill="#B0ADA1" d="M576.2,1172.2c-5-0.101-9.2-4.101-9.2-9c0-5,4.3-9.101,9.7-9c4.899,0.1,9.2,3.899,9.3,8.399
		C586,1168,581.6,1172.3,576.2,1172.2z"/>
	<path fill="#B0ADA1" d="M1667.9,407.5c-0.101,6-3.101,8.8-9.301,8.8c-5-0.1-8.699-3.899-8.699-9.1c0-5.101,4.3-9,9.699-8.9
		C1665.1,398.3,1667.9,401.5,1667.9,407.5z"/>
	<path fill="#B0ADA1" d="M1009.4,942.2c-5,0-10-4.2-9.4-8.601c0.7-5.6,2.8-9.199,9.1-9.3c5.301-0.1,9.601,3.8,9.7,8.8
		C1019,938,1014.7,942.2,1009.4,942.2z"/>
	<path fill="#B0ADA1" d="M522.5,843.2c-6.2,0-9.7-3.2-9.6-8.7c0.1-5.1,4.1-9.3,8.899-9.3c6.2-0.101,9.2,3.1,9.101,9.6
		C530.9,840.5,528.2,843.2,522.5,843.2z"/>
	<path fill="#B0ADA1" d="M1315.9,834.7c0,5.7-2.7,8.5-8.301,8.5c-6.3,0-9.699-3-9.699-8.601c0-5.1,4-9.3,8.8-9.399
		C1312.8,825.1,1315.9,828.3,1315.9,834.7z"/>
	<path fill="#B0ADA1" d="M1578,416.2c-6.1,0-9.1-2.9-9.1-8.9c0-5.3,3.8-9.1,9.1-9.1c5.2,0,8.9,4,8.9,9.399
		C1586.9,413.1,1583.7,416.2,1578,416.2z"/>
	<path fill="#B0ADA1" d="M476.9,1261.3c0,5.5-4.101,10-8.7,9.9c-5.3-0.2-9.3-4.2-9.3-9.4s4.199-9.6,9.1-9.5
		C472.8,1252.3,476.9,1256.5,476.9,1261.3z"/>
	<path fill="#B0ADA1" d="M1027.9,932.9c0-5.7,2.899-8.601,8.699-8.601c4.9,0,9.4,4.2,9.301,8.7c-0.101,5.3-4.101,9.2-9.301,9.3
		C1030.8,942.3,1027.9,939.2,1027.9,932.9z"/>
	<path fill="#B0ADA1" d="M936.9,933.1c0,5.9-2.9,9.101-8.4,9.101c-5.4,0-9.6-3.9-9.6-9c0-4.9,4-9,8.899-9
		C933.9,924.2,936.9,927.1,936.9,933.1z"/>
	<path fill="#B0ADA1" d="M900.9,924.2c6.1,0,9,2.899,9,9c0,5.899-2.9,9-8.5,9c-5.301,0-9.5-4-9.5-9.101
		C891.9,928.3,896,924.2,900.9,924.2z"/>
	<path fill="#B0ADA1" d="M819.8,924.2c6.101,0,9.101,2.899,9.101,8.899c0,5.301-3.9,9.2-9.2,9.101c-4.9-0.101-8.8-4.2-8.8-9.3
		C810.8,927.4,814,924.3,819.8,924.2z"/>
	<path fill="#B0ADA1" d="M783.9,933.2c0-6.101,2.899-9,9-8.9c5.899,0,9,3,8.899,8.5c0,5.3-4.1,9.5-9.1,9.4
		C787.9,942.2,783.9,938.1,783.9,933.2z"/>
	<path fill="#B0ADA1" d="M766,924.2c5.7,0,8.9,3.2,8.8,8.7c-0.1,5.1-4,9.199-8.8,9.3c-5.3,0.1-9.2-3.8-9.2-9.101
		C756.9,927.1,759.9,924.2,766,924.2z"/>
	<path fill="#B0ADA1" d="M1009.5,810.2c-5,0-9.5-3.9-9.5-8.4c-0.1-4.399,4.8-9.5,9.3-9.6c4.5-0.101,9.8,5,9.7,9.2
		C1018.7,807.3,1015.6,810.2,1009.5,810.2z"/>
	<path fill="#B0ADA1" d="M557.9,867.6c0,5.7-2.9,8.601-8.7,8.7c-4.9,0-9.4-4.1-9.3-8.7c0.1-5.3,4.1-9.3,9.3-9.3
		C555,858.2,557.9,861.2,557.9,867.6z"/>
	<path fill="#B0ADA1" d="M576.3,876.2c-5.1,0-9.2-4-9.3-8.8c-0.1-5,4.2-9.2,9.5-9.101c5.1,0,9.2,3.9,9.3,8.9
		C585.9,872.2,581.6,876.3,576.3,876.2z"/>
	<path fill="#B0ADA1" d="M657.6,876.2c-6-0.101-8.8-3-8.699-9.2c0.1-5.9,3.1-8.9,8.699-8.8c5.2,0.1,9.2,4,9.301,9.3
		C667,872.1,662.5,876.3,657.6,876.2z"/>
	<path fill="#B0ADA1" d="M819.8,876.2c-5.8,0-9-3.101-8.899-8.7c0-5.3,4.199-9.5,9.3-9.3c5.1,0.1,8.7,3.899,8.7,9
		C828.9,873.4,825.9,876.3,819.8,876.2z"/>
	<path fill="#B0ADA1" d="M1064,876.2c-6.1,0-9.1-2.9-9.1-8.9c0-5.899,2.899-9.1,8.399-9.1c5.4,0,9.601,3.899,9.601,9
		C1072.9,872.1,1068.8,876.2,1064,876.2z"/>
	<path fill="#B0ADA1" d="M1199.1,876.2c-6,0.1-9.199-2.8-9.199-8.3c-0.101-5.4,3.8-9.7,8.8-9.7c4.899-0.101,9.1,4,9.2,8.8
		C1207.9,873.2,1205.1,876.2,1199.1,876.2z"/>
	<path fill="#B0ADA1" d="M1234.9,867.5c-0.101,6-3.101,8.8-9.301,8.7c-5.699-0.101-8.8-3.3-8.699-8.9c0.1-5.1,4.1-9.1,9-9.1
		C1231.3,858.2,1234.9,862,1234.9,867.5z"/>
	<path fill="#B0ADA1" d="M738.8,909.2c-6,0-8.899-3-8.899-9.101c0-5.899,3-8.899,8.6-8.899c5.3,0,9.5,4.1,9.4,9.1
		C747.8,905.2,743.7,909.2,738.8,909.2z"/>
	<path fill="#B0ADA1" d="M1199,891.2c5.5,0,9,3.6,8.9,9.2c0,5.399-3.601,8.899-9.2,8.8c-4.9,0-8.7-3.601-8.8-8.3
		C1189.8,895.1,1193.5,891.2,1199,891.2z"/>
	<path fill="#B0ADA1" d="M441.1,843.2c-6,0.1-9.199-2.8-9.199-8.3c-0.101-5.4,3.8-9.7,8.8-9.7c4.899-0.101,9.1,4,9.2,8.8
		C449.9,840.2,447.1,843.2,441.1,843.2z"/>
	<path fill="#B0ADA1" d="M503.9,834c0,6.2-2.801,9.2-8.801,9.2s-9.199-3.101-9.199-9c0-4.8,4.3-9.101,9.1-9
		C500.7,825.3,503.9,828.4,503.9,834z"/>
	<path fill="#B0ADA1" d="M603.4,843.2c-5,0-9.4-4-9.4-8.5c0-4.8,4.5-9.4,9.3-9.5c4.9-0.101,9.7,4.399,9.7,9
		C612.9,839.2,608.6,843.2,603.4,843.2z"/>
	<path fill="#B0ADA1" d="M675.9,834.8c0-6.2,3.1-9.7,8.6-9.6c5.1,0.1,9.3,4,9.4,8.8c0.1,5.9-3.101,9.2-9,9.2
		C678.9,843.2,675.9,840.4,675.9,834.8z"/>
	<path fill="#B0ADA1" d="M1063.3,843.2c-5.7,0-8.399-2.7-8.5-8.3c0-6.301,3-9.7,8.601-9.601c5.3,0.101,9.3,4,9.399,9.3
		C1073,840,1069.5,843.2,1063.3,843.2z"/>
	<path fill="#B0ADA1" d="M1144.5,843.2c-5.9-0.101-8.7-3.101-8.6-9.4c0.1-4.7,4.5-8.7,9.3-8.6c5,0.2,8.8,4.6,8.7,9.899
		C1153.8,840.5,1150.5,843.3,1144.5,843.2z"/>
	<path fill="#B0ADA1" d="M1234.9,834.3c0,6.101-2.9,9-9,8.9c-5.9,0-9-3-9-8.5c0-5.3,4.1-9.5,9.1-9.4
		C1230.9,825.3,1234.9,829.4,1234.9,834.3z"/>
	<path fill="#B0ADA1" d="M1388.6,843.2c-5.1,0-9.399-3.7-9.6-8.3c-0.2-4.9,4.6-9.7,9.5-9.7c4.7,0.1,9.2,4.3,9.4,8.8
		C1398,838.9,1393.7,843.2,1388.6,843.2z"/>
	<path fill="#B0ADA1" d="M413.8,1384.2c6.101,0,9.101,2.899,9.101,9c0,5.3-3.601,9-8.7,8.899c-5.5-0.1-9.4-3.899-9.3-9.1
		C405,1387.9,408.7,1384.2,413.8,1384.2z"/>
	<path fill="#B0ADA1" d="M441.1,1384.2c6,0,8.9,3,8.801,9.2c-0.101,5.699-3.301,8.899-8.801,8.8c-5.1-0.101-9.199-4-9.199-8.9
		C431.9,1387.9,435.7,1384.2,441.1,1384.2z"/>
	<path fill="#B0ADA1" d="M476.9,1393.5c-0.101,5.8-3.101,8.8-8.7,8.8c-5.3-0.1-9.4-4.2-9.3-9.3c0.1-4.8,4.3-8.7,9.199-8.7
		C474.1,1384.3,476.9,1387.3,476.9,1393.5z"/>
	<path fill="#B0ADA1" d="M495,1384.2c6,0,8.9,3,8.9,9.1c0,5.9-3,8.9-8.601,8.9c-5.3,0-9.5-4.101-9.399-9.2
		C486,1388.2,490.1,1384.2,495,1384.2z"/>
	<path fill="#B0ADA1" d="M1009.3,1187.2c5.3,0,9.5,3.899,9.5,8.899c0,4.7-4.399,9.2-9.1,9.101c-5.2-0.101-9.601-4.101-9.7-8.9
		C999.9,1191.3,1004.1,1187.2,1009.3,1187.2z"/>
	<path fill="#B0ADA1" d="M982.7,1187.2c4.7,0,8.899,3.899,9.1,8.3c0.2,4.9-4.6,9.8-9.5,9.7c-4.7-0.101-9.2-4.3-9.399-8.8
		C972.7,1191.4,977.2,1187.2,982.7,1187.2z"/>
	<path fill="#B0ADA1" d="M819.9,1187.2c6.1,0,9,2.899,9,9c0,4.899-4.101,8.899-9,9c-5.101,0-9-4.2-9-9.5
		C810.9,1190.1,814,1187.2,819.9,1187.2z"/>
	<path fill="#B0ADA1" d="M765.7,1187.2c6,0,9.1,2.8,9.2,8.3c0.1,5.4-3.801,9.6-8.9,9.7c-4.9,0-9.1-4-9.1-8.8
		C756.9,1190.3,759.7,1187.3,765.7,1187.2z"/>
	<path fill="#B0ADA1" d="M936.9,1228.8c0,6.101-3.2,9.7-8.801,9.5c-5.3-0.2-9.199-4.2-9.199-9.5c0-5.6,3.399-8.5,9.699-8.5
		C934.2,1220.3,936.9,1223,936.9,1228.8z"/>
	<path fill="#B0ADA1" d="M657.5,1220.2c6.6-0.8,9.2,3.899,9.3,8.3c0,6.3-3.2,9.2-9.399,9.6c-5.5,0.301-8.5-3.3-8.5-9.699
		C648.9,1222.9,651.7,1220.2,657.5,1220.2z"/>
	<path fill="#B0ADA1" d="M557.9,1229c0,5.9-3.101,9.5-8.5,9.1c-6.2-0.399-9.601-3.3-9.301-9.699c0.2-5.4,2.9-8.801,9.801-8.301
		C555.3,1220.5,557.9,1223.1,557.9,1229z"/>
	<path fill="#B0ADA1" d="M936.9,1163.4c0,5.8-3,8.899-8.601,8.899c-5.3,0-9.5-4.2-9.399-9.2c0.1-4.8,4.199-8.8,9.1-8.8
		C934,1154.3,936.9,1157.2,936.9,1163.4z"/>
	<path fill="#B0ADA1" d="M909.9,1163.3c0,5.9-3,8.9-8.601,8.9c-5.3,0-9.5-4.101-9.399-9.101c0.1-4.8,4.199-8.899,9.1-8.8
		C907,1154.3,909.9,1157.2,909.9,1163.3z"/>
	<path fill="#B0ADA1" d="M882.9,1163.3c0,5.9-3,8.9-8.601,8.9c-5.3,0-9.5-4.101-9.399-9.101c0.1-4.8,4.199-8.899,9.1-8.8
		C880,1154.3,882.9,1157.2,882.9,1163.3z"/>
	<path fill="#B0ADA1" d="M847,1154.2c6.1,0,9,3,8.9,9.1c0,5.7-3.2,8.9-8.7,8.9c-5.101-0.101-9.2-3.9-9.3-8.8
		C837.8,1158.1,841.7,1154.2,847,1154.2z"/>
	<path fill="#B0ADA1" d="M712,1154.2c4.9,0,8.9,4.1,8.9,9c0,5.1-4.2,9-9.601,9c-5.5,0-8.399-3.2-8.399-9.101
		C702.9,1157.1,705.9,1154.2,712,1154.2z"/>
	<path fill="#B0ADA1" d="M685,1154.2c4.9,0,8.9,4.1,8.9,9c0,5.1-4.2,9-9.601,9c-5.5,0-8.399-3.2-8.399-9.101
		C675.9,1157.1,678.8,1154.2,685,1154.2z"/>
	<path fill="#B0ADA1" d="M530.9,1163.5c0,5.8-3.101,8.9-8.7,8.8c-5.3-0.1-9.4-4.2-9.3-9.3c0.1-4.8,4.3-8.7,9.199-8.7
		C528.1,1154.3,530.9,1157.3,530.9,1163.5z"/>
	<path fill="#B0ADA1" d="M530.9,1196.1c0,6-3.101,9.2-9.101,9.101c-4.899,0-9-4.3-8.899-9.2c0.1-5.3,3.899-8.9,9.5-8.8
		C528.1,1187.3,530.9,1190.3,530.9,1196.1z"/>
	<path fill="#B0ADA1" d="M494.7,1187.2c6.2,0,9.2,2.8,9.2,8.8s-3.101,9.2-9,9.2c-4.801,0-9.101-4.3-9-9.101
		C486,1190.5,489.1,1187.3,494.7,1187.2z"/>
	<path fill="#B0ADA1" d="M873.8,1384.2c6.101,0,9.101,2.899,9.101,8.899c0,5.9-2.9,9-8.4,9.101c-5.4,0-9.6-3.9-9.6-9
		C864.9,1388.3,868.9,1384.2,873.8,1384.2z"/>
	<path fill="#B0ADA1" d="M882.9,1327.2c0,6.1-2.9,9.1-9,9.1c-5.9,0-9.101-3.2-9-9.1c0.1-4.601,4.1-8.8,8.699-8.9
		C879.5,1318.1,882.9,1321.4,882.9,1327.2z"/>
	<path fill="#B0ADA1" d="M828.9,1327.3c0,6-3,8.9-9.101,8.9c-5.899,0-8.899-3-8.899-8.601c0-5.3,4.1-9.5,9.199-9.399
		C824.9,1318.3,828.9,1322.4,828.9,1327.3z"/>
	<path fill="#B0ADA1" d="M766.1,1336.2c-6.199,0-9.199-2.8-9.199-8.8c0-4.9,3.899-9.101,8.699-9.2c5.101-0.101,9.2,4,9.301,9.3
		C775,1333.2,771.9,1336.2,766.1,1336.2z"/>
	<path fill="#B0ADA1" d="M603.1,1336.2c-4.899,0-9.399-4.3-9.199-8.7c0.199-5.1,4.5-9.3,9.5-9.3c4.899,0,9.699,4.7,9.5,9.3
		C612.7,1332.5,608.5,1336.3,603.1,1336.2z"/>
	<path fill="#B0ADA1" d="M503.9,1327.3c0,6.101-3,9-9.101,8.9c-5.8,0-9.1-3.4-8.899-9.3c0.1-4.601,4.3-8.7,8.899-8.7
		C500.7,1318.2,503.9,1321.4,503.9,1327.3z"/>
	<path fill="#B0ADA1" d="M449.9,1327.4c0,6-3,8.899-9.101,8.899c-5.8,0-8.899-3-8.899-8.6c0-5.3,4.199-9.5,9.199-9.4
		C445.9,1318.3,449.9,1322.5,449.9,1327.4z"/>
	<path fill="#B0ADA1" d="M422.9,1327.3c0,6-3,8.9-9.101,8.9c-5.899,0-8.899-3-8.899-8.601c0-5.3,4.199-9.5,9.199-9.399
		C418.9,1318.3,422.9,1322.4,422.9,1327.3z"/>
	<path fill="#B0ADA1" d="M909.9,1261.7c0,5-3.9,9.399-8.4,9.5c-5,0.1-9.7-4.7-9.6-9.7c0.1-4.7,4.5-9.2,9-9.3
		C905.8,1252.2,909.9,1256.5,909.9,1261.7z"/>
	<path fill="#B0ADA1" d="M675.9,1261.4c0-4.7,4-8.9,8.3-9.101c5-0.2,9.7,4.601,9.7,9.601c-0.101,4.8-4.301,9.199-8.9,9.399
		C680,1271.4,675.9,1266.9,675.9,1261.4z"/>
	<path fill="#B0ADA1" d="M503.9,1262c0,4.7-3.9,8.9-8.301,9.1c-4.899,0.2-9.8-4.6-9.699-9.5c0.1-4.699,4.3-9.199,8.8-9.399
		C499.8,1252.1,503.9,1256.5,503.9,1262z"/>
	<path fill="#B0ADA1" d="M928.5,1303.2c-6.2,0-9.7-3.101-9.6-8.601c0.1-5.3,4.1-9.3,9.399-9.3c5.5-0.1,8.601,3.4,8.601,9.601
		C936.9,1300.5,934.2,1303.2,928.5,1303.2z"/>
	<path fill="#B0ADA1" d="M738.4,1303.2c-5.601,0-8.5-3-8.5-8.9c0-4.6,4-9,8.399-9.1c5.5-0.101,9.601,4,9.601,9.5
		C747.9,1300.4,744.8,1303.2,738.4,1303.2z"/>
	<path fill="#B0ADA1" d="M503.9,1360.4c0,6-3,8.899-9.101,8.8c-4.8,0-8.899-4.2-8.8-9.101c0-5.1,4.3-9,9.7-8.899
		C501.1,1351.3,503.9,1354.4,503.9,1360.4z"/>
	<path fill="#B0ADA1" d="M657.3,1303.2c-5.7,0-8.399-2.7-8.399-8.4c0-6.3,3-9.7,8.6-9.6c5.3,0.1,9.3,4.1,9.4,9.3
		C667,1300.1,663.5,1303.2,657.3,1303.2z"/>
	<path fill="#B0ADA1" d="M549.4,1303.2c-6.2,0-9.7-3.2-9.5-8.7c0.1-5.3,4.199-9.3,9.399-9.3c5.5,0,8.601,3.399,8.601,9.7
		C557.9,1300.5,555.1,1303.2,549.4,1303.2z"/>
	<path fill="#B0ADA1" d="M909.9,1360c0,6.2-2.801,9.2-8.801,9.2c-4.899,0-9.1-3.9-9.199-8.7c-0.101-5.1,4-9.2,9.3-9.3
		C906.8,1351.2,909.8,1354.2,909.9,1360z"/>
	<path fill="#B0ADA1" d="M963.9,1031.8c0,5-4.101,9.5-8.601,9.4c-4.5-0.101-9.399-5-9.399-9.4c0-4.3,4.699-9.399,8.899-9.5
		C960.5,1022.1,963.9,1025.7,963.9,1031.8z"/>
	<path fill="#B0ADA1" d="M909.9,1031.7c0,5-3.9,9.399-8.4,9.5c-5,0.1-9.7-4.7-9.6-9.7c0.1-4.8,4.399-9.2,9-9.3
		C905.8,1022.2,909.9,1026.5,909.9,1031.7z"/>
	<path fill="#B0ADA1" d="M503.9,1032c0,4.9-4.301,9.4-8.7,9.2c-5.101-0.2-9.3-4.5-9.3-9.5c0-4.9,4.699-9.7,9.3-9.5
		C500.2,1022.5,503.9,1026.6,503.9,1032z"/>
	<path fill="#B0ADA1" d="M332.8,1417.2c5.9,0,9.101,3.2,9.101,9.1c0,4.9-4.301,9.101-9.2,8.9c-4.5-0.2-9.3-3.101-8.9-8.8
		C324.2,1420.2,326.8,1417.3,332.8,1417.2z"/>
	<path fill="#B0ADA1" d="M360.1,1417.2c5.7,0,8.9,3.2,8.801,8.7c-0.101,5.1-4,9.199-8.9,9.3c-5.3,0.1-9.2-3.8-9.1-9.101
		C350.9,1420.1,353.9,1417.2,360.1,1417.2z"/>
	<path fill="#B0ADA1" d="M377.9,1426c0.1-5.9,3.1-8.8,9.3-8.7c5.8,0.101,8.8,3.101,8.7,8.8c-0.101,5.301-4.2,9.4-9.301,9.2
		C381.8,1435.1,377.8,1430.9,377.9,1426z"/>
	<path fill="#B0ADA1" d="M936.9,1064.8c0,5.7-2.7,8.5-8.301,8.5c-6.3,0-9.699-3-9.699-8.6c0-5.3,4-9.3,9.3-9.4
		C933.7,1055.1,936.9,1058.6,936.9,1064.8z"/>
	<path fill="#B0ADA1" d="M855.9,1064.2c0,6.1-2.9,9-9,9c-5.9,0-9-2.9-9-8.5c0-5.3,4-9.601,9-9.5
		C851.8,1055.2,855.9,1059.3,855.9,1064.2z"/>
	<path fill="#B0ADA1" d="M467.8,1417.2c6.101,0,9.101,2.899,9.101,8.899c0,5.9-3.2,9.101-9.101,9.101
		c-4.6-0.101-8.8-4.101-8.899-8.7C458.7,1420.7,462,1417.3,467.8,1417.2z"/>
	<path fill="#B0ADA1" d="M530.9,1064.8c0,5.7-2.7,8.5-8.301,8.5c-6.3,0-9.699-3-9.699-8.6c0-5.3,4-9.3,9.3-9.4
		C527.7,1055.1,530.9,1058.6,530.9,1064.8z"/>
	<path fill="#B0ADA1" d="M909.9,1458.8c0,5.4-3.4,9.3-8.301,9.5c-5.199,0.2-9.8-4-9.6-9c0.2-4.8,2.9-9.7,9.7-9.1
		C907.2,1450.6,909.9,1453,909.9,1458.8z"/>
	<path fill="#B0ADA1" d="M928.4,1450.2c5.699,0,8.399,2.7,8.5,8.3c0,6.3-3,9.7-8.601,9.6c-5.3-0.1-9.3-4-9.399-9.3
		C918.8,1453.4,922.3,1450.2,928.4,1450.2z"/>
	<path fill="#B0ADA1" d="M1063.4,957.2c5.399,0,9.3,3.399,9.5,8.3c0.199,5.2-4,9.8-9,9.7c-4.601-0.101-9.801-2.8-9.101-9.7
		C1055.3,960,1057.7,957.2,1063.4,957.2z"/>
	<path fill="#B0ADA1" d="M982.4,975.2c-4.9,0-9.7-4.7-9.5-9.3c0.199-5,4.399-8.7,9.699-8.7c4.9,0,9.4,4.3,9.2,8.7
		C991.6,971.1,987.3,975.2,982.4,975.2z"/>
	<path fill="#B0ADA1" d="M909.9,966.2c0,5.899-3.2,9.1-9.101,9.1c-4.899,0-9.1-4.3-8.899-9.2c0.3-4.6,3.1-9.3,8.899-8.899
		C906.9,957.6,909.9,960.1,909.9,966.2z"/>
	<path fill="#B0ADA1" d="M503.9,966.2c0,5.899-3.2,9.1-9.101,9.1c-4.6-0.1-8.8-4.1-8.899-8.7c-0.101-5.8,3.1-9.199,8.899-9.3
		C500.9,957.2,503.9,960.1,503.9,966.2z"/>
	<path fill="#B0ADA1" d="M350.9,1459c0.1-6,3.1-8.8,9.3-8.7c5.8,0.101,8.8,3.101,8.7,8.8c-0.101,5.301-4.2,9.4-9.301,9.2
		C354.8,1468.1,350.8,1463.9,350.9,1459z"/>
	<path fill="#B0ADA1" d="M882.9,1130.4c0,6-3,8.8-9.2,8.8c-4.8,0-8.9-4.2-8.8-9.101c0.1-5.1,4.3-8.899,9.699-8.899
		C880.1,1121.3,882.9,1124.5,882.9,1130.4z"/>
	<path fill="#B0ADA1" d="M855.9,1130.3c0,6.101-3,9-9.101,8.9c-5.1,0-8.8-3.7-8.899-8.9c-0.101-5.1,4.199-9.1,9.5-9.1
		C852.9,1121.2,855.9,1124.5,855.9,1130.3z"/>
	<path fill="#B0ADA1" d="M494.8,1154.2c6.101,0,9.101,2.899,9.101,8.899c0,5.9-2.9,9.101-8.4,9.101c-5.4,0-9.6-3.9-9.6-8.9
		C485.9,1158.4,489.9,1154.3,494.8,1154.2z"/>
	<path fill="#B0ADA1" d="M882.9,1097.2c0,6.1-2.9,9-9,9c-5.9,0-9.101-3.3-9-9.2c0.1-4.6,4.199-8.7,8.8-8.8
		C879.6,1088.1,882.9,1091.4,882.9,1097.2z"/>
	<path fill="#B0ADA1" d="M819.7,1106.2c-5.8-0.101-8.8-3.101-8.8-8.7c0.1-5.3,4.199-9.4,9.3-9.3c4.8,0.1,8.7,4.3,8.7,9.2
		C828.8,1103.4,825.8,1106.3,819.7,1106.2z"/>
	<path fill="#B0ADA1" d="M712,1106.2c-6.1,0-9.1-2.9-9.1-9c0-5.9,3.199-9.101,9.1-9c4.6,0.1,8.8,4.1,8.9,8.7
		C721,1102.8,717.8,1106.2,712,1106.2z"/>
	<path fill="#B0ADA1" d="M576,1106.2c-4.8,0-9-4-9.1-8.8c-0.101-4.7,4.199-9.101,8.899-9.2c5.4,0,10.101,4.3,9.9,9.2
		C585.6,1102.6,581.6,1106.2,576,1106.2z"/>
	<path fill="#B0ADA1" d="M1315.9,637.2c0,6.1-2.9,9-9,9c-4.9,0-9-4-9-8.9c-0.101-5.1,4.199-9.1,9.5-9.1
		C1313,628.2,1315.9,631.3,1315.9,637.2z"/>
	<path fill="#B0ADA1" d="M1361.2,628.2c5.3-0.101,9.7,4.1,9.6,9.1c-0.1,4.9-4.1,8.8-9.2,8.9c-5.3,0.1-9.699-4-9.6-9.101
		C1352,632.3,1356.1,628.3,1361.2,628.2z"/>
	<path fill="#B0ADA1" d="M1415.5,646.2c-5.4,0-9.7-4.101-9.5-9.101s4.3-8.899,9.3-8.899c5.3,0,9.7,4.2,9.5,9.1
		C1424.8,642.3,1420.6,646.2,1415.5,646.2z"/>
	<path fill="#B0ADA1" d="M1460.9,637.5c0-6,2.8-9.1,8.3-9.2c5.399-0.1,9.6,3.8,9.7,8.8c0.1,4.9-4,9.101-8.801,9.101
		C1463.9,646.3,1460.9,643.4,1460.9,637.5z"/>
	<path fill="#B0ADA1" d="M1497,646.2c-6.1,0-9.1-2.9-9.1-8.9c0-5.899,2.899-9.1,8.399-9.1c5.4,0,9.601,3.899,9.601,9
		C1505.9,642.1,1501.9,646.2,1497,646.2z"/>
	<path fill="#B0ADA1" d="M1577.9,646.2c-6.101,0-9-2.9-9-9c0-5.101,3.699-8.8,8.8-9c5-0.101,9.2,4.1,9.2,9.399
		C1586.9,643.1,1583.7,646.2,1577.9,646.2z"/>
	<path fill="#B0ADA1" d="M1604.7,646.2c-5.7,0-8.9-3.2-8.9-8.7c0.101-5.1,4-9.2,8.8-9.3c5.301-0.101,9.2,3.8,9.2,9.1
		C1613.9,643.4,1610.9,646.3,1604.7,646.2z"/>
	<path fill="#B0ADA1" d="M1694.9,637.4c0,6-3,8.899-9.101,8.8c-4.899,0-8.899-4.2-8.899-9.101c0-5.1,4.3-9,9.6-8.899
		C1692.1,628.3,1694.9,631.4,1694.9,637.4z"/>
	<path fill="#B0ADA1" d="M1551,416.2c-6.2,0-9.1-2.9-9.1-8.9c0-5.899,3-9.1,8.5-9.1c5.3,0,9.6,4,9.5,9.1
		C1559.8,412.5,1556.1,416.2,1551,416.2z"/>
	<path fill="#B0ADA1" d="M1496.7,416.2c-6,0-8.8-3-8.8-9.2c0-5.8,3.1-8.9,8.699-8.8c5.301,0.1,9.4,4.2,9.301,9.3
		C1505.8,412.3,1501.6,416.3,1496.7,416.2z"/>
	<path fill="#B0ADA1" d="M1721.9,505.6c0,6.2-3.101,9.7-8.601,9.601c-5.3-0.101-9.3-4.101-9.3-9.4c-0.1-5.5,3.4-8.6,9.6-8.6
		C1719.2,497.2,1721.9,500,1721.9,505.6z"/>
	<path fill="#B0ADA1" d="M1261.9,670.1c0,6-2.801,9.101-8.4,9.101c-5.4,0.1-9.6-3.9-9.6-8.9c0-4.899,4-9,8.899-9.1
		C1258.9,661.2,1261.9,664.1,1261.9,670.1z"/>
	<path fill="#B0ADA1" d="M1748.9,505.8c0.899,6.601-4.101,9.2-8.301,9.2c-6.3,0-9.5-3.2-9.5-9.4c0-4.699,2.7-9.1,9.601-8.5
		C1746.2,497.6,1748.9,500.1,1748.9,505.8z"/>
	<path fill="#B0ADA1" d="M1361.2,679.2c-5-0.101-9.2-4.101-9.3-8.9c-0.101-5,4.3-9.1,9.6-9.1c5.1,0,9.2,3.899,9.3,8.899
		C1370.9,675.1,1366.5,679.3,1361.2,679.2z"/>
	<path fill="#B0ADA1" d="M1541.9,670.2c0-6.101,3-9,9.1-8.9c5.1,0,8.8,3.7,8.9,8.9c0.1,5.1-4.2,9.1-9.5,9.1
		C1544.9,679.2,1541.9,676,1541.9,670.2z"/>
	<path fill="#B0ADA1" d="M1613.9,670.2c0,5.399-3.601,9.1-8.7,9c-5.5-0.101-9.4-3.9-9.3-9.101c0-5.199,3.8-8.899,8.899-8.899
		C1610.9,661.2,1613.9,664.1,1613.9,670.2z"/>
	<path fill="#B0ADA1" d="M1433.9,505.9c0-5.801,2.699-8.301,8.1-8.7c6.9-0.5,9.3,3.5,9.8,8.5c0.5,5.399-4.1,9.7-9.5,9.6
		C1436.9,515.1,1433.9,511.8,1433.9,505.9z"/>
	<path fill="#B0ADA1" d="M1523.4,497.2c6.399,0,9.5,2.8,9.5,8.5c0,5.5-4.2,9.6-9.7,9.5c-4.3-0.101-8.4-4.5-8.3-9.101
		C1514.9,500.2,1517.7,497.2,1523.4,497.2z"/>
	<path fill="#B0ADA1" d="M1613.9,407.4c0,6.1-3,8.899-9.2,8.899c-5,0-8.7-3.6-8.8-8.399c0-5.5,3.6-9.5,8.8-9.601
		C1610,398.1,1613.9,402,1613.9,407.4z"/>
	<path fill="#B0ADA1" d="M1551,613.2c-6.1,0-9.1-2.8-9.2-8.8c0-4.9,3.9-9,8.8-9.2c5-0.101,9.2,4.1,9.2,9.3
		C1559.9,610.2,1556.9,613.2,1551,613.2z"/>
	<path fill="#B0ADA1" d="M1613.9,604.2c0,6.1-2.9,9-8.9,9.1c-5.9,0-9-2.899-9.1-8.399c0-5.4,3.899-9.601,9-9.601
		C1609.8,595.2,1613.9,599.3,1613.9,604.2z"/>
	<path fill="#B0ADA1" d="M1632,613.2c-5.9,0-9-2.9-9.1-8.4c0-5.399,3.899-9.6,9-9.6c4.899,0,9,4.1,9,8.899
		C1640.9,610.3,1638,613.2,1632,613.2z"/>
	<path fill="#B0ADA1" d="M1496.8,613.2c-6,0-8.6-3-9-9.101c-0.399-5.8,4.4-8.6,8.9-8.8c4.899-0.3,9.2,4,9.2,8.9
		C1505.9,610.1,1502.7,613.3,1496.8,613.2z"/>
	<path fill="#B0ADA1" d="M1460.9,604.4c0-6.101,3.1-9.2,9-9.2c4.899,0,9,4.3,9,9.2c-0.101,5.399-3.9,8.899-9.4,8.8
		C1463.7,613.1,1460.9,610.2,1460.9,604.4z"/>
	<path fill="#B0ADA1" d="M1694.9,604.1c0,6.101-2.9,9.101-8.9,9.101c-5.9,0-9.1-3.2-9.1-9.101c0.1-4.6,4.1-8.8,8.699-8.899
		C1691.5,595.1,1694.9,598.4,1694.9,604.1z"/>
	<path fill="#B0ADA1" d="M1541.9,473.1c0-6,3-8.899,9.1-8.899c5.9,0,8.9,3,8.9,8.6c0,5.3-4.101,9.5-9.2,9.4
		C1545.9,482.2,1541.9,478,1541.9,473.1z"/>
	<path fill="#B0ADA1" d="M1487.9,473.1c0-6,3-8.6,9.1-9c5.8-0.399,8.6,4.4,8.8,8.9c0.3,4.9-4,9.2-8.899,9.2
		C1491.1,482.3,1487.9,479.1,1487.9,473.1z"/>
	<path fill="#B0ADA1" d="M1721.9,440c0.1,6-2.801,9.2-8.301,9.2c-5.399,0.1-9.699-3.8-9.699-8.8c-0.101-4.9,4-9.101,8.8-9.2
		C1718.8,431.2,1721.8,434,1721.9,440z"/>
	<path fill="#B0ADA1" d="M1694.9,440.3c0,5.9-3,8.9-8.601,8.9c-5.3,0-9.5-4.101-9.399-9.101c0.1-4.8,4.199-8.899,9.1-8.8
		C1692,431.3,1694.9,434.2,1694.9,440.3z"/>
	<path fill="#B0ADA1" d="M1632.1,431.2c6,0,8.9,3,8.801,9.2c0,5.699-3.301,8.899-8.801,8.8c-5.1-0.101-9.199-4-9.199-8.9
		C1622.9,434.9,1626.7,431.2,1632.1,431.2z"/>
	<path fill="#B0ADA1" d="M1514.9,440c0.1-6,3.1-8.8,9.3-8.8c5,0.1,8.7,3.899,8.7,9c0,5.1-4.301,9-9.7,9
		C1517.8,449.2,1514.8,445.9,1514.9,440z"/>
	<path fill="#B0ADA1" d="M1487.9,440.5c-0.101-6.2,2.8-9.2,8.8-9.2c4.899,0,9.1,3.9,9.2,8.7c0.199,5.1-3.9,9.2-9.301,9.3
		C1491,449.3,1487.9,446.3,1487.9,440.5z"/>
	<path fill="#B0ADA1" d="M1415.4,449.2c-5.101,0-9.2-3.8-9.4-8.8s4.1-9.2,9.5-9.101c5.1,0,9.2,3.9,9.4,8.8
		C1425.1,445,1420.7,449.2,1415.4,449.2z"/>
	<path fill="#B0ADA1" d="M1524,694.2c5.8,0,9.1,3.399,8.9,9.3c-0.101,4.6-4.301,8.7-8.9,8.7c-5.9,0.1-9.1-3.101-9.1-9.101
		S1517.9,694.2,1524,694.2z"/>
	<path fill="#B0ADA1" d="M1541.9,703.3c0-6.1,2.899-9,9-9c5.8,0,9,3.101,9,8.601c0,5.3-4.2,9.5-9.2,9.399
		C1545.6,712.1,1541.9,708.4,1541.9,703.3z"/>
	<path fill="#B0ADA1" d="M1568.9,703.3c0-6.1,2.899-9.1,8.899-9.1c5.9,0,9.101,2.899,9.101,8.399c0,5.4-3.9,9.601-9,9.601
		C1573,712.2,1568.9,708.2,1568.9,703.3z"/>
	<path fill="#B0ADA1" d="M1613.9,703.1c0,4.9-4,9-8.801,9.101c-5,0.1-9.1-4.101-9.199-9.4c0-5.6,3-8.6,8.899-8.6
		C1610.9,694.2,1613.9,697.1,1613.9,703.1z"/>
	<path fill="#B0ADA1" d="M1667.9,703.3c0,5.8-3.4,9.101-9.301,8.9c-4.6-0.101-8.699-4.2-8.699-8.9c-0.101-5.899,3.1-9.1,9-9.1
		C1665,694.2,1667.9,697.2,1667.9,703.3z"/>
	<path fill="#B0ADA1" d="M1424.9,538c0.199,4.8-4.4,9.9-9.2,10.1c-4.2,0.2-9.3-4.399-9.7-8.6c-0.3-4.5,4.8-10.2,9.3-10.3
		C1419.5,529.2,1424.7,534,1424.9,538z"/>
	<path fill="#B0ADA1" d="M1505.9,538.6c0.1,4.9-4.4,9.7-9.101,9.601c-4.6-0.101-8.8-4.101-8.899-8.601
		c-0.101-5.699,3.699-10.399,8.6-10.399C1501.3,529.3,1505.8,533.8,1505.9,538.6z"/>
	<path fill="#B0ADA1" d="M1694.9,539c0,4.9-4.301,9.4-8.801,9.2c-5.1-0.3-9.3-4.5-9.199-9.5c0-4.9,4.699-9.7,9.3-9.4
		C1691.2,529.5,1694.9,533.6,1694.9,539z"/>
	<path fill="#B0ADA1" d="M1433.9,571.7c0-6.101,3.199-9.7,8.699-9.5c5.301,0.2,9.2,4.2,9.301,9.5c0,5.6-3.4,8.6-9.7,8.5
		C1436.6,580.2,1433.9,577.5,1433.9,571.7z"/>
	<path fill="#B0ADA1" d="M1342.9,702.7c0,6.399-2.7,9.6-8.5,9.6c-5.5,0-9.601-4.1-9.5-9.6c0.1-4.3,4.399-8.4,9-8.4
		C1339.9,694.2,1342.9,697.1,1342.9,702.7z"/>
	<path fill="#B0ADA1" d="M1360.9,694.2c5.699,0,9.8,3.6,9.699,8.6c-0.1,5.601-3.8,9.3-9.1,9.4c-5.3,0-9.6-4.101-9.5-9.101
		C1352,698.4,1356.1,694.2,1360.9,694.2z"/>
	<path fill="#B0ADA1" d="M1667.9,670c0,6-2.801,9.1-8.301,9.2c-5.399,0.1-9.6-3.8-9.699-8.9c-0.101-4.899,4-9.1,8.8-9.1
		C1664.9,661.2,1667.9,664.1,1667.9,670z"/>
	<path fill="#B0ADA1" d="M1631.8,497.2c6.101,0,9.101,2.899,9.101,8.899c0,4.601-4,9-8.301,9.101c-5.399,0.2-9.699-4-9.699-9.4
		C1622.9,500.2,1625.9,497.3,1631.8,497.2z"/>
	<path fill="#B0ADA1" d="M1659.6,497.2c5.5,0,8.301,3.1,8.301,9c0,4.6-4.101,8.899-8.5,9c-5.301,0-9.601-4.101-9.5-9.101
		C1650,499.9,1652.9,497.2,1659.6,497.2z"/>
	<path fill="#B0ADA1" d="M1686.2,497.2c6,0,8.7,2.7,8.6,8.6c0,5-4,9.4-8.5,9.4c-5.3,0-9.7-4.2-9.399-9.2
		C1677.3,501,1680.1,496.3,1686.2,497.2z"/>
	<path fill="#B0ADA1" d="M828.9,1130.3c0,6-3,8.9-9.2,8.9c-5.101,0-8.8-3.8-8.8-8.9c0-5,3.899-9,8.8-9.1
		C825,1121.1,828.9,1125,828.9,1130.3z"/>
	<path fill="#B0ADA1" d="M909.9,1130.1c0,6-2.801,9.101-8.4,9.2c-5.4,0-9.6-4-9.6-9.1c0-4.9,4.1-8.8,9.199-8.9
		C906.8,1121.1,909.9,1124.2,909.9,1130.1z"/>
	<path fill="#B0ADA1" d="M296.9,1426.3c0-6.1,2.9-9.1,8.9-9.1c5.3,0,9.2,3.8,9.101,9.1c-0.101,4.601-4.101,8.8-8.7,8.9
		C300.3,1435.4,296.9,1432.1,296.9,1426.3z"/>
	<path fill="#B0ADA1" d="M503.9,1130.7c-0.101,5.6-3.101,8.6-8.5,8.6c-5.301,0-9.601-4.1-9.5-9.2c0.1-5.1,4.399-8.899,9.8-8.8
		C501.2,1121.3,504,1124.6,503.9,1130.7z"/>
	<path fill="#B0ADA1" d="M530.9,1130.3c0,5.9-3,9-8.601,8.9c-5.1,0-9.3-3.9-9.399-8.8c-0.101-5.101,4.1-9.2,9.5-9.2
		C528,1121.2,530.9,1124.3,530.9,1130.3z"/>
	<path fill="#B0ADA1" d="M495,1417.2c6,0,8.9,3,8.9,9.1c0,5.7-3.5,9-9.301,8.9c-4.6-0.101-8.699-4.3-8.699-8.9
		C485.8,1421,489.7,1417.2,495,1417.2z"/>
	<path fill="#B0ADA1" d="M621.9,1097.5c0-6.3,2.899-9.3,8.8-9.2c5,0.101,9.3,4.101,9.2,8.9c-0.101,4.2-4,9.899-9.301,9.2
		C624.8,1105.7,621.9,1103.2,621.9,1097.5z"/>
	<path fill="#B0ADA1" d="M1469.4,497.2c6.1,0,9.6,3.3,9.5,8.8c-0.2,5.3-4.2,9.2-9.5,9.2c-5.101,0-8.601-4-8.5-9.7
		C1460.9,499.9,1463.7,497.2,1469.4,497.2z"/>
	<path fill="#B0ADA1" d="M901.4,1073.2c-6.101,0-9.601-3.2-9.5-8.7c0.199-5.3,4.199-9.2,9.399-9.3c5,0,8.601,4,8.601,9.7
		C909.9,1070.5,907.1,1073.2,901.4,1073.2z"/>
	<path fill="#B0ADA1" d="M792.7,1106.2c-5.8,0-8.9-3.101-8.8-8.8c0.1-5.101,4.1-9.2,9-9.2c5.1,0,9.1,4.2,9,9.6
		C801.8,1103.4,798.7,1106.3,792.7,1106.2z"/>
	<path fill="#B0ADA1" d="M422.9,1425.9c-0.101,5.399-4.2,9.5-9.301,9.3c-4.8-0.2-8.699-4.4-8.699-9.5c0-5.601,3.1-8.5,9.1-8.5
		C419.9,1417.3,423,1420.2,422.9,1425.9z"/>
	<path fill="#B0ADA1" d="M820,1073.2c-6,0-9.1-2.9-9.1-8.5c0-5.3,4.1-9.601,9.199-9.5c4.9,0.1,8.801,4.2,8.801,9.3
		C829,1070.2,825.9,1073.2,820,1073.2z"/>
	<path fill="#B0ADA1" d="M792.7,1073.2c-5.8,0-8.9-3.101-8.8-8.8c0.1-5.101,4-9.2,8.899-9.2c5.101,0,9.101,4.2,9.101,9.6
		C801.9,1070.4,798.7,1073.3,792.7,1073.2z"/>
	<path fill="#B0ADA1" d="M738.7,1106.2c-6,0-8.8-3-8.8-9.2c0-5,3.8-8.7,9-8.8c4.8,0,9.199,4.2,9,9
		C747.7,1101.8,744.9,1107.2,738.7,1106.2z"/>
	<path fill="#B0ADA1" d="M963.9,1064.5c0,5.8-2.601,8.7-8.101,8.7c-5.899,0-10.1-3.3-9.899-8.3c0.3-6.301,3.199-9.2,9.5-9.601
		C960.8,1055,963.9,1058.6,963.9,1064.5z"/>
	<path fill="#B0ADA1" d="M440.7,1417.2c6.2-0.101,9.2,2.8,9.2,8.8c0,5.4-3.7,9.2-9,9.2c-4.801,0-9-4.3-9-9.101
		C432,1420.5,435.1,1417.3,440.7,1417.2z"/>
	<path fill="#B0ADA1" d="M557.9,1064.8c0,5.7-2.7,8.4-8.4,8.4s-9.7-3.601-9.6-8.601c0.1-5.3,4.1-9.3,9.3-9.399
		C554.7,1055.1,557.9,1058.6,557.9,1064.8z"/>
	<path fill="#B0ADA1" d="M855.9,1097.3c0,6-3,8.9-9.101,8.9c-5.8,0-9-3.4-8.899-9.3c0.1-4.601,4.3-8.7,8.899-8.7
		C852.1,1088.2,855.9,1092,855.9,1097.3z"/>
	<path fill="#B0ADA1" d="M495,1073.2c-6,0-9.2-3.2-9.1-9.101c0-5,4.5-9.1,9.699-8.899c4.7,0.2,8.301,4.1,8.301,9
		C503.9,1070.3,501,1073.3,495,1073.2z"/>
	<path fill="#B0ADA1" d="M557.9,1097.7c0,5.7-2.9,8.5-8.801,8.6c-4.6,0-9-3.899-9.199-8.3c-0.2-5.2,3.899-9.7,8.899-9.7
		C555,1088.2,557.9,1091.2,557.9,1097.7z"/>
	<path fill="#B0ADA1" d="M495,1106.2c-5.3,0-9.2-3.8-9.1-9.101c0.1-4.6,4.1-8.8,8.699-8.899c5.801-0.2,9.301,3.1,9.301,8.899
		C503.9,1103.2,501,1106.2,495,1106.2z"/>
	<path fill="#B0ADA1" d="M1478.9,538.8c-0.101,4.7-4.5,9.3-8.9,9.4c-5.1,0.1-9.1-4.3-9.1-10c0-4.601,4.3-9,8.6-8.9
		C1474,529.3,1478.9,534.3,1478.9,538.8z"/>
	<path fill="#B0ADA1" d="M909.9,1097.2c0,6.1-2.9,9-9,9c-5.301,0-9.101-3.9-9-9.2c0.1-4.6,4.199-8.7,8.8-8.8
		C906.6,1088.1,909.9,1091.4,909.9,1097.2z"/>
	<path fill="#B0ADA1" d="M874.5,1303.2c-6.6,0-9.5-2.8-9.6-9c0-5,4.399-9.101,9.6-9c4.3,0.1,8.4,4.5,8.4,9.1
		C882.9,1300.2,880.1,1303.2,874.5,1303.2z"/>
	<path fill="#B0ADA1" d="M847.4,1303.2c-6.4,0-9.5-2.8-9.5-8.5c0-5.3,4.199-9.601,9.1-9.5c4.8,0.1,8.9,4.3,8.9,9.1
		C855.9,1300.3,853,1303.2,847.4,1303.2z"/>
	<path fill="#B0ADA1" d="M901.3,1220.2c5.9,0,8.601,2.7,8.601,8.7c0,5-4.101,9.399-8.601,9.3c-5.1-0.101-9.3-4-9.399-8.8
		C891.8,1223.4,895,1220.2,901.3,1220.2z"/>
	<path fill="#B0ADA1" d="M846.8,1220.2c6.101,0,9,2.899,9.101,8.899c0,4.601-4,9-8.4,9.101c-5.4,0.1-9.6-4-9.6-9.4
		C837.9,1223.2,841,1220.2,846.8,1220.2z"/>
	<path fill="#B0ADA1" d="M522.3,1220.2c5.8,0,8.601,2.6,8.601,8.2c0,5.899-3.301,10.1-8.4,9.8c-6.2-0.4-9.4-3.3-9.4-9.601
		C513,1224.4,515.7,1219.4,522.3,1220.2z"/>
	<path fill="#B0ADA1" d="M503.9,1228.4c0,5.399-3.9,9.899-8.601,9.8c-5.1-0.101-9.3-4-9.399-8.7c-0.101-6.1,3.1-9.2,9.399-9.3
		C501.1,1220.2,503.9,1222.9,503.9,1228.4z"/>
	<path fill="#B0ADA1" d="M684.4,1303.2c-5.7,0-8.4-2.7-8.5-8.3c0-5.7,3.6-9.7,8.6-9.7c5.3,0.1,9.3,4,9.4,9.3
		C694,1300,690.5,1303.2,684.4,1303.2z"/>
	<path fill="#B0ADA1" d="M882.9,1360.5c0,6-3.101,8.8-9.2,8.8c-5.101,0-8.7-3.8-8.8-9c0-4.8,4.199-9.2,9.1-9
		C878.6,1351.4,883.8,1354.3,882.9,1360.5z"/>
	<path fill="#B0ADA1" d="M855.9,1360.3c0,6.101-3,9-9.101,8.9c-5.1,0-8.8-3.7-8.899-8.8c-0.101-4.9,4-9.101,8.899-9.2
		C852.7,1351.2,855.9,1354.4,855.9,1360.3z"/>
	<path fill="#B0ADA1" d="M828.9,1360.2c0,6.1-2.9,9.1-9,9.1c-5.4,0-9-3.5-9-8.6c0-5.3,4.199-9.5,9.199-9.4
		C825.2,1351.3,828.9,1355.1,828.9,1360.2z"/>
	<path fill="#B0ADA1" d="M766,1369.2c-6.1,0-9.1-2.9-9.1-8.9c0-5.399,3.8-9.2,9.1-9.1c4.6,0,8.8,4.1,8.9,8.7
		C775.1,1365.8,771.8,1369.2,766,1369.2z"/>
	<path fill="#B0ADA1" d="M530.9,1360.4c0,6-3,8.899-9.101,8.899c-4.5,0-8.899-4.2-8.899-8.6c0-5.5,4.199-9.5,9.6-9.4
		C528.1,1351.3,530.9,1354.4,530.9,1360.4z"/>
	<path fill="#B0ADA1" d="M441.3,1303.2c-6.3,0-9.399-2.9-9.399-8.601c0-5.199,4.3-9.6,9.199-9.399c4.801,0.2,8.801,4.3,8.801,9.2
		C449.8,1300.3,447,1303.2,441.3,1303.2z"/>
	<path fill="#B0ADA1" d="M468.5,1303.2c-6.6,0-9.5-2.8-9.6-9c0-5,4.399-9.101,9.6-9c4.3,0.1,8.4,4.5,8.4,9.1
		C476.9,1300.2,474.1,1303.2,468.5,1303.2z"/>
	<path fill="#B0ADA1" d="M530.9,1294.7c0,5.7-2.7,8.2-8.2,8.6c-7.101,0.601-9.7-4.1-9.601-8.5c0.101-6.2,3.2-9.1,9.5-9.5
		C527.5,1285.1,530.9,1289.2,530.9,1294.7z"/>
	<path fill="#B0ADA1" d="M1551.1,383.2c-6.199,0-9.199-2.8-9.199-8.8c0-5.4,3.699-9.2,9-9.2c4.8,0,9,4.3,9,9.1
		C1559.8,380,1556.7,383.2,1551.1,383.2z"/>
	<path fill="#B0ADA1" d="M1523.8,383.2c-6.1,0-8.899-3-8.899-9.1c0-5.1,3.699-8.8,8.8-8.9c4.899-0.1,9.1,4.1,9.2,8.9
		C1532.9,380.1,1529.7,383.2,1523.8,383.2z"/>
	<path fill="#B0ADA1" d="M449.9,1360.1c0,6.101-2.9,9.101-8.9,9.101c-5.4,0-9.2-3.8-9.1-9.101c0-4.899,4.3-9.1,9.199-8.899
		C445.5,1351.5,450.8,1354.4,449.9,1360.1z"/>
	<path fill="#B0ADA1" d="M467.5,1369.2c-4.9-0.101-8.7-4.101-8.6-9.101c0.1-4.899,4.399-9.199,9.199-8.8c5.7,0.5,9.301,3.4,8.9,9.3
		C476.5,1366.5,473.8,1369.3,467.5,1369.2z"/>
	<path fill="#B0ADA1" d="M738.8,1154.2c5.3,0,9.2,3.8,9.101,9.1c-0.101,4.601-4.101,8.7-8.7,8.9c-5.8,0.1-9.2-3.101-9.3-8.9
		C729.9,1157.2,732.8,1154.2,738.8,1154.2z"/>
	<path fill="#B0ADA1" d="M756.9,1163.1c0-6,3-8.899,9.199-8.899c5.2,0,8.9,3.8,8.801,8.8c-0.101,5.1-4,9.2-8.9,9.2
		C760.7,1172.3,756.9,1168.5,756.9,1163.1z"/>
	<path fill="#B0ADA1" d="M828.9,1163.3c0,5.3-3.9,9.101-9.301,8.9c-4.6-0.101-8.699-4.3-8.699-8.9c-0.101-5.899,3.1-9.1,9-9.1
		C826,1154.2,828.9,1157.2,828.9,1163.3z"/>
	<path fill="#B0ADA1" d="M1721.9,473.1c0,6-3.101,9.101-9,9.101c-4.801,0-9-4.2-9-9.101c0-4.899,4.1-8.899,9-8.899
		C1719,464.2,1721.9,467.1,1721.9,473.1z"/>
	<path fill="#B0ADA1" d="M1694.9,473c1,6.2-4.4,9-9,9.2c-4.801,0.2-9.101-4.2-9-9c0-5.101,3.699-8.9,8.8-8.9
		C1691.9,464.2,1694.8,467,1694.9,473z"/>
	<path fill="#B0ADA1" d="M1667.9,473c0,5.5-3.601,9.2-9,9.3c-4.801,0-9.101-4.2-9-9.1c0-5.7,3.199-8.9,8.699-8.9
		C1664.8,464.2,1667.8,467,1667.9,473z"/>
	<path fill="#B0ADA1" d="M1640.9,473.3c0,5.101-3.7,8.8-8.801,8.9c-4.899,0.1-9.1-4.101-9.199-8.9c0-5.899,3.199-9.1,9.1-9.1
		C1638,464.3,1640.9,467.2,1640.9,473.3z"/>
	<path fill="#B0ADA1" d="M1605,464.2c5.9,0,9,3,8.9,8.7c-0.101,5.199-3.9,9.199-8.801,9.3c-5.1,0.1-9.199-4.2-9.199-9.5
		C1595.9,467.1,1599,464.2,1605,464.2z"/>
	<path fill="#B0ADA1" d="M1586.9,472.9c0,5.399-4.2,9.5-9.301,9.399c-4.8-0.1-8.699-4.399-8.699-9.5c0-5.6,3.1-8.5,9-8.5
		C1583.9,464.2,1586.9,467.2,1586.9,472.9z"/>
	<path fill="#B0ADA1" d="M1514.9,473.2c0-6.101,2.899-9,9-9c5.8,0,9.1,3.3,9,9.2c-0.101,4.6-4.2,8.699-8.801,8.8
		C1518.8,482.3,1514.9,478.5,1514.9,473.2z"/>
	<path fill="#B0ADA1" d="M738.8,1187.2c5.9,0,9.101,3.2,9.101,9.1c0,4.8-4.301,9-9.2,8.9c-5.101-0.101-8.8-3.8-8.8-8.9
		C729.9,1190.2,732.8,1187.2,738.8,1187.2z"/>
	<path fill="#B0ADA1" d="M792.7,1187.2c6,0,9.2,2.8,9.2,8.399c0,5.4-3.9,9.601-9,9.601c-4.9,0-8.9-4.101-9-9.2
		C783.8,1190.4,786.9,1187.3,792.7,1187.2z"/>
	<path fill="#B0ADA1" d="M847.1,1187.2c6,0,8.801,3.1,8.801,9.2c0,5.1-3.801,8.699-9,8.8c-4.801,0-9.2-4.2-9-9.101
		C838.1,1191.5,841,1186.3,847.1,1187.2z"/>
	<path fill="#B0ADA1" d="M873.7,1187.2c6.2-0.101,9.2,2.8,9.2,8.8c0,5.4-3.601,9.2-9,9.2c-4.801,0-9-4.3-9-9.101
		C865,1190.5,868.1,1187.3,873.7,1187.2z"/>
	<path fill="#B0ADA1" d="M901,1187.2c6,0,8.9,3,8.9,9.1c0,5.8-3.4,9-9.301,8.9c-4.6-0.101-8.699-4.3-8.699-8.9
		C891.8,1191.1,895.7,1187.2,901,1187.2z"/>
	<path fill="#B0ADA1" d="M530.9,1393.1c0,6-2.9,9.101-8.5,9.101c-5.301,0-9.601-4.101-9.5-9.2c0.1-4.9,4.199-8.8,9.3-8.8
		C527.9,1384.2,530.9,1387.3,530.9,1393.1z"/>
	<path fill="#B0ADA1" d="M1694.9,407.3c0,5.9-3,9-8.7,8.9c-5.2-0.101-9.2-3.9-9.3-8.8c-0.101-5.101,4.199-9.2,9.5-9.2
		C1692,398.2,1694.9,401.4,1694.9,407.3z"/>
	<path fill="#B0ADA1" d="M1640.9,407.3c0,6.101-2.9,9-9,9c-5.301,0-9.101-3.899-8.9-9.3c0.1-4.6,4.2-8.7,8.9-8.7
		C1637.7,398.2,1640.9,401.4,1640.9,407.3z"/>
	<path fill="#B0ADA1" d="M1541.9,440.1c0-6,3-8.899,9.1-8.899c5.1,0,8.8,3.7,8.9,8.8c0.1,4.9-4.101,9.1-8.9,9.2
		C1545.1,449.3,1541.9,446.1,1541.9,440.1z"/>
	<path fill="#B0ADA1" d="M1469.2,431.2c5.399-0.101,9.7,3.8,9.7,8.899c0,4.9-4.101,8.9-9.101,9.101c-5.7,0.1-8.8-2.9-8.899-8.7
		C1460.8,434.5,1463.7,431.3,1469.2,431.2z"/>
	<path fill="#B0ADA1" d="M936.9,1393.1c0,6-2.9,9.101-8.4,9.2c-5.4,0-9.6-4-9.6-9.1c0-4.9,4.1-8.8,9.199-8.9
		C933.8,1384.1,936.9,1387.2,936.9,1393.1z"/>
	<path fill="#B0ADA1" d="M909.9,1393.3c0,5.9-3,9-8.7,8.9c-5.2-0.101-9.2-3.9-9.3-8.8c-0.101-5.101,4.199-9.2,9.5-9.2
		C907,1384.2,909.9,1387.4,909.9,1393.3z"/>
	<path fill="#B0ADA1" d="M621.9,1195.7c0-5.9,2.699-8.5,8.8-8.5c4.899,0,9,4,9.2,8.8c0.199,4.7-4.2,9.2-8.9,9.2
		C624.7,1205.3,621.9,1202.2,621.9,1195.7z"/>
	<path fill="#B0ADA1" d="M1198.8,843.2c-5.899,0-9-3-8.899-8.7c0.1-5.2,3.899-9.2,8.8-9.3c5.1-0.101,9.2,4.2,9.2,9.5
		C1207.9,840.3,1204.8,843.3,1198.8,843.2z"/>
	<path fill="#B0ADA1" d="M1172,843.2c-6,0-9.1-2.9-9.1-8.5c0-5.4,4-9.601,9.1-9.5c4.9,0.1,8.8,4.1,8.9,9.3
		C1181,840.2,1177.9,843.2,1172,843.2z"/>
	<path fill="#B0ADA1" d="M1108.9,834c0-5.1,3.8-8.7,9-8.8c4.8,0,9.199,4.2,9,9.1c-0.2,4.601-3,9.601-9.2,9
		C1111.7,842.8,1108.8,840.2,1108.9,834z"/>
	<path fill="#B0ADA1" d="M1091.1,843.2c-6.199,0-9.199-2.8-9.199-8.8c0-5.801,3.1-9.2,8.5-9.2c5.199,0,9.6,4.1,9.5,9.1
		C1099.8,840,1096.7,843.2,1091.1,843.2z"/>
	<path fill="#B0ADA1" d="M1009.4,843.2c-5,0-9.5-4-9.5-8.5s5-9.5,9.5-9.5c4.699,0,9.3,4.399,9.399,8.899
		C1019,839,1014.7,843.2,1009.4,843.2z"/>
	<path fill="#B0ADA1" d="M982.4,843.2c-5.301,0-9.601-4.101-9.5-9c0.1-4.5,4.699-8.9,9.399-9c4.5-0.101,9.5,4.8,9.601,9.399
		C992,839.1,987.4,843.2,982.4,843.2z"/>
	<path fill="#B0ADA1" d="M936.9,834.7c0,5.7-2.7,8.5-8.301,8.5c-5.8,0-9.8-3.5-9.699-8.5c0-5.3,3.899-9.3,9.199-9.5
		C933.6,825.1,936.9,828.6,936.9,834.7z"/>
	<path fill="#B0ADA1" d="M793,843.2c-6,0-9.1-2.9-9.1-8.5c0-5.3,4.1-9.601,9.199-9.5c4.9,0.1,8.801,4.2,8.801,9.3
		C802,840.2,798.9,843.2,793,843.2z"/>
	<path fill="#B0ADA1" d="M766,843.2c-6,0-9.1-2.9-9.1-8.5c0-5.3,4.1-9.601,9.1-9.5c4.9,0.1,8.8,4.2,8.8,9.3
		C775,840.2,771.9,843.2,766,843.2z"/>
	<path fill="#B0ADA1" d="M738.7,843.2c-6,0-8.8-3-8.8-9.2c0-4.8,4.3-8.9,9.1-8.8c4.8,0.1,9,4.3,8.9,9.2
		C747.8,840.5,744.8,843.3,738.7,843.2z"/>
	<path fill="#B0ADA1" d="M711.8,843.2c-6.1,0-9-3-8.899-9.101c0-5.1,3.699-8.8,8.8-8.899c4.899-0.101,9.1,4.1,9.2,8.899
		C720.9,840,717.7,843.2,711.8,843.2z"/>
	<path fill="#B0ADA1" d="M1361.1,843.2c-5.1,0-9.399-4.4-9.199-9.3c0.199-4.801,4.399-8.7,9.399-8.7c4.5-0.101,10,5.1,9.4,9.3
		C1369.9,839.9,1366.5,844.4,1361.1,843.2z"/>
	<path fill="#B0ADA1" d="M1342.9,834.8c0,5.7-2.7,8.5-8.301,8.5c-5.699,0-9.699-3.6-9.699-8.6c0-5.3,4-9.3,9.3-9.4
		C1339.7,825.1,1342.9,828.6,1342.9,834.8z"/>
	<path fill="#B0ADA1" d="M1280.1,843.2c-6.1,0.899-9-4.101-9.199-8.9c-0.2-4.8,4.1-9.1,9-9.1c5.199,0,8.899,3.6,9,8.7
		C1289,840.2,1286.1,843.2,1280.1,843.2z"/>
	<path fill="#B0ADA1" d="M1460.9,670.2c0-5.9,3-9,8.6-9c5.1,0,9.3,3.899,9.4,8.8c0.1,5.1-4.101,9.2-9.4,9.2
		C1463.8,679.3,1460.9,676.2,1460.9,670.2z"/>
	<path fill="#B0ADA1" d="M1487.9,669.5c0.199-5.4,3.3-8.4,8.8-8.3c5.3,0.1,9.399,4.399,9.2,9.5c-0.2,5-4.7,8.7-10.2,8.5
		C1490.4,679,1487.7,675.6,1487.9,669.5z"/>
	<path fill="#B0ADA1" d="M1523.6,661.2c5.301,0.1,9.5,4.3,9.301,9.399c-0.2,4.801-4.4,8.601-9.601,8.601c-5.6,0-8.5-3.2-8.399-9.101
		C1514.9,664.2,1518,661.2,1523.6,661.2z"/>
	<path fill="#B0ADA1" d="M1694.9,670.3c0,5.9-3,9-8.601,8.9c-5.1,0-9.3-3.9-9.399-8.8c-0.101-5.101,4.1-9.2,9.5-9.2
		C1692,661.2,1694.9,664.3,1694.9,670.3z"/>
	<path fill="#B0ADA1" d="M1721.9,670.4c0,5.8-3.101,8.899-8.801,8.8c-5.1-0.101-9.199-4-9.199-8.9c0-5.1,4.199-9.1,9.6-9.1
		C1719.1,661.3,1721.9,664.4,1721.9,670.4z"/>
	<path fill="#B0ADA1" d="M657.3,843.2c-5.7,0-8.399-2.7-8.399-8.4c0-6.2,3.1-9.7,8.6-9.6c5.3,0.1,9.3,4.1,9.4,9.3
		C667,839.6,662.9,843.2,657.3,843.2z"/>
	<path fill="#B0ADA1" d="M1288.9,670c0,6-2.801,9.2-8.4,9.2c-5.4,0-9.6-4-9.6-9.101c0-4.899,4.1-8.899,9.199-8.899
		C1285.8,661.1,1288.9,664.2,1288.9,670z"/>
	<path fill="#B0ADA1" d="M1315.9,670.1c0,6-2.9,9.101-8.4,9.101c-5.4,0-9.6-4-9.6-9.101c0.1-4.899,4.1-8.8,9.3-8.899
		C1312.8,661.2,1315.9,664.2,1315.9,670.1z"/>
	<path fill="#B0ADA1" d="M387.1,1336.2c-6,0-9.199-2.8-9.199-8.4c0-5.399,3.899-9.6,9-9.6c4.899,0,8.899,4.1,9,9.2
		C396,1333.1,392.9,1336.2,387.1,1336.2z"/>
	<path fill="#B0ADA1" d="M1261.9,637.4c0,6-3,8.8-9.2,8.8c-5,0-8.7-3.8-8.8-9c0-4.8,4.199-9.2,9-9
		C1257.5,628.4,1262.8,631.3,1261.9,637.4z"/>
	<path fill="#B0ADA1" d="M1342.9,867.9c0,5.5-3.101,8.399-9,8.399c-4.601,0-9-4.1-9-8.5c0-5.3,4.1-9.6,9.1-9.5
		C1340.2,858.3,1342.9,861.2,1342.9,867.9z"/>
	<path fill="#B0ADA1" d="M1315.9,867.3c0,6-3,8.9-9.101,8.9c-4.899,0-8.899-4.101-8.899-9c0-4.8,4.199-9,9.1-9
		C1313,858.3,1315.9,861.3,1315.9,867.3z"/>
	<path fill="#B0ADA1" d="M1288.9,867.1c0,6.101-2.9,9.101-8.9,9.101c-5.3,0-9.2-3.8-9.1-9.101c0.1-4.6,4.1-8.699,8.699-8.899
		C1285.5,858.1,1288.9,861.4,1288.9,867.1z"/>
	<path fill="#B0ADA1" d="M1261.9,867.4c0,6-3,8.8-9.2,8.8c-5,0-8.7-3.8-8.8-8.9c0-4.8,4.199-9.2,9-9
		C1257.5,858.4,1262.8,861.3,1261.9,867.4z"/>
	<path fill="#B0ADA1" d="M1433.9,637.5c0-6.3,2.899-9.4,8.8-9.3c5,0.1,9.1,4,9.2,8.899c0.1,4.9-4.301,9.2-9.301,9.101
		C1436.8,646.2,1433.9,643.2,1433.9,637.5z"/>
	<path fill="#B0ADA1" d="M1145,876.2c-6.1,0-9.1-2.9-9.1-8.9c0-5.3,3.8-9.2,9.1-9.1c4.6,0.1,8.7,4.1,8.9,8.7
		C1154,872.8,1150.8,876.2,1145,876.2z"/>
	<path fill="#B0ADA1" d="M1117.9,876.2c-6.101,0-9-2.9-9-9c0-5.9,3.199-9.101,9.1-9c4.6,0.1,8.7,4.1,8.9,8.7
		C1127,872.3,1123.2,876.2,1117.9,876.2z"/>
	<path fill="#B0ADA1" d="M1748.9,637.7c0,5.399-3,8.399-8.301,8.5c-5.1,0.1-9.6-3.9-9.6-8.4c-0.1-5.5,4-9.6,9.5-9.6
		C1746.1,628.2,1748.9,631.4,1748.9,637.7z"/>
	<path fill="#B0ADA1" d="M1524,646.2c-6.1,0-9.1-2.9-9.1-8.9c0-5.899,3.199-9.1,9.1-9.1c4.8,0,9,4.3,8.9,9.2
		C1532.8,642.5,1529.1,646.2,1524,646.2z"/>
	<path fill="#B0ADA1" d="M1027.9,867.7c0-6.4,2.8-9.5,8.6-9.5c5.2,0,9.6,4.3,9.4,9.2c-0.2,4.8-4.301,8.8-9.2,8.8
		C1030.8,876.2,1027.9,873.4,1027.9,867.7z"/>
	<path fill="#B0ADA1" d="M1551.1,646.2c-6.1,0-9.1-2.9-9.199-8.9c0-5.399,3.699-9.2,9.1-9.1c4.8,0,9.1,4.3,8.9,9.2
		C1559.7,641.8,1556.8,647.1,1551.1,646.2z"/>
	<path fill="#B0ADA1" d="M963.9,867.7c0,5.7-2.9,8.5-8.801,8.6c-4.8,0-9-3.899-9.199-8.8c-0.2-4.9,4.199-9.2,9.399-9.2
		C961,858.2,963.9,861.3,963.9,867.7z"/>
	<path fill="#B0ADA1" d="M882.9,867.1c0,6.101-2.9,9.101-8.9,9.101c-5.3,0-9.2-3.8-9.1-9.101c0.1-4.6,4.1-8.8,8.699-8.899
		C879.5,858.1,882.9,861.4,882.9,867.1z"/>
	<path fill="#B0ADA1" d="M855.9,867.1c0,6.101-2.9,9.101-8.9,9.101c-5.9,0-9.1-3.2-9.1-9.101c0-4.8,4.3-9,9.199-8.899
		C852.2,858.3,855.9,862,855.9,867.1z"/>
	<path fill="#B0ADA1" d="M793.1,876.2c-6,0-9.199-2.8-9.199-8.4c0-5.399,3.899-9.6,9-9.6c4.899,0,8.899,4.1,9,9.2
		C802,873.1,798.9,876.2,793.1,876.2z"/>
	<path fill="#B0ADA1" d="M765.9,876.2c-6.101,0-9-2.9-9-9c0-5.3,3.899-9.101,9.199-9c4.601,0.1,8.7,4.2,8.801,8.8
		C775,872.9,771.8,876.2,765.9,876.2z"/>
	<path fill="#B0ADA1" d="M738.9,876.2c-6.101,0-9-2.9-9-9c0-5.3,3.899-9.101,9.199-9c4.601,0.1,8.7,4.2,8.801,8.8
		C748,872.9,744.8,876.2,738.9,876.2z"/>
	<path fill="#B0ADA1" d="M711.9,876.2c-6.101,0-9-2.9-9-9c0-5.8,3.3-9.101,9.199-9c4.601,0.1,8.7,4.2,8.801,8.8
		C721,872.3,717.2,876.2,711.9,876.2z"/>
	<path fill="#B0ADA1" d="M685.1,876.2c-6.199,0-9.1-2.8-9.199-8.8c0-6.101,2.8-9.101,8.8-9.2c4.899-0.101,9.1,4,9.2,8.899
		C694,872,689.9,876.2,685.1,876.2z"/>
	<path fill="#B0ADA1" d="M621.9,867.4c0-6.2,3-9.301,8.8-9.2c5,0.1,9.1,4.2,9.1,9s-4.2,9-8.899,9
		C624.8,876.2,621.9,873.4,621.9,867.4z"/>
	<path fill="#B0ADA1" d="M1658.8,646.2c-5.3,0-9.1-3.9-8.899-9.3c0.1-4.601,4.3-8.7,8.899-8.7c5.9-0.101,9.101,3.1,9.101,9
		C1667.9,643.4,1664.9,646.3,1658.8,646.2z"/>
	<path fill="#B0ADA1" d="M1721.9,637.1c0,6.101-2.9,9.101-8.9,9.101c-4.6,0-9-4-9.1-8.3c-0.2-5.4,4-9.7,9.399-9.7
		C1718.9,628.2,1721.9,631.3,1721.9,637.1z"/>
	<path fill="#B0ADA1" d="M503.9,867.2c0,6.1-2.9,9-9,9c-5.301,0-9.101-3.9-9-9.2c0.1-4.6,4.199-8.7,8.8-8.8
		C500.5,858.1,503.9,861.4,503.9,867.2z"/>
	<path fill="#B0ADA1" d="M476.9,867.1c0,6.101-2.9,9.101-8.9,9.101c-5.3,0-9.2-3.8-9.1-9.101c0.1-4.6,4.1-8.8,8.699-8.899
		C473.4,858.1,476.9,861.4,476.9,867.1z"/>
	<path fill="#B0ADA1" d="M1632.1,694.2c6,0,8.801,3,8.801,9.2c0,5-3.801,8.699-8.9,8.8c-4.8,0-9.2-4.2-9-9
		C1623.1,698.7,1625.9,693.3,1632.1,694.2z"/>
	<path fill="#B0ADA1" d="M1694.9,703.5c0,5.6-3.2,8.7-8.9,8.8c-4.8,0.101-9.1-4.2-9.1-9c0-5.399,3.8-9,9.199-9
		C1692.1,694.3,1694.9,697.3,1694.9,703.5z"/>
	<path fill="#B0ADA1" d="M963.9,1327.6c0,6-2.7,8.601-8.601,8.601c-5,0-9.399-4-9.399-8.601c0-5.3,4.199-9.699,9.199-9.399
		C960.2,1318.6,964.8,1321.5,963.9,1327.6z"/>
	<path fill="#B0ADA1" d="M1008.9,759.3c4.899,0,9.899,4.7,9.899,9.4c0,4.2-4.8,9.399-8.8,9.5c-4.6,0.1-9.8-4.4-10-8.8
		C999.8,765.1,1004.8,759.4,1008.9,759.3z"/>
	<path fill="#B0ADA1" d="M1712.8,694.2c6.101,0,9.101,2.899,9.101,8.899c0,6.101-2.9,9-8.9,9.101c-4.8,0-9.1-4.2-9.1-9
		C1703.9,698.3,1707.9,694.2,1712.8,694.2z"/>
	<path fill="#B0ADA1" d="M1748.9,703c0,6.2-3,9.3-8.801,9.2c-5-0.101-9.1-4.101-9.199-8.9c0-4.8,4.199-9,8.899-9.1
		C1746,694.2,1748.9,697.1,1748.9,703z"/>
	<path fill="#B0ADA1" d="M1640.9,736c0,4.9-4.101,9.4-8.601,9.3c-5.3-0.1-9.3-4-9.399-9.2c-0.101-5.6,3-8.699,8.699-8.8
		C1637.8,727.2,1640.8,730,1640.9,736z"/>
	<path fill="#B0ADA1" d="M1604.8,727.2c6,0,9.101,2.899,9.101,8.5c0,5.3-4.101,9.6-9.101,9.5c-4.899-0.101-8.8-4.2-8.8-9.3
		C1595.8,730.3,1598.9,727.3,1604.8,727.2z"/>
	<path fill="#B0ADA1" d="M982.4,810.2c-6,0-9.7-3.4-9.5-8.7c0.199-4.6,5.1-9.4,9.5-9.3c4.5,0,9.399,5,9.399,9.5
		C991.9,806.2,987.4,810.2,982.4,810.2z"/>
	<path fill="#B0ADA1" d="M711.3,810.2c-5.899,0-8.399-2.7-8.399-8.9c0-4.899,4-9,8.899-9.1c4.8-0.101,9.101,4.2,9.101,9
		C720.9,807.5,717.9,810.2,711.3,810.2z"/>
	<path fill="#B0ADA1" d="M476.9,1327.5c0,6-3,8.8-9.2,8.8c-5.601,0-8.7-3.2-8.8-8.899c0-4.801,4.199-9.101,9-9.101
		C473.3,1318.2,476.9,1322,476.9,1327.5z"/>
	<path fill="#B0ADA1" d="M557.9,1327.5c0,6-2.601,8.7-8.5,8.7c-5,0-9.5-4-9.5-8.5c0-5.3,4.1-9.601,9.1-9.5
		C554.9,1318.3,557.9,1321.4,557.9,1327.5z"/>
	<path fill="#B0ADA1" d="M1253.5,810.2c-6.4,0-9.5-2.8-9.6-8.5c0-5.3,4.1-9.601,9.1-9.5c4.8,0.1,8.9,4.2,8.9,9.1
		C1261.9,807.2,1259.1,810.2,1253.5,810.2z"/>
	<path fill="#B0ADA1" d="M1261.9,703.3c0,5.101-3.7,8.8-8.801,8.9c-4.899,0.1-9.1-4-9.199-8.9c-0.101-5.899,3.1-9.1,9.1-9.1
		S1261.9,697.2,1261.9,703.3z"/>
	<path fill="#B0ADA1" d="M1288.9,703.2c0,5.899-3.2,9.1-9.101,9.1c-4.8,0-9-4.3-8.899-9.2c0.1-5.1,3.8-8.8,8.899-8.8
		C1285.9,694.2,1288.9,697.1,1288.9,703.2z"/>
	<path fill="#B0ADA1" d="M909.9,1327.2c0,6.1-2.9,9-9,9c-5.301,0-9.101-3.9-9-9.2c0.1-4.6,4.199-8.7,8.8-8.8
		C906.6,1318.1,909.9,1321.4,909.9,1327.2z"/>
	<path fill="#B0ADA1" d="M1433.9,702.7c0-5.601,3-8.5,8.899-8.5c4.601,0,9,4,9.101,8.399c0.1,5.2-4,9.601-9,9.601
		C1436.7,712.2,1433.9,709.2,1433.9,702.7z"/>
	<path fill="#B0ADA1" d="M1487.9,703c0-6,3-8.8,9.199-8.8c5,0,8.7,3.8,8.801,8.899c0,4.801-4.2,9.2-9,9
		C1492.3,712.1,1486.9,709.2,1487.9,703z"/>
	<path fill="#B0ADA1" d="M738.8,1336.2c-6,0-8.899-3-8.899-9.101c0-5.1,3.699-8.8,8.8-8.899c4.899-0.101,9.1,4.1,9.2,8.899
		C747.9,1333.1,744.7,1336.3,738.8,1336.2z"/>
	<path fill="#B0ADA1" d="M792.8,1336.2c-5.899,0-9-3-8.899-8.7c0.1-5.2,3.899-9.2,8.8-9.3c5.1-0.101,9.2,4.2,9.2,9.5
		C801.9,1333.3,798.8,1336.2,792.8,1336.2z"/>
	<path fill="#B0ADA1" d="M847.1,1336.2c-6,0-9.199-3.101-9.199-9c0-4.8,4.3-9,9.1-9c5.1,0.1,8.9,3.8,8.9,8.8
		C855.9,1333.2,853.1,1336.2,847.1,1336.2z"/>
	<path fill="#B0ADA1" d="M576.3,990.2c4.8,0,9.3,3.8,9.4,8c0.1,4.899-4.5,10-9.3,10c-4.5,0.1-9.801-5-9.601-9.2
		C567.1,993.1,570.2,990.2,576.3,990.2z"/>
	<path fill="#B0ADA1" d="M495.2,990.2c6,0,8.7,2.7,8.6,8.6c0,5-4,9.4-8.6,9.4c-5.3,0-9.7-4.2-9.4-9.2
		C486.3,994,489.2,989.3,495.2,990.2z"/>
	<path fill="#B0ADA1" d="M305.8,1450.2c6,0,9.2,3.2,9.101,9.1c0,5-4.5,9.101-9.7,8.9c-4.7-0.2-8.3-4.101-8.3-9
		C296.9,1453.1,299.8,1450.2,305.8,1450.2z"/>
	<path fill="#B0ADA1" d="M333,1450.2c6,0,9,3.1,8.9,9.2c-0.101,4.8-4.4,9-9.2,8.8c-4.8-0.101-8.8-4.3-8.8-9.101
		C323.9,1453.1,326.9,1450.2,333,1450.2z"/>
	<path fill="#B0ADA1" d="M395.9,1458.7c0,5.399-4,9.6-9.101,9.5c-4.899-0.101-8.8-4.101-8.899-9.3c-0.101-5.7,3-8.7,8.899-8.7
		C392.7,1450.2,395.9,1453.1,395.9,1458.7z"/>
	<path fill="#B0ADA1" d="M982.4,990.2c5,0,9.399,4,9.5,8.5c0,4.5-4.9,9.399-9.4,9.5c-4.5,0.1-9.8-5-9.6-9.3
		C973.1,993.7,976.8,990.2,982.4,990.2z"/>
	<path fill="#B0ADA1" d="M882.9,999.4c0,4.5-4.301,8.899-8.7,8.8c-5.3-0.101-9.601-4.3-9.3-9.3c0.5-7.301,4.399-9.101,9.8-8.801
		C880.2,990.5,882.9,993.4,882.9,999.4z"/>
	<path fill="#B0ADA1" d="M847.4,990.2c5.699,0,8.5,2.899,8.5,8.899c0,4.801-4,9-8.9,9.101c-5,0.1-9.1-4.2-9.1-9.5
		C837.9,993,841,990.2,847.4,990.2z"/>
	<path fill="#B0ADA1" d="M530.9,1032c0,4.8-3.9,9-8.301,9.2c-4.399,0.2-9.5-4.7-9.699-9.3c-0.101-4.9,4.5-9.801,9.199-9.7
		C527.1,1022.4,530.9,1026.6,530.9,1032z"/>
	<path fill="#B0ADA1" d="M909.9,1426.3c0,5.8-3.4,9-9.301,8.9c-4.6-0.101-8.699-4.2-8.699-8.9c-0.101-5.3,3.8-9.1,9.1-9.1
		C907,1417.3,909.9,1420.2,909.9,1426.3z"/>
	<path fill="#B0ADA1" d="M936.9,1425.8c0,6.5-2.9,9.5-9.101,9.4c-4.8-0.101-8.7-4.2-8.899-9.3c-0.101-4.5,4.3-8.801,9.199-8.7
		C934,1417.3,936.9,1420.1,936.9,1425.8z"/>
	<path fill="#B0ADA1" d="M963.9,1426c0,6.3-3,9.3-8.801,9.2c-5-0.101-9.3-4.101-9.199-8.9c0.1-4.2,4-9.899,9.3-9.2
		C961,1417.8,963.9,1420.3,963.9,1426z"/>
	<path fill="#B0ADA1" d="M1632.1,580.2c-6.3,0-9.3-2.9-9.199-8.8c0.1-5,4.1-9.301,8.899-9.2c4.2,0.1,9.9,4.1,9.2,9.3
		C1640.3,577.3,1637.9,580.3,1632.1,580.2z"/>
	<path fill="#B0ADA1" d="M1659,580.2c-6,0-9.1-2.8-9.1-8.4c0-5.3,4-9.6,9-9.6c4.8,0,9,4.2,9,9C1667.9,577.3,1665,580.3,1659,580.2z"
		/>
	<path fill="#B0ADA1" d="M1713.2,580.2c-5.9,0-9.2-3-9.3-8.4c-0.101-5.399,4.199-9.7,9.6-9.6c5.1,0.1,8.4,4,8.4,9.899
		C1721.9,577.6,1719,580.3,1713.2,580.2z"/>
	<path fill="#B0ADA1" d="M1469.2,580.2c-5.601,0-8.3-2.8-8.3-8.5c0-5.601,3.699-9.7,8.8-9.5c5.3,0.2,9.2,4.2,9.2,9.5
		C1478.9,577.2,1475.5,580.3,1469.2,580.2z"/>
	<path fill="#B0ADA1" d="M1487.9,571.8c0-5,3.899-9.5,8.399-9.5c5.3,0,9.8,4.101,9.5,9.101s-3,9.6-9.7,9
		C1490.6,579.8,1487.9,577.4,1487.9,571.8z"/>
	<path fill="#B0ADA1" d="M1523.2,580.2c-5.5,0-8.3-3.101-8.3-9.101c0-4.6,4.199-8.899,8.6-8.899c5.3,0,9.7,4.2,9.4,9.2
		C1532.5,578.9,1528.3,580.9,1523.2,580.2z"/>
	<path fill="#B0ADA1" d="M1667.9,604.4c0,6-3,8.899-9.2,8.8c-5.601,0-8.7-3.2-8.8-8.9c-0.101-4.8,4.1-9.1,9-9.1
		C1664.2,595.2,1667.9,599,1667.9,604.4z"/>
	<path fill="#B0ADA1" d="M1721.9,604.7c0,5.7-2.9,8.5-8.9,8.5c-5.1,0-9.2-3.8-9.1-8.601c0.1-5.1,4-9.3,8.8-9.399
		C1718.8,595.1,1721.9,598.3,1721.9,604.7z"/>
	<path fill="#B0ADA1" d="M494.8,924.2c6.101,0,9.101,2.899,9.101,8.899c0,5.801-3,9-8.4,9.101c-5.4,0-9.6-3.9-9.6-9
		C485.9,928.3,490,924.2,494.8,924.2z"/>
	<path fill="#B0ADA1" d="M1748.9,604.8c0,5.9-2.7,8.5-8.801,8.4c-4.899,0-9.3-4.3-9.199-8.8c0.199-5.101,4.1-9.2,8.899-9.2
		C1745.9,595.2,1748.9,598.3,1748.9,604.8z"/>
	<path fill="#B0ADA1" d="M882.9,900.4c0,5.8-3.101,8.899-8.801,8.8c-5.1-0.101-9.199-4-9.199-8.9c0-5.1,4.199-9.1,9.6-9.1
		C880.1,891.3,882.9,894.4,882.9,900.4z"/>
	<path fill="#B0ADA1" d="M855.9,900.5c-0.101,5.8-3.2,8.9-8.801,8.8c-5.1-0.1-9.199-4.1-9.199-9c0-5.1,4.199-9.1,9.699-9
		C853.1,891.3,855.9,894.5,855.9,900.5z"/>
	<path fill="#B0ADA1" d="M711.3,891.2c5.4,0,9.601,3.899,9.601,9c0,4.899-4.101,8.899-9.2,9c-5.7,0.1-8.8-3-8.8-8.8
		C702.8,894.4,705.7,891.3,711.3,891.2z"/>
	<path fill="#B0ADA1" d="M684.5,891.2c5.3,0,9.5,4.2,9.4,9.3c-0.101,4.8-4.301,8.7-9.4,8.7c-5.6,0-8.6-3.101-8.6-9
		C675.9,894.3,678.9,891.2,684.5,891.2z"/>
	<path fill="#B0ADA1" d="M530.9,900.2c0,5.899-2.9,9-8.601,9c-5.3,0-9.5-4.2-9.399-9.2c0.1-4.8,4.3-8.7,9.399-8.8
		C527.9,891.2,530.9,894.3,530.9,900.2z"/>
	<path fill="#B0ADA1" d="M503.9,900c0.1,6-2.801,9.2-8.301,9.2c-5.399,0.1-9.699-3.9-9.6-9c0-4.9,4.1-8.9,9.2-9
		C500.8,891.1,503.8,894.2,503.9,900z"/>
	<path fill="#B0ADA1" d="M1315.9,900c0.1,6-2.801,9.2-8.301,9.2c-5.399,0.1-9.699-3.9-9.6-9c0-4.9,4.1-8.9,9.2-9
		C1312.8,891.1,1315.8,894.2,1315.9,900z"/>
	<path fill="#B0ADA1" d="M1288.9,900.1c0,6-2.801,9.101-8.4,9.2c-5.4,0-9.6-4-9.6-9.1c0-4.9,4.1-8.8,9.199-8.9
		C1285.8,891.1,1288.9,894.2,1288.9,900.1z"/>
	<path fill="#B0ADA1" d="M1261.9,900.3c0,5.9-3,9-8.601,9c-5.1,0-9.3-3.899-9.399-8.8c-0.101-5.1,4.1-9.2,9.399-9.2
		C1259,891.2,1261.9,894.3,1261.9,900.3z"/>
	<path fill="#B0ADA1" d="M1171.8,909.2c-6,0-8.899-3.101-8.899-9.2c0-5,3.6-8.7,8.399-8.8c5.5,0,9.5,3.6,9.601,8.8
		C1181,905.4,1177.1,909.3,1171.8,909.2z"/>
	<path fill="#B0ADA1" d="M1117.6,891.2c5.4,0.1,9.5,4.2,9.301,9.3c-0.2,4.8-4.4,8.7-9.5,8.7c-5.601,0-8.5-3.101-8.5-9.101
		C1108.9,894.3,1111.9,891.2,1117.6,891.2z"/>
	<path fill="#B0ADA1" d="M1081.9,900.1c0-5.899,3.1-8.899,8.699-8.899c5.101,0.1,9.2,4,9.301,8.899c0.1,5.101-4.2,9.101-9.601,9.101
		C1084.8,909.2,1081.9,906.1,1081.9,900.1z"/>
	<path fill="#B0ADA1" d="M1054.9,900.4c0-6,2.899-9.101,8.399-9.101c5.4,0,9.601,4,9.601,9.101c-0.101,4.899-4.101,8.8-9.301,8.899
		C1058,909.3,1054.9,906.2,1054.9,900.4z"/>
	<path fill="#B0ADA1" d="M909.9,900.3c0,5.9-3,9-8.601,8.9c-5.1,0-9.3-3.9-9.399-8.8c-0.101-5.101,4.1-9.2,9.5-9.2
		C907,891.2,909.9,894.3,909.9,900.3z"/>
	<path fill="#B0ADA1" d="M936.9,966c0,5.9-3.101,9.5-8.5,9.2c-6.2-0.4-9.101-3.3-9.4-9.601c-0.2-5,4-8.399,9.9-8.3
		C934.3,957.3,936.9,960.1,936.9,966z"/>
	<path fill="#B0ADA1" d="M873.8,957.2c6.101,0,9.101,2.899,9.101,8.899c0,5.301-3.801,9.2-9.101,9.101
		c-4.6-0.101-8.7-4.101-8.899-8.7C864.7,960.7,868,957.3,873.8,957.2z"/>
	<path fill="#B0ADA1" d="M855.9,966.1c0,4.9-3.9,9-8.801,9.101c-4.899,0.1-9.1-4-9.199-8.9c-0.101-6,2.899-9.1,8.899-9.1
		C852.9,957.2,855.9,960.1,855.9,966.1z"/>
	<path fill="#B0ADA1" d="M819.7,957.2c6-0.101,9.2,2.8,9.2,8.3c0.1,5.4-3.9,9.7-9,9.7c-4.9,0-8.9-4-9-9.2
		C810.8,960.4,813.8,957.3,819.7,957.2z"/>
	<path fill="#B0ADA1" d="M702.9,966c0-6,3-8.8,9.199-8.8c5.601,0,8.7,3.2,8.801,8.899c0,4.801-4.2,9.101-9,9.101
		C706.5,975.2,702.9,971.4,702.9,966z"/>
	<path fill="#B0ADA1" d="M1415,613.2c-4.9,0-8.8-3.8-8.8-8.4c-0.101-5.2,4.399-9.7,9.399-9.6c5.101,0.2,9.2,4.1,9.2,8.899
		C1425,609.2,1420.6,613.3,1415,613.2z"/>
	<path fill="#B0ADA1" d="M729.9,933c0-6,3.1-8.8,9.199-8.8c5.101,0,8.7,3.8,8.801,9c0,4.8-4.2,9.2-9.101,9
		C734.2,942,729,939.2,729.9,933z"/>
	<path fill="#B0ADA1" d="M963.9,932.7c0,6.399-2.801,9.5-8.5,9.5c-5.301,0-9.601-4.2-9.5-9.101c0.1-4.8,4.3-8.899,9.1-8.899
		C960.9,924.3,963.9,927.1,963.9,932.7z"/>
	<path fill="#B0ADA1" d="M1524.1,613.2c-6.1,0-9.1-2.9-9.199-8.9c0-5.399,3.699-9.2,9.1-9.1c4.8,0,9.1,4.3,8.9,9.2
		C1532.7,608.8,1529.8,614.1,1524.1,613.2z"/>
	<path fill="#B0ADA1" d="M882.9,933.1c0,6-3.101,9.2-9,9.2c-4.801,0-9-4.3-9-9.1c0.1-5.101,3.8-8.9,8.8-8.9
		C879.9,924.2,882.9,927.1,882.9,933.1z"/>
	<path fill="#B0ADA1" d="M1577.9,613.2c-5.9,0-9-2.9-9-8.601c0-5.3,4.199-9.5,9.199-9.399c4.801,0.1,8.7,4.3,8.801,9.399
		C1586.9,610.3,1583.8,613.2,1577.9,613.2z"/>
	<path fill="#B0ADA1" d="M557.9,1425.9c0,6.399-3,9.399-9.2,9.3c-4.601-0.101-8.601-4.2-8.8-8.8c-0.101-4.9,4.199-9.2,9.3-9.2
		C555,1417.3,557.9,1420.2,557.9,1425.9z"/>
	<path fill="#B0ADA1" d="M530.9,1426c0,6-3.101,9.2-9,9.2c-4.601,0-8.801-4.101-9-8.7c-0.101-4.9,3.899-9.3,8.699-9.3
		C527.8,1417.2,530.8,1420,530.9,1426z"/>
	<path fill="#B0ADA1" d="M963.9,1392.7c0,6.399-2.801,9.6-8.601,9.5c-5.1,0-9.2-3.9-9.399-8.8c-0.2-5,4.199-9.2,9.5-9.2
		C960.9,1384.2,963.9,1387.3,963.9,1392.7z"/>
	<path fill="#B0ADA1" d="M1036.4,1351.2c5.3,0,9.699,4.2,9.5,9.2c-0.2,4.899-4.301,8.8-9.4,8.8c-5.5,0-8.6-3-8.6-8.4
		C1027.9,1354.4,1030.6,1351.2,1036.4,1351.2z"/>
	<path fill="#B0ADA1" d="M963.9,1360.9c0,5.399-3.101,8.399-8.601,8.3c-5.1,0-9.2-4-9.399-8.8c-0.101-5,4.199-9.2,9.5-9.2
		C961.2,1351.3,963.9,1354.4,963.9,1360.9z"/>
	<path fill="#B0ADA1" d="M936.9,1360.5c0,5.8-3.101,8.9-8.801,8.8c-4.8-0.1-9.199-4.1-9.199-8.5c0-5.5,4.1-9.6,9.6-9.5
		C934.1,1351.3,936.9,1354.5,936.9,1360.5z"/>
	<path fill="#B0ADA1" d="M557.9,1360.1c0,6-2.9,9.101-8.4,9.2c-5.2,0-9.6-4-9.6-8.6c0-5.3,4-9.3,9.3-9.4
		C554.8,1351.2,557.9,1354.2,557.9,1360.1z"/>
	<path fill="#B0ADA1" d="M963.9,1458.6c0,6.2-3.101,9.7-8.601,9.601c-5-0.101-9.2-4-9.399-8.8c-0.2-5.4,3.8-9.2,9.6-9.2
		C961.2,1450.2,963.9,1453,963.9,1458.6z"/>
	<path fill="#B0ADA1" d="M1279.7,727.2c6.1,0,9.1,2.8,9.2,8.8c0,5.2-3.7,9.2-8.601,9.1c-5.3,0-9.6-4.199-9.399-9.199
		C1271.1,731.7,1274,726.3,1279.7,727.2z"/>
	<path fill="#B0ADA1" d="M1252.7,727.2c6.2,0,9.2,2.8,9.2,8.899c0,4.7-4.101,9.101-8.4,9.101c-5.3,0-9.6-4.101-9.6-9.2
		C1244,730.2,1246.9,727.3,1252.7,727.2z"/>
	<path fill="#B0ADA1" d="M1315.9,769c0,4.9-4,9.1-8.9,9.2c-4.7,0.1-9.3-4.8-9.1-9.7c0.1-4.4,5.1-9.6,9.199-9.1
		C1312.5,760.2,1317,763.5,1315.9,769z"/>
	<path fill="#B0ADA1" d="M1640.9,637.2c0,6.1-2.9,9-8.9,9.1c-5.3,0-9.1-3.899-9-9.2c0.1-4.6,4.1-8.699,8.7-8.8
		C1637,628.1,1640.9,631.9,1640.9,637.2z"/>
	<path fill="#B0ADA1" d="M1342.9,637c0.1,6-2.801,9.2-8.301,9.3c-5.199,0.101-9.699-3.899-9.699-8.5c0-5.3,4-9.399,9.199-9.5
		C1339.7,628.1,1342.8,631.2,1342.9,637z"/>
	<path fill="#B0ADA1" d="M1288.9,637.4c0,6-3,8.899-9.301,8.8c-4.8,0-8.899-4.4-8.699-9.3c0.1-4.601,4.3-8.7,8.899-8.7
		C1285.8,628.2,1288.9,631.4,1288.9,637.4z"/>
	<path fill="#B0ADA1" d="M1315.9,703.4c0,5.6-3.2,8.8-8.9,8.8c-4.9,0-9.1-4.2-9.1-9.101c0-4.899,4.199-8.899,9.1-8.899
		C1313.1,694.3,1315.9,697.2,1315.9,703.4z"/>
	<path fill="#B0ADA1" d="M1433.9,670.5c-0.101-6,2.8-9.2,8.3-9.2c5.2-0.1,9.6,3.9,9.6,8.5c0,5.3-4,9.4-9.2,9.5
		C1437,679.3,1433.9,676.3,1433.9,670.5z"/>
	<path fill="#B0ADA1" d="M1342.9,900.3c0,5.9-3,9-8.7,8.9c-4.8,0-9.2-4-9.3-8.3c-0.101-5.5,4-9.7,9.5-9.7
		C1340,891.2,1342.9,894.4,1342.9,900.3z"/>
	<path fill="#B0ADA1" d="M936.9,900.5c0,5.8-3.101,8.9-8.801,8.8c-4.8-0.1-9.199-4.1-9.199-8.5c0-5.5,4.1-9.6,9.6-9.5
		C934.1,891.3,936.9,894.4,936.9,900.5z"/>
	<path fill="#B0ADA1" d="M648.9,900.3c0-6,2.899-9.1,8.5-9.1c5.1,0,9.6,4,9.5,8.6c-0.101,5.3-4.101,9.3-9.301,9.4
		C651.9,909.3,648.9,906.2,648.9,900.3z"/>
	<path fill="#B0ADA1" d="M621.9,900.3c0-6,2.899-9.1,8.5-9.1c5.3,0,9.699,4.2,9.5,9.2c-0.2,4.899-4.301,8.8-9.4,8.8
		C624.8,909.3,621.9,906.2,621.9,900.3z"/>
	<path fill="#B0ADA1" d="M1090.8,876.2c-6,0-8.899-3-8.899-9.2c0-5.6,3.199-8.8,8.899-8.8c4.9,0,9.101,4.2,9.101,9.1
		C1099.8,872.2,1095.7,876.3,1090.8,876.2z"/>
	<path fill="#B0ADA1" d="M936.9,867c0,6.2-2.801,9.2-8.9,9.2c-4.7,0-9.1-4.101-9.1-8.4c0-5.3,4.1-9.6,9.199-9.6
		C933.9,858.3,936.9,861.2,936.9,867z"/>
	<path fill="#B0ADA1" d="M909.9,867.2c0,6.1-2.9,9.1-9,9c-4.9,0-9-4.101-9-9.101c0-4.899,4.3-9.199,9.199-8.899
		C905.9,858.6,910.7,861.5,909.9,867.2z"/>
	<path fill="#B0ADA1" d="M521.8,876.2c-4.6,0-9-4.2-8.899-8.601c0.1-5.1,4-9.3,8.8-9.399c6.1-0.101,9.2,2.899,9.2,9
		C530.9,873.3,528,876.3,521.8,876.2z"/>
	<path fill="#B0ADA1" d="M1027.9,965.8c0-5.899,2.699-8.6,8.6-8.6c5,0,9.7,4,9.3,8.6c-0.5,6.101-3.2,9.3-9.6,9.3
		C1031.8,975,1027.1,972.4,1027.9,965.8z"/>
	<path fill="#B0ADA1" d="M1009.5,957.2c5.2,0,9.6,4.3,9.3,9.2c-0.2,4.699-4.7,8.8-9.5,8.8c-4.3,0-9.7-4.9-9.2-9
		C1000.7,960.8,1004.2,956,1009.5,957.2z"/>
	<path fill="#B0ADA1" d="M739,957.2c5.7-0.9,8.6,4.1,8.9,8.8c0.3,4.9-4,9.2-8.9,9.2s-9-4.101-9-9C729.9,960.1,732.8,957.2,739,957.2
		z"/>
	<path fill="#B0ADA1" d="M549.4,957.2c5.899,0,8.6,2.7,8.5,8.7c0,5.899-3,9.5-8.4,9.199c-6.3-0.3-9.1-3.199-9.6-9.399
		C539.6,961.2,544.3,957.2,549.4,957.2z"/>
	<path fill="#B0ADA1" d="M530.9,965.8c0,6.101-3.301,9.601-8.801,9.4c-5.3-0.2-9.199-4.2-9.199-9.4c0-4.8,4-8.6,9.199-8.6
		C528,957.3,530.9,960.1,530.9,965.8z"/>
	<path fill="#B0ADA1" d="M855.9,933.3c0,5.101-3.7,8.8-8.801,8.9c-4.899,0.1-9.1-4.101-9.199-8.9c0-5.3,3.8-9.1,9.1-9.1
		C853,924.3,855.9,927.2,855.9,933.3z"/>
	<path fill="#B0ADA1" d="M1361.1,810.2c-5.899,0-9.199-3-9.199-8.4c-0.101-4.5,5-9.7,9.3-9.6c5.2,0.2,9.7,4.7,9.3,9.7
		C1370.1,807.1,1366,811.5,1361.1,810.2z"/>
	<path fill="#B0ADA1" d="M1280.3,810.2c-5.6,0.6-9.1-2.4-9.3-8.7c-0.2-5.1,4-9.2,8.8-9.3c5.101-0.101,9.2,4.3,9.2,9.8
		C1288.9,807.6,1286.1,810.2,1280.3,810.2z"/>
	<path fill="#B0ADA1" d="M1261.9,834.4c0,6-3.101,8.899-9.301,8.8c-5.6-0.101-8.699-3.3-8.699-9c0-4.9,4.3-9.101,9.199-9
		C1258,825.3,1261.9,829.5,1261.9,834.4z"/>
	<path fill="#B0ADA1" d="M963.9,834.5c0,6-2.601,8.7-8.5,8.7c-5,0-9.7-4-9.4-8.5c0.5-6.2,3.2-9.101,9.6-9.4
		C960.9,825,963.9,828.6,963.9,834.5z"/>
	<path fill="#B0ADA1" d="M576.3,843.2c-5.2,0-9.6-4.3-9.399-9.2c0.199-4.6,4.699-8.8,9.5-8.8c4.3,0,9.699,4.899,9.3,9
		C585.2,839.6,581.5,844.5,576.3,843.2z"/>
	<path fill="#B0ADA1" d="M557.9,834.6c0,5.9-2.7,8.601-8.601,8.601c-5,0-9.399-4-9.399-8.601c0.1-5.199,4-9.199,9.199-9.399
		C554.6,825.1,557.9,828.5,557.9,834.6z"/>
	<path fill="#B0ADA1" d="M467.8,843.2c-5.8,0.899-8.6-4.3-8.899-8.8c-0.2-4.9,4.1-9.2,9-9.2c4.899,0,9,4.1,9,9
		C476.9,840.4,474,843.3,467.8,843.2z"/>
	<path fill="#B0ADA1" d="M1433.9,472.6c0-5.6,3-8.399,8.899-8.399c4.601,0,9,4.1,9,8.399c0.101,5.2-4,9.601-9,9.601
		C1436.8,482.2,1433.9,479.1,1433.9,472.6z"/>
	<path fill="#B0ADA1" d="M1748.9,440.1c0,6-2.9,9.101-8.5,9.101c-5.301,0-9.7-4.2-9.5-9.2c0.199-4.9,4.3-8.8,9.399-8.8
		C1746,431.2,1748.9,434.3,1748.9,440.1z"/>
	<path fill="#B0ADA1" d="M1442.4,431.2c5.1,0,9.6,4.1,9.5,8.7c-0.101,5.3-4.101,9.3-9.4,9.3c-5.6,0-8.6-3-8.6-9
		C1433.9,434.3,1436.8,431.2,1442.4,431.2z"/>
	<path fill="#B0ADA1" d="M1451.9,538.6c0.1,4.301-4.601,9.4-8.801,9.601c-4.6,0.2-9.1-4.101-9.199-8.8
		c-0.101-5.5,3.699-10,8.399-10.101C1446.7,529.2,1451.8,534.1,1451.9,538.6z"/>
	<path fill="#B0ADA1" d="M1748.9,571.6c0,6-2.7,8.301-8.601,8.7c-6.6,0.4-9.1-3.899-9.3-8.399c-0.2-5.5,3.9-9.7,9.5-9.601
		C1744.8,562.5,1749.8,565.1,1748.9,571.6z"/>
	<path fill="#B0ADA1" d="M1686.4,580.2c-6.2,0-9.601-3.101-9.5-8.601c0.1-5.199,4-9.199,9.3-9.399c4.7-0.101,8.7,4.399,8.7,9.7
		C1694.9,577.5,1692.1,580.2,1686.4,580.2z"/>
	<path fill="#B0ADA1" d="M1551.1,580.2c-6,0.1-9.199-2.8-9.199-8.3c-0.101-5.2,3.899-9.601,8.5-9.7c5.3,0,9.399,4,9.5,9.2
		C1560,577.1,1556.9,580.2,1551.1,580.2z"/>
	<path fill="#B0ADA1" d="M1748.9,472.9c0,6.5-3,9.5-9.2,9.399c-4.601-0.1-8.7-4.2-8.8-8.8c-0.2-4.9,4.199-9.2,9.3-9.2
		C1746,464.3,1748.9,467.2,1748.9,472.9z"/>
	<path fill="#B0ADA1" d="M1460.9,473.3c0-6.1,2.899-9.1,8.899-9.1c5.101,0,9.2,3.8,9.101,8.6c-0.101,5-4,9.3-8.7,9.4
		C1464.3,482.4,1460.9,479.1,1460.9,473.3z"/>
	<path fill="#B0ADA1" d="M1767.4,515.2c-4.301,0-9.4-4.8-9.5-9c-0.101-4.9,4.199-9,9.5-9c5,0,9.5,4.1,9.5,8.5
		C1776.8,510.3,1771.9,515.2,1767.4,515.2z"/>
	<path fill="#B0ADA1" d="M1595.9,505.7c0-5.601,3.1-8.5,9.1-8.5c5.9,0,9,3,8.9,8.7c-0.101,4.8-4,9.199-8.301,9.3
		C1600.1,515.4,1595.9,511.2,1595.9,505.7z"/>
	<path fill="#B0ADA1" d="M1578.1,497.2c5.801,0,8.9,3.1,8.801,8.8c-0.101,4.8-4.101,9.2-8.5,9.2c-5.5,0-9.601-4.101-9.5-9.601
		C1568.9,500.1,1572.1,497.2,1578.1,497.2z"/>
	<path fill="#B0ADA1" d="M1541.9,506.3c0-6.2,2.899-9.1,9-9.1c5.899,0,9,3,9,8.6c0,5.101-4,9.2-8.801,9.4
		C1546.3,515.3,1541.9,511.1,1541.9,506.3z"/>
	<path fill="#B0ADA1" d="M1496.7,497.2c6.1,0,9.2,3,9.2,8.899c0,5-4.301,9.101-9.5,9.101c-4.4,0-8.5-4.4-8.5-9
		C1487.9,500.2,1490.8,497.2,1496.7,497.2z"/>
	<path fill="#B0ADA1" d="M1415.5,497.2c5.1,0,9.5,4.1,9.4,8.6c-0.101,4.5-5.101,9.4-9.5,9.4c-4.301,0-9.7-4.9-9.301-9
		C1406.6,500.8,1410.3,496,1415.5,497.2z"/>
	<path fill="#B0ADA1" d="M557.9,1163c0,6.1-2.801,9.2-8.4,9.2c-5.3,0-9.7-4-9.6-9.101c0.1-5.1,4.399-9,9.8-8.899
		C555,1154.3,557.9,1157.4,557.9,1163z"/>
	<path fill="#B0ADA1" d="M621.9,1162.6c0-5.399,3.1-8.399,8.6-8.3c5.1,0,9.2,4,9.3,8.9c0.101,5-4.2,9.2-9.6,9.1
		C624.6,1172.2,621.9,1169.1,621.9,1162.6z"/>
	<path fill="#B0ADA1" d="M648.9,1163.3c0-6,2.899-9.1,8.5-9.1c5.1,0,9.6,4,9.5,8.6c-0.101,5.3-4.101,9.3-9.301,9.4
		C651.9,1172.3,648.9,1169.2,648.9,1163.3z"/>
	<path fill="#B0ADA1" d="M963.9,1162.8c0,6.4-2.9,9.5-8.7,9.4c-5.101-0.101-9.2-4.101-9.3-8.9c-0.101-5,4.3-9.1,9.6-9.1
		C961,1154.3,963.9,1157.3,963.9,1162.8z"/>
	<path fill="#B0ADA1" d="M963.9,1195.9c0,6.399-3,9.5-9.2,9.3c-4.601-0.101-8.601-4.2-8.8-8.8c-0.101-4.9,4.199-9.2,9.3-9.2
		C961,1187.3,963.9,1190.2,963.9,1195.9z"/>
	<path fill="#B0ADA1" d="M936.9,1195.8c0,6.3-3.2,9.5-9.2,9.4c-4.7-0.101-8.7-4.3-8.8-9.3c-0.101-4.5,4.399-8.7,9.3-8.7
		C934,1187.3,936.9,1190.2,936.9,1195.8z"/>
	<path fill="#B0ADA1" d="M648.9,1195.9c0-5.7,2.899-8.601,8.699-8.601c4.9,0,9.4,4.101,9.301,8.601c-0.101,5-4,9.199-8.7,9.3
		C652.1,1205.4,648.9,1202.1,648.9,1195.9z"/>
	<path fill="#B0ADA1" d="M576.4,1073.2c-5.301,0-9.601-4.101-9.5-9c0-4.601,4.5-8.9,9.3-9c4.3-0.101,9.7,4.6,9.399,8.899
		C585.4,1069.4,581.5,1074.5,576.4,1073.2z"/>
	<path fill="#B0ADA1" d="M603.1,1073.2c-4.699,0-9-4-9.1-8.4c-0.1-4.399,4.8-9.5,9.3-9.6c4.5-0.101,9.8,5.1,9.601,9.3
		C612.6,1069.6,608.5,1073.3,603.1,1073.2z"/>
	<path fill="#B0ADA1" d="M766.1,1073.2c-6,0-9.199-2.8-9.199-8.4c0-5.2,3.899-9.6,8.5-9.6c5.3,0,9.399,4,9.5,9.2
		C775,1070.1,771.9,1073.2,766.1,1073.2z"/>
	<path fill="#B0ADA1" d="M874.1,1073.2c-6.1,0-9.199-3-9.199-8.9c0-5,4.3-9.1,9.5-9.1c4.3,0,8.5,4.399,8.5,8.899
		C882.9,1070.3,880,1073.3,874.1,1073.2z"/>
	<path fill="#B0ADA1" d="M936.9,1130c0,6-2.801,9.1-8.4,9.2c-5.2,0-9.6-3.9-9.6-8.601c0-5.3,4-9.399,9.199-9.399
		C933.8,1121.1,936.9,1124.2,936.9,1130z"/>
	<path fill="#B0ADA1" d="M648.9,1130c0-5.8,3.1-8.9,8.8-8.8c4.8,0.1,9.2,4.1,9.2,8.5c0,5.5-4.101,9.6-9.601,9.5
		C651.7,1139.2,648.8,1136,648.9,1130z"/>
	<path fill="#B0ADA1" d="M630.3,1121.2c5.3,0,9.7,4.2,9.5,9.2c-0.1,4.899-4.3,8.8-9.399,8.8c-5.5,0-8.601-3-8.601-8.3
		C621.9,1124.4,624.6,1121.3,630.3,1121.2z"/>
	<path fill="#B0ADA1" d="M963.9,1097.6c0,5.7-2.9,8.601-8.7,8.601c-5,0.1-9.4-4.3-9.3-9.2c0.1-4.6,4.199-8.7,8.8-8.8
		C960.9,1088.1,963.9,1091.1,963.9,1097.6z"/>
	<path fill="#B0ADA1" d="M936.9,1097.6c0,5.7-2.9,8.601-8.7,8.601c-4.9,0-9.4-4.101-9.3-8.601c0.1-5,4-9.199,8.699-9.3
		C933.7,1088.1,936.9,1091.3,936.9,1097.6z"/>
	<path fill="#B0ADA1" d="M387.1,1303.2c-6,0-9.1-2.9-9.199-8.4c0-5.2,4-9.6,8.6-9.6c5.3,0.1,9.3,4,9.4,9.3
		C396,1300.2,392.9,1303.2,387.1,1303.2z"/>
	<path fill="#B0ADA1" d="M603.3,1303.2c-5,0-9.5-4.101-9.399-8.601c0.1-4.6,5.1-9.399,9.5-9.399c4.3,0,9.399,4.899,9.399,9
		C612.9,1299.2,608.6,1303.2,603.3,1303.2z"/>
	<path fill="#B0ADA1" d="M711.5,1303.2c-5.7,0-8.6-2.9-8.6-8.7c0-4.9,4.1-9.4,8.699-9.3c5,0.1,9.2,4,9.301,8.8
		C721,1300,717.8,1303.2,711.5,1303.2z"/>
	<path fill="#B0ADA1" d="M766.1,1303.2c-6,0-9.199-2.8-9.199-8.4c0-5.2,3.899-9.6,8.5-9.6c5.3,0,9.399,4,9.5,9.2
		C775,1300.1,771.9,1303.2,766.1,1303.2z"/>
	<path fill="#B0ADA1" d="M792.9,1303.2c-5.9,0-9-3-9-8.601c0-5.1,4.199-9.5,8.8-9.399c5.399,0.2,9.2,4.1,9.2,9.399
		C801.9,1300.3,798.8,1303.2,792.9,1303.2z"/>
	<path fill="#B0ADA1" d="M909.9,1294.6c0,5.9-2.7,8.301-8.601,8.7c-6.6,0.4-9.2-3.899-9.2-8.399c0-6.4,3.101-9.101,9.301-9.7
		C905.8,1284.9,909.9,1289.6,909.9,1294.6z"/>
	<path fill="#B0ADA1" d="M963.9,1294.7c0,5.899-2.7,8.5-8.7,8.5c-5.9,0-9.2-3-9.3-8.4c-0.101-4.5,4.8-9.5,9.3-9.6
		C960.7,1285.1,963.9,1288.6,963.9,1294.7z"/>
	<path fill="#B0ADA1" d="M1009.2,1303.2c-4.9,0-9.5-4.3-9.3-8.7c0.199-4.7,5.1-9.4,9.699-9.3c4.4,0.1,9.4,5.1,9.301,9.1
		C1018.8,1299.4,1014.6,1303.3,1009.2,1303.2z"/>
	<path fill="#B0ADA1" d="M1054.9,1327.7c0-6.4,3-9.601,9.1-9.5c4.9,0.1,9,4.5,8.9,9.7c-0.101,4.3-4.601,8.3-9.101,8.3
		C1057.8,1336.2,1054.9,1333.4,1054.9,1327.7z"/>
	<path fill="#B0ADA1" d="M936.9,1327.7c0,5.7-2.9,8.5-8.801,8.5c-4.8,0-9.3-4.2-9.199-8.7c0.199-5.1,4.1-9.2,8.8-9.2
		C933.8,1318.1,936.9,1321.3,936.9,1327.7z"/>
	<path fill="#B0ADA1" d="M530.9,1327.2c0,6.1-2.9,9-9,9c-5.101,0-9.101-3.9-9-8.7c0.1-5.1,4-9.2,8.8-9.3
		C527.6,1318.1,530.9,1321.4,530.9,1327.2z"/>
	<path fill="#B0ADA1" d="M874.4,1220.2c5.699,0,8.5,2.899,8.5,8.8c0,4.8-4.2,9.3-8.7,9.2c-5.101-0.2-9.2-4.101-9.2-8.8
		C864.8,1223.3,868,1220.2,874.4,1220.2z"/>
	<path fill="#B0ADA1" d="M828.9,1228.6c0.1,5.2-3.9,9.7-8.5,9.7c-5.301,0-9.4-4-9.5-9.2c-0.101-5.699,3-8.8,8.8-8.8
		C825.7,1220.2,828.8,1223,828.9,1228.6z"/>
	<path fill="#B0ADA1" d="M711.5,1220.2c6.3,0,9.5,3.2,9.4,9.2c-0.101,4.699-4.301,8.699-9.301,8.8c-4.5,0.1-8.699-4.4-8.699-9.3
		C703,1223.1,705.8,1220.2,711.5,1220.2z"/>
	<path fill="#B0ADA1" d="M576.5,1220.2c5,0,9.5,4.1,9.4,8.6c-0.101,4.601-5.101,9.4-9.601,9.4c-4.3-0.101-9.399-4.9-9.399-9
		C566.9,1224.2,571.2,1220.2,576.5,1220.2z"/>
	<path fill="#B0ADA1" d="M936.9,1261.9c0,4.899-4.301,9.5-8.7,9.3c-4.7-0.2-9.4-5.101-9.3-9.7c0.1-4.4,5.1-9.4,9.1-9.3
		C933.1,1252.4,936.9,1256.6,936.9,1261.9z"/>
	<path fill="#B0ADA1" d="M648.9,1261.8c0-5.1,3.899-9.5,8.399-9.6c4.5-0.101,9.5,4.899,9.601,9.399c0.1,4.301-4.7,9.4-8.801,9.601
		C653.2,1271.4,648.9,1267,648.9,1261.8z"/>
	<path fill="#B0ADA1" d="M530.9,1261.9c0,4.899-4.301,9.5-8.801,9.3c-4.699-0.2-9.399-5.2-9.199-9.7c0.1-4.4,5.1-9.4,9.199-9.3
		C527.1,1252.4,530.9,1256.6,530.9,1261.9z"/>
	<path fill="#B0ADA1" d="M557.9,1032c0,4.7-3.9,9-8.4,9.1c-4.4,0.101-9.5-4.8-9.6-9.3c-0.101-4.5,5-9.8,9.3-9.7
		C554.2,1022.5,557.9,1026.6,557.9,1032z"/>
	<path fill="#B0ADA1" d="M936.9,1031.9c0,4.899-4.301,9.5-8.7,9.3c-4.7-0.2-9.4-5.101-9.3-9.7c0.1-4.4,5.1-9.4,9.1-9.3
		C933.1,1022.3,936.9,1026.6,936.9,1031.9z"/>
	<path fill="#B0ADA1" d="M530.9,998.7c0,5-3.9,9.8-8.4,9.5c-6.4-0.4-9.2-3.3-9.5-9.5c-0.3-5.5,3.3-8.5,9.6-8.5
		C528.2,990.3,530.9,993,530.9,998.7z"/>
	<path fill="#B0ADA1" d="M557.9,998.6c0,6.2-3.101,9.7-8.601,9.601c-4.5-0.101-9.399-5-9.399-9.5c0-5.5,3.399-8.5,9.699-8.5
		C555.2,990.2,557.9,993,557.9,998.6z"/>
	<path fill="#B0ADA1" d="M820.5,990.2c5.4,0,8.4,3.1,8.4,8.6c0,5.101-3.9,9.2-8.801,9.4c-5,0.2-9.199-4.2-9.199-9.5
		C810.9,993,814,990.2,820.5,990.2z"/>
	<path fill="#B0ADA1" d="M909.9,998.8c0,5-4,9.7-8.601,9.3c-6.1-0.5-9.399-3.3-9.2-9.6c0.2-5.2,2.801-8.9,9.7-8.4
		C907.2,990.6,909.9,993.1,909.9,998.8z"/>
	<path fill="#B0ADA1" d="M928.5,990.2c5.9,0,8.4,2.7,8.4,8.899c0,5.2-3.801,9.2-8.601,9.101c-5.1-0.101-9.3-4.3-9.399-9.4
		C918.8,993.3,922.3,990.2,928.5,990.2z"/>
	<path fill="#B0ADA1" d="M955.4,990.2c5.899,0,8.6,2.7,8.5,8.7c0,5.899-3,9.199-8.4,9.3c-4.5,0.1-9.5-4.8-9.6-9.3
		C945.7,993.5,949.3,990.2,955.4,990.2z"/>
	<path fill="#B0ADA1" d="M963.9,1262.1c0,4.7-4,9-8.4,9.101c-4.4,0.1-9.5-4.8-9.6-9.3c-0.101-4.5,4.6-9.4,9.3-9.601
		C959.8,1252.1,963.9,1256.7,963.9,1262.1z"/>
	<path fill="#B0ADA1" d="M557.9,900.2c0,5.899-3,9-8.601,9c-5.1,0-9.2-3.9-9.399-8.8c-0.2-4.9,4.199-9.2,9.399-9.2
		C555,891.2,557.9,894.3,557.9,900.2z"/>
	<path fill="#B0ADA1" d="M630.2,843.2c-5.8,0-8.4-2.8-8.3-8.9c0-5.8,3.199-9.1,8.5-9.1c5.199,0,9.6,4.3,9.5,9.2
		C639.7,839.4,635.6,843.2,630.2,843.2z"/>
	<path fill="#B0ADA1" d="M1036.4,843.2c-5.9,0-8.2-2.7-8.601-8.7c-0.5-6.5,4.2-8.9,8.4-9.2c5.2-0.5,9.6,3.9,9.6,8.9
		S1041.7,843.2,1036.4,843.2z"/>
	<path fill="#B0ADA1" d="M557.9,1261.9c0,4.899-4.301,9.5-8.801,9.199c-4.699-0.199-9.399-5.1-9.199-9.699
		c0.1-4.5,5.199-9.4,9.699-9.2C554.2,1252.5,557.9,1256.8,557.9,1261.9z"/>
	<path fill="#B0ADA1" d="M621.9,1261.7c0-5,4.1-9.5,8.6-9.4c4.5,0.101,9.4,5.101,9.4,9.5c0,4.5-5,9.4-9.5,9.4
		S621.9,1266.7,621.9,1261.7z"/>
	<path fill="#B0ADA1" d="M963.9,965.8c0,6.101-3.2,9.601-8.7,9.4c-5.101-0.101-9.2-4.101-9.3-8.9c-0.101-5.1,4.3-9.2,9.8-9.1
		C961.2,957.3,963.9,960.1,963.9,965.8z"/>
	<path fill="#B0ADA1" d="M1036.8,1336.2c-6,0-8.6-2.9-9-8.5c-0.5-6.2,3.7-9,8.9-9.4c4.8-0.3,9.2,4.101,9.2,9
		C1045.9,1332.1,1041.6,1336.2,1036.8,1336.2z"/>
	<path fill="#B0ADA1" d="M413.9,1303.2c-5.9,0-9-3-9-8.601c0-5.1,3.899-9.199,8.8-9.399c4.899-0.2,9.2,4.2,9.2,9.399
		C422.9,1300.3,419.8,1303.2,413.9,1303.2z"/>
	<path fill="#B0ADA1" d="M495.4,1303.2c-6.2,0-9.7-3.2-9.5-8.7c0.1-5.3,4.199-9.3,9.399-9.3c4.4,0,8.5,4.3,8.5,9
		C503.9,1300.2,501.1,1303.2,495.4,1303.2z"/>
	<path fill="#B0ADA1" d="M576,1303.2c-4.9,0-9.1-4.101-9.1-8.9c0-4.1,5-9,9.3-9.1c4.5-0.101,10.1,5.1,9.399,9.3
		C584.9,1300,581.6,1304.3,576,1303.2z"/>
	<path fill="#B0ADA1" d="M963.9,900.4c0,5.899-3.101,8.899-8.7,8.899c-5-0.1-9.2-4-9.3-8.899c-0.101-5,4.199-9.101,9.5-9.101
		C961,891.3,963.9,894.4,963.9,900.4z"/>
	<path fill="#B0ADA1" d="M630.4,1303.2c-5.9,0-8.5-2.7-8.5-8.7c0-5.9,3-9.2,8.399-9.3c4.5-0.101,9.8,5,9.601,9.3
		C639.6,1300.4,636.6,1303.2,630.4,1303.2z"/>
	<path fill="#B0ADA1" d="M1036.5,891.2c5.2,0,9.6,4.3,9.4,9.2c-0.2,4.899-4.301,8.699-9.4,8.8c-5.6,0-8.6-3.101-8.6-9
		C1027.9,894.3,1030.8,891.2,1036.5,891.2z"/>
	<path fill="#B0ADA1" d="M819.7,1303.2c-5.8,0-8.9-3.101-8.8-8.8c0.1-5,4.1-9.2,9-9.2c5,0,9.1,4.3,9,9.6
		C828.8,1300.4,825.7,1303.3,819.7,1303.2z"/>
	<path fill="#B0ADA1" d="M982.3,1303.2c-5,0-9.5-4.2-9.399-8.601c0.1-4.6,5.1-9.399,9.6-9.399c4.5,0.1,9.4,5.1,9.4,9.6
		C991.8,1299.3,987.4,1303.2,982.3,1303.2z"/>
	<path fill="#B0ADA1" d="M530.9,1097.1c0,6.2-2.9,9.101-8.9,9.101c-4.6,0-9-4.101-9.1-8.5c0-5.3,4.1-9.601,9.1-9.5
		C527.7,1088.3,530.9,1091.5,530.9,1097.1z"/>
	<path fill="#B0ADA1" d="M1433.9,604.8c0-6.2,3.199-9.7,8.699-9.5c5.301,0.2,9.301,4.2,9.301,9.5c0,4.4-4.301,8.5-9,8.5
		C1436.9,613.2,1433.9,610.4,1433.9,604.8z"/>
	<path fill="#B0ADA1" d="M1470.1,694.2c4.5,0,8.9,4.3,8.801,8.7c-0.101,5.1-4.101,9.3-8.9,9.3c-5.9,0.1-9.2-3.101-9.1-9.101
		C1460.9,697.1,1463.9,694.2,1470.1,694.2z"/>
	<path fill="#B0ADA1" d="M955.4,810.2c-6.101,0-9.601-3.2-9.5-8.601c0.1-4.3,5-9.3,9-9.399c5.899,0,9,3.3,9,9.7
		C963.9,807.5,961.1,810.2,955.4,810.2z"/>
	<path fill="#B0ADA1" d="M1604.7,580.2c-5.8,0-8.9-3.101-8.8-8.8c0.1-5,4.1-9.2,8.899-9.2c5,0,9.101,4.3,9.101,9.6
		C1613.8,577.4,1610.7,580.3,1604.7,580.2z"/>
	<path fill="#B0ADA1" d="M1577.7,580.2c-5.8,0-8.9-3.101-8.8-8.8c0.1-5,4.199-9.2,9-9.2c5,0,9.1,4.3,9,9.7
		C1586.8,577.4,1583.7,580.3,1577.7,580.2z"/>
	<path fill="#B0ADA1" d="M1415.2,580.2c-5,0-8.9-3.601-9-8.4c-0.101-5,4.2-9.5,9.1-9.6c4.3-0.101,9.5,4.7,9.601,8.899
		C1425,576.5,1421,580.3,1415.2,580.2z"/>
	<path fill="#B0ADA1" d="M1748.9,670.3c0,5.9-3,9-8.7,8.9c-5-0.101-9.2-4-9.3-8.9c-0.101-5,4.199-9.2,9.5-9.1
		C1746,661.2,1748.9,664.4,1748.9,670.3z"/>
	<path fill="#B0ADA1" d="M1342.9,670.4c0,5.8-3.101,8.899-8.801,8.8c-5-0.101-9.199-4.101-9.199-9c0-5,4.3-9.101,9.6-9
		C1340.1,661.3,1342.9,664.4,1342.9,670.4z"/>
	<path fill="#B0ADA1" d="M557.9,1130.4c0,5.8-3.101,8.899-8.801,8.8c-5-0.101-9.199-4.101-9.199-9c0-5,4.3-9.101,9.6-9
		C555.1,1121.3,557.9,1124.4,557.9,1130.4z"/>
	<path fill="#B0ADA1" d="M963.9,1130.1c0,6-2.9,9.101-8.5,9.101c-5.301,0-9.601-4.2-9.5-9.2c0.1-4.9,4.3-8.8,9.3-8.8
		C960.9,1121.2,963.9,1124.3,963.9,1130.1z"/>
	<path fill="#B0ADA1" d="M603.8,1220.2c4.7,0,9,4,9.101,8.399c0.1,4.4-4.801,9.5-9.301,9.601c-4.5,0.1-9.399-4.7-9.6-9.3
		C593.8,1224.3,598.4,1220.2,603.8,1220.2z"/>
	<path fill="#B0ADA1" d="M630.5,1220.2c5.4,0,9.5,3.5,9.3,8.3c-0.2,5.6-4.2,9.8-9.6,9.5c-5.2-0.3-8.8-2.9-8.4-9.7
		C622.2,1222.9,624.8,1220.2,630.5,1220.2z"/>
	<path fill="#B0ADA1" d="M766,1220.2c5.9,0,8.9,3,8.9,8.7c-0.101,5-4,9.199-8.9,9.3c-5,0.1-9.1-4.2-9.1-9.5
		C756.9,1223.1,760.1,1220.2,766,1220.2z"/>
	<path fill="#B0ADA1" d="M793.1,1220.2c5.801,0,8.9,3.1,8.801,8.8c-0.101,5-4.101,9.2-9,9.2c-5,0-9.101-4.3-9-9.601
		C783.9,1223.1,787.1,1220.2,793.1,1220.2z"/>
	<path fill="#B0ADA1" d="M963.9,1228.7c0,6.1-3.2,9.6-8.7,9.5c-4.3-0.101-9.3-5-9.3-9.101c0-5.899,3.399-9,9.8-8.899
		C961.2,1220.3,963.9,1223,963.9,1228.7z"/>
	<path fill="#B0ADA1" d="M1315.9,801.9c0,5.8-2.801,8.399-8.9,8.3c-5.8,0-9.1-3.2-9.1-8.5c0-5.2,4.3-9.601,9.199-9.5
		C1312.1,792.4,1315.9,796.6,1315.9,801.9z"/>
	<path fill="#B0ADA1" d="M557.9,1196.1c0,6-3.2,9.2-9.101,9.101c-4.6-0.101-8.899-4.2-8.8-8.9c0.1-4.1,3.9-10,9.4-9.3
		C555,1187.8,557.9,1190.3,557.9,1196.1z"/>
	<path fill="#B0ADA1" d="M1721.9,538.6c0,5.101-3.9,9.5-8.5,9.601c-4.5,0.1-9.5-4.9-9.5-9.4c-0.101-4.5,4.8-9.399,9.399-9.6
		C1717.7,529.2,1721.9,533.7,1721.9,538.6z"/>
	<path fill="#B0ADA1" d="M1748.9,538.8c0,5-4.101,9.5-8.601,9.4c-4.5,0-9.5-5-9.399-9.5c0-4.5,5-9.4,9.5-9.5
		C1744.9,529.3,1748.9,533.7,1748.9,538.8z"/>
	<path fill="#B0ADA1" d="M557.9,1393.3c0,5.9-3,9-8.7,8.9c-5.101,0-9.2-4-9.3-8.8c-0.101-5,4.199-9.2,9.5-9.2
		C555,1384.2,557.9,1387.4,557.9,1393.3z"/>
	<path fill="#B0ADA1" d="M1388.1,810.2c-4.699,0-9-4-9.1-8.4c-0.1-4.399,4.8-9.5,9.3-9.6c4.5-0.101,9.4,4.6,9.601,9.3
		C1398,806.1,1393.4,810.3,1388.1,810.2z"/>
	<path fill="#B0ADA1" d="M1334.5,810.2c-6.2,0-9.6-3.101-9.6-8.601c0-4.3,4.899-9.3,9-9.399c5.399-0.101,9.1,3.899,9,9.7
		C1342.9,807.5,1340.1,810.2,1334.5,810.2z"/>
	<path fill="#B0ADA1" d="M928.3,810.2c-6.1,0-9.5-3.3-9.399-8.8c0.199-4.7,4.6-9.2,9-9.2c4.899,0,9,4.2,9,9.399
		C936.9,807.6,934.2,810.2,928.3,810.2z"/>
</g>
<rect x="1696.5" y="1884.5" fill="none" width="364" height="88"/>
<text transform="matrix(1 0 0 1 1696.5 1935.6191)" fill="#81BE41" font-family="'MyriadPro-Regular'" font-size="72">= 0.5 mi</text>
<circle fill="#81BE41" cx="1648.5" cy="1912.75" r="23.75"/>
</svg>
