<?xml version="1.0" encoding="utf-8"?>
<!-- Generator: Adobe Illustrator 16.0.0, SVG Export Plug-In . SVG Version: 6.00 Build 0)  -->
<!DOCTYPE svg PUBLIC "-//W3C//DTD SVG 1.1//EN" "http://www.w3.org/Graphics/SVG/1.1/DTD/svg11.dtd">
<svg version="1.1" id="Layer_1" xmlns="http://www.w3.org/2000/svg" xmlns:xlink="http://www.w3.org/1999/xlink" x="0px" y="0px"
	 width="2000px" height="2000px" viewBox="0 0 2000 2000" enable-background="new 0 0 2000 2000" xml:space="preserve">
<g id="Layer_2_copy">
	<g>
		<path fill="#81BE41" d="M1008.6,1014.3c0-6.2,2.803-9.2,8.803-9.2s9.197,3.103,9.197,9c0,4.803-4.3,9-9.1,9
			C1011.8,1023,1008.7,1019.8,1008.6,1014.3z"/>
		<path fill="#81BE41" d="M990.1,1005.1c5.4,0,9.303,3.4,9.5,8.303c0.2,5.197-4,9.8-9,9.697c-4.6-0.1-9.8-2.8-9.1-9.697
			C982,1007.8,984.4,1005.1,990.1,1005.1z"/>
		<path fill="#81BE41" d="M954.6,1112.5c-0.897-6.6,4-9.2,8.303-9.2c6.3,0,9.197,3.2,9.6,9.4c0.3,5.1-3.9,8.5-9.7,8.5
			C957.3,1121,954.6,1118.2,954.6,1112.5z"/>
		<path fill="#81BE41" d="M1035.6,1014.1c0-6.1,2.9-9.1,9-9.1c5.9,0,9.103,3.2,9,9.1c-0.1,4.9-4.3,9-9.197,8.9
			C1039.3,1023,1035.6,1019.2,1035.6,1014.1z"/>
		<path fill="#81BE41" d="M1008.6,1079.2c0-4.9,4-9,8.803-9.103c4.697-0.1,9.197,4.603,9.197,9.5c0,4.803-4.1,9.103-8.897,9.303
			C1012.7,1089.2,1008.6,1084.8,1008.6,1079.2z"/>
		<path fill="#81BE41" d="M981.6,980.8c0-6,3-8.8,9.2-8.8c4.5,0,8.9,4.3,8.8,8.6c-0.1,5.5-4.197,9.4-9.697,9.4
			S981.6,986.8,981.6,980.8z"/>
		<path fill="#81BE41" d="M954.6,1013.7c0-5.9,2.7-8.603,8.603-8.603c5,0,9.7,4,9.3,8.603c-0.5,6.1-3.2,9.3-9.6,9.3
			C958.5,1022.9,953.8,1020.2,954.6,1013.7z"/>
		<path fill="#81BE41" d="M954.6,1046.7c0-6,2.7-8.3,8.603-8.7c6.6-0.4,9.1,3.9,9.3,8.4c0.2,5.5-3.9,9.697-9.5,9.6
			C958.7,1055.8,953.8,1053.2,954.6,1046.7z"/>
		<path fill="#81BE41" d="M990,1038.1c6.3,0,9.7,3,9.6,8.603c-0.1,5-4,9.199-8.8,9.397c-5.397,0.2-9.2-3.8-9.2-9.6
			C981.6,1040.8,984.4,1038.1,990,1038.1z"/>
		<path fill="#81BE41" d="M981.6,1079.2c0-4.9,4.103-9.103,8.9-9.2c4.7-0.1,9.3,4.9,9.1,9.7c-0.197,4.397-5.1,9.3-9.197,9.1
			C985.2,1088.7,981.6,1084.7,981.6,1079.2z"/>
		<path fill="#81BE41" d="M1008.6,1046.6c0-5.897,2.7-8.197,8.7-8.6c6.5-0.5,8.9,4.2,9.2,8.4c0.5,5.197-3.9,9.6-8.9,9.6
			C1012.7,1056.1,1008.6,1051.8,1008.6,1046.6z"/>
		<path fill="#81BE41" d="M954.6,1079.5c0-5.3,3.4-9.2,8.303-9.4c4.6-0.197,9.8,4.9,9.697,9.603c-0.1,4.3-5,9.6-9.1,9.1
			C958.1,1088.3,953.4,1084.6,954.6,1079.5z"/>
	</g>
	<g opacity="0.7">
		<path fill="#B3B3B3" d="M809.6,1079.6c0,5-4,9.5-8.5,9.5c-5.197,0-9.397-4.1-9.5-9.3c-0.1-5.3,4-9.6,9-9.7
			C805.6,1070.1,809.6,1074.3,809.6,1079.6z"/>
		<path fill="#B3B3B3" d="M1315.3,694.1c-5.3,0.103-9.6-3.897-9.7-8.897c-0.1-4.8,4.103-8.9,9-9.103c5.5-0.197,10.103,4,9.9,9.2
			C1324.5,690.1,1320.3,694,1315.3,694.1z"/>
		<path fill="#B3B3B3" d="M529.9,1154.1c-4.7,0-9-3.897-9.2-8.3c-0.2-5.3,4.2-9.7,9.5-9.7c5.2,0,9.6,4.303,9.397,9.2
			C539.4,1150.4,535.2,1154.1,529.9,1154.1z"/>
		<path fill="#B3B3B3" d="M1315.3,727.1c-5.3,0.103-9.6-3.897-9.7-8.897c0-4.8,4.103-8.9,9.103-9.103c5.397-0.1,9.6,3.603,9.897,8.7
			C1324.9,722.6,1320.5,727,1315.3,727.1z"/>
		<path fill="#B3B3B3" d="M945.6,1309c0.103,4.9-4.697,10-9.397,10.1c-4.5,0.103-9.5-4.897-9.5-9.397
			c-0.103-4.5,4.897-9.5,9.397-9.5C940.3,1300,945.5,1304.9,945.6,1309z"/>
		<path fill="#B3B3B3" d="M1107.6,1309.7c-0.1,5.2-4.397,9.6-9.3,9.3c-5.1-0.3-8.8-4.5-8.7-9.9c0.103-5,4.303-9.1,9-9.1
			C1103.7,1300.1,1107.7,1304.4,1107.6,1309.7z"/>
		<path fill="#B3B3B3" d="M1116.6,1309.5c0-5.3,4.2-9.6,9.2-9.5s8.9,4.4,8.8,9.8c-0.1,5-4.1,9.103-8.897,9.2
			C1120.7,1319.1,1116.6,1314.8,1116.6,1309.5z"/>
		<path fill="#B3B3B3" d="M1161.6,1309.6c0,5.303-4.197,9.603-9.1,9.5c-5-0.1-9-4.397-8.9-9.697c0.103-5,4.103-9.103,8.9-9.2
			C1157.5,1300,1161.6,1304.3,1161.6,1309.6z"/>
		<path fill="#B3B3B3" d="M530.1,1089c-4.5,0-9.5-5.1-9.397-9.5c0-4.3,4.897-9.4,9-9.4c4.897,0,10,4.803,9.897,9.5
			C539.6,1084.1,534.5,1089.1,530.1,1089z"/>
		<path fill="#B3B3B3" d="M530.1,990.1c-5.197,0-9.6-4.3-9.397-9.197c0.2-5.103,4.5-8.9,9.8-8.803c5,0.103,9.1,4.103,9.2,8.9
			C539.7,986,535.4,990.1,530.1,990.1z"/>
		<path fill="#B3B3B3" d="M918.6,586.7c-0.1,4.6-5.197,9.5-9.6,9.3c-4.4-0.1-9.4-5-9.3-9.1c0.1-5,5-10,9.6-9.803
			C913.8,577.2,918.7,582.3,918.6,586.7z"/>
		<path fill="#B3B3B3" d="M1324.6,1079.5c0.103,4.5-4.8,9.5-9.397,9.5c-4.5,0.1-9.5-4.9-9.5-9.4c-0.103-4.197,4.8-9.5,8.897-9.5
			C1319.4,1070,1324.5,1074.7,1324.6,1079.5z"/>
		<path fill="#B3B3B3" d="M909.7,530.1C904,530.2,899.5,526.2,899.6,521c0.103-4.8,4.2-8.9,9.103-8.9c5.397,0,10,3.9,9.897,8.603
			C918.5,525.7,914.4,530,909.7,530.1z"/>
		<path fill="#B3B3B3" d="M1315,497.1c-5.2-0.1-9.6-4.397-9.3-9.3c0.3-5.1,4.5-8.897,9.897-8.7c4.803,0.103,9.4,4.2,9,8.5
			C1323.8,493.7,1320.9,497.2,1315,497.1z"/>
		<path fill="#B3B3B3" d="M909.3,709.1c5,0,9.5,4.303,9.3,8.803c-0.3,5.6-4.3,9.397-9.897,9.197c-5-0.1-9.103-4.197-9.103-9
			C899.7,713,903.9,709,909.3,709.1z"/>
		<path fill="#B3B3B3" d="M719.8,1202.1c5.8,0,8.9,3.103,8.8,8.7c-0.1,5.4-3.8,9.3-9,9.3c-5.3,0-9-3.8-9-9.197
			C710.7,1204.9,713.7,1202,719.8,1202.1z"/>
		<path fill="#B3B3B3" d="M936.3,727.1c-5.1,0.103-9.6-3.897-9.6-8.397c-0.103-5.2,3.897-9.4,9-9.603c5.397-0.1,9.6,3.603,9.897,8.7
			C945.9,722.6,941.5,727,936.3,727.1z"/>
		<path fill="#B3B3B3" d="M1161.6,948.5c-0.1,5.7-3.197,8.7-8.897,8.6c-5.4-0.1-9.2-4-9.103-9.197c0.103-5.303,3.9-8.803,9.4-8.803
			C1158.9,939.2,1161.7,942.2,1161.6,948.5z"/>
		<path fill="#B3B3B3" d="M1215.6,586.6c0,5.2-4.1,9.5-9,9.5c-4.5,0-8.897-4.3-9-8.697c-0.1-5.5,4.103-10.2,9-10.2
			C1211.6,577.1,1215.6,581.3,1215.6,586.6z"/>
		<path fill="#B3B3B3" d="M1188.6,586.6c0,5.303-4.1,9.603-9.1,9.5c-5-0.1-9-4.397-8.9-9.697c0.103-4.9,4.103-9.2,8.9-9.303
			C1184.4,577,1188.6,581.3,1188.6,586.6z"/>
		<path fill="#B3B3B3" d="M1161.6,586.6c0,5.2-4.197,9.603-9.197,9.4c-5-0.1-8.9-4.4-8.803-9.8c0.103-4.8,4-9.5,8.4-9.103
			C1157.9,577.7,1161.7,580.4,1161.6,586.6z"/>
		<path fill="#B3B3B3" d="M1134.6,587.1c-0.197,5-4.3,9.103-9.1,9c-5.2-0.1-9.1-4.6-8.9-10.197c0.2-4.7,4.603-9,8.9-8.7
			C1131.1,577.5,1134.8,581.5,1134.6,587.1z"/>
		<path fill="#B3B3B3" d="M1188.6,1079.2c0,5.3-3.697,9.6-8.3,9.8c-5.3,0.2-9.7-4.1-9.7-9.5c0-5.2,4.303-9.6,9.2-9.4
			C1184.6,1070.2,1188.7,1074.4,1188.6,1079.2z"/>
		<path fill="#B3B3B3" d="M936,939.1c5.3,0,9.6,3.9,9.6,9c0,5-4.3,9.103-9.6,9c-5,0-9.9-4.3-9.3-8.697
			C927.5,942.1,930.5,939.1,936,939.1z"/>
		<path fill="#B3B3B3" d="M909.4,939.1c5,0.103,9.5,4.4,9.197,8.9c-0.3,5.5-4.197,9.1-9.397,9.1c-5.3,0-9.603-4.197-9.5-9.1
			C899.7,942.9,904,939,909.4,939.1z"/>
		<path fill="#B3B3B3" d="M755.6,948.2c0,6-3,8.897-9.1,8.897c-5.1,0-8.8-3.697-8.9-8.897c-0.1-5.3,3.803-9.2,9.103-9.103
			C752.7,939.1,755.7,942.1,755.6,948.2z"/>
		<path fill="#B3B3B3" d="M1134.6,1079.4c0.103,5.1-3.897,9.6-8.5,9.6c-5.197,0.1-9.397-3.9-9.5-9.1c-0.1-5.4,3.603-9.603,8.7-9.9
			C1130.2,1069.8,1134.6,1074.2,1134.6,1079.4z"/>
		<path fill="#B3B3B3" d="M1315.2,577.1c4.6,0.103,9.5,5.103,9.3,9.603c-0.1,4.6-5.1,9.5-9.6,9.3c-4.603-0.1-9.5-5.1-9.303-9.6
			C1305.8,581.9,1310.8,577,1315.2,577.1z"/>
		<path fill="#B3B3B3" d="M936.3,924.1c-5.2-0.1-9.6-3.897-9.7-8.397c-0.1-5.4,4.2-9.603,9.7-9.603c5,0.103,9.103,4,9.3,8.803
			C945.8,919.8,941.4,924.1,936.3,924.1z"/>
		<path fill="#B3B3B3" d="M728.6,1079.8c-0.1,5-4.397,9.5-8.8,9.2c-5.5-0.3-9.1-4.1-9.2-9.4c0-5.3,4.103-9.6,9.103-9.5
			C724.7,1070.2,728.7,1074.5,728.6,1079.8z"/>
		<path fill="#B3B3B3" d="M701.6,1079.8c-0.1,5-4.3,9.5-8.8,9.2c-5.6-0.3-9.3-4.3-9.2-9.9c0.103-5,4.303-9.1,9.103-9
			C697.7,1070.2,701.7,1074.5,701.6,1079.8z"/>
		<path fill="#B3B3B3" d="M909.3,1187.1c-5.3,0-9.6-3.897-9.6-9c0-5,4.3-9.1,9.6-9c5,0,9.9,4.303,9.3,8.7
			C917.7,1184,914.7,1187.1,909.3,1187.1z"/>
		<path fill="#B3B3B3" d="M935.9,1187.1c-5-0.1-9.5-4.3-9.2-8.8c0.3-5.6,4.3-9.3,9.897-9.2c5,0.103,9.103,4.303,9,9.103
			C945.5,1183.2,941.2,1187.1,935.9,1187.1z"/>
		<path fill="#B3B3B3" d="M1107.6,1079.4c0.103,5.1-3.8,9.6-8.397,9.697c-5.2,0.103-9.4-3.897-9.603-9c-0.197-5.5,4-10.1,9.2-9.897
			C1103.6,1070.2,1107.6,1074.3,1107.6,1079.4z"/>
		<path fill="#B3B3B3" d="M728.6,684.9c0,6.1-2.897,9.1-8.8,9.1c-6,0-9.1-2.8-9.1-8.3c-0.103-5.7,3.8-9.7,9.2-9.7
			C724.9,676.2,728.6,679.9,728.6,684.9z"/>
		<path fill="#B3B3B3" d="M1125.4,694.1c-5.803,0-8.803-3.1-8.803-8.697c0.103-5.4,3.803-9.303,9.103-9.303s9,3.803,8.897,9.2
			C1134.6,691.3,1131.6,694.1,1125.4,694.1z"/>
		<path fill="#B3B3B3" d="M908.9,1154.1c-5.103,0-9.5-4.397-9.303-9.197c0.2-4.7,4.303-8.7,8.9-8.803c5.1,0,10.5,4.303,10,8.7
			C917.9,1150.1,914.9,1155.2,908.9,1154.1z"/>
		<path fill="#B3B3B3" d="M936.6,1154.1c-5.5,0-10.1-4-10-8.6c0.103-5.3,4.2-9.3,9.4-9.4c5.3,0,9.6,4,9.6,9
			C945.6,1149.9,941.4,1154.1,936.6,1154.1z"/>
		<path fill="#B3B3B3" d="M936.4,742.1c4.8,0,9,4,9.197,8.803c0.2,4.897-4.197,9.197-9.397,9.197c-5,0-10-4.3-9.4-8.697
			C927.5,745.4,930.4,741.8,936.4,742.1z"/>
		<path fill="#B3B3B3" d="M908.6,742.1c5.5,0,10.103,3.9,10,8.603c-0.1,5.3-4.197,9.3-9.3,9.397c-5.3,0-9.6-4-9.6-9
			C899.6,746.3,903.8,742.1,908.6,742.1z"/>
		<path fill="#B3B3B3" d="M1134.6,816.5c0,5.3-4.1,9.6-9.1,9.5s-9-4.4-8.9-9.7c0.103-4.8,3.9-9.5,8.303-9.2
			C1130.4,807.7,1134.6,809.9,1134.6,816.5z"/>
		<path fill="#B3B3B3" d="M1324.6,816.5c0,4.2-4.8,9.4-8.897,9.5c-4.9,0.1-10-4.7-10-9.4c-0.103-4.3,4.699-9.3,8.897-9.397
			C1319.5,807.1,1324.6,811.8,1324.6,816.5z"/>
		<path fill="#B3B3B3" d="M1053.6,1309.7c0,5-4,9.2-8.8,9.397c-5,0.2-9.2-4.3-9.2-9.8c0-4.7,3.9-9,8.303-9.1
			C1049.2,1299.9,1053.7,1304.3,1053.6,1309.7z"/>
		<path fill="#B3B3B3" d="M918.6,1309.4c0.2,4.397-4.697,9.5-9.3,9.6c-4.397,0.2-9.5-4.7-9.6-9.3c-0.2-4.4,4.7-9.5,9.3-9.603
			C913.4,1300,918.4,1304.8,918.6,1309.4z"/>
		<path fill="#B3B3B3" d="M1314.5,742.1c5.6,0,10.1,3.803,10.1,8.5c0,5.2-4.1,9.4-9.197,9.5c-5.303,0.103-9.603-3.897-9.7-8.897
			C1305.6,746.4,1309.8,742.1,1314.5,742.1z"/>
		<path fill="#B3B3B3" d="M1315.2,1319c-4.5,0.1-9.5-4.8-9.603-9.3c-0.1-4.5,4.803-9.5,9.303-9.603c4.5-0.1,9.5,4.803,9.6,9.303
			C1324.7,1313.9,1319.8,1318.9,1315.2,1319z"/>
		<path fill="#B3B3B3" d="M1188.6,1309.5c0,5.3-4,9.6-9,9.6c-4.697,0-8.897-4.3-9-9.197c-0.1-5.303,3.803-9.603,8.803-9.803
			C1184.4,1299.9,1188.6,1304.3,1188.6,1309.5z"/>
		<path fill="#B3B3B3" d="M1080.6,1309.4c0.103,5.3-3.897,9.6-8.897,9.697c-5,0.103-9.103-4.197-9.103-9.5c0-5,4.2-9.897,8.7-9.3
			C1077.3,1300.9,1080.6,1303.6,1080.6,1309.4z"/>
		<path fill="#B3B3B3" d="M945.6,1079.8c-0.6,5.103-5.397,9.5-9.6,9c-5-0.6-9.7-5.5-9.3-9.7c0.397-4.697,5.8-9.6,9.8-9
			C941.5,1070.8,946.1,1075.8,945.6,1079.8z"/>
		<path fill="#B3B3B3" d="M1215.6,1309.7c0,4.897-4.197,9.397-8.6,9.3c-5-0.1-9.3-4.2-9.4-8.8c-0.1-5.4,4.2-10.2,9.103-10.103
			C1211.8,1300.2,1215.6,1304.4,1215.6,1309.7z"/>
		<path fill="#B3B3B3" d="M936.3,694.1c-5.1,0.103-9.7-3.897-9.7-8.5c0-5.197,4.2-9.397,9.303-9.5c5.3,0,9.697,4.103,9.6,9.103
			C945.5,690,941.4,694,936.3,694.1z"/>
		<path fill="#B3B3B3" d="M502.7,1070.1c4.7,0,9.8,4.603,9.8,9c0,4.7-5.3,10.2-9.6,10c-4.4-0.197-9.303-5-9.2-9.1
			C493.7,1075.1,498.3,1070.1,502.7,1070.1z"/>
		<path fill="#B3B3B3" d="M909.2,924.1c-5.3,0-9.603-4-9.603-9s4.303-9,9.603-9c5,0,9.897,4.4,9.3,8.803
			C917.7,921.2,914.5,924.1,909.2,924.1z"/>
		<path fill="#B3B3B3" d="M737.6,1079.8c-0.1-5.397,4-9.7,9-9.7c4.803,0,8.9,4.2,9,9.2c0.103,5.2-3.8,9.7-8.5,9.7
			C742,1089.1,737.7,1084.9,737.6,1079.8z"/>
		<path fill="#B3B3B3" d="M1098.7,924.1c-6.103,0-9.103-2.897-9.103-9c0-5.3,3.9-9.1,9.2-9c4.8,0.103,8.7,4.303,8.8,9.4
			C1107.7,921.1,1104.6,924,1098.7,924.1z"/>
		<path fill="#B3B3B3" d="M782.6,1079.7c0,4.897-3.897,9.2-8.3,9.397c-5.3,0.2-9.7-4.197-9.7-9.6c0.103-5.1,4-9.2,8.9-9.3
			C778.5,1070,782.7,1074.3,782.6,1079.7z"/>
		<path fill="#B3B3B3" d="M656.6,1079.7c0-5.3,4-9.603,9-9.603s9,4.303,9,9.603c0,5-4.397,9.897-8.8,9.3
			C659.4,1088.1,656.5,1084.9,656.6,1079.7z"/>
		<path fill="#B3B3B3" d="M629.6,1079.4c0-5.2,4.2-9.5,9.2-9.303c4.603,0.103,8.8,4.2,8.8,8.803c0.103,5.5-4.197,10.5-9.1,10
			C633.1,1088.3,628.4,1084.7,629.6,1079.4z"/>
		<path fill="#B3B3B3" d="M909.1,1089c-4.5-0.1-9.397-5-9.397-9.5c0-4.2,4.8-9.4,8.897-9.5c4.803-0.1,9.9,4.6,10.103,9.3
			C918.7,1083.5,913.2,1089.1,909.1,1089z"/>
		<path fill="#B3B3B3" d="M692.8,1154.1c-6.2,0-9.2-2.8-9.2-8.8c0-5.399,3.803-9.2,9.103-9.2c4.897,0,8.8,4.103,8.897,9.2
			C701.7,1151,698.7,1154,692.8,1154.1z"/>
		<path fill="#B3B3B3" d="M1297.3,1079.7c-0.1,4.397-5,9.3-9.1,9.3c-4.7,0-9.7-5.3-9.5-9.9c0.2-4.3,5.3-9.197,9.2-9.1
			C1293.1,1070.3,1297.4,1074.7,1297.3,1079.7z"/>
		<path fill="#B3B3B3" d="M1215.6,1079.5c0,5-3.897,9.5-8.397,9.5c-5,0.1-9.7-4.7-9.603-9.7c0.2-5.1,4.103-9.2,8.9-9.2
			C1211.5,1070,1215.6,1074.3,1215.6,1079.5z"/>
		<path fill="#B3B3B3" d="M936.2,661.1c-5.103,0-9.5-3.8-9.603-8.397c-0.1-5,4.7-9.7,9.7-9.603c5.103,0.103,9.2,4.103,9.3,8.9
			C945.7,656.9,941.4,661.1,936.2,661.1z"/>
		<path fill="#B3B3B3" d="M1288,939.1c5.3-0.1,9.5,3.9,9.6,9c0,4.9-4,8.9-9,9c-5.397,0.103-9.6-3.6-9.897-8.697
			C1278.4,943.4,1282.7,939.1,1288,939.1z"/>
		<path fill="#B3B3B3" d="M1080.6,1079.6c0,4.9-4.3,9.9-8.697,9.4c-5.803-0.8-9.2-3.2-9.303-9.2c-0.1-5.3,3.9-9.6,8.9-9.7
			C1076.5,1070,1080.6,1074.3,1080.6,1079.6z"/>
		<path fill="#B3B3B3" d="M1035.6,1079.3c0-4.897,4-9,8.803-9.2c4.697-0.197,9.197,4.2,9.197,8.9c0,5.4-4.5,10.5-9.3,9.8
			C1039,1088.1,1034.5,1084.8,1035.6,1079.3z"/>
		<path fill="#B3B3B3" d="M1071.6,957.1c-6.1,0-9-2.897-9-9.1c0-5.9,3-9,8.603-8.9c5.1,0,9.3,4,9.397,8.803
			C1080.7,953.2,1077,957.1,1071.6,957.1z"/>
		<path fill="#B3B3B3" d="M1161.6,1079.6c0,4.9-3.8,9.2-8.3,9.4c-5.3,0.2-9.8-4.2-9.7-9.6c0-5.103,4-9.2,8.9-9.303
			C1157.5,1070,1161.7,1074.3,1161.6,1079.6z"/>
		<path fill="#B3B3B3" d="M1242.6,1013.6c0,6.4-3.197,9.603-9.3,9.4c-4.6-0.1-8.7-4.3-8.7-8.9c0-5.897,3.2-9.1,9.103-9.1
			C1239.7,1005.1,1242.6,1007.9,1242.6,1013.6z"/>
		<path fill="#B3B3B3" d="M710.6,948.1c0-5.6,3.5-9,9.103-9c5.5,0,8.897,3.603,8.897,9.2c0,5.2-3.6,8.7-8.897,8.8
			C714.2,957.1,710.6,953.6,710.6,948.1z"/>
		<path fill="#B3B3B3" d="M683.6,948.3c0-5.8,3-9.1,8.303-9.2c5.697-0.1,9.8,3.7,9.697,9.103c-0.1,5.1-3.8,8.897-8.8,8.897
			C686.7,957.1,683.7,954.3,683.6,948.3z"/>
		<path fill="#B3B3B3" d="M1342.2,727.1c-5.3,0-9.5-4-9.5-9.1c0.1-4.9,4.1-8.9,9.1-8.9c5.3-0.1,9.601,3.803,9.8,8.803
			C1351.8,722.8,1347.4,727,1342.2,727.1z"/>
		<path fill="#B3B3B3" d="M909.2,1220.1c-5.3,0-9.7-4.197-9.5-9.197c0.1-4.9,4.3-8.803,9.397-8.803c5.103,0,9.7,4,9.603,8.603
			C918.5,1216,914.4,1220,909.2,1220.1z"/>
		<path fill="#B3B3B3" d="M936.2,1202.1c5.2,0,9.6,4.2,9.397,9.103c-0.1,5-4.397,8.897-9.697,8.8c-4.7-0.1-9.5-4.1-9.103-8.4
			C927.3,1206,929.7,1202,936.2,1202.1z"/>
		<path fill="#B3B3B3" d="M1098.8,709.1c5.103,0,8.9,3.803,8.8,8.803c-0.1,5.6-3.897,9.3-9.6,9.197c-4.9,0-8.4-3.897-8.4-9.197
			C1089.7,711.9,1092.7,709,1098.8,709.1z"/>
		<path fill="#B3B3B3" d="M909.2,972.1c4.897,0,9.2,3.9,9.397,8.303c0.2,5.3-4.197,9.697-9.6,9.697c-5.1-0.1-9.2-4-9.3-8.897
			C899.5,976.2,903.9,972,909.2,972.1z"/>
		<path fill="#B3B3B3" d="M1134.6,1210.8c0,5.4-3.6,9.2-8.897,9.2c-5.2,0-9-3.8-9.103-9.3c-0.1-5.5,3.103-8.7,8.803-8.7
			C1131.6,1202,1134.6,1204.9,1134.6,1210.8z"/>
		<path fill="#B3B3B3" d="M1161.6,718.1c0,5.803-3.1,9-8.5,9c-5.5,0-9.397-3.697-9.5-8.8c-0.1-5.3,3.7-9.2,9-9.2
			C1158.7,709.1,1161.6,712,1161.6,718.1z"/>
		<path fill="#B3B3B3" d="M503.3,990.1c-5.3,0-9.7-4-9.6-9.1c0.1-4.9,4.2-8.9,9.3-8.9c5.1-0.1,9.7,3.9,9.7,8.5
			C512.6,985.8,508.4,990,503.3,990.1z"/>
		<path fill="#B3B3B3" d="M746.7,742.1c6.1,0,9,3,8.897,9.103c0,5.1-3.697,8.8-8.897,8.897c-5.103,0.103-9.103-4.197-9.103-9.5
			C737.6,745,740.8,742.1,746.7,742.1z"/>
		<path fill="#B3B3B3" d="M809.6,1309.7c0,4.897-4.1,9.397-8.6,9.397c-5-0.1-9.4-4.197-9.4-8.8c-0.1-5.5,4.2-10.2,9.103-10.1
			C805.7,1300.1,809.6,1304.4,809.6,1309.7z"/>
		<path fill="#B3B3B3" d="M1315.9,530.1c-5.4,0.103-10.2-4.1-10.2-9c0-4.5,4.1-8.897,8.5-9c5.8-0.1,10.399,3.7,10.5,8.5
			C1324.6,525.4,1320.5,530,1315.9,530.1z"/>
		<path fill="#B3B3B3" d="M665.7,1187.1c-6.103,0-9.103-2.897-9.103-9c0-5.897,2.9-9,8.5-9c5.303,0,9.5,4.103,9.5,9.2
			C674.5,1183.4,670.8,1187,665.7,1187.1z"/>
		<path fill="#B3B3B3" d="M728.6,1178c0,6-3,9.1-8.897,9.1c-6,0-9.103-3-9.103-9c0-5.3,3.9-9.1,9.2-9
			C724.9,1169.2,728.6,1172.9,728.6,1178z"/>
		<path fill="#B3B3B3" d="M1342.8,742.1c4.7,0,8.9,4.5,8.8,9.2c-0.1,5-4.397,8.9-9.8,8.8c-5-0.1-9.1-4.197-9.1-9.1
			C1332.7,745.7,1336.9,742,1342.8,742.1z"/>
		<path fill="#B3B3B3" d="M1179.9,1187.1c-5.5,0-9.303-3.6-9.303-9c0-4.897,4.103-8.897,9.103-9c5.7-0.1,8.8,2.9,8.897,8.7
			C1188.7,1184,1185.8,1187,1179.9,1187.1z"/>
		<path fill="#B3B3B3" d="M827.9,891.1c-6.303,1-9.103-4.397-9.303-8.897c-0.197-4.8,4.2-9.2,9-9.103c4.603,0.2,9.603,3,9.103,9.2
			C836.2,888.1,833.7,891.1,827.9,891.1z"/>
		<path fill="#B3B3B3" d="M773.5,709.1c6.2,0,9.1,2.9,9.1,8.9c0,5.9-2.897,9.1-8.5,9.1c-5.3,0-9.6-4-9.5-9.1
			C764.7,712.8,768.4,709.1,773.5,709.1z"/>
		<path fill="#B3B3B3" d="M936.2,990.1c-5,0-10-4.197-9.4-8.6c0.7-5.6,2.8-9.2,9.103-9.3c5.3-0.103,9.6,3.8,9.697,8.8
			C945.7,985.9,941.4,990,936.2,990.1z"/>
		<path fill="#B3B3B3" d="M457.6,981.2c0,5.8-3.1,8.897-8.697,8.8c-5.303-0.1-9.5-4.2-9.303-9.2c0.103-4.8,4.303-8.8,9.2-8.8
			C454.8,972.1,457.7,975.1,457.6,981.2z"/>
		<path fill="#B3B3B3" d="M954.6,980.7c0-5.7,2.9-8.603,8.7-8.603c4.9,0,9.4,4.2,9.3,8.7c-0.1,5.3-4.1,9.2-9.3,9.3
			C957.5,990.1,954.6,987,954.6,980.7z"/>
		<path fill="#B3B3B3" d="M1098.8,972.1c5.7,0,8.9,3.2,8.9,8.7c-0.101,5.103-3.9,9.2-8.8,9.3c-5.303,0.103-9.2-3.8-9.2-9.1
			C1089.6,974.9,1092.6,972,1098.8,972.1z"/>
		<path fill="#B3B3B3" d="M1134.6,980.5c0,5.5-3.6,9.4-8.8,9.5c-5,0.1-9.2-4.1-9.2-9.4c0-5.6,3-8.6,8.9-8.6
			C1131.5,972.1,1134.6,975,1134.6,980.5z"/>
		<path fill="#B3B3B3" d="M1233.8,972.1c6,0,8.8,3,8.8,9.2c0,5.8-3.1,8.9-8.697,8.8c-5.303-0.1-9.4-4.197-9.303-9.3
			C1224.8,976,1228.9,972,1233.8,972.1z"/>
		<path fill="#B3B3B3" d="M1287.7,972.1c5.7,0,9.7,3.7,9.5,8.7c-0.2,5.7-3.8,9.3-9.2,9.3c-5.2,0-9.6-4.197-9.4-9.197
			C1278.8,976.1,1282.9,972,1287.7,972.1z"/>
		<path fill="#B3B3B3" d="M863.6,981c0,5.9-2.897,9.1-8.397,9.1c-5.4,0-9.603-3.897-9.603-9c0-4.897,4-9,8.9-9
			C860.7,972,863.6,974.9,863.6,981z"/>
		<path fill="#B3B3B3" d="M827.7,972.1c6.1,0,9,2.9,9,9c0,5.9-2.9,9-8.5,9c-5.3,0-9.5-4-9.5-9.1
			C818.7,976.1,822.8,972.1,827.7,972.1z"/>
		<path fill="#B3B3B3" d="M746.5,972.1c6.1,0,9.1,2.9,9.1,8.9c0,5.3-3.897,9.2-9.197,9.1c-4.9-0.1-8.803-4.197-8.803-9.3
			C737.6,975.2,740.8,972.1,746.5,972.1z"/>
		<path fill="#B3B3B3" d="M710.6,981c0-6.1,2.9-9,9-8.9c5.9,0,9,3,8.9,8.5c0,5.303-4.1,9.5-9.1,9.4C714.7,990,710.6,985.9,710.6,981
			z"/>
		<path fill="#B3B3B3" d="M692.8,972.1c5.7,0,8.9,3.2,8.8,8.7c-0.1,5.103-4,9.2-8.8,9.3c-5.3,0.103-9.2-3.8-9.2-9.1
			C683.6,974.9,686.6,972,692.8,972.1z"/>
		<path fill="#B3B3B3" d="M1089.6,816.6c0-5.197,3.7-9.197,8.7-9.397s9.3,4.2,9.3,9.5c0,5.1-3.897,9.2-8.8,9.397
			C1093.9,826.2,1089.6,821.9,1089.6,816.6z"/>
		<path fill="#B3B3B3" d="M936.2,858.1c-5,0-9.5-3.897-9.5-8.397c-0.103-4.4,4.8-9.5,9.3-9.603c4.5-0.1,9.8,5,9.7,9.2
			C945.4,855.1,942.3,858.1,936.2,858.1z"/>
		<path fill="#B3B3B3" d="M746.5,924.1c-5.8,0-9-3.1-8.9-8.697c0-5.303,4.2-9.5,9.303-9.303c5.1,0.103,8.697,3.9,8.697,9
			C755.6,921.2,752.7,924.1,746.5,924.1z"/>
		<path fill="#B3B3B3" d="M990.7,924.1c-6.103,0-9.103-2.897-9.103-8.897c0-5.9,2.9-9.103,8.4-9.103c5.4,0,9.6,3.9,9.6,9
			C999.6,920,995.6,924.1,990.7,924.1z"/>
		<path fill="#B3B3B3" d="M1125.9,924.1c-6,0.103-9.2-2.8-9.2-8.3c-0.101-5.397,3.8-9.7,8.8-9.7c4.9-0.1,9.1,4,9.2,8.803
			C1134.7,921,1131.8,924,1125.9,924.1z"/>
		<path fill="#B3B3B3" d="M1161.6,915.3c-0.1,6-3.1,8.8-9.3,8.7c-5.7-0.1-8.8-3.3-8.7-8.9c0.103-5.1,4.103-9.1,9-9.1
			C1158,906.1,1161.7,909.9,1161.6,915.3z"/>
		<path fill="#B3B3B3" d="M665.5,957.1c-6,0-8.9-3-8.9-9.1c0-5.9,3-8.9,8.603-8.9c5.3,0,9.5,4.103,9.397,9.103
			C674.5,953.1,670.4,957.1,665.5,957.1z"/>
		<path fill="#B3B3B3" d="M1125.7,939.1c5.5,0,9,3.603,8.897,9.2c0,5.4-3.6,8.9-9.197,8.8c-4.9,0-8.7-3.6-8.803-8.3
			C1116.6,942.9,1120.2,939.1,1125.7,939.1z"/>
		<path fill="#B3B3B3" d="M602.6,882.6c0-6.197,3.103-9.697,8.603-9.6c5.1,0.1,9.3,4,9.397,8.8c0.103,5.9-3.1,9.2-9,9.2
			C605.6,891.1,602.6,888.2,602.6,882.6z"/>
		<path fill="#B3B3B3" d="M755.6,882.2c0,6-3,8.897-9.1,8.897c-5.8,0-8.9-3-8.9-8.6c0-5.3,4.2-9.5,9.2-9.4
			C751.7,873.2,755.7,877.3,755.6,882.2z"/>
		<path fill="#B3B3B3" d="M773.7,891.1c-5.9,0-9-2.897-9.103-8.397c0-5.4,3.9-9.603,9-9.603c4.9,0,9,4.103,9,8.9
			C782.6,888.1,779.7,891.1,773.7,891.1z"/>
		<path fill="#B3B3B3" d="M990.1,891.1c-5.697,0-8.397-2.697-8.5-8.3c0-6.3,3-9.7,8.603-9.6c5.3,0.1,9.3,4,9.397,9.3
			C999.8,887.9,996.2,891.1,990.1,891.1z"/>
		<path fill="#B3B3B3" d="M1071.2,891.1c-5.9-0.1-8.7-3.1-8.603-9.397c0.103-4.7,4.5-8.7,9.303-8.603c5,0.2,8.8,4.603,8.697,9.9
			C1080.5,888.4,1077.2,891.2,1071.2,891.1z"/>
		<path fill="#B3B3B3" d="M1161.6,882.1c0,6.103-2.897,9-9,8.9c-5.897,0-9-3-9-8.5c0-5.3,4.103-9.5,9.103-9.4
			C1157.6,873.1,1161.6,877.2,1161.6,882.1z"/>
		<path fill="#B3B3B3" d="M1206.7,1235.1c6.1,0,9,2.9,9,9.103c0,5.8-3.4,9.1-9.2,8.897c-4.6-0.1-8.7-4.197-8.7-8.897
			C1197.5,1238.3,1200.8,1235.1,1206.7,1235.1z"/>
		<path fill="#B3B3B3" d="M1161.6,1244c0,4.9-4,9-8.897,9c-5,0.1-9.103-4.1-9.103-9.5c0-5.6,3.103-8.5,9-8.5
			C1158.7,1235.1,1161.6,1238,1161.6,1244z"/>
		<path fill="#B3B3B3" d="M1089.6,1243.8c0-6,3-8.8,9.2-8.8c5.8,0,8.9,3.1,8.8,8.7c-0.1,5.3-4.197,9.397-9.3,9.3
			C1093.5,1252.9,1089.6,1248.8,1089.6,1243.8z"/>
		<path fill="#B3B3B3" d="M1062.6,1244.2c0-6.2,2.9-9.103,8.9-9.103c5.8,0,9.1,3,9.1,8.5c0,5.303-4,9.603-9.1,9.5
			C1066.4,1253,1062.7,1249.3,1062.6,1244.2z"/>
		<path fill="#B3B3B3" d="M1008.6,1244.3c0-6.2,2.803-9.2,8.803-9.2s9.197,3.103,9.197,9c0,4.803-4.3,9.103-9.1,9
			C1011.8,1253,1008.7,1249.8,1008.6,1244.3z"/>
		<path fill="#B3B3B3" d="M936.1,1235.1c5.303,0,9.5,3.9,9.5,8.9c0,4.7-4.397,9.2-9.1,9.1c-5.2-0.1-9.6-4.1-9.7-8.897
			C926.6,1239.2,930.8,1235.1,936.1,1235.1z"/>
		<path fill="#B3B3B3" d="M909.4,1235.1c4.697,0,8.897,3.9,9.1,8.303c0.2,4.897-4.6,9.8-9.5,9.697c-4.7-0.1-9.2-4.3-9.4-8.8
			C899.5,1239.2,903.9,1235,909.4,1235.1z"/>
		<path fill="#B3B3B3" d="M746.7,1235.1c6.1,0,9,2.9,9,9c0,4.9-4.103,8.9-9,9c-5.103,0-9-4.197-9-9.5
			C737.6,1238,740.8,1235.1,746.7,1235.1z"/>
		<path fill="#B3B3B3" d="M981.6,1276.8c0-5.8,2.603-8.397,8.103-8.8c6.897-0.5,9.6,3.3,9.7,8.4c0.197,6.3-3.103,9.197-9.4,9.6
			C984.7,1286.3,981.6,1282.7,981.6,1276.8z"/>
		<path fill="#B3B3B3" d="M863.6,1276.6c0,6.103-3.197,9.7-8.8,9.5c-5.3-0.197-9.2-4.197-9.2-9.5c0-5.6,3.4-8.5,9.7-8.5
			C860.9,1268.1,863.6,1270.8,863.6,1276.6z"/>
		<path fill="#B3B3B3" d="M1215.6,1211.1c0,5.9-3,9-8.6,8.9c-5.3,0-9.5-4.1-9.4-9.1c0.103-4.803,4.2-8.9,9.103-8.9
			C1212.7,1202.1,1215.6,1205,1215.6,1211.1z"/>
		<path fill="#B3B3B3" d="M1179.6,1202.1c6.103,0,9,2.9,9,9c0,5.803-3.1,9-8.6,9c-5.3,0-9.5-4.197-9.4-9.197
			C1170.7,1205.7,1174.5,1202.1,1179.6,1202.1z"/>
		<path fill="#B3B3B3" d="M1089.6,1210.9c0-6,3-8.9,9.2-8.803c5.7,0.103,8.9,3.303,8.8,8.803c-0.1,5.1-4,9.197-8.897,9.197
			C1093.3,1220.1,1089.6,1216.3,1089.6,1210.9z"/>
		<path fill="#B3B3B3" d="M1017.5,1202.1c4.9,0,9,4,9.1,8.803c0.103,5-4.1,9.1-9.397,9.197c-5.603,0-8.603-3-8.603-8.897
			C1008.6,1205,1011.5,1202.1,1017.5,1202.1z"/>
		<path fill="#B3B3B3" d="M863.6,1211.2c0,5.8-3,8.897-8.6,8.897c-5.3,0-9.5-4.197-9.4-9.197c0.103-4.803,4.2-8.803,9.103-8.803
			C860.8,1202.1,863.7,1205.1,863.6,1211.2z"/>
		<path fill="#B3B3B3" d="M836.6,1211.1c0,5.9-3,8.9-8.6,8.9c-5.3,0-9.5-4.1-9.4-9.1c0.103-4.803,4.2-8.9,9.103-8.803
			C833.8,1202.1,836.6,1205,836.6,1211.1z"/>
		<path fill="#B3B3B3" d="M809.6,1211.1c0,5.9-3,8.9-8.6,8.9c-5.3,0-9.5-4.1-9.4-9.1c0.103-4.803,4.2-8.9,9.103-8.803
			C806.8,1202.1,809.6,1205,809.6,1211.1z"/>
		<path fill="#B3B3B3" d="M773.7,1202.1c6.1,0,9,3,8.897,9.103c0,5.699-3.197,8.897-8.697,8.897c-5.103-0.1-9.2-3.897-9.303-8.8
			C764.5,1206,768.4,1202.1,773.7,1202.1z"/>
		<path fill="#B3B3B3" d="M638.7,1202.1c4.897,0,8.897,4.103,8.897,9c0,5.103-4.197,9-9.6,9c-5.5,0-8.4-3.197-8.4-9.1
			C629.6,1204.9,632.6,1202.1,638.7,1202.1z"/>
		<path fill="#B3B3B3" d="M1360.6,1342.7c0-6.2,3.103-9.7,8.603-9.603c5.3,0.103,9.3,4.103,9.3,9.4c0.1,5.5-3.4,8.6-9.6,8.6
			C1363.3,1351.1,1360.6,1348.3,1360.6,1342.7z"/>
		<path fill="#B3B3B3" d="M1261.1,1351.1c-6.1,0-9.697-3.197-9.5-8.697c0.2-5.303,4.2-9.2,9.5-9.303c5.603,0,8.603,3.4,8.5,9.7
			C1269.6,1348.4,1266.9,1351.1,1261.1,1351.1z"/>
		<path fill="#B3B3B3" d="M836.6,1309.5c0,5-3.897,9.4-8.397,9.5c-5,0.1-9.7-4.7-9.603-9.7c0.103-4.7,4.5-9.2,9-9.3
			C832.5,1300,836.6,1304.3,836.6,1309.5z"/>
		<path fill="#B3B3B3" d="M1369.2,1268.1c6.6-0.897,9.2,4.103,9.2,8.303c0,6.3-3.2,9.5-9.4,9.5c-4.7,0-9.1-2.7-8.5-9.603
			C1361,1270.7,1363.5,1268.1,1369.2,1268.1z"/>
		<path fill="#B3B3B3" d="M1269.6,1276.7c0.803,6.6-4,9.2-8.3,9.2c-6.3,0-9.5-3.2-9.5-9.4c0-4.5,2.601-9.1,9.601-8.5
			C1266.9,1268.4,1269.6,1270.9,1269.6,1276.7z"/>
		<path fill="#B3B3B3" d="M855.2,1351.1c-6.2,0-9.7-3.1-9.603-8.6c0.103-5.3,4.103-9.3,9.4-9.3c5.5-0.103,8.6,3.397,8.6,9.6
			C863.6,1348.4,860.9,1351.1,855.2,1351.1z"/>
		<path fill="#B3B3B3" d="M1342.3,1300.1c4.4,0.103,9.4,5,9.3,9c0,4.9-4.897,9.9-9.5,9.9c-4.197-0.1-9.397-5.1-9.3-9.1
			C1332.8,1305.1,1337.7,1300,1342.3,1300.1z"/>
		<path fill="#B3B3B3" d="M1008.6,1309.6c0-5,3.9-9.397,8.4-9.5c5-0.1,9.7,4.7,9.6,9.7c-0.1,4.7-4.5,9.2-9,9.3
			C1012.7,1319.1,1008.6,1314.8,1008.6,1309.6z"/>
		<path fill="#B3B3B3" d="M890.6,1079.6c0,5-4.1,9.5-8.6,9.4s-9.4-5-9.4-9.4c0-4.3,4.7-9.397,8.9-9.5
			C887.2,1069.9,890.6,1073.5,890.6,1079.6z"/>
		<path fill="#B3B3B3" d="M836.6,1079.5c0,5-3.897,9.4-8.397,9.5c-5,0.1-9.7-4.7-9.603-9.7c0.103-4.8,4.4-9.2,9-9.3
			C832.5,1070,836.6,1074.3,836.6,1079.5z"/>
		<path fill="#B3B3B3" d="M1179.9,1121.1c-6,0-9.103-2.8-9.2-8.3c-0.101-5.399,3.8-9.6,8.8-9.7c4.9-0.1,9.1,4,9.2,8.803
			C1188.7,1118,1185.8,1121,1179.9,1121.1z"/>
		<path fill="#B3B3B3" d="M1161.6,1112.1c0,6.103-2.897,9-9,9c-5.897,0-9-2.897-9-8.5c0-5.3,4-9.5,9.103-9.5
			C1157.6,1103.1,1161.6,1107.2,1161.6,1112.1z"/>
		<path fill="#B3B3B3" d="M1017.1,1121.1c-5.697,0-8.397-2.697-8.397-8.397s3.6-9.7,8.7-9.603c5.1,0.103,9.3,4,9.3,8.803
			C1026.7,1118,1023.5,1121.1,1017.1,1121.1z"/>
		<path fill="#B3B3B3" d="M990.1,1121.1c-5.697,0-8.5-2.697-8.5-8.3c0-6.3,3-9.7,8.5-9.7c5.303,0,9.303,4,9.4,9.303
			C999.8,1117.8,996.3,1121.1,990.1,1121.1z"/>
		<path fill="#B3B3B3" d="M863.6,1112.6c0,5.7-2.697,8.5-8.3,8.5c-6.3,0-9.7-3-9.7-8.6c0-5.3,4-9.3,9.303-9.4
			C860.4,1102.9,863.6,1106.4,863.6,1112.6z"/>
		<path fill="#B3B3B3" d="M782.6,1112c0,6.1-2.897,9-9,9c-5.897,0-9-2.9-9-8.5c0-5.3,4-9.6,9-9.5
			C778.5,1103.1,782.6,1107.2,782.6,1112z"/>
		<path fill="#B3B3B3" d="M610.9,1121.1c-5.603,0-8.303-2.8-8.303-8.5c0-5.6,3.7-9.697,8.803-9.5c5.1,0.2,9.197,4.103,9.197,9
			C620.6,1118.1,617.5,1121.1,610.9,1121.1z"/>
		<path fill="#B3B3B3" d="M584.3,1121.1c-5.8,0-8.397-2.6-8.8-8.1c-0.5-6.9,3.4-9.6,8.4-9.7c6.3-0.1,9.197,3.103,9.6,9.4
			C593.8,1118,590.3,1121,584.3,1121.1z"/>
		<path fill="#B3B3B3" d="M1161.6,1014.2c0,4.897-4.1,8.897-9,8.897c-5.1,0-9-4.197-9-9.6c0-5.5,3.2-8.4,9.103-8.4
			C1158.8,1005.1,1161.6,1008,1161.6,1014.2z"/>
		<path fill="#B3B3B3" d="M1062.6,1014c0-6,3-8.9,9.103-8.9c5.897,0,8.897,3,8.897,8.603c0,5.3-4.197,9.5-9.197,9.397
			C1066.6,1023,1062.6,1018.9,1062.6,1014z"/>
		<path fill="#B3B3B3" d="M909.1,1023.1c-4.897,0-9.697-4.697-9.5-9.3c0.2-5,4.4-8.7,9.7-8.7c4.9,0,9.4,4.303,9.2,8.7
			C918.3,1018.9,914.1,1023.1,909.1,1023.1z"/>
		<path fill="#B3B3B3" d="M836.6,1014c0,5.9-3.197,9.1-9.1,9.1c-4.9,0-9.1-4.3-8.9-9.197c0.303-4.603,3.103-9.303,8.9-8.9
			C833.6,1005.4,836.6,1007.9,836.6,1014z"/>
		<path fill="#B3B3B3" d="M692.4,1005.1c6,0,9.1,2.803,9.197,8.303c0.103,5.397-3.8,9.6-8.897,9.697c-4.9,0.103-9.103-4-9.103-8.8
			C683.6,1008.1,686.4,1005.1,692.4,1005.1z"/>
		<path fill="#B3B3B3" d="M584.2,1005.1c5.397,0,9.3,3.4,9.5,8.303c0.2,5.197-4,9.8-9,9.6c-4.8-0.2-9.7-2.9-9.103-9.7
			C576,1007.8,578.4,1005.1,584.2,1005.1z"/>
		<path fill="#B3B3B3" d="M530.2,1023.1c-5,0-9.7-4.5-9.603-9.197c0.103-4.803,4.303-8.803,9.103-8.803c5.3,0,9.897,4,9.8,8.603
			C539.4,1018.6,535,1023,530.2,1023.1z"/>
		<path fill="#B3B3B3" d="M503.4,1005.1c4.897,0,9.397,4.303,9.197,8.803c-0.197,4.697-5.1,9.3-9.6,9.197c-5.1-0.1-9.2-4-9.3-8.8
			C493.5,1009.2,497.9,1005,503.4,1005.1z"/>
		<path fill="#B3B3B3" d="M430.6,1014c0,5.9-3.197,9.1-9.1,9.1c-4.6-0.1-8.8-4.1-8.9-8.697c-0.1-5.803,3.103-9.2,8.9-9.303
			C427.7,1005,430.6,1007.9,430.6,1014z"/>
		<path fill="#B3B3B3" d="M1215.6,1046.9c0,4.697-4,9-8.397,9.1c-5.2,0.1-9.801-4-9.603-9c0.303-7.6,4.4-9.4,10.103-9
			C1213.1,1038.4,1215.7,1041,1215.6,1046.9z"/>
		<path fill="#B3B3B3" d="M1161.6,1178.1c0,6.103-2.897,9-9.1,9c-5.1,0-8.8-3.697-8.9-8.8c-0.1-5,4.103-9.2,9.4-9.2
			C1158.6,1169.1,1161.6,1172.3,1161.6,1178.1z"/>
		<path fill="#B3B3B3" d="M1134.6,1178.2c0,6-3,8.897-9.3,8.8c-5-0.1-8.7-3.6-8.7-8.4c0-5.5,3.7-9.5,8.9-9.6
			C1130.9,1169,1134.7,1172.8,1134.6,1178.2z"/>
		<path fill="#B3B3B3" d="M1098.5,1187.1c-6.1,0-9-3-8.9-9.197c0-5,3.603-8.803,8.4-8.803c5.5-0.1,9.5,3.603,9.6,8.803
			C1107.7,1183.2,1103.9,1187.1,1098.5,1187.1z"/>
		<path fill="#B3B3B3" d="M1062.6,1178.2c0-5.9,3-9.103,8.5-9.103c5.303,0,9.603,4,9.5,9.103c0,5.1-3.8,8.897-8.8,8.897
			C1065.6,1187.1,1062.7,1184.2,1062.6,1178.2z"/>
		<path fill="#B3B3B3" d="M1044.6,1187.1c-6.1,0-8.897-3-8.897-9.1c0-5.9,3-9,8.6-8.9c5.3,0,9.5,4.103,9.4,9.103
			C1053.6,1183,1049.4,1187.1,1044.6,1187.1z"/>
		<path fill="#B3B3B3" d="M1017.6,1187.1c-6.1,0-9-2.897-9-9c0-5.897,2.9-9,8.5-9c5.303,0,9.5,4,9.5,9.103
			C1026.6,1183,1022.5,1187.1,1017.6,1187.1z"/>
		<path fill="#B3B3B3" d="M809.6,1178.3c0,6-3,8.8-9.197,8.8c-4.803,0-8.9-4.197-8.803-9.1c0.103-5.1,4.303-8.9,9.7-8.9
			C806.8,1169.1,809.7,1172.3,809.6,1178.3z"/>
		<path fill="#B3B3B3" d="M782.6,1178.1c0,6.103-3,9-9.1,8.9c-5.1,0-8.8-3.7-8.9-8.9c-0.1-5.1,4.2-9.1,9.5-9.1
			C779.6,1169.1,782.6,1172.3,782.6,1178.1z"/>
		<path fill="#B3B3B3" d="M692.4,1187.1c-6-0.1-8.803-3.1-8.7-9.397c0.1-5,3.6-8.7,8.5-8.603c5.5,0,9.5,3.7,9.5,9
			C701.6,1183.4,697.9,1187.1,692.4,1187.1z"/>
		<path fill="#B3B3B3" d="M1152.8,1154.1c-5.897,0-9.1-2.897-9.2-8.397c0-5.4,3.9-9.603,9-9.603c5.2,0,8.9,3.7,9,8.803
			C1161.7,1151,1158.8,1154,1152.8,1154.1z"/>
		<path fill="#B3B3B3" d="M1098.7,1154.1c-6.103,0-9.103-2.897-9.103-8.897c0-4.9,4-9,8.803-9.103c5-0.1,9.1,4.103,9.197,9.4
			C1107.7,1151.1,1104.6,1154,1098.7,1154.1z"/>
		<path fill="#B3B3B3" d="M1044.5,1154.1c-6,0-8.6-3-9-9.1c-0.4-5.8,4.4-8.6,8.9-8.8c4.897-0.2,9.1,4,9.197,8.897
			C1053.7,1150.9,1050.5,1154.1,1044.5,1154.1z"/>
		<path fill="#B3B3B3" d="M809.6,1145.1c0,6.103-2.897,9-9,9c-5.897,0-9.1-3.3-9-9.197c0.103-4.603,4.2-8.7,8.803-8.803
			C806.3,1136,809.6,1139.2,809.6,1145.1z"/>
		<path fill="#B3B3B3" d="M746.4,1154.1c-5.803-0.1-8.803-3.1-8.803-8.697c0.103-5.303,4.2-9.4,9.303-9.303
			c4.8,0.103,8.697,4.303,8.697,9.2C755.6,1151.3,752.6,1154.1,746.4,1154.1z"/>
		<path fill="#B3B3B3" d="M638.7,1154.1c-6.103,0-9.103-2.897-9.103-9c0-5.897,3.2-9.1,9.103-9c4.6,0.103,8.8,4.103,8.897,8.7
			C647.8,1150.7,644.5,1154,638.7,1154.1z"/>
		<path fill="#B3B3B3" d="M502.8,1154.1c-4.8,0-9-4-9.1-8.8c-0.103-4.7,4.2-9.1,8.897-9.2c5.4,0,10.103,4.303,9.9,9.2
			C512.3,1150.5,508.3,1154,502.8,1154.1z"/>
		<path fill="#B3B3B3" d="M1269.6,553.6c0,6.103-3.197,9.7-8.8,9.5c-5.3-0.197-9.2-4.197-9.2-9.5c0-5.6,3.4-8.5,9.7-8.5
			C1266.9,545.1,1269.6,547.8,1269.6,553.6z"/>
		<path fill="#B3B3B3" d="M1342.3,694.1c-5.397,0-9.7-4.1-9.5-9.1s4.3-8.9,9.3-8.9c5.303,0,9.7,4.2,9.5,9.103
			C1351.5,690.1,1347.3,694,1342.3,694.1z"/>
		<path fill="#B3B3B3" d="M1062.6,717.7c0.103-5.9,3.2-8.7,9.5-8.603c4.9,0.103,8.603,4.2,8.5,9.2c-0.1,5-4.5,8.9-9.8,8.8
			C1065.4,726.9,1062.5,723.6,1062.6,717.7z"/>
		<path fill="#B3B3B3" d="M1134.6,718.5c-0.1,5-3.697,8.6-8.5,8.6c-5.897,0-9.5-3.6-9.5-9.197c0-5.303,3.803-8.803,9.303-8.803
			C1131.3,709.1,1134.7,712.9,1134.6,718.5z"/>
		<path fill="#B3B3B3" d="M1287.9,727.1c-5-0.1-9.2-4.1-9.303-8.897c-0.1-5,4.303-9.103,9.603-9.103c5.1,0,9.2,3.9,9.3,8.9
			C1297.601,723,1293.2,727.1,1287.9,727.1z"/>
		<path fill="#B3B3B3" d="M1360.6,553.7c0-5.8,2.7-8.3,8.103-8.7c6.897-0.5,9.3,3.5,9.8,8.5c0.5,5.4-4.1,9.7-9.5,9.6
			C1363.6,563,1360.6,559.7,1360.6,553.7z"/>
		<path fill="#B3B3B3" d="M710.6,718.1c0-5.6,3.5-9,9.103-9c5.5,0,9,3.603,8.897,9.2c0,5.2-3.8,8.9-8.8,8.8
			C714.4,727,710.6,723.3,710.6,718.1z"/>
		<path fill="#B3B3B3" d="M746.7,709.1c6.1,0,8.897,3,8.897,9.2c0,5-3.6,8.7-8.397,8.8c-5.5,0.103-9.5-3.6-9.603-8.8
			C737.5,713,741.4,709,746.7,709.1z"/>
		<path fill="#B3B3B3" d="M1017.4,661.1c-6-0.1-8.803-3.1-8.803-9.3c0.103-5.5,3.303-8.7,9-8.7c4.803,0,9.2,4.2,9,9.103
			C1026.4,656.8,1023.5,662,1017.4,661.1z"/>
		<path fill="#B3B3B3" d="M1314.9,661.1c-4.9,0-9.4-4.3-9.2-8.697c0.2-5.103,4.5-9.303,9.5-9.303s9.7,4.603,9.5,9.2
			C1324.4,657.3,1320.2,661.1,1314.9,661.1z"/>
		<path fill="#B3B3B3" d="M1206.8,661.1c-6.2,1-9-4.397-9.2-9c-0.197-4.8,4.2-9.1,9-9c5.7,0,8.9,3.2,8.9,8.7
			C1215.7,658,1212.8,661,1206.8,661.1z"/>
		<path fill="#B3B3B3" d="M836.6,685.2c0,6-3,8.897-9.1,8.897c-4.9,0-8.9-4.1-8.9-9c0-5.1,4.2-9,9.603-9
			C833.7,676.1,836.6,679.2,836.6,685.2z"/>
		<path fill="#B3B3B3" d="M1017.5,694.1c-6,0-8.9-3-8.9-9.1c0-5.9,3-8.9,8.603-8.9c5.3,0,9.5,4.103,9.397,9.2
			C1026.5,690.1,1022.4,694.1,1017.5,694.1z"/>
		<path fill="#B3B3B3" d="M1044.8,694.1c-6.2,0-9.1-2.897-9.1-8.897c0-5.8,3-9.103,8.5-9.103c5.3,0,9.6,4,9.5,9.103
			C1053.6,690.3,1049.9,694,1044.8,694.1z"/>
		<path fill="#B3B3B3" d="M1098.7,694.1c-6.103,0-9.103-2.897-9.103-8.897c0-5.3,3.9-9.2,9.2-9.103c4.9,0.103,8.8,4.2,8.8,9.303
			C1107.7,690.9,1104.5,694,1098.7,694.1z"/>
		<path fill="#B3B3B3" d="M1288.1,497.1c-5.3,0-9.697-4.3-9.5-9.197c0.2-4.9,4.303-8.803,9.4-8.803c5.4,0,9.7,4.103,9.5,9.2
			C1297.3,493.2,1293.2,497.1,1288.1,497.1z"/>
		<path fill="#B3B3B3" d="M836.6,652.1c0,6.103-2.897,9-9.1,9c-5.8,0-9.1-3.397-8.9-9.197c0.103-4.603,4.2-8.7,8.9-8.7
			C833.4,643,836.6,646.2,836.6,652.1z"/>
		<path fill="#B3B3B3" d="M755.6,685c0,6.1-2.897,9-9,9c-5.8,0-9-3.1-9-8.6c0-5.303,4.2-9.5,9.2-9.4
			C752,676.2,755.6,679.9,755.6,685z"/>
		<path fill="#B3B3B3" d="M692.4,661.1c-6-0.1-8.803-3.1-8.7-9.3c0-4.8,4.3-8.8,9.2-8.7c5.1,0.103,8.897,4.4,8.8,9.803
			C701.5,658.3,698.3,661.1,692.4,661.1z"/>
		<path fill="#B3B3B3" d="M1261.1,628.1c-6.1,0-9.697-3.197-9.5-8.697c0.2-5.303,4.2-9.2,9.5-9.303c5.603,0,8.603,3.4,8.5,9.7
			C1269.6,625.4,1266.8,628.1,1261.1,628.1z"/>
		<path fill="#B3B3B3" d="M1351.6,585.9c0.2,4.8-4.397,9.897-9.197,10.1c-4.2,0.2-9.303-4.4-9.7-8.6c-0.3-4.5,4.8-10.2,9.3-10.303
			C1346.2,577,1351.4,581.8,1351.6,585.9z"/>
		<path fill="#B3B3B3" d="M1070.9,628.1c-5.5,0-8.303-3.1-8.303-9.1c0-4.6,4.2-8.9,8.603-8.9c5.5,0,9.5,4.2,9.397,9.7
			C1080.6,625.4,1077.4,628.1,1070.9,628.1z"/>
		<path fill="#B3B3B3" d="M1089.6,751.1c0-6.1,2.9-9,8.9-9.1c5.9,0,9,2.9,9.1,8.4c0,5.397-3.897,9.6-9,9.6
			C1093.7,760.1,1089.6,756,1089.6,751.1z"/>
		<path fill="#B3B3B3" d="M1360.6,619.6c0-6.1,3.2-9.697,8.7-9.5c5.3,0.2,9.2,4.2,9.3,9.5c0,5.603-3.397,8.603-9.697,8.5
			C1363.3,628,1360.6,625.3,1360.6,619.6z"/>
		<path fill="#B3B3B3" d="M1269.6,750.5c0,6.4-2.697,9.6-8.5,9.6c-5.5,0-9.6-4.1-9.5-9.6c0.103-4.3,4.4-8.4,9-8.4
			C1266.6,742.1,1269.6,744.9,1269.6,750.5z"/>
		<path fill="#B3B3B3" d="M1287.6,742.1c5.7,0,9.803,3.603,9.7,8.603c-0.1,5.6-3.8,9.3-9.1,9.397c-5.3,0-9.603-4.1-9.5-9.1
			C1278.7,746.2,1282.9,742.1,1287.6,742.1z"/>
		<path fill="#B3B3B3" d="M665.2,628.1c-5.7,0-8.5-2.897-8.603-8.8c0-4.6,4-9,8.303-9.2c5.397-0.197,9.697,4,9.697,9.4
			C674.7,625.2,671.5,628.1,665.2,628.1z"/>
		<path fill="#B3B3B3" d="M863.6,619.5c0,5.7-2.697,8.5-8.3,8.5c-6.3,0-9.7-3-9.7-8.5c0-5.3,3.9-9.3,9.2-9.5
			C860.4,609.9,863.6,613.4,863.6,619.5z"/>
		<path fill="#B3B3B3" d="M981.6,1145.6c0-6.5,3-9.6,9.103-9.6c4.8,0,9,4.3,8.897,9.1c-0.1,4.803-4.197,8.9-9.1,8.803
			C984.6,1154,981.6,1151.2,981.6,1145.6z"/>
		<path fill="#B3B3B3" d="M1017.4,1154.1c-6-0.1-8.803-3.1-8.7-9.3c0.1-5.5,3.3-8.7,8.897-8.7c4.803,0,9.103,4.2,9.103,9
			C1026.6,1150.4,1022.8,1154.1,1017.4,1154.1z"/>
		<path fill="#B3B3B3" d="M755.6,1178.2c0,6-3,8.897-9.197,8.897c-5.103,0-8.803-3.8-8.803-8.897c0-5,3.9-9,8.803-9.103
			C751.8,1169,755.6,1172.8,755.6,1178.2z"/>
		<path fill="#B3B3B3" d="M836.6,1177.9c0,6-2.8,9.1-8.397,9.197c-5.4,0-9.603-4-9.603-9.1c0-4.9,4.103-8.8,9.2-8.9
			C833.5,1169,836.6,1172.1,836.6,1177.9z"/>
		<path fill="#B3B3B3" d="M1125.9,1121.1c-6,0.103-9.2-2.8-9.2-8.3c-0.101-5.399,3.899-9.7,9-9.6c4.899,0,8.899,4.1,9,9.2
			C1134.7,1117.9,1131.7,1121,1125.9,1121.1z"/>
		<path fill="#B3B3B3" d="M602.6,1178.2c0-6,2.803-9.103,8.4-9.2c5.4,0,9.6,4,9.6,9.1c0,4.9-4.1,8.803-9.197,8.9
			C605.7,1187.2,602.7,1184.1,602.6,1178.2z"/>
		<path fill="#B3B3B3" d="M1071.6,1121.1c-6.1,0-9-2.897-9-9c0-4.6,4.103-9,8.4-9c5.5-0.1,9.6,4,9.6,9.5
			S1077.5,1121.1,1071.6,1121.1z"/>
		<path fill="#B3B3B3" d="M1125.4,1154.1c-5.803,0-8.9-3.1-8.803-8.8c0.103-5.1,4.103-9.2,9-9.2c5.103,0,9.103,4.2,9,9.603
			C1134.6,1151.2,1131.4,1154.1,1125.4,1154.1z"/>
		<path fill="#B3B3B3" d="M1242.6,586.8c0,5-4.3,9.5-8.8,9.3c-5.2-0.3-9.3-4.6-9.2-9.6c0.103-4.3,5-9.4,9.103-9.3
			C1238.8,577.2,1242.6,581.4,1242.6,586.8z"/>
		<path fill="#B3B3B3" d="M1242.6,1342.7c0,5.7-2.697,8.397-8.397,8.397c-6.301,0-9.7-3.1-9.603-8.6c0.103-5.3,4.103-9.3,9.303-9.4
			C1239,1333,1242.6,1337,1242.6,1342.7z"/>
		<path fill="#B3B3B3" d="M611.5,1154.1c-6,0-8.9-3-8.9-9.1c0-5.8,3.4-9,9.303-8.9c4.6,0.103,8.697,4.2,8.697,8.9
			C620.7,1150.2,616.9,1154.1,611.5,1154.1z"/>
		<path fill="#B3B3B3" d="M584.7,1154.1c-6,0-9-2.8-9.103-8.3c0-6.7,2.7-9.6,8.9-9.7c5-0.1,9.1,4.2,9.1,9.5
			C593.6,1149.9,589.3,1154.1,584.7,1154.1z"/>
		<path fill="#B3B3B3" d="M548.6,1145.3c0-6.3,2.9-9.3,8.803-9.2c5,0.103,9.3,4.103,9.197,8.9c-0.1,4.2-4,9.9-9.3,9.2
			C551.5,1153.5,548.6,1151.1,548.6,1145.3z"/>
		<path fill="#B3B3B3" d="M1396.2,545.1c6.1,0,9.6,3.303,9.5,8.803c-0.2,5.3-4.2,9.197-9.5,9.197c-5.103,0-8.603-4-8.5-9.697
			C1387.7,547.7,1390.4,545.1,1396.2,545.1z"/>
		<path fill="#B3B3B3" d="M1297.4,586.6c0,4.7-4.803,9.5-9.4,9.4c-4.4-0.1-9.4-5-9.4-9.1c0.103-5,5-10,9.603-9.803
			C1292.5,577.2,1297.4,582.3,1297.4,586.6z"/>
		<path fill="#B3B3B3" d="M1215.6,1145.2c0,6-3,8.897-9.197,8.897c-5.103,0-8.803-3.8-8.803-8.897c-0.1-4.8,4.103-9.103,9-9.103
			C1212.5,1136.1,1215.7,1139.3,1215.6,1145.2z"/>
		<path fill="#B3B3B3" d="M828.1,1121.1c-6.1,0-9.6-3.197-9.5-8.697c0.2-5.303,4.2-9.2,9.4-9.303c5,0,8.6,4,8.6,9.7
			C836.6,1118.4,833.8,1121.1,828.1,1121.1z"/>
		<path fill="#B3B3B3" d="M719.4,1154.1c-5.803,0-8.9-3.1-8.803-8.8c0.103-5.1,4.103-9.2,9-9.2c5.103,0,9.103,4.2,9,9.603
			C728.6,1151.2,725.4,1154.1,719.4,1154.1z"/>
		<path fill="#B3B3B3" d="M746.7,1121.1c-6,0-9.103-2.897-9.103-8.5c0-5.3,4.103-9.6,9.2-9.5c4.9,0.103,8.8,4.2,8.8,9.303
			C755.7,1118,752.6,1121,746.7,1121.1z"/>
		<path fill="#B3B3B3" d="M719.4,1121.1c-5.803,0-8.9-3.1-8.803-8.8c0.103-5.1,4-9.2,8.9-9.2c5.1,0,9.1,4.2,9.1,9.603
			C728.6,1118.2,725.5,1121.1,719.4,1121.1z"/>
		<path fill="#B3B3B3" d="M1188.6,1145c0,6.1-2.897,9.1-8.897,9.1c-5.9,0-9.103-3.197-9.103-9.1c0-4.9,4.303-9,9.2-8.9
			C1185,1136.2,1188.6,1139.9,1188.6,1145z"/>
		<path fill="#B3B3B3" d="M665.4,1154.1c-6,0-8.803-3-8.803-9.197c0-5,3.803-8.7,9-8.803c4.803,0,9.2,4.2,9,9
			C674.4,1149.7,671.6,1155,665.4,1154.1z"/>
		<path fill="#B3B3B3" d="M890.6,1112.3c0,5.8-2.6,8.7-8.1,8.7c-5.9,0-10.1-3.3-9.9-8.3c0.303-6.3,3.2-9.2,9.5-9.603
			C887.6,1102.8,890.6,1106.4,890.6,1112.3z"/>
		<path fill="#B3B3B3" d="M484.6,1112.6c0,5.7-2.697,8.4-8.397,8.4s-9.7-3.6-9.603-8.6c0.103-5.303,4.103-9.303,9.303-9.4
			C481.5,1103,484.6,1106.5,484.6,1112.6z"/>
		<path fill="#B3B3B3" d="M782.6,1145.2c0,6-3,8.897-9.1,8.897c-5.8,0-9-3.397-8.9-9.3c0.103-4.6,4.303-8.7,8.9-8.7
			C778.8,1136,782.6,1139.8,782.6,1145.2z"/>
		<path fill="#B3B3B3" d="M484.6,1145.5c0,5.7-2.897,8.5-8.8,8.6c-4.6,0-9-3.897-9.2-8.3c-0.197-5.2,3.9-9.7,8.9-9.7
			C481.7,1136,484.6,1139,484.6,1145.5z"/>
		<path fill="#B3B3B3" d="M421.7,1154.1c-5.3,0-9.2-3.8-9.103-9.1c0.103-4.6,4.103-8.8,8.7-8.9c5.8-0.197,9.3,3.103,9.3,8.9
			C430.7,1151.1,427.8,1154,421.7,1154.1z"/>
		<path fill="#B3B3B3" d="M1234,545.1c5.8,0,8.6,2.603,8.6,8.2c0,5.8-3.397,10.103-8.5,9.7c-6.197-0.4-9.397-3.3-9.397-9.6
			C1224.8,549.1,1227.4,544.2,1234,545.1z"/>
		<path fill="#B3B3B3" d="M1071.7,1154.1c-6.103,0-9-2.897-9-9c0-5.3,3.897-9.1,9.2-9c4.6,0.103,8.697,4.2,8.8,8.803
			C1080.7,1150.8,1077.5,1154.1,1071.7,1154.1z"/>
		<path fill="#B3B3B3" d="M1405.6,586.7c-0.1,4.7-4.5,9.3-8.897,9.397c-5.103,0.103-9.103-4.3-9.103-10c0-4.6,4.303-9,8.603-8.897
			C1400.8,577.2,1405.7,582.2,1405.6,586.7z"/>
		<path fill="#B3B3B3" d="M836.6,1145c0,6.1-2.897,9-9,9c-5.3,0-9.1-3.9-9-9.2c0.103-4.6,4.2-8.7,8.803-8.8
			C833.3,1136,836.6,1139.2,836.6,1145z"/>
		<path fill="#B3B3B3" d="M1179.8,1351.1c-6.2,0-9.3-3-9.2-8.8c0.103-5,4.103-9.1,8.9-9.2c4.8-0.1,9,4.2,9.1,8.9
			C1188.6,1348.1,1185.8,1351.1,1179.8,1351.1z"/>
		<path fill="#B3B3B3" d="M963.1,1268.1c6.103,0,9.7,3.2,9.5,8.7c-0.1,5.101-4.397,9.3-9.5,9.3c-5.5,0-8.6-3.397-8.5-9.697
			C954.6,1270.8,957.4,1268.1,963.1,1268.1z"/>
		<path fill="#B3B3B3" d="M1044.5,1268.1c6.2,0,9.1,2.803,9.2,8.9c0.1,5-4.3,9.1-9.5,9.1c-4.4,0-8.5-4.397-8.5-9
			C1035.6,1271,1038.5,1268,1044.5,1268.1z"/>
		<path fill="#B3B3B3" d="M1062.6,1277.1c0-6,2.803-9,8.303-9c6.5,0,9.6,2.7,9.697,8.303c0.103,5.3-3.897,9.6-9,9.6
			C1066.9,1286.1,1062.6,1281.9,1062.6,1277.1z"/>
		<path fill="#B3B3B3" d="M801.2,1351.1c-6.603,0-9.5-2.8-9.603-9c0-5,4.4-9.1,9.603-9c4.3,0.103,8.397,4.5,8.397,9.103
			C809.6,1348.1,806.8,1351.1,801.2,1351.1z"/>
		<path fill="#B3B3B3" d="M1180.1,1268.1c5.7,0,8.5,2.9,8.603,8.803c0,4.6-4,9-8.301,9.197c-5.199,0.2-9.699-3.897-9.699-8.897
			C1170.6,1271,1173.6,1268.1,1180.1,1268.1z"/>
		<path fill="#B3B3B3" d="M1234.2,1268.1c5.7,0,8.397,2.7,8.397,8.4s-3.6,9.7-8.6,9.6c-5.3-0.1-9.3-4.1-9.4-9.3
			C1224.5,1271.2,1228,1268.1,1234.2,1268.1z"/>
		<path fill="#B3B3B3" d="M1342.3,1268.1c5.4,0,9.2,3.5,9.3,8.4c0,4.4-4.8,9.4-9.3,9.6c-4.5,0.103-10.1-4.897-9.5-9.197
			C1333.5,1271.4,1337,1266.9,1342.3,1268.1z"/>
		<path fill="#B3B3B3" d="M828.1,1268.1c5.9,0,8.603,2.7,8.603,8.7c0,5-4.103,9.4-8.603,9.3c-5.1-0.1-9.3-4-9.397-8.8
			C818.5,1271.2,821.7,1268.1,828.1,1268.1z"/>
		<path fill="#B3B3B3" d="M1278.6,1309.6c0-4.5,4.9-9.5,9.5-9.5c4.2,0,9.103,5,9.2,9.303c0.101,4.6-4.6,9.6-9.2,9.6
			C1283.7,1319.1,1278.6,1314.1,1278.6,1309.6z"/>
		<path fill="#B3B3B3" d="M1242.6,1309.5c0,5-4,9.5-8.5,9.5c-4.8,0-9.397-4.6-9.5-9.4c0-4.3,4.7-9.397,8.9-9.6
			C1238.4,1300,1242.6,1304.3,1242.6,1309.5z"/>
		<path fill="#B3B3B3" d="M1043.9,1351.1c-5.5,0-8.303-3.1-8.303-9.1c0-4.6,4.2-8.9,8.5-8.9c5.303,0,9.5,4.2,9.5,9.2
			C1053.5,1348.4,1050.6,1351.1,1043.9,1351.1z"/>
		<path fill="#B3B3B3" d="M665.5,1202.1c5.3,0,9.2,3.803,9.1,9.103c-0.1,4.6-4.1,8.699-8.697,8.897
			c-5.803,0.103-9.2-3.1-9.303-8.897C656.6,1205,659.5,1202.1,665.5,1202.1z"/>
		<path fill="#B3B3B3" d="M683.6,1210.9c0-6,3-8.9,9.2-8.9c5.2,0,8.9,3.8,8.8,8.8c-0.1,5.103-4,9.2-8.897,9.2
			C687.4,1220.1,683.6,1216.3,683.6,1210.9z"/>
		<path fill="#B3B3B3" d="M755.6,1211.1c0,5.303-3.897,9.103-9.3,8.9c-4.6-0.1-8.7-4.3-8.7-8.9c-0.1-5.897,3.103-9.1,9-9.1
			C752.7,1202.1,755.6,1205,755.6,1211.1z"/>
		<path fill="#B3B3B3" d="M1035.6,1210.9c0-6,3-8.9,9.2-8.803c5,0,8.8,3.803,8.8,8.9c0,4.8-4.197,9.1-9,9.1
			C1038.7,1220.1,1035.6,1216.9,1035.6,1210.9z"/>
		<path fill="#B3B3B3" d="M1062.6,1210.7c0.103-5.9,3.103-8.7,9.4-8.603c4.9,0.103,8.6,4.103,8.6,9.2c-0.1,4.9-4.397,9.2-9.197,8.8
			C1065.6,1219.5,1061.9,1216.5,1062.6,1210.7z"/>
		<path fill="#B3B3B3" d="M981.6,1177.9c0-5.9,3.103-8.9,8.7-8.803c5.103,0.103,9.2,4,9.3,8.9c0.103,5.1-4.197,9.1-9.6,9.1
			C984.5,1187,981.6,1183.9,981.6,1177.9z"/>
		<path fill="#B3B3B3" d="M1215.6,1177.8c0,6-2.8,9.2-8.397,9.2c-5.4,0-9.603-3.9-9.603-9c0-4.9,4.103-8.9,9.2-9
			C1212.5,1169,1215.6,1172,1215.6,1177.8z"/>
		<path fill="#B3B3B3" d="M1242.6,521.1c0,5.9-3.3,9.103-9.1,9c-4.6-0.1-8.7-4.1-8.8-8.697c-0.103-5.303,3.7-9.2,9-9.2
			C1239.7,512.1,1242.6,515,1242.6,521.1z"/>
		<path fill="#B3B3B3" d="M1287.5,512.1c5.8,0,9.9,3.603,9.8,8.603c-0.1,5.6-4.1,9.397-9.8,9.397c-4.6,0-8.7-4.1-8.9-8.8
			C1278.5,516.5,1282.8,512.1,1287.5,512.1z"/>
		<path fill="#B3B3B3" d="M773.9,1235.1c6,0,8.8,3.103,8.8,9.2c0,5.101-3.8,8.7-9,8.8c-4.8,0-9.2-4.197-9-9.1
			C764.8,1239.4,767.7,1234.1,773.9,1235.1z"/>
		<path fill="#B3B3B3" d="M800.4,1235.1c6.197-0.1,9.197,2.803,9.197,8.803c0,5.397-3.6,9.197-9,9.197c-4.8,0-9-4.3-9-9.1
			C791.7,1238.3,794.8,1235.1,800.4,1235.1z"/>
		<path fill="#B3B3B3" d="M827.7,1235.1c6,0,8.897,3,8.897,9.103c0,5.8-3.397,9-9.3,8.897c-4.6-0.1-8.7-4.3-8.7-8.897
			C818.6,1238.9,822.4,1235,827.7,1235.1z"/>
		<path fill="#B3B3B3" d="M963.1,1235.1c5,0,9.5,3.9,9.5,8.4c0,5.3-4.1,9.8-9.1,9.5s-9.6-3-9-9.7
			C955,1237.8,957.4,1235.1,963.1,1235.1z"/>
		<path fill="#B3B3B3" d="M1035.6,1244.2c0-6.103,2.9-9.103,8.9-9.103c5.9,0,9.1,3.2,9.1,9.103c0,4.8-4.3,9-9.197,8.897
			C1039.3,1253,1035.6,1249.3,1035.6,1244.2z"/>
		<path fill="#B3B3B3" d="M1125.9,1235.1c5.8,0.103,8.897,3.103,8.8,8.803c-0.101,5.1-4.101,9.197-9,9.197
			c-5.101,0-9.101-4.197-9-9.6C1116.7,1237.9,1119.9,1235,1125.9,1235.1z"/>
		<path fill="#B3B3B3" d="M1179.4,1235.1c6.197,0,9.197,2.803,9.197,8.803c0,5.397-3.697,9.197-9,9.197c-4.8,0-9-4.3-9-9.1
			C1170.7,1238.3,1173.8,1235.1,1179.4,1235.1z"/>
		<path fill="#B3B3B3" d="M1242.6,1244.2c0,5.8-3.5,9-9.3,8.897c-4.6-0.1-8.7-4.3-8.7-8.897c-0.1-5.3,3.803-9.103,9.103-9.103
			C1239.8,1235.1,1242.7,1238,1242.6,1244.2z"/>
		<path fill="#B3B3B3" d="M1125.5,891.1c-5.9,0-9-3-8.9-8.697c0.103-5.2,3.9-9.2,8.803-9.303c5.1-0.1,9.197,4.2,9.197,9.5
			C1134.6,888.2,1131.5,891.1,1125.5,891.1z"/>
		<path fill="#B3B3B3" d="M1098.8,891.1c-6,0-9.1-2.897-9.1-8.5c0-5.397,4-9.6,9.1-9.5c4.9,0.103,8.8,4.103,8.9,9.303
			C1107.7,888,1104.6,891,1098.8,891.1z"/>
		<path fill="#B3B3B3" d="M1035.6,881.8c0-5.1,3.803-8.7,9-8.8c4.803,0,9.2,4.2,9,9.1c-0.197,4.603-3,9.603-9.197,9
			C1038.4,890.7,1035.6,888,1035.6,881.8z"/>
		<path fill="#B3B3B3" d="M1017.8,891.1c-6.2,0-9.2-2.8-9.2-8.8c0-5.8,3.103-9.2,8.5-9.2c5.2,0,9.603,4.103,9.5,9.103
			C1026.6,887.8,1023.4,891,1017.8,891.1z"/>
		<path fill="#B3B3B3" d="M936.2,891.1c-5,0-9.5-4-9.5-8.5s5-9.5,9.5-9.5c4.7,0,9.3,4.4,9.397,8.9
			C945.7,886.9,941.4,891.1,936.2,891.1z"/>
		<path fill="#B3B3B3" d="M909.2,891.1c-5.3,0-9.603-4.1-9.5-9c0.1-4.5,4.7-8.897,9.397-9c4.5-0.1,9.5,4.803,9.603,9.4
			C918.7,886.9,914.2,891.1,909.2,891.1z"/>
		<path fill="#B3B3B3" d="M863.6,882.5c0,5.7-2.697,8.5-8.3,8.5c-5.8,0-9.8-3.5-9.7-8.5c0-5.3,3.9-9.3,9.2-9.5
			C860.4,872.9,863.6,876.4,863.6,882.5z"/>
		<path fill="#B3B3B3" d="M800.8,891.1c-6,0-9.2-3.1-9.2-9c0-4.8,4.303-9,9.103-9c5.1,0.103,8.897,3.803,8.897,8.803
			C809.7,888,806.8,891,800.8,891.1z"/>
		<path fill="#B3B3B3" d="M719.7,891.1c-6,0-9.103-2.897-9.103-8.5c0-5.3,4.103-9.6,9.2-9.5c4.9,0.103,8.8,4.2,8.8,9.303
			C728.7,888,725.6,891,719.7,891.1z"/>
		<path fill="#B3B3B3" d="M692.7,891.1c-6,0-9.103-2.897-9.103-8.5c0-5.3,4.103-9.6,9.103-9.5c4.897,0.103,8.8,4.2,8.8,9.303
			C701.7,888,698.6,891,692.7,891.1z"/>
		<path fill="#B3B3B3" d="M665.4,891.1c-6,0-8.803-3-8.803-9.197c0-4.803,4.303-8.9,9.103-8.803c4.8,0.103,9,4.303,8.897,9.2
			C674.5,888.3,671.5,891.1,665.4,891.1z"/>
		<path fill="#B3B3B3" d="M638.6,891.1c-6.1,0-9-3-8.897-9.1c0-5.1,3.7-8.8,8.8-8.9c4.9-0.1,9.1,4.103,9.2,8.9
			C647.7,887.9,644.5,891.1,638.6,891.1z"/>
		<path fill="#B3B3B3" d="M1206.9,891.1c-6.103,0.9-9-4.1-9.2-8.897s4.1-9.103,9-9.103c5.2,0,8.899,3.603,9,8.7
			C1215.7,888,1212.8,891,1206.9,891.1z"/>
		<path fill="#B3B3B3" d="M1008.6,717.8c0-5.8,3.103-8.897,8.803-8.8c5.1,0.1,9.197,4.1,9.197,9c0,5.1-4.197,9.1-9.6,9
			C1011.4,727,1008.6,723.9,1008.6,717.8z"/>
		<path fill="#B3B3B3" d="M1035.6,717.9c0-5.9,3.103-8.9,8.7-8.9c5.101,0.1,9.2,4,9.3,8.9c0.103,5.1-4.197,9.1-9.5,9.1
			C1038.5,727.1,1035.6,723.9,1035.6,717.9z"/>
		<path fill="#B3B3B3" d="M1215.6,915c0,6.1-2.897,9.1-8.897,9.1c-5.301,0-9.2-3.8-9.103-9.1c0.103-4.6,4.103-8.7,8.7-8.9
			C1212.2,905.9,1215.6,909.2,1215.6,915z"/>
		<path fill="#B3B3B3" d="M1188.6,915.3c0,6-3,8.8-9.197,8.8c-5,0-8.7-3.8-8.803-8.897c0-4.8,4.2-9.2,9-9
			C1184.2,906.2,1189.6,909.1,1188.6,915.3z"/>
		<path fill="#B3B3B3" d="M1360.6,685.3c0-6.3,2.9-9.397,8.803-9.3c5,0.1,9.1,4,9.197,8.9c0.103,4.897-4.3,9.197-9.3,9.1
			C1363.5,694,1360.6,691.1,1360.6,685.3z"/>
		<path fill="#B3B3B3" d="M1071.7,924.1c-6.103,0-9.103-2.897-9.103-8.897c0-5.3,3.803-9.2,9.103-9.103
			c4.6,0.103,8.7,4.103,8.897,8.7C1080.8,920.6,1077.5,924,1071.7,924.1z"/>
		<path fill="#B3B3B3" d="M1044.7,924.1c-6.103,0-9-2.897-9-9c0-5.897,3.2-9.1,9.1-9c4.601,0.103,8.7,4.103,8.9,8.7
			C1053.8,920.1,1050,924.1,1044.7,924.1z"/>
		<path fill="#B3B3B3" d="M809.6,685.1c0,6.103-2.897,9-9,9c-5.3,0-9.1-3.897-9-9.3c0.103-4.6,4.2-8.7,8.9-8.7
			C806.4,676,809.6,679.2,809.6,685.1z"/>
		<path fill="#B3B3B3" d="M1071.6,694.1c-6.1,0-9-2.897-9-9c0-5.897,3.303-9.1,9.2-9c4.601,0.103,8.7,4.2,8.8,8.803
			C1080.7,690.2,1076.9,694.1,1071.6,694.1z"/>
		<path fill="#B3B3B3" d="M954.6,915.5c0-6.4,2.803-9.5,8.603-9.5c5.2,0,9.6,4.3,9.397,9.2c-0.197,4.8-4.3,8.8-9.197,8.8
			C957.5,924,954.6,921.2,954.6,915.5z"/>
		<path fill="#B3B3B3" d="M890.6,915.5c0,5.7-2.897,8.5-8.8,8.6c-4.8,0-9-3.897-9.2-8.8c-0.197-4.897,4.2-9.2,9.4-9.2
			C887.8,906,890.6,909.2,890.6,915.5z"/>
		<path fill="#B3B3B3" d="M809.6,915c0,6.1-2.897,9.1-8.897,9.1c-5.3,0-9.2-3.8-9.103-9.1c0.103-4.6,4.103-8.8,8.7-8.9
			C806.2,905.9,809.6,909.2,809.6,915z"/>
		<path fill="#B3B3B3" d="M782.6,915c0,6.1-2.897,9.1-8.897,9.1c-5.9,0-9.103-3.197-9.103-9.1c0-4.8,4.303-9,9.2-8.9
			C778.9,906.2,782.6,909.9,782.6,915z"/>
		<path fill="#B3B3B3" d="M719.8,924.1c-6,0-9.2-2.8-9.2-8.397c0-5.4,3.9-9.603,9-9.603c4.9,0,8.9,4.103,9,9.2
			C728.7,920.9,725.7,924,719.8,924.1z"/>
		<path fill="#B3B3B3" d="M692.7,924.1c-6.103,0-9-2.897-9-9c0-5.3,3.897-9.1,9.2-9c4.6,0.103,8.697,4.2,8.8,8.803
			C701.7,920.8,698.5,924.1,692.7,924.1z"/>
		<path fill="#B3B3B3" d="M665.6,924.1c-6.1,0-9-2.897-9-9c0-5.3,3.9-9.1,9.2-9c4.603,0.103,8.7,4.2,8.8,8.803
			C674.7,920.8,671.5,924.1,665.6,924.1z"/>
		<path fill="#B3B3B3" d="M638.6,924.1c-6.1,0-9-2.897-9-9c0-5.8,3.303-9.1,9.2-9c4.603,0.103,8.7,4.2,8.8,8.803
			C647.7,920.2,643.9,924.1,638.6,924.1z"/>
		<path fill="#B3B3B3" d="M611.8,924.1c-6.2,0-9.1-2.8-9.2-8.8c0-6.1,2.803-9.1,8.803-9.2c4.897-0.1,9.1,4,9.197,8.9
			C620.7,919.8,616.6,924,611.8,924.1z"/>
		<path fill="#B3B3B3" d="M935.7,807.2c4.897,0,9.897,4.7,9.897,9.397c0,4.2-4.8,9.4-8.8,9.5c-4.6,0.103-9.8-4.397-10-8.8
			C926.5,812.9,931.6,807.2,935.7,807.2z"/>
		<path fill="#B3B3B3" d="M629.6,783.6c0.103-5.897,3.103-8.697,9.4-8.6c5.5,0.1,8.6,3.4,8.6,9.1c-0.1,4.9-4.3,9-9.197,8.9
			C633.1,792.9,629.5,789.1,629.6,783.6z"/>
		<path fill="#B3B3B3" d="M1369.1,775.1c5.603,0,9.7,3.7,9.5,8.7c-0.197,5.3-4.197,9.2-9.397,9.3c-5.5,0-8.603-3.397-8.603-9.697
			C1360.6,777.8,1363.4,775.1,1369.1,775.1z"/>
		<path fill="#B3B3B3" d="M1269.6,783.7c0,6-3,9.5-8.397,9.3c-6.301-0.3-9.2-3.3-9.603-9.5c-0.3-5.1,3.9-8.5,9.803-8.4
			C1267,775.1,1269.6,777.9,1269.6,783.7z"/>
		<path fill="#B3B3B3" d="M1125.7,775.1c5.897,0,9,3,8.897,8.7c-0.1,5.2-3.897,9.2-8.8,9.3c-5.1,0.103-9.2-4.197-9.2-9.5
			C1116.6,778,1119.8,775,1125.7,775.1z"/>
		<path fill="#B3B3B3" d="M1098.7,775.1c5.897,0,9,3,9,8.603c0,5.1-3.9,9.3-8.8,9.397c-5.103,0.103-9.2-4.1-9.2-9.5
			C1089.6,778,1092.7,775.1,1098.7,775.1z"/>
		<path fill="#B3B3B3" d="M963,775.1c5.7,0,9.7,3.603,9.6,8.7c-0.1,5.3-4.1,9.2-9.397,9.3c-5.5,0.103-8.603-3.397-8.603-9.6
			C954.6,777.8,957.4,775.1,963,775.1z"/>
		<path fill="#B3B3B3" d="M909.2,858.1c-6,0-9.7-3.397-9.5-8.697c0.2-4.603,5.1-9.4,9.5-9.303c4.5,0,9.397,5,9.397,9.5
			C918.6,854,914.1,858.1,909.2,858.1z"/>
		<path fill="#B3B3B3" d="M1180.2,858.1c-6.4,0-9.5-2.8-9.603-8.5c0-5.3,4.103-9.6,9.103-9.5c4.8,0.103,8.897,4.2,8.897,9.103
			C1188.6,855.1,1185.8,858.1,1180.2,858.1z"/>
		<path fill="#B3B3B3" d="M1008.6,750.8c0-6,3-8.8,9.2-8.8c5.103,0,8.7,3.8,8.8,9c0,4.8-4.197,9.2-9.1,9
			C1013,759.9,1007.7,757,1008.6,750.8z"/>
		<path fill="#B3B3B3" d="M1035.6,751.2c0-6.103,2.9-9.103,8.9-9.103c5.3,0,9.2,3.803,9.1,9.103c-0.1,4.6-4.1,8.8-8.697,8.897
			C1039.1,760.2,1035.7,756.9,1035.6,751.2z"/>
		<path fill="#B3B3B3" d="M1071.5,742.1c6,0,9.2,3.103,9.2,9c0,4.803-4.3,9-9.103,9c-5.1-0.1-8.897-3.8-8.897-8.8
			C1062.6,745.1,1065.5,742.1,1071.5,742.1z"/>
		<path fill="#B3B3B3" d="M1134.6,750.7c0,5.397-4.197,9.5-9.3,9.397c-4.8-0.1-8.7-4.397-8.7-9.5c0-5.6,3.103-8.5,9-8.5
			C1131.6,742.1,1134.7,745.1,1134.6,750.7z"/>
		<path fill="#B3B3B3" d="M1360.6,750.5c0-5.6,3-8.5,8.9-8.5c4.6,0,9,4,9.1,8.4c0.103,5.197-4,9.6-9,9.6
			C1363.5,760.1,1360.6,757.1,1360.6,750.5z"/>
		<path fill="#B3B3B3" d="M719.7,742.1c5.897,0,9,3,8.897,8.7c-0.1,5.103-4,9.2-8.897,9.3c-5.103,0.103-9.103-4.197-9.103-9.5
			C710.6,745,713.8,742,719.7,742.1z"/>
		<path fill="#B3B3B3" d="M773.4,742.1c6.197-0.1,9.197,2.803,9.197,8.803c0,5.397-3.697,9.197-9,9.197c-4.8,0-9-4.3-9-9.1
			C764.7,745.3,767.8,742.1,773.4,742.1z"/>
		<path fill="#B3B3B3" d="M890.6,750.4c0,6.5-2.697,9.6-8.3,9.697c-5.3,0.103-9.6-3.897-9.6-9c0-4.8,4.2-9,8.897-9
			C887.5,742.1,890.6,744.9,890.6,750.4z"/>
		<path fill="#B3B3B3" d="M954.6,750.7c0-5.7,2.9-8.603,8.7-8.7c4.9,0,9.4,4.1,9.3,8.7c-0.1,5.1-4,9.2-8.8,9.3
			C957.6,760.2,954.6,757.2,954.6,750.7z"/>
		<path fill="#B3B3B3" d="M1071.1,1038.1c6.4,0,9.5,2.803,9.5,8.5c0,5.303-4.197,9.603-9.197,9.5c-4.803-0.1-8.9-4.3-8.803-9.1
			C1062.7,1041,1065.5,1038.1,1071.1,1038.1z"/>
		<path fill="#B3B3B3" d="M1044.2,1038.1c6.397,0,9.5,2.803,9.5,8.603c0,5.199-4.3,9.6-9.2,9.397c-4.8-0.1-8.8-4.3-8.8-9.1
			C1035.7,1041,1038.5,1038.1,1044.2,1038.1z"/>
		<path fill="#B3B3B3" d="M909.1,1038.1c5,0,9.4,4,9.5,8.5c0,4.5-4.897,9.4-9.397,9.5c-4.5,0.103-9.8-5-9.603-9.3
			C899.9,1041.5,903.6,1038.1,909.1,1038.1z"/>
		<path fill="#B3B3B3" d="M809.6,1047.3c0,4.5-4.3,8.9-8.697,8.8c-5.303-0.1-9.603-4.3-9.303-9.3c0.5-7.3,4.4-9.1,9.803-8.8
			C806.9,1038.3,809.7,1041.2,809.6,1047.3z"/>
		<path fill="#B3B3B3" d="M774.1,1038.1c5.7,0,8.5,2.9,8.5,8.9c0,4.8-4,9-8.897,9.1c-5,0.103-9.103-4.197-9.103-9.5
			C764.6,1040.9,767.7,1038.1,774.1,1038.1z"/>
		<path fill="#B3B3B3" d="M665.1,1038.1c6.4,0,9.5,2.803,9.5,8.5c0,5.303-4.197,9.603-9.197,9.5c-4.803-0.1-8.9-4.3-8.803-9.1
			C656.7,1041,659.5,1038.1,665.1,1038.1z"/>
		<path fill="#B3B3B3" d="M1206.7,1005.1c6.1,0,9,2.9,9,9c0,5.303-3.9,9.103-9.3,9c-4.603-0.1-8.7-4.197-8.7-8.897
			C1197.5,1008.3,1200.7,1005.1,1206.7,1005.1z"/>
		<path fill="#B3B3B3" d="M1125.8,1005.1c5.9,0,8.9,3.103,8.8,8.7c-0.1,5.103-4,9.2-8.897,9.3c-5.103,0.103-9.103-4.197-9.103-9.6
			C1116.7,1007.9,1119.8,1005,1125.8,1005.1z"/>
		<path fill="#B3B3B3" d="M1098.4,1005.1c6,0,9.197,2.803,9.197,8.4c0,5.4-3.897,9.6-9,9.6c-4.897,0-8.897-4.1-9-9.197
			C1089.5,1008.2,1092.6,1005.1,1098.4,1005.1z"/>
		<path fill="#B3B3B3" d="M990.3,628.1c-5.8,0-8.7-2.6-8.7-8.1c0-5.9,3.303-10.1,8.4-9.8c6.3,0.3,9.2,3.3,9.6,9.5
			C999.8,625,996.3,628,990.3,628.1z"/>
		<path fill="#B3B3B3" d="M1017,628.1c-5.9,0-8.4-2.697-8.4-8.8c0-4.7,4-9,8.303-9.2c5.197-0.197,9.697,4,9.697,8.9
			C1026.7,625.1,1023.5,628.1,1017,628.1z"/>
		<path fill="#B3B3B3" d="M1044.1,628.1c-5.6,0-8.397-3-8.5-8.897c0-4.603,4-9,8.4-9.103c5.2-0.1,9.6,4,9.6,9
			C1053.6,625.2,1050.6,628.1,1044.1,628.1z"/>
		<path fill="#B3B3B3" d="M1242.6,619.6c0,5.7-2.697,8.5-8.3,8.5c-6.3,0-9.7-3-9.7-8.5c0-5.3,4-9.3,9.2-9.5
			C1238.9,609.9,1242.6,613.9,1242.6,619.6z"/>
		<path fill="#B3B3B3" d="M1342.4,1070.1c4.397,0.2,9.3,5,9.197,9.103c-0.1,4.8-4.697,9.8-9.1,9.8c-4.5,0-10-5.2-9.8-9.2
			C1333,1074.6,1337.7,1069.9,1342.4,1070.1z"/>
		<path fill="#B3B3B3" d="M1242.6,1079.5c0,5-4,9.5-8.5,9.5s-9.5-5-9.5-9.5c0-4.7,4.4-9.3,8.9-9.4
			C1238.4,1070,1242.6,1074.3,1242.6,1079.5z"/>
		<path fill="#B3B3B3" d="M1396.3,1351.1c-5.8,0-8.6-2.6-8.6-8.1c0-5.9,3.3-10.1,8.399-9.8c6.198,0.397,9.198,3.3,9.5,9.6
			C1405.8,1348.1,1402.2,1351.1,1396.3,1351.1z"/>
		<path fill="#B3B3B3" d="M1269.6,1046.9c0,5.8-3.197,9.197-8.6,9.1c-5-0.1-9.6-4.4-9.3-9.4c0.3-4.5,2.5-9.397,10-8.697
			C1267.1,1038.5,1269.7,1041,1269.6,1046.9z"/>
		<path fill="#B3B3B3" d="M1188.6,1047.1c0,4.803-4.197,9-9,9c-5,0-9.1-4.3-9-9.6c0-5.7,3.2-8.4,9.603-8.4
			C1185.8,1038.1,1188.6,1041.1,1188.6,1047.1z"/>
		<path fill="#B3B3B3" d="M1288,628.1c-6.5,0.803-9.1-3.897-9.2-8.3c-0.2-5.5,3.9-9.397,9.5-9.7c4.8-0.197,9.103,4.603,9.103,9.5
			C1297.3,624.5,1293.3,628.1,1288,628.1z"/>
		<path fill="#B3B3B3" d="M1395.9,628.1c-5.603,0-8.303-2.8-8.303-8.5c0-5.6,3.7-9.697,8.803-9.5c5.3,0.2,9.197,4.2,9.197,9.5
			C1405.6,625.1,1402.2,628.1,1395.9,628.1z"/>
		<path fill="#B3B3B3" d="M575.6,981.2c0-6.103,2.803-9.103,8.803-9.2c4.6,0,9,3.9,9.197,8.3c0.2,5.4-3.897,9.7-9.3,9.7
			C578.7,990.1,575.7,987,575.6,981.2z"/>
		<path fill="#B3B3B3" d="M421.6,972.1c6.103,0,9.103,2.9,9.103,8.9c0,5.8-3,9-8.4,9.1c-5.397,0-9.6-3.897-9.6-9
			C412.6,976.2,416.7,972.1,421.6,972.1z"/>
		<path fill="#B3B3B3" d="M809.6,948.2c0,5.8-3.1,8.897-8.8,8.8c-5.1-0.1-9.2-4-9.2-8.9c0-5.1,4.2-9.1,9.603-9.1
			C806.8,939.1,809.7,942.2,809.6,948.2z"/>
		<path fill="#B3B3B3" d="M782.6,948.3c-0.1,5.8-3.197,8.9-8.8,8.8c-5.1-0.1-9.2-4.1-9.2-9c0-5.1,4.2-9.1,9.7-9
			C779.8,939.1,782.7,942.3,782.6,948.3z"/>
		<path fill="#B3B3B3" d="M638,939.1c5.4,0,9.6,3.9,9.6,9c0,4.9-4.1,8.9-9.197,9c-5.7,0.103-8.803-3-8.803-8.8
			C629.6,942.3,632.4,939.1,638,939.1z"/>
		<path fill="#B3B3B3" d="M611.2,939.1c5.3,0,9.5,4.2,9.397,9.303c-0.1,4.8-4.3,8.697-9.397,8.697c-5.603,0-8.603-3.1-8.603-9
			C602.6,942.1,605.6,939,611.2,939.1z"/>
		<path fill="#B3B3B3" d="M782.6,685.5c-0.1,5.9-3.1,8.7-9.397,8.6c-4.9-0.1-8.603-4.1-8.603-9.197c0.103-4.9,4.4-9.2,9.2-8.803
			C779.7,676.7,783.4,679.6,782.6,685.5z"/>
		<path fill="#B3B3B3" d="M1242.6,947.8c0.103,6-2.8,9.2-8.3,9.2c-5.399,0.1-9.7-3.9-9.6-9c0-4.9,4.1-8.9,9.2-9
			C1239.5,939,1242.6,942,1242.6,947.8z"/>
		<path fill="#B3B3B3" d="M1215.6,947.9c0,6-2.8,9.1-8.397,9.197c-5.4,0-9.603-4-9.603-9.1c0-4.9,4.103-8.8,9.2-8.9
			C1212.5,939,1215.6,942.1,1215.6,947.9z"/>
		<path fill="#B3B3B3" d="M1188.6,948.1c0,5.9-3,9-8.6,9c-5.1,0-9.3-3.897-9.4-8.8c-0.1-5.1,4.103-9.2,9.4-9.2
			C1185.7,939,1188.6,942.1,1188.6,948.1z"/>
		<path fill="#B3B3B3" d="M1098.5,957.1c-6,0-8.9-3.1-8.9-9.197c0-5,3.603-8.7,8.4-8.803c5.5,0,9.5,3.603,9.6,8.803
			C1107.7,953.2,1103.9,957.1,1098.5,957.1z"/>
		<path fill="#B3B3B3" d="M1044.3,939.1c5.4,0.103,9.5,4.2,9.3,9.303c-0.197,4.8-4.397,8.697-9.5,8.697c-5.6,0-8.5-3.1-8.5-9.1
			C1035.6,942.1,1038.6,939,1044.3,939.1z"/>
		<path fill="#B3B3B3" d="M1008.6,947.9c0-5.9,3.103-8.9,8.7-8.9c5.103,0.1,9.2,4,9.3,8.9c0.103,5.1-4.197,9.1-9.6,9.1
			C1011.5,957,1008.6,953.9,1008.6,947.9z"/>
		<path fill="#B3B3B3" d="M981.6,948.2c0-6,2.9-9.103,8.4-9.103c5.4,0,9.6,4,9.6,9.103c-0.1,4.897-4.1,8.8-9.3,8.897
			C984.7,957.1,981.7,954.1,981.6,948.2z"/>
		<path fill="#B3B3B3" d="M836.6,948.1c0,5.9-3,9-8.6,8.9c-5.1,0-9.3-3.9-9.4-8.8c-0.1-5.103,4.103-9.2,9.5-9.2
			C833.7,939.1,836.6,942.2,836.6,948.1z"/>
		<path fill="#B3B3B3" d="M863.6,1013.8c0,5.9-3.1,9.5-8.5,9.2c-6.197-0.4-9.1-3.3-9.397-9.6c-0.2-5,4-8.4,9.897-8.303
			C861,1005.1,863.7,1008,863.6,1013.8z"/>
		<path fill="#B3B3B3" d="M800.5,1005.1c6.1,0,9.1,2.9,9.1,8.9c0,5.3-3.8,9.2-9.1,9.1c-4.6-0.1-8.7-4.1-8.9-8.697
			C791.5,1008.5,794.8,1005.1,800.5,1005.1z"/>
		<path fill="#B3B3B3" d="M782.6,1013.9c0,4.897-3.897,9-8.8,9.1c-4.897,0.1-9.1-4-9.2-8.9c-0.1-6,2.9-9.1,8.9-9.1
			C779.6,1005,782.6,1007.9,782.6,1013.9z"/>
		<path fill="#B3B3B3" d="M746.4,1005.1c6-0.1,9.197,2.803,9.197,8.303c0.103,5.397-3.897,9.697-9,9.697c-4.897,0-8.897-4-9-9.197
			C737.5,1008.2,740.6,1005.1,746.4,1005.1z"/>
		<path fill="#B3B3B3" d="M728.6,1013.4c0.103,5.397-3.897,9.697-9,9.697c-4.897,0-8.897-4-9-9.1c-0.1-5.7,2.9-8.8,8.7-8.9
			C725.4,1005,728.6,1007.9,728.6,1013.4z"/>
		<path fill="#B3B3B3" d="M629.6,1013.8c0-6,3-8.8,9.2-8.8c5.603,0,8.7,3.2,8.8,8.9c0,4.8-4.197,9.1-9,9.1
			C633.3,1023.1,629.6,1019.3,629.6,1013.8z"/>
		<path fill="#B3B3B3" d="M611.7,1005.1c5.6,0,9.1,3.4,8.897,8.803c-0.197,5.1-4.1,9.197-8.897,9.197
			c-5.9,0.103-9.103-3.1-9.103-9.1C602.6,1007.9,605.6,1005,611.7,1005.1z"/>
		<path fill="#B3B3B3" d="M665.4,661.1c-6,0-8.803-3-8.803-9.197c0-5,3.803-8.7,9-8.803c4.803,0,9.2,4.2,9,9
			C674.4,656.7,671.6,662,665.4,661.1z"/>
		<path fill="#B3B3B3" d="M1269.6,980.8c0,6.3-2.897,9.3-8.8,9.2c-5-0.1-9.3-4.1-9.2-8.9c0.103-4.197,4.103-9.897,9.303-9.197
			C1266.7,972.6,1269.7,975.1,1269.6,980.8z"/>
		<path fill="#B3B3B3" d="M1215.6,981.2c0.9,5.7-4.397,8.6-8.8,8.8c-4.899,0.2-9.1-4-9.2-8.9c0-5.3,3.803-9.1,9.103-9.1
			C1212.8,972.1,1215.7,975.1,1215.6,981.2z"/>
		<path fill="#B3B3B3" d="M629.6,981c0-6.1,3-9,9.103-8.9c5.1,0,8.8,3.7,8.897,8.803c0.103,4.897-4.1,9.1-8.897,9.197
			C632.8,990.1,629.6,986.9,629.6,981z"/>
		<path fill="#B3B3B3" d="M1188.6,980.9c1,6.197-4.397,9-9,9.197c-4.8,0.2-9.1-4.197-9-9c0-5.1,3.7-8.897,8.803-8.897
			C1185.6,972,1188.6,974.9,1188.6,980.9z"/>
		<path fill="#B3B3B3" d="M1161.6,981.5c-0.1,4.9-4.1,8.7-9.1,8.6c-4.9-0.1-9.2-4.397-8.8-9.197c0.5-5.7,3.397-9.303,9.3-8.9
			S1161.7,975.2,1161.6,981.5z"/>
		<path fill="#B3B3B3" d="M1341.8,661.1c-4.897,0-8.8-3.8-8.8-8.397c-0.1-5.2,4.4-9.7,9.4-9.603c5.1,0.2,9.197,4.103,9.197,8.9
			C1351.7,657.1,1347.3,661.1,1341.8,661.1z"/>
		<path fill="#B3B3B3" d="M656.6,980.8c0-6,3.103-8.8,9.2-8.8c5.103,0,8.7,3.8,8.8,9c0,4.8-4.197,9.2-9.1,9
			C660.9,989.9,655.7,987,656.6,980.8z"/>
		<path fill="#B3B3B3" d="M1062.6,981.1c0-6.1,2.9-9.1,9-9.1c5.9,0,9.103,3.2,9,9.1c-0.1,4.9-4.3,9-9.197,8.9
			C1066.3,990,1062.6,986.2,1062.6,981.1z"/>
		<path fill="#B3B3B3" d="M1035.6,981c0-6.1,3-8.9,9.103-8.9c5.1,0,8.8,3.7,8.897,8.803c0.103,4.897-4.1,9.1-8.897,9.197
			C1038.8,990.1,1035.6,986.9,1035.6,981z"/>
		<path fill="#B3B3B3" d="M890.6,980.5c0,6.4-2.8,9.5-8.5,9.5c-5.3,0-9.6-4.2-9.5-9.1c0.103-4.803,4.303-8.9,9.103-8.9
			C887.7,972.1,890.6,974.9,890.6,980.5z"/>
		<path fill="#B3B3B3" d="M809.6,980.9c0,6-3.1,9.197-9,9.197c-4.8,0-9-4.3-9-9.1c0.103-5.1,3.803-8.9,8.803-8.9
			C806.6,972,809.6,974.9,809.6,980.9z"/>
		<path fill="#B3B3B3" d="M1044.6,661.1c-6.1,0-9-3-8.897-9.1c0-5.1,3.699-8.8,8.8-8.9c4.9-0.1,9.2,4,9.2,8.9
			C1053.7,657.9,1050.5,661.1,1044.6,661.1z"/>
		<path fill="#B3B3B3" d="M1098.4,661.1c-5.803,0-8.9-3.1-8.803-8.8c0.103-5.1,4.103-9.2,9-9.2c5.103,0,9.103,4.2,9,9.603
			C1107.6,658.2,1104.4,661.1,1098.4,661.1z"/>
		<path fill="#B3B3B3" d="M602.6,981.3c0-6.2,2.803-9.1,8.803-9.2c4.897,0,9.1,3.9,9.197,8.7c0.103,4.9-4,9.2-8.8,9.3
			C605.8,990.2,602.7,987.2,602.6,981.3z"/>
		<path fill="#B3B3B3" d="M1125.2,661.1c-5.603-0.1-8.603-3.1-8.603-8.5c0-5.3,4.103-9.6,9.2-9.5c5.103,0.103,8.9,4.4,8.8,9.803
			C1134.5,658.3,1131.3,661.2,1125.2,661.1z"/>
		<path fill="#B3B3B3" d="M836.6,816.9c0,4.897-4.1,9.1-8.897,9.1c-4.7,0-9.3-4.9-9.103-9.8c0.2-4.4,5.2-9.603,9.303-9
			C833.3,808.1,837.7,811.3,836.6,816.9z"/>
		<path fill="#B3B3B3" d="M1342,793.1c-4.3-0.1-9.7-5-9.2-9.1c0.603-5,3.3-9.7,10-9c4.7,0.5,9,4.7,8.8,9.3
			C1351.4,789,1346.9,793.1,1342,793.1z"/>
		<path fill="#B3B3B3" d="M1315.2,775.1c5,0,9.5,4.2,9.397,8.7c-0.1,4.603-5.1,9.4-9.6,9.3c-4.3-0.1-9.4-5-9.4-9.1
			C1305.7,779,1309.9,775.1,1315.2,775.1z"/>
		<path fill="#B3B3B3" d="M936.5,775.1c4.9,0,9.1,4.103,9.2,8.9c0.1,4.7-4.9,9.3-9.7,9.1c-4.4-0.197-9.3-5.1-9.1-9.197
			C927,778.7,931,775,936.5,775.1z"/>
		<path fill="#B3B3B3" d="M1071.5,661.1c-6,0-8.9-3-8.8-9.197c0-4.803,4.397-8.9,9.3-8.803c4.6,0.103,8.7,4.303,8.7,8.9
			C1080.7,657.9,1077.5,661.1,1071.5,661.1z"/>
		<path fill="#B3B3B3" d="M981.6,750.9c0-6,3-8.9,9.303-8.803c4.6,0,8.897,4.4,8.697,8.803c-0.197,5.1-4.197,9.197-9,9.197
			C984.5,760.1,981.6,757,981.6,750.9z"/>
		<path fill="#B3B3B3" d="M1360.6,718.3c-0.1-6,2.803-9.2,8.303-9.2c5.197-0.1,9.6,3.9,9.6,8.5c0,5.303-4,9.4-9.2,9.5
			C1363.8,727.2,1360.7,724.1,1360.6,718.3z"/>
		<path fill="#B3B3B3" d="M981.6,718.2c0-6,2.9-9.103,8.5-9.103c5.103,0,9.603,4,9.5,8.603c-0.1,5.3-4.1,9.3-9.3,9.397
			C984.7,727.1,981.6,724,981.6,718.2z"/>
		<path fill="#B3B3B3" d="M863.6,718.3c0,5.8-3.1,8.9-8.8,8.8c-4.8-0.1-9.2-4.1-9.2-8.5c0-5.5,4.103-9.6,9.603-9.5
			C860.8,709.1,863.7,712.3,863.6,718.3z"/>
		<path fill="#B3B3B3" d="M1269.6,948.2c0,5.897-3,9-8.697,8.897c-4.803,0-9.2-4-9.303-8.3c-0.1-5.5,4-9.7,9.5-9.7
			C1266.7,939.1,1269.6,942.2,1269.6,948.2z"/>
		<path fill="#B3B3B3" d="M863.6,948.3c0,5.8-3.1,8.9-8.8,8.8c-4.8-0.1-9.2-4.1-9.2-8.5c0-5.5,4.103-9.6,9.603-9.5
			C860.8,939.1,863.7,942.3,863.6,948.3z"/>
		<path fill="#B3B3B3" d="M575.6,948.2c0-6,2.9-9.103,8.5-9.103c5.103,0,9.603,4,9.5,8.603c-0.1,5.3-4.1,9.3-9.3,9.397
			C578.6,957.1,575.6,954,575.6,948.2z"/>
		<path fill="#B3B3B3" d="M548.6,948.2c0-6,2.9-9.103,8.5-9.103c5.303,0,9.7,4.2,9.5,9.2c-0.197,4.9-4.3,8.8-9.397,8.8
			C551.5,957.1,548.6,954,548.6,948.2z"/>
		<path fill="#B3B3B3" d="M1017.5,924.1c-6,0-8.9-3-8.9-9.197c0-5.603,3.2-8.803,8.9-8.803c4.9,0,9.1,4.2,9.1,9.103
			C1026.6,920,1022.4,924.1,1017.5,924.1z"/>
		<path fill="#B3B3B3" d="M863.6,914.9c0,6.197-2.8,9.197-8.897,9.197c-4.7,0-9.103-4.1-9.103-8.397c0-5.3,4.103-9.603,9.2-9.603
			C860.7,906.2,863.6,909.1,863.6,914.9z"/>
		<path fill="#B3B3B3" d="M836.6,915c0,6.1-2.897,9.1-9,9c-4.897,0-9-4.1-9-9.1c0-4.9,4.303-9.2,9.2-8.9
			C832.6,906.4,837.5,909.3,836.6,915z"/>
		<path fill="#B3B3B3" d="M1297.3,1013.5c0.103,4.9-4.3,9.5-9.1,9.6c-5,0-9.3-3.8-9.5-8.697c-0.3-4.7,4-9.2,8.7-9.303
			C1293.1,1005,1297.2,1008.4,1297.3,1013.5z"/>
		<path fill="#B3B3B3" d="M1261.2,1005.1c5.897,0,8.5,2.7,8.5,8.803c0,5.897-3,9.197-8.4,9.197c-5.399,0.103-9.6-4.1-9.6-9.6
			C1251.7,1009,1256.1,1005.1,1261.2,1005.1z"/>
		<path fill="#B3B3B3" d="M1188.6,1014c0,4.9-4,9-8.897,9.1c-4.9,0-9.103-4.197-9.103-9.1c0.103-5.7,3.2-8.9,8.803-8.9
			C1185.6,1005,1188.6,1007.9,1188.6,1014z"/>
		<path fill="#B3B3B3" d="M936.3,1005.1c5.2,0,9.603,4.303,9.3,9.2c-0.197,4.7-4.697,8.8-9.5,8.8c-4.3,0-9.697-4.897-9.197-9
			C927.4,1008.7,931,1003.9,936.3,1005.1z"/>
		<path fill="#B3B3B3" d="M665.7,1005.1c5.7-0.897,8.6,4.103,8.897,8.803c0.303,4.897-4,9.197-8.897,9.197c-4.9,0-9-4.1-9-9
			C656.6,1008,659.5,1005.1,665.7,1005.1z"/>
		<path fill="#B3B3B3" d="M557.5,1005.1c4.9,0,9.3,4.303,9.1,8.803c-0.197,5.3-4.197,9.197-9.5,9.197c-5.5,0-8.6-3.397-8.5-9.6
			C548.6,1007.6,551.4,1005,557.5,1005.1z"/>
		<path fill="#B3B3B3" d="M476.1,1005.1c5.9,0,8.603,2.7,8.5,8.7c0,5.9-3,9.5-8.397,9.2c-6.3-0.3-9.103-3.2-9.603-9.4
			C466.4,1009,471,1005.1,476.1,1005.1z"/>
		<path fill="#B3B3B3" d="M457.6,1013.6c0,6.103-3.3,9.603-8.8,9.4c-5.3-0.2-9.2-4.2-9.2-9.4c0-4.8,4-8.6,9.2-8.6
			C454.7,1005.1,457.6,1007.9,457.6,1013.6z"/>
		<path fill="#B3B3B3" d="M1008.6,981.2c0-6.2,2.9-9.103,8.9-9.2c4.9,0,9,4,9.1,8.9c0,4.897-4.3,9.1-9.1,9.1
			C1011.8,990,1008.7,986.8,1008.6,981.2z"/>
		<path fill="#B3B3B3" d="M782.6,981.2c0,5.1-3.697,8.8-8.8,8.897c-4.897,0.103-9.1-4.1-9.2-8.897c0-5.3,3.803-9.103,9.103-9.103
			C779.8,972.1,782.7,975.1,782.6,981.2z"/>
		<path fill="#B3B3B3" d="M548.6,980.6c0-5.5,3-8.5,8.5-8.5c5.303,0,9.7,4.2,9.5,9.2c-0.197,4.9-4.3,8.8-9.397,8.8
			C551.5,990.1,548.6,987,548.6,980.6z"/>
		<path fill="#B3B3B3" d="M1207,858.1c-5.6,0.603-9.1-2.397-9.3-8.697c-0.2-5.103,4-9.2,8.8-9.303c5.1-0.1,9.2,4.303,9.2,9.803
			C1215.6,855.4,1212.8,858.1,1207,858.1z"/>
		<path fill="#B3B3B3" d="M1152.8,858.1c-6.1,0-9.1-2.8-9.2-8.397c0-5.3,4.2-9.7,9.103-9.603c4.897,0.103,8.8,4.303,8.897,9.4
			C1161.7,855.1,1158.6,858.1,1152.8,858.1z"/>
		<path fill="#B3B3B3" d="M1126,858.1c-6.4,0-9.5-2.897-9.4-8.697c0.103-5.103,4.103-9.2,8.9-9.303c5-0.1,9.1,4.303,9.1,9.603
			C1134.6,855.1,1131.5,858.1,1126,858.1z"/>
		<path fill="#B3B3B3" d="M1098,858.1c-5.4,0-8.4-3.1-8.3-8.6c0-5.1,4-9.2,8.8-9.4c5-0.1,9.2,4.2,9.2,9.5
			C1107.6,855.4,1104.5,858.1,1098,858.1z"/>
		<path fill="#B3B3B3" d="M1017,858.1c-5.9,0-8.4-2.697-8.4-8.8c0-4.7,4-9.3,8.303-9.1c6.5,0.397,9.197,3.3,9.6,9.397
			C1026.9,855,1023.2,858.1,1017,858.1z"/>
		<path fill="#B3B3B3" d="M800.8,858.1c-6.2,0-9.1-2.8-9.2-8.8c-0.1-4.8,4.103-9.1,8.9-9.2c4.8,0,9,4.2,9.1,8.9
			C809.6,855.1,806.8,858.1,800.8,858.1z"/>
		<path fill="#B3B3B3" d="M583.9,858.1c-5.603,0-8.303-2.8-8.303-8.5c0-5.6,3.7-9.697,8.7-9.5c5.103,0.2,9.3,4.5,9.3,9.5
			C593.6,855.1,590.2,858.1,583.9,858.1z"/>
		<path fill="#B3B3B3" d="M1188.6,882.3c0,6-3.1,8.9-9.3,8.8c-5.6-0.1-8.7-3.3-8.7-9c0-4.897,4.303-9.1,9.2-9
			C1184.7,873.2,1188.7,877.3,1188.6,882.3z"/>
		<path fill="#B3B3B3" d="M890.6,882.4c0,6-2.6,8.697-8.5,8.697c-5,0-9.697-4-9.397-8.5c0.5-6.197,3.2-9.1,9.6-9.397
			C887.6,872.9,890.6,876.5,890.6,882.4z"/>
		<path fill="#B3B3B3" d="M1269.6,520.9c0,6.1-3,9.197-8.897,9.197c-5,0-9.103-4.3-9.103-9.5c0-4.397,4.4-8.5,9-8.5
			C1266.7,512.1,1269.7,514.9,1269.6,520.9z"/>
		<path fill="#B3B3B3" d="M1378.6,586.4c0.103,4.3-4.6,9.397-8.8,9.6c-4.6,0.2-9.1-4.1-9.2-8.8c-0.1-5.5,3.7-10,8.4-10.103
			C1373.4,577,1378.5,581.9,1378.6,586.4z"/>
		<path fill="#B3B3B3" d="M882.3,628.1c-6.3,0-9.7-3-9.7-8.5c0-4.397,4.9-9.397,9.4-9.5c5.5-0.1,8.6,3.4,8.6,9.603
			C890.6,625.3,887.9,628,882.3,628.1z"/>
		<path fill="#B3B3B3" d="M828.1,628.1c-6.1,0-9.6-3.197-9.5-8.697c0.103-5.2,4.103-9.2,9.303-9.303
			c4.697-0.1,8.697,4.4,8.697,9.803C836.6,625.4,833.8,628.1,828.1,628.1z"/>
		<path fill="#B3B3B3" d="M1342.2,545.1c5.1,0,9.5,4.103,9.397,8.603c-0.1,4.5-5.1,9.397-9.5,9.397c-4.3,0-9.697-4.897-9.3-9
			C1333.4,548.7,1337,543.8,1342.2,545.1z"/>
		<path fill="#B3B3B3" d="M1314.9,563.1c-4.4-0.1-9.4-5.1-9.303-9.197c0.103-5.303,4.603-9,10.7-8.803
			c4.103,0.103,8.5,4.7,8.3,8.803C1324.3,558.5,1319.4,563.2,1314.9,563.1z"/>
		<path fill="#B3B3B3" d="M1207.1,545.1c5.603,0,8.5,3,8.5,8.9c0,4.6-4,9-8.3,9.1c-5.2,0.2-9.7-3.897-9.7-8.897
			C1197.6,548.1,1200.7,545.1,1207.1,545.1z"/>
		<path fill="#B3B3B3" d="M1188.6,553.9c0,4.6-4.1,9.1-8.397,9.1c-5.301,0.1-9.603-4.1-9.603-9.1c0.103-5.9,3-8.803,8.803-8.9
			C1185.6,545,1188.6,547.9,1188.6,553.9z"/>
		<path fill="#B3B3B3" d="M909.2,545.1c5,0,9.5,4.2,9.397,8.7c-0.1,4.603-5.1,9.4-9.6,9.3c-4.3-0.1-9.4-5-9.4-9.1
			C899.7,549,903.9,545.1,909.2,545.1z"/>
		<path fill="#B3B3B3" d="M890.6,1210.7c0,6.397-2.897,9.5-8.697,9.397c-5.103-0.1-9.2-4.1-9.303-8.897
			c-0.1-5,4.303-9.103,9.603-9.103C887.7,1202.1,890.6,1205.1,890.6,1210.7z"/>
		<path fill="#B3B3B3" d="M954.6,1210.5c0-5.4,3.103-8.4,8.603-8.4c5.1,0,9.2,3.9,9.397,8.803c0.2,5-4.197,9.197-9.5,9.197
			C957.4,1220.1,954.6,1216.9,954.6,1210.5z"/>
		<path fill="#B3B3B3" d="M981.6,1210.8c0.103-5.8,3.2-8.897,8.803-8.7c4.8,0.103,9.197,4.103,9.197,8.5c0,5.5-4.1,9.603-9.697,9.5
			C984.4,1220,981.6,1216.8,981.6,1210.8z"/>
		<path fill="#B3B3B3" d="M1152.5,1202.1c6.1,0,9.1,2.9,9.1,8.9c0,5.3-3.8,9.2-9.1,9.1c-4.8,0-9-4.3-8.9-9.197
			C1143.7,1205.7,1147.4,1202.1,1152.5,1202.1z"/>
		<path fill="#B3B3B3" d="M1334.6,1437.9c0-6,3-8.9,9.2-8.803c5.7,0.103,8.9,3.303,8.8,8.803c-0.1,5.1-4,9.197-8.897,9.197
			C1338.3,1447.1,1334.6,1443.3,1334.6,1437.9z"/>
		<path fill="#B3B3B3" d="M1343.5,1414.1c-6.1,0-9-3-8.9-9.197c0-5,3.603-8.803,8.4-8.803c5.5-0.1,9.5,3.603,9.6,8.803
			C1352.7,1410.2,1348.9,1414.1,1343.5,1414.1z"/>
		<path fill="#B3B3B3" d="M1307.6,1405.2c0-5.9,3-9.103,8.5-9.103c5.303,0,9.603,4,9.5,9.103c0,5.1-3.8,8.897-8.8,8.897
			C1310.6,1414.1,1307.7,1411.2,1307.6,1405.2z"/>
		<path fill="#B3B3B3" d="M1289.6,1414.1c-6.1,0-8.897-3-8.897-9.1c0-5.9,3-9,8.6-8.9c5.3,0,9.5,4.103,9.4,9.103
			C1298.6,1410,1294.4,1414.1,1289.6,1414.1z"/>
		<path fill="#B3B3B3" d="M1397.8,1381.1c-5.897,0-9.1-2.897-9.2-8.397c0-5.4,3.9-9.603,9-9.603c5.2,0,8.9,3.7,9,8.803
			C1406.7,1378,1403.8,1381,1397.8,1381.1z"/>
		<path fill="#B3B3B3" d="M1343.7,1381.1c-6.103,0-9.103-2.897-9.103-8.897c0-4.9,4-9,8.803-9.103c5-0.1,9.1,4.103,9.197,9.4
			C1352.7,1378.1,1349.6,1381,1343.7,1381.1z"/>
		<path fill="#B3B3B3" d="M1289.5,1381.1c-6,0-8.6-3-9-9.1c-0.4-5.8,4.4-8.6,8.9-8.8c4.897-0.2,9.1,4,9.197,8.897
			C1298.7,1377.9,1295.5,1381.1,1289.5,1381.1z"/>
		<path fill="#B3B3B3" d="M1262.4,1381.1c-6-0.1-8.803-3.1-8.7-9.3c0.1-5.5,3.3-8.7,8.899-8.7c4.801,0,9.101,4.2,9.101,9
			C1271.6,1377.4,1267.8,1381.1,1262.4,1381.1z"/>
		<path fill="#B3B3B3" d="M1370.4,1381.1c-5.803,0-8.9-3.1-8.803-8.8c0.103-5.1,4.103-9.2,9-9.2c5.103,0,9.103,4.2,9,9.603
			C1379.6,1378.2,1376.4,1381.1,1370.4,1381.1z"/>
		<path fill="#B3B3B3" d="M1433.6,1372c0,6.1-2.897,9.1-8.897,9.1c-5.9,0-9.103-3.197-9.103-9.1c0-4.9,4.303-9,9.2-8.9
			C1430,1363.2,1433.6,1366.9,1433.6,1372z"/>
		<path fill="#B3B3B3" d="M1316.7,1381.1c-6.103,0-9-2.897-9-9c0-5.3,3.897-9.1,9.2-9c4.6,0.103,8.697,4.2,8.8,8.803
			C1325.7,1377.8,1322.5,1381.1,1316.7,1381.1z"/>
		<path fill="#B3B3B3" d="M1307.6,1437.7c0.103-5.9,3.103-8.7,9.4-8.603c4.9,0.103,8.6,4.103,8.6,9.2c-0.1,4.9-4.397,9.2-9.197,8.8
			C1310.6,1446.5,1306.9,1443.5,1307.6,1437.7z"/>
		<path fill="#B3B3B3" d="M981.6,1243.5c0-5.6,3-8.4,8.9-8.4c4.6,0,9,4,9.1,8.4c0.103,5.2-4,9.6-8.897,9.6
			C984.6,1253.1,981.6,1250,981.6,1243.5z"/>
		<path fill="#B3B3B3" d="M890.6,1243.7c0,6.397-3,9.5-9.197,9.3c-4.603-0.1-8.603-4.2-8.803-8.8c-0.1-4.9,4.2-9.2,9.303-9.2
			C887.7,1235.1,890.6,1238,890.6,1243.7z"/>
		<path fill="#B3B3B3" d="M863.6,1243.7c0,6.3-3.197,9.5-9.197,9.397c-4.7-0.1-8.7-4.3-8.803-9.3c-0.1-4.5,4.4-8.7,9.303-8.7
			C860.7,1235.1,863.6,1238,863.6,1243.7z"/>
		<path fill="#B3B3B3" d="M503.2,1121.1c-5.3,0-9.603-4.1-9.5-9c0-4.6,4.5-8.897,9.3-9c4.3-0.1,9.7,4.603,9.4,8.9
			C512.1,1117.2,508.2,1122.4,503.2,1121.1z"/>
		<path fill="#B3B3B3" d="M529.8,1121.1c-4.7,0-9-4-9.1-8.397c-0.103-4.4,4.8-9.5,9.3-9.603c4.5-0.1,9.8,5.103,9.6,9.303
			C539.4,1117.4,535.2,1121.1,529.8,1121.1z"/>
		<path fill="#B3B3B3" d="M665.7,1121.1c-6.2,0-9.103-2.897-9.103-9c0-4.6,4.2-9,8.603-9c5.1,0,9.3,4,9.397,8.803
			C674.8,1117.9,671.7,1121,665.7,1121.1z"/>
		<path fill="#B3B3B3" d="M692.8,1121.1c-6,0-9.2-2.8-9.2-8.397c0-5.2,3.9-9.603,8.5-9.603c5.303,0,9.4,4,9.5,9.2
			C701.7,1117.9,698.6,1121,692.8,1121.1z"/>
		<path fill="#B3B3B3" d="M800.8,1121.1c-6.1,0-9.2-3-9.2-8.897c0-5,4.303-9.103,9.5-9.103c4.303,0,8.5,4.4,8.5,8.9
			C809.6,1118.1,806.8,1121.1,800.8,1121.1z"/>
		<path fill="#B3B3B3" d="M935.9,1121.1c-4.9,0-9.5-4.3-9.303-8.697c0.2-4.7,5.103-9.4,9.7-9.303c4.4,0.103,9.4,5.103,9.3,9.103
			C945.5,1117.2,941.3,1121.1,935.9,1121.1z"/>
		<path fill="#B3B3B3" d="M1098.5,1121.1c-5.9,0-8.9-3.1-8.9-8.697c0.103-4.803,4-9.2,8.4-9.303c5.5-0.1,9.7,4,9.6,9.5
			C1107.6,1118.2,1104.5,1121.1,1098.5,1121.1z"/>
		<path fill="#B3B3B3" d="M1207,1121.1c-6.3,0-9.5-3.197-9.4-9.197c0.103-4.7,4.303-8.7,9.303-8.803c4.5-0.1,8.697,4.4,8.697,9.2
			C1215.6,1118.2,1212.7,1121.1,1207,1121.1z"/>
		<path fill="#B3B3B3" d="M963.3,1169.1c5.103,0,9.2,4,9.4,8.803c0.1,5-4.2,9.197-9.5,9.197c-5.603,0-8.5-3.1-8.4-9
			C954.7,1172.1,957.6,1169,963.3,1169.1z"/>
		<path fill="#B3B3B3" d="M863.6,1177.9c0,6-2.8,9.1-8.397,9.197c-5.2,0-9.603-3.897-9.603-8.6c0-5.3,4-9.4,9.2-9.4
			C860.5,1169,863.6,1172.1,863.6,1177.9z"/>
		<path fill="#B3B3B3" d="M954.6,1145.4c0-6.4,3-9.4,9.2-9.303c4.603,0.103,8.603,4.2,8.8,8.803c0.103,4.897-4.197,9.197-9.3,9.197
			C957.5,1154,954.6,1151.1,954.6,1145.4z"/>
		<path fill="#B3B3B3" d="M890.6,1145.4c0,5.697-2.897,8.6-8.697,8.6c-5,0.1-9.4-4.3-9.303-9.2c0.103-4.6,4.2-8.7,8.803-8.8
			C887.7,1136,890.6,1139,890.6,1145.4z"/>
		<path fill="#B3B3B3" d="M863.6,1145.4c0,5.697-2.897,8.6-8.697,8.6c-4.9,0-9.4-4.1-9.303-8.6c0.103-5,4-9.2,8.7-9.303
			C860.4,1135.9,863.6,1139.2,863.6,1145.4z"/>
		<path fill="#B3B3B3" d="M836.6,1342.4c0,5.897-2.697,8.3-8.6,8.697c-6.6,0.4-9.2-3.897-9.2-8.397c0-6.4,3.103-9.103,9.3-9.7
			C832.6,1332.8,836.6,1337.4,836.6,1342.4z"/>
		<path fill="#B3B3B3" d="M890.6,1342.5c0,5.9-2.697,8.5-8.697,8.5c-5.9,0-9.2-3-9.303-8.4c-0.1-4.5,4.803-9.5,9.303-9.6
			C887.4,1332.9,890.6,1336.4,890.6,1342.5z"/>
		<path fill="#B3B3B3" d="M1206.8,1351.1c-6.1,0-9.2-3-9.2-8.897c0-5,4.303-9.103,9.5-9c4.4,0,8.5,4.397,8.5,9
			C1215.6,1348.1,1212.7,1351.1,1206.8,1351.1z"/>
		<path fill="#B3B3B3" d="M1288,1351.1c-5.4,0-9.2-3.397-9.3-8.397c-0.103-4.7,5-9.801,9.7-9.603c4.8,0.103,9.1,4.7,9,9.603
			C1297.2,1347.6,1293.3,1351.1,1288,1351.1z"/>
		<path fill="#B3B3B3" d="M1315.1,1286.1c-4.3,0-9.397-4.897-9.397-9c-0.103-5.1,4.3-9.1,10-9c4.6,0,9,4.303,9,8.603
			C1324.5,1281.2,1319.6,1286.1,1315.1,1286.1z"/>
		<path fill="#B3B3B3" d="M1207,1268.1c5.7,0,8.6,2.9,8.6,8.7c0,4.9-4.1,9.4-8.6,9.3c-5-0.1-9.2-4-9.4-8.697
			C1197.5,1271.3,1200.7,1268.1,1207,1268.1z"/>
		<path fill="#B3B3B3" d="M1161.6,1276.6c0,5.103-4,9.603-8.697,9.5c-5.303-0.1-9.303-4.1-9.303-9.3c-0.1-5.6,3-8.6,8.9-8.7
			C1158.5,1268,1161.6,1271,1161.6,1276.6z"/>
		<path fill="#B3B3B3" d="M1125.4,1268.1c6,0,9.197,2.803,9.197,8.4c0,5.2-3.897,9.6-8.5,9.6c-5.3,0-9.397-4-9.5-9.197
			C1116.5,1271.2,1119.6,1268.1,1125.4,1268.1z"/>
		<path fill="#B3B3B3" d="M1008.6,1276.2c0-5.7,2.9-8.2,9.103-8.2c5.7,0.1,9.1,3.4,8.897,8.7c-0.197,5.3-4.1,9.2-9.397,9.3
			C1012.5,1286.1,1008.6,1281.6,1008.6,1276.2z"/>
		<path fill="#B3B3B3" d="M909.2,1286.1c-4.3,0.103-9.4-4.697-9.603-8.8c-0.197-4.7,4.103-9.1,8.9-9.1c5.5-0.103,10,3.7,10.1,8.397
			C918.6,1281,913.7,1286,909.2,1286.1z"/>
		<path fill="#B3B3B3" d="M801.1,1268.1c5.7,0,8.5,2.9,8.5,8.803c0,4.8-4.197,9.3-8.697,9.197c-5.103-0.197-9.2-4.1-9.2-8.8
			C791.5,1271.1,794.7,1268.1,801.1,1268.1z"/>
		<path fill="#B3B3B3" d="M1360.6,1309.5c0-5,4.103-9.5,8.603-9.4c4.5,0.103,9.397,5.103,9.397,9.5c0,4.303-4.897,9.4-9,9.4
			C1364.7,1319.1,1360.6,1314.8,1360.6,1309.5z"/>
		<path fill="#B3B3B3" d="M1269.6,1309.6c0,5-4.1,9.5-8.5,9.5c-4.5,0-9.5-5-9.5-9.5c0-4.3,4.803-9.397,9-9.5
			C1265.5,1300,1269.6,1304.3,1269.6,1309.6z"/>
		<path fill="#B3B3B3" d="M981.6,1309.3c0-4.7,3.9-9,8.303-9.2c4.397-0.197,9.5,4.7,9.697,9.2c0.103,4.5-5,9.8-9.197,9.7
			C985.4,1318.9,981.6,1314.7,981.6,1309.3z"/>
		<path fill="#B3B3B3" d="M863.6,1309.8c0,4.9-4.3,9.5-8.697,9.3c-4.7-0.197-9.4-5.1-9.303-9.697c0.103-4.4,5.103-9.4,9.103-9.303
			C859.8,1300.2,863.6,1304.4,863.6,1309.8z"/>
		<path fill="#B3B3B3" d="M1098.5,1038.1c6.1,0,9.1,2.9,9.1,8.5c0,5.303-4.197,9.7-9.197,9.5c-4.9-0.197-8.803-4.3-8.803-9.397
			C1089.6,1041,1092.7,1038,1098.5,1038.1z"/>
		<path fill="#B3B3B3" d="M1153.3,1038.1c5.4,0,8.4,3.103,8.3,8.603c0,5.1-4,9.199-8.897,9.3c-5,0.1-9.2-4.2-9.103-9.6
			C1143.7,1040.8,1146.8,1038,1153.3,1038.1z"/>
		<path fill="#B3B3B3" d="M1233.9,1038.1c6,0,8.697,2.603,8.697,8.5c0,5-4,9.7-8.5,9.4c-6.197-0.5-9.1-3.2-9.397-9.6
			C1224.4,1041.1,1228,1038.1,1233.9,1038.1z"/>
		<path fill="#B3B3B3" d="M1288,1038.1c5.2,0,9.3,3.603,9.3,8.4c0.103,4.8-4.3,9.5-9.1,9.5c-4.5,0.1-9.8-5-9.601-9.2
			C1278.8,1041,1281.9,1038.1,1288,1038.1z"/>
		<path fill="#B3B3B3" d="M1414.6,1046.7c0-5.9,2.7-8.4,8.7-8.7c5.601-0.3,9.101,2.6,9.3,8.8c0.103,5.103-4,9.2-8.8,9.3
			C1418.8,1056.1,1414.6,1051.9,1414.6,1046.7z"/>
		<path fill="#B3B3B3" d="M484.6,1079.9c0,4.697-3.897,9-8.397,9.1c-4.4,0.1-9.5-4.8-9.603-9.3c-0.1-4.5,5-9.8,9.303-9.7
			C480.9,1070.3,484.7,1074.5,484.6,1079.9z"/>
		<path fill="#B3B3B3" d="M548.6,1079.6c0-5.897,3.5-9.697,8.7-9.397c4.603,0.199,9.4,5.1,9.3,9.6c-0.1,4.3-4.897,9.603-9,9.2
			C552.2,1088.4,547.4,1084.6,548.6,1079.6z"/>
		<path fill="#B3B3B3" d="M602.6,1079.6c0-5.3,4-9.6,9-9.6c4.603,0,8.9,4.5,9,9.3c0.103,4.3-4.6,9.4-8.8,9.603
			C606.8,1089.2,602.6,1084.9,602.6,1079.6z"/>
		<path fill="#B3B3B3" d="M863.6,1079.8c0,4.9-4.3,9.5-8.697,9.3c-4.7-0.197-9.4-5.1-9.303-9.697c0.103-4.4,5.103-9.4,9.103-9.303
			C859.8,1070.2,863.6,1074.4,863.6,1079.8z"/>
		<path fill="#B3B3B3" d="M1269.6,1079.5c0,5-4,9.5-8.5,9.5s-9.5-5-9.5-9.5c0-4.3,4.803-9.4,8.9-9.5
			C1265.5,1070,1269.6,1074.3,1269.6,1079.5z"/>
		<path fill="#B3B3B3" d="M548.6,1046.5c0-5.9,2.7-8.5,8.803-8.5c5.897,0,9.197,3.1,9.197,8.4c0,4.5-4.897,9.397-9.3,9.5
			C551.8,1056.2,548.6,1052.7,548.6,1046.5z"/>
		<path fill="#B3B3B3" d="M638.1,1038.1c6.5,0,9.5,2.803,9.5,9c0,4.803-4.397,9.103-9.1,9c-4.8-0.1-8.9-4.3-8.9-9.1
			C629.7,1041,632.5,1038.1,638.1,1038.1z"/>
		<path fill="#B3B3B3" d="M692.5,1038.1c6.1,0,9.1,2.9,9.2,8.4c0,5.3-4.2,9.7-9.2,9.5c-4.9-0.1-8.8-4.3-8.8-9.4
			C683.6,1041,686.7,1038,692.5,1038.1z"/>
		<path fill="#B3B3B3" d="M747.3,1038.1c5.4,0,8.4,3.103,8.4,8.603c0,5.1-3.9,9.199-8.8,9.397c-5,0.2-9.2-4.197-9.2-9.5
			C737.6,1040.8,740.8,1038.1,747.3,1038.1z"/>
		<path fill="#B3B3B3" d="M836.6,1046.7c0,5-4,9.7-8.6,9.3c-6.1-0.5-9.4-3.3-9.2-9.6c0.2-5.2,2.8-8.9,9.7-8.4
			C834,1038.4,836.6,1040.9,836.6,1046.7z"/>
		<path fill="#B3B3B3" d="M855.2,1038.1c5.897,0,8.397,2.7,8.397,8.9c0,5.2-3.8,9.2-8.6,9.1c-5.1-0.1-9.3-4.3-9.4-9.397
			C845.6,1041.1,849,1038.1,855.2,1038.1z"/>
		<path fill="#B3B3B3" d="M882.1,1038.1c5.9,0,8.603,2.7,8.5,8.7c0,5.9-3,9.2-8.397,9.3c-4.5,0.103-9.5-4.8-9.603-9.3
			C872.5,1041.3,876,1038.1,882.1,1038.1z"/>
		<path fill="#B3B3B3" d="M936.1,1038.1c5.9,0,9.7,3.4,9.5,8.7c-0.197,4.601-5.1,9.4-9.6,9.3c-4.3-0.1-9.6-4.897-9.2-9
			C927.3,1041.7,931.1,1036.8,936.1,1038.1z"/>
		<path fill="#B3B3B3" d="M1405.6,1079.6c0,4.303-4.8,9.7-9,9.303c-5.3-0.5-9.8-4.103-9.1-9.4c0.6-5.1,4.4-9.5,9.3-9.4
			C1401.4,1070.2,1405.6,1074.8,1405.6,1079.6z"/>
		<path fill="#B3B3B3" d="M530,1056.1c-4.5-0.1-9.4-5.197-9.3-9.6c0.1-4.9,4.8-8.5,10.6-8.4c4.103,0.103,8.5,4.7,8.3,8.7
			C539.4,1051.4,534.5,1056.2,530,1056.1z"/>
		<path fill="#B3B3B3" d="M1044.5,1121.1c-6.1,0-9-3-8.9-9.197c0-4.603,4.303-8.9,8.7-8.803c5.101,0.103,9.3,4,9.3,8.9
			C1053.7,1117.8,1050.5,1121.1,1044.5,1121.1z"/>
		<path fill="#B3B3B3" d="M584.2,1038.1c6.5-0.8,8.8,3.9,9.3,8.303c0.5,4.897-4.3,9.697-9,9.697c-5.5,0-9-3.897-8.9-9.8
			C575.7,1040.7,578.5,1038.1,584.2,1038.1z"/>
		<path fill="#B3B3B3" d="M972.6,1309.6c0,4.5-5,9.4-9.5,9.5c-4.5,0-8.5-4.5-8.5-9.5s4.103-9.5,8.5-9.5
			C967.7,1300.1,972.6,1305.1,972.6,1309.6z"/>
		<path fill="#B3B3B3" d="M890.6,1309.9c0,4.697-4,9-8.397,9.1c-4.4,0.1-9.5-4.8-9.603-9.3c-0.1-4.5,4.603-9.4,9.303-9.603
			C886.5,1299.9,890.7,1304.5,890.6,1309.9z"/>
		<path fill="#B3B3B3" d="M602.6,1046.7c0-5.9,2.7-8.3,8.603-8.7c6.5-0.4,8.8,4,9.3,8.4c0.5,5.1-3.9,9.6-8.8,9.697
			C606.7,1056.1,602.6,1051.8,602.6,1046.7z"/>
		<path fill="#B3B3B3" d="M908.9,1121.1c-4.9,0-9.5-4.3-9.2-8.8c0.3-4.7,5.2-9.399,9.7-9.2c4.5,0.2,9.397,5.303,9.197,9.7
			C918.4,1117.4,914,1121.1,908.9,1121.1z"/>
		<path fill="#B3B3B3" d="M936.2,1268.1c5.2,0,9.5,4.303,9.397,9.103c-0.1,4.1-5.3,8.897-9.6,8.897s-9.7-4.897-9.2-9
			C927.4,1271.7,931,1266.9,936.2,1268.1z"/>
		<path fill="#B3B3B3" d="M1107.6,1276.6c0,5.303-4.197,9.603-9.197,9.5c-4.9-0.1-8.803-4.3-8.803-9.3c-0.1-5.6,3-8.6,8.9-8.7
			C1104.5,1268,1107.6,1271,1107.6,1276.6z"/>
		<path fill="#B3B3B3" d="M1125.5,1038.1c6,0,9.1,2.9,9.1,8.5c0,5.303-4.197,9.603-9.197,9.5c-4.9-0.1-8.803-4.3-8.803-9.3
			C1116.6,1041.1,1119.7,1038.1,1125.5,1038.1z"/>
		<path fill="#B3B3B3" d="M800.7,775.1c6.1,0,8.897,3,8.897,9.2c0,4.5-4.3,8.9-8.697,8.8C795.8,793,791.6,789,791.6,784.2
			C791.5,778.3,794.8,775,800.7,775.1z"/>
		<path fill="#B3B3B3" d="M1288.5,1268.1c4.8,0,8.9,4,8.9,8.5c0,4.9-4.603,9.5-9.4,9.5c-4.3-0.1-9.4-5-9.4-9
			C1278.7,1271.6,1282.6,1268,1288.5,1268.1z"/>
		<path fill="#B3B3B3" d="M963.2,891.1c-5.9,0-8.2-2.697-8.603-8.697c-0.5-6.5,4.2-8.9,8.4-9.2c5.2-0.5,9.6,3.897,9.6,8.897
			S968.4,891.1,963.2,891.1z"/>
		<path fill="#B3B3B3" d="M1288.4,775.1c4.897,0,8.8,3.803,8.897,8.4c0.103,4.9-4.397,9.5-9.199,9.5c-4.898,0-9.698-4.7-9.5-9.3
			C1278.9,778.8,1283,775,1288.4,775.1z"/>
		<path fill="#B3B3B3" d="M719.6,1038.1c6,0,9.103,2.9,9.103,8.5c0,5.303-4.2,9.603-9.2,9.5c-4.9-0.197-8.8-4.3-8.8-9.397
			C710.6,1041.1,713.7,1038.1,719.6,1038.1z"/>
		<path fill="#B3B3B3" d="M638.7,1121.1c-6.2,0-9.103-2.897-9.103-9c0-4.6,4.103-9,8.5-9c5.303,0,9.7,4.2,9.5,9.2
			C647.4,1116.8,644.5,1121.9,638.7,1121.1z"/>
		<path fill="#B3B3B3" d="M557,1121.1c-5.9,0-8.4-2.697-8.4-8.8c0-5.8,3.103-9.1,8.5-9.2c5.2,0,9.603,4.2,9.5,9.103
			C566.5,1117.2,562.3,1121.1,557,1121.1z"/>
		<path fill="#B3B3B3" d="M890.6,1013.6c0,6.103-3.197,9.603-8.697,9.4c-5.103-0.1-9.2-4.1-9.303-8.9
			c-0.1-5.1,4.303-9.197,9.803-9.1C888,1005.1,890.6,1007.9,890.6,1013.6z"/>
		<path fill="#B3B3B3" d="M890.6,948.2c0,5.897-3.1,8.897-8.697,8.897c-5-0.1-9.2-4-9.303-8.897c-0.1-5,4.2-9.103,9.5-9.103
			C887.8,939.1,890.7,942.2,890.6,948.2z"/>
		<path fill="#B3B3B3" d="M963.2,939.1c5.2,0,9.6,4.303,9.397,9.2c-0.197,4.9-4.3,8.7-9.397,8.8c-5.603,0-8.603-3.1-8.603-9
			C954.6,942.1,957.6,939,963.2,939.1z"/>
		<path fill="#B3B3B3" d="M1315.1,1351.1c-5,0-9.5-4-9.5-8.5s5-9.5,9.5-9.5s9.4,5,9.5,9.5C1324.6,1347,1320.1,1351.1,1315.1,1351.1z
			"/>
		<path fill="#B3B3B3" d="M1342.1,1351.1c-5.197,0-9.197-3.8-9.1-8.697c0.1-5.103,4.6-9.5,9.4-9.303
			c4.397,0.2,9.397,5.103,9.197,9.2C1351.4,1347.6,1347.7,1351.1,1342.1,1351.1z"/>
		<path fill="#B3B3B3" d="M457.6,1144.9c0,6.197-2.897,9.1-8.897,9.1c-4.603,0-9-4.1-9.103-8.5c0-5.3,4.103-9.6,9.103-9.5
			C454.4,1136.1,457.6,1139.3,457.6,1144.9z"/>
		<path fill="#B3B3B3" d="M1360.6,652.6c0-6.197,3.2-9.697,8.7-9.5c5.3,0.2,9.3,4.2,9.3,9.5c0,4.4-4.3,8.5-9,8.5
			C1363.6,661.1,1360.6,658.2,1360.6,652.6z"/>
		<path fill="#B3B3B3" d="M575.6,1079.3c0-5,4-9.1,8.803-9.2c4.3-0.1,9.3,5.2,9.197,9.7c-0.1,4.4-5.1,9.603-9.197,9.103
			C579.1,1088.2,574.5,1084.8,575.6,1079.3z"/>
		<path fill="#B3B3B3" d="M836.6,849.4c0,5.897-2.697,8.6-8.6,8.6c-6.1,0-9.6-3.3-9.4-8.8c0.2-5.103,4.103-9.2,8.9-9.2
			C832.5,840,836.6,844.3,836.6,849.4z"/>
		<path fill="#B3B3B3" d="M882.2,858.1c-6.103,0-9.603-3.197-9.5-8.6c0.1-4.3,5-9.3,9-9.4c5.897,0,9,3.303,9,9.7
			C890.6,855.4,887.9,858.1,882.2,858.1z"/>
		<path fill="#B3B3B3" d="M990,858.1c-5.9,0-8.5-2.697-8.4-8.8c0-4.897,4.2-9.3,8.7-9.2c5.103,0.2,9.3,4.4,9.3,9.4
			C999.7,855,996.2,858.1,990,858.1z"/>
		<path fill="#B3B3B3" d="M1341.9,628.1c-5,0-8.9-3.6-9-8.397c-0.103-5,4.197-9.5,9.1-9.603c4.3-0.1,9.5,4.7,9.6,8.9
			C1351.8,624.3,1347.7,628.1,1341.9,628.1z"/>
		<path fill="#B3B3B3" d="M1314.9,628.1c-4.9,0-9.5-4.3-9.303-8.697c0.2-4.7,5.103-9.4,9.7-9.303c4.5,0.103,9.4,5.2,9.3,9.7
			C1324.4,624.3,1320,628.1,1314.9,628.1z"/>
		<path fill="#B3B3B3" d="M1206.7,628.1c-6,0-9.2-3.197-9.103-9.1c0.103-4.6,4.2-8.9,8.9-8.8c4.1,0.1,10,3.897,9.3,9.397
			C1215.1,625.2,1212.6,628.1,1206.7,628.1z"/>
		<path fill="#B3B3B3" d="M1125.7,628.1c-6,0-9.103-2.897-9.103-8.397c0-5.3,4.103-9.603,9.103-9.5c4.897,0.1,8.8,4.2,8.897,9.3
			C1134.7,625,1131.6,628,1125.7,628.1z"/>
		<path fill="#B3B3B3" d="M1098.7,628.1c-6,0-9.103-2.897-9.103-8.5c0-5.3,4.2-9.6,9.2-9.5c4.9,0.103,8.8,4.303,8.8,9.303
			C1107.7,625.1,1104.6,628,1098.7,628.1z"/>
		<path fill="#B3B3B3" d="M890.6,1178c0,6-2.897,9.1-8.5,9.1c-5.3,0-9.6-4.197-9.5-9.197c0.103-4.9,4.303-8.803,9.303-8.803
			C887.6,1169,890.6,1172.1,890.6,1178z"/>
		<path fill="#B3B3B3" d="M1269.6,586.9c0,4.697-4,9-8.397,9.1c-4.4,0.1-9.5-4.9-9.603-9.3c-0.1-4.5,4.7-9.4,9.303-9.603
			C1265.6,577,1269.7,581.6,1269.6,586.9z"/>
		<path fill="#B3B3B3" d="M890.6,586.6c0,5-4,9.5-8.5,9.5s-9.5-5-9.5-9.5s5-9.397,9.5-9.5C886.6,577.1,890.6,581.6,890.6,586.6z"/>
		<path fill="#B3B3B3" d="M1288.1,545.1c5.2,0,9.303,3.803,9.303,8.603c-0.103,4.897-4.603,9.5-9.4,9.397c-4.3-0.1-9.4-5-9.3-9.1
			C1278.7,548.7,1282.5,545.1,1288.1,545.1z"/>
		<path fill="#B3B3B3" d="M1315.1,1038.1c5,0,9.5,4,9.5,8.5s-5,9.5-9.5,9.5s-9.397-5-9.5-9.5
			C1305.6,1042.1,1310.1,1038.1,1315.1,1038.1z"/>
		<path fill="#B3B3B3" d="M890.6,1276.6c0,6.103-3.197,9.603-8.697,9.5c-4.303-0.1-9.303-5-9.303-9.1c0-5.9,3.4-9,9.803-8.9
			C887.9,1268.1,890.6,1270.9,890.6,1276.6z"/>
		<path fill="#B3B3B3" d="M908.8,628.1c-4.7,0-9-4-9.1-8.397c-0.103-4.4,4.8-9.5,9.3-9.603c4.5-0.1,9.4,4.7,9.6,9.303
			C918.8,624,914.1,628.1,908.8,628.1z"/>
		<path fill="#B3B3B3" d="M1314.8,858.1c-4.7,0-9-4-9.1-8.397c-0.101-4.4,4.8-9.5,9.3-9.603c4.5-0.1,9.4,4.603,9.6,9.303
			C1324.8,854,1320.1,858.1,1314.8,858.1z"/>
		<path fill="#B3B3B3" d="M855,858.1c-6.1,0-9.5-3.3-9.4-8.8c0.2-4.7,4.603-9.2,9-9.2c4.9,0,9,4.2,9,9.4
			C863.6,855.4,860.9,858.1,855,858.1z"/>
		<path fill="#B3B3B3" d="M1360.6,1079.4c0-4.9,4.303-9.5,8.7-9.2c4.7,0.2,9.4,5.1,9.3,9.7c-0.1,4.3-5.1,9.6-9.1,9.1
			C1364.1,1088.2,1359.5,1084.7,1360.6,1079.4z"/>
	</g>
</g>
<g id="Layer_2" display="none">
</g>
<rect x="1512.5" y="1912" fill="none" width="364" height="88"/>
<text transform="matrix(1 0 0 1 1512.5 1957.1191)" fill="#81BE41" font-family="'MyriadPro-Regular'" font-size="52">System Area (0.5 mi</text>
<text transform="matrix(0.583 0 0 0.583 1937.2812 1939.8027)" fill="#81BE41" font-family="'MyriadPro-Regular'" font-size="52">2</text>
<text transform="matrix(1 0 0 1 1952.833 1957.1191)" fill="#81BE41" font-family="'MyriadPro-Regular'" font-size="52">)</text>
<path fill="#81BE41" d="M1470.5,1941c0-6.102,2.898-9,9.1-8.9c5.9,0,9,3,8.9,8.5c0,5.5-3.7,9.4-8.9,9.5S1470.5,1946.3,1470.5,1941z"
	/>
</svg>
