<?xml version="1.0" encoding="utf-8"?>
<!-- Generator: Adobe Illustrator 16.0.0, SVG Export Plug-In . SVG Version: 6.00 Build 0)  -->
<!DOCTYPE svg PUBLIC "-//W3C//DTD SVG 1.1//EN" "http://www.w3.org/Graphics/SVG/1.1/DTD/svg11.dtd">
<svg version="1.1" id="Layer_2_copy" xmlns="http://www.w3.org/2000/svg" xmlns:xlink="http://www.w3.org/1999/xlink" x="0px"
	 y="0px" width="2000px" height="2000px" viewBox="0 0 2000 2000" style="enable-background:new 0 0 2000 2000;"
	 xml:space="preserve">
<g style="opacity:0.7;">
	<path style="fill-rule:evenodd;clip-rule:evenodd;fill:#B0ADA1;" d="M957.9,1173c-5-0.1-9.5-4.3-9.2-8.8c0.3-5.6,4.3-9.3,9.9-9.2
		c5,0.1,9.1,4.3,9,9.1C967.5,1169.1,963.2,1173.1,957.9,1173z"/>
	<path style="fill-rule:evenodd;clip-rule:evenodd;fill:#B0ADA1;" d="M931,1173c-5.2,0-9.6-4.4-9.3-9.3c0.2-5.1,4.5-8.9,9.9-8.7
		c4.8,0.1,9.4,4.2,9,8.5C939.9,1169.6,937,1173.2,931,1173z"/>
	<path style="fill-rule:evenodd;clip-rule:evenodd;fill:#B0ADA1;" d="M930.6,1140c-4.8,0-9-4.2-9-9c0-5,4.3-9,9.6-9
		c4.8,0,9.5,4,9.2,8.4C940.1,1135.8,937.7,1140.3,930.6,1140z"/>
	<path style="fill-rule:evenodd;clip-rule:evenodd;fill:#B0ADA1;" d="M768.8,1140c-6,0-9.1-2.9-9.1-8.4c0-5.4,4-9.6,9.1-9.6
		c5.1,0,8.9,3.7,8.9,8.8C777.7,1137,774.8,1140,768.8,1140z"/>
	<path style="fill-rule:evenodd;clip-rule:evenodd;fill:#B0ADA1;" d="M804.6,1163.8c0,6.2-2.8,9.2-8.9,9.2c-5.4,0-9.2-3.8-9.1-9.1
		c0.1-4.9,4.1-8.8,9.3-8.9C801.5,1154.9,804.6,1158,804.6,1163.8z"/>
	<path style="fill-rule:evenodd;clip-rule:evenodd;fill:#B0ADA1;" d="M777.6,1163.9c0,6.1-2.9,9-8.9,9.1c-5.4,0-9.1-3.4-9.1-8.5
		c0-5.6,3.8-9.4,9.4-9.5C774,1155,777.6,1158.7,777.6,1163.9z"/>
	<path style="fill-rule:evenodd;clip-rule:evenodd;fill:#B0ADA1;" d="M1210.6,1065c0,5.8-3.9,10.1-9.1,9.9c-4.9-0.2-8.9-4.2-8.9-9.3
		c0-5.3,3.9-9.6,9-9.6C1206.4,1056,1210.6,1060.2,1210.6,1065z"/>
	<path style="fill-rule:evenodd;clip-rule:evenodd;fill:#B0ADA1;" d="M1237.6,1065.7c0,4.9-4.3,9.4-8.7,9.2
		c-5.1-0.2-9.3-4.5-9.3-9.5c0-5.2,4.3-9.6,9.2-9.4C1233.9,1056.2,1237.7,1060.4,1237.6,1065.7z"/>
	<path style="fill-rule:evenodd;clip-rule:evenodd;fill:#B0ADA1;" d="M1120.5,958c6,0,9.1,2.9,9.2,8.4c0,5.4-3.9,9.6-9,9.6
		c-5.2,0-8.9-3.7-9-8.8C1111.6,961,1114.5,958,1120.5,958z"/>
	<path style="fill-rule:evenodd;clip-rule:evenodd;fill:#B0ADA1;" d="M1084.6,1000.2c0-6.1,2.8-9.1,8.8-9.2c6,0,9.1,2.8,9.2,8.3
		c0.1,5.4-3.8,9.6-8.9,9.7C1088.9,1009,1084.7,1005,1084.6,1000.2z"/>
	<path style="fill-rule:evenodd;clip-rule:evenodd;fill:#B0ADA1;" d="M1210.6,1164.1c0,5.9-3,9-8.6,8.9c-5.5,0-9.4-3.8-9.4-9
		c0-5.1,4.2-9.1,9.6-9C1207.7,1155,1210.7,1158.1,1210.6,1164.1z"/>
	<path style="fill-rule:evenodd;clip-rule:evenodd;fill:#B0ADA1;" d="M858.6,1065.6c0,4.9-4.2,9.4-8.6,9.3c-4.5-0.1-9.4-5-9.4-9.5
		c0-5.2,4.3-9.6,9.2-9.5C854.8,1056.2,858.6,1060.3,858.6,1065.6z"/>
	<path style="fill-rule:evenodd;clip-rule:evenodd;fill:#B0ADA1;" d="M1165.6,1065.6c-0.1-5.4,4-9.7,9.1-9.6c4.8,0,8.9,4.2,8.9,9.2
		c0.1,5.4-3.9,9.7-9,9.6C1169.7,1074.8,1165.7,1070.7,1165.6,1065.6z"/>
	<path style="fill-rule:evenodd;clip-rule:evenodd;fill:#B0ADA1;" d="M1210.6,1098c0,6.1-2.9,9-9,8.9c-5.9,0-9-3-9-8.5
		c0-5.3,4.1-9.5,9.1-9.4C1206.6,1089.1,1210.6,1093.2,1210.6,1098z"/>
	<path style="fill-rule:evenodd;clip-rule:evenodd;fill:#B0ADA1;" d="M1183.6,1097.9c0,6.1-2.9,9.1-8.9,9.1c-6,0-9.1-2.8-9.1-8.4
		c-0.1-5.4,3.9-9.6,8.9-9.6C1179.5,1089,1183.6,1093,1183.6,1097.9z"/>
	<path style="fill-rule:evenodd;clip-rule:evenodd;fill:#B0ADA1;" d="M1039.1,1107c-5.7,0-8.5-2.7-8.5-8.3c0-5.7,3.6-9.7,8.6-9.7
		c5.1,0.1,9.3,4,9.4,8.8C1048.8,1103.9,1045.6,1107,1039.1,1107z"/>
	<path style="fill-rule:evenodd;clip-rule:evenodd;fill:#B0ADA1;" d="M1012.3,1107c-5.8,0-8.4-2.6-8.8-8.1c-0.5-6.9,3.3-9.6,8.4-9.7
		c6.3-0.2,9.2,3.1,9.6,9.4C1021.9,1103.9,1018.3,1107,1012.3,1107z"/>
	<path style="fill-rule:evenodd;clip-rule:evenodd;fill:#B0ADA1;" d="M849.9,1107c-6.1,0-9.2-3-9.2-8.9c0-4.8,4.2-9.1,9.1-9.1
		c5.4,0,9,3.8,8.9,9.3C858.6,1104.1,855.6,1107,849.9,1107z"/>
	<path style="fill-rule:evenodd;clip-rule:evenodd;fill:#B0ADA1;" d="M1210.6,1131.1c0,6-3,8.9-9.1,8.9c-5.8,0-9-3.4-8.9-9.3
		c0.1-4.6,4.2-8.7,8.9-8.7C1206.8,1121.9,1210.7,1125.8,1210.6,1131.1z"/>
	<path style="fill-rule:evenodd;clip-rule:evenodd;fill:#B0ADA1;" d="M1237.6,1131.1c0,6.1-3,9-9.1,8.9c-5.1,0-8.8-3.7-8.9-8.8
		c-0.1-4.9,4.1-9.1,8.9-9.2C1234.4,1121.9,1237.7,1125.1,1237.6,1131.1z"/>
	<path style="fill-rule:evenodd;clip-rule:evenodd;fill:#B0ADA1;" d="M795.8,1140c-6.2,1-9-4.4-9.2-9c-0.2-4.8,4.2-9.1,9-9
		c5.1,0,8.9,3.7,8.9,8.8C804.7,1137,801.8,1139.9,795.8,1140z"/>
	<path style="fill-rule:evenodd;clip-rule:evenodd;fill:#B0ADA1;" d="M831.6,1131c0,6.1-3,9-9.1,9c-5.1,0-8.8-3.7-8.9-8.8
		c-0.1-4.9,4-9.2,8.9-9.2C828.4,1121.9,831.6,1125.1,831.6,1131z"/>
	<path style="fill-rule:evenodd;clip-rule:evenodd;fill:#B0ADA1;" d="M858.6,1131.1c0,6-3,8.9-9.1,8.9c-5.1,0-8.8-3.7-8.9-8.8
		c-0.1-4.9,4.1-9.1,8.9-9.2C855.5,1122,858.7,1125.2,858.6,1131.1z"/>
	<path style="fill-rule:evenodd;clip-rule:evenodd;fill:#B0ADA1;" d="M912.6,1131.5c0,5.6-3,8.5-8.9,8.5c-4.6,0-9-4-9.1-8.3
		c-0.1-5.2,4-9.6,9-9.7C909.8,1122,912.6,1125,912.6,1131.5z"/>
	<path style="fill-rule:evenodd;clip-rule:evenodd;fill:#B0ADA1;" d="M1003.6,1131.2c0-6.2,2.8-9.1,8.8-9.2c5-0.1,9.1,4.2,9.2,9.4
		c0,4.5-4.4,8.6-9.4,8.6C1006.5,1139.9,1003.6,1137,1003.6,1131.2z"/>
	<path style="fill-rule:evenodd;clip-rule:evenodd;fill:#B0ADA1;" d="M1039.8,1140c-6.1,0-9.1-2.9-9.1-8.9c0-5.9,3.2-9.1,9.1-9.1
		c4.8,0,9,4.3,8.9,9.2C1048.5,1136.3,1044.8,1140,1039.8,1140z"/>
	<path style="fill-rule:evenodd;clip-rule:evenodd;fill:#B0ADA1;" d="M1237.6,1098.2c0,6-3,8.8-9.2,8.8c-5.6,0-8.7-3.2-8.8-8.9
		c-0.1-4.8,4.2-9.1,9-9.1C1234,1089,1237.7,1092.8,1237.6,1098.2z"/>
	<path style="fill-rule:evenodd;clip-rule:evenodd;fill:#B0ADA1;" d="M1093.7,1107c-6.1,0-9-2.9-9.1-8.9c0-4.6,4-9,8.4-9.1
		c5.5-0.1,9.6,4,9.6,9.5C1102.7,1104,1099.6,1107,1093.7,1107z"/>
	<path style="fill-rule:evenodd;clip-rule:evenodd;fill:#B0ADA1;" d="M1120.7,1107c-6,0-9.1-2.9-9.1-8.5c0-5.3,4.1-9.6,9.2-9.5
		c4.9,0.1,8.8,4.2,8.8,9.3C1129.7,1104,1126.6,1107,1120.7,1107z"/>
	<path style="fill-rule:evenodd;clip-rule:evenodd;fill:#B0ADA1;" d="M1147.4,1107c-5.8,0-8.9-3.1-8.8-8.8c0.1-5.1,4.1-9.2,9-9.2
		c5.1,0,9.1,4.2,9,9.6C1156.6,1104.2,1153.4,1107,1147.4,1107z"/>
	<path style="fill-rule:evenodd;clip-rule:evenodd;fill:#B0ADA1;" d="M1237.6,1163.9c0,6-2.9,9.1-8.5,9c-5.3,0-9.6-4.1-9.5-9.2
		c0.1-4.9,4.2-8.8,9.4-8.8C1234.6,1154.9,1237.6,1158,1237.6,1163.9z"/>
	<path style="fill-rule:evenodd;clip-rule:evenodd;fill:#B0ADA1;" d="M831.6,1164.1c0,5.9-3,9-8.6,8.9c-5.1,0-9.3-3.9-9.4-8.8
		c-0.1-5.1,4.1-9.2,9.5-9.2C828.7,1155,831.6,1158.1,831.6,1164.1z"/>
	<path style="fill-rule:evenodd;clip-rule:evenodd;fill:#B0ADA1;" d="M858.6,1163.9c0,6-2.9,9.1-8.5,9c-5.3,0-9.6-4.1-9.5-9.2
		c0.1-4.9,4.2-8.8,9.4-8.8C855.6,1154.9,858.6,1158,858.6,1163.9z"/>
	<path style="fill-rule:evenodd;clip-rule:evenodd;fill:#B0ADA1;" d="M1003.6,1163.8c0-5.9,3.1-8.9,8.7-8.9c5.1,0.1,9.2,4,9.3,8.9
		c0.1,5.1-4.2,9.1-9.6,9.1C1006.5,1173,1003.6,1169.8,1003.6,1163.8z"/>
	<path style="fill-rule:evenodd;clip-rule:evenodd;fill:#B0ADA1;" d="M1237.6,1032.5c0,5.3-4,9.5-9,9.5c-4.8,0-9.1-4.3-9-9.1
		c0.1-6.2,3-8.9,9.7-8.8C1234.9,1024,1237.6,1026.8,1237.6,1032.5z"/>
	<path style="fill-rule:evenodd;clip-rule:evenodd;fill:#B0ADA1;" d="M1210.6,1033c0,4.8-4.2,9-9,9c-5,0-9.1-4.3-9-9.6
		c0-5.7,3.2-8.4,9.6-8.4C1207.8,1024,1210.6,1027,1210.6,1033z"/>
	<path style="fill-rule:evenodd;clip-rule:evenodd;fill:#B0ADA1;" d="M1066.6,991c5.9,0,9.1,3.2,9,9.1c-0.1,4.9-4.4,9-9.2,8.9
		c-5.1-0.1-8.8-3.9-8.8-9C1057.6,993.9,1060.5,991,1066.6,991z"/>
	<path style="fill-rule:evenodd;clip-rule:evenodd;fill:#B0ADA1;" d="M1120.4,991c6,0,9.2,2.8,9.2,8.4c0.1,5.4-3.9,9.7-9,9.6
		c-4.9,0-8.9-4.1-9-9.2C1111.5,994.1,1114.6,991,1120.4,991z"/>
	<path style="fill-rule:evenodd;clip-rule:evenodd;fill:#B0ADA1;" d="M1147.9,991c5.8,0.1,8.9,3.1,8.8,8.8c-0.1,5.1-4.1,9.2-9,9.2
		c-5.1,0-9.1-4.2-9-9.6C1138.7,993.8,1141.9,990.9,1147.9,991z"/>
	<path style="fill-rule:evenodd;clip-rule:evenodd;fill:#B0ADA1;" d="M1174.5,991c6,0,9.1,2.9,9.1,8.4c0,5.4-4,9.6-9.1,9.6
		c-4.9-0.1-8.8-4.1-8.9-9.3C1165.6,994.1,1168.6,991,1174.5,991z"/>
	<path style="fill-rule:evenodd;clip-rule:evenodd;fill:#B0ADA1;" d="M1066.4,958c5.4,0,9.2,3.6,9.2,9c0,4.8-4.2,9.1-9.1,9
		c-5.7,0-8.9-3.2-8.9-8.7C1057.6,961.1,1060.4,958,1066.4,958z"/>
	<path style="fill-rule:evenodd;clip-rule:evenodd;fill:#B0ADA1;" d="M1228.6,958c6.1,0,9,2.9,9,9c0,5.8-3.3,9.1-9.2,9
		c-4.6-0.1-8.7-4.2-8.8-8.8C1219.5,961.9,1223.4,958,1228.6,958z"/>
	<path style="fill-rule:evenodd;clip-rule:evenodd;fill:#B0ADA1;" d="M1093.7,958c5.8,0,9,3.5,8.9,9.3c-0.1,4.6-4.3,8.7-8.9,8.7
		c-5.3,0.1-9.1-3.8-9.1-9.1C1084.7,960.9,1087.6,958,1093.7,958z"/>
	<path style="fill-rule:evenodd;clip-rule:evenodd;fill:#B0ADA1;" d="M1201.4,958c6.2-0.1,9.2,2.8,9.2,8.8c0,5.4-3.6,9.2-9,9.2
		c-4.8,0-9-4.3-9-9.1C1192.7,961.2,1195.8,958,1201.4,958z"/>
	<path style="fill-rule:evenodd;clip-rule:evenodd;fill:#B0ADA1;" d="M1174.8,958c6,0,8.9,3,8.8,9.2c0,5.1-3.8,8.8-8.9,8.8
		c-4.8,0.1-9.1-4.2-9.1-9C1165.6,961.1,1168.8,958,1174.8,958z"/>
	<path style="fill-rule:evenodd;clip-rule:evenodd;fill:#B0ADA1;" d="M1156.6,966.6c0,5.3-4.2,9.5-9.3,9.4c-4.8-0.1-8.7-4.3-8.7-9.4
		c0-5.6,3.1-8.6,9-8.6C1153.6,958,1156.7,961,1156.6,966.6z"/>
	<path style="fill-rule:evenodd;clip-rule:evenodd;fill:#B0ADA1;" d="M876.6,1140c-4.6,0-9-4.2-8.9-8.6c0.1-5.1,4-9.3,8.8-9.4
		c6.1-0.1,9.2,2.9,9.2,9C885.6,1137.1,882.7,1140,876.6,1140z"/>
	<path style="fill-rule:evenodd;clip-rule:evenodd;fill:#B0ADA1;" d="M1175.3,1024c5.3,0,8.3,3.2,8.3,8.7c-0.1,5.1-4,9.2-8.9,9.3
		c-5,0.1-9.1-4.3-9.1-9.6C1165.7,1026.7,1168.8,1024,1175.3,1024z"/>
	<path style="fill-rule:evenodd;clip-rule:evenodd;fill:#B0ADA1;" d="M1201.7,991c6.1,0,9,3,9,9.1c0,4.9-4.2,8.9-9.1,8.9
		c-4.7-0.1-8.8-4.2-8.9-8.8C1192.5,994.3,1195.8,991,1201.7,991z"/>
	<path style="fill-rule:evenodd;clip-rule:evenodd;fill:#B0ADA1;" d="M1237.6,1000.1c0,5.1-4,9.1-8.8,8.9c-5.1-0.2-9.2-4.1-9.2-8.9
		c-0.1-5.9,3.1-9.1,9.1-9.1C1234.8,991,1237.7,994,1237.6,1000.1z"/>
	<path style="fill-rule:evenodd;clip-rule:evenodd;fill:#B0ADA1;" d="M885.6,1163.9c0,6-2.9,9.1-8.5,9.1c-5.1,0-9.6-4-9.5-8.6
		c0.1-5.3,4.1-9.3,9.3-9.4C882.6,1154.9,885.6,1158,885.6,1163.9z"/>
	<path style="fill-rule:evenodd;clip-rule:evenodd;fill:#B0ADA1;" d="M885.6,1065.8c0,4.7-4.2,9.3-8.3,9.1c-5.1-0.3-9.5-4.5-9.7-9.2
		c-0.1-4.9,4.5-9.8,9.2-9.6C881.9,1056.1,885.7,1060.4,885.6,1065.8z"/>
	<path style="fill-rule:evenodd;clip-rule:evenodd;fill:#B0ADA1;" d="M831.6,1098c0,6.1-3,8.7-9.1,9.1c-5.8,0.4-8.6-4.4-8.9-8.9
		c-0.2-4.9,4.1-9.2,9-9.2C827.5,1089,831.6,1093.1,831.6,1098z"/>
	<path style="fill-rule:evenodd;clip-rule:evenodd;fill:#B0ADA1;" d="M1066.7,1107c-6.2,0-9.1-2.9-9.1-9c0-4.6,4.1-9,8.5-9
		c5.3,0,9.7,4.2,9.5,9.2C1075.4,1102.7,1072.5,1107.9,1066.7,1107z"/>
	<path style="fill-rule:evenodd;clip-rule:evenodd;fill:#B0ADA1;" d="M912.6,1164.1c0,5.9-3,9-8.7,8.9c-5.1,0-9.2-4-9.3-8.8
		c-0.1-5,4.2-9.2,9.5-9.2C909.7,1155,912.7,1158.1,912.6,1164.1z"/>
</g>
<g>
	<path style="fill-rule:evenodd;clip-rule:evenodd;fill:#81BE41;" d="M931,943c-5.2,0-9.6-4.3-9.4-9.2c0.2-5.1,4.5-8.9,9.8-8.8
		c4.8,0.1,9.5,4.1,9,8.5C939.9,939.5,937.1,943.1,931,943z"/>
	<path style="fill-rule:evenodd;clip-rule:evenodd;fill:#81BE41;" d="M931,976c-5.2-0.1-9.6-4.4-9.3-9.3c0.3-4.9,4.4-8.7,9.3-8.7
		c5.2,0.1,9.6,3.8,9.7,8.4C940.7,971.8,936.4,976.1,931,976z"/>
	<path style="fill-rule:evenodd;clip-rule:evenodd;fill:#81BE41;" d="M831.6,1065.2c0,5.2-3.8,9.6-8.4,9.7c-5.3,0.1-9.7-4.2-9.6-9.6
		c0-5.2,4.4-9.6,9.3-9.3C827.8,1056.2,831.7,1060.4,831.6,1065.2z"/>
	<path style="fill-rule:evenodd;clip-rule:evenodd;fill:#81BE41;" d="M958.6,1140c-5.5,0-10.1-4-9.9-8.7c0.2-5.3,4.2-9.3,9.4-9.3
		c5.3,0,9.6,4.1,9.5,9.1C967.6,1135.9,963.4,1140,958.6,1140z"/>
	<path style="fill-rule:evenodd;clip-rule:evenodd;fill:#81BE41;" d="M1030.6,1000.2c-0.1-6.1,2.7-8.9,8.2-9.3
		c6.6-0.6,9.4,3.6,9.8,9c0.3,4.8-4.1,9.1-9,9.1C1033.9,1009,1030.7,1005.8,1030.6,1000.2z"/>
	<path style="fill-rule:evenodd;clip-rule:evenodd;fill:#81BE41;" d="M957.7,1056c4.8,0,9.9,4.6,9.9,9c0,4.7-4.6,9.8-8.9,9.9
		c-4.6,0.1-10.2-5.2-10-9.6C948.8,1060.9,953.7,1056,957.7,1056z"/>
	<path style="fill-rule:evenodd;clip-rule:evenodd;fill:#81BE41;" d="M1066.7,1056c4.8,0.1,9,4.4,8.9,9.2c-0.1,5.3-4.3,10.1-9.1,9.5
		c-5.1-0.6-9.7-3.4-9-9.9C1058.1,1060.2,1062,1055.9,1066.7,1056z"/>
	<path style="fill-rule:evenodd;clip-rule:evenodd;fill:#81BE41;" d="M1156.6,1065.6c0,5.3-4.2,9.5-9.2,9.3c-5-0.2-8.7-4.2-8.8-9.3
		c0-5.3,3.9-9.6,9-9.6C1152.6,1056,1156.7,1060.3,1156.6,1065.6z"/>
	<path style="fill-rule:evenodd;clip-rule:evenodd;fill:#81BE41;" d="M795.6,925c6.1,0,9.1,2.9,9.1,9c0,5.9-2.9,9-8.5,9
		c-5.3,0-9.6-4.1-9.5-9.2C786.7,928.7,790.4,925,795.6,925z"/>
	<path style="fill-rule:evenodd;clip-rule:evenodd;fill:#81BE41;" d="M958.1,976c-4.9,0-9.9-4.3-9.4-8.7c0.8-5.9,3.3-9.2,9.2-9.3
		c5.3-0.1,9.6,3.9,9.7,8.9C967.7,971.9,963.4,976,958.1,976z"/>
	<path style="fill-rule:evenodd;clip-rule:evenodd;fill:#81BE41;" d="M885.6,999.6c0,6-3,9.3-8.4,9.3c-5.4,0.1-10-4.2-9.5-9.6
		c0.5-5,2.9-9,9.8-8.5C883,991.3,885.7,993.8,885.6,999.6z"/>
	<path style="fill-rule:evenodd;clip-rule:evenodd;fill:#81BE41;" d="M876.5,958c6.1,0,9.1,2.9,9.1,8.9c0,5.9-2.9,9.1-8.4,9.1
		c-5.4,0-9.6-3.9-9.6-9C867.6,962.1,871.7,958,876.5,958z"/>
	<path style="fill-rule:evenodd;clip-rule:evenodd;fill:#81BE41;" d="M759.6,1065.7c-0.1-5.4,4-9.7,9-9.7c4.8,0,8.9,4.2,9,9.2
		c0.1,5.4-3.8,9.7-8.9,9.7C763.8,1074.9,759.7,1070.7,759.6,1065.7z"/>
	<path style="fill-rule:evenodd;clip-rule:evenodd;fill:#81BE41;" d="M786.6,1065.6c0-5.3,4.1-9.7,9.1-9.6c4.9,0.1,8.8,4.3,8.9,9.3
		c0.1,5.4-4,9.7-9.1,9.5C790.6,1074.7,786.7,1070.6,786.6,1065.6z"/>
	<path style="fill-rule:evenodd;clip-rule:evenodd;fill:#81BE41;" d="M931.6,1074.9c-4.9,0-9.9-4.7-9.9-9.4c0-4.2,4.8-9.4,8.9-9.5
		c4.8-0.1,9.9,4.6,10,9.3C940.7,1069.3,935.4,1074.9,931.6,1074.9z"/>
	<path style="fill-rule:evenodd;clip-rule:evenodd;fill:#81BE41;" d="M976.6,1065.6c0-6.2,3.1-9.6,8.6-9.6c4.5,0.1,9.4,5,9.4,9.5
		c0,4.3-4.7,9.3-8.9,9.4C980.8,1075,976.6,1070.8,976.6,1065.6z"/>
	<path style="fill-rule:evenodd;clip-rule:evenodd;fill:#81BE41;" d="M1102.6,1065.7c-0.1,5-4.2,9.2-9,9.2c-5.1,0-9-4.3-9-9.7
		c0.1-5,4.1-9.2,9-9.2C1098.7,1056,1102.7,1060.3,1102.6,1065.7z"/>
	<path style="fill-rule:evenodd;clip-rule:evenodd;fill:#81BE41;" d="M1111.6,1065.4c0-5.3,4.3-9.7,9.3-9.4s8.7,4.4,8.7,9.5
		c0,5.2-4.4,9.7-9.3,9.4C1115.3,1074.6,1111.6,1070.6,1111.6,1065.4z"/>
	<path style="fill-rule:evenodd;clip-rule:evenodd;fill:#81BE41;" d="M931.1,1042c-4.3,0-9.4-4.8-9.5-8.9c-0.2-5.7,3.4-9.1,9.6-9.1
		c5,0,9.5,4.1,9.4,8.6C940.5,1037.1,935.6,1042,931.1,1042z"/>
	<path style="fill-rule:evenodd;clip-rule:evenodd;fill:#81BE41;" d="M885.6,1098.3c0,5.8-2.6,8.4-8.1,8.8c-6.9,0.5-9.6-3.3-9.7-8.4
		c-0.2-6.3,3.1-9.2,9.4-9.6C882.6,1088.8,885.6,1092.4,885.6,1098.3z"/>
	<path style="fill-rule:evenodd;clip-rule:evenodd;fill:#81BE41;" d="M804.6,1097.9c0,6.1-2.9,9.1-8.9,9.1c-5.9,0-9.1-2.9-9.1-8.4
		c0-5.4,3.9-9.6,8.9-9.6C800.5,1089,804.6,1093,804.6,1097.9z"/>
	<path style="fill-rule:evenodd;clip-rule:evenodd;fill:#81BE41;" d="M804.6,868.1c0,6.1-2.9,9-9.1,8.9c-5.9,0-9-3-8.9-8.6
		c0-5.3,4.1-9.5,9.1-9.4C800.6,859.1,804.6,863.2,804.6,868.1z"/>
	<path style="fill-rule:evenodd;clip-rule:evenodd;fill:#81BE41;" d="M985.4,1140c-6-0.1-8.8-3-8.7-9.1c0.1-5.9,3.1-8.9,8.7-8.9
		c5.2,0.1,9.6,4.4,9.3,9.3C994.4,1136.2,990.2,1140,985.4,1140z"/>
	<path style="fill-rule:evenodd;clip-rule:evenodd;fill:#81BE41;" d="M768.6,1107c-5.9,0-9-3-8.9-8.6c0-5.1,3.9-9.3,8.8-9.4
		c5.1-0.1,9.2,4.1,9.2,9.5C777.6,1104.1,774.5,1107,768.6,1107z"/>
	<path style="fill-rule:evenodd;clip-rule:evenodd;fill:#81BE41;" d="M958.1,1107c-5,0-9.5-4.1-9.5-8.6c0.1-4.5,5.1-9.5,9.5-9.4
		c4.7,0,9.3,4.4,9.4,8.9C967.7,1102.9,963.4,1107,958.1,1107z"/>
	<path style="fill-rule:evenodd;clip-rule:evenodd;fill:#81BE41;" d="M831.6,867.9c0,6.1-2.9,9.1-8.9,9.1c-5.9,0-9.1-3.2-9.1-9.1
		c0-4.9,4.3-9,9.2-8.9C828,859.1,831.6,862.8,831.6,867.9z"/>
	<path style="fill-rule:evenodd;clip-rule:evenodd;fill:#81BE41;" d="M796.1,844c-6.4,0-9.5-2.8-9.5-8.5c0-5.3,4.2-9.6,9.2-9.5
		c4.8,0.1,8.9,4.3,8.8,9.1C804.6,841.1,801.8,844,796.1,844z"/>
	<path style="fill-rule:evenodd;clip-rule:evenodd;fill:#81BE41;" d="M912.6,901.7c0,5.5-3.1,8.3-9.1,8.3c-4.8,0-9-4.3-8.9-9.1
		c0-5,4.3-9,9.7-8.9C910,892.1,912.7,895.2,912.6,901.7z"/>
	<path style="fill-rule:evenodd;clip-rule:evenodd;fill:#81BE41;" d="M885.6,901c0,6.1-2.9,9-9,9c-4.6,0-8.9-4.1-9-8.5
		c0-5.5,4.1-9.6,9.5-9.5C882.7,892,885.6,895.1,885.6,901z"/>
	<path style="fill-rule:evenodd;clip-rule:evenodd;fill:#81BE41;" d="M858.6,901.2c0,6-3,8.9-9.2,8.8c-4.8,0-8.9-4.2-8.8-9.1
		c0-4.8,4.3-9,9.2-8.9C855.8,892.1,858.7,895.1,858.6,901.2z"/>
	<path style="fill-rule:evenodd;clip-rule:evenodd;fill:#81BE41;" d="M831.6,901c0,6.1-2.9,9-9,9c-5.3,0-9.1-3.9-8.9-9.3
		c0.1-4.6,4.2-8.7,8.9-8.7C828.4,891.9,831.6,895.1,831.6,901z"/>
	<path style="fill-rule:evenodd;clip-rule:evenodd;fill:#81BE41;" d="M769.4,991c5.4,0.2,8.4,3.3,8.3,8.8c-0.1,5.3-4.4,9.4-9.5,9.2
		c-5-0.2-8.7-4.7-8.5-10.2C759.9,993.5,763.2,990.8,769.4,991z"/>
	<path style="fill-rule:evenodd;clip-rule:evenodd;fill:#81BE41;" d="M795.5,991c6.1,0,9.1,2.9,9.1,8.9c0,4.9-4,9-8.8,9.1
		c-4.9,0.1-9.1-4-9.2-8.9C786.6,994.1,789.6,991,795.5,991z"/>
	<path style="fill-rule:evenodd;clip-rule:evenodd;fill:#81BE41;" d="M822.7,991c6.1,0,9,2.9,9,9c0,5.3-3.9,9.1-9.3,9
		c-4.6-0.1-8.7-4.2-8.7-8.9C813.6,994.2,816.8,991,822.7,991z"/>
	<path style="fill-rule:evenodd;clip-rule:evenodd;fill:#81BE41;" d="M849.7,991c6.1,0,9,2.9,9,9.1c0,5.6-3.4,9.1-8.7,8.9
		c-5.1-0.2-9.2-4.1-9.3-8.9C840.6,994.2,843.8,991,849.7,991z"/>
	<path style="fill-rule:evenodd;clip-rule:evenodd;fill:#81BE41;" d="M931.1,991c5,0,9.5,4,9.5,8.5c0,4.5-5,9.5-9.5,9.5
		c-4.7,0-9.3-4.3-9.5-8.9C921.5,995.2,925.9,991,931.1,991z"/>
	<path style="fill-rule:evenodd;clip-rule:evenodd;fill:#81BE41;" d="M1003.6,999.3c0-5.6,2.8-8.3,8.5-8.3c5.6,0,9.7,3.7,9.5,8.7
		c-0.2,5.3-4.2,9.2-9.4,9.3C1006.6,1009,1003.6,1005.6,1003.6,999.3z"/>
	<path style="fill-rule:evenodd;clip-rule:evenodd;fill:#81BE41;" d="M1093.2,1024c6.3,0,9.4,2.9,9.4,8.6c0,5.2-4.3,9.6-9.2,9.4
		c-4.8-0.2-8.8-4.3-8.8-9.2C1084.7,1026.9,1087.5,1024,1093.2,1024z"/>
	<path style="fill-rule:evenodd;clip-rule:evenodd;fill:#81BE41;" d="M1066.3,1024c6.3,0,9.4,2.9,9.3,8.7c-0.1,5-4,9.1-8.8,9.3
		c-4.9,0.1-9.2-4.2-9.2-9.3C1057.7,1026.9,1060.6,1024,1066.3,1024z"/>
	<path style="fill-rule:evenodd;clip-rule:evenodd;fill:#81BE41;" d="M958.2,1042c-4.5,0-9.4-4.8-9.5-9.4c-0.1-4.4,4.4-8.6,9.3-8.6
		c6.1,0,9.7,3.1,9.6,8.5C967.6,1037,962.6,1042,958.2,1042z"/>
	<path style="fill-rule:evenodd;clip-rule:evenodd;fill:#81BE41;" d="M985.4,958c4.9,0,9,3.9,9.2,8.8c0.2,4.9-4.2,9.2-9.4,9.2
		c-5.6,0-8.5-3-8.6-8.9C976.6,961,979.4,958,985.4,958z"/>
	<path style="fill-rule:evenodd;clip-rule:evenodd;fill:#81BE41;" d="M912.6,966.6c0,6.3-2.8,9.5-8.6,9.4c-5.2,0-9.6-4.3-9.4-9.2
		c0.2-4.8,4.3-8.8,9.2-8.8C909.7,958,912.6,960.9,912.6,966.6z"/>
	<path style="fill-rule:evenodd;clip-rule:evenodd;fill:#81BE41;" d="M831.6,966.9c0,5.9-3.2,9.1-9.1,9c-4.9-0.1-9-4.3-8.9-9.2
		c0.1-5.1,3.8-8.8,8.9-8.8C828.7,958,831.6,960.9,831.6,966.9z"/>
	<path style="fill-rule:evenodd;clip-rule:evenodd;fill:#81BE41;" d="M795.4,958c6.2-0.1,9.2,2.8,9.2,8.8c0,5.4-3.6,9.2-9,9.2
		c-4.8,0-9-4.3-9-9.1C786.7,961.2,789.8,958,795.4,958z"/>
	<path style="fill-rule:evenodd;clip-rule:evenodd;fill:#81BE41;" d="M912.6,1065.3c0,4.8-3.7,9.4-7.9,9.5c-4.9,0.2-10-4.4-10.1-9.2
		c-0.2-4.5,4.9-9.8,9.1-9.7C909.6,1056.1,912.6,1059.3,912.6,1065.3z"/>
	<path style="fill-rule:evenodd;clip-rule:evenodd;fill:#81BE41;" d="M885.6,933.7c0.1,6-2.8,9.2-8.3,9.2c-5.4,0.1-9.7-3.9-9.7-9
		c0-4.9,4-8.9,9.2-9C882.5,924.9,885.6,927.9,885.6,933.7z"/>
	<path style="fill-rule:evenodd;clip-rule:evenodd;fill:#81BE41;" d="M858.6,933.7c0.1,6-2.8,9.2-8.3,9.2c-5.4,0.1-9.7-3.9-9.7-9
		c0-4.9,4-8.9,9.2-9C855.5,924.9,858.6,927.9,858.6,933.7z"/>
	<path style="fill-rule:evenodd;clip-rule:evenodd;fill:#81BE41;" d="M831.6,934.1c0,5.9-3.1,8.9-8.7,8.9c-5.1-0.1-9.2-4-9.3-8.9
		c-0.1-5.1,4.2-9.1,9.6-9.1C828.8,925,831.7,928.2,831.6,934.1z"/>
	<path style="fill-rule:evenodd;clip-rule:evenodd;fill:#81BE41;" d="M1120.3,1024c6.4,0,9.4,2.9,9.3,8.8c-0.1,5-4.1,9.2-9,9.2
		c-5.1,0-9.1-4.3-9-9.7C1111.7,1026.9,1114.8,1024,1120.3,1024z"/>
	<path style="fill-rule:evenodd;clip-rule:evenodd;fill:#81BE41;" d="M769.2,1024c5.4,0,8.5,3,8.5,8.5c0,5.3-4.2,9.7-9.2,9.5
		c-4.9-0.2-8.8-4.3-8.8-9.4C759.6,1026.8,762.7,1024,769.2,1024z"/>
	<path style="fill-rule:evenodd;clip-rule:evenodd;fill:#81BE41;" d="M786.6,1032.5c0-5.7,3.1-8.5,9.6-8.5c5.4,0,8.4,3.1,8.4,8.6
		c0,5.1-3.9,9.2-8.8,9.4C790.9,1042.2,786.6,1037.8,786.6,1032.5z"/>
	<path style="fill-rule:evenodd;clip-rule:evenodd;fill:#81BE41;" d="M822.9,1024c5.9,0,8.8,3,8.8,9.1c0,4.7-4.3,8.9-9.1,8.9
		c-4.6-0.1-8.8-4.1-8.9-8.7C813.5,1027.1,816.5,1024,822.9,1024z"/>
	<path style="fill-rule:evenodd;clip-rule:evenodd;fill:#81BE41;" d="M850.1,1024c5.9,0,8.6,2.7,8.6,8.7c0,5-4.1,9.4-8.6,9.3
		c-5.2-0.1-9.2-4-9.4-9.3C840.5,1027.2,844,1024,850.1,1024z"/>
	<path style="fill-rule:evenodd;clip-rule:evenodd;fill:#81BE41;" d="M822.8,844c-6.2,0-9.1-2.8-9.2-8.9c-0.1-4.8,4.2-9.1,9-9.1
		c4.8,0,9,4.2,9,8.9C831.6,841.1,828.8,844,822.8,844z"/>
	<path style="fill-rule:evenodd;clip-rule:evenodd;fill:#81BE41;" d="M912.6,1032.4c0,6.2-3.1,9.6-8.6,9.6c-4.5-0.1-9.4-5-9.4-9.5
		c0-5.5,3.4-8.5,9.7-8.5C909.9,1024,912.6,1026.7,912.6,1032.4z"/>
	<path style="fill-rule:evenodd;clip-rule:evenodd;fill:#81BE41;" d="M1003.6,967.1c0-6.2,2.9-9.1,9-9.1c4.7,0,9,4.1,9,8.5
		c0,5.1-3.9,9.4-8.7,9.5C1006.8,976.2,1003.7,973.1,1003.6,967.1z"/>
	<path style="fill-rule:evenodd;clip-rule:evenodd;fill:#81BE41;" d="M795.8,910c-5.4,0-9.2-3.6-9.2-9c0-4.8,4.3-9,9.1-9
		c5.1,0,8.9,3.8,8.9,8.8C804.7,907,801.8,910,795.8,910z"/>
	<path style="fill-rule:evenodd;clip-rule:evenodd;fill:#81BE41;" d="M1030.6,966.9c0-6.1,3-8.9,9.2-8.9c4.8,0,8.9,4.3,8.8,9.2
		c-0.1,4.7-4.2,8.7-8.9,8.8C1033.8,976.1,1030.6,972.9,1030.6,966.9z"/>
	<path style="fill-rule:evenodd;clip-rule:evenodd;fill:#81BE41;" d="M858.6,967c0,5.9-3.3,9.1-9.2,9c-4.6-0.1-8.7-4.2-8.8-8.9
		c-0.1-4.9,4-9.1,8.9-9.1C855.7,958,858.6,960.9,858.6,967z"/>
	<path style="fill-rule:evenodd;clip-rule:evenodd;fill:#81BE41;" d="M958.3,991c5,0,9.1,3.9,9.3,8.7c0.2,4.6-4.6,9.3-9.6,9.3
		c-4.3-0.1-9.7-5-9.2-9.1C949.4,994.6,953,989.8,958.3,991z"/>
	<path style="fill-rule:evenodd;clip-rule:evenodd;fill:#81BE41;" d="M976.6,999.7c0-6,2.6-8.7,8.5-8.7c5,0,9.7,4,9.4,8.5
		c-0.4,6.2-3.2,9.1-9.6,9.5C979.6,1009.2,976.7,1005.6,976.6,999.7z"/>
	<path style="fill-rule:evenodd;clip-rule:evenodd;fill:#81BE41;" d="M1003.6,1065.5c0-5.3,4.1-9.6,9.1-9.5c4.5,0.1,8.9,4.7,8.9,9.4
		c0,4.3-4.7,9.7-8.9,9.4C1007.4,1074.4,1002.4,1070.6,1003.6,1065.5z"/>
	<path style="fill-rule:evenodd;clip-rule:evenodd;fill:#81BE41;" d="M1048.6,1065.6c-0.1,4.3-5.1,9.7-9.1,9.2
		c-5.1-0.7-9.7-3.3-9-10c0.5-4.7,4.7-9,9.4-8.8C1044.6,1056.3,1048.7,1060.9,1048.6,1065.6z"/>
	<path style="fill-rule:evenodd;clip-rule:evenodd;fill:#81BE41;" d="M931.1,1107c-5.2,0-9.6-4.2-9.4-9.1c0.1-4.5,4.7-8.9,9.5-8.9
		c4.3,0,9.7,4.8,9.3,9C940,1103.3,936.3,1108.2,931.1,1107z"/>
	<path style="fill-rule:evenodd;clip-rule:evenodd;fill:#81BE41;" d="M904.2,1107c-5,0-9.8-3.9-9.5-8.4c0.4-6.4,3.3-9.2,9.4-9.6
		c5.5-0.4,8.5,3.3,8.5,9.6C912.6,1104.3,909.9,1107,904.2,1107z"/>
	<path style="fill-rule:evenodd;clip-rule:evenodd;fill:#81BE41;" d="M976.6,1032.4c0-5.9,2.7-8.4,8.8-8.4c5.8,0,9.2,3.1,9.2,8.5
		c0,4.3-4.8,9.4-8.9,9.5C980,1042.1,976.6,1038.6,976.6,1032.4z"/>
	<path style="fill-rule:evenodd;clip-rule:evenodd;fill:#81BE41;" d="M1039.1,1024c6.1,0,9.6,3.2,9.5,8.7c-0.1,5-4,9.2-8.8,9.3
		c-5.1,0.2-9.2-4.2-9.2-9.8C1030.7,1026.7,1033.4,1024,1039.1,1024z"/>
	<path style="fill-rule:evenodd;clip-rule:evenodd;fill:#81BE41;" d="M1156.6,1032.7c0,5.1-4,9.2-8.8,9.3c-5,0.1-9.2-4.2-9.2-9.5
		c0-5.6,3.1-8.5,9.1-8.5C1153.6,1024,1156.7,1027,1156.6,1032.7z"/>
	<path style="fill-rule:evenodd;clip-rule:evenodd;fill:#81BE41;" d="M985,1107c-5.9,0-8.4-2.7-8.4-8.8c0-5.8,3.1-9.2,8.5-9.2
		c5.2,0,9.6,4.2,9.5,9.1C994.5,1103.1,990.3,1107,985,1107z"/>
	<path style="fill-rule:evenodd;clip-rule:evenodd;fill:#81BE41;" d="M904.1,991c5.9,0,8.5,2.7,8.5,8.7c0,5.9-3,9.2-8.4,9.3
		c-5.2,0.1-9.6-4.1-9.6-9C894.7,995,898.9,991,904.1,991z"/>
	<path style="fill-rule:evenodd;clip-rule:evenodd;fill:#81BE41;" d="M877.1,1024c5.9,0,8.5,2.7,8.5,8.7c0,5-4.1,9.4-8.6,9.3
		c-5-0.1-9.3-4.3-9.4-9.3C867.5,1027.2,871,1024,877.1,1024z"/>
	<path style="fill-rule:evenodd;clip-rule:evenodd;fill:#81BE41;" d="M976.6,1163.9c0-5.9,3-9,8.7-8.9c5.1,0.1,9.2,4,9.3,8.8
		c0.1,5-4.2,9.2-9.5,9.2C979.5,1173,976.6,1169.9,976.6,1163.9z"/>
	<path style="fill-rule:evenodd;clip-rule:evenodd;fill:#81BE41;" d="M912.6,934.7c-0.2,5.4-3.3,8.4-8.8,8.3c-5-0.1-9.2-4.2-9.2-9
		c0-5.2,4.5-9.2,10.2-9C910.1,925.2,912.8,928.6,912.6,934.7z"/>
	<path style="fill-rule:evenodd;clip-rule:evenodd;fill:#81BE41;" d="M1003.6,1032.5c0-5.7,2.7-8.5,8.3-8.5c6.3,0,9.7,3,9.7,8.6
		c0,4.7-4.4,9.3-8.9,9.4C1007.8,1042.1,1003.6,1037.7,1003.6,1032.5z"/>
</g>
</svg>
