<?xml version="1.0" encoding="utf-8"?>
<!-- Generator: Adobe Illustrator 16.0.0, SVG Export Plug-In . SVG Version: 6.00 Build 0)  -->
<!DOCTYPE svg PUBLIC "-//W3C//DTD SVG 1.1//EN" "http://www.w3.org/Graphics/SVG/1.1/DTD/svg11.dtd">
<svg version="1.1" id="Layer_2_copy" xmlns="http://www.w3.org/2000/svg" xmlns:xlink="http://www.w3.org/1999/xlink" x="0px"
	 y="0px" width="2000px" height="2000px" viewBox="0 0 2000 2000" enable-background="new 0 0 2000 2000" xml:space="preserve">
<g opacity="0.7">
	<path fill="#B0ADA1" d="M957.9,1173c-5-0.1-9.5-4.3-9.2-8.8c0.3-5.603,4.3-9.3,9.897-9.2c5,0.1,9.103,4.3,9,9.1
		C967.5,1169.1,963.2,1173.1,957.9,1173z"/>
	<path fill="#B0ADA1" d="M931,1173c-5.2,0-9.6-4.4-9.3-9.3c0.2-5.103,4.5-8.9,9.897-8.7c4.803,0.1,9.4,4.2,9,8.5
		C939.9,1169.6,937,1173.2,931,1173z"/>
	<path fill="#B0ADA1" d="M930.6,1140c-4.8,0-9-4.2-9-9c0-5,4.303-9,9.603-9c4.8,0,9.5,4,9.2,8.4
		C940.1,1135.8,937.7,1140.3,930.6,1140z"/>
	<path fill="#B0ADA1" d="M768.8,1140c-6,0-9.1-2.9-9.1-8.4c0-5.397,4-9.6,9.1-9.6c5.103,0,8.9,3.7,8.9,8.8
		C777.7,1137,774.8,1140,768.8,1140z"/>
	<path fill="#B0ADA1" d="M804.6,1163.8c0,6.2-2.8,9.2-8.897,9.2c-5.4,0-9.2-3.8-9.103-9.1c0.103-4.9,4.103-8.803,9.303-8.9
		C801.5,1154.9,804.6,1158,804.6,1163.8z"/>
	<path fill="#B0ADA1" d="M777.6,1163.9c0,6.1-2.897,9-8.897,9.1c-5.4,0-9.103-3.4-9.103-8.5c0-5.6,3.803-9.4,9.4-9.5
		C774,1155,777.6,1158.7,777.6,1163.9z"/>
	<path fill="#B0ADA1" d="M1210.6,1065c0,5.8-3.897,10.1-9.1,9.9c-4.9-0.2-8.9-4.2-8.9-9.303c0-5.3,3.9-9.6,9-9.6
		C1206.4,1056,1210.6,1060.2,1210.6,1065z"/>
	<path fill="#B0ADA1" d="M1237.6,1065.7c0,4.897-4.3,9.397-8.697,9.2c-5.103-0.2-9.303-4.5-9.303-9.5c0-5.2,4.303-9.603,9.2-9.4
		C1233.9,1056.2,1237.7,1060.4,1237.6,1065.7z"/>
	<path fill="#B0ADA1" d="M1120.5,958c6,0,9.1,2.9,9.2,8.4c0,5.397-3.9,9.6-9,9.6c-5.2,0-8.9-3.7-9-8.8
		C1111.6,961,1114.5,958,1120.5,958z"/>
	<path fill="#B0ADA1" d="M1084.6,1000.2c0-6.103,2.803-9.103,8.803-9.2c6,0,9.1,2.8,9.197,8.3c0.103,5.4-3.8,9.603-8.897,9.7
		C1088.9,1009,1084.7,1005,1084.6,1000.2z"/>
	<path fill="#B0ADA1" d="M1210.6,1164.1c0,5.9-3,9-8.6,8.9c-5.5,0-9.4-3.8-9.4-9c0-5.1,4.2-9.1,9.603-9
		C1207.7,1155,1210.7,1158.1,1210.6,1164.1z"/>
	<path fill="#B0ADA1" d="M858.6,1065.6c0,4.9-4.197,9.4-8.6,9.303c-4.5-0.103-9.4-5-9.4-9.5c0-5.2,4.303-9.603,9.2-9.5
		C854.8,1056.2,858.6,1060.3,858.6,1065.6z"/>
	<path fill="#B0ADA1" d="M1165.6,1065.6c-0.1-5.397,4-9.697,9.103-9.6c4.8,0,8.897,4.2,8.897,9.2c0.103,5.397-3.897,9.7-9,9.6
		C1169.7,1074.8,1165.7,1070.7,1165.6,1065.6z"/>
	<path fill="#B0ADA1" d="M1210.6,1098c0,6.1-2.897,9-9,8.9c-5.897,0-9-3-9-8.5c0-5.303,4.103-9.5,9.103-9.4
		C1206.6,1089.1,1210.6,1093.2,1210.6,1098z"/>
	<path fill="#B0ADA1" d="M1183.6,1097.9c0,6.1-2.897,9.1-8.897,9.1s-9.103-2.8-9.103-8.4c-0.1-5.397,3.9-9.6,8.9-9.6
		S1183.6,1093,1183.6,1097.9z"/>
	<path fill="#B0ADA1" d="M1039.1,1107c-5.697,0-8.5-2.7-8.5-8.3c0-5.7,3.603-9.7,8.603-9.7c5.1,0.1,9.3,4,9.397,8.8
		C1048.8,1103.9,1045.6,1107,1039.1,1107z"/>
	<path fill="#B0ADA1" d="M1012.3,1107c-5.8,0-8.397-2.6-8.8-8.1c-0.5-6.9,3.3-9.603,8.4-9.7c6.3-0.2,9.197,3.1,9.6,9.399
		C1021.9,1103.9,1018.3,1107,1012.3,1107z"/>
	<path fill="#B0ADA1" d="M849.9,1107c-6.103,0-9.2-3-9.2-8.9c0-4.8,4.2-9.1,9.1-9.1c5.4,0,9,3.8,8.9,9.3
		C858.6,1104.1,855.6,1107,849.9,1107z"/>
	<path fill="#B0ADA1" d="M1210.6,1131.1c0,6-3,8.9-9.1,8.9c-5.8,0-9-3.4-8.9-9.3c0.103-4.603,4.2-8.7,8.9-8.7
		C1206.8,1121.9,1210.7,1125.8,1210.6,1131.1z"/>
	<path fill="#B0ADA1" d="M1237.6,1131.1c0,6.103-3,9-9.1,8.9c-5.1,0-8.8-3.7-8.9-8.8c-0.1-4.9,4.103-9.103,8.9-9.2
		C1234.4,1121.9,1237.7,1125.1,1237.6,1131.1z"/>
	<path fill="#B0ADA1" d="M795.8,1140c-6.2,1-9-4.4-9.2-9c-0.197-4.8,4.2-9.1,9-9c5.103,0,8.9,3.7,8.9,8.8
		C804.7,1137,801.8,1139.9,795.8,1140z"/>
	<path fill="#B0ADA1" d="M831.6,1131c0,6.1-3,9-9.1,9c-5.1,0-8.8-3.7-8.9-8.8c-0.1-4.9,4-9.2,8.9-9.2
		C828.4,1121.9,831.6,1125.1,831.6,1131z"/>
	<path fill="#B0ADA1" d="M858.6,1131.1c0,6-3,8.9-9.1,8.9c-5.1,0-8.8-3.7-8.9-8.8c-0.1-4.9,4.103-9.103,8.9-9.2
		C855.5,1122,858.7,1125.2,858.6,1131.1z"/>
	<path fill="#B0ADA1" d="M912.6,1131.5c0,5.6-3,8.5-8.897,8.5c-4.603,0-9-4-9.103-8.3c-0.1-5.2,4-9.603,9-9.7
		C909.8,1122,912.6,1125,912.6,1131.5z"/>
	<path fill="#B0ADA1" d="M1003.6,1131.2c0-6.2,2.803-9.103,8.803-9.2c5-0.1,9.1,4.2,9.197,9.4c0,4.5-4.397,8.6-9.397,8.6
		C1006.5,1139.9,1003.6,1137,1003.6,1131.2z"/>
	<path fill="#B0ADA1" d="M1039.8,1140c-6.1,0-9.1-2.9-9.1-8.9c0-5.897,3.2-9.1,9.1-9.1c4.8,0,9,4.3,8.9,9.2
		C1048.5,1136.3,1044.8,1140,1039.8,1140z"/>
	<path fill="#B0ADA1" d="M1237.6,1098.2c0,6-3,8.8-9.197,8.8c-5.603,0-8.7-3.2-8.803-8.9c-0.1-4.8,4.2-9.1,9-9.1
		C1234,1089,1237.7,1092.8,1237.6,1098.2z"/>
	<path fill="#B0ADA1" d="M1093.7,1107c-6.103,0-9-2.9-9.103-8.9c0-4.6,4-9,8.4-9.1c5.5-0.1,9.6,4,9.6,9.5
		C1102.7,1104,1099.6,1107,1093.7,1107z"/>
	<path fill="#B0ADA1" d="M1120.7,1107c-6,0-9.103-2.9-9.103-8.5c0-5.3,4.103-9.6,9.2-9.5c4.9,0.1,8.8,4.2,8.8,9.3
		C1129.7,1104,1126.6,1107,1120.7,1107z"/>
	<path fill="#B0ADA1" d="M1147.4,1107c-5.803,0-8.9-3.1-8.803-8.8c0.103-5.103,4.103-9.2,9-9.2c5.103,0,9.103,4.2,9,9.6
		C1156.6,1104.2,1153.4,1107,1147.4,1107z"/>
	<path fill="#B0ADA1" d="M1237.6,1163.9c0,6-2.897,9.1-8.5,9c-5.3,0-9.6-4.103-9.5-9.2c0.103-4.9,4.2-8.8,9.4-8.8
		C1234.6,1154.9,1237.6,1158,1237.6,1163.9z"/>
	<path fill="#B0ADA1" d="M831.6,1164.1c0,5.9-3,9-8.6,8.9c-5.1,0-9.3-3.9-9.4-8.8c-0.1-5.103,4.103-9.2,9.5-9.2
		C828.7,1155,831.6,1158.1,831.6,1164.1z"/>
	<path fill="#B0ADA1" d="M858.6,1163.9c0,6-2.897,9.1-8.5,9c-5.3,0-9.6-4.103-9.5-9.2c0.103-4.9,4.2-8.8,9.4-8.8
		C855.6,1154.9,858.6,1158,858.6,1163.9z"/>
	<path fill="#B0ADA1" d="M1003.6,1163.8c0-5.897,3.103-8.897,8.7-8.897c5.103,0.1,9.2,4,9.3,8.897
		c0.103,5.103-4.197,9.103-9.6,9.103C1006.5,1173,1003.6,1169.8,1003.6,1163.8z"/>
	<path fill="#B0ADA1" d="M1237.6,1032.5c0,5.3-4,9.5-9,9.5c-4.8,0-9.1-4.3-9-9.1c0.103-6.2,3-8.9,9.7-8.803
		C1234.9,1024,1237.6,1026.8,1237.6,1032.5z"/>
	<path fill="#B0ADA1" d="M1210.6,1033c0,4.8-4.197,9-9,9c-5,0-9.1-4.3-9-9.6c0-5.7,3.2-8.4,9.603-8.4
		C1207.8,1024,1210.6,1027,1210.6,1033z"/>
	<path fill="#B0ADA1" d="M1066.6,991c5.9,0,9.103,3.2,9,9.1c-0.1,4.9-4.397,9-9.197,8.9c-5.103-0.1-8.803-3.9-8.803-9
		C1057.6,993.9,1060.5,991,1066.6,991z"/>
	<path fill="#B0ADA1" d="M1120.4,991c6,0,9.197,2.8,9.197,8.4c0.103,5.397-3.897,9.697-9,9.6c-4.897,0-8.897-4.1-9-9.2
		C1111.5,994.1,1114.6,991,1120.4,991z"/>
	<path fill="#B0ADA1" d="M1147.9,991c5.8,0.1,8.897,3.1,8.8,8.8c-0.101,5.103-4.101,9.2-9,9.2c-5.101,0-9.101-4.2-9-9.6
		C1138.7,993.8,1141.9,990.9,1147.9,991z"/>
	<path fill="#B0ADA1" d="M1174.5,991c6,0,9.1,2.9,9.1,8.4c0,5.397-4,9.6-9.1,9.6c-4.9-0.1-8.8-4.1-8.9-9.3
		C1165.6,994.1,1168.6,991,1174.5,991z"/>
	<path fill="#B0ADA1" d="M1066.4,958c5.397,0,9.197,3.6,9.197,9c0,4.8-4.197,9.1-9.1,9c-5.7,0-8.9-3.2-8.9-8.7
		C1057.6,961.1,1060.4,958,1066.4,958z"/>
	<path fill="#B0ADA1" d="M1228.6,958c6.103,0,9,2.9,9,9c0,5.8-3.3,9.1-9.197,9c-4.603-0.1-8.7-4.2-8.803-8.8
		C1219.5,961.9,1223.4,958,1228.6,958z"/>
	<path fill="#B0ADA1" d="M1093.7,958c5.8,0,9,3.5,8.897,9.3c-0.1,4.603-4.3,8.7-8.897,8.7c-5.3,0.1-9.103-3.8-9.103-9.1
		C1084.7,960.9,1087.6,958,1093.7,958z"/>
	<path fill="#B0ADA1" d="M1201.4,958c6.197-0.1,9.197,2.8,9.197,8.8c0,5.4-3.6,9.2-9,9.2c-4.8,0-9-4.3-9-9.1
		C1192.7,961.2,1195.8,958,1201.4,958z"/>
	<path fill="#B0ADA1" d="M1174.8,958c6,0,8.9,3,8.8,9.2c0,5.1-3.8,8.8-8.897,8.8c-4.8,0.1-9.103-4.2-9.103-9
		C1165.6,961.1,1168.8,958,1174.8,958z"/>
	<path fill="#B0ADA1" d="M1156.6,966.6c0,5.303-4.197,9.5-9.3,9.4c-4.8-0.1-8.7-4.3-8.7-9.4c0-5.6,3.103-8.6,9-8.6
		C1153.6,958,1156.7,961,1156.6,966.6z"/>
	<path fill="#B0ADA1" d="M876.6,1140c-4.6,0-9-4.2-8.897-8.6c0.1-5.103,4-9.303,8.8-9.4c6.1-0.1,9.2,2.9,9.2,9
		C885.6,1137.1,882.7,1140,876.6,1140z"/>
	<path fill="#B0ADA1" d="M1175.3,1024c5.3,0,8.3,3.2,8.3,8.7c-0.1,5.1-4,9.2-8.897,9.3c-5,0.1-9.103-4.3-9.103-9.6
		C1165.7,1026.7,1168.8,1024,1175.3,1024z"/>
	<path fill="#B0ADA1" d="M1201.7,991c6.1,0,9,3,9,9.1c0,4.9-4.2,8.9-9.103,8.9c-4.697-0.1-8.8-4.2-8.897-8.8
		C1192.5,994.3,1195.8,991,1201.7,991z"/>
	<path fill="#B0ADA1" d="M1237.6,1000.1c0,5.103-4,9.103-8.8,8.9c-5.1-0.2-9.2-4.1-9.2-8.9c-0.1-5.897,3.103-9.1,9.103-9.1
		C1234.8,991,1237.7,994,1237.6,1000.1z"/>
	<path fill="#B0ADA1" d="M885.6,1163.9c0,6-2.897,9.1-8.5,9.1c-5.1,0-9.6-4-9.5-8.6c0.103-5.303,4.103-9.303,9.303-9.4
		C882.6,1154.9,885.6,1158,885.6,1163.9z"/>
	<path fill="#B0ADA1" d="M885.6,1065.8c0,4.7-4.197,9.3-8.3,9.103c-5.1-0.303-9.5-4.5-9.7-9.2c-0.1-4.9,4.5-9.8,9.2-9.603
		C881.9,1056.1,885.7,1060.4,885.6,1065.8z"/>
	<path fill="#B0ADA1" d="M831.6,1098c0,6.1-3,8.7-9.1,9.1c-5.8,0.4-8.6-4.397-8.9-8.897c-0.197-4.9,4.103-9.2,9-9.2
		C827.5,1089,831.6,1093.1,831.6,1098z"/>
	<path fill="#B0ADA1" d="M1066.7,1107c-6.2,0-9.103-2.9-9.103-9c0-4.6,4.103-9,8.5-9c5.303,0,9.7,4.2,9.5,9.2
		C1075.4,1102.7,1072.5,1107.9,1066.7,1107z"/>
	<path fill="#B0ADA1" d="M912.6,1164.1c0,5.9-3,9-8.697,8.9c-5.103,0-9.2-4-9.303-8.8c-0.1-5,4.2-9.2,9.5-9.2
		C909.7,1155,912.7,1158.1,912.6,1164.1z"/>
</g>
<g>
	<path fill="#81BE41" d="M931,943c-5.2,0-9.6-4.3-9.4-9.2c0.2-5.1,4.5-8.897,9.803-8.8c4.8,0.1,9.5,4.1,9,8.5
		C939.9,939.5,937.1,943.1,931,943z"/>
	<path fill="#81BE41" d="M931,976c-5.2-0.1-9.6-4.4-9.3-9.3c0.3-4.9,4.397-8.7,9.3-8.7c5.2,0.1,9.6,3.8,9.7,8.4
		C940.7,971.8,936.4,976.1,931,976z"/>
	<path fill="#81BE41" d="M831.6,1065.2c0,5.2-3.8,9.6-8.397,9.7c-5.3,0.1-9.7-4.2-9.603-9.603c0-5.2,4.4-9.6,9.303-9.3
		C827.8,1056.2,831.7,1060.4,831.6,1065.2z"/>
	<path fill="#81BE41" d="M958.6,1140c-5.5,0-10.1-4-9.897-8.7c0.2-5.3,4.2-9.3,9.397-9.3c5.303,0,9.603,4.1,9.5,9.1
		C967.6,1135.9,963.4,1140,958.6,1140z"/>
	<path fill="#81BE41" d="M1030.6,1000.2c-0.1-6.103,2.7-8.9,8.2-9.3c6.601-0.603,9.4,3.6,9.8,9c0.303,4.8-4.1,9.1-9,9.1
		C1033.9,1009,1030.7,1005.8,1030.6,1000.2z"/>
	<path fill="#81BE41" d="M957.7,1056c4.8,0,9.897,4.6,9.897,9c0,4.7-4.6,9.8-8.897,9.9c-4.603,0.1-10.2-5.2-10-9.603
		C948.8,1060.9,953.7,1056,957.7,1056z"/>
	<path fill="#81BE41" d="M1066.7,1056c4.8,0.1,9,4.4,8.897,9.2c-0.1,5.3-4.3,10.1-9.1,9.5c-5.1-0.603-9.7-3.4-9-9.9
		C1058.1,1060.2,1062,1055.9,1066.7,1056z"/>
	<path fill="#81BE41" d="M1156.6,1065.6c0,5.303-4.197,9.5-9.197,9.303c-5-0.2-8.7-4.2-8.803-9.303c0-5.3,3.9-9.6,9-9.6
		C1152.6,1056,1156.7,1060.3,1156.6,1065.6z"/>
	<path fill="#81BE41" d="M795.6,925c6.103,0,9.103,2.9,9.103,9c0,5.9-2.9,9-8.5,9c-5.3,0-9.603-4.1-9.5-9.2
		C786.7,928.7,790.4,925,795.6,925z"/>
	<path fill="#81BE41" d="M958.1,976c-4.897,0-9.897-4.3-9.397-8.7c0.8-5.897,3.3-9.2,9.2-9.3c5.3-0.1,9.6,3.9,9.697,8.9
		C967.7,971.9,963.4,976,958.1,976z"/>
	<path fill="#81BE41" d="M885.6,999.6c0,6-3,9.303-8.397,9.303c-5.4,0.1-10-4.2-9.5-9.603c0.5-5,2.897-9,9.8-8.5
		C883,991.3,885.7,993.8,885.6,999.6z"/>
	<path fill="#81BE41" d="M876.5,958c6.1,0,9.1,2.9,9.1,8.9c0,5.897-2.897,9.1-8.397,9.1c-5.4,0-9.603-3.9-9.603-9
		C867.6,962.1,871.7,958,876.5,958z"/>
	<path fill="#81BE41" d="M759.6,1065.7c-0.1-5.4,4-9.7,9-9.7c4.803,0,8.9,4.2,9,9.2c0.103,5.397-3.8,9.7-8.897,9.7
		C763.8,1074.9,759.7,1070.7,759.6,1065.7z"/>
	<path fill="#81BE41" d="M786.6,1065.6c0-5.3,4.103-9.697,9.103-9.6c4.897,0.1,8.8,4.3,8.897,9.3c0.103,5.4-4,9.7-9.1,9.5
		C790.6,1074.7,786.7,1070.6,786.6,1065.6z"/>
	<path fill="#81BE41" d="M931.6,1074.9c-4.897,0-9.897-4.7-9.897-9.4c0-4.2,4.8-9.4,8.897-9.5c4.803-0.1,9.9,4.6,10,9.3
		C940.7,1069.3,935.4,1074.9,931.6,1074.9z"/>
	<path fill="#81BE41" d="M976.6,1065.6c0-6.197,3.103-9.6,8.603-9.6c4.5,0.1,9.397,5,9.397,9.5c0,4.3-4.697,9.3-8.897,9.4
		C980.8,1075,976.6,1070.8,976.6,1065.6z"/>
	<path fill="#81BE41" d="M1102.6,1065.7c-0.1,5-4.197,9.2-9,9.2c-5.1,0-9-4.303-9-9.7c0.103-5,4.103-9.2,9-9.2
		C1098.7,1056,1102.7,1060.3,1102.6,1065.7z"/>
	<path fill="#81BE41" d="M1111.6,1065.4c0-5.303,4.303-9.7,9.303-9.4s8.697,4.4,8.697,9.5c0,5.2-4.397,9.7-9.3,9.4
		C1115.3,1074.6,1111.6,1070.6,1111.6,1065.4z"/>
	<path fill="#81BE41" d="M931.1,1042c-4.3,0-9.397-4.8-9.5-8.9c-0.197-5.697,3.4-9.1,9.603-9.1c5,0,9.5,4.1,9.397,8.6
		C940.5,1037.1,935.6,1042,931.1,1042z"/>
	<path fill="#81BE41" d="M885.6,1098.3c0,5.8-2.6,8.4-8.1,8.8c-6.9,0.5-9.6-3.3-9.7-8.397c-0.2-6.3,3.103-9.2,9.4-9.603
		C882.6,1088.8,885.6,1092.4,885.6,1098.3z"/>
	<path fill="#81BE41" d="M804.6,1097.9c0,6.1-2.897,9.1-8.897,9.1c-5.9,0-9.103-2.9-9.103-8.4c0-5.397,3.9-9.6,8.9-9.6
		S804.6,1093,804.6,1097.9z"/>
	<path fill="#81BE41" d="M804.6,868.1c0,6.103-2.897,9-9.1,8.9c-5.9,0-9-3-8.9-8.6c0-5.303,4.103-9.5,9.103-9.4
		C800.6,859.1,804.6,863.2,804.6,868.1z"/>
	<path fill="#81BE41" d="M985.4,1140c-6-0.1-8.803-3-8.7-9.1c0.1-5.9,3.1-8.9,8.7-8.9c5.197,0.1,9.6,4.4,9.3,9.3
		C994.4,1136.2,990.2,1140,985.4,1140z"/>
	<path fill="#81BE41" d="M768.6,1107c-5.897,0-9-3-8.897-8.6c0-5.103,3.897-9.303,8.8-9.4c5.1-0.1,9.2,4.1,9.2,9.5
		C777.6,1104.1,774.5,1107,768.6,1107z"/>
	<path fill="#81BE41" d="M958.1,1107c-5,0-9.5-4.1-9.5-8.6c0.103-4.5,5.103-9.5,9.5-9.4c4.7,0,9.303,4.4,9.4,8.9
		C967.7,1102.9,963.4,1107,958.1,1107z"/>
	<path fill="#81BE41" d="M831.6,867.9c0,6.1-2.897,9.1-8.897,9.1c-5.9,0-9.103-3.2-9.103-9.1c0-4.9,4.303-9,9.2-8.9
		C828,859.1,831.6,862.8,831.6,867.9z"/>
	<path fill="#81BE41" d="M796.1,844c-6.397,0-9.5-2.8-9.5-8.5c0-5.3,4.2-9.6,9.2-9.5c4.8,0.1,8.9,4.3,8.8,9.1
		C804.6,841.1,801.8,844,796.1,844z"/>
	<path fill="#81BE41" d="M912.6,901.7c0,5.5-3.1,8.3-9.1,8.3c-4.8,0-9-4.3-8.9-9.1c0-5,4.303-9,9.7-8.9
		C910,892.1,912.7,895.2,912.6,901.7z"/>
	<path fill="#81BE41" d="M885.6,901c0,6.1-2.897,9-9,9c-4.6,0-8.897-4.1-9-8.5c0-5.5,4.103-9.6,9.5-9.5
		C882.7,892,885.6,895.1,885.6,901z"/>
	<path fill="#81BE41" d="M858.6,901.2c0,6-3,8.897-9.197,8.8c-4.803,0-8.9-4.2-8.803-9.1c0-4.803,4.303-9,9.2-8.9
		C855.8,892.1,858.7,895.1,858.6,901.2z"/>
	<path fill="#81BE41" d="M831.6,901c0,6.1-2.897,9-9,9c-5.3,0-9.1-3.9-8.897-9.3c0.1-4.603,4.2-8.7,8.897-8.7
		C828.4,891.9,831.6,895.1,831.6,901z"/>
	<path fill="#81BE41" d="M769.4,991c5.397,0.2,8.397,3.3,8.3,8.8c-0.103,5.3-4.4,9.4-9.5,9.2c-5-0.2-8.7-4.7-8.5-10.2
		C759.9,993.5,763.2,990.8,769.4,991z"/>
	<path fill="#81BE41" d="M795.5,991c6.1,0,9.1,2.9,9.1,8.9c0,4.897-4,9-8.8,9.1c-4.897,0.1-9.1-4-9.2-8.9
		C786.6,994.1,789.6,991,795.5,991z"/>
	<path fill="#81BE41" d="M822.7,991c6.1,0,9,2.9,9,9c0,5.3-3.9,9.1-9.3,9c-4.603-0.1-8.7-4.2-8.7-8.9
		C813.6,994.2,816.8,991,822.7,991z"/>
	<path fill="#81BE41" d="M849.7,991c6.1,0,9,2.9,9,9.1c0,5.603-3.4,9.103-8.7,8.9c-5.1-0.2-9.2-4.1-9.3-8.9
		C840.6,994.2,843.8,991,849.7,991z"/>
	<path fill="#81BE41" d="M931.1,991c5,0,9.5,4,9.5,8.5s-5,9.5-9.5,9.5c-4.697,0-9.3-4.3-9.5-8.9C921.5,995.2,925.9,991,931.1,991z"
		/>
	<path fill="#81BE41" d="M1003.6,999.3c0-5.6,2.803-8.3,8.5-8.3c5.603,0,9.7,3.7,9.5,8.7c-0.197,5.3-4.197,9.2-9.397,9.3
		C1006.6,1009,1003.6,1005.6,1003.6,999.3z"/>
	<path fill="#81BE41" d="M1093.2,1024c6.3,0,9.397,2.9,9.397,8.6c0,5.2-4.3,9.603-9.197,9.4c-4.803-0.2-8.803-4.3-8.803-9.2
		C1084.7,1026.9,1087.5,1024,1093.2,1024z"/>
	<path fill="#81BE41" d="M1066.3,1024c6.3,0,9.4,2.9,9.3,8.7c-0.1,5-4,9.1-8.8,9.3c-4.897,0.1-9.2-4.2-9.2-9.3
		C1057.7,1026.9,1060.6,1024,1066.3,1024z"/>
	<path fill="#81BE41" d="M958.2,1042c-4.5,0-9.4-4.8-9.5-9.4c-0.103-4.397,4.397-8.6,9.3-8.6c6.1,0,9.7,3.1,9.6,8.5
		C967.6,1037,962.6,1042,958.2,1042z"/>
	<path fill="#81BE41" d="M985.4,958c4.897,0,9,3.9,9.197,8.8c0.2,4.9-4.197,9.2-9.397,9.2c-5.603,0-8.5-3-8.603-8.9
		C976.6,961,979.4,958,985.4,958z"/>
	<path fill="#81BE41" d="M912.6,966.6c0,6.303-2.8,9.5-8.6,9.4c-5.2,0-9.6-4.3-9.4-9.2c0.2-4.8,4.303-8.8,9.2-8.8
		C909.7,958,912.6,960.9,912.6,966.6z"/>
	<path fill="#81BE41" d="M831.6,966.9c0,5.897-3.197,9.1-9.1,9c-4.9-0.103-9-4.303-8.9-9.2c0.103-5.103,3.803-8.8,8.9-8.8
		C828.7,958,831.6,960.9,831.6,966.9z"/>
	<path fill="#81BE41" d="M795.4,958c6.197-0.1,9.197,2.8,9.197,8.8c0,5.4-3.6,9.2-9,9.2c-4.8,0-9-4.3-9-9.1
		C786.7,961.2,789.8,958,795.4,958z"/>
	<path fill="#81BE41" d="M912.6,1065.3c0,4.8-3.697,9.4-7.897,9.5c-4.9,0.2-10-4.397-10.103-9.2c-0.197-4.5,4.9-9.8,9.103-9.697
		C909.6,1056.1,912.6,1059.3,912.6,1065.3z"/>
	<path fill="#81BE41" d="M885.6,933.7c0.103,6-2.8,9.2-8.3,9.2c-5.397,0.1-9.7-3.9-9.7-9c0-4.9,4-8.9,9.2-9
		C882.5,924.9,885.6,927.9,885.6,933.7z"/>
	<path fill="#81BE41" d="M858.6,933.7c0.103,6-2.8,9.2-8.3,9.2c-5.397,0.1-9.7-3.9-9.7-9c0-4.9,4-8.9,9.2-9
		C855.5,924.9,858.6,927.9,858.6,933.7z"/>
	<path fill="#81BE41" d="M831.6,934.1c0,5.9-3.1,8.9-8.697,8.9c-5.103-0.1-9.2-4-9.303-8.9c-0.1-5.1,4.2-9.1,9.603-9.1
		C828.8,925,831.7,928.2,831.6,934.1z"/>
	<path fill="#81BE41" d="M1120.3,1024c6.4,0,9.4,2.9,9.3,8.8c-0.1,5-4.1,9.2-9,9.2c-5.1,0-9.1-4.3-9-9.7
		C1111.7,1026.9,1114.8,1024,1120.3,1024z"/>
	<path fill="#81BE41" d="M769.2,1024c5.397,0,8.5,3,8.5,8.5c0,5.3-4.2,9.7-9.2,9.5c-4.9-0.2-8.8-4.3-8.8-9.4
		C759.6,1026.8,762.7,1024,769.2,1024z"/>
	<path fill="#81BE41" d="M786.6,1032.5c0-5.7,3.103-8.5,9.603-8.5c5.397,0,8.397,3.1,8.397,8.6c0,5.103-3.897,9.2-8.8,9.4
		C790.9,1042.2,786.6,1037.8,786.6,1032.5z"/>
	<path fill="#81BE41" d="M822.9,1024c5.897,0,8.8,3,8.8,9.1c0,4.7-4.3,8.9-9.103,8.9c-4.6-0.1-8.8-4.1-8.897-8.7
		C813.5,1027.1,816.5,1024,822.9,1024z"/>
	<path fill="#81BE41" d="M850.1,1024c5.9,0,8.603,2.7,8.603,8.7c0,5-4.103,9.397-8.603,9.3c-5.197-0.1-9.197-4-9.397-9.3
		C840.5,1027.2,844,1024,850.1,1024z"/>
	<path fill="#81BE41" d="M822.8,844c-6.2,0-9.1-2.8-9.2-8.9c-0.1-4.8,4.2-9.1,9-9.1c4.803,0,9,4.2,9,8.9
		C831.6,841.1,828.8,844,822.8,844z"/>
	<path fill="#81BE41" d="M912.6,1032.4c0,6.197-3.1,9.6-8.6,9.6c-4.5-0.1-9.4-5-9.4-9.5c0-5.5,3.4-8.5,9.7-8.5
		C909.9,1024,912.6,1026.7,912.6,1032.4z"/>
	<path fill="#81BE41" d="M1003.6,967.1c0-6.197,2.9-9.1,9-9.1c4.7,0,9,4.1,9,8.5c0,5.1-3.897,9.4-8.697,9.5
		C1006.8,976.2,1003.7,973.1,1003.6,967.1z"/>
	<path fill="#81BE41" d="M795.8,910c-5.397,0-9.2-3.6-9.2-9c0-4.8,4.303-9,9.103-9c5.1,0,8.897,3.8,8.897,8.8
		C804.7,907,801.8,910,795.8,910z"/>
	<path fill="#81BE41" d="M1030.6,966.9c0-6.103,3-8.9,9.2-8.9c4.8,0,8.9,4.3,8.8,9.2c-0.1,4.7-4.197,8.7-8.897,8.8
		C1033.8,976.1,1030.6,972.9,1030.6,966.9z"/>
	<path fill="#81BE41" d="M858.6,967c0,5.9-3.3,9.1-9.197,9c-4.603-0.1-8.7-4.2-8.803-8.9c-0.1-4.897,4-9.1,8.9-9.1
		C855.7,958,858.6,960.9,858.6,967z"/>
	<path fill="#81BE41" d="M958.3,991c5,0,9.103,3.9,9.3,8.7c0.2,4.6-4.6,9.3-9.6,9.3c-4.3-0.1-9.7-5-9.2-9.1
		C949.4,994.6,953,989.8,958.3,991z"/>
	<path fill="#81BE41" d="M976.6,999.7c0-6,2.603-8.7,8.5-8.7c5,0,9.7,4,9.4,8.5c-0.4,6.2-3.2,9.1-9.6,9.5
		C979.6,1009.2,976.7,1005.6,976.6,999.7z"/>
	<path fill="#81BE41" d="M1003.6,1065.5c0-5.3,4.103-9.6,9.103-9.5c4.5,0.1,8.897,4.7,8.897,9.4c0,4.3-4.697,9.697-8.897,9.397
		C1007.4,1074.4,1002.4,1070.6,1003.6,1065.5z"/>
	<path fill="#81BE41" d="M1048.6,1065.6c-0.1,4.303-5.1,9.7-9.1,9.2c-5.1-0.7-9.7-3.3-9-10c0.5-4.7,4.7-9,9.4-8.8
		C1044.6,1056.3,1048.7,1060.9,1048.6,1065.6z"/>
	<path fill="#81BE41" d="M931.1,1107c-5.197,0-9.6-4.2-9.397-9.1c0.1-4.5,4.7-8.9,9.5-8.9c4.3,0,9.7,4.8,9.3,9
		C940,1103.3,936.3,1108.2,931.1,1107z"/>
	<path fill="#81BE41" d="M904.2,1107c-5,0-9.8-3.9-9.5-8.4c0.397-6.397,3.3-9.197,9.397-9.6c5.5-0.4,8.5,3.3,8.5,9.6
		C912.6,1104.3,909.9,1107,904.2,1107z"/>
	<path fill="#81BE41" d="M976.6,1032.4c0-5.9,2.7-8.4,8.803-8.4c5.8,0,9.197,3.1,9.197,8.5c0,4.3-4.8,9.4-8.897,9.5
		C980,1042.1,976.6,1038.6,976.6,1032.4z"/>
	<path fill="#81BE41" d="M1039.1,1024c6.103,0,9.603,3.2,9.5,8.7c-0.1,5-4,9.2-8.8,9.3c-5.1,0.2-9.2-4.2-9.2-9.8
		C1030.7,1026.7,1033.4,1024,1039.1,1024z"/>
	<path fill="#81BE41" d="M1156.6,1032.7c0,5.1-4,9.2-8.8,9.3c-5,0.1-9.2-4.2-9.2-9.5c0-5.6,3.103-8.5,9.103-8.5
		C1153.6,1024,1156.7,1027,1156.6,1032.7z"/>
	<path fill="#81BE41" d="M985,1107c-5.9,0-8.4-2.7-8.4-8.8c0-5.8,3.103-9.2,8.5-9.2c5.2,0,9.603,4.2,9.5,9.1
		C994.5,1103.1,990.3,1107,985,1107z"/>
	<path fill="#81BE41" d="M904.1,991c5.9,0,8.5,2.7,8.5,8.7c0,5.897-3,9.2-8.397,9.3c-5.2,0.1-9.603-4.1-9.603-9
		C894.7,995,898.9,991,904.1,991z"/>
	<path fill="#81BE41" d="M877.1,1024c5.9,0,8.5,2.7,8.5,8.7c0,5-4.1,9.397-8.6,9.3c-5-0.1-9.3-4.3-9.4-9.3
		C867.5,1027.2,871,1024,877.1,1024z"/>
	<path fill="#81BE41" d="M976.6,1163.9c0-5.9,3-9,8.7-8.9c5.103,0.1,9.2,4,9.3,8.8c0.103,5-4.197,9.2-9.5,9.2
		C979.5,1173,976.6,1169.9,976.6,1163.9z"/>
	<path fill="#81BE41" d="M912.6,934.7c-0.197,5.397-3.3,8.397-8.8,8.3c-5-0.1-9.2-4.2-9.2-9c0-5.2,4.5-9.2,10.2-9
		C910.1,925.2,912.8,928.6,912.6,934.7z"/>
	<path fill="#81BE41" d="M1003.6,1032.5c0-5.7,2.7-8.5,8.303-8.5c6.3,0,9.697,3,9.697,8.6c0,4.7-4.397,9.303-8.897,9.4
		C1007.8,1042.1,1003.6,1037.7,1003.6,1032.5z"/>
</g>
<rect x="1512.5" y="1912" fill="none" width="364" height="88"/>
<text transform="matrix(1 0 0 1 1512.5 1957.1191)" fill="#81BE41" font-family="'MyriadPro-Regular'" font-size="52">System Area (0.5 mi</text>
<text transform="matrix(0.583 0 0 0.583 1937.2812 1939.8027)" fill="#81BE41" font-family="'MyriadPro-Regular'" font-size="52">2</text>
<text transform="matrix(1 0 0 1 1952.833 1957.1191)" fill="#81BE41" font-family="'MyriadPro-Regular'" font-size="52">)</text>
<path fill="#81BE41" d="M1470.5,1941c0-6.102,2.898-9,9.1-8.9c5.9,0,9,3,8.9,8.5c0,5.5-3.7,9.4-8.9,9.5S1470.5,1946.3,1470.5,1941z"
	/>
</svg>
