<?xml version="1.0" encoding="utf-8"?>
<!-- Generator: Adobe Illustrator 16.0.0, SVG Export Plug-In . SVG Version: 6.00 Build 0)  -->
<!DOCTYPE svg PUBLIC "-//W3C//DTD SVG 1.1//EN" "http://www.w3.org/Graphics/SVG/1.1/DTD/svg11.dtd">
<svg version="1.1" id="Layer_2_copy" xmlns="http://www.w3.org/2000/svg" xmlns:xlink="http://www.w3.org/1999/xlink" x="0px"
	 y="0px" width="2000px" height="2000px" viewBox="0 0 2000 2000" enable-background="new 0 0 2000 2000" xml:space="preserve">
<g>
	<path fill="#81BE41" d="M646.2,179c-0.101,5.7-3.2,8.7-8.9,8.6c-5.399-0.1-9.2-4-9.1-9.2c0.1-5.3,3.899-8.8,9.399-8.8
		C643.5,169.7,646.3,172.7,646.2,179z"/>
	<path fill="#81BE41" d="M646.2,145.9c-0.101,6-3.101,8.8-9.3,8.7c-5.7-0.1-8.801-3.3-8.7-8.9c0.1-5.1,4.1-9.1,9-9.1
		C642.6,136.6,646.2,140.4,646.2,145.9z"/>
	<path fill="#81BE41" d="M646.2,112.7c0,6.1-2.9,9-9,8.9c-5.9,0-9-3-9-8.5c0-5.3,4.1-9.5,9.1-9.4
		C642.2,103.7,646.2,107.8,646.2,112.7z"/>
	<path fill="#81BE41" d="M691.4,121.6c-6.101,0.9-9-4.1-9.2-8.9c-0.2-4.8,4.1-9.1,9-9.1c5.2,0,8.899,3.6,9,8.7
		C700.3,118.5,697.4,121.6,691.4,121.6z"/>
	<path fill="#81BE41" d="M700.2,145.5c0,6.1-2.9,9.1-8.9,9.1c-5.3,0-9.2-3.8-9.1-9.1c0.1-4.6,4.1-8.7,8.7-8.9
		C696.8,136.5,700.2,139.7,700.2,145.5z"/>
	<path fill="#81BE41" d="M673.2,145.8c0,6-3,8.8-9.2,8.8c-5,0-8.7-3.8-8.8-8.9c0-4.8,4.2-9.2,9-9
		C668.8,136.8,674.1,139.6,673.2,145.8z"/>
	<path fill="#81BE41" d="M664.7,88.6c-6.4,0-9.5-2.8-9.601-8.5c0-5.3,4.101-9.6,9.101-9.5c4.8,0.1,8.899,4.2,8.899,9.1
		C673.2,85.6,670.3,88.6,664.7,88.6z"/>
	<path fill="#81BE41" d="M673.2,178.6c0,5.9-3,9-8.601,9c-5.1,0-9.3-3.9-9.399-8.8c-0.101-5.1,4.1-9.2,9.399-9.2
		C670.3,169.6,673.2,172.7,673.2,178.6z"/>
	<path fill="#81BE41" d="M673.2,112.8c0,6-3.101,8.9-9.3,8.8c-5.601-0.1-8.7-3.3-8.7-9c0-4.9,4.3-9.1,9.2-9
		C669.3,103.7,673.2,107.8,673.2,112.8z"/>
	<path fill="#81BE41" d="M1160.8,1198.2c0,6-3,8.8-9.2,8.8c-5.8,0-8.899-3.1-8.8-8.7c0.101-5.399,3.8-9.3,9-9.3
		C1157.1,1189,1160.8,1192.8,1160.8,1198.2z"/>
	<path fill="#81BE41" d="M1575.8,1592.3c0-5.1,4-9.2,8.8-9.399c5-0.101,9.2,4.199,9.2,9.5c0,5.1-4.3,9.6-8.8,9.399
		C1579.6,1601.6,1575.7,1597.6,1575.8,1592.3z"/>
	<path fill="#81BE41" d="M1341.4,1403.9c-5.101,0-9.4-3.801-9.601-8.301c-0.2-5,4.601-9.699,9.601-9.6c4.8,0.1,9.199,4.3,9.399,8.9
		C1350.9,1399.7,1346.5,1403.9,1341.4,1403.9z"/>
	<path fill="#81BE41" d="M1241.8,1231.2c-0.1,5.8-3.1,8.8-8.8,8.7c-5.3-0.101-9.4-4.2-9.2-9.301c0.2-4.8,4.3-8.699,9.3-8.699
		C1239,1222,1241.8,1225,1241.8,1231.2z"/>
	<path fill="#81BE41" d="M1160.8,1231.3c-0.1,5.2-3.8,8.8-8.899,8.7c-5.5-0.2-9.101-3.8-9.101-9.2c0-5.399,3.601-8.899,9.2-8.8
		C1157.3,1222,1160.8,1225.7,1160.8,1231.3z"/>
	<path fill="#81BE41" d="M1494.8,1526.8c0-6,3-8.899,9.101-8.899c5.899,0,8.899,3,8.899,8.6c0,5.3-4.2,9.5-9.2,9.4
		C1498.7,1535.9,1494.7,1531.7,1494.8,1526.8z"/>
	<path fill="#81BE41" d="M1187.8,1198.2c-0.1,6-3.1,8.8-9.3,8.7c-5.2-0.101-8.8-3.801-8.7-8.9c0.101-5,4.2-9.1,9-9.1
		C1184.1,1189,1187.8,1192.7,1187.8,1198.2z"/>
	<path fill="#81BE41" d="M1124.8,1206.9c-6.1,0-9-2.9-9-9c0-5.301,3.9-9.101,9.2-9c4.6,0.1,8.7,4.199,8.8,8.8
		C1133.9,1203.6,1130.6,1206.9,1124.8,1206.9z"/>
	<path fill="#81BE41" d="M1368,1370.9c-4.7,0-9.3-4.2-9.1-8.301c0.3-5.199,4.8-9.8,9.6-9.699c4.3,0.1,9.3,5,9.3,9.1
		C1377.7,1368,1374.4,1371,1368,1370.9z"/>
	<path fill="#81BE41" d="M1494.8,1493.7c0-6,3.101-8.8,9.2-8.8c5.6,0,8.7,3.199,8.8,8.899c0,4.8-4.2,9.101-9,9.101
		C1498.4,1502.9,1494.7,1499.2,1494.8,1493.7z"/>
	<path fill="#81BE41" d="M1395.8,1436.9c-6,0-9.1-2.801-9.1-8.301c0-6.5,2.7-9.6,8.3-9.699c5.3-0.101,9.6,3.899,9.7,8.899
		C1404.8,1432.7,1400.6,1436.9,1395.8,1436.9z"/>
	<path fill="#81BE41" d="M1413.8,1460.8c0-5.8,3.101-8.899,8.8-8.8c5.101,0.1,9.2,4,9.2,8.9c0,5.1-4.2,9.1-9.6,9.1
		C1416.6,1469.9,1413.7,1466.8,1413.8,1460.8z"/>
	<path fill="#81BE41" d="M1530.8,1517.9c5.9,0,9,3,9,8.6c0,5.1-3.899,9.3-8.8,9.4c-5.1,0.1-9.2-4.101-9.2-9.5
		C1521.8,1520.9,1524.9,1517.9,1530.8,1517.9z"/>
	<path fill="#81BE41" d="M1647.8,1559.6c0,5-4,9.4-8.6,9.4c-5.3,0-9.8-4.2-9.3-9.2c0.5-6,3.399-9.399,9.8-8.899
		C1645.1,1551.3,1647.8,1553.8,1647.8,1559.6z"/>
	<path fill="#81BE41" d="M1585.2,1550.9c5.5,0,8.5,2.899,8.6,8.399c0,5.3-4,9.7-9.1,9.601c-4.9-0.101-8.9-4.2-8.9-9.301
		C1575.7,1553.8,1578.8,1551,1585.2,1550.9z"/>
	<path fill="#81BE41" d="M1612.1,1550.9c5.7,0,8.601,2.899,8.601,8.699c0,5-4.3,9.4-9.2,9.2c-4.6-0.2-8.7-4.2-8.8-8.8
		C1602.7,1553.9,1605.7,1551,1612.1,1550.9z"/>
</g>
<path fill="#B3B3B3" d="M1377.7,1922.6c-0.601,5.101-5.3,9.7-9.5,9.301c-4.9-0.5-9.7-5.301-9.3-9.5c0.399-4.9,5.5-9.801,9.5-9.2
	C1373.8,1913.9,1378.2,1918.3,1377.7,1922.6z"/>
<path fill="#B3B3B3" d="M1386.8,1955.1c0-5.8,3.101-9.199,8.5-9.199c4.4,0,9.4,4.899,9.5,9.3c0.101,4.8-4.3,9.2-9.3,9.3
	C1390.5,1964.7,1386.7,1960.6,1386.8,1955.1z"/>
<path fill="#B3B3B3" d="M1413.8,1922.5c0-4.9,3.8-9.4,8-9.5c5-0.1,10,4.6,10,9.4c0,4.8-4.2,9.3-8.8,9.5
	C1418,1932.1,1413.8,1927.7,1413.8,1922.5z"/>
<path fill="#B3B3B3" d="M1386.8,1922.2c0-4.7,4.101-9.3,8.2-9.2c5.2,0.2,9.9,4.7,9.8,9.5c-0.1,4.3-4.899,9.3-9,9.4
	C1390.4,1931.9,1386.7,1928,1386.8,1922.2z"/>
<g opacity="0.7">
	<path fill="#AFACA1" d="M673.2,309.8c0,5.3-3.7,9.6-8.3,9.8c-5.301,0.2-9.7-4.1-9.7-9.5c0-5.2,4.3-9.6,9.2-9.4
		C669.2,300.8,673.2,304.9,673.2,309.8z"/>
	<path fill="#AFACA1" d="M420.5,169.6c5.3,0,9.6,3.9,9.6,9c0,5-4.3,9.1-9.6,9c-5,0-9.9-4.3-9.3-8.7
		C412.1,172.6,415.1,169.6,420.5,169.6z"/>
	<path fill="#AFACA1" d="M393.9,169.6c5,0.1,9.5,4.4,9.199,8.9c-0.3,5.5-4.199,9.1-9.399,9.1c-5.3,0-9.601-4.2-9.5-9.1
		C384.3,173.5,388.6,169.5,393.9,169.6z"/>
	<path fill="#AFACA1" d="M619.2,309.9c0.1,5.1-3.9,9.6-8.5,9.6c-5.2,0.1-9.4-3.9-9.5-9.1c-0.101-5.4,3.6-9.6,8.7-9.9
		C614.8,300.4,619.1,304.7,619.2,309.9z"/>
	<path fill="#AFACA1" d="M420.9,154.6c-5.2-0.1-9.601-3.9-9.7-8.4c-0.101-5.4,4.2-9.6,9.7-9.6c5,0.1,9.1,4,9.3,8.8
		C430.3,150.4,426,154.7,420.9,154.6z"/>
	<path fill="#AFACA1" d="M393.8,417.6c-5.3,0-9.6-3.899-9.6-9c0-5,4.3-9.1,9.6-9c5,0,9.9,4.301,9.3,8.7
		C402.3,414.6,399.3,417.6,393.8,417.6z"/>
	<path fill="#AFACA1" d="M420.5,417.6c-5-0.1-9.5-4.3-9.2-8.8c0.3-5.6,4.3-9.3,9.9-9.2c5,0.101,9.1,4.301,9,9.101
		C430.1,413.7,425.8,417.7,420.5,417.6z"/>
	<path fill="#AFACA1" d="M592.2,309.9c0.1,5.1-3.8,9.6-8.4,9.7c-5.2,0.1-9.399-3.9-9.6-9c-0.2-5.5,4-10.1,9.2-9.9
		C588.2,300.8,592.1,304.9,592.2,309.9z"/>
	<path fill="#AFACA1" d="M393.5,384.6c-5.1,0-9.5-4.4-9.3-9.2c0.2-4.7,4.3-8.7,8.899-8.8c5.101,0,10.5,4.3,10,8.7
		C402.4,380.6,399.4,385.7,393.5,384.6z"/>
	<path fill="#AFACA1" d="M421.2,384.6c-5.5,0-10.101-4-10-8.6c0.1-5.3,4.2-9.3,9.399-9.4c5.301,0,9.601,4,9.601,9
		C430.2,380.4,426,384.6,421.2,384.6z"/>
	<path fill="#AFACA1" d="M619.2,47.1c0,5.3-4.101,9.6-9.101,9.5s-9-4.4-8.899-9.7c0.1-4.8,3.899-9.5,8.3-9.2
		C615,38.2,619.2,40.5,619.2,47.1z"/>
	<path fill="#AFACA1" d="M430.1,310.4c-0.6,5.1-5.399,9.5-9.6,9c-5-0.6-9.7-5.5-9.3-9.7c0.399-4.7,5.8-9.6,9.8-9
		C426.1,301.4,430.7,306.3,430.1,310.4z"/>
	<path fill="#AFACA1" d="M393.8,154.6c-5.3,0-9.6-4-9.6-9s4.3-9,9.6-9c5,0,9.9,4.4,9.3,8.8C402.2,151.8,399,154.7,393.8,154.6z"/>
	<path fill="#AFACA1" d="M583.3,154.6c-6.1,0-9.1-2.9-9.1-9c0-5.3,3.899-9.1,9.2-9c4.8,0.1,8.699,4.3,8.8,9.4
		C592.2,151.6,589.2,154.6,583.3,154.6z"/>
	<path fill="#AFACA1" d="M393.6,319.6c-4.5-0.1-9.399-5-9.399-9.5c0-4.2,4.8-9.4,8.899-9.5c4.801-0.1,9.9,4.6,10.101,9.3
		C403.3,314.1,397.8,319.6,393.6,319.6z"/>
	<path fill="#AFACA1" d="M700.2,310c0,5-3.9,9.5-8.4,9.5c-5,0.1-9.7-4.7-9.6-9.7c0.2-5.1,4.1-9.2,8.899-9.2
		C696.1,300.6,700.2,304.8,700.2,310z"/>
	<path fill="#AFACA1" d="M565.2,310.1c0,4.9-4.3,9.9-8.7,9.4c-5.8-0.8-9.2-3.2-9.3-9.2c-0.101-5.3,3.899-9.6,8.899-9.7
		S565.2,304.8,565.2,310.1z"/>
	<path fill="#AFACA1" d="M520.2,309.8c0-4.9,4-9,8.8-9.2c4.7-0.2,9.2,4.2,9.2,8.9c0,5.4-4.5,10.5-9.3,9.8
		C523.5,318.7,519.1,315.3,520.2,309.8z"/>
	<path fill="#AFACA1" d="M556.2,187.6c-6.101,0-9-2.9-9-9.1c0-5.9,3-9,8.6-8.9c5.101,0,9.3,4,9.4,8.8
		C565.3,183.8,561.5,187.6,556.2,187.6z"/>
	<path fill="#AFACA1" d="M646.2,310.2c0,4.9-3.8,9.2-8.3,9.4c-5.301,0.2-9.801-4.2-9.7-9.6c0-5.1,4-9.2,8.899-9.3
		C642,300.5,646.2,304.9,646.2,310.2z"/>
	<path fill="#AFACA1" d="M727.2,244.2c0,6.4-3.2,9.6-9.3,9.4c-4.601-0.1-8.7-4.3-8.7-8.9c0-5.9,3.2-9.1,9.1-9.1
		C724.3,235.6,727.2,238.5,727.2,244.2z"/>
	<path fill="#AFACA1" d="M393.8,202.6c4.9,0,9.2,3.9,9.4,8.3c0.2,5.3-4.2,9.7-9.601,9.7c-5.1-0.1-9.199-4-9.3-8.9
		C384.1,206.7,388.5,202.6,393.8,202.6z"/>
	<path fill="#AFACA1" d="M664.4,417.6c-5.5,0-9.301-3.6-9.301-9c0-4.899,4.101-8.899,9.101-9c5.7-0.1,8.8,2.9,8.899,8.7
		C673.3,414.5,670.4,417.6,664.4,417.6z"/>
	<path fill="#AFACA1" d="M420.7,220.6c-5,0-10-4.2-9.4-8.6c0.7-5.6,2.8-9.2,9.101-9.3c5.3-0.1,9.6,3.8,9.699,8.8
		C430.3,216.4,426,220.6,420.7,220.6z"/>
	<path fill="#AFACA1" d="M439.2,211.2c0-5.7,2.899-8.6,8.7-8.6c4.899,0,9.399,4.2,9.3,8.7c-0.101,5.3-4.101,9.2-9.3,9.3
		C442.1,220.7,439.2,217.6,439.2,211.2z"/>
	<path fill="#AFACA1" d="M583.3,202.6c5.7,0,8.9,3.2,8.9,8.7c-0.101,5.1-3.9,9.2-8.8,9.3c-5.301,0.1-9.2-3.8-9.2-9.1
		C574.2,205.5,577.2,202.6,583.3,202.6z"/>
	<path fill="#AFACA1" d="M619.2,211.1c0,5.5-3.601,9.4-8.8,9.5c-5,0.1-9.2-4.1-9.2-9.4c0-5.6,3-8.6,8.899-8.6
		C616,202.6,619.2,205.5,619.2,211.1z"/>
	<path fill="#AFACA1" d="M348.2,211.5c0,5.9-2.9,9.1-8.4,9.1c-5.399,0-9.6-3.9-9.6-9c0-4.9,4-9,8.899-9
		C345.2,202.6,348.2,205.5,348.2,211.5z"/>
	<path fill="#AFACA1" d="M646.2,47.3c-0.101,5-4.101,9.2-8.9,9.3c-5,0-9.1-4.3-9.1-9.6c0-5,4.1-9.2,9-9.2
		C642.3,37.7,646.3,42,646.2,47.3z"/>
	<path fill="#AFACA1" d="M420.8,88.6c-5,0-9.5-3.9-9.5-8.4c-0.1-4.4,4.8-9.5,9.3-9.6s9.801,5,9.7,9.2
		C430,85.7,426.9,88.6,420.8,88.6z"/>
	<path fill="#AFACA1" d="M475.3,154.6c-6.1,0-9.1-2.9-9.1-8.9c0-5.9,2.899-9.1,8.399-9.1c5.4,0,9.601,3.9,9.601,9
		C484.2,150.5,480.1,154.6,475.3,154.6z"/>
	<path fill="#AFACA1" d="M610.4,154.6c-6,0.1-9.2-2.8-9.2-8.3c-0.101-5.4,3.8-9.7,8.8-9.7c4.9-0.1,9.1,4,9.2,8.8
		C619.2,151.6,616.4,154.6,610.4,154.6z"/>
	<path fill="#AFACA1" d="M610.3,169.6c5.5,0,9,3.6,8.9,9.2c0,5.4-3.601,8.9-9.2,8.8c-4.9,0-8.7-3.6-8.8-8.3
		C601.1,173.5,604.8,169.6,610.3,169.6z"/>
	<path fill="#AFACA1" d="M474.6,121.6c-5.699,0-8.399-2.7-8.5-8.3c0-6.3,3-9.7,8.601-9.6c5.3,0.1,9.3,4,9.399,9.3
		C484.3,118.4,480.8,121.6,474.6,121.6z"/>
	<path fill="#AFACA1" d="M555.8,121.6c-5.899-0.1-8.7-3.1-8.6-9.4c0.1-4.7,4.5-8.7,9.3-8.6c5,0.2,8.8,4.6,8.7,9.9
		C565,118.9,561.8,121.7,555.8,121.6z"/>
	<path fill="#AFACA1" d="M375.2,310.2c0,5-4.101,9.5-8.601,9.4s-9.399-5-9.399-9.4c0-4.3,4.7-9.4,8.899-9.5
		C371.8,300.4,375.2,304,375.2,310.2z"/>
	<path fill="#AFACA1" d="M754.2,343.1c0,5.7-2.7,8.5-8.3,8.5c-6.301,0-9.7-3-9.7-8.5c0-5.3,3.899-9.3,9.2-9.5
		C750.9,333.4,754.2,336.9,754.2,343.1z"/>
	<path fill="#AFACA1" d="M727.2,343.1c0,5.7-2.7,8.5-8.3,8.5c-6.301,0-9.7-3-9.7-8.6c0-5.3,4-9.3,9.3-9.4
		C724,333.5,727.2,337,727.2,343.1z"/>
	<path fill="#AFACA1" d="M664.4,351.6c-6,0-9.101-2.8-9.2-8.3c-0.101-5.4,3.8-9.6,8.8-9.7c4.9-0.1,9.1,4,9.2,8.8
		C673.2,348.6,670.4,351.6,664.4,351.6z"/>
	<path fill="#AFACA1" d="M646.2,342.6c0,6.1-2.9,9-9,9c-5.9,0-9-2.9-9-8.5c0-5.3,4-9.5,9.1-9.5C642.1,333.7,646.2,337.8,646.2,342.6
		z"/>
	<path fill="#AFACA1" d="M501.6,351.6c-5.699,0-8.399-2.7-8.399-8.4c0-5.7,3.6-9.7,8.7-9.6c5.1,0.1,9.3,4,9.3,8.8
		C511.3,348.6,508.1,351.6,501.6,351.6z"/>
	<path fill="#AFACA1" d="M474.7,351.6c-5.7,0-8.5-2.7-8.5-8.3c0-6.3,3-9.7,8.5-9.7c5.3,0,9.3,4,9.399,9.3
		C484.3,348.4,480.8,351.6,474.7,351.6z"/>
	<path fill="#AFACA1" d="M646.2,244.7c0,4.9-4.101,8.9-9,8.9c-5.101,0-9-4.2-9-9.6c0-5.5,3.2-8.4,9.1-8.4
		C643.3,235.6,646.2,238.6,646.2,244.7z"/>
	<path fill="#AFACA1" d="M547.2,244.5c0-6,3-8.9,9.1-8.9c5.9,0,8.9,3,8.9,8.6c0,5.3-4.2,9.5-9.2,9.4
		C551.2,253.5,547.2,249.4,547.2,244.5z"/>
	<path fill="#AFACA1" d="M493.2,244.8c0-6.2,2.8-9.2,8.8-9.2s9.2,3.1,9.2,9c0,4.8-4.3,9-9.101,9
		C496.4,253.5,493.2,250.4,493.2,244.8z"/>
	<path fill="#AFACA1" d="M474.7,235.6c5.399,0,9.3,3.4,9.5,8.3c0.2,5.2-4,9.8-9,9.7c-4.601-0.1-9.8-2.8-9.101-9.7
		C466.6,238.3,469,235.6,474.7,235.6z"/>
	<path fill="#AFACA1" d="M393.7,253.6c-4.9,0-9.7-4.7-9.5-9.3c0.2-5,4.399-8.7,9.7-8.7c4.899,0,9.399,4.3,9.199,8.7
		C402.9,249.4,398.6,253.6,393.7,253.6z"/>
	<path fill="#AFACA1" d="M700.2,277.5c0,4.7-4,9-8.4,9.1c-5.2,0.1-9.8-4-9.6-9c0.3-7.6,4.399-9.4,10.1-9
		C697.6,268.9,700.2,271.6,700.2,277.5z"/>
	<path fill="#AFACA1" d="M646.2,408.6c0,6.101-2.9,9-9.101,9c-5.1,0-8.8-3.699-8.899-8.8c-0.101-5,4.1-9.2,9.399-9.2
		C643.1,399.6,646.2,402.8,646.2,408.6z"/>
	<path fill="#AFACA1" d="M619.2,408.8c0,6-3,8.9-9.3,8.8c-5-0.1-8.7-3.6-8.7-8.399c0-5.5,3.7-9.5,8.899-9.601
		C615.4,399.5,619.2,403.4,619.2,408.8z"/>
	<path fill="#AFACA1" d="M583.1,417.6c-6.1,0-9-3-8.899-9.199c0-5,3.6-8.801,8.399-8.801c5.5-0.1,9.5,3.601,9.601,8.801
		C592.3,413.7,588.4,417.6,583.1,417.6z"/>
	<path fill="#AFACA1" d="M547.2,408.7c0-5.9,3-9.101,8.5-9.101c5.3,0,9.6,4,9.5,9.101c0,5.1-3.8,8.899-8.8,8.899
		C550.2,417.6,547.2,414.8,547.2,408.7z"/>
	<path fill="#AFACA1" d="M529.1,417.6c-6.1,0-8.899-3-8.899-9.1c0-5.9,3-9,8.6-8.9c5.3,0,9.5,4.101,9.4,9.101
		C538.1,413.6,534,417.6,529.1,417.6z"/>
	<path fill="#AFACA1" d="M502.2,417.6c-6.101,0-9-2.899-9-9c0-5.899,2.899-9,8.5-9c5.3,0,9.5,4,9.5,9.101
		C511.2,413.5,507.1,417.6,502.2,417.6z"/>
	<path fill="#AFACA1" d="M637.4,384.6c-5.9,0-9.101-2.9-9.2-8.4c0-5.4,3.899-9.6,9-9.6c5.2,0,8.899,3.7,9,8.8
		C646.2,381.6,643.4,384.6,637.4,384.6z"/>
	<path fill="#AFACA1" d="M583.3,384.6c-6.1,0-9.1-2.9-9.1-8.9c0-4.9,4-9,8.8-9.1c5-0.1,9.1,4.1,9.2,9.4
		C592.2,381.6,589.1,384.6,583.3,384.6z"/>
	<path fill="#AFACA1" d="M529.1,384.6c-6,0-8.6-3-9-9.1c-0.399-5.8,4.4-8.6,8.9-8.8c4.9-0.2,9.1,4,9.2,8.9
		C538.2,381.4,535,384.6,529.1,384.6z"/>
	<path fill="#AFACA1" d="M771.9,384.6c-4.601,0-8.9-4.5-8.7-9.2c0.2-4.8,4.5-8.9,9.3-8.8c5.2,0.2,9.6,4.4,9.6,9.1
		C782,381,777.9,384.7,771.9,384.6z"/>
	<path fill="#AFACA1" d="M466.2,376.2c0-6.5,3-9.6,9.1-9.6c4.8,0,9,4.3,8.9,9.1c-0.101,4.8-4.2,8.9-9.101,8.8
		C469.2,384.6,466.2,381.8,466.2,376.2z"/>
	<path fill="#AFACA1" d="M501.9,384.6c-6-0.1-8.801-3.1-8.7-9.3c0.1-5.5,3.3-8.7,8.899-8.7c4.801,0,9.101,4.2,9.101,9
		C511.2,381,507.4,384.7,501.9,384.6z"/>
	<path fill="#AFACA1" d="M610.4,351.6c-6,0.1-9.2-2.8-9.2-8.3c-0.101-5.4,3.899-9.7,9-9.6c4.899,0,8.899,4.1,9,9.2
		C619.3,348.5,616.2,351.6,610.4,351.6z"/>
	<path fill="#AFACA1" d="M556.2,351.6c-6.101,0-9-2.9-9-9c0-4.6,4.1-9,8.399-9c5.5-0.1,9.601,4,9.601,9.5
		C565.2,348.7,562.1,351.6,556.2,351.6z"/>
	<path fill="#AFACA1" d="M610,384.6c-5.8,0-8.9-3.1-8.8-8.8c0.1-5.1,4.1-9.2,9-9.2c5.1,0,9.1,4.2,9,9.6
		C619.1,381.8,616,384.7,610,384.6z"/>
	<path fill="#AFACA1" d="M700.2,375.8c0,6-3,8.9-9.2,8.9c-5.1,0-8.8-3.8-8.8-8.9c-0.101-4.8,4.1-9.1,9-9.1
		C697.1,366.6,700.2,369.8,700.2,375.8z"/>
	<path fill="#AFACA1" d="M754.2,375.9c0,5.7-2.9,8.6-8.7,8.7c-4.9,0.1-9.4-4.1-9.3-8.7c0.1-5.1,4-9.2,8.8-9.3
		C751.2,366.5,754.2,369.5,754.2,375.9z"/>
	<path fill="#AFACA1" d="M673.2,375.5c0,6.1-2.9,9.1-8.9,9.1c-5.899,0-9.1-3.2-9.1-9.1c0-4.9,4.3-9,9.2-8.9
		C669.5,366.7,673.2,370.4,673.2,375.5z"/>
	<path fill="#AFACA1" d="M375.2,342.9c0,5.8-2.601,8.7-8.101,8.7c-5.899,0-10.1-3.3-9.899-8.3c0.3-6.3,3.2-9.2,9.5-9.6
		C372.1,333.4,375.2,337,375.2,342.9z"/>
	<path fill="#AFACA1" d="M439.2,343c-0.9-6.6,4-9.2,8.3-9.2c6.3,0,9.2,3.2,9.6,9.4c0.301,5.1-3.899,8.5-9.699,8.5
		C441.8,351.6,439.2,348.8,439.2,343z"/>
	<path fill="#AFACA1" d="M556.2,384.6c-6.101,0-9-2.9-9-9c0-5.3,3.899-9.1,9.2-9c4.6,0.1,8.699,4.2,8.8,8.8
		C565.3,381.3,562.1,384.6,556.2,384.6z"/>
	<path fill="#AFACA1" d="M466.2,408.5c0-5.9,3.1-8.9,8.7-8.8c5.1,0.1,9.199,4,9.3,8.899c0.1,5.101-4.2,9.101-9.601,9.101
		C469.1,417.6,466.2,414.4,466.2,408.5z"/>
	<path fill="#AFACA1" d="M700.2,408.4c0,6-2.8,9.199-8.4,9.199c-5.399,0-9.6-3.899-9.6-9c0-4.899,4.1-8.899,9.2-9
		C697.1,399.5,700.1,402.6,700.2,408.4z"/>
	<path fill="#AFACA1" d="M727.2,408.4c0,6-2.9,9.1-8.4,9.199c-5.399,0-9.6-4-9.6-9.1c0-4.9,4.1-8.8,9.2-8.9
		C724.1,399.5,727.2,402.6,727.2,408.4z"/>
	<path fill="#AFACA1" d="M610.1,121.6c-5.899,0-9-3-8.899-8.7c0.1-5.2,3.899-9.2,8.8-9.3c5.1-0.1,9.2,4.2,9.2,9.5
		C619.2,118.7,616.1,121.6,610.1,121.6z"/>
	<path fill="#AFACA1" d="M583.3,121.6c-6,0-9.1-2.9-9.1-8.5c0-5.4,4-9.6,9.1-9.5c4.9,0.1,8.8,4.1,8.9,9.3
		C592.3,118.5,589.2,121.6,583.3,121.6z"/>
	<path fill="#AFACA1" d="M520.2,112.4c0-5.1,3.8-8.7,9-8.8c4.8,0,9.2,4.2,9,9.1c-0.2,4.6-3,9.6-9.2,9
		C523,121.2,520.1,118.6,520.2,112.4z"/>
	<path fill="#AFACA1" d="M502.4,121.6c-6.2,0-9.2-2.8-9.2-8.8c0-5.8,3.1-9.2,8.5-9.2c5.2,0,9.6,4.1,9.5,9.1
		C511.1,118.4,508,121.6,502.4,121.6z"/>
	<path fill="#AFACA1" d="M420.7,121.6c-5,0-9.5-4-9.5-8.5s5-9.5,9.5-9.5c4.7,0,9.3,4.4,9.399,8.9C430.3,117.4,426,121.6,420.7,121.6
		z"/>
	<path fill="#AFACA1" d="M556.3,154.6c-6.1,0-9.1-2.9-9.1-8.9c0-5.3,3.8-9.2,9.1-9.1c4.601,0.1,8.7,4.1,8.9,8.7
		C565.3,151.2,562.1,154.6,556.3,154.6z"/>
	<path fill="#AFACA1" d="M529.2,154.6c-6.101,0-9-2.9-9-9c0-5.9,3.2-9.1,9.1-9c4.601,0.1,8.7,4.1,8.9,8.7
		C538.3,150.7,534.5,154.6,529.2,154.6z"/>
	<path fill="#AFACA1" d="M439.2,146.1c0-6.4,2.8-9.5,8.6-9.5c5.2,0,9.601,4.3,9.4,9.2c-0.2,4.8-4.3,8.8-9.2,8.8
		C442.1,154.6,439.2,151.7,439.2,146.1z"/>
	<path fill="#AFACA1" d="M375.2,146c0,5.7-2.9,8.5-8.8,8.6c-4.801,0-9-3.9-9.2-8.8c-0.2-4.9,4.2-9.2,9.399-9.2
		C372.3,136.6,375.2,139.7,375.2,146z"/>
	<path fill="#AFACA1" d="M457.2,47.1c0,4.3-4.8,9.4-8.9,9.5c-5.7,0.2-9.1-3.4-9.1-9.6c0-4.8,4-9.3,8.1-9.3
		C452.4,37.7,457.2,42.3,457.2,47.1z"/>
	<path fill="#AFACA1" d="M555.7,268.6c6.399,0,9.5,2.8,9.5,8.5c0,5.3-4.2,9.6-9.2,9.5c-4.8-0.1-8.9-4.3-8.8-9.1
		C547.2,271.5,550,268.6,555.7,268.6z"/>
	<path fill="#AFACA1" d="M528.7,268.6c6.399,0,9.5,2.8,9.5,8.6c0,5.2-4.3,9.6-9.2,9.4c-4.8-0.1-8.8-4.3-8.8-9.1
		C520.2,271.5,523,268.6,528.7,268.6z"/>
	<path fill="#AFACA1" d="M393.7,268.6c5,0,9.399,4,9.5,8.5c0,4.5-4.9,9.4-9.4,9.5s-9.8-5-9.6-9.3C384.4,272,388.1,268.6,393.7,268.6
		z"/>
	<path fill="#AFACA1" d="M691.2,235.6c6.1,0,9,2.9,9,9c0,5.3-3.9,9.1-9.3,9c-4.601-0.1-8.7-4.2-8.7-8.9
		C682.1,238.8,685.3,235.6,691.2,235.6z"/>
	<path fill="#AFACA1" d="M610.3,235.6c5.9,0,8.9,3.1,8.8,8.7c-0.1,5.1-4,9.2-8.899,9.3c-5.101,0.1-9.101-4.2-9.101-9.6
		C601.2,238.5,604.4,235.6,610.3,235.6z"/>
	<path fill="#AFACA1" d="M583,235.6c6,0,9.2,2.8,9.2,8.4c0,5.4-3.9,9.6-9,9.6c-4.9,0-8.9-4.1-9-9.2
		C574.1,238.7,577.2,235.7,583,235.6z"/>
	<path fill="#AFACA1" d="M520.2,244.7c0-6.1,2.899-9.1,9-9.1c5.899,0,9.1,3.2,9,9.1c-0.101,4.9-4.3,9-9.2,8.9
		C523.9,253.5,520.2,249.8,520.2,244.7z"/>
	<path fill="#AFACA1" d="M727.2,310.1c0,5-4,9.5-8.5,9.5s-9.5-5-9.5-9.5c0-4.7,4.399-9.3,8.899-9.4
		C723,300.5,727.2,304.8,727.2,310.1z"/>
	<path fill="#AFACA1" d="M493.2,309.8c0-4.9,4-9,8.8-9.1c4.7-0.1,9.2,4.6,9.2,9.5c0,4.8-4.101,9.1-8.9,9.3
		C497.2,319.7,493.2,315.4,493.2,309.8z"/>
	<path fill="#AFACA1" d="M754.2,277.5c0,5.8-3.2,9.2-8.601,9.1c-5-0.1-9.6-4.4-9.3-9.4c0.3-4.5,2.5-9.4,10-8.7
		C751.6,269,754.2,271.6,754.2,277.5z"/>
	<path fill="#AFACA1" d="M673.2,277.6c0,4.8-4.2,9-9,9c-5,0-9.101-4.3-9-9.6c0-5.7,3.2-8.4,9.6-8.4
		C670.4,268.6,673.2,271.7,673.2,277.6z"/>
	<path fill="#AFACA1" d="M700.2,178.4c0,6-2.8,9.1-8.4,9.2c-5.399,0-9.6-4-9.6-9.1c0-4.9,4.1-8.8,9.2-8.9
		C697.1,169.5,700.2,172.6,700.2,178.4z"/>
	<path fill="#AFACA1" d="M583.1,187.6c-6,0-8.899-3.1-8.899-9.2c0-5,3.6-8.7,8.399-8.8c5.5,0,9.5,3.6,9.601,8.8
		C592.3,183.8,588.4,187.6,583.1,187.6z"/>
	<path fill="#AFACA1" d="M528.9,169.6c5.399,0.1,9.5,4.2,9.3,9.3c-0.2,4.8-4.4,8.7-9.5,8.7c-5.601,0-8.5-3.1-8.5-9.1
		C520.2,172.6,523.2,169.5,528.9,169.6z"/>
	<path fill="#AFACA1" d="M493.2,178.5c0-5.9,3.1-8.9,8.7-8.9c5.1,0.1,9.199,4,9.3,8.9c0.1,5.1-4.2,9.1-9.601,9.1
		C496.1,187.6,493.2,184.4,493.2,178.5z"/>
	<path fill="#AFACA1" d="M466.2,178.8c0-6,2.899-9.1,8.399-9.1c5.4,0,9.601,4,9.601,9.1c-0.101,4.9-4.101,8.8-9.3,8.9
		C469.3,187.7,466.2,184.6,466.2,178.8z"/>
	<path fill="#AFACA1" d="M348.2,244.4c0,5.9-3.101,9.5-8.5,9.2c-6.2-0.4-9.101-3.3-9.4-9.6c-0.2-5,4-8.4,9.9-8.3
		C345.6,235.7,348.2,238.5,348.2,244.4z"/>
	<path fill="#AFACA1" d="M700.2,211.8c0.899,5.7-4.4,8.6-8.8,8.8c-4.9,0.2-9.101-4-9.2-8.9c0-5.3,3.8-9.1,9.1-9.1
		C697.3,202.6,700.2,205.6,700.2,211.8z"/>
	<path fill="#AFACA1" d="M673.2,211.4c1,6.2-4.4,9-9,9.2c-4.8,0.2-9.101-4.2-9-9c0-5.1,3.7-8.9,8.8-8.9
		C670.1,202.6,673.1,205.4,673.2,211.4z"/>
	<path fill="#AFACA1" d="M646.2,212c-0.101,4.9-4.101,8.7-9.101,8.6c-4.899-0.1-9.199-4.4-8.8-9.2c0.5-5.7,3.4-9.3,9.3-8.9
		C643.5,203,646.3,205.7,646.2,212z"/>
	<path fill="#AFACA1" d="M547.2,211.7c0-6.1,2.899-9.1,9-9.1c5.899,0,9.1,3.2,9,9.1c-0.101,4.9-4.3,9-9.2,8.9
		C550.9,220.5,547.2,216.8,547.2,211.7z"/>
	<path fill="#AFACA1" d="M520.2,211.5c0-6.1,3-8.9,9.1-8.9c5.101,0,8.8,3.7,8.9,8.8c0.1,4.9-4.101,9.1-8.9,9.2
		C523.4,220.7,520.2,217.5,520.2,211.5z"/>
	<path fill="#AFACA1" d="M466.2,211.4c0-6,3-8.8,9.2-8.8c4.5,0,8.899,4.3,8.8,8.6c-0.101,5.5-4.2,9.4-9.7,9.4
		C469,220.5,466.1,217.3,466.2,211.4z"/>
	<path fill="#AFACA1" d="M375.2,211.1c0,6.4-2.8,9.5-8.5,9.5c-5.3,0-9.601-4.2-9.5-9.1c0.1-4.8,4.3-8.9,9.1-8.9
		C372.2,202.6,375.2,205.5,375.2,211.1z"/>
	<path fill="#AFACA1" d="M348.2,178.8c0,5.8-3.101,8.9-8.8,8.8c-4.801-0.1-9.2-4.1-9.2-8.5c0-5.5,4.1-9.6,9.6-9.5
		C345.4,169.7,348.2,172.8,348.2,178.8z"/>
	<path fill="#AFACA1" d="M502.1,154.6c-6,0-8.899-3-8.899-9.2c0-5.6,3.2-8.8,8.899-8.8c4.9,0,9.101,4.2,9.101,9.1
		C511.1,150.6,507,154.6,502.1,154.6z"/>
	<path fill="#AFACA1" d="M348.2,145.4c0,6.2-2.8,9.2-8.9,9.2c-4.7,0-9.1-4.1-9.1-8.4c0-5.3,4.1-9.6,9.2-9.6
		C345.2,136.7,348.1,139.6,348.2,145.4z"/>
	<path fill="#AFACA1" d="M673.2,244.5c0,4.9-4,9-8.9,9.1c-4.899,0-9.1-4.2-9.1-9.1c0.1-5.7,3.2-8.9,8.8-8.9
		C670.2,235.6,673.2,238.5,673.2,244.5z"/>
	<path fill="#AFACA1" d="M439.2,244.2c0-5.9,2.7-8.6,8.6-8.6c5,0,9.7,4,9.3,8.6c-0.5,6.1-3.199,9.3-9.6,9.3
		C443.1,253.4,438.4,250.7,439.2,244.2z"/>
	<path fill="#AFACA1" d="M420.8,235.6c5.2,0,9.601,4.3,9.3,9.2c-0.199,4.7-4.699,8.8-9.5,8.8c-4.3,0-9.699-4.9-9.199-9
		C411.9,239.2,415.5,234.4,420.8,235.6z"/>
	<path fill="#AFACA1" d="M493.2,211.8c0-6.2,2.899-9.1,8.899-9.2c4.9,0,9,4,9.101,8.9c0,4.9-4.3,9.1-9.101,9.1
		C496.4,220.5,493.2,217.4,493.2,211.8z"/>
	<path fill="#AFACA1" d="M637.4,88.6c-6.101,0-9.101-2.8-9.2-8.4c0-5.3,4.2-9.7,9.1-9.6c4.9,0.1,8.8,4.3,8.9,9.4
		C646.2,85.6,643.2,88.6,637.4,88.6z"/>
	<path fill="#AFACA1" d="M610.6,88.6c-6.399,0-9.5-2.9-9.399-8.7c0.1-5.1,4.1-9.2,8.899-9.3c5-0.1,9.101,4.3,9.101,9.6
		C619.1,85.7,616.1,88.6,610.6,88.6z"/>
	<path fill="#AFACA1" d="M582.5,88.6c-5.4,0-8.4-3.1-8.3-8.6c0-5.1,4-9.2,8.8-9.4c5-0.1,9.2,4.2,9.2,9.5
		C592.2,85.9,589,88.6,582.5,88.6z"/>
	<path fill="#AFACA1" d="M555.5,88.6c-5.4,0-8.4-3.1-8.3-8.6c0-5.1,4-9.2,8.8-9.4c5-0.1,9.2,4.2,9.2,9.5
		C565.2,85.9,562,88.6,555.5,88.6z"/>
	<path fill="#AFACA1" d="M528.5,88.6c-5.5,0-8.3-3.1-8.3-9c0-4.8,4.2-9,9-8.9c4.8,0,9,4.3,9,9.1C538.1,85.9,535.2,88.6,528.5,88.6z"
		/>
	<path fill="#AFACA1" d="M501.6,88.6c-5.899,0-8.399-2.7-8.399-8.8c0-4.7,4-9.3,8.3-9.1c6.5,0.4,9.2,3.3,9.6,9.4
		C511.5,85.5,507.8,88.6,501.6,88.6z"/>
	<path fill="#AFACA1" d="M447.4,88.6c-5.5,0-8.2-2.8-8.2-8.6c0-6.1,3.3-9.6,8.7-9.4c4.5,0.2,9.699,5.2,9.199,9.6
		C456.5,85.2,454.2,89.4,447.4,88.6z"/>
	<path fill="#AFACA1" d="M420.5,351.6c-4.9,0-9.5-4.3-9.3-8.7c0.2-4.7,5.1-9.4,9.7-9.3c4.399,0.1,9.399,5.1,9.3,9.1
		C430.1,347.8,425.9,351.6,420.5,351.6z"/>
	<path fill="#AFACA1" d="M583.1,351.6c-5.899,0-8.899-3.1-8.899-8.7c0.1-4.8,4-9.2,8.399-9.3c5.5-0.1,9.7,4,9.601,9.5
		C592.2,348.7,589,351.6,583.1,351.6z"/>
	<path fill="#AFACA1" d="M691.6,351.6c-6.3,0-9.5-3.2-9.399-9.2c0.1-4.7,4.3-8.7,9.3-8.8c4.5-0.1,8.7,4.4,8.7,9.2
		C700.1,348.7,697.3,351.6,691.6,351.6z"/>
	<path fill="#AFACA1" d="M772.7,351.6c-5.101,0-9.5-4-9.5-8.5c0-5,4.3-9.4,9.3-9.5c4.8-0.1,9.3,4.4,9.4,9.4
		C782,347.8,777.9,351.6,772.7,351.6z"/>
	<path fill="#AFACA1" d="M447.8,399.6c5.101,0,9.2,4,9.4,8.801c0.1,5-4.2,9.199-9.5,9.199c-5.601,0-8.5-3.1-8.4-9
		C439.2,402.6,442.2,399.6,447.8,399.6z"/>
	<path fill="#AFACA1" d="M439.2,375.9c0-6.4,3-9.4,9.2-9.3c4.6,0.1,8.6,4.2,8.8,8.8c0.1,4.9-4.2,9.2-9.3,9.2
		C442.1,384.5,439.2,381.6,439.2,375.9z"/>
	<path fill="#AFACA1" d="M375.2,376c0,5.7-2.9,8.6-8.7,8.6c-5,0.1-9.4-4.3-9.3-9.2c0.1-4.6,4.2-8.7,8.8-8.8
		C372.2,366.5,375.2,369.5,375.2,376z"/>
	<path fill="#AFACA1" d="M439.2,277.3c0-6,2.7-8.3,8.6-8.7c6.601-0.4,9.101,3.9,9.3,8.4c0.2,5.5-3.899,9.7-9.5,9.6
		C443.2,286.4,438.3,283.8,439.2,277.3z"/>
	<path fill="#AFACA1" d="M474.6,268.6c6.301,0,9.7,3,9.601,8.6c-0.101,5-4,9.2-8.8,9.4c-5.4,0.2-9.2-3.8-9.2-9.6
		C466.2,271.3,468.9,268.6,474.6,268.6z"/>
	<path fill="#AFACA1" d="M583.1,268.6c6.101,0,9.101,2.9,9.101,8.5c0,5.3-4.2,9.7-9.2,9.5c-4.9-0.2-8.8-4.3-8.8-9.4
		C574.2,271.5,577.2,268.6,583.1,268.6z"/>
	<path fill="#AFACA1" d="M637.9,268.6c5.399,0,8.399,3.1,8.3,8.6c0,5.1-4,9.2-8.9,9.3c-5,0.1-9.2-4.2-9.1-9.6
		C628.2,271.3,631.3,268.6,637.9,268.6z"/>
	<path fill="#AFACA1" d="M718.5,268.6c6,0,8.7,2.6,8.7,8.5c0,5-4,9.7-8.5,9.4c-6.2-0.5-9.101-3.2-9.4-9.6
		C709,271.6,712.6,268.6,718.5,268.6z"/>
	<path fill="#AFACA1" d="M348.2,310.3c0,4.9-4.3,9.5-8.7,9.3c-4.7-0.2-9.4-5.1-9.3-9.7c0.1-4.4,5.1-9.4,9.1-9.3
		C344.4,300.7,348.2,304.9,348.2,310.3z"/>
	<path fill="#AFACA1" d="M466.2,309.8c0-4.9,4.1-9.1,8.899-9.2c4.7-0.1,9.301,4.9,9.101,9.7c-0.2,4.4-5.101,9.3-9.2,9.1
		C469.8,319.3,466.2,315.3,466.2,309.8z"/>
	<path fill="#AFACA1" d="M754.2,310.1c0,5-4,9.5-8.5,9.5s-9.5-5-9.5-9.5c0-4.3,4.8-9.4,8.899-9.5C750,300.5,754.2,304.8,754.2,310.1
		z"/>
	<path fill="#AFACA1" d="M339.8,268.6c5.9,0,8.4,2.7,8.4,8.9c0,5.2-3.8,9.2-8.601,9.1c-5.1-0.1-9.3-4.3-9.399-9.4
		C330.1,271.7,333.6,268.6,339.8,268.6z"/>
	<path fill="#AFACA1" d="M366.7,268.6c5.899,0,8.6,2.7,8.5,8.7c0,5.9-3,9.2-8.4,9.3c-4.5,0.1-9.5-4.8-9.6-9.3
		C357,271.9,360.6,268.6,366.7,268.6z"/>
	<path fill="#AFACA1" d="M420.7,268.6c5.899,0,9.7,3.4,9.5,8.7c-0.2,4.6-5.101,9.4-9.601,9.3c-4.3-0.1-9.6-4.9-9.199-9
		C411.9,272.2,415.7,267.4,420.7,268.6z"/>
	<path fill="#AFACA1" d="M529.1,351.6c-6.1,0-9-3-8.899-9.2c0-4.6,4.3-8.9,8.7-8.8c5.1,0.1,9.3,4,9.3,8.9
		C538.3,348.4,535.1,351.6,529.1,351.6z"/>
	<path fill="#AFACA1" d="M393.5,351.6c-4.9,0-9.5-4.3-9.2-8.8c0.3-4.7,5.2-9.4,9.7-9.2c4.5,0.2,9.4,5.3,9.2,9.7
		C402.9,347.9,398.6,351.6,393.5,351.6z"/>
	<path fill="#AFACA1" d="M610.1,268.6c6,0,9.101,2.9,9.101,8.5c0,5.3-4.2,9.6-9.2,9.5c-4.9-0.1-8.8-4.3-8.8-9.3
		C601.1,271.6,604.2,268.6,610.1,268.6z"/>
	<path fill="#AFACA1" d="M493.2,277.1c0-5.9,2.7-8.2,8.7-8.6c6.5-0.5,8.899,4.2,9.199,8.4c0.5,5.2-3.899,9.6-8.899,9.6
		C497.2,286.6,493.2,282.4,493.2,277.1z"/>
	<path fill="#AFACA1" d="M447.7,121.6c-5.9,0-8.2-2.7-8.601-8.7c-0.5-6.5,4.2-8.9,8.4-9.2c5.2-0.5,9.6,3.9,9.6,8.9
		S452.9,121.6,447.7,121.6z"/>
	<path fill="#AFACA1" d="M375.2,244.2c0,6.1-3.2,9.6-8.7,9.4c-5.1-0.1-9.2-4.1-9.3-8.9c-0.101-5.1,4.3-9.2,9.8-9.1
		C372.5,235.6,375.2,238.4,375.2,244.2z"/>
	<path fill="#AFACA1" d="M375.2,178.7c0,5.9-3.101,8.9-8.7,8.9c-5-0.1-9.2-4-9.3-8.9c-0.101-5,4.2-9.1,9.5-9.1
		C372.3,169.6,375.2,172.8,375.2,178.7z"/>
	<path fill="#AFACA1" d="M447.8,169.6c5.2,0,9.601,4.3,9.4,9.2c-0.2,4.9-4.3,8.7-9.4,8.8c-5.6,0-8.6-3.1-8.6-9
		S442.1,169.6,447.8,169.6z"/>
	<path fill="#AFACA1" d="M474.6,88.6c-5.899,0-8.5-2.7-8.399-8.8c0-4.9,4.2-9.3,8.7-9.2c5.1,0.2,9.3,4.4,9.3,9.4
		C484.2,85.6,480.8,88.6,474.6,88.6z"/>
	<path fill="#AFACA1" d="M727.2,375.6c0,6.1-2.9,9-9.101,9c-4.6,0-9-4.2-8.899-8.6c0.1-5.1,4-9.3,8.8-9.4
		C723.9,366.5,727.2,369.7,727.2,375.6z"/>
	<path fill="#AFACA1" d="M439.2,310.1c0-5.3,3.399-9.2,8.3-9.4c4.6-0.2,9.8,4.9,9.7,9.6c-0.101,4.3-5,9.6-9.101,9.1
		C442.7,318.8,438,315.1,439.2,310.1z"/>
	<path fill="#AFACA1" d="M375.2,408.5c0,6-2.9,9.1-8.5,9.1c-5.3,0-9.601-4.199-9.5-9.199c0.1-4.9,4.3-8.801,9.3-8.801
		C372.2,399.5,375.2,402.6,375.2,408.5z"/>
	<path fill="#AFACA1" d="M1337.8,1732.9c-3.5-2.5-6.7-5.601-5.8-10.301c0.8-4.199,3.4-7.399,8.3-7.699
		c4.4-0.301,7.8,1.199,9.5,5.399c1.8,4.4,0.5,8.2-3.1,11.2c-0.601,0.5-1.2,0.9-1.8,1.4C1342.4,1732.9,1340.1,1732.9,1337.8,1732.9z"
		/>
	<path fill="#AFACA1" d="M1256.8,1732.9c-6.899-5.2-8-10-3.5-15c3.4-3.801,9.601-4.2,13.101-0.9c3.3,3.1,3.5,10.1,0.3,13.5
		c-0.9,0.9-1.9,1.6-2.9,2.4C1261.4,1732.9,1259.1,1732.9,1256.8,1732.9z"/>
	<path fill="#AFACA1" d="M1283.8,1732.9c-6.1-4.601-7.6-9.5-4.2-14.301c3-4.199,9.601-5.199,13.4-2c3.5,2.9,3.9,10.301,0.7,13.801
		c-0.9,0.899-1.9,1.6-2.9,2.399C1288.4,1732.9,1286.1,1732.9,1283.8,1732.9z"/>
	<path fill="#AFACA1" d="M1310.8,1732.9c-3.7-2.601-6.8-5.7-5.6-10.7c1.1-4.3,3.7-7.101,8.5-7.3c4.1-0.2,7.7,1.3,8.7,4.899
		c1.1,4.101,1.3,8.9-3.2,12c-0.5,0.3-1,0.7-1.4,1.101C1315.4,1732.9,1313.1,1732.9,1310.8,1732.9z"/>
	<path fill="#AFACA1" d="M1341.3,1666.9c-5.3,0-9.5-4-9.5-9s4.5-9.101,9.7-9c4.9,0.1,9.2,4.199,9.3,9
		C1350.8,1662.9,1346.5,1666.9,1341.3,1666.9z"/>
	<path fill="#AFACA1" d="M1341.6,1188.9c5,0.1,9.101,4.1,9.2,8.899c0,5-4.2,9.101-9.6,9.101c-5.2,0-9.601-4.301-9.4-9.2
		C1331.9,1192.7,1336.2,1188.8,1341.6,1188.9z"/>
	<path fill="#AFACA1" d="M1160.8,1099.7c-0.1,5-4,9.1-8.8,9.3c-5.1,0.1-9.3-4.4-9.2-10c0.101-5,4.3-9.1,9.101-9
		C1156.9,1090,1160.8,1094.3,1160.8,1099.7z"/>
	<path fill="#AFACA1" d="M1187.8,1099.6c0,5.2-4.3,9.601-9.2,9.4c-5.1-0.2-8.899-4.5-8.8-9.8c0.101-5,4.2-9.101,9-9.101
		C1183.8,1089.9,1187.8,1094.2,1187.8,1099.6z"/>
	<path fill="#AFACA1" d="M1214.8,1099.6c0,5.2-4.399,9.601-9.3,9.4c-5.1-0.2-8.9-4.5-8.7-9.9c0.101-5,4.2-9.1,9-9.1
		C1210.8,1090,1214.8,1094.2,1214.8,1099.6z"/>
	<path fill="#AFACA1" d="M1620.8,1591.8c0,5.601-3.8,10.101-8.5,10.101c-5.2,0-9.399-4.101-9.5-9.2c-0.1-5.3,3.9-9.601,8.9-9.7
		C1616.4,1582.9,1620.7,1587.1,1620.8,1591.8z"/>
	<path fill="#AFACA1" d="M1350.7,1592.4c0.1,4.3-4.7,9.399-8.9,9.5c-4.899,0.1-10-4.601-10-9.301c-0.1-4.199,4.8-9.5,8.9-9.5
		C1345.5,1582.8,1350.6,1587.6,1350.7,1592.4z"/>
	<path fill="#AFACA1" d="M1539.8,1592.4c0,5.1-4.1,10-8.6,9.399c-5.7-0.7-9.3-2.899-9.4-9.1c-0.1-5.3,3.8-9.601,8.8-9.8
		C1535.5,1582.8,1539.7,1587.2,1539.8,1592.4z"/>
	<path fill="#AFACA1" d="M1566.8,1592.4c0,5.1-4.1,9.899-8.6,9.399c-5.8-0.7-9.3-3-9.4-9.1c-0.1-5.3,3.8-9.601,8.9-9.7
		C1562.6,1582.8,1566.8,1587.2,1566.8,1592.4z"/>
	<path fill="#AFACA1" d="M1341.1,1699.9c-5.199-0.101-9.6-4.4-9.3-9.301c0.3-5.1,4.5-8.8,9.9-8.699c4.8,0.1,9.399,4.199,9,8.5
		C1350,1696.6,1347,1700.1,1341.1,1699.9z"/>
	<path fill="#AFACA1" d="M1142.8,1001c0-6,3.101-9.1,9-9.1c6.101,0,9,2.899,9,9c0,5.3-3.899,9.1-9.2,9
		C1146.4,1009.8,1142.8,1006.1,1142.8,1001z"/>
	<path fill="#AFACA1" d="M1142.8,1329.6c0-5.1,3.9-9.6,8.5-9.6c5.2-0.1,9.4,3.9,9.5,9.1c0.101,5.4-3.6,9.601-8.7,9.9
		C1147.1,1339.2,1142.8,1334.8,1142.8,1329.6z"/>
	<path fill="#AFACA1" d="M1467.8,1329.7c0-5.2,3.8-9.601,8.4-9.7c5.3-0.2,9.7,4.2,9.6,9.6c0,5.2-4.399,9.601-9.3,9.4
		C1471.7,1338.7,1467.7,1334.6,1467.8,1329.7z"/>
	<path fill="#AFACA1" d="M1368.9,1436.9c-5.601,0-10.101-3.801-10.101-8.5c0-5.2,4.101-9.4,9.2-9.5c5.3-0.101,9.6,3.899,9.7,8.899
		C1377.8,1432.6,1373.6,1436.9,1368.9,1436.9z"/>
	<path fill="#AFACA1" d="M1061.8,1329.9c0-5.5,4-10.101,8.7-9.9c5.3,0.2,9.3,4.2,9.3,9.4c0,5.3-4.1,9.6-9.1,9.5
		C1065.9,1338.9,1061.8,1334.7,1061.8,1329.9z"/>
	<path fill="#AFACA1" d="M1539.8,1329.5c0,5.2-4.3,9.6-9.2,9.4c-5.1-0.2-8.899-4.5-8.8-9.801c0.101-4.8,4.101-9.5,8.4-9
		C1536.2,1320.7,1539.9,1323.4,1539.8,1329.5z"/>
	<path fill="#AFACA1" d="M1115.8,1099.6c0-5.1,3.9-9.6,8.5-9.6c5.2-0.1,9.4,3.9,9.5,9.1c0.101,5.4-3.6,9.601-8.7,9.9
		C1120.1,1109.2,1115.8,1104.8,1115.8,1099.6z"/>
	<path fill="#AFACA1" d="M1079.8,1099.6c-0.1,5-4.1,9.2-8.899,9.301c-5.101,0.1-9.101-4.301-9.101-9.9c0-4.6,4.101-9,8.4-9
		C1075.5,1089.9,1079.8,1094.2,1079.8,1099.6z"/>
	<path fill="#AFACA1" d="M1584.8,1451.9c6.101,0,9,2.899,9,9c0,5.899-2.899,9-8.5,9c-5.5,0-9.399-3.601-9.5-8.801
		C1575.7,1455.9,1579.5,1451.9,1584.8,1451.9z"/>
	<path fill="#AFACA1" d="M1503.5,1469.9c-6-0.101-8.8-3.101-8.8-9.2c0-5.8,3.1-8.8,8.7-8.8c5.399,0.1,9.3,3.8,9.3,9.1
		S1509,1470,1503.5,1469.9z"/>
	<path fill="#AFACA1" d="M1413.8,1526.5c0-5.8,2.7-8.2,8.2-8.7c7-0.6,9.3,4,9.7,8.5c0.399,5.2-4.101,9.8-9.101,9.5
		C1417.8,1535.6,1412.8,1532.8,1413.8,1526.5z"/>
	<path fill="#AFACA1" d="M1187.8,1329.2c0.101,5.3-3.8,9.6-8.899,9.7c-4.9,0.1-9.101-4.2-9.101-9.4c0-5,4.2-10,8.601-9.4
		C1184,1320.8,1187.6,1323,1187.8,1329.2z"/>
	<path fill="#AFACA1" d="M1512.8,1329.7c-0.1,5-4.1,9.2-9,9.2c-5,0-9.1-4.301-9-9.7c0.101-4.9,4-9.2,8.4-9.3
		C1508.5,1319.9,1512.9,1324.2,1512.8,1329.7z"/>
	<path fill="#AFACA1" d="M1133.8,1329.5c0,5.1-3.899,9.2-8.8,9.4c-5,0.199-9.2-4.2-9.2-9.5c0-5.101,4.2-9.7,8.7-9.5
		C1129.9,1320.2,1133.8,1324.2,1133.8,1329.5z"/>
	<path fill="#AFACA1" d="M1106.8,1329.3c0.101,5.4-4,9.7-9.1,9.601c-4.8-0.101-8.9-4.2-8.9-9.301c-0.1-5.1,3.9-9.699,8.5-9.699
		C1102.5,1320,1106.7,1324.1,1106.8,1329.3z"/>
	<path fill="#AFACA1" d="M1467.8,1591.7c0-4.7,4.5-8.9,9.2-8.8c5.1,0.199,8.9,4.5,8.8,9.8c-0.1,4.899-4.3,9.1-9.1,9.1
		C1471.4,1601.8,1467.7,1597.6,1467.8,1591.7z"/>
	<path fill="#AFACA1" d="M1512.8,1592.3c0,5-4.1,9.601-8.6,9.601c-5.2,0-9.3-4-9.4-9.2c-0.1-5.3,3.8-9.601,8.8-9.8
		C1508.5,1582.8,1512.7,1587.1,1512.8,1592.3z"/>
	<path fill="#AFACA1" d="M1647.8,1592.6c0,4.9-4.2,9.5-8.7,9.301c-5-0.2-9.3-4.5-9.3-9.4c0-5.2,4.2-9.6,9.101-9.5
		C1643.9,1583.1,1647.8,1587.3,1647.8,1592.6z"/>
	<path fill="#AFACA1" d="M1521.8,1493.8c0-6,3-8.899,9.2-8.899c5.8,0,8.9,3.1,8.8,8.8c-0.1,5.1-4,9.2-8.899,9.2
		C1525.5,1503,1521.7,1499.2,1521.8,1493.8z"/>
	<path fill="#AFACA1" d="M1566.8,1493.9c0,5.399-3.899,9.1-9.2,9c-4.8-0.101-8.699-4.301-8.8-9.4c0-5.6,3-8.6,8.9-8.6
		C1563.8,1484.9,1566.8,1487.8,1566.8,1493.9z"/>
	<path fill="#AFACA1" d="M1106.8,1099.4c0,5.3-4.2,9.699-9.2,9.5c-4.899-0.101-8.8-4.301-8.8-9.4s4-9.7,8.601-9.6
		C1102.6,1090.1,1106.7,1094.2,1106.8,1099.4z"/>
	<path fill="#AFACA1" d="M1241.8,1099.8c0,4.7-3.899,9-8.3,9.101c-5,0.199-9.7-4.101-9.7-9c0-5.2,4.101-9.7,8.8-9.9
		C1237.6,1089.8,1241.8,1094.2,1241.8,1099.8z"/>
	<path fill="#AFACA1" d="M1530.7,1436.9c-6.101,0-9-2.9-9-9.101c0-5.1,3.7-8.8,8.8-8.899c5.1-0.101,9.1,4.199,9.2,9.5
		C1539.8,1434,1536.7,1437,1530.7,1436.9z"/>
	<path fill="#AFACA1" d="M1566.8,1428.1c0,6-3,8.9-9.2,8.801c-5.8,0-8.899-3.101-8.8-8.801c0.101-5.1,4-9.199,8.9-9.199
		C1563.1,1418.9,1566.8,1422.7,1566.8,1428.1z"/>
	<path fill="#AFACA1" d="M1115.8,1230.7c0-6,3-8.8,9.2-8.8c5.2,0,8.9,3.8,8.8,8.8c-0.1,5.6-3.899,9.3-9.6,9.2
		C1119.2,1239.9,1115.7,1236.1,1115.8,1230.7z"/>
	<path fill="#AFACA1" d="M1178.6,1221.9c6.101,0,9.101,2.8,9.2,8.8c0,5.899-2.899,9.1-8.3,9.2c-5.7,0.1-9.7-3.7-9.7-9.2
		C1169.8,1225.7,1173.6,1222,1178.6,1221.9z"/>
	<path fill="#AFACA1" d="M1205.8,1221.9c6.101,0,9,2.899,9,9.1c0,5.9-3,9-8.6,8.9c-5.3,0-9.5-4.2-9.4-9.2
		C1196.9,1225.6,1200.7,1221.9,1205.8,1221.9z"/>
	<path fill="#AFACA1" d="M1422.5,1436.9c-6,0-8.8-3-8.8-9.2c0-5.8,3.1-8.9,8.7-8.8c5.3,0.1,9.399,4.199,9.3,9.3
		C1431.6,1433,1427.5,1437,1422.5,1436.9z"/>
	<path fill="#AFACA1" d="M1503.7,1403.9c-6.101,0-8.9-3-8.9-9.101c0-4.899,4.101-8.899,9-8.899c5.101,0,9,4.199,9,9.6
		C1512.7,1401.1,1509.6,1404,1503.7,1403.9z"/>
	<path fill="#AFACA1" d="M1422.3,1403.9c-5.7,0-8.5-2.7-8.5-8.301c0-6.3,3-9.699,8.5-9.699c5.3,0,9.3,4,9.5,9.3
		C1431.9,1400.7,1428.4,1403.9,1422.3,1403.9z"/>
	<path fill="#AFACA1" d="M1368,1403.9c-4.7,0-8.9-3.9-9.1-8.301c-0.2-4.6,5-9.8,9.699-9.699c5.101,0.1,9.2,4,9.301,8.8
		C1377.9,1399.9,1373.5,1404,1368,1403.9z"/>
	<path fill="#AFACA1" d="M1098.2,1221.9c4.899,0.1,8.7,4.1,8.6,9.199c-0.1,5.101-4.399,8.9-9.8,8.801c-5.4-0.101-8.3-3.4-8.2-9.4
		C1088.8,1224.7,1091.9,1221.8,1098.2,1221.9z"/>
	<path fill="#AFACA1" d="M1268.8,1099.6c0,4.9-4.2,9.4-8.6,9.301c-4.9-0.101-9.3-4.5-9.4-9.4c0-5,4.5-9.7,9.2-9.6
		C1265,1090.1,1268.8,1094.3,1268.8,1099.6z"/>
	<path fill="#AFACA1" d="M1232.6,1024.9c6.2,0,9.2,2.8,9.2,8.8s-3.1,9.2-9,9.2c-4.8,0-9.1-4.301-9-9.101
		C1223.8,1028.2,1227,1025,1232.6,1024.9z"/>
	<path fill="#AFACA1" d="M1341.4,1173.9c-5.101,0-9.4-3.801-9.601-8.4c-0.1-5,4.601-9.7,9.601-9.6c4.8,0.1,9.199,4.3,9.3,8.899
		C1350.9,1169.8,1346.5,1173.9,1341.4,1173.9z"/>
	<path fill="#AFACA1" d="M1241.8,1165c0,6.1-2.899,9-9.1,9c-5.8,0-9.101-3.4-8.9-9.2c0.101-4.6,4.2-8.7,8.9-8.7
		C1238.5,1155.9,1241.8,1159.1,1241.8,1165z"/>
	<path fill="#AFACA1" d="M1178.3,1173.9c-5.7-0.101-8.7-3.2-8.6-8.9c0.1-5,4.2-9.1,9-9.1c5.1,0,9.1,4.199,9,9.399
		C1187.7,1171.3,1184.6,1174,1178.3,1173.9z"/>
	<path fill="#AFACA1" d="M1268.8,1198.1c0,6-3,8.9-9.1,8.9c-4.9,0-8.9-4.2-8.9-9.1c0-5.101,4.3-9,9.601-8.9
		C1265.9,1189,1268.8,1192.1,1268.8,1198.1z"/>
	<path fill="#AFACA1" d="M1295.8,1132.3c0,5.8-2.7,8.2-8.2,8.7c-7,0.6-9.699-4-9.6-8.5c0-6.2,3.2-9.4,9.5-9.4
		C1291.7,1123.1,1296.6,1125.8,1295.8,1132.3z"/>
	<path fill="#AFACA1" d="M1097.6,1287.9c6,0,9.101,2.8,9.2,8.3c0.101,5.399-3.8,9.6-8.899,9.7c-4.9,0.1-9.101-4-9.101-8.801
		C1088.7,1291,1091.6,1288,1097.6,1287.9z"/>
	<path fill="#AFACA1" d="M1016.5,1287.9c5.9,0,9.5,3.1,9.1,8.5c-0.399,6.199-3.3,9.6-9.699,9.3c-5.4-0.2-8.801-2.9-8.301-9.8
		C1008.1,1290.5,1010.7,1287.9,1016.5,1287.9z"/>
	<path fill="#AFACA1" d="M1187.8,1034c0,4.9-4.1,8.9-9,8.9c-5.1,0-9-4.2-9-9.601c0-5.5,3.101-8.5,9.101-8.399
		C1184.9,1025,1187.8,1027.9,1187.8,1034z"/>
	<path fill="#AFACA1" d="M1115.8,1033.9c0-6,3-8.9,9.101-8.9c5.899,0,9,3,8.899,8.6c0,5.301-4.1,9.5-9.1,9.4
		C1119.8,1042.9,1115.8,1038.7,1115.8,1033.9z"/>
	<path fill="#AFACA1" d="M1071,1024.9c5.6,0,8.7,3.199,8.8,8.899c0.101,4.8-4.1,9.101-9,9.101c-5.899,0-9-3.2-9-9.2
		C1061.8,1027.8,1064.8,1024.9,1071,1024.9z"/>
	<path fill="#AFACA1" d="M1124.8,1254.9c5.9,0,9,3,8.9,8.6c0,5.3-4.101,9.5-9.101,9.4c-4.8-0.101-8.899-4.2-8.899-9.101
		C1115.8,1257.8,1118.7,1254.9,1124.8,1254.9z"/>
	<path fill="#AFACA1" d="M1187.8,1263.9c0,5.3-3.899,9.199-9.2,9.1c-4.899-0.1-8.8-4.2-8.8-9.3c-0.1-5.5,3.101-8.7,8.9-8.7
		C1184.8,1254.9,1187.7,1257.8,1187.8,1263.9z"/>
	<path fill="#AFACA1" d="M1368.4,1550.9c6.5-0.801,8.8,3.899,9.3,8.3c0.5,4.7-4.9,9.8-9.601,9.7c-4.3-0.101-9.6-5.101-9.1-9.101
		C1359.6,1554.4,1363.2,1549.7,1368.4,1550.9z"/>
	<path fill="#AFACA1" d="M1476.5,1699.9c-5.9-0.101-8.8-3.101-8.7-9.301c0.101-5.8,3.101-8.8,8.8-8.699c5.301,0.1,9.4,4.199,9.2,9.3
		C1485.6,1696.1,1481.4,1700,1476.5,1699.9z"/>
	<path fill="#AFACA1" d="M1503.6,1699.9c-6,0-8.899-3-8.8-9.2c0.101-5.7,3.3-8.9,8.8-8.8c5.101,0.1,9.2,4,9.2,8.899
		C1512.8,1696.3,1509,1700,1503.6,1699.9z"/>
	<path fill="#AFACA1" d="M1530.8,1699.9c-6.1,0-9.1-2.9-9-9.101c0-5.3,3.7-9,8.7-8.899c5.5,0.1,9.4,3.899,9.3,9.199
		C1539.7,1696.3,1536,1699.9,1530.8,1699.9z"/>
	<path fill="#AFACA1" d="M1557.9,1699.9c-5.5,0-9.101-3.4-9.101-8.601c0-5.5,3.8-9.399,9-9.399s9,3.699,9,8.8
		C1566.8,1696.9,1563.9,1699.9,1557.9,1699.9z"/>
	<path fill="#AFACA1" d="M1584.7,1699.9c-5.101,0-8.8-3.7-8.9-8.9c-0.1-5.1,4.2-9.1,9.5-9.1c5.5,0,8.5,3.199,8.5,9.1
		C1593.8,1697.1,1590.8,1700,1584.7,1699.9z"/>
	<path fill="#AFACA1" d="M1620.8,1690.8c0,6.101-2.899,9.101-8.899,9.101c-4.9,0-9-4-9.101-8.801c-0.1-5,4.101-9.1,9.4-9.199
		C1617.8,1681.9,1620.7,1685,1620.8,1690.8z"/>
	<path fill="#AFACA1" d="M1638.6,1517.9c6.101,0,9.101,2.899,9.101,8.899c0,5.9-3.2,9.101-9.101,9.101c-4.6,0-8.8-4.101-8.899-8.7
		C1629.6,1521.4,1632.9,1518,1638.6,1517.9z"/>
	<path fill="#AFACA1" d="M1593.8,1527.2c0,4.8-4.3,8.8-9.2,8.8c-5.1-0.1-8.899-4.3-8.8-9.7c0.101-5.5,3.3-8.3,9.2-8.3
		C1591,1518,1593.8,1521,1593.8,1527.2z"/>
	<path fill="#AFACA1" d="M1450,1517.9c5.6,0,8.7,3.199,8.8,8.899c0.101,4.8-4.1,9.101-9,9.101c-5.899,0-9-3.2-9-9.2
		C1440.8,1520.8,1443.8,1517.9,1450,1517.9z"/>
	<path fill="#AFACA1" d="M1584.7,1633.9c-5.9,0-8.9-3-8.9-8.601c0-5.3,4.2-9.5,9.2-9.399c4.8,0.1,8.8,4.199,8.8,9.1
		C1593.7,1631.1,1590.8,1634,1584.7,1633.9z"/>
	<path fill="#AFACA1" d="M1295.8,1625.4c0,5.699-2.7,8.5-8.3,8.5c-6.3,0-9.7-3-9.7-8.5c0-5.301,3.9-9.301,9.2-9.5
		C1292.5,1615.8,1295.8,1619.3,1295.8,1625.4z"/>
	<path fill="#AFACA1" d="M1476.6,1666.9c-6,0-8.899-3-8.8-9.2c0-5.601,3.2-8.7,8.9-8.8c4.8-0.101,9.1,4.1,9.1,9
		C1485.8,1663.8,1482.6,1667,1476.6,1666.9z"/>
	<path fill="#AFACA1" d="M1566.8,1657.8c0,6.2-2.8,9.101-8.8,9.2c-6,0-9.1-2.8-9.2-8.3c-0.1-5.4,3.8-9.601,8.9-9.7
		C1562.5,1648.9,1566.7,1652.9,1566.8,1657.8z"/>
	<path fill="#AFACA1" d="M1593.8,1658.1c0,6-3,8.9-9.2,8.9c-5.699,0-8.899-3.2-8.8-8.7c0.101-5.1,4-9.2,8.9-9.3
		C1589.9,1648.9,1593.8,1652.7,1593.8,1658.1z"/>
	<path fill="#AFACA1" d="M1620.8,1658.2c0,6-3.1,8.8-9.3,8.8c-5.5-0.1-8.7-3.3-8.7-8.9c0-4.8,4.2-9.199,9-9
		C1616.4,1649.1,1621.7,1652,1620.8,1658.2z"/>
	<path fill="#AFACA1" d="M1666.2,1633.9c-6.101,0-9.7-3.2-9.5-8.801c0.2-5.3,4.2-9.199,9.5-9.199c5.6,0,8.5,3.399,8.5,9.699
		C1674.7,1631.3,1672,1633.9,1666.2,1633.9z"/>
	<path fill="#AFACA1" d="M1322.8,1592.5c0,4.9-4.1,9.4-8.6,9.4c-4.5-0.101-9.4-5-9.4-9.5c0-4.301,4.8-9.4,8.9-9.5
		C1319.4,1582.8,1322.8,1586.4,1322.8,1592.5z"/>
	<path fill="#AFACA1" d="M1566.8,1460.9c0,5.6-3.5,9-9.1,9c-5.2,0-9-3.601-8.9-8.7c0.101-5.5,3.601-9.3,8.9-9.3
		C1563.3,1451.9,1566.8,1455.4,1566.8,1460.9z"/>
	<path fill="#AFACA1" d="M1530.8,1469.9c-5.6,0-9-3.5-9-9.101c0-5.5,3.601-9,9.2-8.899c5.1,0,8.9,3.8,8.8,8.8
		C1539.7,1466.2,1536,1469.9,1530.8,1469.9z"/>
	<path fill="#AFACA1" d="M1395.6,1484.9c4.601,0,9,4,9.2,8.3c0.2,5.399-4,9.7-9.399,9.7c-5.7,0-8.601-3.101-8.601-9.4
		C1386.8,1487.8,1389.7,1485,1395.6,1484.9z"/>
	<path fill="#AFACA1" d="M1259.7,1666.9c-5.3,0-9.101-3.9-8.9-9.301c0.101-4.6,4.3-8.699,8.9-8.699c5.899-0.101,9.1,3.1,9.1,9
		C1268.8,1664.1,1265.8,1667,1259.7,1666.9z"/>
	<path fill="#AFACA1" d="M1322.8,1165.5c0,5.9-2.7,8.5-8.8,8.5c-4.9,0-9-4-9.2-8.8c-0.2-4.7,4.2-9.2,8.9-9.2
		C1319.9,1155.9,1322.8,1158.9,1322.8,1165.5z"/>
	<path fill="#AFACA1" d="M1531,1666.9c-6,0-9.2-2.801-9.2-8.4c0-5.4,4-9.6,9.101-9.6c4.899,0,8.899,4.1,8.899,9.199
		C1539.9,1663.8,1536.8,1666.9,1531,1666.9z"/>
	<path fill="#AFACA1" d="M1503.8,1666.9c-6.1,0-9-2.9-9-9c0-5.301,3.9-9.101,9.2-9c4.6,0.1,8.7,4.199,8.8,8.8
		C1512.9,1663.6,1509.6,1666.9,1503.8,1666.9z"/>
	<path fill="#AFACA1" d="M1295.8,1658.4c0,5.699-2.899,8.5-8.8,8.6c-4.9,0-9.4-4.2-9.2-8.7c0.2-5.1,4.101-9.2,8.9-9.3
		C1292.8,1648.9,1295.8,1651.9,1295.8,1658.4z"/>
	<path fill="#AFACA1" d="M1647.8,1691.2c-0.1,5.8-3.2,8.899-8.8,8.8c-5.1-0.1-9.2-4.1-9.2-9c0-5.1,4.2-9.1,9.7-9
		C1645,1682,1647.8,1685.2,1647.8,1691.2z"/>
	<path fill="#AFACA1" d="M1214.8,1165c0,6-3,8.9-9.1,8.9c-5.8,0-9-3.4-8.9-9.301c0.101-4.6,4.2-8.699,8.9-8.699
		C1210.9,1155.9,1214.8,1159.7,1214.8,1165z"/>
	<path fill="#AFACA1" d="M1151.7,1173.9c-5.9,0-9-3-9-8.601c0-5.1,3.899-9.3,8.8-9.399c5.1-0.101,9.2,4.1,9.2,9.399
		C1160.8,1171,1157.7,1174,1151.7,1173.9z"/>
	<path fill="#AFACA1" d="M1124.7,1173.9c-5.9,0-9-3-8.9-8.601c0-5.1,3.9-9.3,8.8-9.399c5.101-0.101,9.2,4.1,9.2,9.5
		C1133.8,1171,1130.7,1174,1124.7,1173.9z"/>
	<path fill="#AFACA1" d="M1268.8,1230.9c0,6-2.899,9.1-8.5,9c-5.3,0-9.6-4.2-9.5-9.2c0.101-4.8,4.3-8.7,9.4-8.8
		C1265.8,1221.9,1268.8,1225,1268.8,1230.9z"/>
	<path fill="#AFACA1" d="M1214.8,1198c0,6.1-3,9-9.1,8.9c-5.101,0-8.8-3.7-8.9-8.801c-0.1-4.899,4-9.199,8.9-9.199
		C1211.6,1188.9,1214.8,1192.1,1214.8,1198z"/>
	<path fill="#AFACA1" d="M1647.8,1657.7c0,6.2-2.8,9.2-8.8,9.2c-5.4,0-9.2-3.7-9.2-9c0-4.801,4.3-9,9.101-9
		C1644.5,1649,1647.7,1652.2,1647.8,1657.7z"/>
	<path fill="#AFACA1" d="M1268.8,1691c0,5.9-3,9-8.6,8.9c-5.101,0-9.3-3.9-9.4-8.801c-0.1-5.1,4.101-9.199,9.5-9.199
		C1265.9,1681.9,1268.8,1685,1268.8,1691z"/>
	<path fill="#AFACA1" d="M1530.9,1403.9c-6,0-9.101-2.9-9.101-8.5c0-5.301,4.101-9.601,9.101-9.5c4.899,0.1,8.8,4.199,8.8,9.3
		C1539.8,1400.9,1536.7,1403.9,1530.9,1403.9z"/>
	<path fill="#AFACA1" d="M1476.9,1403.9c-6.101,0-9.101-2.9-9.101-8.9c0-5.3,3.8-9.2,9.101-9.1c4.6,0.1,8.699,4.1,8.899,8.699
		C1485.9,1400.5,1482.6,1403.9,1476.9,1403.9z"/>
	<path fill="#AFACA1" d="M1449.6,1403.9c-6,0-8.899-3-8.8-9.2c0-5.101,3.8-8.8,8.9-8.8c4.8-0.101,9.1,4.199,9.1,9
		C1458.8,1400.8,1455.6,1404,1449.6,1403.9z"/>
	<path fill="#AFACA1" d="M1449.2,1370.9c-5.9,0-8.5-2.7-8.5-8.801c0-4.899,4.2-9.399,8.7-9.199c5.1,0.199,9.199,4.1,9.3,8.899
		C1458.8,1367.9,1455.7,1371,1449.2,1370.9z"/>
	<path fill="#AFACA1" d="M1440.8,1493.9c0-6.101,3-8.9,9.101-8.9c5.1,0,8.8,3.7,8.899,8.8c0.101,4.9-4.1,9.101-8.899,9.2
		C1444,1503,1440.8,1499.8,1440.8,1493.9z"/>
	<path fill="#AFACA1" d="M1476.5,1484.9c5.4,0,9.2,3.6,9.2,9c0,4.8-4.2,9.1-9.101,9c-5.6,0-8.899-3.2-8.899-8.7
		C1467.7,1488,1470.6,1485,1476.5,1484.9z"/>
	<path fill="#AFACA1" d="M1584.6,1484.9c6.101,0,9.101,2.8,9.2,8.899c0,5.4-3.7,9.2-9.1,9.101c-4.8,0-9.101-4.301-8.9-9.2
		C1576,1489.4,1578.9,1484.1,1584.6,1484.9z"/>
	<path fill="#AFACA1" d="M1620.8,1493.7c0.9,6.1-4.1,9-8.899,9.2c-4.801,0.199-9.101-4.101-9.101-9c0-5.2,3.601-8.9,8.7-9
		C1617.7,1484.9,1620.7,1487.7,1620.8,1493.7z"/>
	<path fill="#AFACA1" d="M1647.8,1493.7c0.9,6.2-4.3,9-8.899,9.2c-4.801,0.199-9.101-4.2-9.101-9c0-5.101,3.7-8.9,8.8-9
		C1644.7,1484.9,1647.7,1487.7,1647.8,1493.7z"/>
	<path fill="#AFACA1" d="M1612,1436.9c-5.5,0-9.2-3.601-9.3-9c0-4.801,4.2-9.101,9.1-9c5.7,0,8.9,3.199,8.9,8.699
		C1620.8,1433.9,1618,1436.9,1612,1436.9z"/>
	<path fill="#AFACA1" d="M1584.9,1436.9c-6,0-9.2-3.101-9.2-9c0-4.801,4.3-9,9.1-9c5.101,0.1,8.9,3.8,8.9,8.8
		C1593.8,1433.9,1590.9,1436.9,1584.9,1436.9z"/>
	<path fill="#AFACA1" d="M1503.8,1436.9c-6.1,0-9.1-2.9-9.1-8.9c0-5.3,3.899-9.1,9.2-9.1c4.6,0.1,8.699,4.1,8.8,8.8
		C1512.9,1433.5,1509.6,1436.9,1503.8,1436.9z"/>
	<path fill="#AFACA1" d="M1476.6,1436.9c-6,0-8.8-3-8.8-9.2c0-5.601,3.2-8.7,8.9-8.8c4.8-0.101,9.1,4.199,9.1,9
		C1485.8,1433.3,1482,1437,1476.6,1436.9z"/>
	<path fill="#AFACA1" d="M1449.8,1436.9c-6.1,0-9-2.9-9-9c0-5.9,3.3-9.101,9.2-9c4.6,0.1,8.7,4.199,8.8,8.8
		C1458.9,1433,1455.1,1436.9,1449.8,1436.9z"/>
	<path fill="#AFACA1" d="M1322.8,1428.4c0,5.699-2.899,8.5-8.8,8.6c-4.9,0-9-3.9-9.2-8.8c-0.2-4.9,4.2-9.2,9.4-9.2
		C1319.9,1418.9,1322.8,1422,1322.8,1428.4z"/>
	<path fill="#AFACA1" d="M1295.8,1428c0,6.1-3,8.9-9.1,8.9c-4.601,0-8.9-4.101-8.9-8.5c0-5.5,4.101-9.5,9.601-9.5
		C1292.9,1419,1295.8,1422.1,1295.8,1428z"/>
	<path fill="#AFACA1" d="M1467.8,1461.2c0-6,2.8-9.2,8.4-9.2c5.399,0,9.6,3.9,9.6,9c0,4.9-4.1,8.9-9.2,9
		C1470.9,1470,1467.8,1467,1467.8,1461.2z"/>
	<path fill="#AFACA1" d="M1620.8,1461.2c0,5.8-3.1,8.899-8.8,8.8c-5.1-0.1-9.2-4.1-9.2-9c0-5.1,4.2-9.1,9.601-9
		C1617.9,1452,1620.8,1455.2,1620.8,1461.2z"/>
	<path fill="#AFACA1" d="M1647.8,1460.7c0.101,6-2.8,9.2-8.3,9.2c-5.4,0.1-9.7-3.9-9.7-9c0-4.9,4-8.9,9.2-9
		C1644.6,1451.8,1647.7,1454.9,1647.8,1460.7z"/>
	<path fill="#AFACA1" d="M1674.8,1461c0,5.9-3,9-8.6,9c-5.101,0-9.3-3.9-9.4-8.8c-0.1-5.101,4.101-9.2,9.5-9.2
		C1671.8,1451.9,1674.8,1455,1674.8,1461z"/>
	<path fill="#AFACA1" d="M1557.9,1403.9c-6,0-9.101-2.9-9.101-8.5c0-5.301,4.101-9.601,9.2-9.5c4.9,0.1,8.8,4.199,8.8,9.3
		C1566.8,1400.9,1563.7,1403.9,1557.9,1403.9z"/>
	<path fill="#AFACA1" d="M1440.8,1461c0-6,2.9-9.1,8.5-9c5.3,0,9.601,4.1,9.5,9.2c-0.1,4.899-4.3,8.8-9.399,8.8
		C1443.8,1470,1440.8,1466.9,1440.8,1461z"/>
	<path fill="#AFACA1" d="M1674.8,1592.4c0,5-4.1,9.5-8.6,9.5c-4.5-0.101-9.5-5-9.4-9.5c0-4.7,4.4-9.301,8.9-9.4
		C1670.6,1582.9,1674.8,1587.2,1674.8,1592.4z"/>
	<path fill="#AFACA1" d="M1295.8,1263.7c0,6.2-2.8,9.1-8.8,9.2c-5,0.1-9.1-4.2-9.2-9.4c0-4.6,4.4-8.6,9.4-8.6
		C1292.9,1255,1295.8,1258,1295.8,1263.7z"/>
	<path fill="#AFACA1" d="M1205.6,1254.9c6.101,0,9.101,2.899,9.2,8.899c0,5.4-3.7,9.2-9.1,9.101c-4.8,0-9.101-4.301-8.9-9.2
		C1197,1259.4,1199.9,1254.1,1205.6,1254.9z"/>
	<path fill="#AFACA1" d="M1152.5,1254.9c5.4,0.199,8.4,3.3,8.3,8.8c-0.1,5.3-4.399,9.399-9.5,9.2c-5-0.2-8.7-4.7-8.5-10.2
		C1143,1257.5,1146.4,1254.8,1152.5,1254.9z"/>
	<path fill="#AFACA1" d="M1088.8,1264c0-6.1,2.9-9.1,9-9.1c5.9,0,9.101,3.199,9,9.1c-0.1,4.9-4.3,9-9.2,8.9
		C1092.4,1272.8,1088.8,1269.1,1088.8,1264z"/>
	<path fill="#AFACA1" d="M1061.8,1263.9c0-6.101,3-8.9,9.101-8.9c5.1,0,8.8,3.7,8.899,8.8c0.101,4.9-4.1,9.101-8.899,9.2
		C1064.9,1273,1061.8,1269.8,1061.8,1263.9z"/>
	<path fill="#AFACA1" d="M1503.6,1633.9c-6,0-8.899-3-8.8-9.2c0-4.5,4.2-8.9,8.601-8.8c5.5,0.1,9.5,4.199,9.399,9.699
		C1512.7,1631.1,1509.6,1634,1503.6,1633.9z"/>
	<path fill="#AFACA1" d="M1530.7,1633.9c-5.9,0-9-3-8.9-8.601c0-5.1,3.9-9.3,8.8-9.399c5.101-0.101,9.2,4.1,9.2,9.5
		C1539.8,1631,1536.7,1634,1530.7,1633.9z"/>
	<path fill="#AFACA1" d="M1557.9,1633.9c-6,0-9.101-2.9-9.101-8.5c0-5.301,4.101-9.601,9.2-9.5c4.9,0.1,8.8,4.199,8.8,9.3
		C1566.8,1630.9,1563.7,1633.9,1557.9,1633.9z"/>
	<path fill="#AFACA1" d="M1611.9,1633.9c-6.101,0-9-2.9-9.101-8.9c0-4.8,4.2-9.1,9-9.1c4.9,0,9,4.1,9,8.899
		C1620.8,1631,1617.9,1633.9,1611.9,1633.9z"/>
	<path fill="#AFACA1" d="M1639.1,1633.9c-6.3,1-9.1-4.4-9.3-8.9c-0.2-5,4.2-9.1,9.5-9.1c4.9,0,8.5,4,8.5,9.3
		C1647.7,1631.1,1644.8,1634,1639.1,1633.9z"/>
	<path fill="#AFACA1" d="M1566.8,1526.3c0.101,5.4-3.899,9.7-9,9.7c-4.899,0-8.899-4-9-9.1c-0.1-5.7,2.9-8.801,8.7-8.9
		C1563.5,1517.9,1566.7,1520.7,1566.8,1526.3z"/>
	<path fill="#AFACA1" d="M1611.8,1517.9c6.101,0,9,3,8.9,9.1c0,5.1-3.7,8.8-8.8,8.9c-4.9,0.1-9.2-4-9.2-8.9
		C1602.7,1521.1,1605.9,1517.9,1611.8,1517.9z"/>
	<path fill="#AFACA1" d="M1674.8,1526.3c0,6.2-3.1,9.7-8.6,9.601c-5.3-0.101-9.3-4-9.4-9.301c-0.1-5.399,3.3-8.699,9-8.699
		C1671.7,1517.9,1674.8,1520.8,1674.8,1526.3z"/>
	<path fill="#AFACA1" d="M1152,1287.9c5.8,0.1,8.9,3.1,8.8,8.8c-0.1,5.1-4.1,9.2-9,9.2c-5.1,0-9.1-4.2-9-9.601
		C1142.8,1290.8,1146,1287.9,1152,1287.9z"/>
	<path fill="#AFACA1" d="M1133.8,1296.4c0,5.399-4,9.6-9.1,9.6c-4.9,0-8.8-4.1-8.9-9.2c-0.1-5.7,3-8.7,8.8-8.8
		C1130.6,1287.9,1133.7,1290.8,1133.8,1296.4z"/>
	<path fill="#AFACA1" d="M980.8,1296.3c0-5.6,2.8-8.3,8.5-8.3c5.601,0,9.7,3.7,9.5,8.8c-0.2,5.3-4.2,9.2-9.5,9.2
		C983.8,1306,980.7,1302.5,980.8,1296.3z"/>
	<path fill="#AFACA1" d="M1467.8,1559.8c0-5.899,2.8-8.899,8.5-8.899c6.4,0,9.5,2.8,9.5,8.5c0,5.3-4.2,9.6-9.1,9.5
		C1471.8,1568.8,1467.7,1564.7,1467.8,1559.8z"/>
	<path fill="#AFACA1" d="M1268.8,1066.5c0,5.4-3.399,9.6-8.3,9.3c-6.3-0.3-9.5-3.3-9.5-9.5c0-4.6,2.6-9.1,9.6-8.5
		C1266.1,1058.3,1268.8,1060.8,1268.8,1066.5z"/>
	<path fill="#AFACA1" d="M1097.2,1057.9c6.399,0,9.5,2.8,9.6,8.5c0,5.3-4.1,9.6-9.1,9.5c-4.8-0.101-8.9-4.2-8.9-9.101
		C1088.8,1060.9,1091.6,1058,1097.2,1057.9z"/>
	<path fill="#AFACA1" d="M1070.5,1057.9c6.4,0,9.4,3.1,9.2,9.3c-0.101,4.7-4.4,8.7-9.4,8.7c-4.5,0-8.6-4.4-8.6-9.4
		C1061.8,1060.8,1064.8,1057.9,1070.5,1057.9z"/>
	<path fill="#AFACA1" d="M1206.4,1140.9c-6.4,0-9.601-2.7-9.601-8.4c0-5.3,4-9.6,9-9.6c4.8,0,9,4.199,9,9
		C1214.8,1137.9,1211.9,1140.9,1206.4,1140.9z"/>
	<path fill="#AFACA1" d="M1151.6,1024.9c6,0,9.101,2.899,9.2,8.399c0,5.4-4,9.601-9.1,9.601c-4.9,0-8.8-4.101-8.9-9.2
		C1142.7,1028,1145.8,1025,1151.6,1024.9z"/>
	<path fill="#AFACA1" d="M1088.8,1033.9c0-6.101,3-9,9.101-8.9c5.8,0,9.1,3.4,8.899,9.2c-0.1,4.6-4.2,8.7-8.8,8.8
		C1092.7,1043,1088.8,1039.2,1088.8,1033.9z"/>
	<path fill="#AFACA1" d="M1115.8,1000.7c0.101-6,3.101-8.8,9.3-8.7c5.2,0.1,8.801,3.8,8.7,8.9c-0.1,5-4.2,9.1-9,9.1
		C1119.4,1009.9,1115.7,1006.1,1115.8,1000.7z"/>
	<path fill="#AFACA1" d="M1097.9,991.9c5.1,0,8.8,3.699,8.899,8.8c0.101,4.899-4,9.1-8.899,9.2c-5.9,0.1-9.101-3.101-9.101-9.101
		S1091.7,991.9,1097.9,991.9z"/>
	<path fill="#AFACA1" d="M1214.8,1034c0,5.3-3.899,9.1-9.3,8.9c-4.6-0.101-8.7-4.2-8.7-8.9c-0.1-5.9,3.101-9.1,9-9.1
		C1211.9,1025,1214.8,1027.9,1214.8,1034z"/>
	<path fill="#AFACA1" d="M1322.8,1658.7c0,5.5-3.1,8.3-9.1,8.3c-4.7,0-8.9-4.3-8.9-9.1c0.101-4.801,4.4-9.2,9.2-8.9
		C1321.3,1649.4,1323.4,1653.4,1322.8,1658.7z"/>
	<path fill="#AFACA1" d="M1701.8,1559.5c0,6.1-3.2,9.6-8.7,9.5c-4.5-0.1-9.699-5.2-9.199-9.6c0.5-4.601,2.699-9.101,9.699-8.5
		C1699.1,1551.3,1701.8,1553.7,1701.8,1559.5z"/>
	<path fill="#AFACA1" d="M1701.8,1592.5c0,5-4.1,9.5-8.6,9.4c-4.5-0.101-9.4-5-9.4-9.5c0-4.301,4.9-9.4,9-9.4
		C1697.7,1582.9,1701.8,1587.2,1701.8,1592.5z"/>
	<path fill="#AFACA1" d="M1666,1550.9c6,0,8.7,2.6,8.7,8.5c0,5-4,9.699-8.5,9.399c-6.2-0.399-9.101-3.2-9.5-9.5
		C1656.6,1554,1660.1,1551,1666,1550.9z"/>
	<path fill="#AFACA1" d="M1467.8,1526.9c0-6.101,3-9,9.101-8.9c5.6,0,8.8,3.2,8.8,8.9c0.1,4.899-4.2,9.1-9,9.1
		C1471.8,1535.9,1467.8,1531.8,1467.8,1526.9z"/>
	<path fill="#AFACA1" d="M1295.8,1690.9c0,6-2.899,9.1-8.5,9.1c-5.1,0-9.6-4.1-9.5-8.7c0.101-5.3,4.101-9.3,9.3-9.3
		C1292.8,1681.9,1295.8,1685,1295.8,1690.9z"/>
	<path fill="#AFACA1" d="M1322.8,1691.7c0,5.3-3.2,8.3-8.7,8.3c-5.1-0.1-9.199-4-9.3-8.9c-0.1-5,4.3-9.1,9.601-9.1
		C1320.1,1682,1322.8,1685.1,1322.8,1691.7z"/>
	<path fill="#AFACA1" d="M1386.8,1526.4c0-5.9,2.7-8.5,8.8-8.4c4.9,0,9.301,4.2,9.2,8.8c-0.2,5.3-4.2,9.2-9.399,9.2
		C1389.8,1536,1386.8,1532.6,1386.8,1526.4z"/>
	<path fill="#AFACA1" d="M1368.6,1517.9c4.9,0,9.101,4.1,9.2,8.899c0.101,4.7-4.8,9.3-9.7,9.101c-4.399-0.2-9.3-5.101-9.199-9.2
		C1359.1,1521.5,1363.1,1517.9,1368.6,1517.9z"/>
	<path fill="#AFACA1" d="M1341.2,1550.9c5,0,9.5,4,9.5,8.5s-5,9.5-9.5,9.5c-4.3,0-9.4-4.801-9.5-8.9
		C1331.7,1555.1,1336,1550.9,1341.2,1550.9z"/>
	<path fill="#AFACA1" d="M1512.8,1559.2c0.101,5.399-4,9.7-9,9.7c-4.8,0-8.899-4.2-9-9.2c-0.1-5.4,2.8-8.7,7.7-8.8
		C1509.5,1550.8,1512.7,1553.4,1512.8,1559.2z"/>
	<path fill="#AFACA1" d="M1530.3,1550.9c6.4,0,9.5,2.8,9.5,8.6c0,5.1-4,9.2-8.8,9.4c-5,0.1-9.2-4.2-9.2-9.5
		C1521.8,1553.9,1524.8,1550.9,1530.3,1550.9z"/>
	<path fill="#AFACA1" d="M1007.8,1329.3c0-5,4.2-9.5,8.7-9.399c4.6,0.1,9.4,5.1,9.3,9.6c-0.1,4.3-5,9.4-9.1,9.4
		C1011.7,1338.9,1007.8,1334.7,1007.8,1329.3z"/>
	<path fill="#AFACA1" d="M1070.2,1370.9c-5.601,0-8.5-3-8.5-8.9c0-4.8,4-9,8.899-9.1c4.7-0.101,9.101,4.199,9.101,9
		C1079.8,1368.1,1076.8,1370.9,1070.2,1370.9z"/>
	<path fill="#AFACA1" d="M1097.1,1370.9c-5.399,0-8.399-3.101-8.3-8.601c0-5.1,4-9.2,8.9-9.3c5-0.1,9.2,4.2,9.1,9.6
		C1106.7,1368.2,1103.6,1371,1097.1,1370.9z"/>
	<path fill="#AFACA1" d="M1151.9,1370.9c-6,0-9.101-2.9-9.101-8.5c0-5.301,4.2-9.7,9.2-9.5c4.9,0.199,8.8,4.3,8.8,9.399
		C1160.8,1368,1157.7,1371,1151.9,1370.9z"/>
	<path fill="#AFACA1" d="M1395.4,1370.9c-6,0-8.301-2.7-8.7-8.601c-0.4-6.6,4-8.8,8.399-9.3c4.7-0.5,10.101,4.9,9.601,9.6
		C1404.2,1366.9,1401.9,1371.8,1395.4,1370.9z"/>
	<path fill="#AFACA1" d="M1422.2,1370.9c-5.9,0-8.5-2.7-8.4-8.801c0-4.899,4.2-9.3,8.8-9.199c5.301,0.199,9.2,4.199,9.2,9.399
		C1431.8,1367.9,1428.4,1371,1422.2,1370.9z"/>
	<path fill="#AFACA1" d="M1476.1,1370.9c-5.5,0-8.3-3.101-8.3-9.101c0-4.8,4.3-9,9-8.899c4.8,0,9,4.3,9,9.199
		C1485.7,1368.3,1482.7,1371,1476.1,1370.9z"/>
	<path fill="#AFACA1" d="M1503.3,1370.9c-5.5,0-8.5-2.9-8.6-8.4c0-5.3,4.1-9.7,9.1-9.6c4.9,0.1,8.8,4.199,8.9,9.3
		C1512.8,1368.1,1509.7,1370.9,1503.3,1370.9z"/>
	<path fill="#AFACA1" d="M1530.1,1370.9c-5.399,0-8.399-3.101-8.3-8.601c0-5.1,4-9.2,8.8-9.399c5-0.101,9.2,4.199,9.2,9.5
		C1539.7,1368.2,1536.6,1371,1530.1,1370.9z"/>
	<path fill="#AFACA1" d="M1558.3,1370.9c-6.399,0-9.6-2.801-9.5-8.601c0-5.1,3.9-9.2,8.8-9.399c5-0.2,9.2,4.199,9.2,9.5
		C1566.8,1367.9,1563.8,1370.9,1558.3,1370.9z"/>
	<path fill="#AFACA1" d="M1043.2,1370.9c-5.9,0-8.5-2.7-8.4-8.801c0-4.899,4.3-9.3,8.8-9.199c5.301,0.199,9.2,4.199,9.2,9.399
		C1052.8,1367.9,1049.4,1371,1043.2,1370.9z"/>
	<path fill="#AFACA1" d="M1268.8,1263.9c0,6-3.2,9.199-9.1,9.1c-4.7-0.1-8.8-4.2-8.9-8.8c-0.1-4.9,4-9.2,8.8-9.2
		C1265.8,1254.9,1268.7,1257.8,1268.8,1263.9z"/>
	<path fill="#AFACA1" d="M1214.8,1066.7c0,4.7-4,9.1-8.3,9.2c-5.2,0.1-9.7-4-9.7-9c0-5.9,2.9-8.9,8.7-9
		C1211.7,1057.9,1214.7,1060.7,1214.8,1066.7z"/>
	<path fill="#AFACA1" d="M1233.4,1057.9c5.5,0,8.3,3.1,8.3,9c0,4.6-4.101,8.899-8.4,9c-5.2,0-9.7-4.101-9.5-9
		C1224,1062.1,1226.8,1056.9,1233.4,1057.9z"/>
	<path fill="#AFACA1" d="M1178.6,1287.9c6,0,9.101,2.899,9.101,8.399c0,5.2-4,9.601-8.601,9.601c-5.3-0.101-9.3-4-9.399-9.301
		C1169.7,1291,1172.8,1288,1178.6,1287.9z"/>
	<path fill="#AFACA1" d="M1205.9,1287.9c6.1,0,8.899,3,8.899,9.199c0,4.601-4.399,8.9-8.8,8.801c-5.1-0.2-9.2-4.101-9.2-9
		C1196.8,1290.9,1199.8,1287.9,1205.9,1287.9z"/>
	<path fill="#AFACA1" d="M1034.8,1066.3c0-5.8,2.8-8.399,8.9-8.3c5.7,0,9.399,3.3,9,8.6c-0.5,6.101-3.2,9-9.7,9.301
		C1038.6,1076.1,1034.8,1071.3,1034.8,1066.3z"/>
	<path fill="#AFACA1" d="M1322.8,1230.5c0,6.4-2.899,9.5-8.7,9.4c-5.1-0.101-9.199-4.101-9.3-8.9c-0.1-5,4.3-9.1,9.601-9.1
		C1319.8,1222,1322.8,1225,1322.8,1230.5z"/>
	<path fill="#AFACA1" d="M1295.8,1231c0,5.9-3,9-8.6,9c-4.8,0-9.2-3.9-9.4-8.3c-0.2-5.4,4-9.7,9.5-9.7
		C1292.8,1221.9,1295.8,1225,1295.8,1231z"/>
	<path fill="#AFACA1" d="M1151.9,1057.9c5.8,0,8.899,3.1,8.8,8.8c-0.101,4.8-4,9.2-8.4,9.2c-5.5,0.1-9.6-4.101-9.6-9.601
		C1142.8,1060.8,1145.9,1057.9,1151.9,1057.9z"/>
	<path fill="#AFACA1" d="M1187.8,1066.3c0,5.2-3.899,9.601-8.5,9.601c-5.3,0-9.399-4-9.5-9.2c-0.1-5.7,3-8.8,8.8-8.8
		C1184.6,1057.9,1187.7,1060.8,1187.8,1066.3z"/>
	<path fill="#AFACA1" d="M1070.7,1287.9c6,0,9.2,3.199,9.1,9.1c-0.1,4.7-4.2,8.8-8.8,8.9c-4.9,0.1-9.2-4-9.2-8.801
		C1061.7,1290.9,1064.6,1288,1070.7,1287.9z"/>
	<path fill="#AFACA1" d="M1233.1,1140.9c-6.3,0-9.5-3.2-9.399-9.301c0.1-4.699,4.3-8.6,9.3-8.699c4.5-0.101,8.7,4.399,8.6,9.3
		C1241.7,1138,1238.8,1141,1233.1,1140.9z"/>
	<path fill="#AFACA1" d="M1260.2,1140.9c-6.101,0-9.601-3.2-9.4-8.7c0.2-5.3,4.101-9.2,9.4-9.3c4.7-0.101,8.7,4.399,8.6,9.8
		C1268.7,1138.3,1265.9,1141,1260.2,1140.9z"/>
	<path fill="#AFACA1" d="M1314.3,1140.9c-6.2,0-9.6-3.101-9.6-8.601c0.1-4.5,5.1-9.399,9.5-9.399c5.5,0,8.5,3.399,8.5,9.699
		C1322.7,1138.2,1320,1140.9,1314.3,1140.9z"/>
	<path fill="#AFACA1" d="M1295.8,1165.5c0,5.6-3,8.4-8.899,8.4c-4.601,0-9-4-9.101-8.301c-0.1-5.199,4-9.6,8.9-9.699
		C1292.8,1155.9,1295.8,1159,1295.8,1165.5z"/>
	<path fill="#AFACA1" d="M1259.7,1173.9c-4.9,0-8.8-3.601-8.9-8.301c-0.1-5.199,4-9.699,8.9-9.699c5.899,0,9.1,3.199,9.1,9.1
		C1268.7,1171.1,1265.8,1174,1259.7,1173.9z"/>
	<path fill="#AFACA1" d="M1413.8,1494c0-6.1,2.9-9,9.101-9c4.6,0,9,4.2,8.899,8.6c-0.1,5.101-4,9.301-8.8,9.4
		C1416.9,1503,1413.8,1500,1413.8,1494z"/>
	<path fill="#AFACA1" d="M1322.8,1198.4c0,5.5-3,8.5-8.5,8.5c-5.3,0-9.7-4.2-9.5-9.2c0.101-4.9,4.3-8.8,9.4-8.8
		C1319.9,1188.9,1322.8,1192,1322.8,1198.4z"/>
	<path fill="#AFACA1" d="M1295.8,1198c0,5.9-3,9-8.6,8.9c-4.8,0-9.2-3.9-9.4-8.301c-0.2-5.5,4-9.699,9.5-9.699
		C1292.9,1188.9,1295.8,1192,1295.8,1198z"/>
	<path fill="#AFACA1" d="M1241.8,1198.1c0,6-3,8.9-9.2,8.9c-4.8,0-8.899-4.3-8.8-9.2c0.101-4.7,4.2-8.7,8.9-8.8
		C1238.6,1188.9,1241.8,1192.1,1241.8,1198.1z"/>
	<path fill="#AFACA1" d="M1124.5,1140.9c-5.8,0-8.9-3.101-8.8-8.801c0.1-4.8,4.1-9.199,8.5-9.199c5.5,0,9.6,4.1,9.5,9.6
		C1133.7,1138.1,1130.6,1141,1124.5,1140.9z"/>
	<path fill="#AFACA1" d="M1322.8,1395.4c0,5.899-2.7,8.5-8.7,8.5c-5,0-9.399-4.2-9.3-8.7c0.101-5.3,4.101-9.2,9.3-9.3
		C1319.6,1385.8,1322.8,1389.3,1322.8,1395.4z"/>
	<path fill="#AFACA1" d="M1386.8,1395.5c0-6.2,3.101-9.9,8.601-9.5c6.1,0.5,9,3.2,9.399,9.6c0.2,4.301-4.399,8.2-9.1,8.301
		C1389.5,1404,1386.8,1401.4,1386.8,1395.5z"/>
	<path fill="#AFACA1" d="M1152,1140.9c-6,0-9.2-2.801-9.2-8.4c-0.1-5.3,4-9.7,9-9.6c4.8,0,8.9,4.199,9,9.199
		C1160.9,1137.8,1157.8,1140.9,1152,1140.9z"/>
	<path fill="#AFACA1" d="M1178.7,1140.9c-5.9,0-8.9-3-8.9-8.7c0.101-5,4-9.2,8.9-9.3c5-0.101,9.2,4.199,9.1,9.5
		C1187.7,1138.1,1184.6,1141,1178.7,1140.9z"/>
	<path fill="#AFACA1" d="M1124.9,1057.9c5.899,0,9,3,8.899,8.699c-0.1,5-4,9.2-8.899,9.301c-5,0.1-9.2-4.2-9.101-9.5
		C1115.8,1060.8,1118.9,1057.9,1124.9,1057.9z"/>
	<path fill="#AFACA1" d="M1557.7,1550.9c5.899,0,9,2.899,9,8.5c0,5.3-4.3,9.6-9.2,9.399s-8.7-4.3-8.8-9.399
		C1548.7,1553.9,1551.8,1551,1557.7,1550.9z"/>
	<path fill="#AFACA1" d="M1449.6,1550.9c5.801,0,9.2,3.1,9.2,8.399c0,5.2-4.2,9.601-9.1,9.5c-5-0.1-8.9-4.3-8.9-9.5
		C1440.8,1553.5,1443.5,1550.9,1449.6,1550.9z"/>
	<path fill="#AFACA1" d="M1413.8,1559.5c0-5.9,2.7-8.2,8.7-8.6c6.5-0.5,8.9,4.199,9.2,8.399c0.5,5.2-3.9,9.601-8.9,9.601
		S1413.8,1564.7,1413.8,1559.5z"/>
	<path fill="#AFACA1" d="M1386.8,1559.5c0-5.9,2.7-8.6,8.7-8.6c5.9,0,9.2,3,9.3,8.399c0.101,4.5-5,9.8-9.2,9.601
		C1389.6,1568.7,1386.8,1565.6,1386.8,1559.5z"/>
	<path fill="#AFACA1" d="M1386.8,1461.2c0-6,2.8-9.2,8.4-9.2c5.3,0,9.7,4,9.6,9c0,4.8-4.2,8.9-9.2,9
		C1389.9,1470,1386.8,1467,1386.8,1461.2z"/>
	<path fill="#AFACA1" d="M1477,1633.9c-6.2,0-9.2-2.801-9.2-8.9c0-4.6,4.101-9,8.4-9.1c5.3-0.101,9.6,4.1,9.6,9.1
		C1485.7,1630.7,1482.6,1633.9,1477,1633.9z"/>
	<path fill="#AFACA1" d="M1341,1633.9c-4.7,0-9-3.9-9.2-8.301c-0.2-4.399,4.7-9.5,9.3-9.699c4.7-0.101,9.9,5.1,9.7,9.8
		C1350.5,1630.3,1346.1,1634,1341,1633.9z"/>
	<path fill="#AFACA1" d="M1341.2,1370.9c-5,0-9.5-4.2-9.4-8.601c0.101-4.6,5.101-9.399,9.601-9.399c4.5,0.1,9.399,5.1,9.399,9.5
		C1350.7,1367,1346.2,1371,1341.2,1370.9z"/>
	<path fill="#AFACA1" d="M1322.8,1625.5c0,5.9-2.7,8.5-8.7,8.5c-4.899,0-9.399-4.2-9.3-8.7c0.101-5,4.4-9.3,9.4-9.3
		C1319.7,1615.9,1322.8,1619.3,1322.8,1625.5z"/>
	<path fill="#AFACA1" d="M1289.8,1748.9c3.4,2.199,6.4,4.3,6.2,9.399c-0.2,4.3-1.8,7.101-5.4,8.4c-4.399,1.7-9.5-0.7-11.8-4.8
		c-2.1-3.801-0.899-7.2,1.7-10.301c0.9-1.1,2.1-1.899,3.2-2.8C1285.8,1748.9,1287.8,1748.9,1289.8,1748.9z"/>
	<path fill="#AFACA1" d="M1316.8,1748.9c3.4,2.199,6.4,4.3,6.2,9.399c-0.2,4.3-1.8,7.101-5.4,8.4c-4.399,1.7-9.5-0.7-11.8-4.8
		c-2.1-3.801-0.899-7.2,1.7-10.301c0.9-1.1,2.1-1.899,3.2-2.8C1312.8,1748.9,1314.8,1748.9,1316.8,1748.9z"/>
	<path fill="#AFACA1" d="M1341.5,1799.9c-5.3,0.1-9.6-3.9-9.7-8.9c-0.1-5,4.2-9.1,9.5-9.1c5.2,0,9.601,4.199,9.4,9.199
		C1350.6,1795.9,1346.5,1799.8,1341.5,1799.9z"/>
	<path fill="#AFACA1" d="M1341.4,1832.9c-5.301,0-9.601-4-9.601-9s4.3-9,9.601-9c4.8,0,9.5,3.8,9.199,8.3
		C1350.2,1828.5,1348.1,1832.8,1341.4,1832.9z"/>
	<path fill="#AFACA1" d="M1340.6,1847.9c5.601,0,10.101,3.8,10.101,8.5c0,5.199-4.101,9.399-9.2,9.5c-5.3,0.1-9.6-3.9-9.7-8.9
		C1331.7,1852.3,1335.9,1847.9,1340.6,1847.9z"/>
	<path fill="#AFACA1" d="M1368,1832.9c-5.1-0.101-9-3.9-9.2-8.9c-0.1-5,4.101-9.1,9.4-9.1s9.6,4.199,9.5,9.1
		C1377.7,1829,1373.3,1833,1368,1832.9z"/>
	<path fill="#AFACA1" d="M1368.7,1847.9c4.8,0,9,4.1,9,8.899c0.1,5-4.2,9.101-9.5,9.101c-5.101,0-9.101-3.801-9.3-8.801
		C1358.6,1852,1363,1847.9,1368.7,1847.9z"/>
	<path fill="#AFACA1" d="M1422.3,1880.9c6.101,0,9.7,3.3,9.5,8.8c-0.2,5.3-4.2,9.2-9.5,9.2c-5.6,0-8.5-3.4-8.5-9.7
		C1413.8,1883.6,1416.6,1880.9,1422.3,1880.9z"/>
	<path fill="#AFACA1" d="M1386.8,1889.6c0-5.8,2.601-8.699,8.101-8.699c5.899,0,10.1,3.3,9.899,8.3c-0.3,6.3-3.2,9.2-9.5,9.6
		C1389.8,1899.1,1386.8,1895.5,1386.8,1889.6z"/>
	<path fill="#AFACA1" d="M1413.8,1824.1c-0.1-6,2.8-9.199,8.3-9.199c5.4-0.101,9.7,3.899,9.601,9c0,4.899-4.101,8.899-9.2,9
		C1416.9,1833,1413.8,1829.9,1413.8,1824.1z"/>
	<path fill="#AFACA1" d="M1440.8,1823.9c0-5.9,3-9,8.601-9c5.1,0,9.3,3.899,9.399,8.8c0.101,5.1-4.1,9.2-9.399,9.2
		C1443.7,1832.9,1440.8,1829.8,1440.8,1823.9z"/>
	<path fill="#AFACA1" d="M1322.8,1856.4c0,6.399-2.8,9.5-8.5,9.5c-5.3,0-9.6-4.2-9.5-9.2c0.101-4.8,4.3-8.9,9.101-8.8
		C1319.8,1847.9,1322.8,1850.8,1322.8,1856.4z"/>
	<path fill="#AFACA1" d="M1386.8,1856.5c0-5.7,2.9-8.5,8.8-8.6c4.601,0,9,3.899,9.2,8.3c0.2,5.2-3.899,9.7-8.899,9.7
		C1389.7,1866,1386.8,1863,1386.8,1856.5z"/>
	<path fill="#AFACA1" d="M1368.6,1880.9c4.9,0,9.101,4.1,9.101,8.899c0,4.7-4.9,9.3-9.8,9.101c-4.4-0.2-9.601-5.2-9-9.301
		C1359.8,1884.3,1363,1879.8,1368.6,1880.9z"/>
	<path fill="#AFACA1" d="M1341.5,1898.9c-4.3,0.1-9.4-4.601-9.7-8.7c-0.2-4.4,4-9.101,8.3-9.2c5.801-0.2,10.5,3.5,10.7,8.3
		C1350.9,1893.7,1346,1898.8,1341.5,1898.9z"/>
	<path fill="#AFACA1" d="M1322.8,1823.3c0,6.4-2.8,9.601-8.5,9.601c-5.1,0-9.2-3.9-9.399-8.801c-0.2-4.899,4.199-9.199,9.5-9.199
		C1319.7,1814.9,1322.8,1817.9,1322.8,1823.3z"/>
	<path fill="#AFACA1" d="M1295.8,1823.8c0,6-2.899,9.101-8.5,9.101c-5.1,0-9.6-4-9.5-8.7c0.101-5.3,4.101-9.3,9.3-9.3
		C1292.7,1814.8,1295.7,1817.9,1295.8,1823.8z"/>
	<path fill="#AFACA1" d="M1322.8,1791.2c0,5.6-2.899,8.6-8.3,8.7c-5.4,0.1-9.7-3.9-9.7-9c0-5.101,4.3-9.101,9.7-9
		C1320,1782,1322.7,1785.1,1322.8,1791.2z"/>
	<path fill="#AFACA1" d="M1395.4,1814.9c5,0.1,9.199,4,9.3,8.8c0.1,5-4.2,9.2-9.5,9.2c-5.601,0-8.5-3.101-8.5-9.101
		C1386.8,1817.9,1389.8,1814.8,1395.4,1814.9z"/>
	<path fill="#AFACA1" d="M1413.8,1856.8c0-6,3-8.899,9.2-8.899c4.5,0,8.9,4.399,8.8,8.699c-0.2,5.101-4.1,9.2-8.899,9.301
		C1416.9,1866,1413.7,1862.7,1413.8,1856.8z"/>
</g>
<rect x="1696.5" y="1884.5" fill="none" width="364" height="88"/>
<text transform="matrix(1 0 0 1 1696.5 1935.6191)" fill="#81BE41" font-family="'MyriadPro-Regular'" font-size="72">= 0.5 mi</text>
<circle fill="#81BE41" cx="1648.5" cy="1912.75" r="23.75"/>
</svg>
