<?xml version="1.0" encoding="utf-8"?>
<!-- Generator: Adobe Illustrator 16.0.0, SVG Export Plug-In . SVG Version: 6.00 Build 0)  -->
<!DOCTYPE svg PUBLIC "-//W3C//DTD SVG 1.1//EN" "http://www.w3.org/Graphics/SVG/1.1/DTD/svg11.dtd">
<svg version="1.1" id="Layer_2_copy" xmlns="http://www.w3.org/2000/svg" xmlns:xlink="http://www.w3.org/1999/xlink" x="0px"
	 y="0px" width="2000px" height="2000px" viewBox="0 0 2000 2000" enable-background="new 0 0 2000 2000" xml:space="preserve">
<g>
	<g>
		<path fill="#81BE41" d="M897.1,808c5.4,0,10.101,4.2,9.801,8.8c-0.301,5.4-4.2,9.2-9.5,9.2c-5.2,0-9.601-4.2-9.4-9.2
			C888.1,812,892.3,808,897.1,808z"/>
		<path fill="#81BE41" d="M924.6,1023c-5.1,0-10-4.1-9.399-8.5c0.7-5.6,2.8-9.3,9.1-9.4c5.3-0.199,9.601,3.7,9.8,8.801
			C934.1,1018.7,929.8,1023,924.6,1023z"/>
		<path fill="#81BE41" d="M924.5,906c4.3,0,9.4,4.8,9.5,8.9c0.1,4.699-4.4,9.8-8.8,10C920.6,925.1,915,919.8,915.1,915.4
			C915.1,910.9,920.1,906,924.5,906z"/>
		<path fill="#81BE41" d="M897,990c-4.8,0-9-4.2-9-9c0-5,4.3-9.1,9.6-9c5,0,9.9,4.4,9.301,8.8C906,987.5,902.3,990.4,897,990z"/>
		<path fill="#81BE41" d="M924.8,990c-5.2,0-9.6-3.8-9.7-8.4c-0.1-5.3,4.2-9.699,9.601-9.6c5.2,0,9.6,4.4,9.3,9.3
			C933.8,986.1,929.6,990,924.8,990z"/>
		<path fill="#81BE41" d="M1078,817.1c0-6.199,2.9-9.1,8.9-9.1c5.899,0,9.1,2.9,9.1,8.5c0,5.4-4,9.6-9.1,9.5
			C1081.8,825.9,1078,822.2,1078,817.1z"/>
		<path fill="#81BE41" d="M1005.9,841c6,0,9.199,3.2,9.1,9.1c0,4.9-4.4,9.301-9.2,8.9c-5.8-0.5-9.3-3.5-8.8-9.4
			C997.4,843.8,1000,841,1005.9,841z"/>
		<path fill="#81BE41" d="M1086.9,990c-6.101,0-9-3-8.9-9.1c0-5.101,3.7-8.801,8.9-8.9c5.1-0.1,9.1,4.2,9.1,9.5
			C1096,987.1,1092.9,990,1086.9,990z"/>
		<path fill="#81BE41" d="M1033.1,906c4.801,0.1,9,4.4,8.9,9.2c-0.1,5.3-4.3,10.1-9.1,9.5c-5.101-0.601-9.7-3.4-9-9.9
			C1024.4,910.2,1028.3,905.9,1033.1,906z"/>
		<path fill="#81BE41" d="M1150,1013.9c0,6.1-2.9,9-8.9,9.1c-5.3,0-9.1-3.8-9.1-9.1c0.1-5.2,4-8.9,9.4-8.9
			C1146.9,1005,1150,1008.2,1150,1013.9z"/>
		<path fill="#81BE41" d="M897.7,873.4c4.399,0.1,9.3,5,9.3,9.1c0,4.7-5.3,9.7-9.9,9.5c-4.3-0.3-9.199-5.3-9.1-9.3
			C888.2,877.5,892.7,873.2,897.7,873.4z"/>
		<path fill="#81BE41" d="M924.5,1038c5.3,0,9.6,4.2,9.5,9.1c-0.1,5-4.4,9-9.7,8.9c-4.7-0.1-9.5-4.1-9.1-8.4
			C915.6,1042.1,918,1038,924.5,1038z"/>
		<path fill="#81BE41" d="M1051,1014.2c0-6,2.9-9.101,8.4-9.2c5.399,0,9.6,3.9,9.6,9c0,5.2-3.7,8.9-8.8,9
			C1054,1023,1051,1020.2,1051,1014.2z"/>
		<path fill="#81BE41" d="M1024,1014.2c0-6,2.8-9.101,8.3-9.2c5.4-0.1,9.601,3.8,9.7,8.9c0.1,4.899-4,9.1-8.8,9.1
			C1027,1023,1024,1020.2,1024,1014.2z"/>
		<path fill="#81BE41" d="M1141.2,990c-5.9,0-9.101-2.9-9.2-8.4c0-5.399,3.9-9.6,9-9.6c5.2,0,8.9,3.7,9,8.8
			C1150.1,987,1147.2,990,1141.2,990z"/>
		<path fill="#81BE41" d="M1195,1038c6.1,0,9,2.9,9,9.1c0,5.801-3.1,9-8.6,8.9c-5.101,0-9.301-4-9.4-8.8
			C1185.9,1041.9,1189.7,1038,1195,1038z"/>
		<path fill="#81BE41" d="M1123,1046.4c0,5.5-3.6,9.5-8.8,9.6c-5,0.1-9.2-4.1-9.2-9.4c0-5.6,3-8.6,8.9-8.6
			C1119.8,1038,1123,1040.9,1123,1046.4z"/>
		<path fill="#81BE41" d="M1087.2,1038c5.7,0,8.899,3.2,8.8,8.7c-0.1,5.1-4,9.2-8.9,9.3c-5.3,0.1-9.199-3.8-9.1-9.1
			C1078,1040.9,1081,1038,1087.2,1038z"/>
		<path fill="#81BE41" d="M1123,1014.1c0,5.5-3.6,9-9.2,8.9c-5.399,0-8.899-3.6-8.8-9.2c0-5,3.6-8.7,8.3-8.7
			C1119.2,1004.9,1123,1008.6,1123,1014.1z"/>
		<path fill="#81BE41" d="M1086.9,1023c-6,0-8.9-3-8.9-9.2c0-5,3.6-8.7,8.4-8.8c5.5,0,9.5,3.6,9.6,8.8
			C1096.1,1019.2,1092.2,1023,1086.9,1023z"/>
		<path fill="#81BE41" d="M1069,915.5c0,5.1-3.8,9.2-8.8,9.4c-5,0.199-9.2-4.101-9.2-9.5c0-5.101,3.9-9.2,8.8-9.4
			C1064.7,905.8,1069,910.2,1069,915.5z"/>
		<path fill="#81BE41" d="M943,915.1c0-5.8,3.2-9.199,8.5-9.1c4.5,0,9.4,5,9.5,9.4c0,4.3-4.6,9.3-8.9,9.5
			C947,925.1,943,920.8,943,915.1z"/>
		<path fill="#81BE41" d="M907,915.4c0.1,4-5.2,9.6-9.1,9.5c-5-0.101-9.9-4.801-9.801-9.4c0-4.3,4.9-9.4,8.9-9.4
			C901.8,905.9,906.8,910.7,907,915.4z"/>
		<path fill="#81BE41" d="M852,849.6c0.8,6.601-4,9.2-8.3,9.2c-6.3,0-9.5-3.2-9.5-9.399c0-4.5,2.6-9.101,9.6-8.5
			C849.3,841.4,852,843.8,852,849.6z"/>
		<path fill="#81BE41" d="M970,849.7c0-5.8,2.6-8.4,8.1-8.8c6.9-0.5,9.601,3.3,9.7,8.399c0.2,6.3-3.1,9.2-9.399,9.601
			C973.1,859.2,970,855.6,970,849.7z"/>
		<path fill="#81BE41" d="M1051,850.1c0-6.1,2.9-9.1,8.9-9.1c5.899,0,9.1,2.9,9.1,8.4c0,5.399-3.9,9.6-9,9.6
			C1055.1,859,1051,855,1051,850.1z"/>
		<path fill="#81BE41" d="M1078,915.7c-0.1-5.4,3.9-9.7,9-9.7c4.8,0,8.9,4.2,9,9.2c0.1,5.3-3.9,9.7-9,9.7
			C1082.1,924.9,1078.1,920.8,1078,915.7z"/>
		<path fill="#81BE41" d="M1069,882.7c-0.1,5-4,9.1-8.8,9.2c-4.9,0.1-9.2-4.2-9.2-9.301c0.1-5.399,3.7-9.399,8.5-9.399
			C1065.1,873.2,1069.1,877.2,1069,882.7z"/>
		<path fill="#81BE41" d="M1042,882.3c0.1,5.3-3.9,9.601-8.9,9.7c-4.699,0.1-9.1-4.1-9.1-8.8c0-5.8,3.5-9.9,8.5-9.9
			C1037.9,873.2,1041.9,877.1,1042,882.3z"/>
		<path fill="#81BE41" d="M1051,783.7c0.1-5.8,3.1-8.8,8.8-8.7c5.4,0.1,9.3,3.9,9.2,9.1c-0.1,5.101-4.3,8.9-9.7,8.9
			C1053.8,792.9,1050.9,789.7,1051,783.7z"/>
		<path fill="#81BE41" d="M978.7,760c-5.9-0.1-8.8-3.1-8.7-9.3c0.1-5.8,3.1-8.8,8.8-8.7c5.3,0.1,9.4,4.2,9.2,9.3
			C987.8,756.1,983.6,760,978.7,760z"/>
		<path fill="#81BE41" d="M1005.8,760c-6,0-8.8-3-8.8-9.2c0-5.8,3.1-8.899,8.7-8.8c5.3,0.1,9.399,4.2,9.3,9.3
			C1014.9,756.1,1010.7,760,1005.8,760z"/>
		<path fill="#81BE41" d="M1005.7,957c-5.7,0-8.601-2.9-8.7-8.8c0-5.8,3-9.2,8.5-9.2c5.3,0,9.7,4.1,9.5,9.1
			C1014.7,952.8,1011.9,958,1005.7,957z"/>
		<path fill="#81BE41" d="M978.7,957c-5.8,0-8.4-2.6-8.8-8.1c-0.5-6.9,3.199-9.601,8.399-9.7c6.3-0.2,9.2,3.1,9.601,9.3
			C988.2,953.9,984.6,957,978.7,957z"/>
		<path fill="#81BE41" d="M843.3,957c-5.899,0-9.5-3-9.3-8.4c0.3-6.3,3.3-9.5,9.5-9.399c5,0.1,9,2.8,8.5,9.7
			C851.7,954.3,849.1,957,843.3,957z"/>
		<path fill="#81BE41" d="M852,816.8c0,6-2.8,9.101-8.3,9.2c-5.4,0.1-9.601-3.8-9.7-8.9c-0.1-4.899,4-9.1,8.8-9.1
			C849,808,852,810.8,852,816.8z"/>
		<path fill="#81BE41" d="M1177,1113.1c0,4.601-4.2,8.9-8.5,8.9c-5.5,0-9.5-4.1-9.5-9.6c0.1-5.7,3.2-8.4,9.7-8.4
			C1174.2,1104,1177,1107.1,1177,1113.1z"/>
		<path fill="#81BE41" d="M1051,1079.7c0.1-5.9,3.1-8.8,9.3-8.7c5.8,0.1,8.8,3.1,8.7,8.8c-0.1,5.3-4.2,9.4-9.3,9.2
			C1054.9,1088.8,1051,1084.6,1051,1079.7z"/>
		<path fill="#81BE41" d="M997,1079.8c0-6,3-8.899,9.2-8.8c5.6,0,8.7,3.2,8.8,8.9c0.1,4.8-4.2,9.1-9,9.1
			C1000.1,1089,997,1085.8,997,1079.8z"/>
		<path fill="#81BE41" d="M970,1079.4c0-5.7,2.7-8.4,8.4-8.4c5.699,0,9.699,3.6,9.6,8.7c-0.1,5.1-4,9.3-8.8,9.3
			C973,1089.1,970,1085.9,970,1079.4z"/>
		<path fill="#81BE41" d="M1150,1080.2c0,4.8-4.3,8.8-9.2,8.8c-5.1-0.1-8.899-4.3-8.8-9.7c0.1-5.5,3.3-8.3,9.2-8.3
			C1147.2,1071.1,1150.1,1074.1,1150,1080.2z"/>
		<path fill="#81BE41" d="M1078,1079.9c0-6,3-8.9,9.1-8.9c5.9,0,8.9,3,8.9,8.6c0,5.301-4.1,9.5-9.2,9.4
			C1082,1088.9,1078,1084.8,1078,1079.9z"/>
		<path fill="#81BE41" d="M1060,957c-6.1,0-9-2.9-9-9c0-4.9,4.1-9,8.9-9c4.8,0,9.1,4.2,9.1,9C1069,954,1066,957,1060,957z"/>
		<path fill="#81BE41" d="M924.3,957c-5,0-9.5-4.3-9.3-8.7c0.2-4.7,5.1-9.399,9.7-9.3c4.7,0.1,9.3,4.6,9.3,9.1
			C933.9,953.1,929.7,957,924.3,957z"/>
		<path fill="#81BE41" d="M1005.8,906c4.9-0.2,9.2,4.2,9.2,9.4c0.1,4.3-4.6,9.3-8.8,9.5c-4.5,0.199-9.101-3.9-9.2-8.2
			C996.8,910.6,1000.4,906.2,1005.8,906z"/>
		<path fill="#81BE41" d="M1086.3,957c-5.399-0.2-8.399-3.3-8.3-8.8c0.1-5.3,4.4-9.4,9.5-9.2c5,0.2,8.7,4.7,8.5,10.2
			C1095.8,954.5,1092.4,957.2,1086.3,957z"/>
		<path fill="#81BE41" d="M1113.8,957c-5.8,0-8.899-3.1-8.8-8.8c0.1-5.101,4.1-9.2,9-9.2c5.1,0,9.1,4.2,9,9.6
			C1122.9,954.2,1119.8,957,1113.8,957z"/>
		<path fill="#81BE41" d="M1177,1013.9c0,6-2.9,9.1-8.5,9.1c-5.3,0-9.6-4.1-9.5-9.2c0.1-4.899,4.2-8.8,9.3-8.8
			C1174,1004.9,1177,1008,1177,1013.9z"/>
		<path fill="#81BE41" d="M1204,1014.1c0,5.9-3,9-8.7,8.9c-5.2-0.1-9.2-3.9-9.3-8.8c-0.1-5.101,4.2-9.2,9.5-9.2
			C1201.1,1005,1204,1008.1,1204,1014.1z"/>
		<path fill="#81BE41" d="M1231,1013.8c0,6-2.8,9.2-8.4,9.2c-5.399,0.1-9.699-3.9-9.6-9c0-4.9,4.1-8.9,9.2-9
			C1227.9,1004.9,1231,1008,1231,1013.8z"/>
		<path fill="#81BE41" d="M1204,1079.9c0,5.3-3.9,9.1-9.2,9.1c-4.6-0.1-8.7-4.1-8.8-8.8c-0.1-5.8,3.1-9.2,8.9-9.2
			C1201,1071,1204,1073.9,1204,1079.9z"/>
		<path fill="#81BE41" d="M1168.1,1071c6.101,0,9,3,8.9,9.1c0,5.101-3.7,8.801-8.8,8.9c-4.9,0.1-9.101-4-9.2-8.9
			C1158.9,1074.2,1162.1,1071,1168.1,1071z"/>
		<path fill="#81BE41" d="M1113.9,1071c6,0,9.1,2.9,9.1,8.4c0,5.399-4,9.6-9.1,9.6c-4.9-0.1-8.801-4.1-8.9-9.3
			C1104.9,1074.1,1108,1071,1113.9,1071z"/>
		<path fill="#81BE41" d="M1024,1079.9c0-6.101,3-9,9.1-8.9c5.801,0,9.101,3.4,8.9,9.2c-0.1,4.6-4.2,8.7-8.8,8.8
			C1027.9,1089.1,1024,1085.2,1024,1079.9z"/>
		<path fill="#81BE41" d="M970,1013.9c0-5.9,3-9,8.7-8.9c5.2,0.1,9.2,3.9,9.3,8.8c0.1,5.101-4.2,9.2-9.5,9.2
			C972.9,1023,970,1019.9,970,1013.9z"/>
		<path fill="#81BE41" d="M997,1014.1c0-6,2.9-9.1,8.5-9.1c5.3,0,9.6,4.1,9.5,9.2c-0.1,4.899-4.2,8.8-9.3,8.8
			C1000,1023.1,997,1020,997,1014.1z"/>
		<path fill="#81BE41" d="M979.1,1038c4.601,0,8.9,4.2,8.9,8.5c0,5.5-4.1,9.5-9.6,9.5s-8.4-3.2-8.4-9.1
			C970,1040.9,973,1038,979.1,1038z"/>
		<path fill="#81BE41" d="M997,1047.2c0-6.2,2.8-9.101,8.8-9.2c4.9,0,9.101,3.9,9.2,8.7c0.1,4.899-4,9.2-8.8,9.3
			C1000.2,1056.1,997,1053.1,997,1047.2z"/>
		<path fill="#81BE41" d="M1032.8,1038c5.4,0,9.2,3.6,9.2,9c0,4.8-4.2,9.1-9.1,9c-5.7,0-8.9-3.2-8.9-8.7
			C1023.9,1041.1,1026.8,1038.1,1032.8,1038z"/>
		<path fill="#81BE41" d="M1051,1046.8c0-6,3-8.899,9.2-8.8c5.1,0,8.8,3.8,8.8,8.9c0.1,4.8-4.2,9.1-9,9.1
			C1054.1,1056,1051,1052.8,1051,1046.8z"/>
		<path fill="#81BE41" d="M1150,1047.1c0,5.101-3.7,8.801-8.8,8.9c-4.9,0.1-9.101-4-9.2-8.9c-0.1-5.899,3.1-9.1,9.1-9.1
			S1150,1041,1150,1047.1z"/>
		<path fill="#81BE41" d="M1168,1038c6.1,0,9,2.9,9,9c0,5.8-3.3,9.1-9.2,9c-4.6-0.1-8.7-4.2-8.8-8.8
			C1158.9,1041.9,1162.7,1038,1168,1038z"/>
		<path fill="#81BE41" d="M1258,948.6c0,5.7-2.7,8.4-8.4,8.4c-5.699,0-9.699-3.6-9.6-8.6c0.1-5.301,4.1-9.301,9.3-9.4
			C1254.8,938.9,1258,942.4,1258,948.6z"/>
		<path fill="#81BE41" d="M879,981.5c0,5.6-3,8.5-8.9,8.5c-4.6,0-9-4-9.1-8.3c-0.1-5.2,4-9.601,9-9.7C876.1,972,879,975,879,981.5z"
			/>
		<path fill="#81BE41" d="M943,981.6c0-6.399,2.8-9.5,8.5-9.6c5.3,0,9.6,4.1,9.5,9.1c-0.1,4.801-4.2,8.9-9.1,8.9
			C946,990,943,987.2,943,981.6z"/>
		<path fill="#81BE41" d="M979.1,990c-6.1,0-9.1-2.9-9.1-8.9c0-5.899,2.9-9.1,8.4-9.1s9.6,4,9.6,9.5C988,985.8,983.6,990,979.1,990z
			"/>
		<path fill="#81BE41" d="M1033.1,990c-6.1,0-9.1-2.9-9.1-8.9c0-5.899,3.2-9.1,9.1-9.1c4.9,0,9,4.3,8.9,9.2
			C1041.9,986.3,1038.2,990,1033.1,990z"/>
		<path fill="#81BE41" d="M1051,980.6c0.1-4.899,4.1-8.699,9.1-8.6c4.9,0.1,9.2,4.4,8.801,9.2c-0.5,5.7-3.4,9.3-9.301,8.899
			C1053.7,989.6,1050.9,986.9,1051,980.6z"/>
		<path fill="#81BE41" d="M1114.2,990c-6,0-9.2-2.8-9.2-8.4c0-5.399,3.9-9.6,9-9.6c4.9,0,8.9,4.1,9,9.2
			C1123.1,986.9,1120,990,1114.2,990z"/>
		<path fill="#81BE41" d="M1204,981.1c0,6-3,8.9-9.2,8.9c-5.1,0-8.8-3.8-8.8-8.9c-0.1-4.8,4.1-9.1,9-9.1
			C1200.9,972,1204,975.2,1204,981.1z"/>
		<path fill="#81BE41" d="M1258,981.6c0,5.5-3.1,8.4-9,8.4c-4.6,0-9-4.1-9-8.4c0-5.3,4.1-9.6,9.1-9.5
			C1255.3,972,1258,975,1258,981.6z"/>
		<path fill="#81BE41" d="M1285,981.5c0,5.6-3,8.5-8.9,8.5c-4.8,0-9-4.1-9.1-8.9c-0.1-5,4.2-9.1,9.5-9.1
			C1282.2,972,1285,975.1,1285,981.5z"/>
		<path fill="#81BE41" d="M879,816.8c0,6.3-3,9.3-8.8,9.2c-5-0.1-9.3-4.1-9.2-8.9c0.1-4.199,4-9.899,9.3-9.199
			C876.1,808.6,879,811,879,816.8z"/>
		<path fill="#81BE41" d="M1032.7,775c5.399,0.1,9.5,4.2,9.3,9.4c-0.2,4.8-4.4,8.699-9.5,8.6c-5.6,0-8.5-3.1-8.5-9.1
			C1024,778,1027,774.9,1032.7,775z"/>
		<path fill="#81BE41" d="M997,783.6c0.1-5.6,3.1-8.6,8.5-8.6c5.3,0,9.6,4.1,9.5,9.2c-0.1,5.1-4.4,8.899-9.8,8.8
			C999.7,792.9,996.9,789.6,997,783.6z"/>
		<path fill="#81BE41" d="M852,783.8c0,6-2.8,9.2-8.4,9.2c-5.399,0.1-9.699-3.9-9.6-9c0-4.9,4.1-8.9,9.2-9
			C848.9,774.9,852,778,852,783.8z"/>
		<path fill="#81BE41" d="M1078,882.4c0-5.101,3.7-9,8.4-9.101c5.699-0.1,9.699,3.8,9.6,9.4c-0.1,5-4.1,9.2-8.9,9.2
			C1082.1,892,1078,887.7,1078,882.4z"/>
		<path fill="#81BE41" d="M924.4,873.3c4.8-0.1,9.5,4.4,9.6,9.101c0,4.199-4.8,9.5-8.9,9.5c-4.899,0.1-10-4.801-10-9.5
			C915,878.3,920,873.4,924.4,873.3z"/>
		<path fill="#81BE41" d="M879,882.7c0,5.899-3,9.399-8.4,9.2c-5.6-0.2-9.399-4.2-9.6-9.7c-0.1-4.9,4.6-9,9.6-8.9
			C875.6,873.5,879,877.3,879,882.7z"/>
		<path fill="#81BE41" d="M1114.1,841c5.9,0,8.9,3.1,8.9,8.7c-0.1,5.1-4,9.2-8.9,9.3c-5.1,0.1-9.1-4.2-9.1-9.6
			C1105,843.9,1108.2,841,1114.1,841z"/>
		<path fill="#81BE41" d="M1087.1,841c5.9,0,9,3,8.9,8.6c0,5.101-3.9,9.301-8.8,9.4c-5.101,0.1-9.2-4.1-9.2-9.5
			C1078,843.9,1081.1,841,1087.1,841z"/>
		<path fill="#81BE41" d="M1024,850c0-6.1,2.9-9,9-9c5.9,0,9.1,3.3,9,9.2c-0.1,4.6-4.2,8.7-8.8,8.8
			C1027.9,859.1,1024,855.3,1024,850z"/>
		<path fill="#81BE41" d="M897.2,859c-4.8-0.2-9.3-4.6-9.2-9.1c0.1-5.301,4.6-9.101,10.7-8.9c4.2,0.1,8.5,4.7,8.3,8.8
			C906.7,854.5,901.8,859.1,897.2,859z"/>
		<path fill="#81BE41" d="M815.9,841c6.1,0,9.1,2.9,9.1,8.9c0,5.699-3.3,9.1-8.6,9.1c-5-0.1-9.301-4-9.4-8.7
			C806.9,844.4,810.1,841,815.9,841z"/>
		<path fill="#81BE41" d="M852,750.8c0,6.2-2.8,9.2-8.8,9.2c-4.9,0-9.3-4.2-9.2-8.7c0.1-5.3,4.1-9.2,9.3-9.3
			C848.9,741.9,852,745,852,750.8z"/>
		<path fill="#81BE41" d="M879,751.3c0,5.5-2.9,8.601-8.3,8.7c-5.4,0.1-9.7-4-9.7-9c0-4.8,4.2-8.9,9.2-9
			C876.1,741.9,879,745,879,751.3z"/>
		<path fill="#81BE41" d="M943,1046.5c0-5.5,3-8.5,8.5-8.5c5.3,0,9.7,4.2,9.5,9.2c-0.2,4.899-4.3,8.8-9.4,8.8
			C945.8,1056,943,1052.9,943,1046.5z"/>
		<path fill="#81BE41" d="M1195.4,1104c5.699,0,8.6,2.9,8.6,8.7c0,4.899-4.1,9.399-8.6,9.3c-5-0.1-9.2-4-9.301-8.7
			C1185.9,1107.2,1189.1,1104,1195.4,1104z"/>
		<path fill="#81BE41" d="M879,948.6c0,5.9-2.7,8.4-8.8,8.4c-4.9,0-9.3-4.3-9.2-8.8c0.2-5.3,4.2-9.2,9.4-9.2
			C875.9,939,879,942.4,879,948.6z"/>
		<path fill="#81BE41" d="M897.1,957c-4.899,0-9.1-4.2-9.1-9c0-4.5,4.5-8.9,9.3-9c4.5-0.1,10.101,5,9.5,9.3
			C906,953.7,902.8,958.1,897.1,957z"/>
		<path fill="#81BE41" d="M852,981.2c-0.1,6-3.1,8.8-9.4,8.8c-4.3-0.1-8.6-4.2-8.6-8.4c-0.1-5.3,4.1-9.699,9.1-9.6
			C849.2,972.1,852.1,975.1,852,981.2z"/>
		<path fill="#81BE41" d="M1005.6,990c-5.899-0.1-8.699-3.2-8.6-9.5c0.1-5.4,3.6-8.6,9.3-8.5c4.601,0.1,8.7,4.3,8.7,8.9
			C1015,986,1010.8,990.1,1005.6,990z"/>
		<path fill="#81BE41" d="M1231,980.8c0,6.2-2.8,9.2-8.9,9.2c-4.899,0-9.1-4-9.1-8.9c-0.1-4.899,4.2-9.1,9.1-9.1
			C1227.8,972,1231,975.2,1231,980.8z"/>
		<path fill="#81BE41" d="M1258,1014.1c0,5.9-3,9-8.7,8.9c-4.8-0.1-9.2-4-9.3-8.3c-0.1-5.5,4-9.7,9.5-9.7
			C1255.1,1005,1258,1008.1,1258,1014.1z"/>
		<path fill="#81BE41" d="M951.6,873.3c4.9,0.101,9.4,4.5,9.4,9.3c-0.1,4.301-4.9,9.301-8.9,9.4c-6.199,0.1-9.199-3.5-9-10.6
			C943.1,877.1,947.3,873.2,951.6,873.3z"/>
		<path fill="#81BE41" d="M997,882.4c0-5.2,3.8-9.2,8.7-9c5,0.199,9.1,4.1,9.3,8.899c0.2,5.2-4,9.7-9,9.7
			C1000.9,892,997,887.7,997,882.4z"/>
		<path fill="#81BE41" d="M997,816.8c0-6,3-8.899,9.3-8.8c4.8,0,8.9,4.3,8.7,9.3c-0.1,4.601-4.3,8.7-9,8.7
			C1000.1,826,997,822.8,997,816.8z"/>
		<path fill="#81BE41" d="M979.4,808c4.3,0.1,8.6,4.2,8.6,8.4c0.1,5.3-4.1,9.6-9.1,9.6c-6.101-0.1-8.9-3.1-8.9-9.3
			C970.1,810.7,973.1,807.9,979.4,808z"/>
		<path fill="#81BE41" d="M825,817c0,5.9-3.3,9.1-9.2,9c-4.7-0.1-8.7-4.2-8.8-8.9c-0.1-4.899,4-9.1,8.9-9.1
			C822.1,808,825,810.9,825,817z"/>
		<path fill="#81BE41" d="M951.8,841c4.9,0,9.3,4.3,9.2,8.8c-0.2,5.3-4.2,9.2-9.4,9.2c-5.5,0-8.6-3.4-8.5-9.6
			C943,843.5,945.7,841,951.8,841z"/>
		<path fill="#81BE41" d="M924.6,859c-4.3,0-9.3-4.7-9.5-8.9c-0.1-4.8,4-9,8.9-9.1c5.6-0.1,10.1,4,10,9.1
			C933.9,854.6,929.3,859,924.6,859z"/>
		<path fill="#81BE41" d="M852,882.5c0,5.1-4,9.5-8.5,9.5c-5,0-9.4-4.3-9.5-9.4c-0.1-4.8,4.5-9.3,9.4-9.399
			C848.2,873.2,852,877.3,852,882.5z"/>
		<path fill="#81BE41" d="M970,784c0-5.9,3-9,8.6-9c5.101,0,9.601,4.2,9.4,8.7c-0.2,5.3-4.1,9.2-9.4,9.3
			C972.9,793,970,789.9,970,784z"/>
		<path fill="#81BE41" d="M970,915.4c0-5.2,4.2-9.601,9.1-9.4c4.601,0.1,8.9,4.7,8.9,9.5c0,4.3-4.8,9.7-9,9.3
			C973.7,924.3,968.8,920.6,970,915.4z"/>
		<path fill="#81BE41" d="M879,915.7c0,5.1-3.9,9.1-8.7,8.899c-5.1-0.199-9.399-4.5-9.3-9.3c0.1-4.3,5-9.3,9.1-9.3
			C876,906,879,909.4,879,915.7z"/>
		<path fill="#81BE41" d="M879,849.5c0,6.2-3.1,9.6-8.6,9.5c-5-0.1-9.2-3.9-9.4-8.8c-0.2-5.101,4.2-9.3,9.7-9.2
			C876.3,841,879,843.8,879,849.5z"/>
		<path fill="#81BE41" d="M1123,1112.3c0.1,5.3-3.9,9.7-9,9.7c-4.8,0-8.9-4.1-9-9.1c-0.1-5.7,2.9-8.801,8.7-8.9
			C1119.7,1103.9,1122.9,1106.8,1123,1112.3z"/>
		<path fill="#81BE41" d="M1141.1,1104c5.9,0,8.9,3,8.9,8.7c-0.1,5-4,9.2-8.9,9.3c-5,0.1-9.199-4.2-9.1-9.5
			C1132,1106.9,1135.2,1104,1141.1,1104z"/>
		<path fill="#81BE41" d="M879,784c0,5.9-3,9-8.6,9c-5.101,0-9.2-3.9-9.4-8.8c-0.2-4.9,4.2-9.2,9.4-9.2C876.1,775,879,778.1,879,784
			z"/>
		<path fill="#81BE41" d="M943,1014c0-5.9,2.9-9,8.6-9c5.2,0,9.601,4.3,9.4,9.2c-0.2,4.899-4.3,8.7-9.4,8.8
			C946,1023,943,1019.9,943,1014z"/>
		<path fill="#81BE41" d="M970,882.3c0-5.1,3.5-8.8,8.3-9c5-0.1,9.5,4,9.7,9c0.1,4.9-4.4,9.8-9.1,9.7
			C973.8,891.9,970,887.7,970,882.3z"/>
		<path fill="#81BE41" d="M951.8,957c-6.1,0-8.8-2.5-8.8-8.4c0-6.199,3-9.6,8.5-9.6c5.2,0,9.6,4.3,9.4,9.2
			C960.8,953,956.7,957,951.8,957z"/>
		<path fill="#81BE41" d="M1033.2,957c-6.2,0-9.101-2.9-9.2-8.9c0-4.6,4.1-9,8.4-9.1c5.3-0.1,9.6,4.1,9.6,9.1
			C1041.9,953.8,1038.8,957,1033.2,957z"/>
		<path fill="#81BE41" d="M1087,1104c5.9,0,9,2.9,9,8.6c0,5.2-4.3,9.601-9.2,9.4c-4.899-0.2-8.7-4.3-8.8-9.4
			C1078,1107,1081.1,1104,1087,1104z"/>
	</g>
	<path fill="#81BE41" d="M825,1047.4c0,5.3-4.1,9.6-9.1,9.5c-4.801-0.101-8.801-4.2-8.9-9.2c-0.1-5.3,3.8-9.601,8.8-9.8
		C820.8,1037.9,825,1042.2,825,1047.4z"/>
	<path fill="#81BE41" d="M780,1047.6c0-5.1,4.1-10,8.5-9.399c5.6,0.7,9.3,2.8,9.4,9.1c0.199,5.3-3.7,9.601-8.801,9.8
		C784.3,1057.1,780,1052.8,780,1047.6z"/>
	<path fill="#81BE41" d="M771,1047.7c-0.1,5.2-4.4,9.6-9.3,9.3c-5.101-0.3-8.8-4.5-8.7-9.9c0.1-4.699,4.2-9.399,8.5-9
		C767.7,1038.8,771.2,1041.8,771,1047.7z"/>
	<path fill="#81BE41" d="M726,1047.9c0-5.4,4.2-10.101,8.8-9.801c5.4,0.301,9.2,4.2,9.2,9.5c0,5.2-4.2,9.601-9.2,9.4
		C730,1056.9,726,1052.7,726,1047.9z"/>
	<path fill="#81BE41" d="M816.1,1170c6,0,8.9,3,8.9,9.1c0,5.2-3.6,9-8.7,8.9c-5.6-0.1-9.3-3.9-9.3-9.5
		C807,1173.4,810.7,1170,816.1,1170z"/>
	<path fill="#81BE41" d="M699,1047.2c0-4.9,4.3-9.4,8.8-9.2c5.101,0.3,9.3,4.5,9.2,9.5c0,4.9-4.7,9.7-9.3,9.4
		C702.7,1056.7,699,1052.6,699,1047.2z"/>
	<path fill="#81BE41" d="M726,1146.1c0-5.899,2.9-9.1,8.4-9.1c5.399,0,9.6,4,9.6,9c0,5.1-3.7,8.9-8.8,9
		C729,1155,726,1152.2,726,1146.1z"/>
	<path fill="#81BE41" d="M816,1155c-5.8,0-9-3.1-9-8.5c0-5.3,4.1-9.5,9.2-9.5c5.2,0.1,8.8,3.8,8.8,8.9
		C825,1152.1,822.1,1155,816,1155z"/>
	<path fill="#81BE41" d="M906,1145.8c0,6.2-2.8,9.2-8.8,9.2c-4.9,0-9.101-3.9-9.2-8.7c-0.1-5.1,4-9.2,9.3-9.3
		C902.9,1136.9,906,1140,906,1145.8z"/>
	<path fill="#81BE41" d="M933,1146c0,6.1-2.9,9-9,9c-4.9,0-9-4.1-9-8.9c0-5.1,4.2-9.1,9.5-9.1C930.1,1137,933,1140.1,933,1146z"/>
	<path fill="#81BE41" d="M896.9,1122c-5.801,0-9.101-3.4-8.9-9.3c0.1-4.601,4.2-8.7,8.9-8.7c5.899-0.1,9.1,3.1,9.1,9
		C906,1119.1,903,1122,896.9,1122z"/>
	<path fill="#81BE41" d="M780,981.9c0-6,3-8.9,9.1-8.9c5.801,0,8.9,3,8.9,8.6c0,5.301-4.2,9.5-9.2,9.4
		C783.9,990.9,780,986.8,780,981.9z"/>
	<path fill="#81BE41" d="M753,981.9c0-6,3-8.9,9.1-8.9c5.9,0,8.9,3,8.9,8.6c0,5.301-4.1,9.5-9.2,9.4C757,990.9,753,986.8,753,981.9z
		"/>
	<path fill="#81BE41" d="M879,1179.1c0,5.9-3,8.9-8.6,8.9c-5.301,0-9.5-4.2-9.4-9.2c0.1-4.8,4.2-8.8,9.1-8.8
		C876.1,1170,879,1173,879,1179.1z"/>
	<path fill="#81BE41" d="M843,1170c6.1,0,9,3,9,9.1c0,5.7-3.1,9-8.7,8.9c-5.1,0-9.2-4-9.3-8.8C833.9,1173.9,837.7,1170,843,1170z"/>
	<path fill="#81BE41" d="M780,1179c0-6.1,2.9-9,9.1-9c5,0,8.801,3.6,8.9,8.3c0.1,5.8-3.7,9.8-9.2,9.7
		C783.7,1187.9,780,1184.1,780,1179z"/>
	<path fill="#81BE41" d="M780,1211.7c0.1-5.9,3.1-8.8,9.3-8.7c5.8,0.1,8.8,3.1,8.7,8.8c-0.1,5.3-4.2,9.4-9.3,9.2
		C783.9,1220.8,780,1216.6,780,1211.7z"/>
	<path fill="#81BE41" d="M816,973c5.9,0,9,2.9,9,8.6c0,5.301-4.2,9.5-9.2,9.4c-4.8-0.1-8.7-4.3-8.8-9.4C807,976,810.1,973,816,973z"
		/>
	<path fill="#81BE41" d="M815.9,1203c6,0,9.1,2.9,9.1,8.4c0,5.399-4,9.6-9.1,9.6c-4.9-0.1-8.801-4.1-8.9-9.3
		C806.9,1206.1,810,1203,815.9,1203z"/>
	<path fill="#81BE41" d="M870.5,1006c5.6,0,8.4,3,8.5,8.9c0,4.6-4,9-8.4,9.1c-5.199,0.1-9.6-4-9.6-9C861,1008.8,864,1006,870.5,1006
		z"/>
	<path fill="#81BE41" d="M734.7,1006c6.399,0,9.5,3,9.3,9.2c-0.1,4.7-4.3,8.7-9.3,8.8c-4.5,0.1-8.7-4.4-8.7-9.3
		C726.1,1008.9,729,1006,734.7,1006z"/>
	<path fill="#81BE41" d="M933,1179.1c0,5.9-3,9-8.7,8.9c-5.2-0.1-9.2-3.9-9.3-8.8c-0.1-5.101,4.2-9.2,9.5-9.2
		C930.1,1170,933,1173.1,933,1179.1z"/>
	<path fill="#81BE41" d="M879,1112.9c0,6.1-2.9,9.1-8.9,9.1c-5.899,0-9.1-3.2-9.1-9.1c0-4.9,4.3-9,9.2-8.9
		C875.3,1104.1,879,1107.8,879,1112.9z"/>
	<path fill="#81BE41" d="M815.8,1122c-5.8,0-8.899-3.1-8.8-8.8c0.1-5.101,4.1-9.2,9-9.2c5.1,0,9.1,4.2,9,9.6
		C824.9,1119.2,821.8,1122,815.8,1122z"/>
	<path fill="#81BE41" d="M788.9,1122c-5.9,0-9-3-8.9-8.7c0.1-5.1,4-9.2,8.9-9.3c5.1-0.1,9.1,4.2,9.1,9.5
		C798,1119.1,794.8,1122,788.9,1122z"/>
	<path fill="#81BE41" d="M762,1122c-6.1,0-9-2.9-9-9c0-4.9,4.1-8.9,9-9c4.8,0,9.1,4.2,9,9C771,1119.1,768,1122,762,1122z"/>
	<path fill="#81BE41" d="M870.3,1089c-6.3,0-9.399-2.9-9.3-8.7c0.1-5,4-9.2,8.8-9.3c4.9-0.2,9.2,4.2,9.2,9.3
		C878.9,1086.1,876.1,1089,870.3,1089z"/>
	<path fill="#81BE41" d="M843.6,1089c-6.399,0-9.6-2.7-9.6-8.4c0-5.3,4.1-9.6,9.1-9.6c4.801,0,8.9,4.2,8.9,9
		C852,1086,849.2,1089,843.6,1089z"/>
	<path fill="#81BE41" d="M762.1,1155c-6.1,0-9.1-2.9-9.1-8.9c0-5.3,3.8-9.1,9.1-9.1c4.601,0.1,8.7,4.1,8.9,8.7
		C771.1,1151.1,767.4,1155,762.1,1155z"/>
	<path fill="#81BE41" d="M788.9,1089c-5.9,0-9-3-8.9-8.7c0.1-4.8,4-9.2,8.3-9.3c5.5-0.1,9.7,4,9.7,9.5
		C798,1086.1,794.9,1089,788.9,1089z"/>
	<path fill="#81BE41" d="M761.8,1089c-5.8,0-8.899-3.1-8.8-8.8c0.1-4.8,4-9.2,8.4-9.2c5.5-0.1,9.6,4.1,9.6,9.6
		C771,1086.2,767.8,1089,761.8,1089z"/>
	<path fill="#81BE41" d="M933,1112.8c0,6.101-2.8,9.101-8.8,9.2c-5.2,0-9.2-3.7-9.2-8.6c0-5.301,4.2-9.601,9.2-9.4
		C928.6,1104.2,933.9,1107.1,933,1112.8z"/>
	<path fill="#81BE41" d="M843.1,1006c5.9,0,9,3,8.9,8.6c0,4.801-3.9,9.2-8.3,9.4c-5.5,0.2-9.7-4-9.7-9.5
		C834,1008.9,837.1,1006,843.1,1006z"/>
	<path fill="#81BE41" d="M816,1006c6,0,9.1,2.9,9,8.5c0,5.1-4.1,9.6-8.7,9.5c-5.3-0.1-9.3-4.1-9.3-9.4C807,1009,810,1006,816,1006z"
		/>
	<path fill="#81BE41" d="M789,1006c5.9,0,9,3,9,8.6c0,4.801-3.9,9.2-8.3,9.4c-5.5,0.2-9.7-4-9.7-9.5C780,1008.9,783.1,1006,789,1006
		z"/>
	<path fill="#81BE41" d="M762,1006c6,0,9.1,2.9,9,8.6c0,5.101-3.9,9.2-8.8,9.4c-4.7,0.2-9.2-4.1-9.2-8.8
		C753,1009,755.9,1006,762,1006z"/>
	<path fill="#81BE41" d="M815.9,1089c-5.801,0-8.9-3.1-8.9-8.7c0.1-5,4-9.2,8.9-9.3c5-0.1,9.1,4.2,9.1,9.6
		C825,1086.1,821.8,1089,815.9,1089z"/>
</g>
<g opacity="0.7">
	<g>
		<path fill="#B0ADA1" d="M897.3,775c5.101-0.1,10,3.8,9.601,8.4c-0.5,5.699-3,9.699-9.4,9.6c-5.3,0-9.6-4.2-9.5-9.1
			C888.1,779,892.3,775.1,897.3,775z"/>
		<path fill="#B0ADA1" d="M924.7,793c-5.101,0.1-9.601-3.9-9.601-8.4c-0.1-5.199,3.9-9.399,9-9.6c5.4-0.1,9.601,3.6,9.9,8.7
			C934.2,788.6,929.9,792.9,924.7,793z"/>
		<path fill="#B0ADA1" d="M1078,784.2c0-6.2,2.8-9.2,8.8-9.2c5.4,0,9.2,3.7,9.2,9.1c0,5.101-3.7,8.9-8.8,8.9
			C1081.2,793.1,1078,790.1,1078,784.2z"/>
		<path fill="#B0ADA1" d="M924.9,662c-5-0.1-10-4.9-9.801-9.6c0.101-4.4,5.4-9.5,9.601-9.301c4.6,0.2,9.399,5.2,9.3,9.601
			C933.8,657.1,929,662,924.9,662z"/>
		<path fill="#B0ADA1" d="M1303.3,1023c-5.2-0.1-9.6-4.4-9.3-9.3c0.3-5.101,4.5-8.8,9.9-8.7c4.699,0.1,9.399,4.2,9,8.5
			C1312.2,1019.7,1309.2,1023.2,1303.3,1023z"/>
		<path fill="#B0ADA1" d="M1330.7,1005c5,0.1,9.1,4,9.3,8.9c0.1,5.1-4.4,9.3-10,9.1c-4.7-0.1-9.4-4.3-8.9-8.6
			C1321.8,1008.1,1325,1004.8,1330.7,1005z"/>
		<path fill="#B0ADA1" d="M1078,1145.4c0-5.2,4.3-9.601,9.2-9.4c5,0.2,8.899,4.4,8.8,9.8c-0.1,4.8-4.1,9.5-8.4,9.101
			C1081.7,1154.3,1077.9,1151.6,1078,1145.4z"/>
		<path fill="#B0ADA1" d="M1123,1145.3c0.1,5.101-3.9,9.601-8.5,9.601c-5.2,0.1-9.4-3.9-9.5-9.101c-0.1-5.399,3.6-9.6,8.7-9.899
			C1118.6,1135.8,1122.9,1140.1,1123,1145.3z"/>
		<path fill="#B0ADA1" d="M1132,1145.6c0-5.3,4.1-9.6,9.1-9.5c5,0,9,4.301,8.9,9.7c-0.1,4.8-3.9,9.5-8.3,9.2
			C1136.2,1154.4,1132,1152.2,1132,1145.6z"/>
		<path fill="#B0ADA1" d="M1015,1145.7c-0.2,4.7-4.5,9.2-9,9.2c-5.3,0-9.1-4.5-9-10.5c0.1-4.4,4.4-8.5,9-8.5
			C1010.7,1136,1015.2,1140.9,1015,1145.7z"/>
		<path fill="#B0ADA1" d="M1042,1144.9c0,5.1-4.3,10.1-8.7,10.1c-5.3-0.1-9.3-4.1-9.3-9.1c0-5.5,4.1-10,9.2-9.801
			C1037.8,1136.2,1042,1140.4,1042,1144.9z"/>
		<path fill="#B0ADA1" d="M1051,1145.3c0.1-5.2,4.4-9.5,9.3-9.3c5.101,0.3,8.8,4.5,8.7,9.9c-0.1,4.6-4.4,9.5-8.6,9
			C1054.3,1154.2,1050.8,1151.3,1051,1145.3z"/>
		<path fill="#B0ADA1" d="M1159,1145.4c0-5.101,4-9.2,8.9-9.301c5-0.1,9.199,4.2,9.1,9.601c0,5.1-4.3,9.6-8.8,9.399
			C1162.8,1154.6,1159,1150.7,1159,1145.4z"/>
		<path fill="#B0ADA1" d="M924.5,826c-4.9,0-9.9-4.4-9.3-8.7c0.8-6.1,3.6-9.2,9.2-9.3c5.3,0,9.6,3.9,9.6,9
			C934,821.9,929.7,826,924.5,826z"/>
		<path fill="#B0ADA1" d="M1123,915.5c0,5.3-4.1,9.5-9.1,9.4c-5-0.101-8.801-4.101-8.9-9.2c-0.1-5.3,3.9-9.601,8.9-9.7
			S1123,910.2,1123,915.5z"/>
		<path fill="#B0ADA1" d="M1177,914.9c0,5.8-3.9,10.1-9.1,10c-4.9-0.101-8.9-4.2-8.9-9.2c-0.1-5.3,3.9-9.601,9-9.7
			C1172.7,906,1177,910.2,1177,914.9z"/>
		<path fill="#B0ADA1" d="M816.6,957c-6.5,0-9.699-3-9.6-9.1c0.1-4.7,4.1-8.801,8.8-8.9c5.9-0.1,9.2,3.1,9.2,9S822.2,957,816.6,957z
			"/>
		<path fill="#B0ADA1" d="M1222.5,957c-6.2,0-9.7-3.2-9.5-8.7c0.2-5.1,4.1-9.2,8.9-9.3c6.1,0,9.1,3.1,9,9.7
			C1231,954.3,1228.2,957,1222.5,957z"/>
		<path fill="#B0ADA1" d="M1204,882.4c0,5.3-3.9,9.5-8.9,9.6c-4.8,0.1-9.1-4.2-9.1-9c0-5.2,4-9.7,8.9-9.9
			C1199.8,872.9,1204,877.1,1204,882.4z"/>
		<path fill="#B0ADA1" d="M1177,883.2c0,4.7-4.5,8.899-9.2,8.8c-5.1-0.2-8.899-4.5-8.8-9.8c0.1-4.9,4.3-9.101,9.1-9.101
			C1173.4,873.2,1177,877.3,1177,883.2z"/>
		<path fill="#B0ADA1" d="M1123,882.6c0,5.2-4.4,9.601-9.2,9.4c-5.1-0.2-8.899-4.5-8.8-9.8c0.1-5,4.1-9,9-9
			C1119.1,873.1,1123,877.3,1123,882.6z"/>
		<path fill="#B0ADA1" d="M897.4,760c-5.2,0-9.601-4.2-9.4-9.1c0.1-5,4.4-8.9,9.7-8.801c4.7,0.101,9.5,4.101,9.1,8.4
			C906.3,756.1,903.9,760.1,897.4,760z"/>
		<path fill="#B0ADA1" d="M924.6,760c-5.1,0-9.699-4-9.6-8.6c0.1-5.301,4.2-9.4,9.4-9.4c5.3,0,9.699,4.2,9.6,9.1
			C933.9,756,929.7,760,924.6,760z"/>
		<path fill="#B0ADA1" d="M924.5,727c-5,0-9.4-3.9-9.5-8.4c-0.1-5,4.7-9.699,9.7-9.6c4.7,0.1,9.2,4.5,9.3,9
			C934,722.9,929.8,727,924.5,727z"/>
		<path fill="#B0ADA1" d="M1006,727c-6.1,0-9-3-9-9.1c0-5.801,3.4-9.101,9.3-8.9c4.601,0.1,8.7,4.2,8.7,8.9
			C1015.1,723.8,1011.9,727,1006,727z"/>
		<path fill="#B0ADA1" d="M1231,1047.2c0,5.8-3,8.899-8.7,8.8c-5.3,0-9.5-4.2-9.3-9.2c0.1-4.8,4.3-8.8,9.2-8.8
			C1228.1,1038,1231,1041,1231,1047.2z"/>
		<path fill="#B0ADA1" d="M798,915.1c0,5.5-3.4,9.4-8.3,9.5c-5.601,0.2-9.7-3.699-9.7-9.199c0-5.2,4.3-9.5,9.2-9.4
			C794,906.2,798,910.3,798,915.1z"/>
		<path fill="#B0ADA1" d="M771,915.7c-0.1,5.1-4,9.2-8.9,9.2c-5.1,0-9.199-4.301-9.1-9.7c0.1-5,4.1-9.2,9-9.2
			C767,906,771.1,910.3,771,915.7z"/>
		<path fill="#B0ADA1" d="M1204,915.4c0,5.3-3.6,9.3-8.4,9.3c-5.3,0.1-9.399-4-9.6-9.5c-0.1-4.8,4.1-9.101,8.9-9.2
			C1199.8,905.9,1204,910.2,1204,915.4z"/>
		<path fill="#B0ADA1" d="M1132,915.3c0-5.1,4-9.2,8.9-9.3c5-0.1,9.199,4.2,9.1,9.6c0,5.101-3.8,9.2-8.8,9.301
			C1136.2,925.1,1131.9,920.6,1132,915.3z"/>
		<path fill="#B0ADA1" d="M1150,882.3c0.1,5.4-4,9.7-9,9.7c-4.8,0-8.9-4.2-9-9.2c-0.1-5.3,4-9.7,9.1-9.7
			C1146,873.2,1149.9,877.2,1150,882.3z"/>
		<path fill="#B0ADA1" d="M1024,1309.8c0-6,3-8.8,9.3-8.8c5.601,0.1,8.7,3.3,8.7,8.9c0,4.8-4.2,9.199-9,9
			C1028.4,1318.8,1023,1316,1024,1309.8z"/>
		<path fill="#B0ADA1" d="M744,882.7c-0.1,5-4.1,9.2-8.9,9.3c-5,0.1-9.1-4.3-9.1-9.6c0-5,4.1-9.2,9-9.301
			C740.1,873,744.1,877.3,744,882.7z"/>
		<path fill="#B0ADA1" d="M753,882.4c0-5,4.1-9.2,9-9.301c5.1-0.1,9.1,4.2,9,9.601c-0.1,5-4.1,9.2-8.9,9.3
			C757,892,753,887.7,753,882.4z"/>
		<path fill="#B0ADA1" d="M798,882.9c0,4.8-4,9-8.9,9.1c-4.699,0.1-9.1-4.2-9.1-9c0-5.5,4.4-10.1,9.3-9.9
			C794.4,873.3,798,877.3,798,882.9z"/>
		<path fill="#B0ADA1" d="M1005.5,1187c-5.7,0-8.5-2.7-8.5-8.3c0-5.8,3.5-9.8,8.5-9.7c5.3,0,9.8,4.2,9.4,9.2
			C1014.5,1183.5,1011.7,1187.9,1005.5,1187z"/>
		<path fill="#B0ADA1" d="M1177,948.2c0,6-3,8.8-9.2,8.8c-5.8,0-8.899-3.1-8.8-8.7c0.1-5.3,4.2-9.399,9.3-9.3
			C1173.1,939.1,1177,943.3,1177,948.2z"/>
		<path fill="#B0ADA1" d="M1150,948c0,6.1-2.9,9-9,9c-5.9,0-9-2.9-9-8.5c0-5.3,4-9.5,9.1-9.5C1146,939.1,1150,943.2,1150,948z"/>
		<path fill="#B0ADA1" d="M1087.2,1220c-6.2,0-9.2-2.8-9.2-8.8c0-4.9,3.9-9.101,8.7-9.2c5.1-0.1,9.2,4,9.3,9.3
			C1096.1,1216.9,1093,1220,1087.2,1220z"/>
		<path fill="#B0ADA1" d="M1032.9,1220c-6.101,0-9-3-8.9-9.1c0-5.801,3.4-9.101,9.3-8.9c4.601,0.1,8.7,4.3,8.7,8.9
			C1042.1,1216.8,1038.9,1220,1032.9,1220z"/>
		<path fill="#B0ADA1" d="M997,1277.1c0-6.1,2.9-9.1,8.9-9.1c4.899,0,9,4,9.1,8.8c0.1,5-4.1,9.101-9.4,9.2
			C1000,1286,997,1283,997,1277.1z"/>
		<path fill="#B0ADA1" d="M1060.1,1253c-6.199,0-9.1-2.9-9.1-8.9c0-5.899,3-9.1,8.5-9.1c5.3,0,9.6,4,9.5,9.1
			C1068.9,1249.2,1065.2,1253,1060.1,1253z"/>
		<path fill="#B0ADA1" d="M1033,1253c-6.1,0-9-2.9-9-9c0-5.9,2.9-9,8.5-9c5.3,0,9.6,4,9.5,9C1042,1248.9,1037.9,1253,1033,1253z"/>
		<path fill="#B0ADA1" d="M1006.1,1253c-6.1,0-9-2.9-9.1-8.9c0-5.899,2.9-9,8.4-9.1c5.399,0,9.6,3.9,9.6,9
			C1015,1248.9,1010.9,1253,1006.1,1253z"/>
		<path fill="#B0ADA1" d="M1032.9,1268c4.899,0,9,4,9,8.9c0.1,5-4.101,9.1-9.5,9.1c-5.601,0-8.5-3.1-8.5-9
			C1024,1270.9,1026.9,1268,1032.9,1268z"/>
		<path fill="#B0ADA1" d="M1222.1,1071c6.101,0,8.9,3,8.9,9.1c0,5.801-3.4,9-9.3,8.9c-4.601-0.1-8.7-4.3-8.7-8.9
			C1212.9,1074.2,1216.1,1071,1222.1,1071z"/>
		<path fill="#B0ADA1" d="M1204,1145.9c0,4.699-4,8.899-8.3,9.1c-5,0.2-9.7-4.6-9.601-9.6c0.101-4.801,4.301-9.2,8.9-9.4
			C1199.9,1135.9,1204,1140.3,1204,1145.9z"/>
		<path fill="#B0ADA1" d="M1204,948.1c0,6-3,8.9-9.1,8.9c-5.801,0-9-3.4-8.9-9.3c0.1-4.601,4.3-8.7,8.9-8.7
			C1200.2,938.9,1204,942.8,1204,948.1z"/>
		<path fill="#B0ADA1" d="M1086.9,1253c-6,0-8.9-3-8.9-9.2c0-5.1,3.8-8.8,9-8.8c5,0,9,3.9,9,8.9
			C1096.1,1249.2,1092.2,1253,1086.9,1253z"/>
		<path fill="#B0ADA1" d="M1051,1277c0-6.1,2.9-9,9-9c5.3,0,9.1,3.9,9,9.2c-0.1,4.6-4.2,8.7-8.8,8.8
			C1054.3,1286.1,1051,1282.9,1051,1277z"/>
		<path fill="#B0ADA1" d="M1249.1,1038c6,0,8.9,3,8.9,9.1c0,5.9-3,9-8.6,8.9c-5.5,0-9.601-4.2-9.4-9.6
			C1240.1,1042,1244.5,1038,1249.1,1038z"/>
		<path fill="#B0ADA1" d="M1059.5,1104c6.4,0,9.5,2.8,9.5,8.6c0,5.2-4.2,9.601-9.2,9.4c-4.8-0.1-8.899-4.3-8.8-9.1
			C1051,1106.9,1053.9,1104,1059.5,1104z"/>
		<path fill="#B0ADA1" d="M1177,981.1c0,6-3,8.9-9.1,8.9c-5.801,0-9-3.4-8.9-9.3c0.1-4.601,4.2-8.7,8.9-8.7
			C1173.2,971.9,1177,975.8,1177,981.1z"/>
		<path fill="#B0ADA1" d="M943,652.3c0-4.899,4.2-9.399,8.7-9.3c4.6,0.1,9.399,5,9.3,9.5c0,4.3-4.8,9.3-8.9,9.4
			C946.7,662.1,943,658.1,943,652.3z"/>
		<path fill="#B0ADA1" d="M1006.1,1220c-6.1,0-9.1-2.9-9.1-8.9c0-5.899,3.2-9.1,9.1-9c4.9,0.101,9,4.301,8.9,9.2
			C1014.9,1216.3,1011.2,1220,1006.1,1220z"/>
		<path fill="#B0ADA1" d="M1060.1,1220c-6.1,0-9.1-2.9-9.1-8.9c0-5.399,3.8-9.199,9.1-9.1c4.601,0,8.801,4.1,8.9,8.7
			C1069.2,1216.5,1065.9,1220,1060.1,1220z"/>
		<path fill="#B0ADA1" d="M1114.1,1220c-6,0-9.1-2.9-9.1-8.5c0-5.3,4.1-9.6,9.1-9.5c4.9,0.1,8.801,4.2,8.801,9.3
			C1123.1,1217,1120,1220,1114.1,1220z"/>
		<path fill="#B0ADA1" d="M1051,816.9c0-6,3-8.9,9.1-8.9c5.7,0,9,3.5,8.9,9.3c-0.1,4.601-4.3,8.7-8.9,8.7
			C1054.8,826,1051,822.2,1051,816.9z"/>
		<path fill="#B0ADA1" d="M1033.2,808c5.1,0,8.8,3.8,8.8,8.9c0.1,4.8-4.2,9.1-9,9.1c-5.9,0-9-3.2-9-9.2S1027,808,1033.2,808z"/>
		<path fill="#B0ADA1" d="M943,816.6c0-5.699,2.9-8.5,8.8-8.6c4.9,0,9,3.9,9.2,8.8c0.2,4.9-4.2,9.2-9.4,9.2
			C945.9,826,943,822.9,943,816.6z"/>
		<path fill="#B0ADA1" d="M1060.1,1187c-6.1,0-9-2.9-9.1-8.9c0-4.6,4-9,8.4-9.1c5.5-0.1,9.6,4,9.6,9.5S1065.9,1187,1060.1,1187z"/>
		<path fill="#B0ADA1" d="M789.1,808c6.101,0,9,3,8.9,9.1c0,5.801-3.4,9.101-9.2,8.9c-4.6-0.1-8.7-4.2-8.8-8.8
			C779.9,811.9,783.8,808,789.1,808z"/>
		<path fill="#B0ADA1" d="M761.9,808c6.1,0,9.1,2.9,9.1,8.9c0,5.3-3.8,9.199-9.1,9.1c-4.601-0.1-8.7-4.1-8.9-8.7
			C752.9,811.4,756.1,808,761.9,808z"/>
		<path fill="#B0ADA1" d="M1113.8,808c6,0,9.2,2.8,9.2,8.4c0,5.399-3.9,9.6-9,9.6c-4.9,0-8.9-4.1-9-9.2
			C1104.9,811.1,1108,808,1113.8,808z"/>
		<path fill="#B0ADA1" d="M1141.1,1187c-6,0-9.1-2.9-9.1-8.5c0-5.3,4.1-9.6,9.2-9.5c4.899,0.1,8.8,4.2,8.8,9.4
			C1150,1184,1147,1187,1141.1,1187z"/>
		<path fill="#B0ADA1" d="M1177,1178.2c0,6-3,8.899-9.2,8.8c-5.8,0-8.899-3-8.8-8.7c0.1-5.399,4.4-9.5,9.7-9.3
			C1173.1,1169.2,1177,1173.6,1177,1178.2z"/>
		<path fill="#B0ADA1" d="M825,783.9c0,6-2.9,9.1-8.4,9.1c-5.399,0-9.6-4-9.6-9.1c0.1-4.9,4.1-8.801,9.3-8.9
			C821.9,774.9,825,778,825,783.9z"/>
		<path fill="#B0ADA1" d="M997,1309.6c0.1-5.899,3.1-8.699,9.4-8.6c4.899,0.1,8.6,4.1,8.6,9.2c-0.1,4.899-4.4,9.2-9.2,8.8
			C1000,1318.4,996.2,1315.5,997,1309.6z"/>
		<path fill="#B0ADA1" d="M825,882.8c0,4.9-4,9-8.8,9.101c-4.9,0.199-9.2-4.2-9.2-9.4c0-4.3,4.6-9.3,8.9-9.4
			C821,872.9,825,877.2,825,882.8z"/>
		<path fill="#B0ADA1" d="M1167.9,841c6.1,0,9.1,2.9,9.1,8.9c0,4.899-4,9-8.8,9.1c-4.9,0.1-9.101-4-9.2-8.9
			C1158.9,844.1,1161.9,841,1167.9,841z"/>
		<path fill="#B0ADA1" d="M1140.8,841c6,0,9.101,2.8,9.2,8.4c0,5.399-4,9.6-9.1,9.6c-4.9,0-8.801-4.1-8.9-9.2
			C1131.9,844.1,1135,841,1140.8,841z"/>
		<path fill="#B0ADA1" d="M761.8,841c6.2,0,9.101,2.8,9.2,8.8c0,4.9-3.9,9.101-8.7,9.2c-4.899,0.1-9.2-4-9.3-8.8
			C752.9,844.2,755.9,841,761.8,841z"/>
		<path fill="#B0ADA1" d="M734.9,841c6,0,9.1,2.9,9.1,8.4c0,5.399-4,9.6-9.1,9.6c-4.9-0.1-8.801-4.1-8.9-9.3
			C725.9,844.1,729,841,734.9,841z"/>
		<path fill="#B0ADA1" d="M1032.8,727c-6,0-8.8-3-8.8-9.2c0-5,3.8-8.7,9-8.8c4.8,0,9.2,4.2,9,9C1041.8,722.6,1039,728,1032.8,727z"
			/>
		<path fill="#B0ADA1" d="M897.2,727c-4.9,0-9-3.9-9.2-8.8c-0.2-4.7,4.5-9.2,9.5-9.2c4.9,0,9.9,4.7,9.3,9.3
			C906,723.7,902.7,728.1,897.2,727z"/>
		<path fill="#B0ADA1" d="M879,718.8c0,5.7-2.9,8.2-9.1,8.2c-4.601,0-8.9-4.2-8.9-8.5c0-5.3,4.2-9.8,9.1-9.4
			C875.7,709.5,879.9,712.3,879,718.8z"/>
		<path fill="#B0ADA1" d="M970,685.5c0-5.6,3.7-9.7,8.7-9.5c5.3,0.2,9.2,4.2,9.3,9.4c0,5.5-3.4,8.6-9.7,8.6
			C972.7,694,970,691.2,970,685.5z"/>
		<path fill="#B0ADA1" d="M924.5,694c-5,0-9.4-4-9.5-8.5c0-4.4,4.9-9.4,9.3-9.5c4.5-0.1,9.8,5,9.601,9.2
			C933.8,690.5,930.1,694,924.5,694z"/>
		<path fill="#B0ADA1" d="M1032.7,760c-6-0.1-8.8-3.1-8.7-9.3c0.1-5.5,3.3-8.7,8.9-8.7c4.8,0,9.1,4.2,9.1,9
			C1042,756.4,1038.2,760,1032.7,760z"/>
		<path fill="#B0ADA1" d="M951.9,760c-5.9,0-8.9-2.8-8.9-8.5c0-6.4,2.8-9.5,8.5-9.5c5.3,0,9.6,4.2,9.5,9.1
			C960.9,756,956.7,760,951.9,760z"/>
		<path fill="#B0ADA1" d="M970,718.2c0-5.8,3.2-9.5,8.5-9.101c6.2,0.4,9.1,3.2,9.4,9.601c0.199,4.899-4,8.399-9.301,8.3
			C972.8,726.9,970,724,970,718.2z"/>
		<path fill="#B0ADA1" d="M1005.6,694c-5.899,0-8.6-2.7-8.6-8.6c0-5,4-9.4,8.6-9.4c5.2,0,9.2,4,9.4,9.2
			C1015.2,690.7,1011.7,694,1005.6,694z"/>
		<path fill="#B0ADA1" d="M1060,760c-6.1,0-9-2.9-9-9c0-5.3,3.9-9.1,9.2-9c4.6,0.1,8.7,4.2,8.8,8.8
			C1069.1,756.1,1065.3,760,1060,760z"/>
		<path fill="#B0ADA1" d="M951.5,694c-5.9,0-8.5-2.7-8.5-8.8c0-5.9,3.1-9.2,8.4-9.2c4.399,0,9.399,4.9,9.5,9.3
			C961.1,690.8,957.6,694,951.5,694z"/>
		<path fill="#B0ADA1" d="M1285,1046.8c0,6.101-2.8,9.2-8.4,9.2c-5.3,0-9.699-4.1-9.6-9.1c0.1-5.101,4.4-9,9.8-8.9
			C1282.2,1038.1,1285,1041.2,1285,1046.8z"/>
		<path fill="#B0ADA1" d="M1032.9,1104c6.199,0,9.1,2.9,9.1,8.9c0,4.8-4.3,9.1-9,9.1c-4.8,0-9-4.2-9-9
			C1024,1106.9,1026.9,1104,1032.9,1104z"/>
		<path fill="#B0ADA1" d="M1222.5,1104c5.9,0,8.5,2.7,8.5,8.8c0,4.9-4.2,9.4-8.7,9.2c-5.3-0.1-9.2-4.1-9.3-9.4
			C1212.9,1107.1,1216.4,1104,1222.5,1104z"/>
		<path fill="#B0ADA1" d="M798,948c0,6.1-3,8.7-9.1,9.1c-5.801,0.4-8.601-4.399-8.9-8.899c-0.2-4.9,4.1-9.2,8.9-9.2
			C793.9,939,798,943.1,798,948z"/>
		<path fill="#B0ADA1" d="M1285,1014.5c0,5.4-3,8.5-8.5,8.5c-5.3,0-9.7-4.2-9.5-9.2c0.2-4.899,4.3-8.8,9.4-8.8
			C1282.2,1005,1285,1008.1,1285,1014.5z"/>
		<path fill="#B0ADA1" d="M1032.5,1187c-5.6,0-8.4-3-8.5-8.9c0-4.6,4-9,8.3-9.1c5.2-0.2,9.601,3.9,9.7,8.9
			C1042.1,1184,1038.9,1187,1032.5,1187z"/>
		<path fill="#B0ADA1" d="M1086.9,1187c-5.9,0-9-3-8.9-8.7c0.1-4.8,4-9.2,8.3-9.3c5.5-0.1,9.7,4,9.7,9.5
			C1096,1184.1,1092.9,1187,1086.9,1187z"/>
		<path fill="#B0ADA1" d="M1114,1187c-5.9,0-9-3-9-8.6c0-5.101,4.2-9.5,8.8-9.4c5.4,0.2,9.2,4.1,9.2,9.4
			C1123,1184.1,1119.9,1187,1114,1187z"/>
		<path fill="#B0ADA1" d="M798,849.9c0,5.1-3.9,9.1-8.6,9.1c-5-0.1-9.2-4-9.4-8.8c-0.1-5.8,3.1-9.2,8.9-9.2
			C795,841,798,843.9,798,849.9z"/>
		<path fill="#B0ADA1" d="M825,915.7c0,5.1-3.5,8.8-8.4,9c-5,0.1-9.5-4.101-9.6-9c-0.1-5.2,4.1-9.7,9.1-9.601
			C821.2,906.1,825,910.3,825,915.7z"/>
		<path fill="#B0ADA1" d="M1231,915.9c0,4.8-3.9,8.899-8.5,8.899c-4.9,0-9.5-4.6-9.5-9.3c0-5.1,4-9.3,8.8-9.4
			C1226.9,905.9,1231,910.3,1231,915.9z"/>
		<path fill="#B0ADA1" d="M897.6,694c-5.6,0-9.699-3.7-9.5-8.6c0.101-4.601,5-9.4,9.5-9.4c4.301,0,9.2,4.8,9.4,8.9
			C907,689.9,902.8,694,897.6,694z"/>
		<path fill="#B0ADA1" d="M943,784.2c0-6,2.8-9.101,8.4-9.2c5.3,0,9.699,4,9.6,9.1c0,4.801-4.2,8.9-9.2,8.9
			C946.1,793.1,943,790,943,784.2z"/>
		<path fill="#B0ADA1" d="M951.4,727c-5.9,0-8.5-2.7-8.4-8.8c0-5.8,3.1-9.2,8.5-9.2c5.2,0,9.6,4.2,9.5,9.1
			C960.9,723.1,956.7,727,951.4,727z"/>
		<path fill="#B0ADA1" d="M852,915.8c0,4.9-3.8,8.8-8.5,8.9c-4.9,0-9.5-4.4-9.5-9.2c0-4.9,4.7-9.7,9.3-9.5
			C848.3,906.2,852,910.4,852,915.8z"/>
		<path fill="#B0ADA1" d="M997,1112.6c0-5.899,2.7-8.6,8.6-8.6c6.101,0,9.601,3.3,9.4,8.7c-0.2,5.1-4.1,9.2-8.9,9.2
			C1001.2,1122.1,997,1117.8,997,1112.6z"/>
		<path fill="#B0ADA1" d="M1258,1080.2c-0.1,5.5-3.3,9-8.5,8.7c-6.2-0.4-9.1-3.301-9.5-9.601c-0.2-4.3,4.5-8.3,9.2-8.3
			C1255.3,1071.1,1258.1,1074,1258,1080.2z"/>
	</g>
	<path fill="#B0ADA1" d="M852,1047.6c0,5.2-4.2,9.601-9.2,9.4c-5-0.1-8.899-4.4-8.8-9.8c0.1-5,4.1-9.101,8.9-9.2
		C847.9,1038,852,1042.3,852,1047.6z"/>
	<path fill="#B0ADA1" d="M879,1047.4c-0.1,5.399-4.1,9.6-9,9.5c-5-0.101-9-4.5-9-9.7c0.1-4.9,4.2-9.3,9-9.2
		C874.1,1038.2,880.3,1042.1,879,1047.4z"/>
	<path fill="#B0ADA1" d="M636,1046.9c0.1,4.899-4.7,10-9.4,10c-4.3,0.1-9.399-4.7-9.5-8.9c-0.1-4.9,4.601-10,9.301-10
		C630.7,1038,635.9,1042.9,636,1046.9z"/>
	<path fill="#B0ADA1" d="M599.3,1038c4.4-0.2,9.5,4.7,9.601,9.3c0.199,4.4-4.7,9.5-9.301,9.601c-4.399,0.199-9.5-4.7-9.6-9.301
		C589.9,1043.3,594.7,1038.2,599.3,1038z"/>
	<path fill="#B0ADA1" d="M626.8,973c5.101,0,9.4,4.4,9.2,9.3c-0.2,4.7-4.3,8.7-8.9,8.7c-5.5,0-10.5-4.3-9.899-9.2
		C617.9,976.4,621.3,971.9,626.8,973z"/>
	<path fill="#B0ADA1" d="M978.6,1188c-5.3,0-9.699-4.2-9.5-9.2c0.101-4.899,4.301-8.8,9.4-8.8s9.7,4,9.6,8.6
		C987.9,1183.9,983.8,1188,978.6,1188z"/>
	<path fill="#B0ADA1" d="M653.7,1089c-5.8,0-8.4-2.6-8.8-8.1c-0.5-6.9,3.199-9.601,8.399-9.7c6.3-0.2,9.2,3.1,9.601,9.399
		C663.2,1085.9,659.6,1089,653.7,1089z"/>
	<path fill="#B0ADA1" d="M653.5,1006c6.1,0,9.7,3.3,9.5,8.8c-0.2,5.3-4.2,9.2-9.5,9.2c-5.6,0-8.5-3.4-8.5-9.7
		C645,1008.7,647.8,1006,653.5,1006z"/>
	<path fill="#B0ADA1" d="M906,1047.9c0,4.699-4,8.899-8.3,9.1c-5,0.2-9.7-4.6-9.7-9.6c0.1-4.801,4.3-9.2,8.9-9.4
		C901.9,1037.9,906,1042.3,906,1047.9z"/>
	<path fill="#B0ADA1" d="M699,1145.6c0.1-5.699,3.2-8.699,8.9-8.6c5,0.1,9.1,4.2,9.1,9c0,5.1-4.2,9.1-9.4,9
		C701.7,1154.9,698.9,1151.9,699,1145.6z"/>
	<path fill="#B0ADA1" d="M788.8,1155c-6,0-8.899-3-8.8-9.2c0-5.1,3.8-8.8,9-8.8c5.1,0,9.1,4.2,9,9.6
		C797.9,1152.1,794.7,1155,788.8,1155z"/>
	<path fill="#B0ADA1" d="M852,1112.9c0,6.1-2.9,9-8.9,9.1c-5.899,0-9-2.9-9.1-8.4c0-5.399,3.9-9.6,9-9.6
		C847.9,1104,852,1108.1,852,1112.9z"/>
	<path fill="#B0ADA1" d="M708,1122c-6.1,0-9-2.9-9-9c0-5.9,3.3-9.1,9.2-9c4.6,0.1,8.7,4.2,8.8,8.8C717.1,1118.7,713.9,1122,708,1122
		z"/>
	<path fill="#B0ADA1" d="M672,1113.6c0-6.5,3-9.699,9.1-9.6c4.601,0,8.801,4.1,8.9,8.7c0.1,5.3-3.7,9.3-9,9.3
		C675.1,1122,672,1119.2,672,1113.6z"/>
	<path fill="#B0ADA1" d="M707.9,925c-6,0-8.9-3-8.9-9.1c0-5.801,3-8.9,8.6-8.9c5.301,0,9.5,4.2,9.4,9.2
		C716.9,921.1,712.8,925,707.9,925z"/>
	<path fill="#B0ADA1" d="M734.9,925c-6,0-8.9-3-8.9-9.1c0-5.9,3-8.9,8.6-8.9c5.301,0,9.5,4.1,9.4,9.2C743.9,921,739.8,925,734.9,925
		z"/>
	<path fill="#B0ADA1" d="M707.8,973c6,0,9.2,3.1,9.2,9c0,4.8-4.3,9-9.1,9c-5.7-0.1-8.801-3.2-8.9-8.8C699,976,701.8,973,707.8,973z"
		/>
	<path fill="#B0ADA1" d="M599.8,973c4.7,0,8.9,3.9,9.101,8.3c0.199,4.9-4.601,9.7-9.601,9.7c-4.7-0.1-9.2-4.3-9.399-8.8
		C589.8,977.1,594.3,973,599.8,973z"/>
	<path fill="#B0ADA1" d="M699,948.8c0-6,3-8.8,9.2-8.8c4.8,0,8.899,4.2,8.8,9.1c-0.1,5.101-4.3,8.9-9.7,8.9
		C701.8,957.9,699,954.8,699,948.8z"/>
	<path fill="#B0ADA1" d="M626.4,940c5.399-0.1,9.699,4,9.6,9.1c0,4.801-4.2,8.9-9.3,8.9c-5.3,0.1-9.7-4.1-9.601-9.1
		C617.2,943.9,621.2,940.1,626.4,940z"/>
	<path fill="#B0ADA1" d="M753,1178.8c0.1-6,3.1-8.8,9.3-8.8c5,0.1,8.7,3.9,8.7,9s-4.3,9-9.7,9C755.9,1187.9,753,1184.6,753,1178.8z"
		/>
	<path fill="#B0ADA1" d="M726,1179.2c-0.1-6.2,2.8-9.2,8.8-9.2c4.9,0,9.101,3.9,9.2,8.7c0.1,5.1-4,9.2-9.3,9.3
		C729.1,1188.1,726,1185,726,1179.2z"/>
	<path fill="#B0ADA1" d="M726,981.8c0-6,3-8.899,9.2-8.8c5.6,0,8.7,3.2,8.8,8.9c0.1,4.8-4.1,9.1-9,9.1
		C729.7,991,726,987.2,726,981.8z"/>
	<path fill="#B0ADA1" d="M906,1212.3c-0.1,5.5-3.3,8.7-8.9,8.7c-4.8,0-9.1-4.2-9.1-9c0-5.3,3.8-9,9.2-9
		C903.2,1203.1,906.1,1206.1,906,1212.3z"/>
	<path fill="#B0ADA1" d="M960,1211.8c0,6.2-3,9.3-8.8,9.2c-5-0.1-9.101-4.2-9.101-9s4.2-9,8.9-9C957.1,1203,960,1205.9,960,1211.8z"
		/>
	<path fill="#B0ADA1" d="M753,948.9c0-6.101,3-9,9.1-8.9c5.101,0,8.801,3.7,8.9,8.8c0.1,4.9-4,9.2-8.9,9.2
		C756.2,958.1,753,954.9,753,948.9z"/>
	<path fill="#B0ADA1" d="M735.4,940c4.899,0.1,8.699,4.1,8.6,9.1c-0.1,4.9-4.4,9.2-9.2,8.801c-5.7-0.5-9.3-3.4-8.899-9.301
		C726.4,942.7,729.1,939.9,735.4,940z"/>
	<path fill="#B0ADA1" d="M672,948.8c0.1-5.8,3.2-8.899,8.8-8.8c5.101,0.1,9.2,4.1,9.2,9c0,5.1-4.3,9.1-9.7,9
		C674.8,957.9,671.9,954.8,672,948.8z"/>
	<path fill="#B0ADA1" d="M753,1211.9c0-6.101,3-9,9.1-8.9c5.801,0,9.101,3.4,8.9,9.2c-0.1,4.6-4.2,8.7-8.8,8.8
		C756.9,1221.1,753,1217.2,753,1211.9z"/>
	<path fill="#B0ADA1" d="M680.4,1006c6.199,0,9.699,3.1,9.6,8.6c-0.1,5.301-4.1,9.301-9.4,9.4c-5,0.1-8.699-4-8.6-9.6
		C672.1,1008.8,674.7,1006,680.4,1006z"/>
	<path fill="#B0ADA1" d="M707.8,892c-6,0-8.8-3.1-8.8-9.2c0.1-5.6,3.2-8.7,8.9-8.8c4.8,0,9.1,4.2,9.1,9
		C717,888.4,713.2,892,707.8,892z"/>
	<path fill="#B0ADA1" d="M789.1,1236c5.9,0,9,3,8.9,8.7c-0.1,5.2-3.9,9.2-8.8,9.3c-5.101,0.1-9.2-4.2-9.2-9.5
		C780,1238.9,783.1,1236,789.1,1236z"/>
	<path fill="#B0ADA1" d="M807,1244.2c0.1-5.5,3.4-8.3,9.4-8.2c5.8,0.1,8.8,3.3,8.6,9c-0.2,5-4.3,9.1-9.2,9
		C810.7,1253.9,806.9,1249.6,807,1244.2z"/>
	<path fill="#B0ADA1" d="M672,915.8c0.1-5.8,3.1-8.899,8.8-8.8c5.101,0.1,9.2,4.1,9.2,9c0,5.1-4.2,9.1-9.7,9S671.9,921.8,672,915.8z
		"/>
	<path fill="#B0ADA1" d="M906,1179.2c-0.1,5.8-3.2,8.899-8.8,8.8c-5.101-0.1-9.2-4.1-9.2-9c0-5.1,4.3-9.1,9.7-9
		C903.2,1170.1,906.1,1173.2,906,1179.2z"/>
	<path fill="#B0ADA1" d="M734.8,1122c-6,0-8.8-3-8.8-9.2c0-5.1,3.8-8.7,9-8.8c4.8,0,9.2,4.2,9,9.1
		C743.8,1117.6,741,1122.9,734.8,1122z"/>
	<path fill="#B0ADA1" d="M960,1113.6c0,5.9-2.7,8.5-8.8,8.4c-4.9,0-9.4-4.2-9.2-8.8c0.2-5.101,4.1-9.2,8.9-9.2
		C957,1103.9,960,1107.1,960,1113.6z"/>
	<path fill="#B0ADA1" d="M879,1145.9c0,6.1-2.9,9.1-8.9,9.1c-5.399,0-9.199-3.8-9.1-9.1c0-4.601,4.1-8.801,8.7-8.9
		C875.5,1136.8,879,1140.1,879,1145.9z"/>
	<path fill="#B0ADA1" d="M734.7,1089c-5.7,0-8.601-2.9-8.7-8.7c-0.1-4.899,4.1-9.399,8.7-9.3c5.1,0.1,9.2,4,9.3,8.8
		C744.1,1086,741.1,1089,734.7,1089z"/>
	<path fill="#B0ADA1" d="M707.6,1089c-5.899,0-8.6-2.7-8.6-8.6c0-5,4.1-9.4,8.6-9.4c5.101,0.1,9.301,4,9.4,8.7
		C717.2,1085.8,713.9,1089,707.6,1089z"/>
	<path fill="#B0ADA1" d="M672,1080.5c0-5.6,3.7-9.7,8.7-9.5c5.3,0.2,9.2,4.2,9.3,9.5c0,5.6-3.4,8.6-9.7,8.5
		C674.7,1089,672,1086.2,672,1080.5z"/>
	<path fill="#B0ADA1" d="M924.3,1089c-5.899,0-9.2-3-9.3-8.4c-0.1-5.399,4.2-9.699,9.6-9.6c5.101,0.1,8.4,4,8.4,9.9
		C933,1086.4,930.1,1089,924.3,1089z"/>
	<path fill="#B0ADA1" d="M960,1145.9c0,6-2.9,9.1-8.4,9.1c-5.199,0-9.6-4-9.5-8.6c0.101-5.301,4-9.301,9.301-9.4
		C956.9,1136.9,960,1140,960,1145.9z"/>
	<path fill="#B0ADA1" d="M842.6,1155c-4.899-0.1-8.6-4-8.6-9.1c0.1-4.801,4.3-9,9.2-8.9c5.3,0.1,8.899,3.9,8.8,9.4
		C851.9,1152.3,848.9,1155.1,842.6,1155z"/>
	<path fill="#B0ADA1" d="M933,1212.4c-0.1,5.5-3.4,8.699-9.2,8.6c-4.899-0.1-9-4.4-8.8-9.3c0.1-4.8,4.4-8.7,9.3-8.7
		C930.3,1203.1,933.1,1206.1,933,1212.4z"/>
	<path fill="#B0ADA1" d="M645,948.9c0-5.9,3-9,8.7-8.9c4.8,0.1,9.2,4,9.3,8.3c0.1,5.5-4,9.7-9.5,9.7C647.9,958,645,954.9,645,948.9z
		"/>
	<path fill="#B0ADA1" d="M681.2,973c4.8,0,8.7,3.8,8.8,8.4c0,5.199-4.1,9.699-9.1,9.5c-4.601-0.2-9.601-3-9-9.2
		C672.4,975.8,675,972.9,681.2,973z"/>
	<path fill="#B0ADA1" d="M654.1,973c4.5,0,8.9,4.2,8.9,8.5c0,5.3-4.2,9.7-9.1,9.4c-5.4-0.4-9.5-3.2-9-9.7
		C645.4,975.8,648.1,973,654.1,973z"/>
	<path fill="#B0ADA1" d="M897.5,1089c-6.5,0-9.6-3-9.5-9.1c0-5,4.5-9,9.7-8.9c4.3,0.1,8.3,4.5,8.3,9.1
		C906,1086,903.2,1089,897.5,1089z"/>
	<path fill="#B0ADA1" d="M626.5,1089c-4.8,0-9.3-3.8-9.4-8c-0.1-4.9,4.5-9.9,9.301-10c4.5-0.1,9.8,5,9.6,9.2
		C635.8,1085.6,632.1,1089,626.5,1089z"/>
	<path fill="#B0ADA1" d="M707.6,1006c6.301,0,9.5,3.1,9.4,9.2c-0.1,4.8-4.2,8.7-9.3,8.8c-4.5,0.1-8.7-4.4-8.7-9.2
		C699,1008.9,701.9,1006,707.6,1006z"/>
	<path fill="#B0ADA1" d="M599.4,1006c5.1,0,9.5,3.9,9.6,8.4s-4.9,9.5-9.4,9.5c-4.3,0-9.399-4.7-9.6-8.9
		C589.9,1010.3,594.2,1006,599.4,1006z"/>
	<path fill="#B0ADA1" d="M672,1047.4c0-5,4.2-9.5,8.7-9.4c4.6,0.1,9.399,5.1,9.3,9.6c-0.1,4.301-5,9.4-9.1,9.4
		C675.9,1057,672,1052.7,672,1047.4z"/>
	<path fill="#B0ADA1" d="M663,1047.5c0,4.3-4.8,9.4-8.9,9.5c-4.899,0.1-9.1-4.2-9.1-9.5c0-5,4-9.5,8.5-9.5S663,1043,663,1047.5z"/>
	<path fill="#B0ADA1" d="M626.4,1024c-4.301-0.1-9.7-5-9.2-9.1c0.7-5.101,3.399-9.7,10-9c4.7,0.5,9,4.6,8.8,9.3
		C635.8,1019.4,630.7,1024.1,626.4,1024z"/>
	<path fill="#B0ADA1" d="M645,916c0-5.9,2.9-9,8.6-9c5.2,0,9.601,4.3,9.4,9.2c-0.2,4.899-4.3,8.7-9.4,8.8C648,925,645,921.9,645,916
		z"/>
	<path fill="#B0ADA1" d="M645,1113.1c0-6.1,3.2-9.199,9.1-9.1c4.601,0,8.7,4.1,8.9,8.8c0.1,4.9-4.3,9.3-9.4,9.2
		C647.8,1121.9,645,1119,645,1113.1z"/>
	<path fill="#B0ADA1" d="M960,1178.8c0,6-2.8,9.101-8.4,9.2c-5.3,0-9.699-4-9.6-9.1c0.1-4.801,4.2-8.9,9.2-8.9
		C956.9,1169.9,960,1173,960,1178.8z"/>
	<path fill="#B0ADA1" d="M572.5,1006c5.9,0,8.5,2.7,8.5,8.7c0,5.899-3,9.2-8.4,9.3c-4.5,0.1-9.8-5-9.6-9.3
		C563.2,1009.4,566.9,1006,572.5,1006z"/>
</g>
<rect x="1696.5" y="1884.5" fill="none" width="364" height="88"/>
<text transform="matrix(1 0 0 1 1696.5 1935.6191)" fill="#81BE41" font-family="'MyriadPro-Regular'" font-size="72">= 0.5 mi</text>
<circle fill="#81BE41" cx="1648.5" cy="1912.75" r="23.75"/>
</svg>
