<?xml version="1.0" encoding="utf-8"?>
<!-- Generator: Adobe Illustrator 16.0.0, SVG Export Plug-In . SVG Version: 6.00 Build 0)  -->
<!DOCTYPE svg PUBLIC "-//W3C//DTD SVG 1.1//EN" "http://www.w3.org/Graphics/SVG/1.1/DTD/svg11.dtd">
<svg version="1.1" id="Layer_1" xmlns="http://www.w3.org/2000/svg" xmlns:xlink="http://www.w3.org/1999/xlink" x="0px" y="0px"
	 width="2300px" height="2300px" viewBox="0 0 2300 2300" enable-background="new 0 0 2300 2300" xml:space="preserve">
<g id="base_copy_2">
	<path fill="#BCBEC0" d="M1189.6,1249.6c0,22.102-17.898,40-40,40l0,0c-22.1,0-40-17.898-40-40v-920c0-22.1,17.9-40,40-40l0,0
		c22.102,0,40,17.9,40,40V1249.6z"/>
	<path fill="#BCBEC0" d="M1161.7,1288.4c-21,6.8-43.602-4.7-50.4-25.7l0,0c-6.8-21,4.7-43.601,25.7-50.4L2012,928
		c21-6.8,43.6,4.7,50.4,25.7l0,0c6.8,21-4.7,43.6-25.7,50.398L1161.7,1288.4z"/>
	<path fill="#BCBEC0" d="M1117.4,1273.5c-13-17.9-9-42.9,8.8-55.9l0,0c17.899-13,42.899-9,55.899,8.802l540.801,744.3
		c13,17.898,9,42.898-8.801,55.898l0,0c-17.899,13-42.899,9-55.899-8.8L1117.4,1273.5z"/>
	<path fill="#BCBEC0" d="M1118,1226.3c13-17.898,38-21.8,55.9-8.8l0,0c17.898,13,21.8,38,8.8,55.9L642,2017.7
		c-13,17.898-38,21.8-55.9,8.8l0,0c-17.898-13-21.8-38-8.898-55.9L1118,1226.3z"/>
	<path fill="#BCBEC0" d="M1162.8,1212.1c21,6.802,32.5,29.4,25.7,50.4l0,0c-6.8,21-29.4,32.5-50.4,25.7l-875-284.3
		c-21-6.802-32.5-29.4-25.7-50.4l0,0c6.8-21,29.4-32.5,50.4-25.7L1162.8,1212.1z"/>
</g>
<g id="base_copy">
	<path opacity="0.2" fill="#59C7D8" enable-background="new    " d="M1189.6,1249.6c0,22.102-17.898,40-40,40l0,0
		c-22.1,0-40-17.898-40-40v-920c0-22.1,17.9-40,40-40l0,0c22.102,0,40,17.9,40,40V1249.6z"/>
	<path opacity="0.2" fill="#F1D21C" enable-background="new    " d="M1161.7,1288.4c-21,6.8-43.602-4.7-50.4-25.7l0,0
		c-6.8-21,4.7-43.601,25.7-50.4L2012,928c21-6.8,43.6,4.7,50.4,25.7l0,0c6.8,21-4.7,43.6-25.7,50.398L1161.7,1288.4z"/>
	<path opacity="0.2" fill="#E66127" enable-background="new    " d="M1117.4,1273.5c-13-17.9-9-42.9,8.8-55.9l0,0
		c17.899-13,42.899-9,55.899,8.802l540.801,744.3c13,17.898,9,42.898-8.801,55.898l0,0c-17.899,13-42.899,9-55.899-8.8
		L1117.4,1273.5z"/>
	<path opacity="0.2" fill="#B1AEA2" enable-background="new    " d="M1118,1226.3c13-17.898,38-21.8,55.9-8.8l0,0
		c17.898,13,21.8,38,8.8,55.9L642,2017.7c-13,17.898-38,21.8-55.9,8.8l0,0c-17.898-13-21.8-38-8.898-55.9L1118,1226.3z"/>
	<path opacity="0.2" fill="#24428D" enable-background="new    " d="M1162.8,1212.1c21,6.802,32.5,29.4,25.7,50.4l0,0
		c-6.8,21-29.4,32.5-50.4,25.7l-875-284.3c-21-6.802-32.5-29.4-25.7-50.4l0,0c6.8-21,29.4-32.5,50.4-25.7L1162.8,1212.1z"/>
</g>
<g id="ticks">
	<line fill="none" stroke="#FFFFFF" stroke-width="2" stroke-miterlimit="10" x1="1137.5" y1="327.1" x2="1161.7" y2="327.1"/>
	<line fill="none" stroke="#FFFFFF" stroke-width="2" stroke-miterlimit="10" x1="1137.5" y1="419.4" x2="1161.7" y2="419.4"/>
	<line fill="none" stroke="#FFFFFF" stroke-width="2" stroke-miterlimit="10" x1="1137.5" y1="511.7" x2="1161.7" y2="511.7"/>
	<line fill="none" stroke="#FFFFFF" stroke-width="2" stroke-miterlimit="10" x1="1137.5" y1="604.1" x2="1161.7" y2="604.1"/>
	<line fill="none" stroke="#FFFFFF" stroke-width="2" stroke-miterlimit="10" x1="1137.5" y1="696.4" x2="1161.7" y2="696.4"/>
	<line fill="none" stroke="#FFFFFF" stroke-width="2" stroke-miterlimit="10" x1="1137.5" y1="788.7" x2="1161.7" y2="788.7"/>
	<line fill="none" stroke="#FFFFFF" stroke-width="2" stroke-miterlimit="10" x1="1137.5" y1="881" x2="1161.7" y2="881"/>
	<line fill="none" stroke="#FFFFFF" stroke-width="2" stroke-miterlimit="10" x1="1137.5" y1="973.4" x2="1161.7" y2="973.4"/>
	<line fill="none" stroke="#FFFFFF" stroke-width="2" stroke-miterlimit="10" x1="1137.5" y1="1065.7" x2="1161.7" y2="1065.7"/>
	<line fill="none" stroke="#FFFFFF" stroke-width="2" stroke-miterlimit="10" x1="1137.5" y1="1158" x2="1161.7" y2="1158"/>
	<line fill="none" stroke="#FFFFFF" stroke-width="2" stroke-miterlimit="10" x1="1100.3" y1="1338.1" x2="1080.8" y2="1323.8"/>
	<line fill="none" stroke="#FFFFFF" stroke-width="2" stroke-miterlimit="10" x1="992.2" y1="1487.4" x2="972.6" y2="1473.2"/>
	<line fill="none" stroke="#FFFFFF" stroke-width="2" stroke-miterlimit="10" x1="938.1" y1="1562.1" x2="918.6" y2="1547.9"/>
	<line fill="none" stroke="#FFFFFF" stroke-width="2" stroke-miterlimit="10" x1="884" y1="1636.8" x2="864.5" y2="1622.6"/>
	<line fill="none" stroke="#FFFFFF" stroke-width="2" stroke-miterlimit="10" x1="829.9" y1="1711.5" x2="810.4" y2="1697.3"/>
	<line fill="none" stroke="#FFFFFF" stroke-width="2" stroke-miterlimit="10" x1="775.8" y1="1786.2" x2="756.3" y2="1772"/>
	<line fill="none" stroke="#FFFFFF" stroke-width="2" stroke-miterlimit="10" x1="721.8" y1="1860.9" x2="702.2" y2="1846.7"/>
	<line fill="none" stroke="#FFFFFF" stroke-width="2" stroke-miterlimit="10" x1="667.7" y1="1935.6" x2="648.1" y2="1921.4"/>
	<line fill="none" stroke="#FFFFFF" stroke-width="2" stroke-miterlimit="10" x1="613.6" y1="2010.3" x2="594.1" y2="1996.1"/>
	<line fill="none" stroke="#FFFFFF" stroke-width="2" stroke-miterlimit="10" x1="1703.2" y1="1996" x2="1683.7" y2="2010.2"/>
	<line fill="none" stroke="#FFFFFF" stroke-width="2" stroke-miterlimit="10" x1="1649.1" y1="1921.3" x2="1629.6" y2="1935.5"/>
	<line fill="none" stroke="#FFFFFF" stroke-width="2" stroke-miterlimit="10" x1="1595" y1="1846.6" x2="1575.5" y2="1860.8"/>
	<line fill="none" stroke="#FFFFFF" stroke-width="2" stroke-miterlimit="10" x1="1541" y1="1771.9" x2="1521.4" y2="1786.1"/>
	<line fill="none" stroke="#FFFFFF" stroke-width="2" stroke-miterlimit="10" x1="1486.9" y1="1697.2" x2="1467.3" y2="1711.4"/>
	<line fill="none" stroke="#FFFFFF" stroke-width="2" stroke-miterlimit="10" x1="1432.8" y1="1622.5" x2="1413.3" y2="1636.7"/>
	<line fill="none" stroke="#FFFFFF" stroke-width="2" stroke-miterlimit="10" x1="1378.7" y1="1547.8" x2="1359.2" y2="1562"/>
	<line fill="none" stroke="#FFFFFF" stroke-width="2" stroke-miterlimit="10" x1="1324.6" y1="1473.1" x2="1305.1" y2="1487.3"/>
	<line fill="none" stroke="#FFFFFF" stroke-width="2" stroke-miterlimit="10" x1="1270.6" y1="1398.4" x2="1251" y2="1412.6"/>
	<line fill="none" stroke="#FFFFFF" stroke-width="2" stroke-miterlimit="10" x1="1216.5" y1="1323.7" x2="1196.9" y2="1338"/>
	<line fill="none" stroke="#FFFFFF" stroke-width="2" stroke-miterlimit="10" x1="1239.9" y1="1208.3" x2="1247.3" y2="1231.3"/>
	<line fill="none" stroke="#FFFFFF" stroke-width="2" stroke-miterlimit="10" x1="1327.4" y1="1179.7" x2="1334.8" y2="1202.8"/>
	<line fill="none" stroke="#FFFFFF" stroke-width="2" stroke-miterlimit="10" x1="1414.9" y1="1151.2" x2="1422.3" y2="1174.2"/>
	<line fill="none" stroke="#FFFFFF" stroke-width="2" stroke-miterlimit="10" x1="1502.4" y1="1122.7" x2="1509.8" y2="1145.7"/>
	<line fill="none" stroke="#FFFFFF" stroke-width="2" stroke-miterlimit="10" x1="1589.9" y1="1094.1" x2="1597.3" y2="1117.2"/>
	<line fill="none" stroke="#FFFFFF" stroke-width="2" stroke-miterlimit="10" x1="1677.4" y1="1065.6" x2="1684.9" y2="1088.7"/>
	<line fill="none" stroke="#FFFFFF" stroke-width="2" stroke-miterlimit="10" x1="1764.9" y1="1037.1" x2="1772.4" y2="1060.1"/>
	<line fill="none" stroke="#FFFFFF" stroke-width="2" stroke-miterlimit="10" x1="1852.4" y1="1008.5" x2="1859.9" y2="1031.6"/>
	<line fill="none" stroke="#FFFFFF" stroke-width="2" stroke-miterlimit="10" x1="1939.9" y1="980" x2="1947.4" y2="1003.1"/>
	<line fill="none" stroke="#FFFFFF" stroke-width="2" stroke-miterlimit="10" x1="2027.4" y1="951.5" x2="2034.9" y2="974.5"/>
	<line fill="none" stroke="#FFFFFF" stroke-width="2" stroke-miterlimit="10" x1="262.9" y1="973.5" x2="270.3" y2="950.5"/>
	<line fill="none" stroke="#FFFFFF" stroke-width="2" stroke-miterlimit="10" x1="350.4" y1="1002.1" x2="357.8" y2="979"/>
	<line fill="none" stroke="#FFFFFF" stroke-width="2" stroke-miterlimit="10" x1="437.9" y1="1030.6" x2="445.3" y2="1007.5"/>
	<line fill="none" stroke="#FFFFFF" stroke-width="2" stroke-miterlimit="10" x1="525.4" y1="1059.1" x2="532.8" y2="1036.1"/>
	<line fill="none" stroke="#FFFFFF" stroke-width="2" stroke-miterlimit="10" x1="612.9" y1="1087.7" x2="620.3" y2="1064.6"/>
	<line fill="none" stroke="#FFFFFF" stroke-width="2" stroke-miterlimit="10" x1="700.4" y1="1116.2" x2="707.9" y2="1093.1"/>
	<line fill="none" stroke="#FFFFFF" stroke-width="2" stroke-miterlimit="10" x1="787.9" y1="1144.7" x2="795.4" y2="1121.7"/>
	<line fill="none" stroke="#FFFFFF" stroke-width="2" stroke-miterlimit="10" x1="875.4" y1="1173.2" x2="882.9" y2="1150.2"/>
	<line fill="none" stroke="#FFFFFF" stroke-width="2" stroke-miterlimit="10" x1="962.9" y1="1201.8" x2="970.4" y2="1178.7"/>
	<line fill="none" stroke="#FFFFFF" stroke-width="2" stroke-miterlimit="10" x1="1050.4" y1="1230.3" x2="1057.9" y2="1207.3"/>
	<g>
		<line fill="none" stroke="#FFFFFF" stroke-width="2" stroke-miterlimit="10" x1="1046.3" y1="1412.8" x2="1026.7" y2="1398.5"/>
	</g>
</g>
<g id="shape">
	<polygon opacity="0.8" fill="#C2DB79" enable-background="new    " points="1102.1,693 799,1087 773,1179 937,1453 1017,1508 
		1274,1508 1350.5,1451.5 1526,1180 1495,1087 1198.1,693 	"/>
	<path fill="#545448" d="M1216.9,705.3c0,8-6.4,14.4-14.4,14.4h-106.2c-8,0-14.398-6.4-14.398-14.4V599.1
		c0-8,6.398-14.398,14.398-14.398h106.2c8,0,14.4,6.398,14.4,14.398V705.3z"/>
	<text transform="matrix(1 0 0 1 1120.356 690.5557)" fill="#EFEEDF" font-family="'AvenirLTStd-Heavy'" font-size="104.1747">6</text>
	<path fill="#545448" d="M1516.7,1199.8c-7.602,2.5-15.7-1.7-18.102-9.2l-32.8-101c-2.5-7.6,1.7-15.698,9.2-18.1l101-32.8
		c7.6-2.5,15.7,1.7,18.1,9.2l32.802,101c2.5,7.6-1.7,15.698-9.2,18.1L1516.7,1199.8z"/>
	<text transform="matrix(1 0 0 1 1516.126 1155.9238)" fill="#EFEEDF" font-family="'AvenirLTStd-Heavy'" font-size="104.1747">4</text>
	<path fill="#545448" d="M1249.3,1509.5c-4.7-6.4-3.2-15.4,3.2-20.1l85.9-62.4c6.398-4.7,15.398-3.2,20.1,3.2l62.4,85.898
		c4.698,6.4,3.198,15.4-3.2,20.102l-85.9,62.398c-6.398,4.7-15.398,3.2-20.1-3.198L1249.3,1509.5z"/>
	<text transform="matrix(1 0 0 1 1304.5371 1547.8896)" fill="#EFEEDF" font-family="'AvenirLTStd-Heavy'" font-size="104.1747">3</text>
	<path fill="#545448" d="M817.3,1071.4c7.602,2.5,11.7,10.6,9.2,18.1l-32.8,101c-2.5,7.6-10.602,11.7-18.102,9.2l-101-32.8
		c-7.6-2.5-11.698-10.602-9.198-18.102l32.8-101c2.5-7.6,10.6-11.7,18.1-9.2L817.3,1071.4z"/>
	<text transform="matrix(1 0 0 1 714.6245 1152.9453)" fill="#EFEEDF" font-family="'AvenirLTStd-Heavy'" font-size="104.1747">4</text>
	<path fill="#545448" d="M931.9,1433.1c4.698-6.398,13.698-7.898,20.1-3.198l85.9,62.398c6.398,4.7,7.898,13.7,3.198,20.102
		L978.7,1598.3c-4.7,6.4-13.7,7.9-20.102,3.2l-85.898-62.4c-6.4-4.698-7.9-13.698-3.2-20.1L931.9,1433.1z"/>
	<text transform="matrix(1 0 0 1 927.6172 1549.5283)" fill="#EFEEDF" font-family="'AvenirLTStd-Heavy'" font-size="104.1747">3</text>
</g>
</svg>
