<?xml version="1.0" encoding="utf-8"?>
<!-- Generator: Adobe Illustrator 16.0.0, SVG Export Plug-In . SVG Version: 6.00 Build 0)  -->
<!DOCTYPE svg PUBLIC "-//W3C//DTD SVG 1.1//EN" "http://www.w3.org/Graphics/SVG/1.1/DTD/svg11.dtd">
<svg version="1.1" xmlns="http://www.w3.org/2000/svg" xmlns:xlink="http://www.w3.org/1999/xlink" x="0px" y="0px" width="2300px"
	 height="2300px" viewBox="0 0 2300 2300" style="enable-background:new 0 0 2300 2300;" xml:space="preserve">
<g id="base_copy_2">
	<path style="fill:#BCBEC0;" d="M1189.6,1249.6c0,22.1-17.9,40-40,40l0,0c-22.1,0-40-17.9-40-40v-920c0-22.1,17.9-40,40-40l0,0
		c22.1,0,40,17.9,40,40V1249.6z"/>
	<path style="fill:#BCBEC0;" d="M1161.7,1288.4c-21,6.8-43.6-4.7-50.4-25.7l0,0c-6.8-21,4.7-43.6,25.7-50.4l875-284.3
		c21-6.8,43.6,4.7,50.4,25.7l0,0c6.8,21-4.7,43.6-25.7,50.4L1161.7,1288.4z"/>
	<path style="fill:#BCBEC0;" d="M1117.4,1273.5c-13-17.9-9-42.9,8.8-55.9l0,0c17.9-13,42.9-9,55.9,8.8l540.8,744.3
		c13,17.9,9,42.9-8.8,55.9l0,0c-17.9,13-42.9,9-55.9-8.8L1117.4,1273.5z"/>
	<path style="fill:#BCBEC0;" d="M1118,1226.3c13-17.9,38-21.8,55.9-8.8l0,0c17.9,13,21.8,38,8.8,55.9L642,2017.7
		c-13,17.9-38,21.8-55.9,8.8l0,0c-17.9-13-21.8-38-8.9-55.9L1118,1226.3z"/>
	<path style="fill:#BCBEC0;" d="M1162.8,1212.1c21,6.8,32.5,29.4,25.7,50.4l0,0c-6.8,21-29.4,32.5-50.4,25.7l-875-284.3
		c-21-6.8-32.5-29.4-25.7-50.4l0,0c6.8-21,29.4-32.5,50.4-25.7L1162.8,1212.1z"/>
</g>
<g id="base_copy">
	<path style="opacity:0.2;fill:#59C7D8;" d="M1189.6,1249.6c0,22.1-17.9,40-40,40l0,0c-22.1,0-40-17.9-40-40v-920
		c0-22.1,17.9-40,40-40l0,0c22.1,0,40,17.9,40,40V1249.6z"/>
	<path style="opacity:0.2;fill:#F1D21C;" d="M1161.7,1288.4c-21,6.8-43.6-4.7-50.4-25.7l0,0c-6.8-21,4.7-43.6,25.7-50.4l875-284.3
		c21-6.8,43.6,4.7,50.4,25.7l0,0c6.8,21-4.7,43.6-25.7,50.4L1161.7,1288.4z"/>
	<path style="opacity:0.2;fill:#E66127;" d="M1117.4,1273.5c-13-17.9-9-42.9,8.8-55.9l0,0c17.9-13,42.9-9,55.9,8.8l540.8,744.3
		c13,17.9,9,42.9-8.8,55.9l0,0c-17.9,13-42.9,9-55.9-8.8L1117.4,1273.5z"/>
	<path style="opacity:0.2;fill:#B1AEA2;" d="M1118,1226.3c13-17.9,38-21.8,55.9-8.8l0,0c17.9,13,21.8,38,8.8,55.9L642,2017.7
		c-13,17.9-38,21.8-55.9,8.8l0,0c-17.9-13-21.8-38-8.9-55.9L1118,1226.3z"/>
	<path style="opacity:0.2;fill:#24428D;" d="M1162.8,1212.1c21,6.8,32.5,29.4,25.7,50.4l0,0c-6.8,21-29.4,32.5-50.4,25.7l-875-284.3
		c-21-6.8-32.5-29.4-25.7-50.4l0,0c6.8-21,29.4-32.5,50.4-25.7L1162.8,1212.1z"/>
</g>
<g id="ticks">
	<line style="fill:none;stroke:#FFFFFF;stroke-width:2;stroke-miterlimit:10;" x1="1137.5" y1="327.1" x2="1161.7" y2="327.1"/>
	<line style="fill:none;stroke:#FFFFFF;stroke-width:2;stroke-miterlimit:10;" x1="1137.5" y1="419.4" x2="1161.7" y2="419.4"/>
	<line style="fill:none;stroke:#FFFFFF;stroke-width:2;stroke-miterlimit:10;" x1="1137.5" y1="511.7" x2="1161.7" y2="511.7"/>
	<line style="fill:none;stroke:#FFFFFF;stroke-width:2;stroke-miterlimit:10;" x1="1137.5" y1="604.1" x2="1161.7" y2="604.1"/>
	<line style="fill:none;stroke:#FFFFFF;stroke-width:2;stroke-miterlimit:10;" x1="1137.5" y1="696.4" x2="1161.7" y2="696.4"/>
	<line style="fill:none;stroke:#FFFFFF;stroke-width:2;stroke-miterlimit:10;" x1="1137.5" y1="788.7" x2="1161.7" y2="788.7"/>
	<line style="fill:none;stroke:#FFFFFF;stroke-width:2;stroke-miterlimit:10;" x1="1137.5" y1="881" x2="1161.7" y2="881"/>
	<line style="fill:none;stroke:#FFFFFF;stroke-width:2;stroke-miterlimit:10;" x1="1137.5" y1="973.4" x2="1161.7" y2="973.4"/>
	<line style="fill:none;stroke:#FFFFFF;stroke-width:2;stroke-miterlimit:10;" x1="1137.5" y1="1065.7" x2="1161.7" y2="1065.7"/>
	<line style="fill:none;stroke:#FFFFFF;stroke-width:2;stroke-miterlimit:10;" x1="1137.5" y1="1158" x2="1161.7" y2="1158"/>
	<line style="fill:none;stroke:#FFFFFF;stroke-width:2;stroke-miterlimit:10;" x1="1100.3" y1="1338.1" x2="1080.8" y2="1323.8"/>
	<line style="fill:none;stroke:#FFFFFF;stroke-width:2;stroke-miterlimit:10;" x1="992.2" y1="1487.4" x2="972.6" y2="1473.2"/>
	<line style="fill:none;stroke:#FFFFFF;stroke-width:2;stroke-miterlimit:10;" x1="938.1" y1="1562.1" x2="918.6" y2="1547.9"/>
	<line style="fill:none;stroke:#FFFFFF;stroke-width:2;stroke-miterlimit:10;" x1="884" y1="1636.8" x2="864.5" y2="1622.6"/>
	<line style="fill:none;stroke:#FFFFFF;stroke-width:2;stroke-miterlimit:10;" x1="829.9" y1="1711.5" x2="810.4" y2="1697.3"/>
	<line style="fill:none;stroke:#FFFFFF;stroke-width:2;stroke-miterlimit:10;" x1="775.8" y1="1786.2" x2="756.3" y2="1772"/>
	<line style="fill:none;stroke:#FFFFFF;stroke-width:2;stroke-miterlimit:10;" x1="721.8" y1="1860.9" x2="702.2" y2="1846.7"/>
	<line style="fill:none;stroke:#FFFFFF;stroke-width:2;stroke-miterlimit:10;" x1="667.7" y1="1935.6" x2="648.1" y2="1921.4"/>
	<line style="fill:none;stroke:#FFFFFF;stroke-width:2;stroke-miterlimit:10;" x1="613.6" y1="2010.3" x2="594.1" y2="1996.1"/>
	<line style="fill:none;stroke:#FFFFFF;stroke-width:2;stroke-miterlimit:10;" x1="1703.2" y1="1996" x2="1683.7" y2="2010.2"/>
	<line style="fill:none;stroke:#FFFFFF;stroke-width:2;stroke-miterlimit:10;" x1="1649.1" y1="1921.3" x2="1629.6" y2="1935.5"/>
	<line style="fill:none;stroke:#FFFFFF;stroke-width:2;stroke-miterlimit:10;" x1="1595" y1="1846.6" x2="1575.5" y2="1860.8"/>
	<line style="fill:none;stroke:#FFFFFF;stroke-width:2;stroke-miterlimit:10;" x1="1541" y1="1771.9" x2="1521.4" y2="1786.1"/>
	<line style="fill:none;stroke:#FFFFFF;stroke-width:2;stroke-miterlimit:10;" x1="1486.9" y1="1697.2" x2="1467.3" y2="1711.4"/>
	<line style="fill:none;stroke:#FFFFFF;stroke-width:2;stroke-miterlimit:10;" x1="1432.8" y1="1622.5" x2="1413.3" y2="1636.7"/>
	<line style="fill:none;stroke:#FFFFFF;stroke-width:2;stroke-miterlimit:10;" x1="1378.7" y1="1547.8" x2="1359.2" y2="1562"/>
	<line style="fill:none;stroke:#FFFFFF;stroke-width:2;stroke-miterlimit:10;" x1="1324.6" y1="1473.1" x2="1305.1" y2="1487.3"/>
	<line style="fill:none;stroke:#FFFFFF;stroke-width:2;stroke-miterlimit:10;" x1="1270.6" y1="1398.4" x2="1251" y2="1412.6"/>
	<line style="fill:none;stroke:#FFFFFF;stroke-width:2;stroke-miterlimit:10;" x1="1216.5" y1="1323.7" x2="1196.9" y2="1338"/>
	<line style="fill:none;stroke:#FFFFFF;stroke-width:2;stroke-miterlimit:10;" x1="1239.9" y1="1208.3" x2="1247.3" y2="1231.3"/>
	<line style="fill:none;stroke:#FFFFFF;stroke-width:2;stroke-miterlimit:10;" x1="1327.4" y1="1179.7" x2="1334.8" y2="1202.8"/>
	<line style="fill:none;stroke:#FFFFFF;stroke-width:2;stroke-miterlimit:10;" x1="1414.9" y1="1151.2" x2="1422.3" y2="1174.2"/>
	<line style="fill:none;stroke:#FFFFFF;stroke-width:2;stroke-miterlimit:10;" x1="1502.4" y1="1122.7" x2="1509.8" y2="1145.7"/>
	<line style="fill:none;stroke:#FFFFFF;stroke-width:2;stroke-miterlimit:10;" x1="1589.9" y1="1094.1" x2="1597.3" y2="1117.2"/>
	<line style="fill:none;stroke:#FFFFFF;stroke-width:2;stroke-miterlimit:10;" x1="1677.4" y1="1065.6" x2="1684.9" y2="1088.7"/>
	<line style="fill:none;stroke:#FFFFFF;stroke-width:2;stroke-miterlimit:10;" x1="1764.9" y1="1037.1" x2="1772.4" y2="1060.1"/>
	<line style="fill:none;stroke:#FFFFFF;stroke-width:2;stroke-miterlimit:10;" x1="1852.4" y1="1008.5" x2="1859.9" y2="1031.6"/>
	<line style="fill:none;stroke:#FFFFFF;stroke-width:2;stroke-miterlimit:10;" x1="1939.9" y1="980" x2="1947.4" y2="1003.1"/>
	<line style="fill:none;stroke:#FFFFFF;stroke-width:2;stroke-miterlimit:10;" x1="2027.4" y1="951.5" x2="2034.9" y2="974.5"/>
	<line style="fill:none;stroke:#FFFFFF;stroke-width:2;stroke-miterlimit:10;" x1="262.9" y1="973.5" x2="270.3" y2="950.5"/>
	<line style="fill:none;stroke:#FFFFFF;stroke-width:2;stroke-miterlimit:10;" x1="350.4" y1="1002.1" x2="357.8" y2="979"/>
	<line style="fill:none;stroke:#FFFFFF;stroke-width:2;stroke-miterlimit:10;" x1="437.9" y1="1030.6" x2="445.3" y2="1007.5"/>
	<line style="fill:none;stroke:#FFFFFF;stroke-width:2;stroke-miterlimit:10;" x1="525.4" y1="1059.1" x2="532.8" y2="1036.1"/>
	<line style="fill:none;stroke:#FFFFFF;stroke-width:2;stroke-miterlimit:10;" x1="612.9" y1="1087.7" x2="620.3" y2="1064.6"/>
	<line style="fill:none;stroke:#FFFFFF;stroke-width:2;stroke-miterlimit:10;" x1="700.4" y1="1116.2" x2="707.9" y2="1093.1"/>
	<line style="fill:none;stroke:#FFFFFF;stroke-width:2;stroke-miterlimit:10;" x1="787.9" y1="1144.7" x2="795.4" y2="1121.7"/>
	<line style="fill:none;stroke:#FFFFFF;stroke-width:2;stroke-miterlimit:10;" x1="875.4" y1="1173.2" x2="882.9" y2="1150.2"/>
	<line style="fill:none;stroke:#FFFFFF;stroke-width:2;stroke-miterlimit:10;" x1="962.9" y1="1201.8" x2="970.4" y2="1178.7"/>
	<line style="fill:none;stroke:#FFFFFF;stroke-width:2;stroke-miterlimit:10;" x1="1050.4" y1="1230.3" x2="1057.9" y2="1207.3"/>
	<g>
		<line style="fill:none;stroke:#FFFFFF;stroke-width:2;stroke-miterlimit:10;" x1="1046.3" y1="1412.8" x2="1026.7" y2="1398.5"/>
	</g>
</g>
<g id="shape">
	<polygon style="opacity:0.8;fill:#C2DB79;" points="1099,789 537,1001 511,1093 934,1445 1017,1505 1219.5,1428.5 1291,1375 
		1867,1069 1836,976 1195,789 	"/>
	<g>
		<path style="fill:#545448;" d="M1216.8,797.7c0,8-6.4,14.4-14.4,14.4h-106.2c-8,0-14.4-6.4-14.4-14.4V691.5
			c0-8,6.4-14.4,14.4-14.4h106.2c8,0,14.4,6.4,14.4,14.4V797.7z"/>
		
			<text transform="matrix(1 0 0 1 1118.1216 782.9971)" style="fill:#EFEEDF; font-family:'AvenirLTStd-Heavy'; font-size:104.1751;">5</text>
	</g>
	<g>
		<path style="fill:#E66127;" d="M1869.9,1088.2c-7.6,2.5-15.7-1.7-18.1-9.2l-32.8-101c-2.5-7.6,1.7-15.7,9.2-18.1l101-32.8
			c7.6-2.5,15.7,1.7,18.1,9.2l32.8,101c2.5,7.6-1.7,15.7-9.2,18.1L1869.9,1088.2z"/>
		<g>
			
				<text transform="matrix(1 0 0 1 1870.7227 1044.3633)" style="fill:#EFEEDF; font-family:'AvenirLTStd-Heavy'; font-size:104.175;">8</text>
		</g>
	</g>
	<g>
		<g>
			<path style="fill:#E66127;" d="M1195.5,1429.5c-4.7-6.4-3.2-15.4,3.2-20.1l85.9-62.4c6.4-4.7,15.4-3.2,20.1,3.2l62.4,85.9
				c4.7,6.4,3.2,15.4-3.2,20.1l-85.9,62.4c-6.4,4.7-15.4,3.2-20.1-3.2L1195.5,1429.5z"/>
			<g>
				
					<text transform="matrix(1 0 0 1 1250.7197 1465.4863)" style="fill:#EFEEDF; font-family:'AvenirLTStd-Heavy'; font-size:104.175;">2</text>
			</g>
		</g>
	</g>
	<g>
		<path style="fill:#545448;" d="M556.9,987.7c7.6,2.5,11.7,10.6,9.2,18.1l-32.8,101c-2.5,7.6-10.6,11.7-18.1,9.2l-101-32.8
			c-7.6-2.5-11.7-10.6-9.2-18.1l32.8-101c2.5-7.6,10.6-11.7,18.1-9.2L556.9,987.7z"/>
		
			<text transform="matrix(1 0 0 1 462.1543 1071.8496)" style="fill:#EFEEDF; font-family:'AvenirLTStd-Heavy'; font-size:104.1746;">7</text>
	</g>
	<g>
		<path style="fill:#545448;" d="M931.5,1432.1c4.7-6.4,13.7-7.9,20.1-3.2l85.9,62.4c6.4,4.7,7.9,13.7,3.2,20.1l-62.4,85.9
			c-4.7,6.4-13.7,7.9-20.1,3.2l-85.9-62.4c-6.4-4.7-7.9-13.7-3.2-20.1L931.5,1432.1z"/>
		
			<text transform="matrix(1 0 0 1 928.4712 1549.5293)" style="fill:#EFEEDF; font-family:'AvenirLTStd-Heavy'; font-size:104.175;">3</text>
	</g>
</g>
</svg>
