<?xml version="1.0" encoding="utf-8"?>
<!-- Generator: Adobe Illustrator 16.0.0, SVG Export Plug-In . SVG Version: 6.00 Build 0)  -->
<!DOCTYPE svg PUBLIC "-//W3C//DTD SVG 1.1//EN" "http://www.w3.org/Graphics/SVG/1.1/DTD/svg11.dtd">
<svg version="1.1" id="Layer_1" xmlns="http://www.w3.org/2000/svg" xmlns:xlink="http://www.w3.org/1999/xlink" x="0px" y="0px"
	 width="226px" height="226px" viewBox="0 0 226 226" enable-background="new 0 0 226 226" xml:space="preserve">
<circle opacity="0.3" fill="#7DC142" enable-background="new    " cx="12.938" cy="121.896" r="12.938"/>
<path opacity="0.6" fill="#B1ADA0" enable-background="new    " d="M138.57,138.807c-1.307,0.004-2.305-0.957-2.334-2.248
	c-0.029-1.289,1.078-2.371,2.395-2.342c1.262,0.027,2.307,1.098,2.281,2.336C140.887,137.839,139.885,138.802,138.57,138.807z"/>
<path opacity="0.6" fill="#B1ADA0" enable-background="new    " d="M138.562,71.315c-1.306,0.001-2.304-0.965-2.326-2.255
	c-0.023-1.244,1.01-2.304,2.277-2.334c1.313-0.032,2.43,1.057,2.397,2.341C140.881,70.356,139.879,71.314,138.562,71.315z"/>
<path opacity="0.6" fill="#B1ADA0" enable-background="new    " d="M31.812,146.305c-1.305-0.005-2.298-0.98-2.312-2.271
	c-0.014-1.243,1.026-2.296,2.293-2.318c1.311-0.024,2.425,1.077,2.383,2.358C34.133,145.363,33.13,146.311,31.812,146.305z"/>
<path opacity="0.6" fill="#B1ADA0" enable-background="new    " d="M88.407,146.305c-1.371,0.025-2.423-0.979-2.413-2.31
	c0.01-1.239,1.078-2.284,2.337-2.284c1.262-0.001,2.327,1.034,2.341,2.273C90.688,145.271,89.703,146.279,88.407,146.305z"/>
<path opacity="0.6" fill="#B1ADA0" enable-background="new    " d="M88.331,71.315c-1.313-0.006-2.313-0.975-2.336-2.261
	c-0.021-1.287,1.097-2.366,2.413-2.327c1.264,0.038,2.296,1.106,2.264,2.346C90.638,70.365,89.64,71.321,88.331,71.315z"/>
<path opacity="0.6" fill="#B1ADA0" enable-background="new    " d="M138.609,146.305c-1.314,0.021-2.318-0.916-2.373-2.207
	c-0.055-1.283,1.043-2.395,2.354-2.387c1.259,0.01,2.32,1.062,2.32,2.301C140.912,145.291,139.914,146.285,138.609,146.305z"/>
<path opacity="0.6" fill="#B1ADA0" enable-background="new    " d="M31.883,86.312c-1.315,0.024-2.323-0.907-2.382-2.2
	c-0.059-1.281,1.036-2.398,2.346-2.394c1.258,0.004,2.324,1.052,2.331,2.291C34.183,85.289,33.187,86.29,31.883,86.312z"/>
<path opacity="0.6" fill="#B1ADA0" enable-background="new    " d="M31.785,131.307c-1.299-0.016-2.288-1.009-2.286-2.298
	c0.002-1.241,1.056-2.284,2.32-2.295c1.26-0.01,2.333,1.021,2.358,2.265C34.203,130.301,33.153,131.324,31.785,131.307z"/>
<path opacity="0.6" fill="#B1ADA0" enable-background="new    " d="M88.345,131.307c-1.315,0-2.317-0.957-2.35-2.244
	c-0.032-1.287,1.084-2.375,2.398-2.344c1.268,0.029,2.301,1.09,2.279,2.332C90.647,130.341,89.651,131.307,88.345,131.307z"/>
<path opacity="0.6" fill="#B1ADA0" enable-background="new    " d="M138.506,131.307c-1.299-0.021-2.283-1.024-2.27-2.312
	c0.01-1.241,1.072-2.28,2.334-2.282c1.256-0.002,2.328,1.042,2.342,2.28C140.928,130.318,139.877,131.33,138.506,131.307z"/>
<path opacity="0.6" fill="#B1ADA0" enable-background="new    " d="M138.561,78.814c-1.307-0.001-2.303-0.967-2.324-2.259
	c-0.022-1.243,1.013-2.301,2.279-2.331c1.314-0.031,2.428,1.06,2.396,2.344C140.879,77.857,139.877,78.814,138.561,78.814z"/>
<path opacity="0.6" fill="#B1ADA0" enable-background="new    " d="M88.334,78.814c-1.313-0.005-2.314-0.969-2.34-2.257
	c-0.025-1.285,1.093-2.369,2.408-2.333c1.265,0.036,2.297,1.102,2.269,2.343C90.641,77.859,89.643,78.818,88.334,78.814z"/>
<path opacity="0.6" fill="#B1ADA0" enable-background="new    " d="M31.865,138.807c-1.314,0.017-2.317-0.926-2.365-2.219
	c-0.048-1.283,1.051-2.388,2.363-2.374c1.26,0.013,2.318,1.068,2.313,2.308C34.17,137.803,33.172,138.79,31.865,138.807z"/>
<path opacity="0.6" fill="#B1ADA0" enable-background="new    " d="M88.375,138.807c-1.32,0.012-2.327-0.926-2.378-2.218
	c-0.053-1.276,1.057-2.391,2.367-2.374c1.265,0.016,2.312,1.062,2.309,2.305C90.667,137.809,89.677,138.794,88.375,138.807z"/>
<path opacity="0.6" fill="#B1ADA0" enable-background="new    " d="M31.863,78.814c-1.313,0.014-2.316-0.928-2.362-2.221
	c-0.046-1.284,1.054-2.387,2.366-2.372c1.26,0.014,2.317,1.071,2.311,2.31C34.169,77.813,33.17,78.798,31.863,78.814z"/>
<path opacity="0.6" fill="#B1ADA0" enable-background="new    " d="M88.321,161.303c-1.312-0.01-2.311-0.986-2.326-2.271
	c-0.015-1.238,1.037-2.3,2.298-2.32c1.313-0.021,2.418,1.074,2.379,2.358C90.631,160.363,89.631,161.312,88.321,161.303z"/>
<path opacity="0.6" fill="#B1ADA0" enable-background="new    " d="M138.594,161.303c-1.312,0.014-2.312-0.932-2.357-2.225
	c-0.043-1.283,1.058-2.385,2.371-2.367c1.261,0.018,2.314,1.074,2.306,2.312C140.902,160.309,139.902,161.289,138.594,161.303z"/>
<path opacity="0.6" fill="#B1ADA0" enable-background="new    " d="M31.814,71.315c-1.305-0.005-2.298-0.979-2.314-2.269
	c-0.015-1.244,1.024-2.297,2.291-2.321c1.311-0.025,2.426,1.076,2.385,2.356C34.135,70.371,33.132,71.32,31.814,71.315z"/>
<path opacity="0.6" fill="#B1ADA0" enable-background="new    " d="M88.358,153.805c-1.317,0.004-2.321-0.943-2.363-2.234
	c-0.041-1.279,1.074-2.381,2.385-2.356c1.266,0.024,2.306,1.077,2.292,2.321C90.656,152.824,89.662,153.799,88.358,153.805z"/>
<path opacity="0.6" fill="#B1ADA0" enable-background="new    " d="M138.596,153.805c-1.313,0.014-2.313-0.932-2.359-2.225
	c-0.043-1.284,1.058-2.385,2.369-2.368c1.263,0.017,2.316,1.074,2.308,2.312C140.902,152.809,139.904,153.791,138.596,153.805z"/>
<path opacity="0.6" fill="#B1ADA0" enable-background="new    " d="M88.343,63.815c-1.315,0-2.317-0.959-2.348-2.248
	c-0.031-1.285,1.085-2.374,2.4-2.341c1.267,0.031,2.301,1.091,2.277,2.334C90.646,62.852,89.65,63.816,88.343,63.815z"/>
<path opacity="0.6" fill="#B1ADA0" enable-background="new    " d="M31.81,63.815c-1.304-0.006-2.298-0.983-2.31-2.272
	c-0.013-1.244,1.028-2.295,2.295-2.318c1.311-0.023,2.424,1.081,2.381,2.361C34.132,62.876,33.128,63.823,31.81,63.815z"/>
<path opacity="0.6" fill="#B1ADA0" enable-background="new    " d="M195.066,86.312c-1.312-0.006-2.314-0.974-2.336-2.261
	c-0.021-1.287,1.098-2.365,2.412-2.327c1.264,0.038,2.297,1.106,2.264,2.346C197.373,85.363,196.377,86.319,195.066,86.312z"/>
<path opacity="0.6" fill="#B1ADA0" enable-background="new    " d="M88.394,108.809c-1.369,0.02-2.419-0.995-2.4-2.322
	c0.021-1.24,1.092-2.278,2.35-2.271c1.262,0.005,2.322,1.046,2.328,2.288C90.679,107.793,89.692,108.792,88.394,108.809z"/>
<path opacity="0.6" fill="#B1ADA0" enable-background="new    " d="M31.869,123.809c-1.314,0.019-2.318-0.922-2.368-2.215
	c-0.05-1.283,1.048-2.39,2.36-2.379c1.259,0.012,2.319,1.066,2.316,2.305C34.173,122.801,33.175,123.789,31.869,123.809z"/>
<path opacity="0.6" fill="#B1ADA0" enable-background="new    " d="M31.814,101.311c-1.305-0.005-2.298-0.979-2.314-2.269
	c-0.016-1.244,1.023-2.297,2.291-2.322c1.312-0.025,2.426,1.075,2.385,2.356C34.135,100.367,33.132,101.315,31.814,101.311z"/>
<path opacity="0.6" fill="#B1ADA0" enable-background="new    " d="M31.815,93.812c-1.305-0.005-2.298-0.979-2.315-2.268
	c-0.016-1.243,1.023-2.297,2.29-2.323c1.312-0.026,2.426,1.074,2.386,2.355C34.136,92.867,33.133,93.817,31.815,93.812z"/>
<path opacity="0.6" fill="#B1ADA0" enable-background="new    " d="M194.994,116.309c-1.295-0.035-2.291-1.061-2.264-2.332
	c0.024-1.243,1.1-2.271,2.358-2.261c1.265,0.012,2.315,1.056,2.318,2.298C197.408,115.35,196.359,116.346,194.994,116.309z"/>
<path opacity="0.6" fill="#B1ADA0" enable-background="new    " d="M138.549,108.809c-1.305-0.004-2.299-0.979-2.312-2.269
	c-0.016-1.244,1.023-2.297,2.291-2.321c1.312-0.026,2.425,1.075,2.386,2.357C140.871,107.867,139.867,108.815,138.549,108.809z"/>
<path opacity="0.6" fill="#B1ADA0" enable-background="new    " d="M138.498,116.311c-1.297-0.026-2.279-1.035-2.262-2.322
	c0.014-1.24,1.08-2.275,2.342-2.274c1.256,0.002,2.326,1.049,2.334,2.288C140.922,115.33,139.869,116.336,138.498,116.311z"/>
<path opacity="0.6" fill="#B1ADA0" enable-background="new    " d="M195.021,108.809c-1.304-0.024-2.299-1.026-2.291-2.305
	c0.008-1.239,1.074-2.287,2.332-2.289c1.312-0.002,2.403,1.115,2.344,2.396C197.346,107.906,196.336,108.833,195.021,108.809z"/>
<path opacity="0.6" fill="#B1ADA0" enable-background="new    " d="M88.309,93.812c-1.307-0.015-2.307-1-2.314-2.282
	c-0.007-1.24,1.049-2.296,2.31-2.311c1.312-0.014,2.413,1.087,2.367,2.373C90.625,92.883,89.621,93.827,88.309,93.812z"/>
<path opacity="0.6" fill="#B1ADA0" enable-background="new    " d="M195.143,93.812c-1.371,0.026-2.422-0.98-2.412-2.309
	c0.011-1.24,1.076-2.285,2.336-2.286c1.261-0.001,2.326,1.036,2.343,2.276C197.422,92.779,196.439,93.787,195.143,93.812z"/>
<path opacity="0.6" fill="#B1ADA0" enable-background="new    " d="M88.356,116.311c-1.318,0.004-2.32-0.947-2.361-2.235
	c-0.039-1.283,1.075-2.381,2.388-2.356c1.265,0.026,2.305,1.08,2.289,2.323C90.655,115.331,89.66,116.305,88.356,116.311z"/>
<path opacity="0.6" fill="#B1ADA0" enable-background="new    " d="M31.871,116.311c-1.314,0.019-2.319-0.92-2.371-2.213
	c-0.052-1.282,1.046-2.392,2.357-2.382c1.259,0.01,2.32,1.063,2.319,2.302C34.175,115.299,33.178,116.291,31.871,116.311z"/>
<path opacity="0.6" fill="#B1ADA0" enable-background="new    " d="M138.541,93.812c-1.303-0.009-2.295-0.989-2.305-2.278
	c-0.01-1.244,1.033-2.293,2.299-2.313c1.311-0.021,2.424,1.086,2.377,2.366C140.863,92.877,139.861,93.821,138.541,93.812z"/>
<path opacity="0.6" fill="#B1ADA0" enable-background="new    " d="M88.359,86.312c-1.318,0.006-2.321-0.941-2.364-2.231
	c-0.042-1.281,1.073-2.383,2.384-2.358c1.266,0.023,2.307,1.074,2.292,2.319C90.658,85.331,89.664,86.307,88.359,86.312z"/>
<path opacity="0.6" fill="#B1ADA0" enable-background="new    " d="M31.885,108.809c-1.316,0.024-2.324-0.905-2.384-2.198
	c-0.06-1.281,1.033-2.398,2.344-2.396c1.258,0.003,2.325,1.05,2.332,2.289C34.184,107.784,33.188,108.786,31.885,108.809z"/>
<path opacity="0.6" fill="#B1ADA0" enable-background="new    " d="M138.6,86.312c-1.313,0.016-2.315-0.925-2.363-2.219
	c-0.047-1.283,1.052-2.387,2.365-2.373c1.26,0.013,2.316,1.069,2.312,2.308C140.906,85.311,139.908,86.297,138.6,86.312z"/>
<path opacity="0.6" fill="#B1ADA0" enable-background="new    " d="M88.358,101.311c-1.317,0.005-2.321-0.943-2.363-2.234
	c-0.041-1.28,1.074-2.382,2.385-2.357c1.266,0.025,2.306,1.077,2.292,2.321C90.656,100.332,89.662,101.305,88.358,101.311z"/>
<path opacity="0.6" fill="#B1ADA0" enable-background="new    " d="M195.061,101.311c-1.312-0.009-2.312-0.982-2.33-2.267
	c-0.018-1.288,1.104-2.363,2.418-2.321c1.265,0.04,2.293,1.113,2.259,2.352C197.369,100.368,196.369,101.319,195.061,101.311z"/>
<path opacity="0.6" fill="#B1ADA0" enable-background="new    " d="M138.621,101.311c-1.316,0.024-2.324-0.905-2.385-2.199
	c-0.062-1.28,1.033-2.399,2.344-2.396c1.256,0.003,2.324,1.051,2.332,2.29C140.92,100.286,139.924,101.287,138.621,101.311z"/>
<path opacity="0.6" fill="#B1ADA0" enable-background="new    " d="M138.531,123.809c-1.301-0.013-2.291-1-2.295-2.287
	c-0.004-1.244,1.043-2.289,2.309-2.306c1.311-0.016,2.42,1.099,2.367,2.376C140.857,122.883,139.854,123.82,138.531,123.809z"/>
<path opacity="0.6" fill="#B1ADA0" enable-background="new    " d="M88.307,123.822c-1.292-0.018-2.305-1.023-2.312-2.297
	c-0.007-1.24,1.051-2.297,2.311-2.311c1.312-0.014,2.412,1.09,2.366,2.373C90.624,122.872,89.602,123.838,88.307,123.822z"/>
<path opacity="0.6" fill="#B1ADA0" enable-background="new    " d="M188.842,108.809c-1.318,0.018-2.314-0.913-2.363-2.207
	c-0.051-1.295,1.037-2.409,2.338-2.391c1.252,0.016,2.326,1.078,2.336,2.307C191.162,107.766,190.127,108.793,188.842,108.809z"/>
<path opacity="0.6" fill="#B1ADA0" enable-background="new    " d="M82.098,63.815c-1.308,0.014-2.321-0.935-2.369-2.215
	c-0.049-1.278,1.066-2.404,2.359-2.382c1.253,0.021,2.325,1.086,2.329,2.315C84.421,62.783,83.383,63.803,82.098,63.815z"/>
<path opacity="0.6" fill="#B1ADA0" enable-background="new    " d="M144.787,153.805c-1.283-0.021-2.318-1.062-2.297-2.307
	c0.02-1.23,1.098-2.285,2.35-2.294c1.25-0.009,2.314,1.034,2.324,2.28C147.178,152.831,146.156,153.826,144.787,153.805z"/>
<path opacity="0.6" fill="#B1ADA0" enable-background="new    " d="M144.826,101.311c-1.289-0.006-2.326-1.012-2.336-2.265
	c-0.01-1.277,1.131-2.37,2.434-2.333c1.254,0.037,2.275,1.114,2.24,2.364C147.129,100.372,146.139,101.317,144.826,101.311z"/>
<path opacity="0.6" fill="#B1ADA0" enable-background="new    " d="M188.74,93.812c-1.301-0.024-2.27-1.014-2.264-2.31
	c0.008-1.249,1.065-2.294,2.315-2.289c1.301,0.004,2.422,1.151,2.358,2.411C191.088,92.886,190.041,93.835,188.74,93.812z"/>
<path opacity="0.6" fill="#B1ADA0" enable-background="new    " d="M132.318,153.805c-1.305,0.012-2.314-0.938-2.359-2.223
	c-0.043-1.298,1.043-2.393,2.359-2.377c1.248,0.014,2.309,1.074,2.313,2.318C134.639,152.789,133.621,153.792,132.318,153.805z"/>
<path opacity="0.6" fill="#B1ADA0" enable-background="new    " d="M25.559,116.311c-1.301,0.002-2.301-0.963-2.335-2.248
	c-0.034-1.294,1.064-2.377,2.382-2.351c1.252,0.027,2.3,1.097,2.291,2.34C27.886,115.323,26.868,116.307,25.559,116.311z"/>
<path opacity="0.6" fill="#B1ADA0" enable-background="new    " d="M144.844,93.812c-1.293,0.001-2.332-0.991-2.354-2.248
	c-0.021-1.273,1.113-2.377,2.416-2.349c1.258,0.026,2.283,1.091,2.258,2.345C147.139,92.855,146.154,93.811,144.844,93.812z"/>
<path opacity="0.6" fill="#B1ADA0" enable-background="new    " d="M188.783,101.311c-1.307-0.006-2.289-0.971-2.307-2.266
	c-0.017-1.252,1.018-2.312,2.272-2.332c1.303-0.02,2.437,1.094,2.401,2.365C191.119,100.335,190.08,101.317,188.783,101.311z"/>
<path opacity="0.6" fill="#B1ADA0" enable-background="new    " d="M38.015,108.809c-1.273-0.035-2.306-1.105-2.261-2.34
	c0.045-1.24,1.135-2.269,2.388-2.257c1.24,0.012,2.315,1.092,2.305,2.317C40.438,107.852,39.375,108.847,38.015,108.809z"/>
<path opacity="0.6" fill="#B1ADA0" enable-background="new    " d="M82.044,101.311c-1.299-0.008-2.301-0.987-2.317-2.269
	c-0.016-1.231,1.045-2.311,2.289-2.329c1.304-0.02,2.435,1.096,2.4,2.367C84.383,100.34,83.341,101.319,82.044,101.311z"/>
<path opacity="0.6" fill="#B1ADA0" enable-background="new    " d="M82.076,108.809c-1.305,0.005-2.312-0.953-2.348-2.236
	c-0.035-1.228,1.015-2.326,2.256-2.359c1.303-0.037,2.445,1.057,2.433,2.334C84.406,107.802,83.367,108.805,82.076,108.809z"/>
<path opacity="0.6" fill="#B1ADA0" enable-background="new    " d="M132.227,161.303c-1.287-0.021-2.274-1.031-2.268-2.312
	c0.008-1.253,1.055-2.281,2.326-2.286c1.297-0.005,2.4,1.129,2.344,2.408S133.545,161.327,132.227,161.303z"/>
<path opacity="0.6" fill="#B1ADA0" enable-background="new    " d="M25.588,108.809c-1.354,0.016-2.387-1.007-2.366-2.34
	c0.02-1.244,1.087-2.268,2.353-2.258c1.248,0.009,2.312,1.069,2.322,2.312C27.909,107.786,26.89,108.795,25.588,108.809z"/>
<path opacity="0.6" fill="#B1ADA0" enable-background="new    " d="M38.059,101.311c-1.283-0.018-2.319-1.051-2.305-2.298
	c0.014-1.231,1.091-2.29,2.344-2.302c1.236-0.012,2.334,1.049,2.352,2.273C40.467,100.304,39.413,101.33,38.059,101.311z"/>
<path opacity="0.6" fill="#B1ADA0" enable-background="new    " d="M82.049,161.303c-1.301-0.006-2.303-0.982-2.322-2.264
	c-0.018-1.23,1.042-2.314,2.285-2.334c1.304-0.021,2.436,1.092,2.405,2.363C84.385,160.327,83.344,161.309,82.049,161.303z"/>
<path opacity="0.6" fill="#B1ADA0" enable-background="new    " d="M25.495,101.311c-1.291-0.022-2.275-1.023-2.272-2.31
	c0.003-1.249,1.051-2.282,2.322-2.289c1.298-0.007,2.403,1.124,2.35,2.405C27.839,100.396,26.813,101.333,25.495,101.311z"/>
<path opacity="0.6" fill="#B1ADA0" enable-background="new    " d="M132.246,108.809c-1.295-0.016-2.285-1.007-2.287-2.292
	c-0.002-1.252,1.033-2.289,2.305-2.305c1.301-0.016,2.41,1.104,2.365,2.389C134.588,107.876,133.562,108.825,132.246,108.809z"/>
<path opacity="0.6" fill="#B1ADA0" enable-background="new    " d="M132.246,101.311c-1.295-0.016-2.285-1.009-2.287-2.295
	c-0.002-1.252,1.035-2.288,2.307-2.303c1.301-0.016,2.408,1.104,2.363,2.389C134.586,100.378,133.562,101.327,132.246,101.311z"/>
<path opacity="0.6" fill="#B1ADA0" enable-background="new    " d="M25.559,63.815c-1.301,0.003-2.301-0.96-2.335-2.246
	c-0.034-1.295,1.064-2.379,2.382-2.351c1.252,0.027,2.3,1.098,2.291,2.34C27.886,62.83,26.868,63.813,25.559,63.815z"/>
<path opacity="0.6" fill="#B1ADA0" enable-background="new    " d="M38.065,63.815c-1.285-0.016-2.321-1.043-2.311-2.291
	c0.009-1.23,1.084-2.292,2.338-2.308c1.235-0.016,2.337,1.043,2.357,2.267C40.471,62.802,39.417,63.833,38.065,63.815z"/>
<path opacity="0.6" fill="#B1ADA0" enable-background="new    " d="M144.846,108.809c-1.293,0.002-2.332-0.989-2.354-2.246
	c-0.023-1.273,1.112-2.378,2.416-2.351c1.256,0.026,2.282,1.092,2.258,2.346C147.141,107.852,146.154,108.808,144.846,108.809z"/>
<path opacity="0.6" fill="#B1ADA0" enable-background="new    " d="M132.25,138.807c-1.297-0.016-2.287-1.006-2.291-2.291
	c-0.004-1.252,1.031-2.289,2.303-2.308c1.301-0.019,2.41,1.101,2.369,2.386C134.59,137.871,133.566,138.82,132.25,138.807z"/>
<path opacity="0.6" fill="#B1ADA0" enable-background="new    " d="M25.503,78.814c-1.294-0.019-2.278-1.012-2.281-2.302
	c-0.002-1.249,1.042-2.285,2.313-2.298c1.299-0.012,2.407,1.113,2.358,2.397C27.846,77.889,26.821,78.833,25.503,78.814z"/>
<path opacity="0.6" fill="#B1ADA0" enable-background="new    " d="M188.807,86.312c-1.312,0.002-2.299-0.949-2.33-2.243
	c-0.026-1.251,0.996-2.323,2.252-2.355c1.304-0.032,2.439,1.068,2.424,2.343C191.137,85.312,190.098,86.311,188.807,86.312z"/>
<path opacity="0.6" fill="#B1ADA0" enable-background="new    " d="M38.141,78.814c-1.298,0.012-2.341-0.956-2.386-2.217
	c-0.044-1.27,1.082-2.394,2.386-2.383c1.24,0.012,2.315,1.091,2.306,2.317C40.439,77.805,39.434,78.8,38.141,78.814z"/>
<path opacity="0.6" fill="#B1ADA0" enable-background="new    " d="M38.166,123.82c-1.288,0.025-2.349-0.944-2.411-2.203
	c-0.063-1.26,1.06-2.405,2.361-2.409c1.237-0.002,2.327,1.067,2.332,2.293C40.455,122.77,39.447,123.793,38.166,123.82z"/>
<path opacity="0.6" fill="#B1ADA0" enable-background="new    " d="M82.092,138.807c-1.306,0.012-2.318-0.939-2.364-2.222
	c-0.045-1.283,1.066-2.399,2.365-2.377c1.254,0.024,2.324,1.092,2.324,2.319C84.417,137.777,83.379,138.795,82.092,138.807z"/>
<path opacity="0.6" fill="#B1ADA0" enable-background="new    " d="M38.104,138.807c-1.292-0.002-2.332-0.998-2.35-2.252
	c-0.018-1.275,1.119-2.375,2.423-2.347c1.24,0.03,2.299,1.128,2.269,2.353C40.414,137.841,39.408,138.807,38.104,138.807z"/>
<path opacity="0.6" fill="#B1ADA0" enable-background="new    " d="M82.047,78.814c-1.3-0.008-2.302-0.985-2.32-2.267
	c-0.016-1.231,1.043-2.312,2.287-2.332c1.303-0.021,2.436,1.093,2.402,2.366C84.384,77.84,83.343,78.82,82.047,78.814z"/>
<path opacity="0.6" fill="#B1ADA0" enable-background="new    " d="M82.069,123.809c-1.304,0.002-2.31-0.963-2.342-2.244
	c-0.03-1.229,1.023-2.321,2.265-2.354c1.304-0.031,2.441,1.066,2.425,2.344C84.4,122.809,83.361,123.807,82.069,123.809z"/>
<path opacity="0.6" fill="#B1ADA0" enable-background="new    " d="M25.523,138.807c-1.297-0.012-2.287-0.992-2.3-2.281
	c-0.013-1.248,1.021-2.295,2.292-2.316c1.301-0.023,2.414,1.088,2.379,2.375C27.86,137.857,26.838,138.816,25.523,138.807z"/>
<path opacity="0.6" fill="#B1ADA0" enable-background="new    " d="M132.262,78.814c-1.297-0.01-2.293-0.996-2.303-2.279
	c-0.01-1.255,1.018-2.296,2.291-2.319c1.301-0.024,2.414,1.085,2.381,2.373C134.598,77.865,133.576,78.824,132.262,78.814z"/>
<path opacity="0.6" fill="#B1ADA0" enable-background="new    " d="M144.818,86.312c-1.287-0.009-2.324-1.021-2.328-2.272
	c-0.004-1.278,1.141-2.367,2.443-2.324c1.252,0.041,2.27,1.124,2.229,2.372C147.125,85.381,146.133,86.323,144.818,86.312z"/>
<path opacity="0.6" fill="#B1ADA0" enable-background="new    " d="M144.875,78.814c-1.299,0.012-2.34-0.958-2.383-2.218
	c-0.045-1.269,1.08-2.393,2.385-2.382c1.256,0.012,2.297,1.065,2.287,2.317C147.156,77.829,146.18,78.8,144.875,78.814z"/>
<path opacity="0.6" fill="#B1ADA0" enable-background="new    " d="M132.264,86.312c-1.297-0.008-2.293-0.991-2.305-2.276
	c-0.012-1.252,1.018-2.295,2.287-2.322c1.301-0.025,2.416,1.083,2.385,2.371C134.6,85.36,133.578,86.322,132.264,86.312z"/>
<path opacity="0.6" fill="#B1ADA0" enable-background="new    " d="M188.781,131.307c-1.307-0.007-2.289-0.973-2.305-2.268
	c-0.015-1.253,1.018-2.311,2.274-2.331c1.304-0.019,2.437,1.097,2.399,2.368C191.119,130.334,190.078,131.312,188.781,131.307z"/>
<path opacity="0.6" fill="#B1ADA0" enable-background="new    " d="M144.891,131.307c-1.301,0.02-2.346-0.939-2.397-2.201
	c-0.058-1.264,1.067-2.399,2.368-2.396c1.255,0.003,2.304,1.053,2.304,2.303C147.164,130.309,146.193,131.288,144.891,131.307z"/>
<path opacity="0.6" fill="#B1ADA0" enable-background="new    " d="M132.328,123.809c-1.307,0.017-2.32-0.93-2.369-2.213
	c-0.049-1.299,1.031-2.396,2.35-2.388c1.248,0.009,2.312,1.065,2.324,2.31C134.646,122.779,133.629,123.792,132.328,123.809z"/>
<path opacity="0.6" fill="#B1ADA0" enable-background="new    " d="M132.305,131.307c-1.301,0.008-2.309-0.951-2.346-2.233
	c-0.035-1.3,1.055-2.386,2.371-2.364c1.25,0.021,2.305,1.088,2.303,2.331C134.631,130.307,133.611,131.3,132.305,131.307z"/>
<path opacity="0.6" fill="#B1ADA0" enable-background="new    " d="M144.895,123.809c-1.299,0.021-2.346-0.936-2.401-2.197
	c-0.06-1.262,1.063-2.402,2.362-2.401c1.254,0,2.308,1.047,2.31,2.297C147.168,122.805,146.199,123.787,144.895,123.809z"/>
<path opacity="0.6" fill="#B1ADA0" enable-background="new    " d="M188.834,123.809c-1.318,0.015-2.312-0.922-2.355-2.217
	c-0.045-1.297,1.047-2.404,2.347-2.382c1.254,0.022,2.323,1.087,2.327,2.315C191.156,122.773,190.119,123.795,188.834,123.809z"/>
<path opacity="0.6" fill="#B1ADA0" enable-background="new    " d="M82.082,131.307c-1.306,0.008-2.315-0.949-2.354-2.229
	c-0.038-1.229,1.009-2.328,2.25-2.366c1.303-0.04,2.446,1.053,2.438,2.329C84.41,130.291,83.371,131.3,82.082,131.307z"/>
<path opacity="0.6" fill="#B1ADA0" enable-background="new    " d="M38.089,131.307c-1.29-0.007-2.328-1.016-2.335-2.268
	c-0.007-1.277,1.135-2.369,2.438-2.329c1.243,0.038,2.292,1.142,2.253,2.366C40.404,130.357,39.394,131.312,38.089,131.307z"/>
<path opacity="0.6" fill="#B1ADA0" enable-background="new    " d="M25.537,86.312c-1.298-0.006-2.292-0.979-2.313-2.268
	c-0.021-1.297,1.085-2.368,2.404-2.327c1.254,0.039,2.293,1.118,2.268,2.359C27.87,85.351,26.849,86.319,25.537,86.312z"/>
<path opacity="0.6" fill="#B1ADA0" enable-background="new    " d="M82.015,86.312c-1.292-0.02-2.29-1.021-2.288-2.298
	c0.001-1.232,1.076-2.298,2.319-2.301c1.301-0.003,2.426,1.135,2.371,2.399C84.361,85.375,83.315,86.333,82.015,86.312z"/>
<path opacity="0.6" fill="#B1ADA0" enable-background="new    " d="M38.104,86.327c-1.278,0-2.331-1.016-2.35-2.266
	c-0.018-1.275,1.119-2.376,2.423-2.346c1.24,0.03,2.3,1.128,2.268,2.352C40.414,85.341,39.393,86.327,38.104,86.327z"/>
<path opacity="0.6" fill="#B1ADA0" enable-background="new    " d="M25.544,131.307c-1.299-0.002-2.296-0.973-2.321-2.26
	c-0.025-1.297,1.078-2.373,2.396-2.336c1.254,0.035,2.296,1.111,2.276,2.354C27.876,130.337,26.856,131.311,25.544,131.307z"/>
<path opacity="0.6" fill="#B1ADA0" enable-background="new    " d="M82.032,153.805c-1.297-0.014-2.297-1.004-2.305-2.281
	c-0.008-1.232,1.058-2.306,2.302-2.316c1.305-0.014,2.431,1.109,2.388,2.381C84.373,152.848,83.329,153.816,82.032,153.805z"/>
<path opacity="0.6" fill="#B1ADA0" enable-background="new    " d="M132.312,93.812c-1.304,0.01-2.312-0.945-2.354-2.228
	c-0.039-1.297,1.049-2.389,2.365-2.371c1.247,0.016,2.307,1.08,2.309,2.323C134.635,92.803,133.617,93.802,132.312,93.812z"/>
<path opacity="0.6" fill="#B1ADA0" enable-background="new    " d="M38.065,116.311c-1.285-0.018-2.321-1.045-2.311-2.293
	c0.009-1.229,1.084-2.292,2.338-2.308c1.235-0.016,2.337,1.043,2.357,2.267C40.471,115.295,39.417,116.326,38.065,116.311z"/>
<path opacity="0.6" fill="#B1ADA0" enable-background="new    " d="M25.491,71.315c-1.289-0.023-2.273-1.028-2.269-2.314
	c0.005-1.248,1.056-2.279,2.326-2.285c1.298-0.005,2.402,1.128,2.345,2.409C27.836,70.403,26.81,71.339,25.491,71.315z"/>
<path opacity="0.6" fill="#B1ADA0" enable-background="new    " d="M82.102,116.311c-1.308,0.015-2.323-0.933-2.373-2.211
	c-0.052-1.282,1.06-2.408,2.355-2.39c1.253,0.019,2.326,1.082,2.333,2.312C84.424,115.27,83.387,116.293,82.102,116.311z"/>
<path opacity="0.6" fill="#B1ADA0" enable-background="new    " d="M38.053,71.315c-1.282-0.021-2.317-1.059-2.298-2.305
	c0.019-1.233,1.097-2.286,2.35-2.294c1.237-0.009,2.332,1.056,2.344,2.28C40.462,70.315,39.407,71.337,38.053,71.315z"/>
<path opacity="0.6" fill="#B1ADA0" enable-background="new    " d="M144.834,146.305c-1.291-0.002-2.328-1.003-2.344-2.257
	c-0.016-1.274,1.123-2.373,2.428-2.34c1.254,0.03,2.277,1.104,2.246,2.354C147.135,145.357,146.145,146.309,144.834,146.305z"/>
<path opacity="0.6" fill="#B1ADA0" enable-background="new    " d="M82.066,93.812c-1.303,0.001-2.309-0.965-2.339-2.247
	c-0.028-1.229,1.026-2.322,2.268-2.35c1.303-0.031,2.44,1.07,2.421,2.345C84.398,92.815,83.359,93.811,82.066,93.812z"/>
<path opacity="0.6" fill="#B1ADA0" enable-background="new    " d="M132.281,146.305c-1.299-0.002-2.299-0.978-2.322-2.259
	c-0.021-1.303,1.078-2.373,2.396-2.336c1.254,0.035,2.295,1.11,2.274,2.353C134.611,145.335,133.592,146.309,132.281,146.305z"/>
<path opacity="0.6" fill="#B1ADA0" enable-background="new    " d="M132.24,116.311c-1.295-0.02-2.283-1.018-2.281-2.302
	c0.002-1.252,1.043-2.286,2.312-2.299c1.299-0.012,2.405,1.113,2.356,2.396C134.582,115.383,133.557,116.328,132.24,116.311z"/>
<path opacity="0.6" fill="#B1ADA0" enable-background="new    " d="M82.049,71.315c-1.301-0.006-2.303-0.983-2.322-2.264
	c-0.018-1.23,1.042-2.313,2.285-2.333c1.304-0.021,2.436,1.091,2.405,2.363C84.385,70.339,83.344,71.321,82.049,71.315z"/>
<path opacity="0.6" fill="#B1ADA0" enable-background="new    " d="M144.83,116.311c-1.289-0.006-2.328-1.011-2.34-2.264
	c-0.012-1.275,1.129-2.371,2.432-2.335c1.254,0.034,2.275,1.109,2.242,2.36C147.131,115.366,146.141,116.312,144.83,116.311z"/>
<path opacity="0.6" fill="#B1ADA0" enable-background="new    " d="M82.094,146.305c-1.307,0.012-2.319-0.938-2.365-2.219
	c-0.047-1.277,1.071-2.402,2.363-2.379c1.253,0.021,2.323,1.09,2.325,2.318C84.418,145.273,83.381,146.293,82.094,146.305z"/>
<path opacity="0.6" fill="#B1ADA0" enable-background="new    " d="M38.062,146.305c-1.284-0.018-2.32-1.048-2.308-2.294
	c0.011-1.231,1.088-2.29,2.341-2.305c1.237-0.015,2.336,1.045,2.354,2.271C40.469,145.295,39.416,146.322,38.062,146.305z"/>
<path opacity="0.6" fill="#B1ADA0" enable-background="new    " d="M188.766,116.311c-1.305-0.016-2.281-0.987-2.289-2.283
	c-0.006-1.252,1.035-2.305,2.291-2.316c1.303-0.01,2.431,1.114,2.385,2.383C191.107,115.354,190.064,116.32,188.766,116.311z"/>
<path opacity="0.6" fill="#B1ADA0" enable-background="new    " d="M132.303,71.315c-1.301,0.006-2.309-0.954-2.344-2.237
	c-0.035-1.298,1.057-2.384,2.373-2.361c1.252,0.022,2.305,1.089,2.301,2.332C134.629,70.318,133.611,71.309,132.303,71.315z"/>
<path opacity="0.6" fill="#B1ADA0" enable-background="new    " d="M38.066,93.826c-1.273-0.017-2.321-1.06-2.312-2.304
	c0.009-1.231,1.084-2.293,2.337-2.309c1.29-0.017,2.409,1.119,2.354,2.391C40.39,92.879,39.358,93.843,38.066,93.826z"/>
<path opacity="0.6" fill="#B1ADA0" enable-background="new    " d="M144.838,71.315c-1.291-0.001-2.33-0.999-2.348-2.253
	c-0.018-1.275,1.119-2.375,2.424-2.344c1.256,0.03,2.279,1.1,2.25,2.352C147.137,70.364,146.148,71.316,144.838,71.315z"/>
<path opacity="0.6" fill="#B1ADA0" enable-background="new    " d="M25.511,93.812c-1.297-0.015-2.282-1.002-2.288-2.294
	c-0.006-1.248,1.034-2.288,2.305-2.304c1.3-0.017,2.41,1.103,2.366,2.388C27.851,92.877,26.827,93.828,25.511,93.812z"/>
<path opacity="0.6" fill="#B1ADA0" enable-background="new    " d="M144.887,138.807c-1.301,0.017-2.344-0.945-2.395-2.205
	c-0.055-1.266,1.07-2.398,2.371-2.395c1.256,0.006,2.303,1.055,2.301,2.307C147.162,137.811,146.191,138.788,144.887,138.807z"/>
<path opacity="0.6" fill="#B1ADA0" enable-background="new    " d="M25.599,123.809c-1.356,0.021-2.392-0.996-2.376-2.332
	c0.015-1.244,1.076-2.271,2.343-2.269c1.248,0.005,2.315,1.06,2.333,2.304C27.917,122.771,26.898,123.789,25.599,123.809z"/>
<path opacity="0.6" fill="#B1ADA0" enable-background="new    " d="M111.177,114.003c0.012-1.344,0.941-2.281,2.266-2.287
	c1.372-0.006,2.317,0.979,2.288,2.392c-0.026,1.312-0.992,2.226-2.329,2.203C112.073,116.285,111.164,115.344,111.177,114.003z"/>
<path opacity="0.6" fill="#B1ADA0" enable-background="new    " d="M119.711,116.311c-1.312-0.012-2.277-0.974-2.281-2.278
	c-0.004-1.358,1.029-2.363,2.383-2.318c1.283,0.043,2.248,1.066,2.224,2.363C122.01,115.387,121.039,116.318,119.711,116.311z"/>
<path opacity="0.6" fill="#B1ADA0" enable-background="new    " d="M107.235,176.301c-1.339,0.022-2.318-0.887-2.361-2.193
	c-0.045-1.354,0.964-2.405,2.305-2.401c1.309,0.005,2.285,0.974,2.298,2.278C109.49,175.293,108.535,176.279,107.235,176.301z"/>
<path opacity="0.6" fill="#B1ADA0" enable-background="new    " d="M119.613,123.809c-1.287-0.047-2.223-1.065-2.182-2.375
	c0.041-1.3,1.047-2.25,2.354-2.222c1.332,0.028,2.317,1.108,2.239,2.461C121.953,122.975,120.957,123.857,119.613,123.809z"/>
<path opacity="0.6" fill="#B1ADA0" enable-background="new    " d="M113.353,123.809c-1.311-0.043-2.208-1.014-2.177-2.354
	c0.031-1.33,0.992-2.261,2.315-2.238c1.366,0.021,2.286,1.025,2.237,2.438C115.686,122.958,114.699,123.852,113.353,123.809z"/>
<path opacity="0.6" fill="#B1ADA0" enable-background="new    " d="M107.214,123.809c-1.336,0.015-2.308-0.906-2.342-2.216
	c-0.034-1.351,0.987-2.396,2.327-2.381c1.307,0.017,2.274,0.993,2.278,2.3C109.481,122.82,108.521,123.794,107.214,123.809z"/>
<path opacity="0.6" fill="#B1ADA0" enable-background="new    " d="M94.624,123.809c-1.312,0.002-2.331-0.975-2.349-2.246
	c-0.018-1.24,1.025-2.315,2.279-2.351c1.311-0.036,2.417,1.046,2.394,2.341C96.923,122.833,95.921,123.807,94.624,123.809z"/>
<path fill="#7DC142" d="M12.971,123.809c-1.313-0.013-2.275-0.977-2.277-2.283c-0.002-1.356,1.034-2.36,2.39-2.312
	c1.289,0.046,2.244,1.066,2.215,2.367C15.271,122.891,14.3,123.82,12.971,123.809z"/>
<path opacity="0.6" fill="#B1ADA0" enable-background="new    " d="M119.787,108.809c-1.322,0.019-2.316-0.911-2.357-2.201
	c-0.041-1.365,0.951-2.397,2.309-2.394c1.287,0.003,2.285,0.994,2.302,2.288C122.055,107.808,121.096,108.792,119.787,108.809z"/>
<path opacity="0.6" fill="#B1ADA0" enable-background="new    " d="M113.476,108.809c-1.333,0.01-2.283-0.911-2.299-2.23
	c-0.017-1.403,0.944-2.385,2.315-2.361c1.32,0.021,2.236,0.967,2.238,2.315C115.732,107.866,114.807,108.799,113.476,108.809z"/>
<path opacity="0.6" fill="#B1ADA0" enable-background="new    " d="M107.171,108.809c-1.328-0.002-2.291-0.949-2.301-2.258
	c-0.01-1.297,0.963-2.309,2.249-2.337c1.355-0.03,2.375,0.982,2.358,2.344C109.46,107.852,108.477,108.813,107.171,108.809z"/>
<path opacity="0.6" fill="#B1ADA0" enable-background="new    " d="M94.661,108.809c-1.316,0.016-2.34-0.931-2.384-2.208
	c-0.044-1.285,1.064-2.405,2.363-2.39c1.265,0.014,2.311,1.06,2.308,2.305C96.945,107.802,95.955,108.793,94.661,108.809z"/>
<path opacity="0.6" fill="#B1ADA0" enable-background="new    " d="M107.15,168.802c-1.323-0.011-2.282-0.971-2.281-2.278
	c0.001-1.295,0.986-2.299,2.27-2.317c1.355-0.019,2.365,1.004,2.338,2.364C109.45,167.861,108.458,168.812,107.15,168.802z"/>
<path opacity="0.6" fill="#B1ADA0" enable-background="new    " d="M13.051,108.819c-1.312,0.018-2.317-0.924-2.356-2.211
	c-0.042-1.365,0.952-2.397,2.309-2.394c1.287,0.003,2.284,0.994,2.301,2.288C15.32,107.806,14.353,108.799,13.051,108.819z"/>
<path opacity="0.6" fill="#B1ADA0" enable-background="new    " d="M8.994,106.481c0.021,1.353-0.872,2.296-2.202,2.328
	c-1.352,0.033-2.315-0.859-2.351-2.178c-0.038-1.414,0.892-2.407,2.264-2.414C8.029,104.209,8.973,105.143,8.994,106.481z"/>
<path opacity="0.6" fill="#B1ADA0" enable-background="new    " d="M201.314,101.311c-1.301-0.016-2.318-1.027-2.308-2.291
	c0.015-1.243,1.078-2.3,2.326-2.309c1.312-0.009,2.397,1.096,2.349,2.389C203.633,100.381,202.621,101.327,201.314,101.311z"/>
<path opacity="0.6" fill="#B1ADA0" enable-background="new    " d="M107.232,116.311c-1.338,0.021-2.315-0.891-2.357-2.197
	c-0.044-1.355,0.965-2.403,2.308-2.398c1.307,0.004,2.283,0.975,2.295,2.281C109.489,115.303,108.534,116.287,107.232,116.311z"/>
<path opacity="0.6" fill="#B1ADA0" enable-background="new    " d="M94.627,116.311c-1.311,0.002-2.331-0.971-2.353-2.242
	c-0.022-1.289,1.097-2.388,2.397-2.355c1.263,0.032,2.295,1.091,2.275,2.337C96.926,115.33,95.925,116.307,94.627,116.311z"/>
<path opacity="0.6" fill="#B1ADA0" enable-background="new    " d="M13.022,116.316c-1.305,0.008-2.301-0.95-2.328-2.238
	c-0.028-1.363,0.981-2.384,2.338-2.365c1.284,0.018,2.269,1.023,2.27,2.318C15.303,115.334,14.33,116.311,13.022,116.316z"/>
<path opacity="0.6" fill="#B1ADA0" enable-background="new    " d="M6.75,116.311c-1.344,0.015-2.289-0.896-2.309-2.223
	c-0.021-1.408,0.935-2.39,2.307-2.372c1.322,0.017,2.241,0.961,2.246,2.308C9,115.363,8.086,116.295,6.75,116.311z"/>
<path opacity="0.6" fill="#B1ADA0" enable-background="new    " d="M107.195,146.305c-1.332,0.008-2.3-0.924-2.323-2.234
	c-0.024-1.344,1.012-2.387,2.347-2.358c1.309,0.024,2.263,1.005,2.258,2.317C109.472,145.334,108.504,146.299,107.195,146.305z"/>
<path opacity="0.6" fill="#B1ADA0" enable-background="new    " d="M94.6,146.305c-1.305-0.008-2.323-1-2.325-2.269
	c-0.003-1.242,1.051-2.308,2.301-2.329c1.311-0.021,2.409,1.072,2.372,2.363C96.911,145.354,95.903,146.312,94.6,146.305z"/>
<path opacity="0.6" fill="#B1ADA0" enable-background="new    " d="M94.627,153.805c-1.311,0.002-2.331-0.97-2.353-2.242
	c-0.02-1.289,1.099-2.389,2.398-2.354c1.264,0.032,2.295,1.093,2.274,2.338C96.926,152.826,95.925,153.801,94.627,153.805z"/>
<path opacity="0.6" fill="#B1ADA0" enable-background="new    " d="M107.119,153.805c-1.313-0.022-2.269-1.004-2.251-2.31
	c0.016-1.293,1.015-2.284,2.301-2.286c1.356-0.002,2.35,1.027,2.308,2.395C109.437,152.893,108.437,153.826,107.119,153.805z"/>
<path opacity="0.6" fill="#B1ADA0" enable-background="new    " d="M111.177,151.502c0.01-1.344,0.938-2.281,2.262-2.291
	c1.372-0.009,2.317,0.977,2.292,2.387c-0.024,1.313-0.987,2.228-2.323,2.207C112.076,153.782,111.165,152.843,111.177,151.502z"/>
<path opacity="0.6" fill="#B1ADA0" enable-background="new    " d="M119.756,153.805c-1.311,0.008-2.301-0.939-2.326-2.231
	c-0.027-1.362,0.982-2.384,2.338-2.364c1.283,0.018,2.269,1.023,2.271,2.316C122.039,152.833,121.074,153.797,119.756,153.805z"/>
<path opacity="0.6" fill="#B1ADA0" enable-background="new    " d="M119.613,146.305c-1.287-0.046-2.223-1.063-2.182-2.375
	c0.041-1.3,1.047-2.248,2.354-2.221c1.332,0.027,2.317,1.109,2.239,2.461C121.953,145.471,120.957,146.354,119.613,146.305z"/>
<path opacity="0.6" fill="#B1ADA0" enable-background="new    " d="M115.73,144.006c0.01,1.34-0.9,2.278-2.23,2.299
	c-1.337,0.021-2.299-0.894-2.323-2.207c-0.026-1.41,0.92-2.396,2.293-2.386C114.793,141.723,115.721,142.66,115.73,144.006z"/>
<path opacity="0.6" fill="#B1ADA0" enable-background="new    " d="M119.713,131.307c-1.312-0.009-2.277-0.972-2.283-2.274
	c-0.006-1.359,1.027-2.365,2.383-2.321c1.283,0.042,2.248,1.066,2.224,2.363C122.01,130.383,121.041,131.316,119.713,131.307z"/>
<path opacity="0.6" fill="#B1ADA0" enable-background="new    " d="M107.123,161.303c-1.313-0.021-2.271-0.998-2.255-2.305
	c0.014-1.293,1.011-2.287,2.297-2.291c1.357-0.004,2.353,1.025,2.312,2.391C109.438,160.389,108.439,161.324,107.123,161.303z"/>
<path opacity="0.6" fill="#B1ADA0" enable-background="new    " d="M115.73,129.023c0.004,1.334-0.918,2.271-2.25,2.283
	c-1.334,0.014-2.287-0.906-2.305-2.226c-0.02-1.405,0.938-2.388,2.309-2.368C114.809,126.732,115.727,127.678,115.73,129.023z"/>
<path opacity="0.6" fill="#B1ADA0" enable-background="new    " d="M107.224,131.307c-1.336,0.02-2.312-0.896-2.35-2.203
	c-0.04-1.354,0.975-2.4,2.315-2.392c1.307,0.009,2.278,0.981,2.287,2.289C109.486,130.311,108.528,131.289,107.224,131.307z"/>
<path opacity="0.6" fill="#B1ADA0" enable-background="new    " d="M94.602,131.307c-1.307-0.007-2.325-0.998-2.327-2.268
	c-0.004-1.241,1.049-2.309,2.299-2.331c1.313-0.021,2.411,1.071,2.373,2.365C96.911,130.354,95.904,131.312,94.602,131.307z"/>
<path opacity="0.6" fill="#B1ADA0" enable-background="new    " d="M115.73,158.973c0.021,1.342-0.881,2.297-2.201,2.33
	c-1.343,0.033-2.316-0.867-2.352-2.177c-0.038-1.413,0.891-2.407,2.261-2.416C114.762,156.701,115.707,157.635,115.73,158.973z"/>
<path opacity="0.6" fill="#B1ADA0" enable-background="new    " d="M119.736,138.807c-1.31-0.002-2.291-0.957-2.307-2.252
	c-0.019-1.361,1.002-2.375,2.358-2.345c1.285,0.028,2.256,1.04,2.246,2.338C122.025,137.855,121.059,138.807,119.736,138.807z"/>
<path opacity="0.6" fill="#B1ADA0" enable-background="new    " d="M115.73,136.589c-0.021,1.315-0.979,2.233-2.314,2.218
	c-1.332-0.018-2.247-0.955-2.239-2.291c0.007-1.392,1.006-2.358,2.378-2.303C114.873,134.268,115.752,135.229,115.73,136.589z"/>
<path opacity="0.6" fill="#B1ADA0" enable-background="new    " d="M107.093,138.807c-1.309-0.033-2.258-1.029-2.227-2.336
	c0.03-1.287,1.045-2.271,2.33-2.26c1.352,0.014,2.335,1.057,2.281,2.42C109.425,137.917,108.415,138.839,107.093,138.807z"/>
<path opacity="0.6" fill="#B1ADA0" enable-background="new    " d="M94.572,138.807c-1.299-0.021-2.316-1.035-2.299-2.297
	c0.017-1.244,1.083-2.297,2.331-2.304c1.313-0.006,2.397,1.103,2.343,2.396C96.895,137.885,95.88,138.825,94.572,138.807z"/>
<path opacity="0.6" fill="#B1ADA0" enable-background="new    " d="M201.309,86.312c-1.299-0.018-2.315-1.033-2.301-2.295
	c0.018-1.243,1.084-2.298,2.33-2.304c1.314-0.006,2.398,1.102,2.344,2.395C203.631,85.391,202.617,86.332,201.309,86.312z"/>
<path opacity="0.6" fill="#B1ADA0" enable-background="new    " d="M4.44,84c0.016-1.341,0.949-2.278,2.274-2.28
	c1.372-0.002,2.311,0.986,2.279,2.398c-0.029,1.32-0.986,2.22-2.335,2.194C5.324,86.287,4.426,85.351,4.44,84z"/>
<path opacity="0.6" fill="#B1ADA0" enable-background="new    " d="M119.766,71.315c-1.315,0.01-2.307-0.933-2.336-2.225
	c-0.031-1.364,0.975-2.386,2.332-2.371c1.287,0.014,2.271,1.014,2.275,2.311C122.041,70.338,121.08,71.305,119.766,71.315z"/>
<path opacity="0.6" fill="#B1ADA0" enable-background="new    " d="M213.957,86.312c-1.338,0.016-2.312-0.9-2.348-2.208
	c-0.037-1.352,0.979-2.399,2.32-2.387c1.307,0.012,2.274,0.988,2.282,2.294C216.221,85.319,215.262,86.297,213.957,86.312z"/>
<path opacity="0.6" fill="#B1ADA0" enable-background="new    " d="M222.467,84.027c0.004,1.336-0.916,2.272-2.246,2.286
	c-1.336,0.014-2.289-0.903-2.307-2.222c-0.021-1.408,0.934-2.389,2.307-2.372C221.541,81.737,222.461,82.681,222.467,84.027z"/>
<path opacity="0.6" fill="#B1ADA0" enable-background="new    " d="M8.994,91.664c-0.047,1.304-1.034,2.195-2.382,2.147
	c-1.32-0.045-2.205-1.006-2.171-2.358c0.034-1.331,0.997-2.258,2.32-2.234C8.126,89.243,9.044,90.249,8.994,91.664z"/>
<path opacity="0.6" fill="#B1ADA0" enable-background="new    " d="M13.002,93.812c-1.31,0-2.291-0.958-2.308-2.252
	c-0.017-1.361,1.002-2.375,2.359-2.345c1.285,0.03,2.259,1.042,2.248,2.338C15.289,92.863,14.323,93.812,13.002,93.812z"/>
<path opacity="0.6" fill="#B1ADA0" enable-background="new    " d="M222.467,76.523c0.006,1.337-0.91,2.274-2.24,2.291
	c-1.336,0.016-2.293-0.901-2.312-2.218c-0.022-1.409,0.926-2.392,2.301-2.376C221.539,74.236,222.459,75.177,222.467,76.523z"/>
<path opacity="0.6" fill="#B1ADA0" enable-background="new    " d="M213.924,78.814c-1.33,0.003-2.297-0.932-2.316-2.241
	c-0.021-1.345,1.021-2.386,2.354-2.355c1.31,0.03,2.261,1.012,2.252,2.325C216.203,77.847,215.234,78.811,213.924,78.814z"/>
<path opacity="0.6" fill="#B1ADA0" enable-background="new    " d="M201.309,78.814c-1.299-0.02-2.315-1.036-2.301-2.297
	c0.018-1.243,1.084-2.297,2.332-2.303c1.312-0.006,2.396,1.102,2.342,2.394C203.631,77.893,202.617,78.833,201.309,78.814z"/>
<path opacity="0.6" fill="#B1ADA0" enable-background="new    " d="M111.177,68.882c0.062-1.312,1.068-2.222,2.392-2.159
	c1.361,0.065,2.24,1.089,2.158,2.515c-0.074,1.279-1.109,2.155-2.453,2.075C111.977,71.237,111.115,70.238,111.177,68.882z"/>
<path opacity="0.6" fill="#B1ADA0" enable-background="new    " d="M107.123,71.315c-1.313-0.021-2.271-0.999-2.255-2.306
	c0.014-1.293,1.011-2.286,2.297-2.29c1.357-0.004,2.353,1.025,2.312,2.39C109.438,70.4,108.439,71.336,107.123,71.315z"/>
<path opacity="0.6" fill="#B1ADA0" enable-background="new    " d="M94.579,71.315c-1.3-0.017-2.318-1.028-2.306-2.291
	c0.013-1.242,1.077-2.3,2.325-2.309c1.312-0.01,2.4,1.095,2.349,2.388C96.897,70.386,95.885,71.331,94.579,71.315z"/>
<path opacity="0.6" fill="#B1ADA0" enable-background="new    " d="M94.574,93.812c-1.299-0.019-2.317-1.035-2.301-2.296
	c0.016-1.244,1.083-2.298,2.331-2.303c1.312-0.006,2.397,1.101,2.343,2.393C96.895,92.889,95.881,93.831,94.574,93.812z"/>
<path opacity="0.6" fill="#B1ADA0" enable-background="new    " d="M107.232,93.812c-1.338,0.021-2.315-0.89-2.357-2.197
	c-0.044-1.354,0.965-2.404,2.307-2.399c1.308,0.005,2.283,0.975,2.296,2.282C109.489,92.805,108.534,93.791,107.232,93.812z"/>
<path opacity="0.6" fill="#B1ADA0" enable-background="new    " d="M115.73,91.504c0.012,1.341-0.896,2.285-2.225,2.308
	c-1.338,0.023-2.303-0.888-2.33-2.2c-0.029-1.411,0.914-2.398,2.285-2.393C114.787,89.224,115.717,90.161,115.73,91.504z"/>
<path opacity="0.6" fill="#B1ADA0" enable-background="new    " d="M119.688,93.812c-1.311-0.02-2.264-0.995-2.258-2.302
	c0.008-1.308,0.979-2.283,2.283-2.293c1.342-0.012,2.359,1.035,2.32,2.387C121.996,92.913,121.018,93.832,119.688,93.812z"/>
<path opacity="0.6" fill="#B1ADA0" enable-background="new    " d="M8.994,76.604c-0.023,1.323-0.974,2.229-2.319,2.211
	c-1.336-0.02-2.243-0.952-2.234-2.297c0.009-1.389,1.011-2.356,2.382-2.297C8.139,74.278,9.018,75.241,8.994,76.604z"/>
<path opacity="0.6" fill="#B1ADA0" enable-background="new    " d="M222.467,69.094c-0.021,1.317-0.975,2.235-2.311,2.221
	c-1.33-0.015-2.25-0.951-2.242-2.287c0.004-1.391,1-2.36,2.369-2.306C221.604,66.773,222.486,67.732,222.467,69.094z"/>
<path opacity="0.6" fill="#B1ADA0" enable-background="new    " d="M213.885,71.315c-1.32-0.011-2.281-0.971-2.281-2.279
	c0.002-1.294,0.988-2.299,2.271-2.317c1.357-0.019,2.365,1.002,2.338,2.364C216.186,70.375,215.195,71.326,213.885,71.315z"/>
<path opacity="0.6" fill="#B1ADA0" enable-background="new    " d="M94.681,86.312c-1.318,0.024-2.345-0.91-2.403-2.188
	c-0.058-1.28,1.044-2.413,2.342-2.409c1.265,0.003,2.32,1.038,2.329,2.285C96.957,85.281,95.968,86.289,94.681,86.312z"/>
<path opacity="0.6" fill="#B1ADA0" enable-background="new    " d="M107.017,86.312c-1.291-0.062-2.212-1.097-2.141-2.41
	c0.07-1.294,1.104-2.239,2.395-2.184c1.354,0.056,2.295,1.125,2.2,2.495C109.384,85.488,108.346,86.375,107.017,86.312z"/>
<path opacity="0.6" fill="#B1ADA0" enable-background="new    " d="M115.73,84.05c-0.004,1.33-0.938,2.259-2.27,2.263
	c-1.333,0.004-2.275-0.921-2.285-2.245c-0.011-1.401,0.959-2.379,2.33-2.348C114.826,81.749,115.734,82.699,115.73,84.05z"/>
<path opacity="0.6" fill="#B1ADA0" enable-background="new    " d="M119.713,86.312c-1.312-0.01-2.277-0.971-2.283-2.276
	c-0.006-1.358,1.027-2.364,2.383-2.32c1.283,0.041,2.246,1.066,2.224,2.363C122.012,85.387,121.041,86.323,119.713,86.312z"/>
<path opacity="0.6" fill="#B1ADA0" enable-background="new    " d="M12.958,86.32c-1.308-0.019-2.268-0.997-2.264-2.302
	c0.004-1.355,1.049-2.355,2.402-2.299c1.291,0.054,2.236,1.075,2.203,2.379C15.264,85.405,14.279,86.339,12.958,86.32z"/>
<path opacity="0.6" fill="#B1ADA0" enable-background="new    " d="M13.028,78.822c-1.306,0.01-2.304-0.945-2.334-2.232
	c-0.031-1.365,0.974-2.387,2.332-2.372c1.287,0.015,2.272,1.015,2.277,2.312C15.306,77.833,14.335,78.812,13.028,78.822z"/>
<path opacity="0.6" fill="#B1ADA0" enable-background="new    " d="M13.027,101.311c-1.315,0.009-2.304-0.934-2.333-2.226
	c-0.031-1.365,0.974-2.386,2.332-2.37c1.286,0.014,2.271,1.016,2.275,2.311C15.306,100.334,14.344,101.301,13.027,101.311z"/>
<path opacity="0.6" fill="#B1ADA0" enable-background="new    " d="M8.994,69.095c-0.02,1.326-0.966,2.235-2.31,2.22
	C5.348,71.3,4.435,70.37,4.441,69.028c0.006-1.391,1.003-2.36,2.373-2.306C8.133,66.774,9.015,67.733,8.994,69.095z"/>
<path opacity="0.6" fill="#B1ADA0" enable-background="new    " d="M94.651,63.815c-1.314,0.013-2.336-0.942-2.375-2.217
	c-0.039-1.286,1.071-2.4,2.373-2.381c1.264,0.02,2.305,1.067,2.298,2.314C96.94,62.816,95.948,63.804,94.651,63.815z"/>
<path opacity="0.6" fill="#B1ADA0" enable-background="new    " d="M94.6,78.814c-1.305-0.008-2.323-1-2.325-2.269
	c-0.003-1.242,1.051-2.309,2.301-2.33c1.311-0.022,2.409,1.072,2.372,2.366C96.911,77.863,95.903,78.821,94.6,78.814z"/>
<path opacity="0.6" fill="#B1ADA0" enable-background="new    " d="M119.732,78.814c-1.312-0.002-2.289-0.959-2.303-2.257
	c-0.017-1.361,1.006-2.373,2.362-2.34c1.283,0.031,2.254,1.044,2.242,2.342C122.023,77.868,121.055,78.816,119.732,78.814z"/>
<path opacity="0.6" fill="#B1ADA0" enable-background="new    " d="M115.73,76.602c-0.023,1.315-0.982,2.231-2.318,2.213
	c-1.331-0.019-2.244-0.958-2.235-2.297c0.008-1.389,1.01-2.356,2.382-2.297C114.875,74.277,115.752,75.24,115.73,76.602z"/>
<path opacity="0.6" fill="#B1ADA0" enable-background="new    " d="M94.594,101.311c-1.306-0.01-2.323-1.007-2.32-2.275
	c0.003-1.242,1.059-2.307,2.308-2.324c1.312-0.019,2.407,1.08,2.365,2.372C96.906,100.368,95.898,101.321,94.594,101.311z"/>
<path opacity="0.6" fill="#B1ADA0" enable-background="new    " d="M107.121,63.815c-1.313-0.021-2.27-1-2.253-2.307
	c0.016-1.293,1.014-2.285,2.299-2.289c1.357-0.003,2.351,1.028,2.31,2.393C109.438,62.903,108.438,63.837,107.121,63.815z"/>
<path opacity="0.6" fill="#B1ADA0" enable-background="new    " d="M107.165,101.311c-1.325-0.006-2.289-0.956-2.294-2.264
	c-0.007-1.298,0.967-2.307,2.253-2.332c1.356-0.028,2.373,0.987,2.353,2.349C109.458,100.356,108.471,101.316,107.165,101.311z"/>
<path opacity="0.6" fill="#B1ADA0" enable-background="new    " d="M115.73,98.997c0.016,1.341-0.892,2.288-2.217,2.314
	c-1.341,0.026-2.308-0.882-2.337-2.195c-0.032-1.411,0.907-2.4,2.279-2.399C114.781,96.719,115.715,97.656,115.73,98.997z"/>
<path opacity="0.6" fill="#B1ADA0" enable-background="new    " d="M119.693,101.311c-1.312-0.018-2.269-0.987-2.264-2.296
	c0.004-1.308,0.973-2.284,2.276-2.3c1.34-0.015,2.36,1.031,2.326,2.382C122,100.406,121.023,101.329,119.693,101.311z"/>
<path opacity="0.6" fill="#B1ADA0" enable-background="new    " d="M115.73,61.502c0.014,1.341-0.892,2.288-2.217,2.313
	c-1.341,0.026-2.308-0.882-2.337-2.194c-0.032-1.412,0.907-2.4,2.279-2.399C114.779,59.225,115.715,60.161,115.73,61.502z"/>
<path opacity="0.6" fill="#B1ADA0" enable-background="new    " d="M107.173,78.814c-1.327-0.002-2.291-0.947-2.303-2.256
	c-0.011-1.297,0.961-2.31,2.245-2.341c1.357-0.032,2.377,0.979,2.362,2.341C109.462,77.855,108.48,78.815,107.173,78.814z"/>
<path opacity="0.6" fill="#B1ADA0" enable-background="new    " d="M119.799,63.815c-1.324,0.023-2.324-0.901-2.369-2.19
	c-0.047-1.365,0.941-2.401,2.297-2.405c1.287-0.003,2.291,0.984,2.312,2.276C122.062,62.803,121.105,63.793,119.799,63.815z"/>
<path opacity="0.6" fill="#B1ADA0" enable-background="new    " d="M4.441,61.515c0.011-1.345,0.937-2.283,2.262-2.292
	c1.373-0.009,2.318,0.976,2.291,2.388c-0.025,1.322-0.978,2.226-2.323,2.205C5.334,63.795,4.43,62.863,4.441,61.515z"/>
<path opacity="0.6" fill="#B1ADA0" enable-background="new    " d="M13.016,63.815c-1.311,0.006-2.298-0.944-2.322-2.237
	c-0.025-1.362,0.988-2.381,2.344-2.359c1.284,0.021,2.267,1.029,2.263,2.322C15.298,62.853,14.335,63.81,13.016,63.815z"/>
<path opacity="0.6" fill="#B1ADA0" enable-background="new    " d="M201.389,93.812c-1.313,0.013-2.338-0.94-2.375-2.216
	c-0.041-1.286,1.068-2.401,2.369-2.382c1.264,0.018,2.307,1.065,2.301,2.312C203.676,92.812,202.686,93.799,201.389,93.812z"/>
<path opacity="0.6" fill="#B1ADA0" enable-background="new    " d="M8.994,99.095c-0.021,1.324-0.969,2.232-2.313,2.216
	c-1.336-0.017-2.246-0.947-2.239-2.291c0.007-1.392,1.006-2.359,2.376-2.303C8.136,96.771,9.016,97.733,8.994,99.095z"/>
<path opacity="0.6" fill="#B1ADA0" enable-background="new    " d="M213.949,93.812c-1.336,0.015-2.307-0.905-2.342-2.215
	c-0.033-1.351,0.988-2.396,2.328-2.38c1.307,0.015,2.272,0.991,2.276,2.299C216.217,92.824,215.258,93.797,213.949,93.812z"/>
<path opacity="0.6" fill="#B1ADA0" enable-background="new    " d="M12.958,71.315c-1.311-0.017-2.268-0.987-2.265-2.294
	c0.004-1.309,0.97-2.285,2.276-2.301c1.339-0.016,2.362,1.029,2.328,2.38C15.265,70.408,14.29,71.332,12.958,71.315z"/>
<path opacity="0.6" fill="#B1ADA0" enable-background="new    " d="M100.946,168.802c-1.349,0.021-2.304-0.875-2.351-2.202
	c-0.048-1.354,0.963-2.397,2.314-2.393c1.304,0.007,2.273,0.979,2.289,2.293C103.215,167.8,102.251,168.783,100.946,168.802z"/>
<path opacity="0.6" fill="#B1ADA0" enable-background="new    " d="M19.224,63.815c-1.314-0.02-2.268-0.993-2.252-2.301
	c0.016-1.314,0.986-2.286,2.289-2.293c1.303-0.007,2.306,0.974,2.316,2.267C21.587,62.879,20.62,63.836,19.224,63.815z"/>
<path opacity="0.6" fill="#B1ADA0" enable-background="new    " d="M44.407,63.815c-1.339,0.012-2.286-0.904-2.308-2.235
	c-0.022-1.368,0.983-2.381,2.342-2.359c1.279,0.021,2.275,1.043,2.266,2.323C46.696,62.828,45.708,63.805,44.407,63.815z"/>
<path opacity="0.6" fill="#B1ADA0" enable-background="new    " d="M50.617,63.815c-1.298-0.015-2.268-1.005-2.256-2.304
	c0.012-1.299,0.994-2.278,2.295-2.292c1.338-0.013,2.338,1.025,2.3,2.39C52.92,62.911,51.945,63.831,50.617,63.815z"/>
<path opacity="0.6" fill="#B1ADA0" enable-background="new    " d="M69.455,63.815c-1.312-0.024-2.246-0.984-2.24-2.304
	c0.005-1.305,0.982-2.29,2.273-2.292c1.353-0.001,2.363,1.039,2.321,2.388C71.77,62.898,70.765,63.84,69.455,63.815z"/>
<path opacity="0.6" fill="#B1ADA0" enable-background="new    " d="M176.264,153.805c-1.322,0.004-2.289-0.928-2.312-2.231
	c-0.027-1.36,0.985-2.392,2.323-2.364c1.302,0.025,2.271,1.016,2.271,2.314C178.545,152.814,177.562,153.799,176.264,153.805z"/>
<path opacity="0.6" fill="#B1ADA0" enable-background="new    " d="M159.693,151.523c-0.006,1.322-0.941,2.266-2.269,2.279
	c-1.358,0.016-2.368-1.005-2.329-2.354c0.038-1.299,1.04-2.256,2.346-2.241C158.732,149.223,159.697,150.215,159.693,151.523z"/>
<path opacity="0.6" fill="#B1ADA0" enable-background="new    " d="M151.068,153.805c-1.328-0.021-2.248-0.972-2.232-2.309
	c0.014-1.314,0.982-2.281,2.289-2.287c1.326-0.006,2.367,1.072,2.316,2.396C153.393,152.878,152.373,153.822,151.068,153.805z"/>
<path opacity="0.6" fill="#B1ADA0" enable-background="new    " d="M100.918,63.815c-1.334,0.014-2.293-0.907-2.323-2.231
	c-0.031-1.309,0.914-2.312,2.219-2.359c1.349-0.048,2.381,0.953,2.385,2.315C103.203,62.837,102.235,63.802,100.918,63.815z"/>
<path opacity="0.6" fill="#B1ADA0" enable-background="new    " d="M125.947,153.805c-1.311-0.025-2.26-1.006-2.24-2.312
	c0.021-1.312,0.998-2.281,2.299-2.283c1.303-0.001,2.301,0.984,2.305,2.275C128.316,152.869,127.338,153.829,125.947,153.805z"/>
<path opacity="0.6" fill="#B1ADA0" enable-background="new    " d="M126.014,63.815c-1.313,0.002-2.297-0.953-2.307-2.246
	c-0.01-1.362,1.012-2.38,2.359-2.349c1.301,0.031,2.268,1.038,2.244,2.336C128.285,62.895,127.35,63.813,126.014,63.815z"/>
<path opacity="0.6" fill="#B1ADA0" enable-background="new    " d="M176.189,161.303c-1.312-0.025-2.244-0.984-2.238-2.306
	c0.006-1.306,0.982-2.289,2.273-2.29c1.354,0,2.362,1.041,2.319,2.389C178.504,160.385,177.498,161.328,176.189,161.303z"/>
<path opacity="0.6" fill="#B1ADA0" enable-background="new    " d="M100.927,161.303c-1.344,0.012-2.296-0.893-2.332-2.221
	c-0.038-1.355,0.98-2.391,2.333-2.373c1.302,0.016,2.263,0.996,2.27,2.311C103.206,160.316,102.237,161.291,100.927,161.303z"/>
<path opacity="0.6" fill="#B1ADA0" enable-background="new    " d="M100.846,176.301c-1.329-0.021-2.259-0.971-2.253-2.303
	c0.007-1.303,0.99-2.285,2.292-2.293c1.347-0.006,2.348,1.029,2.314,2.395C103.167,175.383,102.164,176.32,100.846,176.301z"/>
<path opacity="0.6" fill="#B1ADA0" enable-background="new    " d="M176.271,168.802c-1.322,0.009-2.293-0.92-2.32-2.223
	c-0.031-1.362,0.979-2.396,2.314-2.374c1.303,0.021,2.274,1.008,2.278,2.307C178.551,167.807,177.568,168.793,176.271,168.802z"/>
<path opacity="0.6" fill="#B1ADA0" enable-background="new    " d="M176.277,176.301c-1.324,0.012-2.297-0.916-2.326-2.218
	c-0.033-1.362,0.975-2.397,2.311-2.378c1.303,0.02,2.277,1.002,2.285,2.302C178.553,175.3,177.572,176.291,176.277,176.301z"/>
<path opacity="0.6" fill="#B1ADA0" enable-background="new    " d="M151.148,86.312c-1.344,0.014-2.287-0.895-2.312-2.227
	c-0.027-1.37,0.975-2.385,2.332-2.367c1.279,0.016,2.279,1.036,2.273,2.314C153.436,85.317,152.447,86.3,151.148,86.312z"/>
<path opacity="0.6" fill="#B1ADA0" enable-background="new    " d="M159.691,84.057c-0.015,1.314-0.965,2.252-2.289,2.256
	c-1.312,0.004-2.291-0.951-2.305-2.253c-0.019-1.351,1.018-2.371,2.366-2.341C158.758,81.747,159.707,82.745,159.691,84.057z"/>
<path opacity="0.6" fill="#B1ADA0" enable-background="new    " d="M100.932,123.809c-1.346,0.015-2.297-0.889-2.336-2.218
	c-0.04-1.354,0.976-2.392,2.329-2.377c1.301,0.015,2.265,0.991,2.275,2.308C103.209,122.816,102.24,123.794,100.932,123.809z"/>
<path opacity="0.6" fill="#B1ADA0" enable-background="new    " d="M69.472,123.809c-1.32-0.02-2.255-0.967-2.257-2.287
	c-0.002-1.309,0.965-2.297,2.255-2.31c1.353-0.012,2.371,1.021,2.339,2.371C71.779,122.874,70.78,123.826,69.472,123.809z"/>
<path opacity="0.6" fill="#B1ADA0" enable-background="new    " d="M50.618,123.809c-1.298-0.015-2.268-1.004-2.257-2.304
	c0.011-1.3,0.992-2.278,2.294-2.293c1.338-0.014,2.338,1.022,2.301,2.39C52.921,122.9,51.945,123.822,50.618,123.809z"/>
<path opacity="0.6" fill="#B1ADA0" enable-background="new    " d="M44.414,123.809c-1.342,0.015-2.289-0.898-2.314-2.229
	c-0.026-1.37,0.976-2.386,2.335-2.365c1.278,0.019,2.278,1.038,2.271,2.315C46.699,122.814,45.713,123.794,44.414,123.809z"/>
<path opacity="0.6" fill="#B1ADA0" enable-background="new    " d="M207.574,86.312c-1.322-0.024-2.246-0.976-2.242-2.312
	c0.002-1.293,0.998-2.281,2.301-2.281c1.348-0.002,2.34,1.035,2.303,2.402C209.898,85.409,208.898,86.338,207.574,86.312z"/>
<path opacity="0.6" fill="#B1ADA0" enable-background="new    " d="M19.33,123.809c-1.324,0.023-2.324-0.908-2.358-2.195
	c-0.036-1.366,0.959-2.402,2.307-2.399c1.302,0.003,2.296,0.992,2.297,2.286C21.577,122.84,20.658,123.783,19.33,123.809z"/>
<path opacity="0.6" fill="#B1ADA0" enable-background="new    " d="M19.251,93.812c-1.318-0.009-2.282-0.971-2.279-2.274
	c0.003-1.317,0.959-2.298,2.261-2.32c1.355-0.023,2.383,1.015,2.341,2.364C21.532,92.921,20.596,93.821,19.251,93.812z"/>
<path opacity="0.6" fill="#B1ADA0" enable-background="new    " d="M44.396,93.812c-1.336,0.006-2.28-0.918-2.296-2.247
	c-0.017-1.32,0.92-2.306,2.229-2.346c1.327-0.04,2.394,1.007,2.378,2.333C46.69,92.833,45.696,93.805,44.396,93.812z"/>
<path opacity="0.6" fill="#B1ADA0" enable-background="new    " d="M52.956,91.53c-0.004,1.323-0.94,2.267-2.263,2.282
	c-1.362,0.015-2.372-1.002-2.333-2.354c0.038-1.297,1.041-2.255,2.345-2.241C51.996,89.23,52.96,90.222,52.956,91.53z"/>
<path opacity="0.6" fill="#B1ADA0" enable-background="new    " d="M176.234,116.311c-1.326-0.009-2.271-0.944-2.283-2.262
	c-0.014-1.312,0.939-2.309,2.229-2.335c1.353-0.028,2.383,0.995,2.365,2.345C178.529,115.35,177.537,116.314,176.234,116.311z"/>
<path opacity="0.6" fill="#B1ADA0" enable-background="new    " d="M159.691,114.07c-0.021,1.309-0.982,2.24-2.305,2.238
	c-1.312-0.002-2.285-0.971-2.289-2.271c-0.007-1.349,1.034-2.362,2.387-2.323C158.773,111.752,159.715,112.755,159.691,114.07z"/>
<path opacity="0.6" fill="#B1ADA0" enable-background="new    " d="M151.088,116.311c-1.33-0.014-2.258-0.955-2.252-2.289
	c0.004-1.318,0.961-2.292,2.27-2.308c1.32-0.016,2.377,1.058,2.336,2.377C153.404,115.363,152.389,116.318,151.088,116.311z"/>
<path opacity="0.6" fill="#B1ADA0" enable-background="new    " d="M100.918,131.307c-1.341,0.008-2.291-0.902-2.323-2.229
	c-0.033-1.355,0.989-2.387,2.343-2.364c1.301,0.021,2.258,1.003,2.261,2.32C103.202,130.329,102.229,131.299,100.918,131.307z"/>
<path opacity="0.6" fill="#B1ADA0" enable-background="new    " d="M69.572,131.307c-1.333,0.023-2.314-0.889-2.357-2.188
	c-0.045-1.369,0.941-2.411,2.281-2.408c1.304,0.003,2.293,0.975,2.315,2.271C71.833,130.273,70.86,131.285,69.572,131.307z"/>
<path opacity="0.6" fill="#B1ADA0" enable-background="new    " d="M50.626,131.307c-1.301-0.012-2.272-0.996-2.265-2.295
	c0.007-1.3,0.984-2.281,2.286-2.301c1.338-0.02,2.343,1.018,2.309,2.381C52.924,130.395,51.951,131.318,50.626,131.307z"/>
<path opacity="0.6" fill="#B1ADA0" enable-background="new    " d="M44.371,131.307c-1.328-0.004-2.268-0.942-2.272-2.271
	c-0.003-1.319,0.946-2.3,2.254-2.324c1.318-0.024,2.383,1.043,2.354,2.36C46.677,130.348,45.67,131.311,44.371,131.307z"/>
<path opacity="0.6" fill="#B1ADA0" enable-background="new    " d="M19.279,86.312c-1.316,0.003-2.297-0.951-2.308-2.246
	c-0.011-1.362,1.012-2.381,2.358-2.35c1.302,0.031,2.27,1.039,2.245,2.338C21.548,85.396,20.62,86.31,19.279,86.312z"/>
<path opacity="0.6" fill="#B1ADA0" enable-background="new    " d="M44.34,86.312c-1.323-0.016-2.253-0.971-2.241-2.302
	c0.012-1.316,0.977-2.284,2.284-2.292c1.323-0.009,2.37,1.068,2.322,2.39C46.661,85.381,45.645,86.329,44.34,86.312z"/>
<path opacity="0.6" fill="#B1ADA0" enable-background="new    " d="M19.307,131.307c-1.32,0.016-2.312-0.927-2.335-2.218
	c-0.025-1.36,0.987-2.394,2.33-2.377c1.303,0.015,2.284,1.013,2.273,2.31C21.564,130.359,20.64,131.292,19.307,131.307z"/>
<path opacity="0.6" fill="#B1ADA0" enable-background="new    " d="M52.956,84.004c0.007,1.32-0.926,2.283-2.237,2.309
	c-1.364,0.027-2.383-0.978-2.359-2.327c0.023-1.297,1.014-2.267,2.318-2.269C51.97,81.716,52.95,82.7,52.956,84.004z"/>
<path opacity="0.6" fill="#B1ADA0" enable-background="new    " d="M69.484,86.312c-1.325-0.013-2.263-0.952-2.269-2.274
	c-0.007-1.31,0.954-2.302,2.245-2.321c1.352-0.018,2.376,1.01,2.35,2.359C71.785,85.367,70.789,86.326,69.484,86.312z"/>
<path opacity="0.6" fill="#B1ADA0" enable-background="new    " d="M100.866,86.312c-1.334-0.014-2.269-0.952-2.271-2.283
	c-0.003-1.307,0.968-2.295,2.271-2.313c1.343-0.016,2.357,1.015,2.333,2.375C103.177,85.375,102.178,86.327,100.866,86.312z"/>
<path opacity="0.6" fill="#B1ADA0" enable-background="new    " d="M176.258,123.809c-1.324,0.002-2.285-0.93-2.307-2.238
	c-0.023-1.36,0.992-2.389,2.33-2.357c1.303,0.03,2.268,1.02,2.264,2.321C178.543,122.826,177.557,123.807,176.258,123.809z"/>
<path opacity="0.6" fill="#B1ADA0" enable-background="new    " d="M159.691,121.65c-0.055,1.295-1.049,2.192-2.387,2.156
	c-1.293-0.033-2.246-1.052-2.209-2.353c0.038-1.343,1.118-2.322,2.469-2.239C158.848,119.298,159.748,120.328,159.691,121.65z"/>
<path opacity="0.6" fill="#B1ADA0" enable-background="new    " d="M151.178,123.809c-1.35,0.023-2.301-0.871-2.342-2.199
	c-0.041-1.366,0.951-2.398,2.305-2.396c1.277,0.003,2.293,1.015,2.301,2.288C153.449,122.783,152.469,123.783,151.178,123.809z"/>
<path opacity="0.6" fill="#B1ADA0" enable-background="new    " d="M125.963,123.809c-1.316-0.02-2.27-0.99-2.256-2.297
	c0.016-1.316,0.98-2.289,2.285-2.298c1.303-0.01,2.307,0.97,2.32,2.261C128.326,122.859,127.352,123.828,125.963,123.809z"/>
<path opacity="0.6" fill="#B1ADA0" enable-background="new    " d="M125.971,86.312c-1.313-0.015-2.272-0.985-2.264-2.289
	c0.012-1.315,0.975-2.291,2.277-2.305c1.354-0.014,2.375,1.03,2.324,2.377C128.26,85.432,127.314,86.329,125.971,86.312z"/>
<path opacity="0.6" fill="#B1ADA0" enable-background="new    " d="M126.037,108.809c-1.32,0.012-2.309-0.931-2.33-2.223
	c-0.021-1.361,0.992-2.391,2.334-2.372c1.305,0.018,2.283,1.016,2.27,2.313C128.297,107.866,127.367,108.798,126.037,108.809z"/>
<path opacity="0.6" fill="#B1ADA0" enable-background="new    " d="M19.328,101.311c-1.324,0.022-2.322-0.91-2.356-2.197
	c-0.035-1.367,0.962-2.403,2.31-2.398c1.302,0.003,2.295,0.995,2.294,2.288C21.575,100.346,20.656,101.288,19.328,101.311z"/>
<path opacity="0.6" fill="#B1ADA0" enable-background="new    " d="M44.429,101.311c-1.344,0.02-2.296-0.884-2.329-2.214
	c-0.035-1.366,0.964-2.392,2.32-2.381c1.276,0.01,2.285,1.025,2.287,2.301C46.708,100.302,45.725,101.291,44.429,101.311z"/>
<path opacity="0.6" fill="#B1ADA0" enable-background="new    " d="M52.956,99.029c-0.004,1.322-0.94,2.266-2.263,2.282
	c-1.362,0.016-2.372-1.003-2.333-2.353c0.038-1.297,1.041-2.257,2.345-2.243C51.996,96.729,52.96,97.721,52.956,99.029z"/>
<path opacity="0.6" fill="#B1ADA0" enable-background="new    " d="M100.871,108.809c-1.335-0.012-2.271-0.947-2.276-2.279
	c-0.005-1.306,0.964-2.297,2.268-2.315c1.343-0.019,2.359,1.009,2.337,2.37C103.179,107.87,102.182,108.821,100.871,108.809z"/>
<path opacity="0.6" fill="#B1ADA0" enable-background="new    " d="M69.552,101.311c-1.327,0.014-2.303-0.907-2.337-2.207
	c-0.037-1.365,0.963-2.402,2.3-2.389c1.302,0.013,2.283,0.993,2.295,2.291C71.822,100.295,70.842,101.297,69.552,101.311z"/>
<path opacity="0.6" fill="#B1ADA0" enable-background="new    " d="M69.521,108.809c-1.323,0.003-2.284-0.929-2.306-2.237
	c-0.023-1.361,0.993-2.389,2.332-2.358c1.302,0.03,2.267,1.021,2.264,2.323C71.807,107.828,70.821,108.807,69.521,108.809z"/>
<path opacity="0.6" fill="#B1ADA0" enable-background="new    " d="M52.956,106.519c0,1.321-0.935,2.273-2.254,2.291
	c-1.362,0.02-2.375-0.993-2.342-2.343c0.032-1.297,1.03-2.26,2.335-2.251C51.986,104.223,52.957,105.211,52.956,106.519z"/>
<path opacity="0.6" fill="#B1ADA0" enable-background="new    " d="M44.421,108.809c-1.343,0.018-2.292-0.891-2.321-2.221
	c-0.03-1.369,0.968-2.388,2.328-2.373c1.276,0.014,2.281,1.033,2.279,2.309C46.704,107.81,45.72,108.793,44.421,108.809z"/>
<path opacity="0.6" fill="#B1ADA0" enable-background="new    " d="M100.917,101.311c-1.342,0.007-2.291-0.904-2.321-2.233
	c-0.032-1.355,0.991-2.385,2.345-2.361c1.301,0.023,2.257,1.005,2.259,2.322C103.201,100.335,102.228,101.303,100.917,101.311z"/>
<path opacity="0.6" fill="#B1ADA0" enable-background="new    " d="M19.236,108.809c-1.315-0.014-2.274-0.983-2.265-2.288
	c0.01-1.316,0.974-2.292,2.276-2.306c1.354-0.014,2.375,1.031,2.325,2.378C21.523,107.934,20.583,108.825,19.236,108.809z"/>
<path opacity="0.6" fill="#B1ADA0" enable-background="new    " d="M126.033,101.311c-1.316,0.01-2.307-0.936-2.326-2.226
	c-0.02-1.361,0.994-2.39,2.338-2.37c1.303,0.02,2.279,1.019,2.266,2.317C128.297,100.369,127.365,101.3,126.033,101.311z"/>
<path opacity="0.6" fill="#B1ADA0" enable-background="new    " d="M207.576,101.311c-1.322-0.024-2.246-0.976-2.244-2.313
	c0.002-1.292,0.996-2.281,2.299-2.282c1.348-0.001,2.342,1.035,2.305,2.402C209.898,100.406,208.9,101.335,207.576,101.311z"/>
<path opacity="0.6" fill="#B1ADA0" enable-background="new    " d="M151.08,101.311c-1.328-0.014-2.254-0.959-2.244-2.295
	c0.008-1.317,0.967-2.288,2.275-2.301c1.32-0.012,2.373,1.065,2.33,2.384C153.4,100.372,152.385,101.324,151.08,101.311z"/>
<path opacity="0.6" fill="#B1ADA0" enable-background="new    " d="M159.693,99.004c0.006,1.319-0.928,2.281-2.24,2.307
	c-1.363,0.026-2.383-0.979-2.355-2.329c0.023-1.297,1.014-2.267,2.318-2.267C158.707,96.715,159.688,97.699,159.693,99.004z"/>
<path opacity="0.6" fill="#B1ADA0" enable-background="new    " d="M176.238,101.311c-1.324-0.006-2.273-0.941-2.287-2.257
	c-0.016-1.359,1.01-2.381,2.35-2.339c1.301,0.04,2.258,1.039,2.244,2.341C178.531,100.348,177.541,101.316,176.238,101.311z"/>
<path opacity="0.6" fill="#B1ADA0" enable-background="new    " d="M69.578,93.812c-1.334,0.025-2.317-0.883-2.363-2.182
	c-0.048-1.369,0.936-2.413,2.275-2.414c1.303,0,2.295,0.967,2.32,2.266C71.836,92.773,70.865,93.787,69.578,93.812z"/>
<path opacity="0.6" fill="#B1ADA0" enable-background="new    " d="M126.002,116.311c-1.318-0.004-2.291-0.963-2.295-2.26
	c-0.004-1.362,1.023-2.375,2.371-2.335c1.305,0.037,2.262,1.045,2.23,2.347C128.277,115.4,127.34,116.312,126.002,116.311z"/>
<path opacity="0.6" fill="#B1ADA0" enable-background="new    " d="M100.885,93.812c-1.338-0.005-2.277-0.934-2.29-2.264
	c-0.014-1.305,0.949-2.305,2.25-2.332c1.346-0.029,2.367,0.995,2.353,2.354C103.186,92.859,102.198,93.817,100.885,93.812z"/>
<path opacity="0.6" fill="#B1ADA0" enable-background="new    " d="M100.836,116.311c-1.327-0.026-2.254-0.981-2.243-2.313
	c0.012-1.303,0.998-2.281,2.303-2.283c1.347,0,2.341,1.037,2.303,2.403C103.163,115.4,102.156,116.334,100.836,116.311z"/>
<path opacity="0.6" fill="#B1ADA0" enable-background="new    " d="M69.478,116.311c-1.323-0.018-2.259-0.961-2.263-2.283
	c-0.004-1.307,0.96-2.298,2.25-2.312c1.353-0.015,2.374,1.016,2.344,2.364C71.781,115.37,70.783,116.324,69.478,116.311z"/>
<path opacity="0.6" fill="#B1ADA0" enable-background="new    " d="M52.956,114.07c-0.021,1.308-0.982,2.24-2.306,2.238
	c-1.31-0.002-2.284-0.97-2.289-2.271c-0.005-1.348,1.036-2.362,2.386-2.323C52.037,111.752,52.978,112.755,52.956,114.07z"/>
<path opacity="0.6" fill="#B1ADA0" enable-background="new    " d="M44.369,116.311c-1.327-0.006-2.268-0.949-2.27-2.274
	c-0.002-1.319,0.948-2.297,2.256-2.321c1.318-0.025,2.382,1.043,2.351,2.362C46.676,115.35,45.669,116.312,44.369,116.311z"/>
<path opacity="0.6" fill="#B1ADA0" enable-background="new    " d="M126.039,93.812c-1.32,0.013-2.309-0.931-2.332-2.222
	c-0.021-1.359,0.99-2.391,2.332-2.373c1.305,0.016,2.283,1.014,2.271,2.311C128.299,92.865,127.369,93.799,126.039,93.812z"/>
<path opacity="0.6" fill="#B1ADA0" enable-background="new    " d="M151.074,93.812c-1.328-0.017-2.252-0.965-2.238-2.302
	c0.01-1.316,0.975-2.284,2.283-2.293c1.322-0.01,2.369,1.067,2.322,2.39C153.396,92.879,152.379,93.829,151.074,93.812z"/>
<path opacity="0.6" fill="#B1ADA0" enable-background="new    " d="M159.693,91.5c0.008,1.319-0.924,2.285-2.234,2.312
	c-1.365,0.029-2.385-0.975-2.361-2.323c0.021-1.298,1.008-2.271,2.312-2.273C158.701,89.213,159.684,90.196,159.693,91.5z"/>
<path opacity="0.6" fill="#B1ADA0" enable-background="new    " d="M19.213,116.311c-1.312-0.024-2.263-1.006-2.242-2.313
	c0.021-1.311,0.998-2.281,2.299-2.283c1.302-0.001,2.3,0.985,2.305,2.279C21.581,115.382,20.61,116.334,19.213,116.311z"/>
<path opacity="0.6" fill="#B1ADA0" enable-background="new    " d="M176.238,93.812c-1.324-0.005-2.273-0.943-2.287-2.257
	c-0.016-1.36,1.01-2.381,2.35-2.34c1.301,0.041,2.26,1.04,2.244,2.342C178.531,92.849,177.539,93.817,176.238,93.812z"/>
<path opacity="0.6" fill="#B1ADA0" enable-background="new    " d="M207.625,93.812c-1.336-0.005-2.27-0.927-2.293-2.264
	c-0.023-1.299,0.947-2.303,2.25-2.332c1.344-0.029,2.365,0.992,2.354,2.354C209.924,92.863,208.941,93.816,207.625,93.812z"/>
<path opacity="0.6" fill="#B1ADA0" enable-background="new    " d="M176.305,108.809c-1.332,0.022-2.312-0.891-2.354-2.19
	c-0.043-1.368,0.945-2.409,2.283-2.405c1.303,0.006,2.291,0.977,2.312,2.274C178.566,107.781,177.592,108.79,176.305,108.809z"/>
<path opacity="0.6" fill="#B1ADA0" enable-background="new    " d="M159.691,106.569c-0.021,1.31-0.98,2.242-2.305,2.24
	c-1.31-0.001-2.283-0.967-2.289-2.269c-0.007-1.35,1.032-2.364,2.385-2.325C158.771,104.251,159.713,105.255,159.691,106.569z"/>
<path opacity="0.6" fill="#B1ADA0" enable-background="new    " d="M151.066,108.809c-1.326-0.02-2.248-0.971-2.23-2.309
	c0.014-1.314,0.984-2.281,2.291-2.285c1.326-0.006,2.365,1.073,2.314,2.396C153.393,107.886,152.371,108.829,151.066,108.809z"/>
<path opacity="0.6" fill="#B1ADA0" enable-background="new    " d="M69.552,71.315c-1.327,0.014-2.302-0.908-2.337-2.208
	c-0.037-1.364,0.964-2.402,2.301-2.388c1.301,0.013,2.282,0.993,2.294,2.291C71.822,70.301,70.842,71.301,69.552,71.315z"/>
<path opacity="0.6" fill="#B1ADA0" enable-background="new    " d="M100.891,146.305c-1.339-0.002-2.28-0.928-2.295-2.257
	c-0.018-1.354,1.018-2.375,2.37-2.336c1.299,0.038,2.244,1.03,2.234,2.347C103.189,145.348,102.203,146.309,100.891,146.305z"/>
<path opacity="0.6" fill="#B1ADA0" enable-background="new    " d="M100.904,71.315c-1.342,0.002-2.285-0.913-2.309-2.244
	c-0.026-1.355,1.003-2.381,2.356-2.35c1.301,0.029,2.251,1.016,2.247,2.333C103.195,70.347,102.216,71.312,100.904,71.315z"/>
<path opacity="0.6" fill="#B1ADA0" enable-background="new    " d="M69.549,146.305c-1.326,0.014-2.301-0.91-2.334-2.209
	c-0.036-1.363,0.966-2.402,2.304-2.387c1.301,0.016,2.281,0.995,2.292,2.295C71.821,145.295,70.841,146.292,69.549,146.305z"/>
<path opacity="0.6" fill="#B1ADA0" enable-background="new    " d="M52.956,144.02c-0.002,1.321-0.938,2.27-2.259,2.285
	c-1.362,0.019-2.374-0.998-2.336-2.35c0.035-1.297,1.036-2.257,2.34-2.245C51.992,141.721,52.958,142.71,52.956,144.02z"/>
<path opacity="0.6" fill="#B1ADA0" enable-background="new    " d="M44.438,146.305c-1.345,0.023-2.301-0.878-2.339-2.203
	c-0.039-1.367,0.956-2.396,2.311-2.391c1.276,0.005,2.29,1.016,2.296,2.291C46.713,145.286,45.732,146.281,44.438,146.305z"/>
<path opacity="0.6" fill="#B1ADA0" enable-background="new    " d="M126.039,71.315c-1.32,0.012-2.309-0.931-2.332-2.222
	c-0.021-1.36,0.99-2.391,2.332-2.374c1.305,0.017,2.283,1.014,2.271,2.311C128.299,70.369,127.369,71.302,126.039,71.315z"/>
<path opacity="0.6" fill="#B1ADA0" enable-background="new    " d="M176.209,138.807c-1.32-0.019-2.256-0.966-2.258-2.287
	c-0.002-1.308,0.963-2.297,2.256-2.309c1.352-0.013,2.369,1.021,2.338,2.37C178.514,137.872,177.516,138.823,176.209,138.807z"/>
<path opacity="0.6" fill="#B1ADA0" enable-background="new    " d="M159.691,136.564c-0.021,1.311-0.98,2.244-2.305,2.242
	c-1.31-0.004-2.283-0.969-2.289-2.271c-0.007-1.352,1.032-2.363,2.385-2.325C158.771,134.248,159.713,135.252,159.691,136.564z"/>
<path opacity="0.6" fill="#B1ADA0" enable-background="new    " d="M151.105,138.807c-1.336-0.005-2.269-0.936-2.271-2.271
	c-0.004-1.319,0.942-2.3,2.252-2.324c1.317-0.026,2.386,1.041,2.354,2.358C153.412,137.846,152.404,138.811,151.105,138.807z"/>
<path opacity="0.6" fill="#B1ADA0" enable-background="new    " d="M123.707,136.491c0.023-1.312,1.002-2.279,2.301-2.279
	c1.303-0.001,2.301,0.985,2.303,2.279c0.004,1.384-0.975,2.341-2.365,2.315C124.635,138.779,123.686,137.798,123.707,136.491z"/>
<path opacity="0.6" fill="#B1ADA0" enable-background="new    " d="M100.886,153.805c-1.339-0.006-2.278-0.934-2.291-2.263
	c-0.014-1.308,0.948-2.306,2.25-2.333c1.346-0.029,2.367,0.991,2.353,2.354C103.186,152.852,102.198,153.809,100.886,153.805z"/>
<path opacity="0.6" fill="#B1ADA0" enable-background="new    " d="M19.303,71.315c-1.32,0.012-2.31-0.931-2.332-2.222
	c-0.022-1.361,0.99-2.391,2.334-2.373c1.303,0.018,2.282,1.016,2.27,2.313C21.562,70.374,20.638,71.302,19.303,71.315z"/>
<path opacity="0.6" fill="#B1ADA0" enable-background="new    " d="M44.392,71.315c-1.334,0.005-2.278-0.923-2.292-2.251
	c-0.014-1.319,0.925-2.305,2.233-2.342c1.324-0.038,2.392,1.015,2.374,2.337C46.688,70.339,45.691,71.31,44.392,71.315z"/>
<path opacity="0.6" fill="#B1ADA0" enable-background="new    " d="M176.238,146.305c-1.324-0.004-2.273-0.941-2.287-2.256
	c-0.016-1.359,1.01-2.381,2.35-2.34c1.301,0.04,2.258,1.039,2.244,2.341C178.531,145.341,177.541,146.311,176.238,146.305z"/>
<path opacity="0.6" fill="#B1ADA0" enable-background="new    " d="M157.354,146.305c-1.299-0.015-2.27-1.004-2.256-2.303
	c0.01-1.299,0.99-2.279,2.293-2.293c1.338-0.016,2.338,1.023,2.301,2.389C159.656,145.398,158.682,146.32,157.354,146.305z"/>
<path opacity="0.6" fill="#B1ADA0" enable-background="new    " d="M151.146,146.305c-1.345,0.014-2.287-0.896-2.312-2.229
	c-0.026-1.369,0.978-2.385,2.336-2.364c1.276,0.019,2.276,1.037,2.271,2.315C153.436,145.311,152.445,146.292,151.146,146.305z"/>
<path opacity="0.6" fill="#B1ADA0" enable-background="new    " d="M52.956,69.076c-0.022,1.309-0.982,2.241-2.306,2.239
	c-1.31-0.002-2.284-0.97-2.289-2.271c-0.005-1.349,1.037-2.363,2.387-2.323C52.037,66.758,52.978,67.762,52.956,69.076z"/>
<path opacity="0.6" fill="#B1ADA0" enable-background="new    " d="M126.062,146.305c-1.324,0.021-2.322-0.91-2.355-2.197
	c-0.035-1.365,0.963-2.399,2.311-2.396c1.301,0.004,2.293,0.993,2.293,2.286C128.311,145.335,127.387,146.282,126.062,146.305z"/>
<path opacity="0.6" fill="#B1ADA0" enable-background="new    " d="M19.241,138.807c-1.316-0.014-2.277-0.979-2.27-2.283
	c0.008-1.316,0.97-2.295,2.271-2.311c1.354-0.02,2.377,1.025,2.331,2.372C21.526,137.925,20.588,138.818,19.241,138.807z"/>
<path opacity="0.6" fill="#B1ADA0" enable-background="new    " d="M159.691,129.061c-0.021,1.312-0.974,2.246-2.297,2.246
	c-1.312,0.002-2.289-0.961-2.297-2.264c-0.011-1.352,1.026-2.365,2.379-2.331C158.766,126.746,159.711,127.747,159.691,129.061z"/>
<path opacity="0.6" fill="#B1ADA0" enable-background="new    " d="M69.471,78.814c-1.32-0.019-2.255-0.966-2.256-2.289
	c-0.001-1.308,0.966-2.297,2.257-2.307c1.353-0.011,2.371,1.021,2.338,2.371C71.778,77.881,70.778,78.832,69.471,78.814z"/>
<path opacity="0.6" fill="#B1ADA0" enable-background="new    " d="M44.318,138.807c-1.322-0.025-2.242-0.988-2.219-2.324
	c0.022-1.312,0.999-2.273,2.306-2.271c1.324,0.004,2.359,1.089,2.3,2.412C46.649,137.896,45.627,138.83,44.318,138.807z"/>
<path opacity="0.6" fill="#B1ADA0" enable-background="new    " d="M52.956,136.501c0.005,1.319-0.927,2.28-2.241,2.306
	c-1.363,0.024-2.381-0.981-2.355-2.33c0.025-1.299,1.018-2.267,2.321-2.266C51.973,134.211,52.951,135.195,52.956,136.501z"/>
<path opacity="0.6" fill="#B1ADA0" enable-background="new    " d="M151.084,131.307c-1.328-0.012-2.256-0.955-2.248-2.291
	c0.006-1.316,0.963-2.289,2.271-2.304c1.317-0.017,2.375,1.062,2.334,2.379C153.402,130.363,152.387,131.318,151.084,131.307z"/>
<path opacity="0.6" fill="#B1ADA0" enable-background="new    " d="M176.107,131.307c-1.297-0.059-2.195-1.053-2.156-2.386
	c0.039-1.289,1.066-2.253,2.355-2.211c1.348,0.045,2.321,1.122,2.233,2.472C178.457,130.465,177.426,131.366,176.107,131.307z"/>
<path opacity="0.6" fill="#B1ADA0" enable-background="new    " d="M100.917,78.814c-1.342,0.006-2.29-0.904-2.321-2.233
	c-0.032-1.355,0.991-2.385,2.345-2.361c1.301,0.022,2.257,1.003,2.259,2.321C103.201,77.839,102.228,78.807,100.917,78.814z"/>
<path opacity="0.6" fill="#B1ADA0" enable-background="new    " d="M69.5,138.807c-1.325-0.007-2.272-0.943-2.286-2.26
	c-0.013-1.311,0.938-2.309,2.228-2.336c1.351-0.027,2.383,0.993,2.367,2.344C71.794,137.846,70.803,138.812,69.5,138.807z"/>
<path opacity="0.6" fill="#B1ADA0" enable-background="new    " d="M207.668,78.814c-1.344,0.013-2.289-0.886-2.334-2.221
	c-0.047-1.348,0.977-2.39,2.33-2.374c1.299,0.015,2.264,0.994,2.271,2.31C209.943,77.832,208.982,78.8,207.668,78.814z"/>
<path opacity="0.6" fill="#B1ADA0" enable-background="new    " d="M159.693,76.492c0.012,1.321-0.916,2.291-2.226,2.323
	c-1.364,0.032-2.391-0.965-2.37-2.313c0.016-1.299,1-2.274,2.303-2.283C158.691,74.21,159.68,75.19,159.693,76.492z"/>
<path opacity="0.6" fill="#B1ADA0" enable-background="new    " d="M19.278,78.814c-1.316,0.002-2.296-0.954-2.307-2.247
	c-0.01-1.364,1.012-2.381,2.358-2.349c1.302,0.03,2.27,1.038,2.244,2.338C21.548,77.897,20.619,78.811,19.278,78.814z"/>
<path opacity="0.6" fill="#B1ADA0" enable-background="new    " d="M44.403,78.814c-1.338,0.008-2.284-0.912-2.304-2.241
	c-0.02-1.367,0.988-2.379,2.346-2.354c1.278,0.025,2.273,1.048,2.261,2.327C46.694,77.829,45.703,78.805,44.403,78.814z"/>
<path opacity="0.6" fill="#B1ADA0" enable-background="new    " d="M151.146,78.814c-1.345,0.012-2.287-0.897-2.312-2.23
	c-0.026-1.369,0.978-2.384,2.336-2.365c1.276,0.017,2.276,1.039,2.271,2.317C153.436,77.82,152.445,78.801,151.146,78.814z"/>
<path opacity="0.6" fill="#B1ADA0" enable-background="new    " d="M100.838,138.807c-1.327-0.024-2.255-0.979-2.245-2.312
	c0.011-1.304,0.996-2.281,2.3-2.284c1.347-0.003,2.344,1.035,2.306,2.4C103.164,137.895,102.158,138.83,100.838,138.807z"/>
<path opacity="0.6" fill="#B1ADA0" enable-background="new    " d="M126.053,78.814c-1.32,0.018-2.316-0.917-2.346-2.207
	c-0.029-1.365,0.971-2.396,2.318-2.389c1.301,0.008,2.291,1.001,2.285,2.296C128.307,77.851,127.381,78.795,126.053,78.814z"/>
<path opacity="0.6" fill="#B1ADA0" enable-background="new    " d="M50.626,78.814c-1.301-0.012-2.272-0.997-2.265-2.296
	c0.007-1.299,0.984-2.283,2.286-2.3c1.338-0.019,2.343,1.018,2.309,2.381C52.924,77.901,51.951,78.827,50.626,78.814z"/>
<path opacity="0.6" fill="#B1ADA0" enable-background="new    " d="M125.961,131.307c-1.314-0.019-2.268-0.992-2.254-2.3
	c0.016-1.315,0.982-2.286,2.287-2.295c1.303-0.008,2.307,0.972,2.318,2.265C128.324,130.359,127.35,131.327,125.961,131.307z"/>
<path opacity="0.6" fill="#B1ADA0" enable-background="new    " d="M75.761,86.312c-1.3-0.012-2.288-0.989-2.296-2.273
	c-0.009-1.327,1.058-2.362,2.391-2.322c1.293,0.04,2.238,1.048,2.216,2.365C78.05,85.408,77.101,86.325,75.761,86.312z"/>
<path opacity="0.6" fill="#B1ADA0" enable-background="new    " d="M65.488,84.047c-0.003,1.348-0.911,2.26-2.254,2.266
	c-1.319,0.005-2.28-0.936-2.298-2.25c-0.019-1.374,0.978-2.371,2.341-2.345C64.592,81.743,65.491,82.689,65.488,84.047z"/>
<path opacity="0.6" fill="#B1ADA0" enable-background="new    " d="M59.235,84.046c-0.011,1.319-0.964,2.265-2.282,2.267
	c-1.345,0.002-2.26-0.905-2.27-2.249c-0.009-1.407,0.957-2.385,2.319-2.346C58.321,81.755,59.247,82.721,59.235,84.046z"/>
<path opacity="0.6" fill="#B1ADA0" enable-background="new    " d="M57.005,131.307c-1.356,0.023-2.294-0.863-2.322-2.197
	c-0.029-1.414,0.909-2.405,2.267-2.396c1.319,0.01,2.274,0.96,2.285,2.275C59.247,130.314,58.314,131.284,57.005,131.307z"/>
<path opacity="0.6" fill="#B1ADA0" enable-background="new    " d="M65.487,129.07c-0.014,1.341-0.935,2.242-2.283,2.236
	c-1.317-0.008-2.264-0.959-2.269-2.281c-0.005-1.363,1.013-2.357,2.371-2.315C64.617,126.752,65.501,127.71,65.487,129.07z"/>
<path opacity="0.6" fill="#B1ADA0" enable-background="new    " d="M75.796,131.307c-1.3,0.002-2.304-0.961-2.331-2.236
	c-0.028-1.318,1.037-2.385,2.354-2.358c1.304,0.027,2.256,1.013,2.252,2.329C78.068,130.363,77.125,131.305,75.796,131.307z"/>
<path opacity="0.6" fill="#B1ADA0" enable-background="new    " d="M165.971,129.146c-0.057,1.295-1.063,2.203-2.391,2.158
	c-1.367-0.043-2.242-1.048-2.158-2.48c0.074-1.305,1.102-2.196,2.424-2.102C165.162,126.814,166.029,127.805,165.971,129.146z"/>
<path opacity="0.6" fill="#B1ADA0" enable-background="new    " d="M169.908,131.307c-1.311-0.021-2.246-0.988-2.238-2.312
	c0.01-1.319,0.963-2.271,2.279-2.281c1.365-0.009,2.301,0.977,2.273,2.393C172.197,130.438,171.264,131.328,169.908,131.307z"/>
<path opacity="0.6" fill="#B1ADA0" enable-background="new    " d="M182.52,131.307c-1.301-0.002-2.297-0.972-2.317-2.25
	c-0.022-1.32,1.045-2.377,2.366-2.345c1.306,0.034,2.25,1.021,2.24,2.341C184.799,130.376,183.85,131.311,182.52,131.307z"/>
<path opacity="0.6" fill="#B1ADA0" enable-background="new    " d="M75.846,78.814c-1.307,0.022-2.327-0.917-2.38-2.189
	c-0.056-1.323,0.981-2.407,2.306-2.407c1.305,0,2.281,0.968,2.301,2.279C78.093,77.829,77.168,78.792,75.846,78.814z"/>
<path opacity="0.6" fill="#B1ADA0" enable-background="new    " d="M56.956,138.807c-1.346,0.002-2.262-0.904-2.272-2.246
	c-0.01-1.361,0.882-2.318,2.191-2.351c1.366-0.033,2.371,0.956,2.36,2.325C59.226,137.855,58.274,138.803,56.956,138.807z"/>
<path opacity="0.6" fill="#B1ADA0" enable-background="new    " d="M65.488,136.475c0.021,1.364-0.855,2.299-2.188,2.332
	c-1.378,0.033-2.372-0.938-2.365-2.311c0.006-1.321,0.956-2.273,2.275-2.285C64.527,134.2,65.467,135.134,65.488,136.475z"/>
<path opacity="0.6" fill="#B1ADA0" enable-background="new    " d="M75.767,138.807c-1.3-0.011-2.29-0.986-2.302-2.27
	c-0.013-1.326,1.056-2.366,2.385-2.322c1.307,0.043,2.241,1.033,2.222,2.354C78.052,137.896,77.105,138.816,75.767,138.807z"/>
<path opacity="0.6" fill="#B1ADA0" enable-background="new    " d="M169.9,146.305c-1.31-0.023-2.24-0.994-2.23-2.32
	c0.012-1.315,0.973-2.271,2.287-2.272c1.363-0.005,2.297,0.983,2.266,2.397C172.193,145.441,171.256,146.329,169.9,146.305z"/>
<path opacity="0.6" fill="#B1ADA0" enable-background="new    " d="M165.971,144.012c0,1.322-0.941,2.28-2.256,2.293
	c-1.35,0.014-2.277-0.884-2.295-2.224c-0.02-1.411,0.928-2.394,2.291-2.37C165.033,141.729,165.971,142.686,165.971,144.012z"/>
<path opacity="0.6" fill="#B1ADA0" enable-background="new    " d="M56.905,71.315c-1.339-0.019-2.23-0.941-2.222-2.298
	c0.008-1.348,0.93-2.292,2.242-2.297c1.366-0.006,2.343,1,2.309,2.375C59.203,70.407,58.231,71.333,56.905,71.315z"/>
<path opacity="0.6" fill="#B1ADA0" enable-background="new    " d="M63.263,71.315c-1.326,0.017-2.295-0.909-2.327-2.223
	c-0.033-1.375,0.949-2.384,2.312-2.373c1.316,0.01,2.232,0.951,2.24,2.301C65.495,70.377,64.602,71.297,63.263,71.315z"/>
<path opacity="0.6" fill="#B1ADA0" enable-background="new    " d="M75.742,71.315c-1.296-0.02-2.278-1.009-2.277-2.293
	c0.001-1.275,1.01-2.291,2.285-2.301c1.354-0.011,2.354,1.017,2.322,2.382C78.04,70.43,77.086,71.335,75.742,71.315z"/>
<path opacity="0.6" fill="#B1ADA0" enable-background="new    " d="M75.839,146.305c-1.306,0.021-2.324-0.922-2.374-2.195
	c-0.053-1.322,0.987-2.401,2.312-2.397c1.304,0.002,2.277,0.972,2.295,2.284C78.09,145.324,77.162,146.285,75.839,146.305z"/>
<path opacity="0.6" fill="#B1ADA0" enable-background="new    " d="M60.938,143.865c0.062-1.293,1.09-2.215,2.401-2.152
	c1.359,0.062,2.226,1.077,2.146,2.516c-0.072,1.295-1.079,2.151-2.44,2.076C61.772,146.232,60.874,145.193,60.938,143.865z"/>
<path opacity="0.6" fill="#B1ADA0" enable-background="new    " d="M59.235,144.055c-0.019,1.314-0.979,2.256-2.299,2.25
	c-1.342-0.005-2.25-0.918-2.252-2.268c-0.003-1.403,0.973-2.374,2.336-2.326C58.337,141.757,59.254,142.727,59.235,144.055z"/>
<path opacity="0.6" fill="#B1ADA0" enable-background="new    " d="M182.518,138.807c-1.301-0.005-2.297-0.975-2.315-2.252
	c-0.021-1.322,1.047-2.378,2.368-2.342c1.308,0.033,2.248,1.021,2.238,2.342C184.797,137.879,183.848,138.811,182.518,138.807z"/>
<path opacity="0.6" fill="#B1ADA0" enable-background="new    " d="M172.223,136.657c-0.047,1.315-1.014,2.192-2.371,2.149
	c-1.293-0.045-2.213-1.043-2.182-2.369c0.033-1.309,1.02-2.25,2.336-2.228C171.367,134.232,172.271,135.232,172.223,136.657z"/>
<path opacity="0.6" fill="#B1ADA0" enable-background="new    " d="M163.646,138.807c-1.34-0.017-2.232-0.938-2.228-2.291
	c0.006-1.352,0.92-2.293,2.235-2.305c1.363-0.013,2.347,0.993,2.314,2.369C165.941,137.895,164.973,138.822,163.646,138.807z"/>
<path opacity="0.6" fill="#B1ADA0" enable-background="new    " d="M59.235,76.57c-0.021,1.316-0.982,2.252-2.305,2.245
	c-1.388-0.009-2.293-0.976-2.246-2.399c0.044-1.321,1.028-2.245,2.341-2.197C58.342,74.269,59.257,75.241,59.235,76.57z"/>
<path opacity="0.6" fill="#B1ADA0" enable-background="new    " d="M65.488,76.501c0.014,1.361-0.87,2.287-2.207,2.313
	c-1.324,0.024-2.306-0.899-2.345-2.205c-0.041-1.379,0.931-2.392,2.294-2.391C64.548,74.22,65.474,75.156,65.488,76.501z"/>
<path opacity="0.6" fill="#B1ADA0" enable-background="new    " d="M172.223,99.082c-0.016,1.341-0.938,2.239-2.291,2.229
	c-1.315-0.011-2.26-0.965-2.262-2.289c0-1.364,1.021-2.356,2.381-2.307C171.367,96.761,172.24,97.715,172.223,99.082z"/>
<path opacity="0.6" fill="#B1ADA0" enable-background="new    " d="M182.531,101.311c-1.299,0.001-2.303-0.963-2.33-2.239
	c-0.029-1.318,1.037-2.385,2.355-2.357c1.305,0.027,2.256,1.013,2.252,2.329C184.805,100.37,183.859,101.309,182.531,101.311z"/>
<path opacity="0.6" fill="#B1ADA0" enable-background="new    " d="M165.971,99.016c0.002,1.324-0.941,2.281-2.254,2.295
	c-1.352,0.013-2.279-0.883-2.297-2.223c-0.02-1.413,0.926-2.392,2.291-2.372C165.033,96.735,165.971,97.689,165.971,99.016z"/>
<path opacity="0.6" fill="#B1ADA0" enable-background="new    " d="M73.465,98.981c0.02-1.271,1.047-2.274,2.322-2.266
	c1.349,0.009,2.337,1.054,2.285,2.42c-0.05,1.315-1.024,2.211-2.367,2.176C74.421,101.277,73.445,100.262,73.465,98.981z"/>
<path opacity="0.6" fill="#B1ADA0" enable-background="new    " d="M56.911,108.809c-1.339-0.016-2.234-0.935-2.228-2.291
	c0.006-1.351,0.924-2.296,2.236-2.305c1.367-0.008,2.347,0.995,2.315,2.371C59.206,107.899,58.237,108.825,56.911,108.809z"/>
<path opacity="0.6" fill="#B1ADA0" enable-background="new    " d="M63.191,108.809c-1.314-0.012-2.256-0.969-2.255-2.293
	c0-1.327,0.938-2.28,2.259-2.3c1.365-0.021,2.312,0.959,2.292,2.371C65.469,107.926,64.542,108.823,63.191,108.809z"/>
<path opacity="0.6" fill="#B1ADA0" enable-background="new    " d="M75.77,108.809c-1.299-0.008-2.291-0.982-2.305-2.265
	c-0.015-1.325,1.053-2.369,2.381-2.327c1.307,0.042,2.244,1.03,2.226,2.352C78.054,107.896,77.107,108.818,75.77,108.809z"/>
<path opacity="0.6" fill="#B1ADA0" enable-background="new    " d="M65.487,99.068c-0.012,1.341-0.936,2.255-2.275,2.25
	c-1.309-0.005-2.268-0.966-2.276-2.28c-0.009-1.367,1.008-2.367,2.363-2.321C64.624,96.763,65.499,97.703,65.487,99.068z"/>
<path opacity="0.6" fill="#B1ADA0" enable-background="new    " d="M56.958,101.311c-1.346,0.003-2.264-0.902-2.275-2.245
	c-0.011-1.361,0.879-2.319,2.189-2.351c1.365-0.036,2.373,0.955,2.363,2.323C59.227,100.359,58.277,101.307,56.958,101.311z"/>
<path opacity="0.6" fill="#B1ADA0" enable-background="new    " d="M165.971,106.577c-0.027,1.317-0.99,2.247-2.316,2.232
	c-1.387-0.013-2.286-0.983-2.233-2.409c0.047-1.318,1.037-2.237,2.354-2.185C165.084,104.268,165.998,105.249,165.971,106.577z"/>
<path opacity="0.6" fill="#B1ADA0" enable-background="new    " d="M172.223,106.561c-0.008,1.344-0.924,2.251-2.27,2.249
	c-1.318-0.001-2.271-0.947-2.283-2.267c-0.01-1.368,0.998-2.364,2.359-2.329C171.342,104.249,172.232,105.2,172.223,106.561z"/>
<path opacity="0.6" fill="#B1ADA0" enable-background="new    " d="M182.539,108.809c-1.299,0.005-2.307-0.956-2.338-2.23
	c-0.033-1.317,1.029-2.387,2.348-2.364c1.303,0.023,2.26,1.004,2.26,2.322C184.807,107.862,183.865,108.805,182.539,108.809z"/>
<path opacity="0.6" fill="#B1ADA0" enable-background="new    " d="M182.564,93.812c-1.303,0.015-2.318-0.932-2.363-2.205
	c-0.047-1.322,0.998-2.397,2.32-2.39c1.305,0.008,2.271,0.979,2.287,2.295C184.822,92.837,183.887,93.797,182.564,93.812z"/>
<path opacity="0.6" fill="#B1ADA0" enable-background="new    " d="M165.971,91.521c0,1.323-0.943,2.28-2.258,2.291
	c-1.352,0.011-2.275-0.887-2.293-2.226c-0.018-1.411,0.932-2.391,2.295-2.369C165.035,89.239,165.973,90.195,165.971,91.521z"/>
<path opacity="0.6" fill="#B1ADA0" enable-background="new    " d="M59.235,114.061c-0.02,1.315-0.981,2.256-2.302,2.25
	c-1.389-0.009-2.295-0.973-2.25-2.396c0.042-1.324,1.023-2.248,2.338-2.201C58.338,111.762,59.255,112.733,59.235,114.061z"/>
<path opacity="0.6" fill="#B1ADA0" enable-background="new    " d="M182.588,123.809c-1.357,0.025-2.396-0.979-2.387-2.308
	c0.008-1.274,1.025-2.285,2.299-2.287c1.305-0.004,2.283,0.96,2.309,2.271C184.832,122.818,183.91,123.783,182.588,123.809z"/>
<path opacity="0.6" fill="#B1ADA0" enable-background="new    " d="M172.223,121.553c-0.006,1.346-0.92,2.256-2.264,2.256
	c-1.318,0-2.275-0.945-2.287-2.264c-0.014-1.369,0.988-2.365,2.352-2.333C171.338,119.244,172.23,120.193,172.223,121.553z"/>
<path opacity="0.6" fill="#B1ADA0" enable-background="new    " d="M165.971,121.557c-0.018,1.315-0.979,2.258-2.299,2.252
	c-1.342-0.007-2.25-0.918-2.252-2.268c-0.004-1.402,0.969-2.373,2.334-2.327C165.07,119.256,165.99,120.229,165.971,121.557z"/>
<path opacity="0.6" fill="#B1ADA0" enable-background="new    " d="M165.971,84.062c-0.018,1.315-0.979,2.256-2.299,2.25
	c-1.342-0.006-2.25-0.917-2.252-2.266c-0.004-1.404,0.967-2.373,2.334-2.328C165.068,81.761,165.99,82.734,165.971,84.062z"/>
<path opacity="0.6" fill="#B1ADA0" enable-background="new    " d="M75.753,123.809c-1.299-0.017-2.284-0.998-2.288-2.283
	c-0.004-1.323,1.067-2.356,2.399-2.312c1.293,0.044,2.234,1.054,2.208,2.37C78.046,122.912,77.095,123.824,75.753,123.809z"/>
<path opacity="0.6" fill="#B1ADA0" enable-background="new    " d="M60.938,121.369c0.062-1.293,1.09-2.215,2.401-2.153
	c1.359,0.062,2.226,1.077,2.146,2.515c-0.072,1.297-1.079,2.153-2.44,2.078C61.772,123.736,60.874,122.695,60.938,121.369z"/>
<path opacity="0.6" fill="#B1ADA0" enable-background="new    " d="M59.236,121.477c0.016,1.328-0.912,2.303-2.218,2.332
	c-1.358,0.028-2.302-0.854-2.334-2.186c-0.034-1.416,0.898-2.412,2.254-2.411C58.254,119.213,59.219,120.164,59.236,121.477z"/>
<path opacity="0.6" fill="#B1ADA0" enable-background="new    " d="M182.531,116.311c-1.299,0-2.303-0.965-2.33-2.24
	c-0.029-1.318,1.037-2.383,2.355-2.355c1.305,0.026,2.256,1.012,2.252,2.329C184.805,115.368,183.859,116.309,182.531,116.311z"/>
<path opacity="0.6" fill="#B1ADA0" enable-background="new    " d="M172.223,114.018c0.006,1.354-0.889,2.275-2.227,2.293
	c-1.326,0.017-2.295-0.912-2.324-2.227c-0.031-1.376,0.953-2.382,2.314-2.37C171.303,111.726,172.217,112.667,172.223,114.018z"/>
<path opacity="0.6" fill="#B1ADA0" enable-background="new    " d="M165.971,114.059c-0.018,1.315-0.979,2.256-2.299,2.252
	c-1.342-0.006-2.25-0.92-2.252-2.268c-0.004-1.404,0.969-2.373,2.334-2.329C165.07,111.758,165.99,112.731,165.971,114.059z"/>
<path opacity="0.6" fill="#B1ADA0" enable-background="new    " d="M59.235,91.56c-0.019,1.315-0.979,2.257-2.298,2.252
	c-1.342-0.005-2.25-0.918-2.253-2.266c-0.003-1.403,0.972-2.375,2.335-2.329C58.336,89.263,59.253,90.233,59.235,91.56z"/>
<path opacity="0.6" fill="#B1ADA0" enable-background="new    " d="M65.488,91.49c0.017,1.359-0.87,2.301-2.196,2.331
	c-1.367,0.03-2.367-0.958-2.356-2.327c0.01-1.319,0.973-2.278,2.284-2.275C64.549,89.221,65.47,90.145,65.488,91.49z"/>
<path opacity="0.6" fill="#B1ADA0" enable-background="new    " d="M75.758,93.812c-1.3-0.013-2.286-0.993-2.293-2.276
	c-0.008-1.279,0.99-2.299,2.268-2.319c1.356-0.02,2.363,1,2.339,2.366C78.048,92.911,77.099,93.825,75.758,93.812z"/>
<path opacity="0.6" fill="#B1ADA0" enable-background="new    " d="M75.758,116.311c-1.3-0.016-2.286-0.994-2.293-2.276
	c-0.007-1.28,0.991-2.299,2.269-2.318c1.355-0.021,2.362,0.999,2.338,2.365C78.048,115.408,77.098,116.32,75.758,116.311z"/>
<path opacity="0.6" fill="#B1ADA0" enable-background="new    " d="M65.487,114.037c0,1.35-0.904,2.264-2.247,2.271
	c-1.323,0.008-2.283-0.929-2.304-2.244c-0.022-1.375,0.97-2.375,2.334-2.352C64.586,111.736,65.488,112.68,65.487,114.037z"/>
<path opacity="0.6" fill="#B1ADA0" enable-background="new    " d="M172.223,173.979c0.019,1.364-0.861,2.295-2.195,2.322
	c-1.379,0.029-2.366-0.943-2.356-2.318c0.013-1.316,0.972-2.271,2.285-2.276C171.273,171.701,172.207,172.637,172.223,173.979z"/>
<path opacity="0.6" fill="#B1ADA0" enable-background="new    " d="M172.223,159c0.01,1.359-0.879,2.283-2.217,2.303
	c-1.324,0.021-2.299-0.904-2.334-2.215c-0.037-1.377,0.939-2.387,2.303-2.381C171.291,156.714,172.215,157.654,172.223,159z"/>
<path opacity="0.6" fill="#B1ADA0" enable-background="new    " d="M165.971,159.006c0.002,1.324-0.938,2.283-2.254,2.297
	c-1.35,0.014-2.277-0.883-2.297-2.221c-0.021-1.413,0.924-2.393,2.289-2.374C165.031,156.729,165.969,157.682,165.971,159.006z"/>
<path opacity="0.6" fill="#B1ADA0" enable-background="new    " d="M57.005,63.815c-1.356,0.024-2.294-0.864-2.322-2.197
	c-0.029-1.414,0.909-2.406,2.267-2.397c1.319,0.008,2.274,0.959,2.285,2.275C59.247,62.823,58.314,63.793,57.005,63.815z"/>
<path opacity="0.6" fill="#B1ADA0" enable-background="new    " d="M65.487,61.589c-0.017,1.34-0.942,2.238-2.292,2.226
	c-1.315-0.011-2.258-0.966-2.259-2.29c-0.001-1.363,1.022-2.354,2.38-2.306C64.629,59.267,65.505,60.223,65.487,61.589z"/>
<path opacity="0.6" fill="#B1ADA0" enable-background="new    " d="M75.753,63.815c-1.299-0.015-2.284-0.997-2.288-2.281
	c-0.004-1.278,0.997-2.296,2.274-2.312c1.355-0.017,2.36,1.004,2.333,2.371C78.045,62.92,77.095,63.832,75.753,63.815z"/>
<path opacity="0.6" fill="#B1ADA0" enable-background="new    " d="M172.223,151.494c0.012,1.361-0.871,2.285-2.209,2.311
	c-1.324,0.021-2.305-0.9-2.342-2.207c-0.039-1.38,0.934-2.392,2.297-2.389C171.285,149.211,172.211,150.15,172.223,151.494z"/>
<path opacity="0.6" fill="#B1ADA0" enable-background="new    " d="M165.971,151.514c-0.002,1.323-0.943,2.279-2.26,2.291
	c-1.35,0.01-2.273-0.888-2.291-2.227c-0.018-1.411,0.934-2.393,2.295-2.369C165.037,149.23,165.973,150.188,165.971,151.514z"/>
<path opacity="0.6" fill="#B1ADA0" enable-background="new    " d="M172.223,166.484c0.017,1.363-0.865,2.291-2.201,2.316
	c-1.377,0.027-2.362-0.947-2.352-2.322c0.014-1.315,0.977-2.271,2.291-2.271C171.279,164.205,172.209,165.141,172.223,166.484z"/>
<path opacity="0.6" fill="#B1ADA0" enable-background="new    " d="M165.971,166.475c0.016,1.328-0.914,2.301-2.221,2.327
	c-1.359,0.027-2.301-0.856-2.33-2.188c-0.033-1.414,0.896-2.405,2.258-2.405C164.992,164.206,165.957,165.161,165.971,166.475z"/>
</svg>
