<?xml version="1.0" encoding="utf-8"?>
<!-- Generator: Adobe Illustrator 16.0.0, SVG Export Plug-In . SVG Version: 6.00 Build 0)  -->
<!DOCTYPE svg PUBLIC "-//W3C//DTD SVG 1.1//EN" "http://www.w3.org/Graphics/SVG/1.1/DTD/svg11.dtd">
<svg version="1.1" id="Layer_1" xmlns="http://www.w3.org/2000/svg" xmlns:xlink="http://www.w3.org/1999/xlink" x="0px" y="0px"
	 width="226px" height="226px" viewBox="0 0 226 226" enable-background="new 0 0 226 226" xml:space="preserve">
<circle opacity="0.3" fill-rule="evenodd" clip-rule="evenodd" fill="#7DC142" cx="182.312" cy="114.229" r="12.938"/>
<path opacity="0.6" fill-rule="evenodd" clip-rule="evenodd" fill="#B1ADA0" d="M138.445,138.807
	c-1.308,0.004-2.306-0.958-2.335-2.249c-0.029-1.288,1.078-2.371,2.395-2.341c1.262,0.027,2.307,1.097,2.282,2.335
	C140.761,137.839,139.759,138.802,138.445,138.807z"/>
<path opacity="0.6" fill-rule="evenodd" clip-rule="evenodd" fill="#B1ADA0" d="M138.438,71.315
	c-1.306,0.001-2.303-0.965-2.327-2.255c-0.023-1.244,1.01-2.304,2.277-2.334c1.314-0.032,2.43,1.057,2.399,2.341
	C140.755,70.356,139.753,71.314,138.438,71.315z"/>
<path opacity="0.6" fill-rule="evenodd" clip-rule="evenodd" fill="#B1ADA0" d="M31.687,146.305
	c-1.305-0.005-2.298-0.981-2.312-2.271c-0.014-1.243,1.026-2.296,2.293-2.318c1.311-0.024,2.425,1.077,2.383,2.358
	C34.008,145.364,33.005,146.311,31.687,146.305z"/>
<path opacity="0.6" fill-rule="evenodd" clip-rule="evenodd" fill="#B1ADA0" d="M88.281,146.305c-1.371,0.025-2.423-0.98-2.413-2.31
	c0.01-1.239,1.078-2.284,2.337-2.284c1.262-0.001,2.327,1.034,2.341,2.274C90.562,145.272,89.578,146.28,88.281,146.305z"/>
<path opacity="0.6" fill-rule="evenodd" clip-rule="evenodd" fill="#B1ADA0" d="M88.205,71.315
	c-1.313-0.006-2.313-0.975-2.336-2.261c-0.021-1.287,1.097-2.366,2.413-2.327c1.264,0.038,2.296,1.106,2.264,2.346
	C90.512,70.365,89.515,71.321,88.205,71.315z"/>
<path opacity="0.6" fill-rule="evenodd" clip-rule="evenodd" fill="#B1ADA0" d="M138.483,146.305
	c-1.313,0.02-2.318-0.916-2.372-2.208c-0.055-1.282,1.043-2.394,2.354-2.386c1.258,0.009,2.321,1.062,2.321,2.3
	C140.787,145.291,139.789,146.285,138.483,146.305z"/>
<path opacity="0.6" fill-rule="evenodd" clip-rule="evenodd" fill="#B1ADA0" d="M31.757,86.312c-1.315,0.024-2.323-0.907-2.382-2.2
	c-0.059-1.281,1.036-2.398,2.346-2.394c1.258,0.004,2.324,1.052,2.331,2.291C34.057,85.289,33.061,86.29,31.757,86.312z"/>
<path opacity="0.6" fill-rule="evenodd" clip-rule="evenodd" fill="#B1ADA0" d="M31.66,131.307
	c-1.299-0.016-2.288-1.009-2.286-2.298c0.002-1.242,1.056-2.284,2.32-2.295c1.26-0.01,2.333,1.021,2.358,2.264
	C34.077,130.301,33.028,131.324,31.66,131.307z"/>
<path opacity="0.6" fill-rule="evenodd" clip-rule="evenodd" fill="#B1ADA0" d="M88.219,131.307c-1.315,0-2.317-0.957-2.35-2.245
	c-0.032-1.286,1.084-2.375,2.398-2.343c1.268,0.029,2.301,1.089,2.279,2.332C90.522,130.341,89.525,131.307,88.219,131.307z"/>
<path opacity="0.6" fill-rule="evenodd" clip-rule="evenodd" fill="#B1ADA0" d="M138.38,131.307
	c-1.298-0.022-2.282-1.025-2.27-2.312c0.011-1.241,1.073-2.28,2.335-2.282c1.256-0.002,2.327,1.042,2.342,2.28
	C140.802,130.318,139.751,131.33,138.38,131.307z"/>
<path opacity="0.6" fill-rule="evenodd" clip-rule="evenodd" fill="#B1ADA0" d="M138.436,78.814
	c-1.307-0.001-2.303-0.967-2.325-2.259c-0.022-1.243,1.012-2.301,2.279-2.331c1.314-0.031,2.429,1.06,2.397,2.344
	C140.753,77.857,139.751,78.814,138.436,78.814z"/>
<path opacity="0.6" fill-rule="evenodd" clip-rule="evenodd" fill="#B1ADA0" d="M88.209,78.814c-1.313-0.005-2.314-0.969-2.34-2.257
	c-0.025-1.285,1.093-2.369,2.408-2.333c1.265,0.036,2.297,1.102,2.269,2.343C90.515,77.859,89.518,78.818,88.209,78.814z"/>
<path opacity="0.6" fill-rule="evenodd" clip-rule="evenodd" fill="#B1ADA0" d="M31.74,138.807
	c-1.314,0.016-2.317-0.926-2.365-2.219c-0.048-1.284,1.051-2.388,2.363-2.374c1.26,0.013,2.318,1.068,2.313,2.308
	C34.045,137.803,33.047,138.79,31.74,138.807z"/>
<path opacity="0.6" fill-rule="evenodd" clip-rule="evenodd" fill="#B1ADA0" d="M88.249,138.807
	c-1.32,0.012-2.327-0.926-2.378-2.218c-0.053-1.277,1.057-2.391,2.367-2.374c1.265,0.015,2.312,1.062,2.309,2.305
	C90.542,137.808,89.552,138.794,88.249,138.807z"/>
<path opacity="0.6" fill-rule="evenodd" clip-rule="evenodd" fill="#B1ADA0" d="M31.737,78.814
	c-1.313,0.014-2.316-0.928-2.362-2.221c-0.046-1.284,1.054-2.387,2.366-2.372c1.26,0.014,2.317,1.071,2.311,2.31
	C34.043,77.813,33.045,78.798,31.737,78.814z"/>
<path opacity="0.6" fill-rule="evenodd" clip-rule="evenodd" fill="#B1ADA0" d="M88.195,161.303
	c-1.312-0.01-2.311-0.986-2.326-2.271c-0.015-1.238,1.037-2.299,2.298-2.32c1.313-0.021,2.418,1.074,2.379,2.359
	C90.506,160.363,89.505,161.312,88.195,161.303z"/>
<path opacity="0.6" fill-rule="evenodd" clip-rule="evenodd" fill="#B1ADA0" d="M138.469,161.303
	c-1.312,0.014-2.313-0.932-2.357-2.225c-0.044-1.283,1.057-2.384,2.37-2.367c1.261,0.017,2.315,1.074,2.306,2.313
	C140.776,160.308,139.777,161.289,138.469,161.303z"/>
<path opacity="0.6" fill-rule="evenodd" clip-rule="evenodd" fill="#B1ADA0" d="M31.688,71.315
	c-1.305-0.005-2.298-0.979-2.314-2.269c-0.015-1.244,1.024-2.297,2.291-2.321c1.311-0.025,2.426,1.076,2.385,2.356
	C34.009,70.371,33.006,71.32,31.688,71.315z"/>
<path opacity="0.6" fill-rule="evenodd" clip-rule="evenodd" fill="#B1ADA0" d="M88.232,153.804
	c-1.317,0.005-2.321-0.942-2.363-2.234c-0.041-1.279,1.074-2.381,2.385-2.356c1.266,0.025,2.306,1.077,2.292,2.321
	C90.53,152.824,89.537,153.799,88.232,153.804z"/>
<path opacity="0.6" fill-rule="evenodd" clip-rule="evenodd" fill="#B1ADA0" d="M138.47,153.804
	c-1.313,0.014-2.314-0.931-2.358-2.224c-0.044-1.284,1.057-2.385,2.368-2.368c1.262,0.016,2.316,1.074,2.308,2.312
	C140.776,152.808,139.778,153.791,138.47,153.804z"/>
<path opacity="0.6" fill-rule="evenodd" clip-rule="evenodd" fill="#B1ADA0" d="M88.217,63.815c-1.315,0-2.317-0.959-2.348-2.248
	c-0.031-1.285,1.085-2.374,2.4-2.341c1.267,0.031,2.301,1.091,2.277,2.334C90.52,62.852,89.524,63.816,88.217,63.815z"/>
<path opacity="0.6" fill-rule="evenodd" clip-rule="evenodd" fill="#B1ADA0" d="M31.685,63.815c-1.304-0.006-2.298-0.983-2.31-2.272
	c-0.013-1.244,1.028-2.295,2.295-2.318c1.311-0.023,2.424,1.081,2.381,2.361C34.007,62.876,33.003,63.823,31.685,63.815z"/>
<path opacity="0.6" fill-rule="evenodd" clip-rule="evenodd" fill="#B1ADA0" d="M194.941,86.312
	c-1.313-0.006-2.315-0.974-2.336-2.261c-0.022-1.287,1.097-2.365,2.412-2.327c1.264,0.038,2.296,1.106,2.264,2.346
	C197.248,85.363,196.251,86.319,194.941,86.312z"/>
<path opacity="0.6" fill-rule="evenodd" clip-rule="evenodd" fill="#B1ADA0" d="M88.268,108.809c-1.369,0.02-2.419-0.995-2.4-2.322
	c0.021-1.24,1.092-2.278,2.35-2.271c1.262,0.005,2.322,1.046,2.328,2.288C90.553,107.793,89.566,108.792,88.268,108.809z"/>
<path opacity="0.6" fill-rule="evenodd" clip-rule="evenodd" fill="#B1ADA0" d="M31.743,123.808
	c-1.314,0.019-2.318-0.921-2.368-2.214c-0.05-1.283,1.048-2.39,2.36-2.379c1.259,0.012,2.319,1.066,2.316,2.305
	C34.048,122.801,33.05,123.789,31.743,123.808z"/>
<path opacity="0.6" fill-rule="evenodd" clip-rule="evenodd" fill="#B1ADA0" d="M31.689,101.311
	c-1.305-0.005-2.298-0.979-2.314-2.269c-0.016-1.244,1.023-2.297,2.291-2.322c1.312-0.025,2.426,1.075,2.385,2.356
	C34.01,100.367,33.007,101.315,31.689,101.311z"/>
<path opacity="0.6" fill-rule="evenodd" clip-rule="evenodd" fill="#B1ADA0" d="M31.689,93.812
	c-1.305-0.005-2.298-0.979-2.315-2.268c-0.016-1.243,1.023-2.297,2.29-2.323c1.312-0.026,2.426,1.074,2.386,2.355
	C34.01,92.867,33.008,93.817,31.689,93.812z"/>
<path opacity="0.6" fill-rule="evenodd" clip-rule="evenodd" fill="#B1ADA0" d="M194.868,116.309
	c-1.294-0.035-2.29-1.061-2.264-2.332c0.026-1.243,1.1-2.271,2.36-2.261c1.264,0.012,2.316,1.056,2.317,2.298
	C197.282,115.35,196.234,116.346,194.868,116.309z"/>
<path opacity="0.6" fill-rule="evenodd" clip-rule="evenodd" fill="#B1ADA0" d="M138.424,108.809
	c-1.305-0.004-2.299-0.979-2.313-2.269c-0.016-1.244,1.024-2.297,2.292-2.321c1.31-0.026,2.424,1.075,2.385,2.357
	C140.745,107.867,139.742,108.815,138.424,108.809z"/>
<path opacity="0.6" fill-rule="evenodd" clip-rule="evenodd" fill="#B1ADA0" d="M138.372,116.31
	c-1.296-0.026-2.279-1.034-2.262-2.321c0.015-1.241,1.081-2.276,2.342-2.275c1.257,0.002,2.326,1.049,2.335,2.288
	C140.797,115.33,139.743,116.336,138.372,116.31z"/>
<path opacity="0.6" fill-rule="evenodd" clip-rule="evenodd" fill="#B1ADA0" d="M194.896,108.809
	c-1.303-0.024-2.299-1.026-2.291-2.305c0.008-1.239,1.075-2.287,2.333-2.289c1.312-0.002,2.404,1.115,2.344,2.396
	C197.22,107.906,196.211,108.833,194.896,108.809z"/>
<path opacity="0.6" fill-rule="evenodd" clip-rule="evenodd" fill="#B1ADA0" d="M88.183,93.812c-1.307-0.015-2.307-1-2.314-2.282
	c-0.007-1.24,1.049-2.296,2.31-2.311c1.312-0.014,2.413,1.087,2.367,2.373C90.499,92.883,89.496,93.827,88.183,93.812z"/>
<path opacity="0.6" fill-rule="evenodd" clip-rule="evenodd" fill="#B1ADA0" d="M195.018,93.812
	c-1.372,0.026-2.423-0.98-2.413-2.309c0.01-1.24,1.077-2.285,2.337-2.286s2.326,1.036,2.341,2.276
	C197.297,92.779,196.313,93.787,195.018,93.812z"/>
<path opacity="0.6" fill-rule="evenodd" clip-rule="evenodd" fill="#B1ADA0" d="M88.23,116.31c-1.318,0.004-2.32-0.946-2.361-2.235
	c-0.039-1.283,1.075-2.381,2.388-2.356c1.265,0.026,2.305,1.08,2.289,2.323C90.529,115.331,89.535,116.305,88.23,116.31z"/>
<path opacity="0.6" fill-rule="evenodd" clip-rule="evenodd" fill="#B1ADA0" d="M31.746,116.31
	c-1.314,0.019-2.319-0.919-2.371-2.212c-0.052-1.282,1.046-2.392,2.357-2.382c1.259,0.01,2.32,1.063,2.319,2.301
	C34.049,115.299,33.052,116.291,31.746,116.31z"/>
<path opacity="0.6" fill-rule="evenodd" clip-rule="evenodd" fill="#B1ADA0" d="M138.416,93.812
	c-1.304-0.009-2.296-0.989-2.306-2.278c-0.01-1.244,1.034-2.293,2.3-2.313c1.31-0.021,2.423,1.086,2.377,2.366
	C140.738,92.877,139.735,93.821,138.416,93.812z"/>
<path opacity="0.6" fill-rule="evenodd" clip-rule="evenodd" fill="#B1ADA0" d="M88.233,86.312
	c-1.318,0.006-2.321-0.941-2.364-2.231c-0.042-1.281,1.073-2.383,2.384-2.358c1.266,0.023,2.307,1.074,2.292,2.319
	C90.532,85.331,89.539,86.307,88.233,86.312z"/>
<path opacity="0.6" fill-rule="evenodd" clip-rule="evenodd" fill="#B1ADA0" d="M31.759,108.809
	c-1.316,0.024-2.324-0.905-2.384-2.198c-0.06-1.281,1.033-2.398,2.344-2.396c1.258,0.003,2.325,1.05,2.332,2.289
	C34.058,107.784,33.062,108.786,31.759,108.809z"/>
<path opacity="0.6" fill-rule="evenodd" clip-rule="evenodd" fill="#B1ADA0" d="M138.474,86.312
	c-1.313,0.016-2.315-0.925-2.362-2.219c-0.048-1.283,1.051-2.387,2.364-2.373c1.26,0.013,2.317,1.069,2.312,2.308
	C140.78,85.311,139.782,86.297,138.474,86.312z"/>
<path opacity="0.6" fill-rule="evenodd" clip-rule="evenodd" fill="#B1ADA0" d="M88.232,101.311
	c-1.317,0.005-2.321-0.943-2.363-2.234c-0.041-1.28,1.074-2.382,2.385-2.357c1.266,0.025,2.306,1.077,2.292,2.321
	C90.53,100.332,89.537,101.305,88.232,101.311z"/>
<path opacity="0.6" fill-rule="evenodd" clip-rule="evenodd" fill="#B1ADA0" d="M194.935,101.311
	c-1.312-0.009-2.312-0.982-2.329-2.267c-0.018-1.288,1.103-2.363,2.418-2.321c1.263,0.04,2.293,1.113,2.258,2.352
	C197.244,100.368,196.244,101.319,194.935,101.311z"/>
<path opacity="0.6" fill-rule="evenodd" clip-rule="evenodd" fill="#B1ADA0" d="M138.496,101.311
	c-1.316,0.024-2.325-0.905-2.385-2.199c-0.061-1.28,1.033-2.399,2.344-2.396c1.256,0.003,2.324,1.051,2.332,2.29
	C140.795,100.286,139.798,101.287,138.496,101.311z"/>
<path opacity="0.6" fill-rule="evenodd" clip-rule="evenodd" fill="#B1ADA0" d="M138.406,123.808
	c-1.302-0.012-2.292-0.999-2.296-2.286c-0.004-1.244,1.043-2.289,2.309-2.306c1.311-0.016,2.42,1.098,2.368,2.376
	C140.732,122.883,139.728,123.82,138.406,123.808z"/>
<path opacity="0.6" fill-rule="evenodd" clip-rule="evenodd" fill="#B1ADA0" d="M88.181,123.822
	c-1.292-0.017-2.305-1.023-2.312-2.297c-0.007-1.24,1.051-2.297,2.311-2.31c1.312-0.014,2.412,1.09,2.366,2.373
	C90.498,122.872,89.477,123.838,88.181,123.822z"/>
<path opacity="0.6" fill-rule="evenodd" clip-rule="evenodd" fill="#B1ADA0" d="M188.717,108.809
	c-1.318,0.018-2.315-0.913-2.364-2.207c-0.05-1.295,1.038-2.409,2.338-2.391c1.253,0.016,2.327,1.078,2.337,2.307
	C191.037,107.766,190.001,108.793,188.717,108.809z"/>
<path opacity="0.6" fill-rule="evenodd" clip-rule="evenodd" fill="#B1ADA0" d="M81.973,63.815
	c-1.308,0.014-2.321-0.935-2.369-2.215c-0.049-1.278,1.066-2.404,2.359-2.382c1.253,0.021,2.325,1.086,2.329,2.315
	C84.295,62.783,83.258,63.803,81.973,63.815z"/>
<path opacity="0.6" fill-rule="evenodd" clip-rule="evenodd" fill="#B1ADA0" d="M144.661,153.804
	c-1.282-0.021-2.317-1.061-2.297-2.306c0.02-1.231,1.098-2.285,2.351-2.294c1.25-0.009,2.313,1.034,2.324,2.281
	C147.052,152.831,146.03,153.826,144.661,153.804z"/>
<path opacity="0.6" fill-rule="evenodd" clip-rule="evenodd" fill="#B1ADA0" d="M144.701,101.311
	c-1.29-0.006-2.327-1.012-2.336-2.265c-0.01-1.277,1.131-2.37,2.434-2.333c1.253,0.037,2.274,1.114,2.24,2.364
	C147.004,100.372,146.014,101.317,144.701,101.311z"/>
<path opacity="0.6" fill-rule="evenodd" clip-rule="evenodd" fill="#B1ADA0" d="M188.614,93.812c-1.301-0.024-2.27-1.014-2.263-2.31
	c0.008-1.249,1.065-2.294,2.316-2.289c1.301,0.004,2.422,1.151,2.358,2.411C190.962,92.886,189.916,93.835,188.614,93.812z"/>
<path opacity="0.6" fill-rule="evenodd" clip-rule="evenodd" fill="#B1ADA0" d="M132.193,153.804
	c-1.306,0.013-2.315-0.938-2.359-2.222c-0.044-1.298,1.042-2.393,2.359-2.377c1.247,0.014,2.309,1.075,2.314,2.318
	C134.514,152.789,133.496,153.792,132.193,153.804z"/>
<path opacity="0.6" fill-rule="evenodd" clip-rule="evenodd" fill="#B1ADA0" d="M25.433,116.31
	c-1.301,0.002-2.301-0.962-2.335-2.247c-0.034-1.295,1.064-2.378,2.382-2.351c1.252,0.027,2.3,1.097,2.291,2.34
	C27.761,115.323,26.742,116.306,25.433,116.31z"/>
<path opacity="0.6" fill-rule="evenodd" clip-rule="evenodd" fill="#B1ADA0" d="M144.719,93.812
	c-1.293,0.001-2.332-0.991-2.354-2.248c-0.022-1.273,1.113-2.377,2.416-2.349c1.257,0.026,2.282,1.091,2.258,2.345
	C147.014,92.855,146.028,93.811,144.719,93.812z"/>
<path opacity="0.6" fill-rule="evenodd" clip-rule="evenodd" fill="#B1ADA0" d="M188.658,101.311
	c-1.307-0.006-2.289-0.971-2.307-2.266c-0.016-1.252,1.017-2.312,2.272-2.332c1.304-0.02,2.436,1.094,2.403,2.365
	C190.994,100.335,189.954,101.317,188.658,101.311z"/>
<path opacity="0.6" fill-rule="evenodd" clip-rule="evenodd" fill="#B1ADA0" d="M37.889,108.809
	c-1.273-0.035-2.306-1.105-2.261-2.34c0.045-1.24,1.135-2.269,2.388-2.257c1.24,0.012,2.315,1.092,2.305,2.317
	C40.312,107.852,39.25,108.847,37.889,108.809z"/>
<path opacity="0.6" fill-rule="evenodd" clip-rule="evenodd" fill="#B1ADA0" d="M81.918,101.311
	c-1.299-0.008-2.301-0.987-2.317-2.269c-0.016-1.231,1.045-2.311,2.289-2.329c1.304-0.02,2.435,1.096,2.4,2.367
	C84.257,100.34,83.216,101.319,81.918,101.311z"/>
<path opacity="0.6" fill-rule="evenodd" clip-rule="evenodd" fill="#B1ADA0" d="M81.95,108.809
	c-1.305,0.005-2.312-0.953-2.348-2.236c-0.035-1.228,1.015-2.326,2.256-2.359c1.303-0.037,2.445,1.057,2.433,2.334
	C84.28,107.802,83.242,108.805,81.95,108.809z"/>
<path opacity="0.6" fill-rule="evenodd" clip-rule="evenodd" fill="#B1ADA0" d="M132.102,161.303
	c-1.288-0.022-2.276-1.031-2.268-2.312c0.008-1.252,1.054-2.281,2.325-2.286c1.297-0.005,2.4,1.129,2.345,2.409
	C134.447,160.392,133.42,161.327,132.102,161.303z"/>
<path opacity="0.6" fill-rule="evenodd" clip-rule="evenodd" fill="#B1ADA0" d="M25.463,108.809
	c-1.354,0.016-2.387-1.007-2.366-2.34c0.02-1.244,1.087-2.268,2.353-2.258c1.248,0.009,2.312,1.069,2.322,2.312
	C27.783,107.786,26.765,108.795,25.463,108.809z"/>
<path opacity="0.6" fill-rule="evenodd" clip-rule="evenodd" fill="#B1ADA0" d="M37.934,101.311
	c-1.283-0.018-2.319-1.051-2.305-2.298c0.014-1.231,1.091-2.29,2.344-2.302c1.236-0.012,2.334,1.049,2.352,2.273
	C40.341,100.304,39.287,101.33,37.934,101.311z"/>
<path opacity="0.6" fill-rule="evenodd" clip-rule="evenodd" fill="#B1ADA0" d="M81.923,161.303
	c-1.301-0.006-2.303-0.982-2.322-2.264c-0.018-1.23,1.042-2.314,2.285-2.334c1.304-0.021,2.436,1.092,2.405,2.363
	C84.259,160.327,83.219,161.309,81.923,161.303z"/>
<path opacity="0.6" fill-rule="evenodd" clip-rule="evenodd" fill="#B1ADA0" d="M25.37,101.311c-1.291-0.022-2.275-1.023-2.272-2.31
	c0.003-1.249,1.051-2.282,2.322-2.289c1.298-0.007,2.403,1.124,2.35,2.405C27.714,100.396,26.688,101.333,25.37,101.311z"/>
<path opacity="0.6" fill-rule="evenodd" clip-rule="evenodd" fill="#B1ADA0" d="M132.121,108.809
	c-1.295-0.016-2.285-1.007-2.287-2.292c-0.002-1.252,1.033-2.289,2.305-2.305c1.3-0.016,2.409,1.104,2.365,2.389
	C134.462,107.876,133.438,108.825,132.121,108.809z"/>
<path opacity="0.6" fill-rule="evenodd" clip-rule="evenodd" fill="#B1ADA0" d="M132.121,101.311
	c-1.295-0.016-2.285-1.009-2.287-2.295c-0.002-1.252,1.035-2.288,2.306-2.303c1.301-0.016,2.409,1.104,2.364,2.389
	C134.461,100.378,133.437,101.327,132.121,101.311z"/>
<path opacity="0.6" fill-rule="evenodd" clip-rule="evenodd" fill="#B1ADA0" d="M25.433,63.815c-1.301,0.003-2.301-0.96-2.335-2.246
	c-0.034-1.295,1.064-2.379,2.382-2.351c1.252,0.027,2.3,1.098,2.291,2.34C27.761,62.83,26.742,63.813,25.433,63.815z"/>
<path opacity="0.6" fill-rule="evenodd" clip-rule="evenodd" fill="#B1ADA0" d="M37.94,63.815c-1.285-0.016-2.321-1.043-2.311-2.291
	c0.009-1.23,1.084-2.292,2.338-2.308c1.235-0.016,2.337,1.043,2.357,2.267C40.346,62.802,39.292,63.833,37.94,63.815z"/>
<path opacity="0.6" fill-rule="evenodd" clip-rule="evenodd" fill="#B1ADA0" d="M144.72,108.809
	c-1.292,0.002-2.332-0.989-2.354-2.246c-0.023-1.273,1.112-2.378,2.415-2.351c1.257,0.026,2.283,1.092,2.259,2.346
	C147.015,107.852,146.029,108.808,144.72,108.809z"/>
<path opacity="0.6" fill-rule="evenodd" clip-rule="evenodd" fill="#B1ADA0" d="M132.124,138.807
	c-1.296-0.016-2.286-1.006-2.29-2.291c-0.004-1.253,1.031-2.29,2.303-2.308c1.3-0.018,2.409,1.1,2.368,2.386
	C134.464,137.871,133.44,138.82,132.124,138.807z"/>
<path opacity="0.6" fill-rule="evenodd" clip-rule="evenodd" fill="#B1ADA0" d="M25.378,78.814
	c-1.294-0.019-2.278-1.012-2.281-2.302c-0.002-1.249,1.042-2.285,2.313-2.298c1.299-0.012,2.407,1.113,2.358,2.397
	C27.72,77.889,26.695,78.833,25.378,78.814z"/>
<path opacity="0.6" fill-rule="evenodd" clip-rule="evenodd" fill="#B1ADA0" d="M188.681,86.312
	c-1.312,0.002-2.299-0.949-2.329-2.243c-0.028-1.251,0.995-2.323,2.251-2.355c1.304-0.032,2.44,1.068,2.425,2.343
	C191.012,85.312,189.972,86.311,188.681,86.312z"/>
<path opacity="0.6" fill-rule="evenodd" clip-rule="evenodd" fill="#B1ADA0" d="M38.015,78.814
	c-1.298,0.012-2.341-0.956-2.386-2.217c-0.044-1.27,1.082-2.394,2.386-2.383c1.24,0.012,2.315,1.091,2.306,2.317
	C40.313,77.805,39.308,78.8,38.015,78.814z"/>
<path opacity="0.6" fill-rule="evenodd" clip-rule="evenodd" fill="#B1ADA0" d="M38.041,123.82
	c-1.288,0.025-2.349-0.944-2.411-2.203c-0.063-1.26,1.06-2.405,2.361-2.409c1.237-0.002,2.327,1.068,2.332,2.293
	C40.329,122.77,39.321,123.793,38.041,123.82z"/>
<path opacity="0.6" fill-rule="evenodd" clip-rule="evenodd" fill="#B1ADA0" d="M81.966,138.807
	c-1.306,0.011-2.318-0.94-2.364-2.222c-0.045-1.283,1.066-2.4,2.365-2.377c1.254,0.024,2.324,1.092,2.324,2.32
	C84.291,137.778,83.254,138.795,81.966,138.807z"/>
<path opacity="0.6" fill-rule="evenodd" clip-rule="evenodd" fill="#B1ADA0" d="M37.979,138.807
	c-1.292-0.002-2.332-0.998-2.35-2.253c-0.018-1.275,1.119-2.375,2.423-2.346c1.24,0.03,2.299,1.128,2.269,2.352
	C40.289,137.841,39.282,138.807,37.979,138.807z"/>
<path opacity="0.6" fill-rule="evenodd" clip-rule="evenodd" fill="#B1ADA0" d="M81.921,78.814c-1.3-0.008-2.302-0.985-2.32-2.267
	c-0.016-1.231,1.043-2.312,2.287-2.332c1.303-0.021,2.436,1.093,2.402,2.366C84.258,77.84,83.218,78.82,81.921,78.814z"/>
<path opacity="0.6" fill-rule="evenodd" clip-rule="evenodd" fill="#B1ADA0" d="M81.943,123.808
	c-1.304,0.002-2.31-0.962-2.342-2.243c-0.03-1.229,1.023-2.322,2.265-2.354c1.304-0.032,2.441,1.067,2.425,2.343
	C84.274,122.809,83.236,123.806,81.943,123.808z"/>
<path opacity="0.6" fill-rule="evenodd" clip-rule="evenodd" fill="#B1ADA0" d="M25.398,138.807c-1.297-0.012-2.287-0.992-2.3-2.281
	c-0.013-1.249,1.021-2.295,2.292-2.317c1.301-0.023,2.414,1.088,2.379,2.375C27.735,137.858,26.713,138.816,25.398,138.807z"/>
<path opacity="0.6" fill-rule="evenodd" clip-rule="evenodd" fill="#B1ADA0" d="M132.136,78.814
	c-1.296-0.01-2.292-0.996-2.302-2.279c-0.01-1.255,1.018-2.296,2.29-2.319c1.301-0.024,2.415,1.085,2.382,2.373
	C134.472,77.865,133.45,78.824,132.136,78.814z"/>
<path opacity="0.6" fill-rule="evenodd" clip-rule="evenodd" fill="#B1ADA0" d="M144.692,86.312
	c-1.287-0.009-2.324-1.021-2.327-2.272c-0.004-1.278,1.14-2.367,2.442-2.324c1.252,0.041,2.27,1.124,2.231,2.372
	C147,85.381,146.007,86.323,144.692,86.312z"/>
<path opacity="0.6" fill-rule="evenodd" clip-rule="evenodd" fill="#B1ADA0" d="M144.749,78.814
	c-1.298,0.012-2.34-0.958-2.383-2.218c-0.044-1.269,1.081-2.393,2.385-2.382c1.256,0.012,2.297,1.065,2.288,2.317
	C147.031,77.829,146.055,78.8,144.749,78.814z"/>
<path opacity="0.6" fill-rule="evenodd" clip-rule="evenodd" fill="#B1ADA0" d="M132.139,86.312
	c-1.297-0.008-2.293-0.991-2.305-2.276c-0.012-1.252,1.017-2.295,2.287-2.322c1.301-0.025,2.416,1.083,2.385,2.371
	C134.474,85.36,133.452,86.322,132.139,86.312z"/>
<path opacity="0.6" fill-rule="evenodd" clip-rule="evenodd" fill="#B1ADA0" d="M188.656,131.307
	c-1.307-0.007-2.289-0.973-2.305-2.268c-0.015-1.253,1.018-2.311,2.275-2.331c1.303-0.018,2.435,1.096,2.4,2.368
	C190.993,130.334,189.952,131.313,188.656,131.307z"/>
<path opacity="0.6" fill-rule="evenodd" clip-rule="evenodd" fill="#B1ADA0" d="M144.765,131.307
	c-1.301,0.019-2.345-0.94-2.398-2.201c-0.056-1.264,1.069-2.4,2.37-2.397c1.254,0.003,2.303,1.052,2.303,2.302
	C147.039,130.309,146.068,131.288,144.765,131.307z"/>
<path opacity="0.6" fill-rule="evenodd" clip-rule="evenodd" fill="#B1ADA0" d="M132.202,123.808
	c-1.307,0.017-2.32-0.929-2.368-2.213c-0.049-1.298,1.031-2.395,2.349-2.387c1.248,0.009,2.313,1.066,2.325,2.31
	C134.521,122.78,133.503,123.792,132.202,123.808z"/>
<path opacity="0.6" fill-rule="evenodd" clip-rule="evenodd" fill="#B1ADA0" d="M132.18,131.307
	c-1.302,0.007-2.31-0.952-2.346-2.234c-0.036-1.299,1.054-2.385,2.371-2.364c1.25,0.021,2.305,1.088,2.303,2.331
	C134.506,130.307,133.486,131.3,132.18,131.307z"/>
<path opacity="0.6" fill-rule="evenodd" clip-rule="evenodd" fill="#B1ADA0" d="M144.77,123.808c-1.3,0.021-2.346-0.935-2.403-2.196
	c-0.059-1.262,1.064-2.403,2.364-2.402c1.254,0,2.307,1.047,2.309,2.297C147.043,122.805,146.074,123.787,144.77,123.808z"/>
<path opacity="0.6" fill-rule="evenodd" clip-rule="evenodd" fill="#B1ADA0" d="M188.708,123.808
	c-1.317,0.015-2.312-0.921-2.355-2.216c-0.045-1.297,1.047-2.404,2.347-2.382c1.254,0.022,2.324,1.087,2.328,2.315
	C191.031,122.774,189.994,123.795,188.708,123.808z"/>
<path opacity="0.6" fill-rule="evenodd" clip-rule="evenodd" fill="#B1ADA0" d="M81.957,131.307
	c-1.306,0.007-2.315-0.949-2.354-2.23c-0.038-1.229,1.009-2.328,2.25-2.366c1.303-0.04,2.446,1.052,2.438,2.329
	C84.284,130.291,83.246,131.3,81.957,131.307z"/>
<path opacity="0.6" fill-rule="evenodd" clip-rule="evenodd" fill="#B1ADA0" d="M37.964,131.307
	c-1.29-0.007-2.328-1.016-2.335-2.268c-0.007-1.277,1.135-2.369,2.438-2.329c1.243,0.038,2.292,1.142,2.253,2.366
	C40.278,130.357,39.269,131.313,37.964,131.307z"/>
<path opacity="0.6" fill-rule="evenodd" clip-rule="evenodd" fill="#B1ADA0" d="M25.411,86.312
	c-1.298-0.006-2.292-0.979-2.313-2.268c-0.021-1.297,1.085-2.368,2.404-2.327c1.254,0.039,2.293,1.118,2.268,2.359
	C27.745,85.351,26.724,86.319,25.411,86.312z"/>
<path opacity="0.6" fill-rule="evenodd" clip-rule="evenodd" fill="#B1ADA0" d="M81.89,86.312c-1.292-0.02-2.29-1.021-2.288-2.298
	c0.001-1.232,1.076-2.298,2.319-2.301c1.301-0.003,2.426,1.135,2.371,2.399C84.235,85.375,83.19,86.333,81.89,86.312z"/>
<path opacity="0.6" fill-rule="evenodd" clip-rule="evenodd" fill="#B1ADA0" d="M37.979,86.327c-1.278,0-2.331-1.016-2.35-2.266
	c-0.018-1.275,1.119-2.376,2.423-2.346c1.24,0.03,2.3,1.128,2.268,2.352C40.289,85.341,39.267,86.327,37.979,86.327z"/>
<path opacity="0.6" fill-rule="evenodd" clip-rule="evenodd" fill="#B1ADA0" d="M25.419,131.307
	c-1.299-0.003-2.296-0.973-2.321-2.26c-0.025-1.297,1.078-2.373,2.396-2.336c1.254,0.035,2.296,1.111,2.276,2.353
	C27.751,130.337,26.731,131.31,25.419,131.307z"/>
<path opacity="0.6" fill-rule="evenodd" clip-rule="evenodd" fill="#B1ADA0" d="M81.906,153.804
	c-1.297-0.013-2.297-1.003-2.305-2.281c-0.008-1.232,1.058-2.305,2.302-2.316c1.305-0.013,2.431,1.11,2.388,2.381
	C84.247,152.847,83.204,153.816,81.906,153.804z"/>
<path opacity="0.6" fill-rule="evenodd" clip-rule="evenodd" fill="#B1ADA0" d="M132.188,93.812
	c-1.304,0.01-2.313-0.945-2.354-2.228c-0.04-1.297,1.048-2.389,2.364-2.371c1.248,0.016,2.307,1.08,2.31,2.323
	C134.51,92.803,133.492,93.802,132.188,93.812z"/>
<path opacity="0.6" fill-rule="evenodd" clip-rule="evenodd" fill="#B1ADA0" d="M37.94,116.31c-1.285-0.017-2.321-1.044-2.311-2.293
	c0.009-1.229,1.084-2.291,2.338-2.307c1.235-0.016,2.337,1.043,2.357,2.267C40.346,115.295,39.292,116.326,37.94,116.31z"/>
<path opacity="0.6" fill-rule="evenodd" clip-rule="evenodd" fill="#B1ADA0" d="M25.366,71.315
	c-1.289-0.023-2.273-1.028-2.269-2.314c0.005-1.248,1.056-2.279,2.326-2.285c1.298-0.005,2.402,1.128,2.345,2.409
	C27.711,70.403,26.685,71.339,25.366,71.315z"/>
<path opacity="0.6" fill-rule="evenodd" clip-rule="evenodd" fill="#B1ADA0" d="M81.977,116.31
	c-1.308,0.015-2.323-0.932-2.373-2.211c-0.052-1.281,1.06-2.407,2.355-2.389c1.253,0.019,2.326,1.082,2.333,2.312
	C84.298,115.27,83.262,116.293,81.977,116.31z"/>
<path opacity="0.6" fill-rule="evenodd" clip-rule="evenodd" fill="#B1ADA0" d="M37.927,71.315
	c-1.282-0.021-2.317-1.059-2.298-2.305c0.019-1.233,1.097-2.286,2.35-2.294c1.237-0.009,2.332,1.056,2.344,2.28
	C40.337,70.315,39.281,71.337,37.927,71.315z"/>
<path opacity="0.6" fill-rule="evenodd" clip-rule="evenodd" fill="#B1ADA0" d="M144.709,146.305
	c-1.291-0.002-2.329-1.003-2.344-2.257c-0.016-1.275,1.122-2.373,2.427-2.34c1.254,0.031,2.277,1.104,2.247,2.355
	C147.009,145.357,146.02,146.309,144.709,146.305z"/>
<path opacity="0.6" fill-rule="evenodd" clip-rule="evenodd" fill="#B1ADA0" d="M81.94,93.812c-1.303,0.001-2.309-0.965-2.339-2.247
	c-0.028-1.229,1.026-2.322,2.268-2.35c1.303-0.031,2.44,1.07,2.421,2.345C84.272,92.815,83.234,93.811,81.94,93.812z"/>
<path opacity="0.6" fill-rule="evenodd" clip-rule="evenodd" fill="#B1ADA0" d="M132.155,146.305
	c-1.299-0.002-2.299-0.978-2.321-2.259c-0.021-1.303,1.078-2.373,2.396-2.336c1.254,0.035,2.295,1.111,2.275,2.352
	C134.486,145.335,133.467,146.308,132.155,146.305z"/>
<path opacity="0.6" fill-rule="evenodd" clip-rule="evenodd" fill="#B1ADA0" d="M132.115,116.31
	c-1.295-0.019-2.283-1.017-2.281-2.301c0.001-1.252,1.042-2.286,2.312-2.299c1.298-0.012,2.406,1.113,2.357,2.396
	C134.456,115.383,133.432,116.328,132.115,116.31z"/>
<path opacity="0.6" fill-rule="evenodd" clip-rule="evenodd" fill="#B1ADA0" d="M81.923,71.315
	c-1.301-0.006-2.303-0.983-2.322-2.264c-0.018-1.23,1.042-2.313,2.285-2.333c1.304-0.021,2.436,1.091,2.405,2.363
	C84.259,70.339,83.219,71.321,81.923,71.315z"/>
<path opacity="0.6" fill-rule="evenodd" clip-rule="evenodd" fill="#B1ADA0" d="M144.705,116.31c-1.29-0.006-2.329-1.01-2.34-2.263
	c-0.013-1.275,1.128-2.371,2.431-2.335c1.254,0.034,2.275,1.109,2.243,2.36C147.006,115.366,146.016,116.313,144.705,116.31z"/>
<path opacity="0.6" fill-rule="evenodd" clip-rule="evenodd" fill="#B1ADA0" d="M81.968,146.305
	c-1.307,0.012-2.319-0.938-2.365-2.219c-0.047-1.277,1.071-2.403,2.363-2.379c1.253,0.022,2.323,1.09,2.325,2.318
	C84.293,145.274,83.256,146.293,81.968,146.305z"/>
<path opacity="0.6" fill-rule="evenodd" clip-rule="evenodd" fill="#B1ADA0" d="M37.937,146.305
	c-1.284-0.018-2.32-1.048-2.308-2.294c0.011-1.231,1.088-2.291,2.341-2.305c1.237-0.015,2.336,1.045,2.354,2.27
	C40.343,145.295,39.29,146.322,37.937,146.305z"/>
<path opacity="0.6" fill-rule="evenodd" clip-rule="evenodd" fill="#B1ADA0" d="M188.641,116.31
	c-1.306-0.015-2.281-0.987-2.289-2.282c-0.007-1.253,1.034-2.306,2.29-2.317c1.304-0.01,2.43,1.114,2.385,2.383
	C190.982,115.354,189.938,116.321,188.641,116.31z"/>
<path opacity="0.6" fill-rule="evenodd" clip-rule="evenodd" fill="#B1ADA0" d="M132.177,71.315
	c-1.301,0.006-2.308-0.954-2.343-2.237c-0.036-1.298,1.056-2.384,2.373-2.361c1.251,0.022,2.305,1.089,2.301,2.332
	C134.504,70.318,133.485,71.309,132.177,71.315z"/>
<path opacity="0.6" fill-rule="evenodd" clip-rule="evenodd" fill="#B1ADA0" d="M37.94,93.826c-1.273-0.017-2.321-1.06-2.312-2.304
	c0.009-1.231,1.084-2.293,2.337-2.309c1.29-0.017,2.409,1.119,2.354,2.391C40.264,92.879,39.232,93.843,37.94,93.826z"/>
<path opacity="0.6" fill-rule="evenodd" clip-rule="evenodd" fill="#B1ADA0" d="M144.713,71.315
	c-1.292-0.001-2.331-0.999-2.348-2.253c-0.018-1.275,1.119-2.375,2.424-2.344c1.255,0.03,2.278,1.1,2.25,2.352
	C147.011,70.364,146.023,71.316,144.713,71.315z"/>
<path opacity="0.6" fill-rule="evenodd" clip-rule="evenodd" fill="#B1ADA0" d="M25.386,93.812
	c-1.297-0.015-2.282-1.002-2.288-2.294c-0.006-1.248,1.034-2.288,2.305-2.304c1.3-0.017,2.41,1.103,2.366,2.388
	C27.726,92.877,26.702,93.828,25.386,93.812z"/>
<path opacity="0.6" fill-rule="evenodd" clip-rule="evenodd" fill="#B1ADA0" d="M144.761,138.807
	c-1.3,0.016-2.343-0.945-2.395-2.205c-0.054-1.266,1.071-2.399,2.372-2.395c1.256,0.006,2.303,1.055,2.301,2.306
	C147.037,137.811,146.066,138.788,144.761,138.807z"/>
<path opacity="0.6" fill-rule="evenodd" clip-rule="evenodd" fill="#B1ADA0" d="M25.473,123.808
	c-1.356,0.021-2.392-0.995-2.376-2.331c0.015-1.245,1.076-2.272,2.343-2.269c1.248,0.005,2.315,1.059,2.333,2.303
	C27.791,122.772,26.773,123.789,25.473,123.808z"/>
<path opacity="0.6" fill-rule="evenodd" clip-rule="evenodd" fill="#B1ADA0" d="M111.052,114.003
	c0.012-1.344,0.941-2.281,2.266-2.287c1.372-0.006,2.316,0.979,2.287,2.391c-0.027,1.313-0.991,2.226-2.328,2.203
	C111.947,116.285,111.039,115.344,111.052,114.003z"/>
<path opacity="0.6" fill-rule="evenodd" clip-rule="evenodd" fill="#B1ADA0" d="M119.586,116.31
	c-1.312-0.011-2.277-0.973-2.281-2.278c-0.005-1.358,1.028-2.363,2.383-2.318c1.283,0.043,2.247,1.066,2.222,2.363
	C121.884,115.387,120.913,116.319,119.586,116.31z"/>
<path opacity="0.6" fill-rule="evenodd" clip-rule="evenodd" fill="#B1ADA0" d="M107.11,176.301
	c-1.339,0.022-2.318-0.887-2.361-2.194c-0.045-1.354,0.964-2.405,2.305-2.401c1.309,0.005,2.285,0.973,2.298,2.279
	C109.365,175.293,108.409,176.279,107.11,176.301z"/>
<path opacity="0.6" fill-rule="evenodd" clip-rule="evenodd" fill="#B1ADA0" d="M119.488,123.808
	c-1.288-0.047-2.224-1.065-2.183-2.374c0.041-1.3,1.048-2.25,2.355-2.222c1.333,0.028,2.319,1.109,2.241,2.461
	C121.828,122.975,120.831,123.857,119.488,123.808z"/>
<path opacity="0.6" fill-rule="evenodd" clip-rule="evenodd" fill="#B1ADA0" d="M113.228,123.808
	c-1.311-0.043-2.208-1.013-2.177-2.354c0.031-1.33,0.992-2.26,2.315-2.238c1.367,0.021,2.286,1.025,2.238,2.439
	C115.56,122.958,114.574,123.852,113.228,123.808z"/>
<path opacity="0.6" fill-rule="evenodd" clip-rule="evenodd" fill="#B1ADA0" d="M107.089,123.808
	c-1.336,0.015-2.308-0.905-2.342-2.215c-0.034-1.351,0.987-2.396,2.327-2.381c1.307,0.017,2.274,0.993,2.278,2.3
	C109.355,122.82,108.396,123.794,107.089,123.808z"/>
<path opacity="0.6" fill-rule="evenodd" clip-rule="evenodd" fill="#B1ADA0" d="M94.498,123.808
	c-1.312,0.002-2.331-0.974-2.349-2.245c-0.018-1.241,1.025-2.316,2.279-2.351c1.311-0.036,2.417,1.046,2.394,2.341
	C96.798,122.833,95.795,123.807,94.498,123.808z"/>
<path opacity="0.6" fill-rule="evenodd" clip-rule="evenodd" fill="#B1ADA0" d="M12.846,123.808
	c-1.313-0.012-2.275-0.976-2.277-2.282c-0.002-1.357,1.034-2.361,2.39-2.313c1.289,0.046,2.244,1.066,2.215,2.367
	C15.145,122.891,14.175,123.82,12.846,123.808z"/>
<path opacity="0.6" fill-rule="evenodd" clip-rule="evenodd" fill="#B1ADA0" d="M119.661,108.809
	c-1.321,0.019-2.316-0.911-2.356-2.201c-0.042-1.365,0.951-2.397,2.309-2.394c1.286,0.003,2.285,0.994,2.301,2.288
	C121.93,107.808,120.971,108.792,119.661,108.809z"/>
<path opacity="0.6" fill-rule="evenodd" clip-rule="evenodd" fill="#B1ADA0" d="M113.351,108.809
	c-1.333,0.01-2.283-0.911-2.299-2.23c-0.017-1.403,0.944-2.385,2.315-2.361c1.321,0.021,2.237,0.967,2.238,2.315
	C115.606,107.866,114.682,108.799,113.351,108.809z"/>
<path opacity="0.6" fill-rule="evenodd" clip-rule="evenodd" fill="#B1ADA0" d="M107.046,108.809
	c-1.328-0.002-2.291-0.949-2.301-2.258c-0.01-1.297,0.963-2.309,2.249-2.337c1.355-0.03,2.375,0.982,2.358,2.344
	C109.334,107.852,108.351,108.813,107.046,108.809z"/>
<path opacity="0.6" fill-rule="evenodd" clip-rule="evenodd" fill="#B1ADA0" d="M94.535,108.809
	c-1.316,0.016-2.34-0.931-2.384-2.208c-0.044-1.285,1.064-2.405,2.363-2.39c1.265,0.014,2.311,1.06,2.308,2.305
	C96.82,107.802,95.83,108.793,94.535,108.809z"/>
<path opacity="0.6" fill-rule="evenodd" clip-rule="evenodd" fill="#B1ADA0" d="M107.025,168.802
	c-1.323-0.011-2.282-0.971-2.281-2.278c0.001-1.295,0.986-2.3,2.27-2.318c1.355-0.018,2.365,1.004,2.338,2.365
	C109.325,167.861,108.333,168.812,107.025,168.802z"/>
<path opacity="0.6" fill-rule="evenodd" clip-rule="evenodd" fill="#B1ADA0" d="M12.925,108.819
	c-1.312,0.018-2.317-0.924-2.356-2.211c-0.042-1.365,0.952-2.397,2.309-2.394c1.287,0.003,2.284,0.994,2.301,2.288
	C15.194,107.806,14.227,108.799,12.925,108.819z"/>
<path opacity="0.6" fill-rule="evenodd" clip-rule="evenodd" fill="#B1ADA0" d="M8.869,106.481c0.021,1.353-0.872,2.296-2.202,2.328
	c-1.352,0.033-2.315-0.859-2.351-2.178c-0.038-1.414,0.892-2.407,2.264-2.414C7.903,104.209,8.848,105.143,8.869,106.481z"/>
<path opacity="0.6" fill-rule="evenodd" clip-rule="evenodd" fill="#B1ADA0" d="M201.188,101.311
	c-1.3-0.016-2.318-1.027-2.306-2.291c0.013-1.243,1.078-2.3,2.325-2.309c1.312-0.009,2.398,1.096,2.349,2.389
	C203.507,100.381,202.495,101.327,201.188,101.311z"/>
<path opacity="0.6" fill-rule="evenodd" clip-rule="evenodd" fill="#B1ADA0" d="M107.106,116.31
	c-1.338,0.021-2.315-0.89-2.357-2.196c-0.044-1.356,0.965-2.404,2.308-2.399c1.307,0.004,2.283,0.975,2.295,2.281
	C109.363,115.303,108.408,116.287,107.106,116.31z"/>
<path opacity="0.6" fill-rule="evenodd" clip-rule="evenodd" fill="#B1ADA0" d="M94.502,116.31c-1.311,0.002-2.331-0.97-2.353-2.241
	c-0.022-1.289,1.097-2.389,2.397-2.356c1.263,0.032,2.295,1.091,2.275,2.337C96.801,115.33,95.799,116.306,94.502,116.31z"/>
<path opacity="0.6" fill-rule="evenodd" clip-rule="evenodd" fill="#B1ADA0" d="M12.896,116.317
	c-1.305,0.007-2.301-0.951-2.328-2.239c-0.028-1.363,0.981-2.384,2.338-2.365c1.284,0.018,2.269,1.023,2.27,2.318
	C15.177,115.334,14.205,116.31,12.896,116.317z"/>
<path opacity="0.6" fill-rule="evenodd" clip-rule="evenodd" fill="#B1ADA0" d="M6.625,116.31c-1.344,0.015-2.289-0.896-2.309-2.222
	c-0.021-1.408,0.935-2.39,2.307-2.372c1.322,0.017,2.241,0.961,2.246,2.307C8.874,115.363,7.961,116.295,6.625,116.31z"/>
<path opacity="0.6" fill-rule="evenodd" clip-rule="evenodd" fill="#B1ADA0" d="M107.07,146.305c-1.332,0.007-2.3-0.924-2.323-2.234
	c-0.024-1.345,1.012-2.388,2.347-2.359c1.309,0.025,2.263,1.005,2.258,2.317C109.347,145.334,108.379,146.299,107.07,146.305z"/>
<path opacity="0.6" fill-rule="evenodd" clip-rule="evenodd" fill="#B1ADA0" d="M94.474,146.305c-1.305-0.008-2.323-1-2.325-2.269
	c-0.003-1.242,1.051-2.308,2.301-2.329c1.311-0.022,2.409,1.072,2.372,2.364C96.785,145.354,95.777,146.312,94.474,146.305z"/>
<path opacity="0.6" fill-rule="evenodd" clip-rule="evenodd" fill="#B1ADA0" d="M94.502,153.804
	c-1.311,0.003-2.331-0.969-2.353-2.242c-0.02-1.288,1.099-2.388,2.398-2.354c1.264,0.032,2.295,1.093,2.274,2.338
	C96.801,152.826,95.799,153.801,94.502,153.804z"/>
<path opacity="0.6" fill-rule="evenodd" clip-rule="evenodd" fill="#B1ADA0" d="M106.994,153.804
	c-1.313-0.022-2.269-1.003-2.251-2.309c0.016-1.293,1.015-2.284,2.301-2.286c1.356-0.002,2.35,1.028,2.308,2.394
	C109.312,152.893,108.311,153.826,106.994,153.804z"/>
<path opacity="0.6" fill-rule="evenodd" clip-rule="evenodd" fill="#B1ADA0" d="M111.052,151.502
	c0.01-1.344,0.938-2.282,2.262-2.291c1.372-0.009,2.317,0.976,2.291,2.387c-0.025,1.313-0.987,2.227-2.324,2.206
	C111.95,153.782,111.04,152.843,111.052,151.502z"/>
<path opacity="0.6" fill-rule="evenodd" clip-rule="evenodd" fill="#B1ADA0" d="M119.631,153.804
	c-1.312,0.008-2.301-0.939-2.326-2.231c-0.028-1.362,0.981-2.384,2.338-2.364c1.283,0.017,2.268,1.023,2.27,2.317
	C121.913,152.833,120.949,153.797,119.631,153.804z"/>
<path opacity="0.6" fill-rule="evenodd" clip-rule="evenodd" fill="#B1ADA0" d="M119.488,146.305
	c-1.288-0.046-2.224-1.064-2.183-2.375c0.041-1.3,1.048-2.249,2.355-2.221c1.333,0.028,2.319,1.109,2.241,2.461
	C121.828,145.471,120.831,146.354,119.488,146.305z"/>
<path opacity="0.6" fill-rule="evenodd" clip-rule="evenodd" fill="#B1ADA0" d="M115.605,144.006
	c0.01,1.339-0.901,2.278-2.231,2.299c-1.337,0.02-2.299-0.894-2.323-2.207c-0.026-1.411,0.92-2.396,2.293-2.386
	C114.668,141.722,115.595,142.66,115.605,144.006z"/>
<path opacity="0.6" fill-rule="evenodd" clip-rule="evenodd" fill="#B1ADA0" d="M119.587,131.307
	c-1.312-0.009-2.277-0.972-2.282-2.275c-0.006-1.359,1.027-2.365,2.383-2.321c1.283,0.042,2.247,1.067,2.223,2.363
	C121.885,130.383,120.915,131.316,119.587,131.307z"/>
<path opacity="0.6" fill-rule="evenodd" clip-rule="evenodd" fill="#B1ADA0" d="M106.998,161.303
	c-1.313-0.021-2.271-0.998-2.255-2.305c0.014-1.293,1.011-2.287,2.297-2.291c1.357-0.004,2.353,1.025,2.312,2.391
	C109.312,160.388,108.314,161.324,106.998,161.303z"/>
<path opacity="0.6" fill-rule="evenodd" clip-rule="evenodd" fill="#B1ADA0" d="M115.604,129.023
	c0.004,1.335-0.917,2.271-2.248,2.283c-1.334,0.014-2.287-0.906-2.305-2.225c-0.02-1.405,0.938-2.388,2.309-2.368
	C114.683,126.732,115.601,127.678,115.604,129.023z"/>
<path opacity="0.6" fill-rule="evenodd" clip-rule="evenodd" fill="#B1ADA0" d="M107.099,131.307
	c-1.336,0.019-2.312-0.896-2.35-2.204c-0.04-1.354,0.975-2.4,2.315-2.391c1.307,0.009,2.278,0.982,2.287,2.289
	C109.36,130.31,108.403,131.289,107.099,131.307z"/>
<path opacity="0.6" fill-rule="evenodd" clip-rule="evenodd" fill="#B1ADA0" d="M94.476,131.307
	c-1.307-0.007-2.325-0.998-2.327-2.268c-0.004-1.241,1.049-2.309,2.299-2.331c1.313-0.021,2.411,1.071,2.373,2.365
	C96.785,130.354,95.778,131.313,94.476,131.307z"/>
<path opacity="0.6" fill-rule="evenodd" clip-rule="evenodd" fill="#B1ADA0" d="M115.605,158.972
	c0.021,1.342-0.882,2.298-2.201,2.331c-1.343,0.033-2.316-0.867-2.353-2.177c-0.038-1.413,0.891-2.407,2.261-2.416
	C114.636,156.701,115.582,157.635,115.605,158.972z"/>
<path opacity="0.6" fill-rule="evenodd" clip-rule="evenodd" fill="#B1ADA0" d="M119.611,138.807
	c-1.31-0.002-2.291-0.958-2.307-2.253c-0.018-1.361,1.001-2.375,2.358-2.344c1.285,0.028,2.257,1.04,2.247,2.338
	C121.9,137.856,120.933,138.807,119.611,138.807z"/>
<path opacity="0.6" fill-rule="evenodd" clip-rule="evenodd" fill="#B1ADA0" d="M115.604,136.589
	c-0.021,1.316-0.979,2.233-2.314,2.218c-1.332-0.018-2.247-0.955-2.239-2.292c0.007-1.391,1.006-2.358,2.377-2.302
	C114.747,134.268,115.626,135.228,115.604,136.589z"/>
<path opacity="0.6" fill-rule="evenodd" clip-rule="evenodd" fill="#B1ADA0" d="M106.968,138.807
	c-1.309-0.033-2.258-1.03-2.227-2.336c0.03-1.288,1.045-2.272,2.33-2.26c1.352,0.014,2.335,1.057,2.281,2.42
	C109.3,137.917,108.289,138.839,106.968,138.807z"/>
<path opacity="0.6" fill-rule="evenodd" clip-rule="evenodd" fill="#B1ADA0" d="M94.446,138.807
	c-1.299-0.021-2.316-1.036-2.299-2.297c0.017-1.244,1.083-2.297,2.331-2.304c1.313-0.006,2.397,1.103,2.343,2.396
	C96.769,137.885,95.754,138.825,94.446,138.807z"/>
<path opacity="0.6" fill-rule="evenodd" clip-rule="evenodd" fill="#B1ADA0" d="M201.184,86.312c-1.3-0.018-2.317-1.033-2.301-2.295
	c0.017-1.243,1.084-2.298,2.33-2.304c1.313-0.006,2.398,1.102,2.344,2.395C203.505,85.391,202.491,86.332,201.184,86.312z"/>
<path opacity="0.6" fill-rule="evenodd" clip-rule="evenodd" fill="#B1ADA0" d="M4.315,84c0.016-1.341,0.949-2.278,2.274-2.28
	c1.372-0.002,2.311,0.986,2.279,2.398c-0.029,1.32-0.986,2.22-2.335,2.194C5.198,86.287,4.3,85.351,4.315,84z"/>
<path opacity="0.6" fill-rule="evenodd" clip-rule="evenodd" fill="#B1ADA0" d="M119.64,71.315c-1.315,0.01-2.306-0.933-2.335-2.225
	c-0.032-1.364,0.974-2.386,2.331-2.371c1.287,0.014,2.272,1.014,2.276,2.311C121.916,70.338,120.955,71.305,119.64,71.315z"/>
<path opacity="0.6" fill-rule="evenodd" clip-rule="evenodd" fill="#B1ADA0" d="M213.831,86.312c-1.337,0.016-2.312-0.9-2.347-2.208
	c-0.038-1.352,0.979-2.399,2.319-2.387c1.307,0.012,2.276,0.988,2.283,2.294C216.095,85.319,215.136,86.297,213.831,86.312z"/>
<path opacity="0.6" fill-rule="evenodd" clip-rule="evenodd" fill="#B1ADA0" d="M222.341,84.027
	c0.005,1.336-0.915,2.272-2.245,2.286c-1.336,0.014-2.289-0.903-2.308-2.222c-0.021-1.408,0.934-2.389,2.307-2.372
	C221.416,81.737,222.335,82.681,222.341,84.027z"/>
<path opacity="0.6" fill-rule="evenodd" clip-rule="evenodd" fill="#B1ADA0" d="M8.868,91.664c-0.047,1.304-1.034,2.195-2.382,2.147
	c-1.32-0.045-2.205-1.006-2.171-2.358c0.034-1.331,0.997-2.258,2.32-2.234C8.001,89.243,8.919,90.249,8.868,91.664z"/>
<path opacity="0.6" fill-rule="evenodd" clip-rule="evenodd" fill="#B1ADA0" d="M12.876,93.812c-1.31,0-2.291-0.958-2.308-2.252
	c-0.017-1.361,1.002-2.375,2.359-2.345c1.285,0.03,2.259,1.042,2.248,2.338C15.164,92.863,14.198,93.812,12.876,93.812z"/>
<path opacity="0.6" fill-rule="evenodd" clip-rule="evenodd" fill="#B1ADA0" d="M222.341,76.523c0.007,1.337-0.91,2.274-2.24,2.291
	c-1.335,0.016-2.293-0.901-2.312-2.218c-0.023-1.409,0.927-2.392,2.301-2.376C221.413,74.236,222.333,75.177,222.341,76.523z"/>
<path opacity="0.6" fill-rule="evenodd" clip-rule="evenodd" fill="#B1ADA0" d="M213.799,78.814
	c-1.33,0.003-2.298-0.932-2.317-2.241c-0.021-1.345,1.021-2.386,2.354-2.355c1.309,0.03,2.26,1.012,2.251,2.325
	C216.078,77.847,215.109,78.811,213.799,78.814z"/>
<path opacity="0.6" fill-rule="evenodd" clip-rule="evenodd" fill="#B1ADA0" d="M201.184,78.814c-1.3-0.02-2.317-1.036-2.301-2.297
	c0.017-1.243,1.084-2.297,2.331-2.303c1.312-0.006,2.397,1.102,2.343,2.394C203.505,77.893,202.491,78.833,201.184,78.814z"/>
<path opacity="0.6" fill-rule="evenodd" clip-rule="evenodd" fill="#B1ADA0" d="M111.052,68.882
	c0.062-1.312,1.068-2.222,2.392-2.159c1.361,0.065,2.24,1.089,2.158,2.515c-0.074,1.279-1.109,2.155-2.452,2.075
	C111.851,71.237,110.99,70.238,111.052,68.882z"/>
<path opacity="0.6" fill-rule="evenodd" clip-rule="evenodd" fill="#B1ADA0" d="M106.998,71.315
	c-1.313-0.021-2.271-0.999-2.255-2.306c0.014-1.293,1.011-2.286,2.297-2.29c1.357-0.004,2.353,1.025,2.312,2.39
	C109.312,70.4,108.314,71.336,106.998,71.315z"/>
<path opacity="0.6" fill-rule="evenodd" clip-rule="evenodd" fill="#B1ADA0" d="M94.453,71.315c-1.3-0.017-2.318-1.028-2.306-2.291
	c0.013-1.242,1.077-2.3,2.325-2.309c1.312-0.01,2.4,1.095,2.349,2.388C96.772,70.386,95.759,71.331,94.453,71.315z"/>
<path opacity="0.6" fill-rule="evenodd" clip-rule="evenodd" fill="#B1ADA0" d="M94.448,93.812
	c-1.299-0.019-2.317-1.035-2.301-2.296c0.016-1.244,1.083-2.298,2.331-2.303c1.312-0.006,2.397,1.101,2.343,2.393
	C96.769,92.889,95.755,93.831,94.448,93.812z"/>
<path opacity="0.6" fill-rule="evenodd" clip-rule="evenodd" fill="#B1ADA0" d="M107.106,93.812
	c-1.338,0.021-2.315-0.89-2.357-2.197c-0.044-1.354,0.965-2.404,2.307-2.399c1.308,0.005,2.283,0.975,2.296,2.282
	C109.363,92.805,108.408,93.791,107.106,93.812z"/>
<path opacity="0.6" fill-rule="evenodd" clip-rule="evenodd" fill="#B1ADA0" d="M115.605,91.504
	c0.012,1.341-0.896,2.285-2.224,2.308c-1.338,0.023-2.303-0.888-2.33-2.2c-0.029-1.411,0.914-2.398,2.285-2.393
	C114.662,89.224,115.592,90.161,115.605,91.504z"/>
<path opacity="0.6" fill-rule="evenodd" clip-rule="evenodd" fill="#B1ADA0" d="M119.562,93.812c-1.31-0.02-2.264-0.995-2.257-2.302
	c0.007-1.308,0.978-2.283,2.283-2.293c1.342-0.012,2.358,1.035,2.32,2.387C121.871,92.913,120.893,93.832,119.562,93.812z"/>
<path opacity="0.6" fill-rule="evenodd" clip-rule="evenodd" fill="#B1ADA0" d="M8.868,76.604c-0.023,1.323-0.974,2.229-2.319,2.211
	c-1.336-0.02-2.243-0.952-2.234-2.297c0.009-1.389,1.011-2.356,2.382-2.297C8.014,74.278,8.893,75.241,8.868,76.604z"/>
<path opacity="0.6" fill-rule="evenodd" clip-rule="evenodd" fill="#B1ADA0" d="M222.341,69.094
	c-0.021,1.317-0.975,2.235-2.311,2.221c-1.33-0.015-2.249-0.951-2.242-2.287c0.005-1.391,1.001-2.36,2.37-2.306
	C221.478,66.773,222.36,67.732,222.341,69.094z"/>
<path opacity="0.6" fill-rule="evenodd" clip-rule="evenodd" fill="#B1ADA0" d="M213.76,71.315
	c-1.321-0.011-2.282-0.971-2.281-2.279c0.002-1.294,0.988-2.299,2.271-2.317c1.356-0.019,2.364,1.002,2.337,2.364
	C216.061,70.375,215.069,71.326,213.76,71.315z"/>
<path opacity="0.6" fill-rule="evenodd" clip-rule="evenodd" fill="#B1ADA0" d="M94.555,86.312c-1.318,0.024-2.345-0.91-2.403-2.188
	c-0.058-1.28,1.044-2.413,2.342-2.409c1.265,0.003,2.32,1.038,2.329,2.285C96.831,85.281,95.842,86.289,94.555,86.312z"/>
<path opacity="0.6" fill-rule="evenodd" clip-rule="evenodd" fill="#B1ADA0" d="M106.892,86.312
	c-1.291-0.062-2.212-1.097-2.141-2.41c0.07-1.294,1.104-2.239,2.395-2.184c1.354,0.056,2.295,1.125,2.2,2.495
	C109.259,85.488,108.22,86.375,106.892,86.312z"/>
<path opacity="0.6" fill-rule="evenodd" clip-rule="evenodd" fill="#B1ADA0" d="M115.604,84.05c-0.003,1.33-0.937,2.259-2.268,2.263
	c-1.333,0.004-2.275-0.921-2.285-2.245c-0.011-1.401,0.959-2.379,2.33-2.348C114.701,81.749,115.608,82.699,115.604,84.05z"/>
<path opacity="0.6" fill-rule="evenodd" clip-rule="evenodd" fill="#B1ADA0" d="M119.587,86.312
	c-1.312-0.01-2.276-0.971-2.282-2.276c-0.006-1.358,1.026-2.364,2.383-2.32c1.282,0.041,2.245,1.066,2.222,2.363
	C121.887,85.387,120.915,86.323,119.587,86.312z"/>
<path opacity="0.6" fill-rule="evenodd" clip-rule="evenodd" fill="#B1ADA0" d="M12.833,86.32c-1.308-0.019-2.268-0.997-2.264-2.302
	c0.004-1.355,1.049-2.355,2.402-2.299c1.291,0.054,2.236,1.075,2.203,2.379C15.139,85.405,14.154,86.339,12.833,86.32z"/>
<path opacity="0.6" fill-rule="evenodd" clip-rule="evenodd" fill="#B1ADA0" d="M12.903,78.822c-1.306,0.01-2.304-0.945-2.334-2.232
	c-0.031-1.365,0.974-2.387,2.332-2.372c1.287,0.015,2.272,1.015,2.277,2.312C15.181,77.833,14.21,78.812,12.903,78.822z"/>
<path opacity="0.6" fill-rule="evenodd" clip-rule="evenodd" fill="#B1ADA0" d="M12.902,101.311
	c-1.315,0.009-2.304-0.934-2.333-2.226c-0.031-1.365,0.974-2.386,2.332-2.37c1.286,0.014,2.271,1.016,2.275,2.311
	C15.181,100.334,14.218,101.301,12.902,101.311z"/>
<path opacity="0.6" fill-rule="evenodd" clip-rule="evenodd" fill="#B1ADA0" d="M8.868,69.095c-0.02,1.326-0.966,2.235-2.31,2.22
	C5.222,71.3,4.31,70.37,4.315,69.028c0.006-1.391,1.003-2.36,2.373-2.306C8.007,66.774,8.889,67.733,8.868,69.095z"/>
<path opacity="0.6" fill-rule="evenodd" clip-rule="evenodd" fill="#B1ADA0" d="M94.526,63.815
	c-1.314,0.013-2.336-0.942-2.375-2.217c-0.039-1.286,1.071-2.4,2.373-2.381c1.264,0.02,2.305,1.067,2.298,2.314
	C96.815,62.816,95.822,63.804,94.526,63.815z"/>
<path opacity="0.6" fill-rule="evenodd" clip-rule="evenodd" fill="#B1ADA0" d="M94.474,78.814c-1.305-0.008-2.323-1-2.325-2.269
	c-0.003-1.242,1.051-2.309,2.301-2.33c1.311-0.022,2.409,1.072,2.372,2.366C96.785,77.863,95.777,78.821,94.474,78.814z"/>
<path opacity="0.6" fill-rule="evenodd" clip-rule="evenodd" fill="#B1ADA0" d="M119.607,78.814
	c-1.312-0.002-2.289-0.959-2.303-2.257c-0.017-1.361,1.005-2.373,2.362-2.34c1.284,0.031,2.255,1.044,2.243,2.342
	C121.898,77.868,120.93,78.816,119.607,78.814z"/>
<path opacity="0.6" fill-rule="evenodd" clip-rule="evenodd" fill="#B1ADA0" d="M115.604,76.602
	c-0.023,1.315-0.982,2.231-2.318,2.213c-1.331-0.019-2.244-0.958-2.235-2.297c0.008-1.389,1.01-2.356,2.381-2.297
	C114.749,74.277,115.627,75.24,115.604,76.602z"/>
<path opacity="0.6" fill-rule="evenodd" clip-rule="evenodd" fill="#B1ADA0" d="M94.468,101.311c-1.306-0.01-2.323-1.007-2.32-2.275
	c0.003-1.242,1.059-2.307,2.308-2.324c1.312-0.019,2.407,1.08,2.365,2.372C96.781,100.368,95.772,101.321,94.468,101.311z"/>
<path opacity="0.6" fill-rule="evenodd" clip-rule="evenodd" fill="#B1ADA0" d="M106.996,63.815c-1.313-0.021-2.27-1-2.253-2.307
	c0.016-1.293,1.014-2.285,2.299-2.289c1.357-0.003,2.351,1.028,2.31,2.393C109.312,62.903,108.313,63.837,106.996,63.815z"/>
<path opacity="0.6" fill-rule="evenodd" clip-rule="evenodd" fill="#B1ADA0" d="M107.04,101.311
	c-1.325-0.006-2.289-0.956-2.294-2.264c-0.007-1.298,0.967-2.307,2.253-2.332c1.356-0.028,2.373,0.987,2.353,2.349
	C109.333,100.356,108.345,101.316,107.04,101.311z"/>
<path opacity="0.6" fill-rule="evenodd" clip-rule="evenodd" fill="#B1ADA0" d="M115.605,98.997
	c0.015,1.341-0.892,2.288-2.218,2.314c-1.339,0.026-2.306-0.882-2.336-2.195c-0.032-1.411,0.907-2.4,2.279-2.399
	C114.656,96.719,115.59,97.656,115.605,98.997z"/>
<path opacity="0.6" fill-rule="evenodd" clip-rule="evenodd" fill="#B1ADA0" d="M119.567,101.311
	c-1.311-0.018-2.267-0.987-2.263-2.296c0.004-1.308,0.972-2.284,2.276-2.3c1.341-0.015,2.362,1.031,2.327,2.382
	C121.874,100.406,120.898,101.329,119.567,101.311z"/>
<path opacity="0.6" fill-rule="evenodd" clip-rule="evenodd" fill="#B1ADA0" d="M115.605,61.502
	c0.014,1.341-0.892,2.288-2.218,2.313c-1.339,0.026-2.306-0.882-2.336-2.194c-0.032-1.412,0.907-2.4,2.279-2.399
	C114.654,59.225,115.59,60.161,115.605,61.502z"/>
<path opacity="0.6" fill-rule="evenodd" clip-rule="evenodd" fill="#B1ADA0" d="M107.048,78.814
	c-1.327-0.002-2.291-0.947-2.303-2.256c-0.011-1.297,0.961-2.31,2.245-2.341c1.357-0.032,2.377,0.979,2.362,2.341
	C109.336,77.855,108.355,78.815,107.048,78.814z"/>
<path opacity="0.6" fill-rule="evenodd" clip-rule="evenodd" fill="#B1ADA0" d="M119.674,63.815
	c-1.325,0.023-2.324-0.901-2.369-2.19c-0.048-1.365,0.941-2.401,2.297-2.405c1.287-0.003,2.291,0.984,2.312,2.276
	C121.937,62.803,120.979,63.793,119.674,63.815z"/>
<path opacity="0.6" fill-rule="evenodd" clip-rule="evenodd" fill="#B1ADA0" d="M4.315,61.515c0.011-1.345,0.937-2.283,2.262-2.292
	c1.373-0.009,2.318,0.976,2.291,2.388c-0.025,1.322-0.978,2.226-2.323,2.205C5.208,63.795,4.305,62.863,4.315,61.515z"/>
<path opacity="0.6" fill-rule="evenodd" clip-rule="evenodd" fill="#B1ADA0" d="M12.891,63.815
	c-1.311,0.006-2.298-0.944-2.322-2.237c-0.025-1.362,0.988-2.381,2.344-2.359c1.284,0.021,2.267,1.029,2.263,2.322
	C15.173,62.853,14.21,63.81,12.891,63.815z"/>
<path opacity="0.6" fill-rule="evenodd" clip-rule="evenodd" fill="#B1ADA0" d="M201.264,93.812
	c-1.314,0.013-2.338-0.94-2.376-2.216c-0.04-1.286,1.069-2.401,2.369-2.382c1.265,0.018,2.307,1.065,2.301,2.312
	C203.551,92.812,202.561,93.799,201.264,93.812z"/>
<path opacity="0.6" fill-rule="evenodd" clip-rule="evenodd" fill="#B1ADA0" d="M8.868,99.095c-0.021,1.324-0.969,2.232-2.313,2.216
	c-1.336-0.017-2.246-0.947-2.239-2.291c0.007-1.392,1.006-2.359,2.376-2.303C8.011,96.771,8.89,97.733,8.868,99.095z"/>
<path opacity="0.6" fill-rule="evenodd" clip-rule="evenodd" fill="#B1ADA0" d="M213.824,93.812
	c-1.336,0.015-2.308-0.905-2.342-2.215c-0.033-1.351,0.988-2.396,2.327-2.38c1.307,0.015,2.273,0.991,2.277,2.299
	C216.092,92.824,215.132,93.797,213.824,93.812z"/>
<path opacity="0.6" fill-rule="evenodd" clip-rule="evenodd" fill="#B1ADA0" d="M12.833,71.315
	c-1.311-0.017-2.268-0.987-2.265-2.294c0.004-1.309,0.97-2.285,2.276-2.301c1.339-0.016,2.362,1.029,2.328,2.38
	C15.139,70.408,14.164,71.332,12.833,71.315z"/>
<path opacity="0.6" fill-rule="evenodd" clip-rule="evenodd" fill="#B1ADA0" d="M100.821,168.802
	c-1.349,0.02-2.304-0.875-2.351-2.203c-0.048-1.354,0.963-2.397,2.314-2.392c1.304,0.007,2.273,0.979,2.289,2.293
	C103.09,167.8,102.126,168.783,100.821,168.802z"/>
<path opacity="0.6" fill-rule="evenodd" clip-rule="evenodd" fill="#B1ADA0" d="M19.098,63.815c-1.314-0.02-2.268-0.993-2.252-2.301
	c0.016-1.314,0.986-2.286,2.289-2.293s2.306,0.974,2.316,2.267C21.461,62.879,20.495,63.836,19.098,63.815z"/>
<path opacity="0.6" fill-rule="evenodd" clip-rule="evenodd" fill="#B1ADA0" d="M44.282,63.815
	c-1.339,0.012-2.286-0.904-2.308-2.235c-0.022-1.368,0.983-2.381,2.342-2.359c1.279,0.021,2.275,1.043,2.266,2.323
	C46.571,62.828,45.582,63.805,44.282,63.815z"/>
<path opacity="0.6" fill-rule="evenodd" clip-rule="evenodd" fill="#B1ADA0" d="M50.491,63.815
	c-1.298-0.015-2.268-1.005-2.256-2.304s0.994-2.278,2.295-2.292c1.338-0.013,2.338,1.025,2.3,2.39
	C52.795,62.911,51.819,63.831,50.491,63.815z"/>
<path opacity="0.6" fill-rule="evenodd" clip-rule="evenodd" fill="#B1ADA0" d="M69.33,63.815c-1.312-0.024-2.246-0.984-2.24-2.304
	c0.005-1.305,0.982-2.29,2.273-2.292c1.353-0.001,2.363,1.039,2.321,2.388C71.644,62.898,70.639,63.84,69.33,63.815z"/>
<path opacity="0.6" fill-rule="evenodd" clip-rule="evenodd" fill="#B1ADA0" d="M176.139,153.804
	c-1.322,0.005-2.289-0.927-2.313-2.231c-0.026-1.36,0.986-2.392,2.324-2.364c1.302,0.025,2.271,1.015,2.271,2.314
	C178.42,152.815,177.437,153.799,176.139,153.804z"/>
<path opacity="0.6" fill-rule="evenodd" clip-rule="evenodd" fill="#B1ADA0" d="M159.567,151.523
	c-0.006,1.322-0.941,2.266-2.267,2.28c-1.36,0.015-2.37-1.005-2.33-2.354c0.038-1.298,1.041-2.256,2.346-2.241
	C158.607,149.223,159.571,150.215,159.567,151.523z"/>
<path opacity="0.6" fill-rule="evenodd" clip-rule="evenodd" fill="#B1ADA0" d="M150.942,153.804
	c-1.327-0.02-2.248-0.971-2.232-2.308c0.015-1.315,0.982-2.281,2.289-2.287c1.326-0.006,2.367,1.072,2.317,2.396
	C153.268,152.878,152.247,153.822,150.942,153.804z"/>
<path opacity="0.6" fill-rule="evenodd" clip-rule="evenodd" fill="#B1ADA0" d="M100.793,63.815
	c-1.334,0.014-2.293-0.907-2.323-2.231c-0.031-1.309,0.914-2.312,2.219-2.359c1.349-0.048,2.381,0.953,2.385,2.315
	C103.078,62.837,102.109,63.802,100.793,63.815z"/>
<path opacity="0.6" fill-rule="evenodd" clip-rule="evenodd" fill="#B1ADA0" d="M125.822,153.804
	c-1.312-0.024-2.261-1.005-2.24-2.312c0.021-1.312,0.997-2.281,2.298-2.283c1.303-0.001,2.301,0.984,2.306,2.276
	C128.191,152.869,127.212,153.829,125.822,153.804z"/>
<path opacity="0.6" fill-rule="evenodd" clip-rule="evenodd" fill="#B1ADA0" d="M125.889,63.815
	c-1.315,0.002-2.297-0.953-2.307-2.246c-0.011-1.362,1.012-2.38,2.358-2.349c1.302,0.031,2.269,1.038,2.244,2.336
	C128.159,62.895,127.224,63.813,125.889,63.815z"/>
<path opacity="0.6" fill-rule="evenodd" clip-rule="evenodd" fill="#B1ADA0" d="M176.063,161.303
	c-1.312-0.026-2.244-0.985-2.238-2.306c0.006-1.305,0.983-2.289,2.274-2.29c1.353,0,2.362,1.041,2.32,2.389
	C178.379,160.385,177.373,161.328,176.063,161.303z"/>
<path opacity="0.6" fill-rule="evenodd" clip-rule="evenodd" fill="#B1ADA0" d="M100.802,161.303
	c-1.344,0.012-2.296-0.893-2.332-2.221c-0.038-1.355,0.98-2.391,2.333-2.373c1.302,0.016,2.263,0.996,2.27,2.311
	C103.081,160.317,102.111,161.291,100.802,161.303z"/>
<path opacity="0.6" fill-rule="evenodd" clip-rule="evenodd" fill="#B1ADA0" d="M100.721,176.301
	c-1.329-0.021-2.259-0.971-2.253-2.303c0.007-1.303,0.99-2.285,2.292-2.293c1.347-0.006,2.348,1.029,2.314,2.394
	C103.042,175.383,102.038,176.321,100.721,176.301z"/>
<path opacity="0.6" fill-rule="evenodd" clip-rule="evenodd" fill="#B1ADA0" d="M176.146,168.802
	c-1.323,0.009-2.293-0.92-2.321-2.223c-0.03-1.362,0.979-2.396,2.315-2.374c1.302,0.022,2.275,1.008,2.279,2.307
	C178.425,167.806,177.443,168.793,176.146,168.802z"/>
<path opacity="0.6" fill-rule="evenodd" clip-rule="evenodd" fill="#B1ADA0" d="M176.151,176.301
	c-1.324,0.011-2.296-0.916-2.326-2.218c-0.032-1.362,0.975-2.397,2.312-2.378c1.302,0.019,2.277,1.002,2.284,2.302
	C178.428,175.3,177.446,176.291,176.151,176.301z"/>
<path opacity="0.6" fill-rule="evenodd" clip-rule="evenodd" fill="#B1ADA0" d="M151.023,86.312
	c-1.345,0.014-2.288-0.895-2.313-2.227c-0.027-1.37,0.975-2.385,2.333-2.367c1.279,0.016,2.279,1.036,2.273,2.314
	C153.311,85.317,152.322,86.3,151.023,86.312z"/>
<path opacity="0.6" fill-rule="evenodd" clip-rule="evenodd" fill="#B1ADA0" d="M159.566,84.057
	c-0.015,1.314-0.965,2.252-2.289,2.256c-1.313,0.004-2.292-0.951-2.306-2.253c-0.017-1.351,1.018-2.371,2.368-2.341
	C158.632,81.747,159.581,82.745,159.566,84.057z"/>
<path opacity="0.6" fill-rule="evenodd" clip-rule="evenodd" fill="#B1ADA0" d="M100.807,123.808
	c-1.346,0.015-2.297-0.888-2.336-2.217c-0.04-1.354,0.976-2.392,2.329-2.377c1.301,0.015,2.265,0.991,2.275,2.308
	C103.083,122.816,102.114,123.794,100.807,123.808z"/>
<path opacity="0.6" fill-rule="evenodd" clip-rule="evenodd" fill="#B1ADA0" d="M69.347,123.808
	c-1.32-0.019-2.255-0.966-2.257-2.286c-0.002-1.309,0.965-2.297,2.255-2.31c1.353-0.012,2.371,1.021,2.339,2.371
	C71.653,122.874,70.654,123.826,69.347,123.808z"/>
<path opacity="0.6" fill-rule="evenodd" clip-rule="evenodd" fill="#B1ADA0" d="M50.492,123.808
	c-1.298-0.014-2.268-1.003-2.257-2.303s0.992-2.278,2.294-2.293c1.338-0.014,2.338,1.023,2.301,2.39
	C52.796,122.901,51.82,123.822,50.492,123.808z"/>
<path opacity="0.6" fill-rule="evenodd" clip-rule="evenodd" fill="#B1ADA0" d="M44.288,123.808
	c-1.342,0.015-2.289-0.898-2.314-2.229c-0.026-1.37,0.976-2.386,2.335-2.365c1.278,0.019,2.278,1.038,2.271,2.315
	C46.574,122.815,45.588,123.794,44.288,123.808z"/>
<path opacity="0.6" fill-rule="evenodd" clip-rule="evenodd" fill="#B1ADA0" d="M207.449,86.312
	c-1.323-0.024-2.247-0.976-2.243-2.312c0.002-1.293,0.999-2.281,2.301-2.281c1.348-0.002,2.341,1.035,2.303,2.402
	C209.773,85.409,208.772,86.338,207.449,86.312z"/>
<path opacity="0.6" fill-rule="evenodd" clip-rule="evenodd" fill="#B1ADA0" d="M19.205,123.808
	c-1.324,0.024-2.324-0.907-2.358-2.194c-0.036-1.367,0.959-2.403,2.307-2.4c1.302,0.003,2.296,0.992,2.297,2.286
	C21.451,122.84,20.532,123.783,19.205,123.808z"/>
<path opacity="0.6" fill-rule="evenodd" clip-rule="evenodd" fill="#B1ADA0" d="M19.125,93.812
	c-1.318-0.009-2.282-0.971-2.279-2.274c0.003-1.317,0.959-2.298,2.261-2.32c1.355-0.023,2.383,1.015,2.341,2.364
	C21.407,92.921,20.471,93.821,19.125,93.812z"/>
<path opacity="0.6" fill-rule="evenodd" clip-rule="evenodd" fill="#B1ADA0" d="M44.271,93.812c-1.336,0.006-2.28-0.918-2.296-2.247
	c-0.017-1.32,0.92-2.306,2.229-2.346c1.327-0.04,2.394,1.007,2.378,2.333C46.565,92.833,45.57,93.805,44.271,93.812z"/>
<path opacity="0.6" fill-rule="evenodd" clip-rule="evenodd" fill="#B1ADA0" d="M52.831,91.53c-0.004,1.323-0.94,2.267-2.263,2.282
	c-1.362,0.015-2.372-1.002-2.333-2.354c0.038-1.297,1.041-2.255,2.345-2.241C51.87,89.23,52.835,90.222,52.831,91.53z"/>
<path opacity="0.6" fill-rule="evenodd" clip-rule="evenodd" fill="#B1ADA0" d="M176.108,116.31
	c-1.325-0.008-2.271-0.944-2.283-2.261c-0.014-1.312,0.939-2.309,2.229-2.335c1.352-0.028,2.383,0.995,2.365,2.344
	C178.403,115.35,177.412,116.315,176.108,116.31z"/>
<path opacity="0.6" fill-rule="evenodd" clip-rule="evenodd" fill="#B1ADA0" d="M159.566,114.07
	c-0.021,1.309-0.982,2.241-2.306,2.239c-1.31-0.003-2.285-0.971-2.289-2.272c-0.006-1.349,1.036-2.362,2.387-2.323
	C158.647,111.752,159.589,112.755,159.566,114.07z"/>
<path opacity="0.6" fill-rule="evenodd" clip-rule="evenodd" fill="#B1ADA0" d="M150.962,116.31
	c-1.33-0.013-2.257-0.954-2.252-2.289c0.005-1.318,0.962-2.291,2.271-2.307c1.32-0.016,2.376,1.058,2.336,2.377
	C153.278,115.363,152.263,116.319,150.962,116.31z"/>
<path opacity="0.6" fill-rule="evenodd" clip-rule="evenodd" fill="#B1ADA0" d="M100.793,131.307
	c-1.341,0.008-2.291-0.902-2.323-2.229c-0.033-1.355,0.989-2.387,2.343-2.364c1.301,0.021,2.258,1.003,2.261,2.32
	C103.077,130.329,102.104,131.299,100.793,131.307z"/>
<path opacity="0.6" fill-rule="evenodd" clip-rule="evenodd" fill="#B1ADA0" d="M69.446,131.307
	c-1.333,0.023-2.314-0.889-2.357-2.188c-0.045-1.369,0.941-2.411,2.281-2.408c1.304,0.003,2.293,0.974,2.315,2.272
	C71.707,130.274,70.734,131.285,69.446,131.307z"/>
<path opacity="0.6" fill-rule="evenodd" clip-rule="evenodd" fill="#B1ADA0" d="M50.5,131.307c-1.301-0.012-2.272-0.996-2.265-2.296
	c0.007-1.299,0.984-2.281,2.286-2.3c1.338-0.019,2.343,1.018,2.309,2.381C52.799,130.394,51.826,131.319,50.5,131.307z"/>
<path opacity="0.6" fill-rule="evenodd" clip-rule="evenodd" fill="#B1ADA0" d="M44.246,131.307
	c-1.328-0.004-2.268-0.943-2.272-2.271c-0.003-1.319,0.946-2.299,2.254-2.324c1.318-0.024,2.383,1.043,2.354,2.36
	C46.551,130.348,45.545,131.31,44.246,131.307z"/>
<path opacity="0.6" fill-rule="evenodd" clip-rule="evenodd" fill="#B1ADA0" d="M19.154,86.312
	c-1.316,0.003-2.297-0.951-2.308-2.246c-0.011-1.362,1.012-2.381,2.358-2.35c1.302,0.031,2.27,1.039,2.245,2.338
	C21.423,85.396,20.494,86.31,19.154,86.312z"/>
<path opacity="0.6" fill-rule="evenodd" clip-rule="evenodd" fill="#B1ADA0" d="M44.215,86.312
	c-1.323-0.016-2.253-0.971-2.241-2.302c0.012-1.316,0.977-2.284,2.284-2.292c1.323-0.009,2.37,1.068,2.322,2.39
	C46.535,85.381,45.52,86.329,44.215,86.312z"/>
<path opacity="0.6" fill-rule="evenodd" clip-rule="evenodd" fill="#B1ADA0" d="M19.182,131.307
	c-1.32,0.015-2.312-0.927-2.335-2.218c-0.025-1.36,0.987-2.393,2.33-2.377c1.303,0.015,2.284,1.012,2.273,2.31
	C21.438,130.36,20.515,131.292,19.182,131.307z"/>
<path opacity="0.6" fill-rule="evenodd" clip-rule="evenodd" fill="#B1ADA0" d="M52.831,84.004c0.007,1.32-0.926,2.283-2.237,2.309
	c-1.364,0.027-2.383-0.978-2.359-2.327c0.023-1.297,1.014-2.267,2.318-2.269C51.844,81.716,52.824,82.7,52.831,84.004z"/>
<path opacity="0.6" fill-rule="evenodd" clip-rule="evenodd" fill="#B1ADA0" d="M69.358,86.312
	c-1.325-0.013-2.263-0.952-2.269-2.274c-0.007-1.31,0.954-2.302,2.245-2.321c1.352-0.018,2.376,1.01,2.35,2.359
	C71.66,85.367,70.663,86.326,69.358,86.312z"/>
<path opacity="0.6" fill-rule="evenodd" clip-rule="evenodd" fill="#B1ADA0" d="M100.741,86.312
	c-1.334-0.014-2.269-0.952-2.271-2.283c-0.003-1.307,0.968-2.295,2.271-2.313c1.343-0.016,2.357,1.015,2.333,2.375
	C103.052,85.375,102.052,86.327,100.741,86.312z"/>
<path opacity="0.6" fill-rule="evenodd" clip-rule="evenodd" fill="#B1ADA0" d="M176.132,123.808
	c-1.323,0.002-2.284-0.929-2.307-2.237c-0.023-1.361,0.993-2.389,2.331-2.358c1.302,0.03,2.268,1.02,2.264,2.321
	C178.417,122.826,177.431,123.806,176.132,123.808z"/>
<path opacity="0.6" fill-rule="evenodd" clip-rule="evenodd" fill="#B1ADA0" d="M159.566,121.65
	c-0.056,1.296-1.049,2.193-2.388,2.157c-1.292-0.034-2.245-1.052-2.208-2.353c0.039-1.342,1.119-2.322,2.468-2.239
	C158.722,119.298,159.623,120.328,159.566,121.65z"/>
<path opacity="0.6" fill-rule="evenodd" clip-rule="evenodd" fill="#B1ADA0" d="M151.052,123.808
	c-1.349,0.024-2.301-0.87-2.342-2.198c-0.041-1.367,0.951-2.399,2.306-2.396c1.276,0.003,2.293,1.014,2.301,2.288
	C153.324,122.783,152.343,123.783,151.052,123.808z"/>
<path opacity="0.6" fill-rule="evenodd" clip-rule="evenodd" fill="#B1ADA0" d="M125.837,123.808
	c-1.315-0.019-2.27-0.99-2.255-2.297c0.015-1.315,0.98-2.288,2.284-2.297c1.304-0.01,2.308,0.97,2.321,2.261
	C128.2,122.859,127.226,123.828,125.837,123.808z"/>
<path opacity="0.6" fill-rule="evenodd" clip-rule="evenodd" fill="#B1ADA0" d="M125.846,86.312
	c-1.314-0.015-2.274-0.985-2.264-2.289c0.011-1.315,0.974-2.291,2.276-2.305c1.354-0.014,2.375,1.03,2.324,2.377
	C128.135,85.432,127.189,86.329,125.846,86.312z"/>
<path opacity="0.6" fill-rule="evenodd" clip-rule="evenodd" fill="#B1ADA0" d="M125.911,108.809
	c-1.319,0.012-2.308-0.931-2.329-2.223c-0.022-1.361,0.991-2.391,2.334-2.372c1.304,0.018,2.282,1.016,2.269,2.313
	C128.172,107.866,127.242,108.798,125.911,108.809z"/>
<path opacity="0.6" fill-rule="evenodd" clip-rule="evenodd" fill="#B1ADA0" d="M19.202,101.311
	c-1.324,0.022-2.322-0.91-2.356-2.197c-0.035-1.367,0.962-2.403,2.31-2.398c1.302,0.003,2.295,0.995,2.294,2.288
	C21.45,100.346,20.53,101.288,19.202,101.311z"/>
<path opacity="0.6" fill-rule="evenodd" clip-rule="evenodd" fill="#B1ADA0" d="M44.303,101.311
	c-1.344,0.02-2.296-0.884-2.329-2.214c-0.035-1.366,0.964-2.392,2.32-2.381c1.276,0.01,2.285,1.025,2.287,2.301
	C46.582,100.302,45.6,101.291,44.303,101.311z"/>
<path opacity="0.6" fill-rule="evenodd" clip-rule="evenodd" fill="#B1ADA0" d="M52.831,99.029c-0.004,1.322-0.94,2.266-2.263,2.282
	c-1.362,0.016-2.372-1.003-2.333-2.353c0.038-1.297,1.041-2.257,2.345-2.243C51.87,96.729,52.835,97.721,52.831,99.029z"/>
<path opacity="0.6" fill-rule="evenodd" clip-rule="evenodd" fill="#B1ADA0" d="M100.745,108.809
	c-1.335-0.012-2.271-0.947-2.276-2.279c-0.005-1.306,0.964-2.297,2.268-2.315c1.343-0.019,2.359,1.009,2.337,2.37
	C103.054,107.87,102.056,108.821,100.745,108.809z"/>
<path opacity="0.6" fill-rule="evenodd" clip-rule="evenodd" fill="#B1ADA0" d="M69.427,101.311
	c-1.327,0.014-2.303-0.907-2.337-2.207c-0.037-1.365,0.963-2.402,2.3-2.389c1.302,0.013,2.283,0.993,2.295,2.291
	C71.697,100.295,70.717,101.297,69.427,101.311z"/>
<path opacity="0.6" fill-rule="evenodd" clip-rule="evenodd" fill="#B1ADA0" d="M69.396,108.809
	c-1.323,0.003-2.284-0.929-2.306-2.237c-0.023-1.361,0.993-2.389,2.332-2.358c1.302,0.03,2.267,1.021,2.264,2.323
	C71.681,107.828,70.696,108.807,69.396,108.809z"/>
<path opacity="0.6" fill-rule="evenodd" clip-rule="evenodd" fill="#B1ADA0" d="M52.831,106.519c0,1.321-0.935,2.273-2.254,2.291
	c-1.362,0.02-2.375-0.993-2.342-2.343c0.032-1.297,1.03-2.26,2.335-2.251C51.86,104.223,52.831,105.211,52.831,106.519z"/>
<path opacity="0.6" fill-rule="evenodd" clip-rule="evenodd" fill="#B1ADA0" d="M44.295,108.809
	c-1.343,0.018-2.292-0.891-2.321-2.221c-0.03-1.369,0.968-2.388,2.328-2.373c1.276,0.014,2.281,1.033,2.279,2.309
	C46.578,107.81,45.594,108.793,44.295,108.809z"/>
<path opacity="0.6" fill-rule="evenodd" clip-rule="evenodd" fill="#B1ADA0" d="M100.791,101.311
	c-1.342,0.007-2.291-0.904-2.321-2.233c-0.032-1.355,0.991-2.385,2.345-2.361c1.301,0.023,2.257,1.005,2.259,2.322
	C103.076,100.335,102.102,101.303,100.791,101.311z"/>
<path opacity="0.6" fill-rule="evenodd" clip-rule="evenodd" fill="#B1ADA0" d="M19.111,108.809
	c-1.315-0.014-2.274-0.983-2.265-2.288c0.01-1.316,0.974-2.292,2.276-2.306c1.354-0.014,2.375,1.031,2.325,2.378
	C21.398,107.934,20.458,108.825,19.111,108.809z"/>
<path opacity="0.6" fill-rule="evenodd" clip-rule="evenodd" fill="#B1ADA0" d="M125.908,101.311
	c-1.317,0.01-2.307-0.936-2.326-2.226c-0.021-1.361,0.993-2.39,2.337-2.37c1.303,0.02,2.28,1.019,2.266,2.317
	C128.171,100.369,127.24,101.3,125.908,101.311z"/>
<path opacity="0.6" fill-rule="evenodd" clip-rule="evenodd" fill="#B1ADA0" d="M207.45,101.311
	c-1.322-0.024-2.246-0.976-2.244-2.313c0.002-1.292,0.997-2.281,2.299-2.282c1.348-0.001,2.342,1.035,2.305,2.402
	C209.773,100.406,208.774,101.335,207.45,101.311z"/>
<path opacity="0.6" fill-rule="evenodd" clip-rule="evenodd" fill="#B1ADA0" d="M150.955,101.311
	c-1.329-0.014-2.255-0.959-2.245-2.295c0.008-1.317,0.968-2.288,2.276-2.301c1.319-0.012,2.373,1.065,2.33,2.384
	C153.274,100.372,152.259,101.324,150.955,101.311z"/>
<path opacity="0.6" fill-rule="evenodd" clip-rule="evenodd" fill="#B1ADA0" d="M159.567,99.004
	c0.006,1.319-0.928,2.281-2.239,2.307c-1.364,0.026-2.383-0.979-2.356-2.329c0.023-1.297,1.015-2.267,2.318-2.267
	C158.582,96.715,159.562,97.699,159.567,99.004z"/>
<path opacity="0.6" fill-rule="evenodd" clip-rule="evenodd" fill="#B1ADA0" d="M176.113,101.311
	c-1.325-0.006-2.273-0.941-2.288-2.257c-0.016-1.359,1.011-2.381,2.35-2.339c1.302,0.04,2.259,1.039,2.245,2.341
	C178.405,100.348,177.416,101.316,176.113,101.311z"/>
<path opacity="0.6" fill-rule="evenodd" clip-rule="evenodd" fill="#B1ADA0" d="M69.452,93.812
	c-1.334,0.025-2.317-0.883-2.363-2.182c-0.048-1.369,0.936-2.413,2.275-2.414c1.303,0,2.295,0.967,2.32,2.266
	C71.71,92.773,70.74,93.787,69.452,93.812z"/>
<path opacity="0.6" fill-rule="evenodd" clip-rule="evenodd" fill="#B1ADA0" d="M125.876,116.31
	c-1.317-0.004-2.29-0.962-2.294-2.259c-0.005-1.362,1.022-2.375,2.37-2.335c1.305,0.037,2.263,1.045,2.231,2.347
	C128.152,115.4,127.215,116.312,125.876,116.31z"/>
<path opacity="0.6" fill-rule="evenodd" clip-rule="evenodd" fill="#B1ADA0" d="M100.76,93.812c-1.338-0.005-2.277-0.934-2.29-2.264
	c-0.014-1.305,0.949-2.305,2.25-2.332c1.346-0.029,2.367,0.995,2.353,2.354C103.061,92.859,102.072,93.817,100.76,93.812z"/>
<path opacity="0.6" fill-rule="evenodd" clip-rule="evenodd" fill="#B1ADA0" d="M100.711,116.31
	c-1.327-0.026-2.254-0.981-2.243-2.313c0.012-1.303,0.998-2.281,2.303-2.283c1.347,0,2.341,1.037,2.303,2.403
	C103.038,115.4,102.03,116.334,100.711,116.31z"/>
<path opacity="0.6" fill-rule="evenodd" clip-rule="evenodd" fill="#B1ADA0" d="M69.353,116.31c-1.323-0.017-2.259-0.96-2.263-2.282
	c-0.004-1.308,0.96-2.299,2.25-2.313c1.353-0.015,2.374,1.016,2.344,2.364C71.656,115.37,70.658,116.324,69.353,116.31z"/>
<path opacity="0.6" fill-rule="evenodd" clip-rule="evenodd" fill="#B1ADA0" d="M52.831,114.07
	c-0.021,1.308-0.982,2.241-2.306,2.239c-1.31-0.003-2.284-0.97-2.289-2.272c-0.005-1.348,1.036-2.362,2.386-2.323
	C51.911,111.752,52.853,112.755,52.831,114.07z"/>
<path opacity="0.6" fill-rule="evenodd" clip-rule="evenodd" fill="#B1ADA0" d="M44.244,116.31c-1.327-0.005-2.268-0.948-2.27-2.274
	c-0.002-1.319,0.948-2.297,2.256-2.321c1.318-0.025,2.382,1.043,2.351,2.362C46.55,115.35,45.543,116.313,44.244,116.31z"/>
<path opacity="0.6" fill-rule="evenodd" clip-rule="evenodd" fill="#B1ADA0" d="M125.913,93.812
	c-1.319,0.013-2.309-0.931-2.331-2.222c-0.022-1.359,0.989-2.391,2.332-2.373c1.304,0.016,2.283,1.014,2.271,2.311
	C128.173,92.865,127.243,93.799,125.913,93.812z"/>
<path opacity="0.6" fill-rule="evenodd" clip-rule="evenodd" fill="#B1ADA0" d="M150.949,93.812
	c-1.329-0.017-2.252-0.965-2.239-2.302c0.011-1.316,0.976-2.284,2.283-2.293c1.322-0.01,2.37,1.067,2.323,2.39
	C153.271,92.879,152.253,93.829,150.949,93.812z"/>
<path opacity="0.6" fill-rule="evenodd" clip-rule="evenodd" fill="#B1ADA0" d="M159.567,91.5c0.008,1.319-0.924,2.285-2.234,2.312
	c-1.364,0.029-2.385-0.975-2.361-2.323c0.02-1.298,1.009-2.27,2.312-2.273C158.575,89.213,159.559,90.196,159.567,91.5z"/>
<path opacity="0.6" fill-rule="evenodd" clip-rule="evenodd" fill="#B1ADA0" d="M19.088,116.31
	c-1.312-0.024-2.263-1.005-2.242-2.313c0.021-1.311,0.998-2.281,2.299-2.283c1.302-0.001,2.3,0.985,2.305,2.279
	C21.456,115.382,20.484,116.334,19.088,116.31z"/>
<path opacity="0.6" fill-rule="evenodd" clip-rule="evenodd" fill="#B1ADA0" d="M176.113,93.812
	c-1.325-0.005-2.273-0.943-2.288-2.257c-0.016-1.36,1.011-2.381,2.351-2.34c1.301,0.041,2.259,1.04,2.244,2.342
	C178.405,92.849,177.414,93.817,176.113,93.812z"/>
<path opacity="0.6" fill-rule="evenodd" clip-rule="evenodd" fill="#B1ADA0" d="M207.499,93.812
	c-1.335-0.005-2.269-0.927-2.292-2.264c-0.023-1.299,0.946-2.303,2.25-2.332c1.344-0.029,2.364,0.992,2.353,2.354
	C209.798,92.863,208.815,93.816,207.499,93.812z"/>
<path opacity="0.6" fill-rule="evenodd" clip-rule="evenodd" fill="#B1ADA0" d="M176.179,108.809
	c-1.331,0.022-2.312-0.891-2.354-2.19c-0.043-1.368,0.946-2.409,2.284-2.405c1.303,0.006,2.291,0.977,2.312,2.274
	C178.441,107.781,177.466,108.79,176.179,108.809z"/>
<path opacity="0.6" fill-rule="evenodd" clip-rule="evenodd" fill="#B1ADA0" d="M159.566,106.569c-0.021,1.31-0.98,2.242-2.305,2.24
	c-1.31-0.001-2.284-0.967-2.29-2.269c-0.006-1.35,1.033-2.364,2.385-2.325C158.646,104.251,159.587,105.255,159.566,106.569z"/>
<path opacity="0.6" fill-rule="evenodd" clip-rule="evenodd" fill="#B1ADA0" d="M150.941,108.809
	c-1.327-0.02-2.248-0.971-2.231-2.309c0.015-1.314,0.984-2.281,2.292-2.285c1.325-0.006,2.365,1.073,2.314,2.396
	C153.267,107.886,152.246,108.829,150.941,108.809z"/>
<path opacity="0.6" fill-rule="evenodd" clip-rule="evenodd" fill="#B1ADA0" d="M69.426,71.315
	c-1.327,0.014-2.302-0.908-2.337-2.208c-0.037-1.364,0.964-2.402,2.301-2.388c1.301,0.013,2.282,0.993,2.294,2.291
	C71.697,70.301,70.717,71.301,69.426,71.315z"/>
<path opacity="0.6" fill-rule="evenodd" clip-rule="evenodd" fill="#B1ADA0" d="M100.766,146.305
	c-1.339-0.002-2.28-0.928-2.295-2.257c-0.018-1.354,1.018-2.375,2.37-2.336c1.299,0.038,2.244,1.03,2.234,2.347
	C103.063,145.348,102.077,146.309,100.766,146.305z"/>
<path opacity="0.6" fill-rule="evenodd" clip-rule="evenodd" fill="#B1ADA0" d="M100.779,71.315
	c-1.342,0.002-2.285-0.913-2.309-2.244c-0.026-1.355,1.003-2.381,2.356-2.35c1.301,0.029,2.251,1.016,2.247,2.333
	C103.07,70.347,102.09,71.312,100.779,71.315z"/>
<path opacity="0.6" fill-rule="evenodd" clip-rule="evenodd" fill="#B1ADA0" d="M69.424,146.305c-1.326,0.014-2.301-0.91-2.334-2.21
	c-0.036-1.363,0.966-2.401,2.304-2.386c1.301,0.016,2.281,0.995,2.292,2.295C71.695,145.295,70.716,146.292,69.424,146.305z"/>
<path opacity="0.6" fill-rule="evenodd" clip-rule="evenodd" fill="#B1ADA0" d="M52.831,144.02
	c-0.002,1.321-0.938,2.269-2.259,2.285c-1.362,0.018-2.374-0.999-2.336-2.35c0.035-1.297,1.036-2.257,2.34-2.245
	C51.866,141.721,52.833,142.71,52.831,144.02z"/>
<path opacity="0.6" fill-rule="evenodd" clip-rule="evenodd" fill="#B1ADA0" d="M44.313,146.305
	c-1.345,0.023-2.301-0.878-2.339-2.204c-0.039-1.366,0.956-2.396,2.311-2.39c1.276,0.005,2.29,1.016,2.296,2.291
	C46.587,145.286,45.606,146.281,44.313,146.305z"/>
<path opacity="0.6" fill-rule="evenodd" clip-rule="evenodd" fill="#B1ADA0" d="M125.913,71.315
	c-1.319,0.012-2.309-0.931-2.331-2.222c-0.022-1.36,0.989-2.391,2.332-2.374c1.304,0.017,2.283,1.014,2.271,2.311
	C128.173,70.369,127.243,71.302,125.913,71.315z"/>
<path opacity="0.6" fill-rule="evenodd" clip-rule="evenodd" fill="#B1ADA0" d="M176.083,138.807
	c-1.32-0.019-2.256-0.966-2.258-2.287c-0.002-1.308,0.964-2.297,2.256-2.309c1.353-0.013,2.37,1.021,2.339,2.37
	C178.389,137.872,177.391,138.823,176.083,138.807z"/>
<path opacity="0.6" fill-rule="evenodd" clip-rule="evenodd" fill="#B1ADA0" d="M159.566,136.565
	c-0.021,1.31-0.98,2.243-2.305,2.241c-1.31-0.003-2.284-0.968-2.29-2.271c-0.006-1.351,1.033-2.363,2.385-2.325
	C158.646,134.248,159.587,135.252,159.566,136.565z"/>
<path opacity="0.6" fill-rule="evenodd" clip-rule="evenodd" fill="#B1ADA0" d="M150.979,138.807
	c-1.335-0.005-2.267-0.936-2.27-2.271c-0.004-1.319,0.944-2.299,2.253-2.324c1.318-0.026,2.384,1.041,2.354,2.359
	C153.287,137.845,152.279,138.811,150.979,138.807z"/>
<path opacity="0.6" fill-rule="evenodd" clip-rule="evenodd" fill="#B1ADA0" d="M123.582,136.491
	c0.022-1.311,1.001-2.279,2.301-2.279c1.303-0.001,2.3,0.986,2.303,2.279c0.004,1.384-0.976,2.341-2.365,2.315
	C124.509,138.78,123.56,137.798,123.582,136.491z"/>
<path opacity="0.6" fill-rule="evenodd" clip-rule="evenodd" fill="#B1ADA0" d="M100.761,153.804
	c-1.339-0.005-2.278-0.933-2.291-2.262c-0.014-1.308,0.948-2.305,2.25-2.333c1.346-0.03,2.367,0.991,2.353,2.353
	C103.061,152.851,102.072,153.809,100.761,153.804z"/>
<path opacity="0.6" fill-rule="evenodd" clip-rule="evenodd" fill="#B1ADA0" d="M19.178,71.315c-1.32,0.012-2.31-0.931-2.332-2.222
	c-0.022-1.361,0.99-2.391,2.334-2.373c1.303,0.018,2.282,1.016,2.27,2.313C21.436,70.374,20.512,71.302,19.178,71.315z"/>
<path opacity="0.6" fill-rule="evenodd" clip-rule="evenodd" fill="#B1ADA0" d="M44.266,71.315
	c-1.334,0.005-2.278-0.923-2.292-2.251c-0.014-1.319,0.925-2.305,2.233-2.342c1.324-0.038,2.392,1.015,2.374,2.337
	C46.562,70.339,45.566,71.31,44.266,71.315z"/>
<path opacity="0.6" fill-rule="evenodd" clip-rule="evenodd" fill="#B1ADA0" d="M176.113,146.305
	c-1.325-0.004-2.273-0.941-2.288-2.256c-0.016-1.36,1.011-2.381,2.35-2.34c1.302,0.04,2.259,1.039,2.245,2.341
	C178.405,145.341,177.415,146.311,176.113,146.305z"/>
<path opacity="0.6" fill-rule="evenodd" clip-rule="evenodd" fill="#B1ADA0" d="M157.229,146.305c-1.3-0.015-2.27-1.004-2.257-2.303
	c0.011-1.299,0.991-2.279,2.293-2.293c1.338-0.015,2.339,1.024,2.302,2.389C159.531,145.398,158.556,146.32,157.229,146.305z"/>
<path opacity="0.6" fill-rule="evenodd" clip-rule="evenodd" fill="#B1ADA0" d="M151.021,146.305
	c-1.344,0.014-2.287-0.896-2.312-2.229c-0.026-1.369,0.977-2.384,2.336-2.364c1.277,0.018,2.277,1.037,2.271,2.316
	C153.311,145.311,152.32,146.292,151.021,146.305z"/>
<path opacity="0.6" fill-rule="evenodd" clip-rule="evenodd" fill="#B1ADA0" d="M52.831,69.076
	c-0.022,1.309-0.982,2.241-2.306,2.239c-1.31-0.002-2.284-0.97-2.289-2.271c-0.005-1.349,1.037-2.363,2.387-2.323
	C51.912,66.758,52.853,67.762,52.831,69.076z"/>
<path opacity="0.6" fill-rule="evenodd" clip-rule="evenodd" fill="#B1ADA0" d="M125.937,146.305
	c-1.323,0.021-2.321-0.91-2.354-2.198c-0.035-1.365,0.963-2.399,2.311-2.396c1.301,0.004,2.293,0.993,2.293,2.286
	C128.185,145.335,127.261,146.282,125.937,146.305z"/>
<path opacity="0.6" fill-rule="evenodd" clip-rule="evenodd" fill="#B1ADA0" d="M19.116,138.807c-1.316-0.014-2.277-0.98-2.27-2.284
	c0.008-1.316,0.97-2.294,2.271-2.31c1.354-0.019,2.377,1.025,2.331,2.372C21.401,137.925,20.462,138.818,19.116,138.807z"/>
<path opacity="0.6" fill-rule="evenodd" clip-rule="evenodd" fill="#B1ADA0" d="M159.566,129.061
	c-0.02,1.312-0.974,2.245-2.298,2.246c-1.312,0.001-2.288-0.961-2.297-2.264c-0.01-1.351,1.027-2.365,2.379-2.331
	C158.64,126.746,159.585,127.747,159.566,129.061z"/>
<path opacity="0.6" fill-rule="evenodd" clip-rule="evenodd" fill="#B1ADA0" d="M69.346,78.814c-1.32-0.019-2.255-0.966-2.256-2.289
	c-0.001-1.308,0.966-2.297,2.257-2.307c1.353-0.011,2.371,1.021,2.338,2.371C71.652,77.881,70.652,78.832,69.346,78.814z"/>
<path opacity="0.6" fill-rule="evenodd" clip-rule="evenodd" fill="#B1ADA0" d="M44.192,138.807
	c-1.322-0.026-2.242-0.989-2.219-2.325c0.022-1.312,0.999-2.273,2.306-2.271c1.324,0.004,2.359,1.089,2.3,2.412
	C46.523,137.896,45.501,138.83,44.192,138.807z"/>
<path opacity="0.6" fill-rule="evenodd" clip-rule="evenodd" fill="#B1ADA0" d="M52.831,136.501c0.005,1.32-0.927,2.28-2.241,2.306
	c-1.363,0.024-2.381-0.982-2.355-2.331c0.025-1.298,1.018-2.266,2.321-2.265C51.848,134.211,52.826,135.196,52.831,136.501z"/>
<path opacity="0.6" fill-rule="evenodd" clip-rule="evenodd" fill="#B1ADA0" d="M150.959,131.307
	c-1.329-0.012-2.256-0.955-2.249-2.291c0.006-1.317,0.964-2.289,2.272-2.304c1.318-0.016,2.375,1.062,2.334,2.379
	C153.276,130.364,152.261,131.319,150.959,131.307z"/>
<path opacity="0.6" fill-rule="evenodd" clip-rule="evenodd" fill="#B1ADA0" d="M175.982,131.306
	c-1.297-0.058-2.196-1.052-2.157-2.385c0.039-1.289,1.066-2.253,2.355-2.211c1.348,0.045,2.323,1.122,2.235,2.471
	C178.332,130.465,177.301,131.366,175.982,131.306z"/>
<path opacity="0.6" fill-rule="evenodd" clip-rule="evenodd" fill="#B1ADA0" d="M100.791,78.814
	c-1.342,0.006-2.29-0.904-2.321-2.233c-0.032-1.355,0.991-2.385,2.345-2.361c1.301,0.022,2.257,1.003,2.259,2.321
	C103.076,77.839,102.102,78.807,100.791,78.814z"/>
<path opacity="0.6" fill-rule="evenodd" clip-rule="evenodd" fill="#B1ADA0" d="M69.375,138.807
	c-1.325-0.007-2.272-0.944-2.286-2.26c-0.013-1.311,0.938-2.309,2.228-2.336c1.351-0.028,2.383,0.993,2.367,2.343
	C71.669,137.845,70.678,138.812,69.375,138.807z"/>
<path opacity="0.6" fill-rule="evenodd" clip-rule="evenodd" fill="#B1ADA0" d="M207.542,78.814
	c-1.344,0.013-2.288-0.886-2.334-2.221c-0.047-1.348,0.977-2.39,2.33-2.374c1.3,0.015,2.264,0.994,2.271,2.31
	C209.817,77.832,208.857,78.8,207.542,78.814z"/>
<path opacity="0.6" fill-rule="evenodd" clip-rule="evenodd" fill="#B1ADA0" d="M159.567,76.492
	c0.012,1.321-0.916,2.291-2.224,2.323c-1.366,0.032-2.391-0.965-2.372-2.313c0.016-1.299,1-2.274,2.303-2.283
	C158.565,74.21,159.554,75.19,159.567,76.492z"/>
<path opacity="0.6" fill-rule="evenodd" clip-rule="evenodd" fill="#B1ADA0" d="M19.153,78.814
	c-1.316,0.002-2.296-0.954-2.307-2.247c-0.01-1.364,1.012-2.381,2.358-2.349c1.302,0.03,2.27,1.038,2.244,2.338
	C21.422,77.897,20.494,78.811,19.153,78.814z"/>
<path opacity="0.6" fill-rule="evenodd" clip-rule="evenodd" fill="#B1ADA0" d="M44.277,78.814
	c-1.338,0.008-2.284-0.912-2.304-2.241c-0.02-1.367,0.988-2.379,2.346-2.354c1.278,0.025,2.273,1.048,2.261,2.327
	C46.568,77.829,45.577,78.805,44.277,78.814z"/>
<path opacity="0.6" fill-rule="evenodd" clip-rule="evenodd" fill="#B1ADA0" d="M151.021,78.814
	c-1.344,0.012-2.287-0.897-2.312-2.23c-0.026-1.369,0.977-2.384,2.336-2.365c1.277,0.017,2.277,1.039,2.271,2.317
	C153.311,77.82,152.32,78.801,151.021,78.814z"/>
<path opacity="0.6" fill-rule="evenodd" clip-rule="evenodd" fill="#B1ADA0" d="M100.713,138.807
	c-1.327-0.025-2.255-0.98-2.245-2.312c0.011-1.303,0.996-2.281,2.3-2.284c1.347-0.003,2.344,1.035,2.306,2.4
	C103.039,137.895,102.032,138.83,100.713,138.807z"/>
<path opacity="0.6" fill-rule="evenodd" clip-rule="evenodd" fill="#B1ADA0" d="M125.928,78.814
	c-1.321,0.018-2.316-0.917-2.346-2.207c-0.03-1.365,0.971-2.396,2.318-2.389c1.3,0.008,2.29,1.001,2.284,2.296
	C128.181,77.851,127.255,78.795,125.928,78.814z"/>
<path opacity="0.6" fill-rule="evenodd" clip-rule="evenodd" fill="#B1ADA0" d="M50.5,78.814c-1.301-0.012-2.272-0.997-2.265-2.296
	c0.007-1.299,0.984-2.283,2.286-2.3c1.338-0.019,2.343,1.018,2.309,2.381C52.799,77.901,51.826,78.827,50.5,78.814z"/>
<path opacity="0.6" fill-rule="evenodd" clip-rule="evenodd" fill="#B1ADA0" d="M125.835,131.307
	c-1.314-0.019-2.268-0.992-2.253-2.3c0.016-1.315,0.982-2.286,2.286-2.295c1.304-0.008,2.307,0.972,2.319,2.265
	C128.199,130.359,127.224,131.327,125.835,131.307z"/>
<path opacity="0.6" fill-rule="evenodd" clip-rule="evenodd" fill="#B1ADA0" d="M75.635,86.312c-1.3-0.012-2.288-0.989-2.296-2.273
	c-0.009-1.327,1.058-2.362,2.391-2.322c1.293,0.04,2.238,1.048,2.216,2.365C77.924,85.408,76.975,86.325,75.635,86.312z"/>
<path opacity="0.6" fill-rule="evenodd" clip-rule="evenodd" fill="#B1ADA0" d="M65.362,84.047c-0.003,1.348-0.911,2.26-2.254,2.266
	c-1.319,0.005-2.28-0.936-2.298-2.25c-0.019-1.374,0.978-2.371,2.341-2.345C64.467,81.743,65.365,82.689,65.362,84.047z"/>
<path opacity="0.6" fill-rule="evenodd" clip-rule="evenodd" fill="#B1ADA0" d="M59.11,84.046c-0.011,1.319-0.964,2.265-2.282,2.267
	c-1.345,0.002-2.26-0.905-2.27-2.249c-0.009-1.407,0.957-2.385,2.319-2.346C58.196,81.755,59.122,82.721,59.11,84.046z"/>
<path opacity="0.6" fill-rule="evenodd" clip-rule="evenodd" fill="#B1ADA0" d="M56.88,131.307
	c-1.356,0.023-2.294-0.864-2.322-2.197c-0.029-1.414,0.909-2.406,2.267-2.397c1.319,0.009,2.274,0.96,2.285,2.275
	C59.122,130.314,58.189,131.284,56.88,131.307z"/>
<path opacity="0.6" fill-rule="evenodd" clip-rule="evenodd" fill="#B1ADA0" d="M65.362,129.071
	c-0.014,1.34-0.935,2.242-2.283,2.235c-1.317-0.007-2.264-0.958-2.269-2.281c-0.005-1.363,1.013-2.357,2.371-2.315
	C64.492,126.752,65.376,127.71,65.362,129.071z"/>
<path opacity="0.6" fill-rule="evenodd" clip-rule="evenodd" fill="#B1ADA0" d="M75.671,131.307c-1.3,0.002-2.304-0.962-2.331-2.237
	c-0.028-1.318,1.037-2.385,2.354-2.358c1.304,0.027,2.256,1.012,2.252,2.329C77.942,130.364,76.999,131.305,75.671,131.307z"/>
<path opacity="0.6" fill-rule="evenodd" clip-rule="evenodd" fill="#B1ADA0" d="M165.845,129.147
	c-0.057,1.294-1.063,2.202-2.39,2.158c-1.368-0.044-2.242-1.048-2.159-2.481c0.074-1.305,1.102-2.196,2.425-2.102
	C165.036,126.814,165.904,127.805,165.845,129.147z"/>
<path opacity="0.6" fill-rule="evenodd" clip-rule="evenodd" fill="#B1ADA0" d="M169.782,131.307
	c-1.31-0.021-2.245-0.988-2.237-2.313c0.009-1.319,0.962-2.272,2.279-2.281c1.364-0.009,2.301,0.977,2.273,2.392
	C172.072,130.438,171.138,131.328,169.782,131.307z"/>
<path opacity="0.6" fill-rule="evenodd" clip-rule="evenodd" fill="#B1ADA0" d="M182.395,131.307
	c-1.301-0.003-2.298-0.972-2.319-2.25c-0.022-1.321,1.046-2.378,2.367-2.345c1.306,0.034,2.25,1.021,2.24,2.341
	C184.673,130.376,183.725,131.31,182.395,131.307z"/>
<path opacity="0.6" fill-rule="evenodd" clip-rule="evenodd" fill="#B1ADA0" d="M75.72,78.814c-1.307,0.022-2.327-0.917-2.38-2.189
	c-0.056-1.323,0.981-2.407,2.306-2.407c1.305,0,2.281,0.968,2.301,2.279C77.967,77.829,77.042,78.792,75.72,78.814z"/>
<path opacity="0.6" fill-rule="evenodd" clip-rule="evenodd" fill="#B1ADA0" d="M56.831,138.807
	c-1.346,0.002-2.262-0.905-2.272-2.247c-0.01-1.361,0.882-2.318,2.191-2.35c1.366-0.033,2.371,0.956,2.36,2.325
	C59.1,137.855,58.148,138.803,56.831,138.807z"/>
<path opacity="0.6" fill-rule="evenodd" clip-rule="evenodd" fill="#B1ADA0" d="M65.362,136.474c0.021,1.365-0.855,2.3-2.188,2.333
	c-1.378,0.033-2.372-0.938-2.365-2.311c0.006-1.321,0.956-2.274,2.275-2.285C64.402,134.2,65.341,135.134,65.362,136.474z"/>
<path opacity="0.6" fill-rule="evenodd" clip-rule="evenodd" fill="#B1ADA0" d="M75.641,138.807c-1.3-0.011-2.29-0.986-2.302-2.27
	c-0.013-1.326,1.056-2.366,2.385-2.322c1.307,0.043,2.241,1.033,2.222,2.354C77.926,137.896,76.979,138.816,75.641,138.807z"/>
<path opacity="0.6" fill-rule="evenodd" clip-rule="evenodd" fill="#B1ADA0" d="M169.774,146.305
	c-1.308-0.024-2.24-0.994-2.229-2.321c0.012-1.315,0.972-2.27,2.287-2.272c1.362-0.005,2.297,0.983,2.266,2.397
	C172.068,145.442,171.131,146.329,169.774,146.305z"/>
<path opacity="0.6" fill-rule="evenodd" clip-rule="evenodd" fill="#B1ADA0" d="M165.846,144.011c0,1.323-0.941,2.281-2.256,2.294
	c-1.35,0.014-2.277-0.884-2.296-2.224c-0.02-1.411,0.928-2.393,2.292-2.37C164.908,141.729,165.846,142.685,165.846,144.011z"/>
<path opacity="0.6" fill-rule="evenodd" clip-rule="evenodd" fill="#B1ADA0" d="M56.78,71.315c-1.339-0.019-2.23-0.941-2.222-2.298
	c0.008-1.348,0.93-2.292,2.242-2.297c1.366-0.006,2.343,1,2.309,2.375C59.078,70.407,58.105,71.333,56.78,71.315z"/>
<path opacity="0.6" fill-rule="evenodd" clip-rule="evenodd" fill="#B1ADA0" d="M63.137,71.315
	c-1.326,0.017-2.295-0.909-2.327-2.223c-0.033-1.375,0.949-2.384,2.312-2.373c1.316,0.01,2.232,0.951,2.24,2.301
	C65.369,70.377,64.477,71.297,63.137,71.315z"/>
<path opacity="0.6" fill-rule="evenodd" clip-rule="evenodd" fill="#B1ADA0" d="M75.616,71.315c-1.296-0.02-2.278-1.009-2.277-2.293
	c0.001-1.275,1.01-2.291,2.285-2.301c1.354-0.011,2.354,1.017,2.322,2.382C77.915,70.43,76.96,71.335,75.616,71.315z"/>
<path opacity="0.6" fill-rule="evenodd" clip-rule="evenodd" fill="#B1ADA0" d="M75.713,146.305
	c-1.306,0.02-2.324-0.922-2.374-2.195c-0.053-1.323,0.987-2.402,2.312-2.398c1.304,0.002,2.277,0.972,2.295,2.284
	C77.964,145.324,77.036,146.285,75.713,146.305z"/>
<path opacity="0.6" fill-rule="evenodd" clip-rule="evenodd" fill="#B1ADA0" d="M60.813,143.865c0.062-1.293,1.09-2.214,2.401-2.152
	c1.359,0.062,2.226,1.077,2.146,2.515c-0.072,1.296-1.079,2.152-2.44,2.077C61.646,146.232,60.749,145.193,60.813,143.865z"/>
<path opacity="0.6" fill-rule="evenodd" clip-rule="evenodd" fill="#B1ADA0" d="M59.11,144.054
	c-0.019,1.315-0.979,2.257-2.299,2.251c-1.342-0.005-2.25-0.918-2.252-2.268c-0.003-1.403,0.973-2.374,2.336-2.326
	C58.211,141.757,59.128,142.727,59.11,144.054z"/>
<path opacity="0.6" fill-rule="evenodd" clip-rule="evenodd" fill="#B1ADA0" d="M182.392,138.807
	c-1.3-0.005-2.297-0.975-2.316-2.253c-0.021-1.321,1.048-2.377,2.37-2.341c1.306,0.033,2.248,1.021,2.237,2.342
	C184.671,137.879,183.723,138.811,182.392,138.807z"/>
<path opacity="0.6" fill-rule="evenodd" clip-rule="evenodd" fill="#B1ADA0" d="M172.098,136.657
	c-0.047,1.316-1.014,2.193-2.371,2.149c-1.294-0.044-2.214-1.042-2.182-2.369c0.032-1.308,1.02-2.249,2.335-2.227
	C171.241,134.232,172.146,135.233,172.098,136.657z"/>
<path opacity="0.6" fill-rule="evenodd" clip-rule="evenodd" fill="#B1ADA0" d="M163.521,138.807
	c-1.34-0.017-2.233-0.938-2.228-2.292c0.007-1.351,0.92-2.292,2.237-2.304c1.362-0.013,2.345,0.993,2.314,2.369
	C165.816,137.895,164.847,138.822,163.521,138.807z"/>
<path opacity="0.6" fill-rule="evenodd" clip-rule="evenodd" fill="#B1ADA0" d="M59.109,76.57c-0.021,1.316-0.982,2.252-2.305,2.245
	c-1.388-0.009-2.293-0.976-2.246-2.399c0.044-1.321,1.028-2.245,2.341-2.197C58.216,74.269,59.131,75.241,59.109,76.57z"/>
<path opacity="0.6" fill-rule="evenodd" clip-rule="evenodd" fill="#B1ADA0" d="M65.362,76.501c0.014,1.361-0.87,2.287-2.207,2.313
	c-1.324,0.024-2.306-0.899-2.345-2.205c-0.041-1.379,0.931-2.392,2.294-2.391C64.423,74.22,65.348,75.156,65.362,76.501z"/>
<path opacity="0.6" fill-rule="evenodd" clip-rule="evenodd" fill="#B1ADA0" d="M172.098,99.082
	c-0.017,1.341-0.94,2.239-2.292,2.229c-1.315-0.011-2.259-0.965-2.261-2.289c-0.001-1.364,1.021-2.356,2.38-2.307
	C171.241,96.761,172.115,97.715,172.098,99.082z"/>
<path opacity="0.6" fill-rule="evenodd" clip-rule="evenodd" fill="#B1ADA0" d="M182.405,101.311
	c-1.299,0.001-2.303-0.963-2.33-2.239c-0.028-1.318,1.038-2.385,2.356-2.357c1.304,0.027,2.255,1.013,2.251,2.329
	C184.679,100.37,183.734,101.309,182.405,101.311z"/>
<path opacity="0.6" fill-rule="evenodd" clip-rule="evenodd" fill="#B1ADA0" d="M165.846,99.016
	c0.001,1.324-0.941,2.281-2.255,2.295c-1.351,0.013-2.278-0.883-2.297-2.223c-0.02-1.413,0.926-2.392,2.291-2.372
	C164.907,96.735,165.845,97.689,165.846,99.016z"/>
<path opacity="0.6" fill-rule="evenodd" clip-rule="evenodd" fill="#B1ADA0" d="M73.339,98.981c0.02-1.271,1.047-2.274,2.322-2.266
	c1.349,0.009,2.337,1.054,2.285,2.42c-0.05,1.315-1.024,2.211-2.367,2.176C74.295,101.277,73.319,100.262,73.339,98.981z"/>
<path opacity="0.6" fill-rule="evenodd" clip-rule="evenodd" fill="#B1ADA0" d="M56.786,108.809
	c-1.339-0.016-2.234-0.935-2.228-2.291c0.006-1.351,0.924-2.296,2.236-2.305c1.367-0.008,2.347,0.995,2.315,2.371
	C59.08,107.899,58.111,108.825,56.786,108.809z"/>
<path opacity="0.6" fill-rule="evenodd" clip-rule="evenodd" fill="#B1ADA0" d="M63.065,108.809
	c-1.314-0.012-2.256-0.969-2.255-2.293c0-1.327,0.938-2.28,2.259-2.3c1.365-0.021,2.312,0.959,2.292,2.371
	C65.343,107.926,64.417,108.823,63.065,108.809z"/>
<path opacity="0.6" fill-rule="evenodd" clip-rule="evenodd" fill="#B1ADA0" d="M75.645,108.809
	c-1.299-0.008-2.291-0.982-2.305-2.265c-0.015-1.325,1.053-2.369,2.381-2.327c1.307,0.042,2.244,1.03,2.226,2.352
	C77.928,107.896,76.981,108.818,75.645,108.809z"/>
<path opacity="0.6" fill-rule="evenodd" clip-rule="evenodd" fill="#B1ADA0" d="M65.362,99.068c-0.012,1.341-0.936,2.255-2.275,2.25
	c-1.309-0.005-2.268-0.966-2.276-2.28c-0.009-1.367,1.008-2.367,2.363-2.321C64.498,96.763,65.373,97.703,65.362,99.068z"/>
<path opacity="0.6" fill-rule="evenodd" clip-rule="evenodd" fill="#B1ADA0" d="M56.833,101.311
	c-1.346,0.003-2.264-0.902-2.275-2.245c-0.011-1.361,0.879-2.319,2.189-2.351c1.365-0.036,2.373,0.955,2.363,2.323
	C59.101,100.359,58.151,101.307,56.833,101.311z"/>
<path opacity="0.6" fill-rule="evenodd" clip-rule="evenodd" fill="#B1ADA0" d="M165.846,106.577
	c-0.027,1.317-0.991,2.247-2.316,2.232c-1.387-0.013-2.287-0.983-2.235-2.409c0.048-1.318,1.038-2.237,2.354-2.185
	C164.959,104.268,165.872,105.249,165.846,106.577z"/>
<path opacity="0.6" fill-rule="evenodd" clip-rule="evenodd" fill="#B1ADA0" d="M172.098,106.561
	c-0.009,1.344-0.925,2.251-2.27,2.249c-1.318-0.001-2.271-0.947-2.283-2.267c-0.011-1.368,0.998-2.364,2.359-2.329
	C171.217,104.249,172.106,105.2,172.098,106.561z"/>
<path opacity="0.6" fill-rule="evenodd" clip-rule="evenodd" fill="#B1ADA0" d="M182.414,108.809c-1.3,0.005-2.308-0.956-2.339-2.23
	c-0.032-1.317,1.03-2.387,2.349-2.364c1.303,0.023,2.259,1.004,2.259,2.322C184.682,107.862,183.739,108.805,182.414,108.809z"/>
<path opacity="0.6" fill-rule="evenodd" clip-rule="evenodd" fill="#B1ADA0" d="M182.439,93.812
	c-1.303,0.015-2.318-0.932-2.364-2.205c-0.046-1.322,0.999-2.397,2.321-2.39c1.305,0.008,2.271,0.979,2.286,2.295
	C184.696,92.837,183.761,93.797,182.439,93.812z"/>
<path opacity="0.6" fill-rule="evenodd" clip-rule="evenodd" fill="#B1ADA0" d="M165.846,91.521
	c-0.001,1.323-0.944,2.28-2.259,2.291c-1.352,0.011-2.275-0.887-2.293-2.226c-0.018-1.411,0.932-2.391,2.295-2.369
	C164.91,89.239,165.847,90.195,165.846,91.521z"/>
<path opacity="0.6" fill-rule="evenodd" clip-rule="evenodd" fill="#B1ADA0" d="M59.11,114.061c-0.02,1.315-0.981,2.255-2.302,2.249
	c-1.389-0.008-2.295-0.972-2.25-2.395c0.042-1.324,1.023-2.248,2.338-2.201C58.213,111.762,59.129,112.733,59.11,114.061z"/>
<path opacity="0.6" fill-rule="evenodd" clip-rule="evenodd" fill="#B1ADA0" d="M182.462,123.808
	c-1.357,0.026-2.396-0.979-2.387-2.307c0.009-1.274,1.025-2.285,2.3-2.287c1.305-0.004,2.283,0.96,2.308,2.271
	C184.706,122.818,183.785,123.783,182.462,123.808z"/>
<path opacity="0.6" fill-rule="evenodd" clip-rule="evenodd" fill="#B1ADA0" d="M172.098,121.553
	c-0.007,1.346-0.92,2.255-2.265,2.255c-1.317,0-2.274-0.945-2.287-2.263c-0.014-1.369,0.989-2.365,2.353-2.333
	C171.213,119.244,172.104,120.193,172.098,121.553z"/>
<path opacity="0.6" fill-rule="evenodd" clip-rule="evenodd" fill="#B1ADA0" d="M165.846,121.557
	c-0.019,1.315-0.979,2.258-2.299,2.251c-1.343-0.006-2.251-0.917-2.253-2.267c-0.004-1.403,0.969-2.373,2.335-2.327
	C164.944,119.256,165.864,120.229,165.846,121.557z"/>
<path opacity="0.6" fill-rule="evenodd" clip-rule="evenodd" fill="#B1ADA0" d="M165.846,84.062
	c-0.019,1.315-0.979,2.256-2.299,2.25c-1.342-0.006-2.25-0.917-2.253-2.266c-0.004-1.404,0.968-2.373,2.335-2.328
	C164.942,81.761,165.864,82.734,165.846,84.062z"/>
<path opacity="0.6" fill-rule="evenodd" clip-rule="evenodd" fill="#B1ADA0" d="M75.627,123.808
	c-1.299-0.016-2.284-0.997-2.288-2.282c-0.004-1.324,1.067-2.357,2.399-2.312c1.293,0.044,2.234,1.054,2.208,2.37
	C77.92,122.912,76.969,123.824,75.627,123.808z"/>
<path opacity="0.6" fill-rule="evenodd" clip-rule="evenodd" fill="#B1ADA0" d="M60.813,121.369c0.062-1.293,1.09-2.215,2.401-2.153
	c1.359,0.062,2.226,1.077,2.146,2.515c-0.072,1.296-1.079,2.153-2.44,2.077C61.646,123.736,60.749,122.696,60.813,121.369z"/>
<path opacity="0.6" fill-rule="evenodd" clip-rule="evenodd" fill="#B1ADA0" d="M59.11,121.477c0.016,1.328-0.912,2.303-2.218,2.331
	c-1.358,0.029-2.302-0.854-2.334-2.185c-0.034-1.416,0.898-2.412,2.254-2.411C58.129,119.213,59.094,120.164,59.11,121.477z"/>
<path fill-rule="evenodd" clip-rule="evenodd" fill="#7DC142" d="M182.405,116.31c-1.299,0-2.303-0.964-2.33-2.239
	c-0.028-1.319,1.038-2.384,2.356-2.356c1.304,0.026,2.255,1.012,2.251,2.329C184.679,115.368,183.734,116.308,182.405,116.31z"/>
<path opacity="0.6" fill-rule="evenodd" clip-rule="evenodd" fill="#B1ADA0" d="M172.098,114.017
	c0.005,1.355-0.889,2.276-2.228,2.293c-1.325,0.017-2.294-0.911-2.324-2.226c-0.03-1.376,0.953-2.382,2.315-2.37
	C171.178,111.726,172.092,112.667,172.098,114.017z"/>
<path opacity="0.6" fill-rule="evenodd" clip-rule="evenodd" fill="#B1ADA0" d="M165.846,114.058
	c-0.019,1.316-0.979,2.256-2.299,2.252c-1.343-0.006-2.251-0.919-2.253-2.267c-0.004-1.404,0.969-2.373,2.335-2.329
	C164.944,111.758,165.864,112.731,165.846,114.058z"/>
<path opacity="0.6" fill-rule="evenodd" clip-rule="evenodd" fill="#B1ADA0" d="M59.11,91.56c-0.019,1.315-0.979,2.257-2.298,2.252
	c-1.342-0.005-2.25-0.918-2.253-2.266c-0.003-1.403,0.972-2.375,2.335-2.329C58.21,89.263,59.128,90.233,59.11,91.56z"/>
<path opacity="0.6" fill-rule="evenodd" clip-rule="evenodd" fill="#B1ADA0" d="M65.362,91.49c0.017,1.359-0.87,2.301-2.196,2.331
	c-1.367,0.03-2.367-0.958-2.356-2.327c0.01-1.319,0.973-2.278,2.284-2.275C64.423,89.221,65.345,90.145,65.362,91.49z"/>
<path opacity="0.6" fill-rule="evenodd" clip-rule="evenodd" fill="#B1ADA0" d="M75.633,93.812c-1.3-0.013-2.286-0.993-2.293-2.276
	c-0.008-1.279,0.99-2.299,2.268-2.319c1.356-0.02,2.363,1,2.339,2.366C77.922,92.911,76.974,93.825,75.633,93.812z"/>
<path opacity="0.6" fill-rule="evenodd" clip-rule="evenodd" fill="#B1ADA0" d="M75.633,116.31c-1.3-0.015-2.286-0.993-2.293-2.276
	c-0.007-1.28,0.991-2.299,2.269-2.318c1.355-0.021,2.362,0.999,2.338,2.365C77.922,115.408,76.973,116.321,75.633,116.31z"/>
<path opacity="0.6" fill-rule="evenodd" clip-rule="evenodd" fill="#B1ADA0" d="M65.362,114.037c0,1.35-0.904,2.264-2.247,2.272
	c-1.323,0.007-2.283-0.929-2.304-2.245c-0.022-1.375,0.97-2.375,2.334-2.351C64.461,111.736,65.363,112.68,65.362,114.037z"/>
<path opacity="0.6" fill-rule="evenodd" clip-rule="evenodd" fill="#B1ADA0" d="M172.098,173.979
	c0.018,1.364-0.862,2.295-2.196,2.322c-1.379,0.029-2.367-0.944-2.356-2.319c0.012-1.316,0.97-2.271,2.285-2.276
	C171.147,171.701,172.081,172.637,172.098,173.979z"/>
<path opacity="0.6" fill-rule="evenodd" clip-rule="evenodd" fill="#B1ADA0" d="M172.098,159c0.009,1.359-0.879,2.283-2.217,2.303
	c-1.325,0.021-2.3-0.904-2.335-2.215c-0.036-1.377,0.94-2.387,2.304-2.381C171.166,156.714,172.089,157.654,172.098,159z"/>
<path opacity="0.6" fill-rule="evenodd" clip-rule="evenodd" fill="#B1ADA0" d="M165.846,159.006
	c0.002,1.324-0.939,2.283-2.254,2.297c-1.351,0.014-2.278-0.883-2.298-2.221c-0.021-1.413,0.925-2.393,2.29-2.374
	C164.906,156.728,165.844,157.681,165.846,159.006z"/>
<path opacity="0.6" fill-rule="evenodd" clip-rule="evenodd" fill="#B1ADA0" d="M56.88,63.815c-1.356,0.024-2.294-0.864-2.322-2.197
	c-0.029-1.414,0.909-2.406,2.267-2.397c1.319,0.008,2.274,0.959,2.285,2.275C59.122,62.823,58.189,63.793,56.88,63.815z"/>
<path opacity="0.6" fill-rule="evenodd" clip-rule="evenodd" fill="#B1ADA0" d="M65.362,61.589c-0.017,1.34-0.942,2.238-2.292,2.226
	c-1.315-0.011-2.258-0.966-2.259-2.29c-0.001-1.363,1.022-2.354,2.38-2.306C64.503,59.267,65.38,60.223,65.362,61.589z"/>
<path opacity="0.6" fill-rule="evenodd" clip-rule="evenodd" fill="#B1ADA0" d="M75.627,63.815
	c-1.299-0.015-2.284-0.997-2.288-2.281c-0.004-1.278,0.997-2.296,2.274-2.312c1.355-0.017,2.36,1.004,2.333,2.371
	C77.919,62.92,76.969,63.832,75.627,63.815z"/>
<path opacity="0.6" fill-rule="evenodd" clip-rule="evenodd" fill="#B1ADA0" d="M172.098,151.494c0.012,1.361-0.872,2.286-2.21,2.31
	c-1.324,0.022-2.304-0.9-2.342-2.207c-0.039-1.379,0.934-2.391,2.297-2.388C171.159,149.211,172.086,150.15,172.098,151.494z"/>
<path opacity="0.6" fill-rule="evenodd" clip-rule="evenodd" fill="#B1ADA0" d="M165.846,151.514
	c-0.002,1.323-0.944,2.279-2.26,2.29c-1.351,0.011-2.274-0.887-2.292-2.226c-0.018-1.411,0.934-2.392,2.296-2.369
	C164.911,149.23,165.847,150.187,165.846,151.514z"/>
<path opacity="0.6" fill-rule="evenodd" clip-rule="evenodd" fill="#B1ADA0" d="M172.098,166.484
	c0.016,1.363-0.865,2.291-2.202,2.317c-1.377,0.027-2.363-0.948-2.351-2.323c0.014-1.315,0.976-2.27,2.291-2.271
	C171.153,164.205,172.083,165.141,172.098,166.484z"/>
<path opacity="0.6" fill-rule="evenodd" clip-rule="evenodd" fill="#B1ADA0" d="M165.846,166.475
	c0.016,1.328-0.914,2.301-2.222,2.327c-1.358,0.027-2.3-0.857-2.33-2.189c-0.032-1.414,0.897-2.405,2.259-2.405
	C164.866,164.206,165.832,165.161,165.846,166.475z"/>
</svg>
