<?xml version="1.0" encoding="utf-8"?>
<!-- Generator: Adobe Illustrator 16.0.0, SVG Export Plug-In . SVG Version: 6.00 Build 0)  -->
<!DOCTYPE svg PUBLIC "-//W3C//DTD SVG 1.1//EN" "http://www.w3.org/Graphics/SVG/1.1/DTD/svg11.dtd">
<svg version="1.1" id="Layer_1" xmlns="http://www.w3.org/2000/svg" xmlns:xlink="http://www.w3.org/1999/xlink" x="0px" y="0px"
	 width="699px" height="341px" viewBox="0 0 699 341" enable-background="new 0 0 699 341" xml:space="preserve">
<text transform="matrix(1 0 0 1 75.6729 29.7305)" font-family="'AvenirLTStd-HeavyOblique'" font-size="14">Real Data</text>
<text transform="matrix(1 0 0 1 75.6729 57.0635)"><tspan x="0" y="0" font-family="'AvenirLTStd-Heavy'" font-size="14">Convenience 1</tspan><tspan x="0" y="16.8" font-family="'AvenirLTStd-Heavy'" font-size="14">[Stations/Sqm]</tspan></text>
<text transform="matrix(1 0 0 1 368.3398 97.0635)"><tspan x="0" y="0" font-family="'AvenirLTStd-Heavy'" font-size="14">Convenience 1</tspan><tspan x="0" y="16.8" font-family="'AvenirLTStd-Heavy'" font-size="14">[Stations/Sqm]</tspan></text>
<text transform="matrix(1 0 0 1 513.6738 57.0635)"><tspan x="0" y="0" font-family="'AvenirLTStd-Heavy'" font-size="14">Convenience 1</tspan><tspan x="0" y="16.8" font-family="'AvenirLTStd-Heavy'" font-size="14">[Stations/Sqm]</tspan></text>
<text transform="matrix(1 0 0 1 151.5464 100.7305)"><tspan x="0" y="0" font-family="'AvenirLTStd-Roman'" font-size="14">5.1</tspan><tspan x="0" y="16.8" font-family="'AvenirLTStd-Roman'" font-size="14">7.0</tspan><tspan x="-7.784" y="33.6" font-family="'AvenirLTStd-Roman'" font-size="14">12.2</tspan><tspan x="0" y="50.4" font-family="'AvenirLTStd-Roman'" font-size="14">6.3</tspan><tspan x="-7.784" y="67.2" font-family="'AvenirLTStd-Roman'" font-size="14">15.3</tspan><tspan x="-7.784" y="84" font-family="'AvenirLTStd-Roman'" font-size="14">11.1</tspan><tspan x="0" y="100.8" font-family="'AvenirLTStd-Roman'" font-size="14">8.1</tspan><tspan x="0" y="117.6" font-family="'AvenirLTStd-Roman'" font-size="14">5.5</tspan><tspan x="-7.784" y="134.4" font-family="'AvenirLTStd-Roman'" font-size="14">19.7</tspan><tspan x="-7.784" y="151.2" font-family="'AvenirLTStd-Roman'" font-size="14">17.2</tspan><tspan x="0" y="168" font-family="'AvenirLTStd-Roman'" font-size="14">4.8</tspan><tspan x="-7.784" y="184.8" font-family="'AvenirLTStd-Roman'" font-size="14">42.1</tspan><tspan x="-7.784" y="201.6" font-family="'AvenirLTStd-Roman'" font-size="14">19.3</tspan><tspan x="-7.784" y="218.4" font-family="'AvenirLTStd-Roman'" font-size="14">31.5</tspan></text>
<text transform="matrix(1 0 0 1 252.105 140.7305)"><tspan x="0" y="0" font-family="'AvenirLTStd-Roman'" font-size="14">10</tspan><tspan x="7.784" y="16.8" font-family="'AvenirLTStd-Roman'" font-size="14">9</tspan><tspan x="7.784" y="33.6" font-family="'AvenirLTStd-Roman'" font-size="14">8</tspan><tspan x="7.784" y="50.4" font-family="'AvenirLTStd-Roman'" font-size="14">7</tspan><tspan x="7.784" y="67.2" font-family="'AvenirLTStd-Roman'" font-size="14">6</tspan><tspan x="7.784" y="84" font-family="'AvenirLTStd-Roman'" font-size="14">5</tspan><tspan x="7.784" y="100.8" font-family="'AvenirLTStd-Roman'" font-size="14">4</tspan><tspan x="7.784" y="117.6" font-family="'AvenirLTStd-Roman'" font-size="14">3</tspan><tspan x="7.784" y="134.4" font-family="'AvenirLTStd-Roman'" font-size="14">2</tspan><tspan x="7.784" y="151.2" font-family="'AvenirLTStd-Roman'" font-size="14">1</tspan></text>
<text transform="matrix(1 0 0 1 439.8789 140.7305)"><tspan x="0" y="0" font-family="'AvenirLTStd-Roman'" font-size="14">&gt;20</tspan><tspan x="-30.367" y="16.8" font-family="'AvenirLTStd-Roman'" font-size="14">18-19.99</tspan><tspan x="-30.367" y="33.6" font-family="'AvenirLTStd-Roman'" font-size="14">16-17.99</tspan><tspan x="-30.367" y="50.4" font-family="'AvenirLTStd-Roman'" font-size="14">14-15.99</tspan><tspan x="-30.367" y="67.2" font-family="'AvenirLTStd-Roman'" font-size="14">12-13.99</tspan><tspan x="-30.367" y="84" font-family="'AvenirLTStd-Roman'" font-size="14">10-11.99</tspan><tspan x="-14.799" y="100.8" font-family="'AvenirLTStd-Roman'" font-size="14">8-9.99</tspan><tspan x="-14.799" y="117.6" font-family="'AvenirLTStd-Roman'" font-size="14">6-7.99</tspan><tspan x="-14.799" y="134.4" font-family="'AvenirLTStd-Roman'" font-size="14">4-5.99</tspan><tspan x="7.783" y="151.2" font-family="'AvenirLTStd-Roman'" font-size="14">&lt;4</tspan></text>
<text transform="matrix(1 0 0 1 590.6426 100.7305)"><tspan x="0" y="0" font-family="'AvenirLTStd-Roman'" font-size="14">5.1</tspan><tspan x="0" y="16.8" font-family="'AvenirLTStd-Roman'" font-size="14">7.0</tspan><tspan x="-7.783" y="33.6" font-family="'AvenirLTStd-Roman'" font-size="14">12.2</tspan><tspan x="0" y="50.4" font-family="'AvenirLTStd-Roman'" font-size="14">6.3</tspan><tspan x="-7.783" y="67.2" font-family="'AvenirLTStd-Roman'" font-size="14">15.3</tspan><tspan x="-7.783" y="84" font-family="'AvenirLTStd-Roman'" font-size="14">11.1</tspan><tspan x="0" y="100.8" font-family="'AvenirLTStd-Roman'" font-size="14">8.1</tspan><tspan x="0" y="117.6" font-family="'AvenirLTStd-Roman'" font-size="14">5.5</tspan><tspan x="-7.783" y="134.4" font-family="'AvenirLTStd-Roman'" font-size="14">19.7</tspan><tspan x="-7.783" y="151.2" font-family="'AvenirLTStd-Roman'" font-size="14">17.2</tspan><tspan x="0" y="168" font-family="'AvenirLTStd-Roman'" font-size="14">4.8</tspan><tspan x="-7.783" y="184.8" font-family="'AvenirLTStd-Roman'" font-size="14">42.1</tspan><tspan x="-7.783" y="201.6" font-family="'AvenirLTStd-Roman'" font-size="14">19.3</tspan><tspan x="-7.783" y="218.4" font-family="'AvenirLTStd-Roman'" font-size="14">31.5</tspan></text>
<text transform="matrix(1 0 0 1 225.0063 97.0635)" font-family="'AvenirLTStd-Heavy'" font-size="14">Score</text>
<text transform="matrix(1 0 0 1 513.6719 29.7305)" font-family="'AvenirLTStd-HeavyOblique'" font-size="14">Score</text>
<text transform="matrix(1 0 0 1 225.0957 29.7305)" font-family="'AvenirLTStd-HeavyOblique'" font-size="14">Ranges</text>
<g>
	<g>
		<line fill="none" stroke="#363795" stroke-width="2" stroke-miterlimit="10" x1="226.666" y1="52.333" x2="454.055" y2="52.333"/>
		<g>
			<polygon fill="#363795" points="452.304,58.316 462.666,52.333 452.304,46.35 			"/>
		</g>
	</g>
</g>
<line fill="none" stroke="#363695" stroke-width="2" stroke-miterlimit="10" x1="76.666" y1="81.666" x2="169.333" y2="81.666"/>
<line fill="none" stroke="#363695" stroke-width="2" stroke-miterlimit="10" x1="226.666" y1="122.332" x2="463.333" y2="122.332"/>
<line fill="none" stroke="#363695" stroke-width="2" stroke-miterlimit="10" x1="516" y1="81.666" x2="608.667" y2="81.666"/>
</svg>
